<svg xmlns="http://www.w3.org/2000/svg" xmlns:xlink="http://www.w3.org/1999/xlink" version="1.2" width="143.9999mm" height="51.554924mm" viewBox="0.05 3.8453 81.94389800950884 29.337599">

<text fill="currentColor" text-anchor="start" font-size="2.2001" font-family="Century Schoolbook L" transform="translate(2.2762, 2.8453)">
<tspan>
 </tspan>
</text>
<text fill="currentColor" text-anchor="start" font-size="2.2001" font-family="Century Schoolbook L" transform="translate(2.2762, 3.8453)">
<tspan>
 </tspan>
</text>
<text fill="currentColor" text-anchor="start" font-size="2.2001" font-family="Century Schoolbook L" transform="translate(79.7588, 3.8453)">
<tspan>
 </tspan>
</text>
<rect fill="currentColor" ry="0.1000" height="0.2000" width="1.9743" y="-0.1000" x="8.2757" transform="translate(2.2762, 12.1829)"/>
<rect fill="currentColor" ry="0.1000" height="0.2000" width="1.9743" y="-0.1000" x="22.5058" transform="translate(2.2762, 12.1829)"/>
<rect fill="currentColor" ry="0.1000" height="0.2000" width="1.9743" y="-0.1000" x="38.3573" transform="translate(2.2762, 12.1829)"/>
<rect fill="currentColor" ry="0.1000" height="0.2000" width="1.9743" y="-0.1000" x="43.3112" transform="translate(2.2762, 12.1829)"/>
<rect fill="currentColor" ry="0.1000" height="0.2000" width="1.9743" y="-0.1000" x="56.0696" transform="translate(2.2762, 12.1829)"/>
<rect fill="currentColor" ry="0.1000" height="0.2000" width="1.9743" y="-0.1000" x="71.9650" transform="translate(2.2762, 12.1829)"/>
<line y2="-0.0000" x2="79.6177" y1="-0.0000" x1="0.0500" stroke="currentColor" stroke-width="0.1000" stroke-linecap="round" stroke-linejoin="round" transform="translate(2.2762, 11.1829)"/>
<line y2="-0.0000" x2="79.6177" y1="-0.0000" x1="0.0500" stroke="currentColor" stroke-width="0.1000" stroke-linecap="round" stroke-linejoin="round" transform="translate(2.2762, 10.1829)"/>
<line y2="-0.0000" x2="79.6177" y1="-0.0000" x1="0.0500" stroke="currentColor" stroke-width="0.1000" stroke-linecap="round" stroke-linejoin="round" transform="translate(2.2762, 9.1829)"/>
<line y2="-0.0000" x2="79.6177" y1="-0.0000" x1="0.0500" stroke="currentColor" stroke-width="0.1000" stroke-linecap="round" stroke-linejoin="round" transform="translate(2.2762, 8.1829)"/>
<line y2="-0.0000" x2="79.6177" y1="-0.0000" x1="0.0500" stroke="currentColor" stroke-width="0.1000" stroke-linecap="round" stroke-linejoin="round" transform="translate(2.2762, 7.1829)"/>
<rect fill="currentColor" ry="0.0000" height="4.0000" width="0.1900" y="-2.0000" x="0.0000" transform="translate(81.7539, 9.1829)"/>
<rect fill="currentColor" ry="0.0000" height="4.0000" width="0.1900" y="-2.0000" x="0.0000" transform="translate(50.2131, 9.1829)"/>
<rect fill="currentColor" ry="0.0000" height="4.0000" width="0.1900" y="-2.0000" x="0.0000" transform="translate(29.4077, 9.1829)"/>
<rect fill="currentColor" ry="0.0000" height="4.0000" width="0.1900" y="-2.0000" x="0.0000" transform="translate(65.8585, 9.1829)"/>
<a xlink:href="textedit:///home/kalvis/workspace/ddgatve-songs/songs/lilypond/LabvakariJanaMate.ly:21:33:34" style="color:inherit;">
<path fill="currentColor" d="M220 138c56 0 109 -29 109 -91c0 -72 -56 -121 -103 -149c-36 -21 -76 -36 -117 -36c-56 0 -109 29 -109 91c0 72 56 121 103 149c36 21 76 36 117 36z" transform="translate(58.6749, 12.1829) scale(0.0040, -0.0040)"/>
</a>
<a xlink:href="textedit:///home/kalvis/workspace/ddgatve-songs/songs/lilypond/LabvakariJanaMate.ly:36:48:49" style="color:inherit;">
<text fill="currentColor" text-anchor="start" font-size="2.4696" font-family="Century Schoolbook L" transform="translate(57.7111, 15.0425)">
<tspan>
go,</tspan>
</text>
</a>
<rect fill="currentColor" ry="0.0400" height="3.3122" width="0.1300" y="-0.5000" x="-0.0650" transform="translate(59.9260, 9.1829)"/>
<a xlink:href="textedit:///home/kalvis/workspace/ddgatve-songs/songs/lilypond/LabvakariJanaMate.ly:43:21:22" style="color:inherit;">
<text fill="currentColor" text-anchor="start" font-size="2.6163" font-family="sans-serif" transform="translate(67.5652, 6.5987)">
<tspan>
G</tspan>
</text>
<text fill="currentColor" text-anchor="start" font-size="2.6163" font-family="sans-serif" transform="translate(69.5796, 6.5987)">
<tspan/>
</text>
<text fill="currentColor" text-anchor="start" font-size="2.6163" font-family="sans-serif" transform="translate(69.5796, 6.5987)">
<tspan/>
</text>
<text fill="currentColor" text-anchor="start" font-size="1.8500" font-family="sans-serif" transform="translate(69.5796, 5.0987)">
<tspan/>
</text>
</a>
<a xlink:href="textedit:///home/kalvis/workspace/ddgatve-songs/songs/lilypond/LabvakariJanaMate.ly:21:37:38" style="color:inherit;">
<path fill="currentColor" d="M220 138c56 0 109 -29 109 -91c0 -72 -56 -121 -103 -149c-36 -21 -76 -36 -117 -36c-56 0 -109 29 -109 91c0 72 56 121 103 149c36 21 76 36 117 36z" transform="translate(67.5652, 11.6829) scale(0.0040, -0.0040)"/>
</a>
<a xlink:href="textedit:///home/kalvis/workspace/ddgatve-songs/songs/lilypond/LabvakariJanaMate.ly:36:32:33" style="color:inherit;">
<text fill="currentColor" text-anchor="start" font-size="2.4696" font-family="Century Schoolbook L" transform="translate(39.8452, 15.0425)">
<tspan>
mā</tspan>
</text>
</a>
<rect fill="currentColor" ry="0.0400" height="3.3122" width="0.1300" y="-0.5000" x="-0.0650" transform="translate(42.2137, 9.1829)"/>
<path fill="currentColor" d="M0 0c0 -198 209 -335 209 -533c0 -71 -16 -141 -42 -207c-5 -8 -12 -12 -19 -12c-13 0 -26 11 -23 27c26 61 42 126 42 192c0 104 -95 208 -167 283h-16v250h16z" transform="translate(42.2787, 8.7229) scale(0.0040, -0.0040)"/>
<a xlink:href="textedit:///home/kalvis/workspace/ddgatve-songs/songs/lilypond/LabvakariJanaMate.ly:21:24:25" style="color:inherit;">
<path fill="currentColor" d="M220 138c56 0 109 -29 109 -91c0 -72 -56 -121 -103 -149c-36 -21 -76 -36 -117 -36c-56 0 -109 29 -109 91c0 72 56 121 103 149c36 21 76 36 117 36z" transform="translate(45.9165, 12.1829) scale(0.0040, -0.0040)"/>
</a>
<a xlink:href="textedit:///home/kalvis/workspace/ddgatve-songs/songs/lilypond/LabvakariJanaMate.ly:36:38:39" style="color:inherit;">
<text fill="currentColor" text-anchor="start" font-size="2.4696" font-family="Century Schoolbook L" transform="translate(45.1405, 15.0425)">
<tspan>
te,</tspan>
</text>
</a>
<rect fill="currentColor" ry="0.0400" height="3.3122" width="0.1300" y="-0.5000" x="-0.0650" transform="translate(47.1676, 9.1829)"/>
<path fill="currentColor" d="M0 0c0 -198 209 -335 209 -533c0 -71 -16 -141 -42 -207c-5 -8 -12 -12 -19 -12c-13 0 -26 11 -23 27c26 61 42 126 42 192c0 104 -95 208 -167 283h-16v250h16z" transform="translate(47.2326, 8.7229) scale(0.0040, -0.0040)"/>
<a xlink:href="textedit:///home/kalvis/workspace/ddgatve-songs/songs/lilypond/LabvakariJanaMate.ly:21:28:29" style="color:inherit;">
<path fill="currentColor" d="M220 138c56 0 109 -29 109 -91c0 -72 -56 -121 -103 -149c-36 -21 -76 -36 -117 -36c-56 0 -109 29 -109 91c0 72 56 121 103 149c36 21 76 36 117 36z" transform="translate(51.9198, 11.1829) scale(0.0040, -0.0040)"/>
</a>
<a xlink:href="textedit:///home/kalvis/workspace/ddgatve-songs/songs/lilypond/LabvakariJanaMate.ly:36:42:43" style="color:inherit;">
<text fill="currentColor" text-anchor="start" font-size="2.4696" font-family="Century Schoolbook L" transform="translate(51.7926, 15.0425)">
<tspan>
lī</tspan>
</text>
</a>
<rect fill="currentColor" ry="0.0400" height="3.3122" width="0.1300" y="-1.5000" x="-0.0650" transform="translate(53.1710, 9.1829)"/>
<a xlink:href="textedit:///home/kalvis/workspace/ddgatve-songs/songs/lilypond/LabvakariJanaMate.ly:36:55:56" style="color:inherit;">
<rect fill="currentColor" ry="0.0400" height="0.1300" width="0.6600" y="-0.5500" x="0.0000" transform="translate(70.9776, 15.0425)"/>
</a>
<a xlink:href="textedit:///home/kalvis/workspace/ddgatve-songs/songs/lilypond/LabvakariJanaMate.ly:36:45:46" style="color:inherit;">
<rect fill="currentColor" ry="0.0400" height="0.1300" width="0.6600" y="-0.5500" x="0.0000" transform="translate(55.2072, 15.0425)"/>
</a>
<a xlink:href="textedit:///home/kalvis/workspace/ddgatve-songs/songs/lilypond/LabvakariJanaMate.ly:36:35:36" style="color:inherit;">
<rect fill="currentColor" ry="0.0400" height="0.1300" width="0.6600" y="-0.5500" x="0.0000" transform="translate(43.9383, 15.0425)"/>
</a>
<a xlink:href="textedit:///home/kalvis/workspace/ddgatve-songs/songs/lilypond/LabvakariJanaMate.ly:36:26:27" style="color:inherit;">
<rect fill="currentColor" ry="0.0400" height="0.1300" width="0.6600" y="-0.5500" x="0.0000" transform="translate(33.6804, 15.0425)"/>
</a>
<a xlink:href="textedit:///home/kalvis/workspace/ddgatve-songs/songs/lilypond/LabvakariJanaMate.ly:36:16:17" style="color:inherit;">
<rect fill="currentColor" ry="0.0400" height="0.1300" width="0.6600" y="-0.5500" x="0.0000" transform="translate(23.2866, 15.0425)"/>
</a>
<a xlink:href="textedit:///home/kalvis/workspace/ddgatve-songs/songs/lilypond/LabvakariJanaMate.ly:36:10:11" style="color:inherit;">
<rect fill="currentColor" ry="0.0400" height="0.1300" width="0.6600" y="-0.5500" x="0.0000" transform="translate(18.7082, 15.0425)"/>
</a>
<a xlink:href="textedit:///home/kalvis/workspace/ddgatve-songs/songs/lilypond/LabvakariJanaMate.ly:36:4:5" style="color:inherit;">
<rect fill="currentColor" ry="0.0400" height="0.1300" width="0.6600" y="-0.5500" x="0.0000" transform="translate(14.2664, 15.0425)"/>
</a>
<a xlink:href="textedit:///home/kalvis/workspace/ddgatve-songs/songs/lilypond/LabvakariJanaMate.ly:36:52:53" style="color:inherit;">
<text fill="currentColor" text-anchor="start" font-size="2.4696" font-family="Century Schoolbook L" transform="translate(67.4380, 15.0425)">
<tspan>
lī</tspan>
</text>
</a>
<rect fill="currentColor" ry="0.0400" height="3.3122" width="0.1300" y="-1.0000" x="-0.0650" transform="translate(68.8164, 9.1829)"/>
<a xlink:href="textedit:///home/kalvis/workspace/ddgatve-songs/songs/lilypond/LabvakariJanaMate.ly:43:26:27" style="color:inherit;">
<text fill="currentColor" text-anchor="start" font-size="2.6163" font-family="sans-serif" transform="translate(74.5703, 6.5987)">
<tspan>
C</tspan>
</text>
<text fill="currentColor" text-anchor="start" font-size="2.6163" font-family="sans-serif" transform="translate(76.3799, 6.5987)">
<tspan/>
</text>
<text fill="currentColor" text-anchor="start" font-size="2.6163" font-family="sans-serif" transform="translate(76.3799, 6.5987)">
<tspan/>
</text>
<text fill="currentColor" text-anchor="start" font-size="1.8500" font-family="sans-serif" transform="translate(76.3799, 5.0987)">
<tspan/>
</text>
</a>
<a xlink:href="textedit:///home/kalvis/workspace/ddgatve-songs/songs/lilypond/LabvakariJanaMate.ly:21:40:41" style="color:inherit;">
<path fill="currentColor" d="M220 138c56 0 109 -29 109 -91c0 -72 -56 -121 -103 -149c-36 -21 -76 -36 -117 -36c-56 0 -109 29 -109 91c0 72 56 121 103 149c36 21 76 36 117 36z" transform="translate(74.5703, 12.1829) scale(0.0040, -0.0040)"/>
</a>
<a xlink:href="textedit:///home/kalvis/workspace/ddgatve-songs/songs/lilypond/LabvakariJanaMate.ly:36:58:59" style="color:inherit;">
<text fill="currentColor" text-anchor="start" font-size="2.4696" font-family="Century Schoolbook L" transform="translate(73.6066, 15.0425)">
<tspan>
go,</tspan>
</text>
</a>
<rect fill="currentColor" ry="0.0400" height="3.3122" width="0.1300" y="-0.5000" x="-0.0650" transform="translate(75.8215, 9.1829)"/>
<a xlink:href="textedit:///home/kalvis/workspace/ddgatve-songs/songs/lilypond/LabvakariJanaMate.ly:21:3:4" style="color:inherit;">
<path fill="currentColor" d="M220 138c56 0 109 -29 109 -91c0 -72 -56 -121 -103 -149c-36 -21 -76 -36 -117 -36c-56 0 -109 29 -109 91c0 72 56 121 103 149c36 21 76 36 117 36z" transform="translate(16.1592, 11.1829) scale(0.0040, -0.0040)"/>
</a>
<a xlink:href="textedit:///home/kalvis/workspace/ddgatve-songs/songs/lilypond/LabvakariJanaMate.ly:36:7:8" style="color:inherit;">
<text fill="currentColor" text-anchor="start" font-size="2.4696" font-family="Century Schoolbook L" transform="translate(15.4687, 15.0425)">
<tspan>
va</tspan>
</text>
</a>
<rect fill="currentColor" ry="0.0400" height="3.3122" width="0.1300" y="-1.5000" x="-0.0650" transform="translate(17.4104, 9.1829)"/>
<path fill="currentColor" d="M0 0c0 -198 209 -335 209 -533c0 -71 -16 -141 -42 -207c-5 -8 -12 -12 -19 -12c-13 0 -26 11 -23 27c26 61 42 126 42 192c0 104 -95 208 -167 283h-16v250h16z" transform="translate(17.4754, 7.7229) scale(0.0040, -0.0040)"/>
<a xlink:href="textedit:///home/kalvis/workspace/ddgatve-songs/songs/lilypond/LabvakariJanaMate.ly:21:7:8" style="color:inherit;">
<path fill="currentColor" d="M220 138c56 0 109 -29 109 -91c0 -72 -56 -121 -103 -149c-36 -21 -76 -36 -117 -36c-56 0 -109 29 -109 91c0 72 56 121 103 149c36 21 76 36 117 36z" transform="translate(20.6693, 11.1829) scale(0.0040, -0.0040)"/>
</a>
<a xlink:href="textedit:///home/kalvis/workspace/ddgatve-songs/songs/lilypond/LabvakariJanaMate.ly:36:13:14" style="color:inherit;">
<text fill="currentColor" text-anchor="start" font-size="2.4696" font-family="Century Schoolbook L" transform="translate(19.9104, 15.0425)">
<tspan>
ka</tspan>
</text>
</a>
<rect fill="currentColor" ry="0.0400" height="3.3122" width="0.1300" y="-1.5000" x="-0.0650" transform="translate(21.9205, 9.1829)"/>
<path fill="currentColor" d="M0 0c0 -198 209 -335 209 -533c0 -71 -16 -141 -42 -207c-5 -8 -12 -12 -19 -12c-13 0 -26 11 -23 27c26 61 42 126 42 192c0 104 -95 208 -167 283h-16v250h16z" transform="translate(21.9855, 7.7229) scale(0.0040, -0.0040)"/>
<a xlink:href="textedit:///home/kalvis/workspace/ddgatve-songs/songs/lilypond/LabvakariJanaMate.ly:43:0:1" style="color:inherit;">
<text fill="currentColor" text-anchor="start" font-size="2.6163" font-family="sans-serif" transform="translate(10.8810, 6.5987)">
<tspan>
C</tspan>
</text>
<text fill="currentColor" text-anchor="start" font-size="2.6163" font-family="sans-serif" transform="translate(12.6906, 6.5987)">
<tspan/>
</text>
<text fill="currentColor" text-anchor="start" font-size="2.6163" font-family="sans-serif" transform="translate(12.6906, 6.5987)">
<tspan/>
</text>
<text fill="currentColor" text-anchor="start" font-size="1.8500" font-family="sans-serif" transform="translate(12.6906, 5.0987)">
<tspan/>
</text>
</a>
<a xlink:href="textedit:///home/kalvis/workspace/ddgatve-songs/songs/lilypond/LabvakariJanaMate.ly:21:0:1" style="color:inherit;">
<path fill="currentColor" d="M220 138c56 0 109 -29 109 -91c0 -72 -56 -121 -103 -149c-36 -21 -76 -36 -117 -36c-56 0 -109 29 -109 91c0 72 56 121 103 149c36 21 76 36 117 36z" transform="translate(10.8810, 12.1829) scale(0.0040, -0.0040)"/>
</a>
<path fill="currentColor" d="M376 262c4 0 9 1 13 1c155 0 256 -128 256 -261c0 -76 -33 -154 -107 -210c-22 -17 -47 -28 -73 -36c3 -35 5 -70 5 -105c0 -19 -1 -39 -2 -58c-7 -120 -90 -228 -208 -228c-108 0 -195 88 -195 197c0 58 53 103 112 103c54 0 95 -47 95 -103c0 -52 -43 -95 -95 -95 c-11 0 -21 2 -31 6c26 -39 68 -65 117 -65c96 0 157 92 163 191c1 18 2 37 2 55c0 31 -1 61 -4 92c-29 -5 -58 -8 -89 -8c-188 0 -333 172 -333 374c0 177 131 306 248 441c-19 62 -37 125 -45 190c-6 52 -7 104 -7 156c0 115 55 224 149 292c3 2 7 3 10 3c4 0 7 0 10 -3 c71 -84 133 -245 133 -358c0 -143 -86 -255 -180 -364c21 -68 39 -138 56 -207zM461 -203c68 24 113 95 113 164c0 90 -66 179 -173 190c24 -116 46 -231 60 -354zM74 28c0 -135 129 -247 264 -247c28 0 55 2 82 6c-14 127 -37 245 -63 364c-79 -8 -124 -61 -124 -119 c0 -44 25 -91 81 -123c5 -5 7 -10 7 -15c0 -11 -10 -22 -22 -22c-3 0 -6 1 -9 2c-80 43 -117 115 -117 185c0 88 58 174 160 197c-14 58 -29 117 -46 175c-107 -121 -213 -243 -213 -403zM408 1045c-99 -48 -162 -149 -162 -259c0 -74 18 -133 36 -194 c80 97 146 198 146 324c0 55 -4 79 -20 129z" transform="translate(3.0762, 10.1829) scale(0.0040, -0.0040)"/>
<a xlink:href="textedit:///home/kalvis/workspace/ddgatve-songs/songs/lilypond/LabvakariJanaMate.ly:29:0:1" style="color:inherit;">
</a>
<path fill="currentColor" d="M204 307c22 14 44 29 60 50c11 15 19 33 27 50c2 4 5 6 9 6c6 0 13 -5 13 -14v-245h72c10 0 15 -7 15 -14s-5 -15 -15 -15h-72v-8c0 -48 27 -94 72 -94c8 0 12 -5 12 -11s-4 -12 -12 -12c-44 0 -87 13 -131 13s-87 -13 -131 -13c-8 0 -12 6 -12 12s4 11 12 11 c45 0 73 46 73 94v8h-167c-23 0 -31 14 -31 23c0 3 1 5 2 6c80 93 138 207 138 330c0 9 6 16 13 16h3c23 -7 47 -13 71 -13s48 6 71 13c2 1 3 1 5 1c11 0 18 -10 12 -17l-284 -330h167v131c0 8 1 17 8 22z" transform="translate(7.2762, 11.1973) scale(0.0040, -0.0040)"/>
<path fill="currentColor" d="M23 11c-1 -7 -6 -11 -11 -11c-6 0 -12 4 -12 11c0 175 235 165 235 344c0 60 -18 122 -70 122c-26 0 -51 -14 -51 -37c0 -27 35 -41 35 -68c0 -38 -30 -69 -68 -69s-69 31 -69 69c0 76 72 128 153 128c96 0 187 -56 187 -145c0 -153 -151 -159 -249 -220c9 2 17 3 26 3 c33 0 70 -11 105 -36c21 -15 46 -23 66 -23c21 0 39 9 44 29c2 6 6 9 11 9c6 0 12 -5 12 -12c0 -67 -90 -105 -138 -105c-36 0 -71 14 -96 44c-13 16 -31 22 -48 22c-30 0 -59 -20 -62 -55z" transform="translate(7.3445, 9.1829) scale(0.0040, -0.0040)"/>
<a xlink:href="textedit:///home/kalvis/workspace/ddgatve-songs/songs/lilypond/LabvakariJanaMate.ly:36:0:1" style="color:inherit;">
<text fill="currentColor" text-anchor="start" font-size="2.4696" font-family="Century Schoolbook L" transform="translate(9.3539, 15.0425)">
<tspan>
Lab</tspan>
</text>
</a>
<rect fill="currentColor" ry="0.0400" height="3.3122" width="0.1300" y="-0.5000" x="-0.0650" transform="translate(12.1321, 9.1829)"/>
<path fill="currentColor" d="M0 0c0 -198 209 -335 209 -533c0 -71 -16 -141 -42 -207c-5 -8 -12 -12 -19 -12c-13 0 -26 11 -23 27c26 61 42 126 42 192c0 104 -95 208 -167 283h-16v250h16z" transform="translate(12.1971, 8.7229) scale(0.0040, -0.0040)"/>
<rect fill="currentColor" ry="0.0400" height="3.3122" width="0.1300" y="-1.5000" x="-0.0650" transform="translate(32.3656, 9.1829)"/>
<path fill="currentColor" d="M0 0c0 -198 209 -335 209 -533c0 -71 -16 -141 -42 -207c-5 -8 -12 -12 -19 -12c-13 0 -26 11 -23 27c26 61 42 126 42 192c0 104 -95 208 -167 283h-16v250h16z" transform="translate(32.4306, 7.7229) scale(0.0040, -0.0040)"/>
<a xlink:href="textedit:///home/kalvis/workspace/ddgatve-songs/songs/lilypond/LabvakariJanaMate.ly:21:20:21" style="color:inherit;">
<path fill="currentColor" d="M220 138c56 0 109 -29 109 -91c0 -72 -56 -121 -103 -149c-36 -21 -76 -36 -117 -36c-56 0 -109 29 -109 91c0 72 56 121 103 149c36 21 76 36 117 36z" transform="translate(35.6586, 11.6829) scale(0.0040, -0.0040)"/>
</a>
<a xlink:href="textedit:///home/kalvis/workspace/ddgatve-songs/songs/lilypond/LabvakariJanaMate.ly:36:29:30" style="color:inherit;">
<text fill="currentColor" text-anchor="start" font-size="2.4696" font-family="Century Schoolbook L" transform="translate(34.8827, 15.0425)">
<tspan>
ņa</tspan>
</text>
</a>
<rect fill="currentColor" ry="0.0400" height="3.3122" width="0.1300" y="-1.0000" x="-0.0650" transform="translate(36.9098, 9.1829)"/>
<path fill="currentColor" d="M0 0c0 -198 209 -335 209 -533c0 -71 -16 -141 -42 -207c-5 -8 -12 -12 -19 -12c-13 0 -26 11 -23 27c26 61 42 126 42 192c0 104 -95 208 -167 283h-16v250h16z" transform="translate(36.9748, 8.2229) scale(0.0040, -0.0040)"/>
<a xlink:href="textedit:///home/kalvis/workspace/ddgatve-songs/songs/lilypond/LabvakariJanaMate.ly:21:22:23" style="color:inherit;">
<path fill="currentColor" d="M220 138c56 0 109 -29 109 -91c0 -72 -56 -121 -103 -149c-36 -21 -76 -36 -117 -36c-56 0 -109 29 -109 91c0 72 56 121 103 149c36 21 76 36 117 36z" transform="translate(40.9625, 12.1829) scale(0.0040, -0.0040)"/>
</a>
<path fill="currentColor" d="M0 0c0 -198 209 -335 209 -533c0 -71 -16 -141 -42 -207c-5 -8 -12 -12 -19 -12c-13 0 -26 11 -23 27c26 61 42 126 42 192c0 104 -95 208 -167 283h-16v250h16z" transform="translate(26.4273, 8.7229) scale(0.0040, -0.0040)"/>
<rect fill="currentColor" ry="0.0400" height="3.3122" width="0.1300" y="-0.5000" x="-0.0650" transform="translate(26.3623, 9.1829)"/>
<a xlink:href="textedit:///home/kalvis/workspace/ddgatve-songs/songs/lilypond/LabvakariJanaMate.ly:36:19:20" style="color:inherit;">
<text fill="currentColor" text-anchor="start" font-size="2.4696" font-family="Century Schoolbook L" transform="translate(24.4888, 15.0425)">
<tspan>
ri,</tspan>
</text>
</a>
<a xlink:href="textedit:///home/kalvis/workspace/ddgatve-songs/songs/lilypond/LabvakariJanaMate.ly:21:11:12" style="color:inherit;">
<path fill="currentColor" d="M220 138c56 0 109 -29 109 -91c0 -72 -56 -121 -103 -149c-36 -21 -76 -36 -117 -36c-56 0 -109 29 -109 91c0 72 56 121 103 149c36 21 76 36 117 36z" transform="translate(25.1111, 12.1829) scale(0.0040, -0.0040)"/>
</a>
<a xlink:href="textedit:///home/kalvis/workspace/ddgatve-songs/songs/lilypond/LabvakariJanaMate.ly:21:15:16" style="color:inherit;">
<path fill="currentColor" d="M220 138c56 0 109 -29 109 -91c0 -72 -56 -121 -103 -149c-36 -21 -76 -36 -117 -36c-56 0 -109 29 -109 91c0 72 56 121 103 149c36 21 76 36 117 36z" transform="translate(31.1144, 11.1829) scale(0.0040, -0.0040)"/>
</a>
<a xlink:href="textedit:///home/kalvis/workspace/ddgatve-songs/songs/lilypond/LabvakariJanaMate.ly:36:23:24" style="color:inherit;">
<text fill="currentColor" text-anchor="start" font-size="2.4696" font-family="Century Schoolbook L" transform="translate(30.4068, 15.0425)">
<tspan>
Jā</tspan>
</text>
</a>
<rect fill="currentColor" ry="0.0000" height="4.0000" width="0.1900" y="-2.0000" x="0.0000" transform="translate(48.3116, 21.1829)"/>
<rect fill="currentColor" ry="0.0000" height="4.0000" width="0.6000" y="-2.0000" x="0.0000" transform="translate(81.3439, 21.1829)"/>
<rect fill="currentColor" ry="0.0000" height="4.0000" width="0.1900" y="-2.0000" x="0.0000" transform="translate(80.8539, 21.1829)"/>
<rect fill="currentColor" ry="0.0000" height="4.0000" width="0.1900" y="-2.0000" x="0.0000" transform="translate(64.4578, 21.1829)"/>
<rect fill="currentColor" ry="0.0000" height="4.0000" width="0.1900" y="-2.0000" x="0.0000" transform="translate(27.1159, 21.1829)"/>
<line y2="-0.0000" x2="79.6177" y1="-0.0000" x1="0.0500" stroke="currentColor" stroke-width="0.1000" stroke-linecap="round" stroke-linejoin="round" transform="translate(2.2762, 23.1829)"/>
<line y2="-0.0000" x2="79.6177" y1="-0.0000" x1="0.0500" stroke="currentColor" stroke-width="0.1000" stroke-linecap="round" stroke-linejoin="round" transform="translate(2.2762, 22.1829)"/>
<line y2="-0.0000" x2="79.6177" y1="-0.0000" x1="0.0500" stroke="currentColor" stroke-width="0.1000" stroke-linecap="round" stroke-linejoin="round" transform="translate(2.2762, 21.1829)"/>
<line y2="-0.0000" x2="79.6177" y1="-0.0000" x1="0.0500" stroke="currentColor" stroke-width="0.1000" stroke-linecap="round" stroke-linejoin="round" transform="translate(2.2762, 20.1829)"/>
<line y2="-0.0000" x2="79.6177" y1="-0.0000" x1="0.0500" stroke="currentColor" stroke-width="0.1000" stroke-linecap="round" stroke-linejoin="round" transform="translate(2.2762, 19.1829)"/>
<rect fill="currentColor" ry="0.1000" height="0.2000" width="1.9743" y="-0.1000" x="5.4710" transform="translate(2.2762, 24.1829)"/>
<rect fill="currentColor" ry="0.1000" height="0.2000" width="1.9743" y="-0.1000" x="20.0858" transform="translate(2.2762, 24.1829)"/>
<rect fill="currentColor" ry="0.1000" height="0.2000" width="1.9743" y="-0.1000" x="36.3530" transform="translate(2.2762, 24.1829)"/>
<rect fill="currentColor" ry="0.1000" height="0.2000" width="1.9743" y="-0.1000" x="41.2815" transform="translate(2.2762, 24.1829)"/>
<rect fill="currentColor" ry="0.1000" height="0.2000" width="1.9743" y="-0.1000" x="54.4727" transform="translate(2.2762, 24.1829)"/>
<rect fill="currentColor" ry="0.1000" height="0.2000" width="1.9743" y="-0.1000" x="70.8688" transform="translate(2.2762, 24.1829)"/>
<a xlink:href="textedit:///home/kalvis/workspace/ddgatve-songs/songs/lilypond/LabvakariJanaMate.ly:37:43:44" style="color:inherit;">
<text fill="currentColor" text-anchor="start" font-size="2.4696" font-family="Century Schoolbook L" transform="translate(49.9392, 29.4925)">
<tspan>
lī</tspan>
</text>
</a>
<rect fill="currentColor" ry="0.0400" height="3.3122" width="0.1300" y="-2.5000" x="-0.0650" transform="translate(51.3175, 21.1829)"/>
<a xlink:href="textedit:///home/kalvis/workspace/ddgatve-songs/songs/lilypond/LabvakariJanaMate.ly:32:28:29" style="color:inherit;">
<path fill="currentColor" d="M220 138c56 0 109 -29 109 -91c0 -72 -56 -121 -103 -149c-36 -21 -76 -36 -117 -36c-56 0 -109 29 -109 91c0 72 56 121 103 149c36 21 76 36 117 36z" transform="translate(50.0664, 23.1829) scale(0.0040, -0.0040)"/>
</a>
<rect fill="currentColor" ry="0.0400" height="2.4789" width="0.1300" y="2.1878" x="-0.0650" transform="translate(50.1314, 21.1829)"/>
<a xlink:href="textedit:///home/kalvis/workspace/ddgatve-songs/songs/lilypond/LabvakariJanaMate.ly:22:30:31" style="color:inherit;">
<path fill="currentColor" d="M220 138c56 0 109 -29 109 -91c0 -72 -56 -121 -103 -149c-36 -21 -76 -36 -117 -36c-56 0 -109 29 -109 91c0 72 56 121 103 149c36 21 76 36 117 36z" transform="translate(50.0664, 22.1829) scale(0.0040, -0.0040)"/>
</a>
<a xlink:href="textedit:///home/kalvis/workspace/ddgatve-songs/songs/lilypond/LabvakariJanaMate.ly:22:33:34" style="color:inherit;">
<path fill="currentColor" d="M220 138c56 0 109 -29 109 -91c0 -72 -56 -121 -103 -149c-36 -21 -76 -36 -117 -36c-56 0 -109 29 -109 91c0 72 56 121 103 149c36 21 76 36 117 36z" transform="translate(57.0779, 23.1829) scale(0.0040, -0.0040)"/>
</a>
<a xlink:href="textedit:///home/kalvis/workspace/ddgatve-songs/songs/lilypond/LabvakariJanaMate.ly:32:33:34" style="color:inherit;">
<path fill="currentColor" d="M220 138c56 0 109 -29 109 -91c0 -72 -56 -121 -103 -149c-36 -21 -76 -36 -117 -36c-56 0 -109 29 -109 91c0 72 56 121 103 149c36 21 76 36 117 36z" transform="translate(57.0779, 24.1829) scale(0.0040, -0.0040)"/>
</a>
<a xlink:href="textedit:///home/kalvis/workspace/ddgatve-songs/songs/lilypond/LabvakariJanaMate.ly:37:49:50" style="color:inherit;">
<text fill="currentColor" text-anchor="start" font-size="2.4696" font-family="Century Schoolbook L" transform="translate(56.1142, 29.4925)">
<tspan>
go,</tspan>
</text>
</a>
<rect fill="currentColor" ry="0.0400" height="3.3122" width="0.1300" y="-1.5000" x="-0.0650" transform="translate(58.3291, 21.1829)"/>
<a xlink:href="textedit:///home/kalvis/workspace/ddgatve-songs/songs/lilypond/LabvakariJanaMate.ly:22:20:21" style="color:inherit;">
<path fill="currentColor" d="M220 138c56 0 109 -29 109 -91c0 -72 -56 -121 -103 -149c-36 -21 -76 -36 -117 -36c-56 0 -109 29 -109 91c0 72 56 121 103 149c36 21 76 36 117 36z" transform="translate(38.9582, 23.1829) scale(0.0040, -0.0040)"/>
</a>
<a xlink:href="textedit:///home/kalvis/workspace/ddgatve-songs/songs/lilypond/LabvakariJanaMate.ly:32:22:23" style="color:inherit;">
<path fill="currentColor" d="M220 138c56 0 109 -29 109 -91c0 -72 -56 -121 -103 -149c-36 -21 -76 -36 -117 -36c-56 0 -109 29 -109 91c0 72 56 121 103 149c36 21 76 36 117 36z" transform="translate(38.9582, 24.1829) scale(0.0040, -0.0040)"/>
</a>
<a xlink:href="textedit:///home/kalvis/workspace/ddgatve-songs/songs/lilypond/LabvakariJanaMate.ly:37:32:33" style="color:inherit;">
<text fill="currentColor" text-anchor="start" font-size="2.4696" font-family="Century Schoolbook L" transform="translate(37.8579, 29.4925)">
<tspan>
tēv</tspan>
</text>
</a>
<rect fill="currentColor" ry="0.0400" height="3.3122" width="0.1300" y="-1.5000" x="-0.0650" transform="translate(40.2094, 21.1829)"/>
<path fill="currentColor" d="M0 0c0 -198 209 -335 209 -533c0 -71 -16 -141 -42 -207c-5 -8 -12 -12 -19 -12c-13 0 -26 11 -23 27c26 61 42 126 42 192c0 104 -95 208 -167 283h-16v250h16z" transform="translate(40.2744, 19.7229) scale(0.0040, -0.0040)"/>
<rect fill="currentColor" ry="0.0400" height="2.8122" width="0.1300" y="3.1878" x="-0.0650" transform="translate(39.0232, 21.1829)"/>
<path fill="currentColor" d="M0 0h-16v250h16c98 58 227 148 227 259c0 57 -16 112 -41 163c-3 16 10 27 23 27c7 0 15 -3 20 -11c25 -56 40 -117 40 -179c0 -204 -269 -305 -269 -509z" transform="translate(39.0882, 27.1429) scale(0.0040, -0.0040)"/>
<a xlink:href="textedit:///home/kalvis/workspace/ddgatve-songs/songs/lilypond/LabvakariJanaMate.ly:22:24:25" style="color:inherit;">
<path fill="currentColor" d="M220 138c56 0 109 -29 109 -91c0 -72 -56 -121 -103 -149c-36 -21 -76 -36 -117 -36c-56 0 -109 29 -109 91c0 72 56 121 103 149c36 21 76 36 117 36z" transform="translate(43.8867, 23.1829) scale(0.0040, -0.0040)"/>
</a>
<a xlink:href="textedit:///home/kalvis/workspace/ddgatve-songs/songs/lilypond/LabvakariJanaMate.ly:32:24:25" style="color:inherit;">
<path fill="currentColor" d="M220 138c56 0 109 -29 109 -91c0 -72 -56 -121 -103 -149c-36 -21 -76 -36 -117 -36c-56 0 -109 29 -109 91c0 72 56 121 103 149c36 21 76 36 117 36z" transform="translate(43.8867, 24.1829) scale(0.0040, -0.0040)"/>
</a>
<a xlink:href="textedit:///home/kalvis/workspace/ddgatve-songs/songs/lilypond/LabvakariJanaMate.ly:37:39:40" style="color:inherit;">
<text fill="currentColor" text-anchor="start" font-size="2.4696" font-family="Century Schoolbook L" transform="translate(43.2474, 29.4925)">
<tspan>
si,</tspan>
</text>
</a>
<rect fill="currentColor" ry="0.0400" height="3.3122" width="0.1300" y="-1.5000" x="-0.0650" transform="translate(45.1379, 21.1829)"/>
<path fill="currentColor" d="M0 0c0 -198 209 -335 209 -533c0 -71 -16 -141 -42 -207c-5 -8 -12 -12 -19 -12c-13 0 -26 11 -23 27c26 61 42 126 42 192c0 104 -95 208 -167 283h-16v250h16z" transform="translate(45.2029, 19.7229) scale(0.0040, -0.0040)"/>
<rect fill="currentColor" ry="0.0400" height="2.8122" width="0.1300" y="3.1878" x="-0.0650" transform="translate(43.9517, 21.1829)"/>
<path fill="currentColor" d="M0 0h-16v250h16c98 58 227 148 227 259c0 57 -16 112 -41 163c-3 16 10 27 23 27c7 0 15 -3 20 -11c25 -56 40 -117 40 -179c0 -204 -269 -305 -269 -509z" transform="translate(44.0167, 27.1429) scale(0.0040, -0.0040)"/>
<a xlink:href="textedit:///home/kalvis/workspace/ddgatve-songs/songs/lilypond/LabvakariJanaMate.ly:37:59:60" style="color:inherit;">
<text fill="currentColor" text-anchor="start" font-size="2.4696" font-family="Century Schoolbook L" transform="translate(72.5104, 29.4925)">
<tspan>
go.</tspan>
</text>
</a>
<rect fill="currentColor" ry="0.0400" height="3.3122" width="0.1300" y="-1.5000" x="-0.0650" transform="translate(74.7253, 21.1829)"/>
<rect fill="currentColor" ry="0.0400" height="2.3122" width="0.1300" y="3.1878" x="-0.0650" transform="translate(73.5391, 21.1829)"/>
<a xlink:href="textedit:///home/kalvis/workspace/ddgatve-songs/songs/lilypond/LabvakariJanaMate.ly:37:56:57" style="color:inherit;">
<rect fill="currentColor" ry="0.0400" height="0.1300" width="0.6600" y="-0.5500" x="0.0000" transform="translate(69.7531, 29.4925)"/>
</a>
<a xlink:href="textedit:///home/kalvis/workspace/ddgatve-songs/songs/lilypond/LabvakariJanaMate.ly:37:46:47" style="color:inherit;">
<rect fill="currentColor" ry="0.0400" height="0.1300" width="0.6600" y="-0.5500" x="0.0000" transform="translate(53.4820, 29.4925)"/>
</a>
<a xlink:href="textedit:///home/kalvis/workspace/ddgatve-songs/songs/lilypond/LabvakariJanaMate.ly:37:36:37" style="color:inherit;">
<rect fill="currentColor" ry="0.0400" height="0.1300" width="0.6600" y="-0.5500" x="0.0000" transform="translate(41.9810, 29.4925)"/>
</a>
<a xlink:href="textedit:///home/kalvis/workspace/ddgatve-songs/songs/lilypond/LabvakariJanaMate.ly:37:26:27" style="color:inherit;">
<rect fill="currentColor" ry="0.0400" height="0.1300" width="0.6600" y="-0.5500" x="0.0000" transform="translate(31.5009, 29.4925)"/>
</a>
<a xlink:href="textedit:///home/kalvis/workspace/ddgatve-songs/songs/lilypond/LabvakariJanaMate.ly:37:16:17" style="color:inherit;">
<rect fill="currentColor" ry="0.0400" height="0.1300" width="0.6600" y="-0.5500" x="0.0000" transform="translate(20.8024, 29.4925)"/>
</a>
<a xlink:href="textedit:///home/kalvis/workspace/ddgatve-songs/songs/lilypond/LabvakariJanaMate.ly:37:10:11" style="color:inherit;">
<rect fill="currentColor" ry="0.0400" height="0.1300" width="0.6600" y="-0.5500" x="0.0000" transform="translate(16.0958, 29.4925)"/>
</a>
<a xlink:href="textedit:///home/kalvis/workspace/ddgatve-songs/songs/lilypond/LabvakariJanaMate.ly:37:4:5" style="color:inherit;">
<rect fill="currentColor" ry="0.0400" height="0.1300" width="0.6600" y="-0.5500" x="0.0000" transform="translate(11.5258, 29.4925)"/>
</a>
<rect fill="currentColor" ry="0.0400" height="2.3122" width="0.1300" y="3.1878" x="-0.0650" transform="translate(57.1429, 21.1829)"/>
<a xlink:href="textedit:///home/kalvis/workspace/ddgatve-songs/songs/lilypond/LabvakariJanaMate.ly:44:21:22" style="color:inherit;">
<text fill="currentColor" text-anchor="start" font-size="2.6163" font-family="sans-serif" transform="translate(66.2125, 18.5987)">
<tspan>
G</tspan>
</text>
<text fill="currentColor" text-anchor="start" font-size="2.6163" font-family="sans-serif" transform="translate(68.2270, 18.5987)">
<tspan/>
</text>
<text fill="currentColor" text-anchor="start" font-size="2.6163" font-family="sans-serif" transform="translate(68.2270, 18.5987)">
<tspan/>
</text>
<text fill="currentColor" text-anchor="start" font-size="1.8500" font-family="sans-serif" transform="translate(68.2270, 17.0987)">
<tspan/>
</text>
</a>
<a xlink:href="textedit:///home/kalvis/workspace/ddgatve-songs/songs/lilypond/LabvakariJanaMate.ly:22:39:40" style="color:inherit;">
<path fill="currentColor" d="M220 138c56 0 109 -29 109 -91c0 -72 -56 -121 -103 -149c-36 -21 -76 -36 -117 -36c-56 0 -109 29 -109 91c0 72 56 121 103 149c36 21 76 36 117 36z" transform="translate(66.2125, 22.6829) scale(0.0040, -0.0040)"/>
</a>
<a xlink:href="textedit:///home/kalvis/workspace/ddgatve-songs/songs/lilypond/LabvakariJanaMate.ly:32:37:38" style="color:inherit;">
<path fill="currentColor" d="M220 138c56 0 109 -29 109 -91c0 -72 -56 -121 -103 -149c-36 -21 -76 -36 -117 -36c-56 0 -109 29 -109 91c0 72 56 121 103 149c36 21 76 36 117 36z" transform="translate(66.2125, 23.6829) scale(0.0040, -0.0040)"/>
</a>
<a xlink:href="textedit:///home/kalvis/workspace/ddgatve-songs/songs/lilypond/LabvakariJanaMate.ly:37:53:54" style="color:inherit;">
<text fill="currentColor" text-anchor="start" font-size="2.4696" font-family="Century Schoolbook L" transform="translate(66.0853, 29.4925)">
<tspan>
lī</tspan>
</text>
</a>
<rect fill="currentColor" ry="0.0400" height="3.3122" width="0.1300" y="-2.0000" x="-0.0650" transform="translate(67.4637, 21.1829)"/>
<rect fill="currentColor" ry="0.0400" height="2.3122" width="0.1300" y="2.6878" x="-0.0650" transform="translate(66.2775, 21.1829)"/>
<a xlink:href="textedit:///home/kalvis/workspace/ddgatve-songs/songs/lilypond/LabvakariJanaMate.ly:44:26:27" style="color:inherit;">
<text fill="currentColor" text-anchor="start" font-size="2.6163" font-family="sans-serif" transform="translate(73.4741, 18.5987)">
<tspan>
C</tspan>
</text>
<text fill="currentColor" text-anchor="start" font-size="2.6163" font-family="sans-serif" transform="translate(75.2837, 18.5987)">
<tspan/>
</text>
<text fill="currentColor" text-anchor="start" font-size="2.6163" font-family="sans-serif" transform="translate(75.2837, 18.5987)">
<tspan/>
</text>
<text fill="currentColor" text-anchor="start" font-size="1.8500" font-family="sans-serif" transform="translate(75.2837, 17.0987)">
<tspan/>
</text>
</a>
<a xlink:href="textedit:///home/kalvis/workspace/ddgatve-songs/songs/lilypond/LabvakariJanaMate.ly:22:42:43" style="color:inherit;">
<path fill="currentColor" d="M220 138c56 0 109 -29 109 -91c0 -72 -56 -121 -103 -149c-36 -21 -76 -36 -117 -36c-56 0 -109 29 -109 91c0 72 56 121 103 149c36 21 76 36 117 36z" transform="translate(73.4741, 23.1829) scale(0.0040, -0.0040)"/>
</a>
<a xlink:href="textedit:///home/kalvis/workspace/ddgatve-songs/songs/lilypond/LabvakariJanaMate.ly:32:40:41" style="color:inherit;">
<path fill="currentColor" d="M220 138c56 0 109 -29 109 -91c0 -72 -56 -121 -103 -149c-36 -21 -76 -36 -117 -36c-56 0 -109 29 -109 91c0 72 56 121 103 149c36 21 76 36 117 36z" transform="translate(73.4741, 24.1829) scale(0.0040, -0.0040)"/>
</a>
<a xlink:href="textedit:///home/kalvis/workspace/ddgatve-songs/songs/lilypond/LabvakariJanaMate.ly:22:5:6" style="color:inherit;">
<path fill="currentColor" d="M220 138c56 0 109 -29 109 -91c0 -72 -56 -121 -103 -149c-36 -21 -76 -36 -117 -36c-56 0 -109 29 -109 91c0 72 56 121 103 149c36 21 76 36 117 36z" transform="translate(13.4827, 22.1829) scale(0.0040, -0.0040)"/>
</a>
<a xlink:href="textedit:///home/kalvis/workspace/ddgatve-songs/songs/lilypond/LabvakariJanaMate.ly:32:3:4" style="color:inherit;">
<path fill="currentColor" d="M220 138c56 0 109 -29 109 -91c0 -72 -56 -121 -103 -149c-36 -21 -76 -36 -117 -36c-56 0 -109 29 -109 91c0 72 56 121 103 149c36 21 76 36 117 36z" transform="translate(13.4827, 23.1829) scale(0.0040, -0.0040)"/>
</a>
<a xlink:href="textedit:///home/kalvis/workspace/ddgatve-songs/songs/lilypond/LabvakariJanaMate.ly:37:7:8" style="color:inherit;">
<text fill="currentColor" text-anchor="start" font-size="2.4696" font-family="Century Schoolbook L" transform="translate(12.7922, 29.4925)">
<tspan>
va</tspan>
</text>
</a>
<rect fill="currentColor" ry="0.0400" height="3.3122" width="0.1300" y="-2.5000" x="-0.0650" transform="translate(14.7339, 21.1829)"/>
<path fill="currentColor" d="M0 0c0 -198 209 -335 209 -533c0 -71 -16 -141 -42 -207c-5 -8 -12 -12 -19 -12c-13 0 -26 11 -23 27c26 61 42 126 42 192c0 104 -95 208 -167 283h-16v250h16z" transform="translate(14.7989, 18.7229) scale(0.0040, -0.0040)"/>
<rect fill="currentColor" ry="0.0400" height="2.8122" width="0.1300" y="2.1878" x="-0.0650" transform="translate(13.5477, 21.1829)"/>
<path fill="currentColor" d="M0 0h-16v250h16c98 58 227 148 227 259c0 57 -16 112 -41 163c-3 16 10 27 23 27c7 0 15 -3 20 -11c25 -56 40 -117 40 -179c0 -204 -269 -305 -269 -509z" transform="translate(13.6127, 26.1429) scale(0.0040, -0.0040)"/>
<a xlink:href="textedit:///home/kalvis/workspace/ddgatve-songs/songs/lilypond/LabvakariJanaMate.ly:22:7:8" style="color:inherit;">
<path fill="currentColor" d="M220 138c56 0 109 -29 109 -91c0 -72 -56 -121 -103 -149c-36 -21 -76 -36 -117 -36c-56 0 -109 29 -109 91c0 72 56 121 103 149c36 21 76 36 117 36z" transform="translate(18.1210, 22.1829) scale(0.0040, -0.0040)"/>
</a>
<a xlink:href="textedit:///home/kalvis/workspace/ddgatve-songs/songs/lilypond/LabvakariJanaMate.ly:32:7:8" style="color:inherit;">
<path fill="currentColor" d="M220 138c56 0 109 -29 109 -91c0 -72 -56 -121 -103 -149c-36 -21 -76 -36 -117 -36c-56 0 -109 29 -109 91c0 72 56 121 103 149c36 21 76 36 117 36z" transform="translate(18.1210, 23.1829) scale(0.0040, -0.0040)"/>
</a>
<a xlink:href="textedit:///home/kalvis/workspace/ddgatve-songs/songs/lilypond/LabvakariJanaMate.ly:37:13:14" style="color:inherit;">
<text fill="currentColor" text-anchor="start" font-size="2.4696" font-family="Century Schoolbook L" transform="translate(17.3622, 29.4925)">
<tspan>
ka</tspan>
</text>
</a>
<rect fill="currentColor" ry="0.0400" height="3.3122" width="0.1300" y="-2.5000" x="-0.0650" transform="translate(19.3722, 21.1829)"/>
<path fill="currentColor" d="M0 0c0 -198 209 -335 209 -533c0 -71 -16 -141 -42 -207c-5 -8 -12 -12 -19 -12c-13 0 -26 11 -23 27c26 61 42 126 42 192c0 104 -95 208 -167 283h-16v250h16z" transform="translate(19.4372, 18.7229) scale(0.0040, -0.0040)"/>
<rect fill="currentColor" ry="0.0400" height="2.8122" width="0.1300" y="2.1878" x="-0.0650" transform="translate(18.1860, 21.1829)"/>
<path fill="currentColor" d="M0 0h-16v250h16c98 58 227 148 227 259c0 57 -16 112 -41 163c-3 16 10 27 23 27c7 0 15 -3 20 -11c25 -56 40 -117 40 -179c0 -204 -269 -305 -269 -509z" transform="translate(18.2510, 26.1429) scale(0.0040, -0.0040)"/>
<text fill="currentColor" text-anchor="start" font-size="1.7461" font-family="Century Schoolbook L" transform="translate(1.3202, 18.0987)">
<tspan>
5</tspan>
</text>
<path fill="currentColor" d="M376 262c4 0 9 1 13 1c155 0 256 -128 256 -261c0 -76 -33 -154 -107 -210c-22 -17 -47 -28 -73 -36c3 -35 5 -70 5 -105c0 -19 -1 -39 -2 -58c-7 -120 -90 -228 -208 -228c-108 0 -195 88 -195 197c0 58 53 103 112 103c54 0 95 -47 95 -103c0 -52 -43 -95 -95 -95 c-11 0 -21 2 -31 6c26 -39 68 -65 117 -65c96 0 157 92 163 191c1 18 2 37 2 55c0 31 -1 61 -4 92c-29 -5 -58 -8 -89 -8c-188 0 -333 172 -333 374c0 177 131 306 248 441c-19 62 -37 125 -45 190c-6 52 -7 104 -7 156c0 115 55 224 149 292c3 2 7 3 10 3c4 0 7 0 10 -3 c71 -84 133 -245 133 -358c0 -143 -86 -255 -180 -364c21 -68 39 -138 56 -207zM461 -203c68 24 113 95 113 164c0 90 -66 179 -173 190c24 -116 46 -231 60 -354zM74 28c0 -135 129 -247 264 -247c28 0 55 2 82 6c-14 127 -37 245 -63 364c-79 -8 -124 -61 -124 -119 c0 -44 25 -91 81 -123c5 -5 7 -10 7 -15c0 -11 -10 -22 -22 -22c-3 0 -6 1 -9 2c-80 43 -117 115 -117 185c0 88 58 174 160 197c-14 58 -29 117 -46 175c-107 -121 -213 -243 -213 -403zM408 1045c-99 -48 -162 -149 -162 -259c0 -74 18 -133 36 -194 c80 97 146 198 146 324c0 55 -4 79 -20 129z" transform="translate(3.0762, 22.1829) scale(0.0040, -0.0040)"/>
<a xlink:href="textedit:///home/kalvis/workspace/ddgatve-songs/songs/lilypond/LabvakariJanaMate.ly:44:0:1" style="color:inherit;">
<text fill="currentColor" text-anchor="start" font-size="2.6163" font-family="sans-serif" transform="translate(8.0762, 18.5987)">
<tspan>
C</tspan>
</text>
<text fill="currentColor" text-anchor="start" font-size="2.6163" font-family="sans-serif" transform="translate(9.8858, 18.5987)">
<tspan/>
</text>
<text fill="currentColor" text-anchor="start" font-size="2.6163" font-family="sans-serif" transform="translate(9.8858, 18.5987)">
<tspan/>
</text>
<text fill="currentColor" text-anchor="start" font-size="1.8500" font-family="sans-serif" transform="translate(9.8858, 17.0987)">
<tspan/>
</text>
</a>
<a xlink:href="textedit:///home/kalvis/workspace/ddgatve-songs/songs/lilypond/LabvakariJanaMate.ly:22:0:1" style="color:inherit;">
<path fill="currentColor" d="M220 138c56 0 109 -29 109 -91c0 -72 -56 -121 -103 -149c-36 -21 -76 -36 -117 -36c-56 0 -109 29 -109 91c0 72 56 121 103 149c36 21 76 36 117 36z" transform="translate(8.0762, 23.1829) scale(0.0040, -0.0040)"/>
</a>
<a xlink:href="textedit:///home/kalvis/workspace/ddgatve-songs/songs/lilypond/LabvakariJanaMate.ly:32:0:1" style="color:inherit;">
<path fill="currentColor" d="M220 138c56 0 109 -29 109 -91c0 -72 -56 -121 -103 -149c-36 -21 -76 -36 -117 -36c-56 0 -109 29 -109 91c0 72 56 121 103 149c36 21 76 36 117 36z" transform="translate(8.0762, 24.1829) scale(0.0040, -0.0040)"/>
</a>
<a xlink:href="textedit:///home/kalvis/workspace/ddgatve-songs/songs/lilypond/LabvakariJanaMate.ly:37:0:1" style="color:inherit;">
<text fill="currentColor" text-anchor="start" font-size="2.4696" font-family="Century Schoolbook L" transform="translate(6.5491, 29.4925)">
<tspan>
Lab</tspan>
</text>
</a>
<rect fill="currentColor" ry="0.0400" height="3.3122" width="0.1300" y="-1.5000" x="-0.0650" transform="translate(9.3274, 21.1829)"/>
<path fill="currentColor" d="M0 0c0 -198 209 -335 209 -533c0 -71 -16 -141 -42 -207c-5 -8 -12 -12 -19 -12c-13 0 -26 11 -23 27c26 61 42 126 42 192c0 104 -95 208 -167 283h-16v250h16z" transform="translate(9.3924, 19.7229) scale(0.0040, -0.0040)"/>
<rect fill="currentColor" ry="0.0400" height="2.8122" width="0.1300" y="3.1878" x="-0.0650" transform="translate(8.1412, 21.1829)"/>
<path fill="currentColor" d="M0 0h-16v250h16c98 58 227 148 227 259c0 57 -16 112 -41 163c-3 16 10 27 23 27c7 0 15 -3 20 -11c25 -56 40 -117 40 -179c0 -204 -269 -305 -269 -509z" transform="translate(8.2062, 27.1429) scale(0.0040, -0.0040)"/>
<rect fill="currentColor" ry="0.0400" height="2.8122" width="0.1300" y="2.1878" x="-0.0650" transform="translate(28.9357, 21.1829)"/>
<path fill="currentColor" d="M0 0h-16v250h16c98 58 227 148 227 259c0 57 -16 112 -41 163c-3 16 10 27 23 27c7 0 15 -3 20 -11c25 -56 40 -117 40 -179c0 -204 -269 -305 -269 -509z" transform="translate(29.0007, 26.1429) scale(0.0040, -0.0040)"/>
<a xlink:href="textedit:///home/kalvis/workspace/ddgatve-songs/songs/lilypond/LabvakariJanaMate.ly:22:18:19" style="color:inherit;">
<path fill="currentColor" d="M220 138c56 0 109 -29 109 -91c0 -72 -56 -121 -103 -149c-36 -21 -76 -36 -117 -36c-56 0 -109 29 -109 91c0 72 56 121 103 149c36 21 76 36 117 36z" transform="translate(33.5431, 22.6829) scale(0.0040, -0.0040)"/>
</a>
<a xlink:href="textedit:///home/kalvis/workspace/ddgatve-songs/songs/lilypond/LabvakariJanaMate.ly:32:20:21" style="color:inherit;">
<path fill="currentColor" d="M220 138c56 0 109 -29 109 -91c0 -72 -56 -121 -103 -149c-36 -21 -76 -36 -117 -36c-56 0 -109 29 -109 91c0 72 56 121 103 149c36 21 76 36 117 36z" transform="translate(33.5431, 23.6829) scale(0.0040, -0.0040)"/>
</a>
<a xlink:href="textedit:///home/kalvis/workspace/ddgatve-songs/songs/lilypond/LabvakariJanaMate.ly:37:29:30" style="color:inherit;">
<text fill="currentColor" text-anchor="start" font-size="2.4696" font-family="Century Schoolbook L" transform="translate(32.7672, 29.4925)">
<tspan>
ņa</tspan>
</text>
</a>
<rect fill="currentColor" ry="0.0400" height="3.3122" width="0.1300" y="-2.0000" x="-0.0650" transform="translate(34.7943, 21.1829)"/>
<path fill="currentColor" d="M0 0c0 -198 209 -335 209 -533c0 -71 -16 -141 -42 -207c-5 -8 -12 -12 -19 -12c-13 0 -26 11 -23 27c26 61 42 126 42 192c0 104 -95 208 -167 283h-16v250h16z" transform="translate(34.8593, 19.2229) scale(0.0040, -0.0040)"/>
<rect fill="currentColor" ry="0.0400" height="2.8122" width="0.1300" y="2.6878" x="-0.0650" transform="translate(33.6081, 21.1829)"/>
<path fill="currentColor" d="M0 0h-16v250h16c98 58 227 148 227 259c0 57 -16 112 -41 163c-3 16 10 27 23 27c7 0 15 -3 20 -11c25 -56 40 -117 40 -179c0 -204 -269 -305 -269 -509z" transform="translate(33.6731, 26.6429) scale(0.0040, -0.0040)"/>
<a xlink:href="textedit:///home/kalvis/workspace/ddgatve-songs/songs/lilypond/LabvakariJanaMate.ly:22:9:10" style="color:inherit;">
<path fill="currentColor" d="M220 138c56 0 109 -29 109 -91c0 -72 -56 -121 -103 -149c-36 -21 -76 -36 -117 -36c-56 0 -109 29 -109 91c0 72 56 121 103 149c36 21 76 36 117 36z" transform="translate(22.6910, 23.1829) scale(0.0040, -0.0040)"/>
</a>
<a xlink:href="textedit:///home/kalvis/workspace/ddgatve-songs/songs/lilypond/LabvakariJanaMate.ly:32:11:12" style="color:inherit;">
<path fill="currentColor" d="M220 138c56 0 109 -29 109 -91c0 -72 -56 -121 -103 -149c-36 -21 -76 -36 -117 -36c-56 0 -109 29 -109 91c0 72 56 121 103 149c36 21 76 36 117 36z" transform="translate(22.6910, 24.1829) scale(0.0040, -0.0040)"/>
</a>
<a xlink:href="textedit:///home/kalvis/workspace/ddgatve-songs/songs/lilypond/LabvakariJanaMate.ly:37:19:20" style="color:inherit;">
<text fill="currentColor" text-anchor="start" font-size="2.4696" font-family="Century Schoolbook L" transform="translate(22.0688, 29.4925)">
<tspan>
ri,</tspan>
</text>
</a>
<rect fill="currentColor" ry="0.0400" height="3.3122" width="0.1300" y="-1.5000" x="-0.0650" transform="translate(23.9422, 21.1829)"/>
<path fill="currentColor" d="M0 0c0 -198 209 -335 209 -533c0 -71 -16 -141 -42 -207c-5 -8 -12 -12 -19 -12c-13 0 -26 11 -23 27c26 61 42 126 42 192c0 104 -95 208 -167 283h-16v250h16z" transform="translate(24.0072, 19.7229) scale(0.0040, -0.0040)"/>
<rect fill="currentColor" ry="0.0400" height="2.8122" width="0.1300" y="3.1878" x="-0.0650" transform="translate(22.7560, 21.1829)"/>
<path fill="currentColor" d="M0 0h-16v250h16c98 58 227 148 227 259c0 57 -16 112 -41 163c-3 16 10 27 23 27c7 0 15 -3 20 -11c25 -56 40 -117 40 -179c0 -204 -269 -305 -269 -509z" transform="translate(22.8210, 27.1429) scale(0.0040, -0.0040)"/>
<path fill="currentColor" d="M0 0c0 -198 209 -335 209 -533c0 -71 -16 -141 -42 -207c-5 -8 -12 -12 -19 -12c-13 0 -26 11 -23 27c26 61 42 126 42 192c0 104 -95 208 -167 283h-16v250h16z" transform="translate(30.1869, 18.7229) scale(0.0040, -0.0040)"/>
<a xlink:href="textedit:///home/kalvis/workspace/ddgatve-songs/songs/lilypond/LabvakariJanaMate.ly:22:15:16" style="color:inherit;">
<path fill="currentColor" d="M220 138c56 0 109 -29 109 -91c0 -72 -56 -121 -103 -149c-36 -21 -76 -36 -117 -36c-56 0 -109 29 -109 91c0 72 56 121 103 149c36 21 76 36 117 36z" transform="translate(28.8707, 22.1829) scale(0.0040, -0.0040)"/>
</a>
<a xlink:href="textedit:///home/kalvis/workspace/ddgatve-songs/songs/lilypond/LabvakariJanaMate.ly:32:15:16" style="color:inherit;">
<path fill="currentColor" d="M220 138c56 0 109 -29 109 -91c0 -72 -56 -121 -103 -149c-36 -21 -76 -36 -117 -36c-56 0 -109 29 -109 91c0 72 56 121 103 149c36 21 76 36 117 36z" transform="translate(28.8707, 23.1829) scale(0.0040, -0.0040)"/>
</a>
<a xlink:href="textedit:///home/kalvis/workspace/ddgatve-songs/songs/lilypond/LabvakariJanaMate.ly:37:23:24" style="color:inherit;">
<text fill="currentColor" text-anchor="start" font-size="2.4696" font-family="Century Schoolbook L" transform="translate(28.1630, 29.4925)">
<tspan>
Jā</tspan>
</text>
</a>
<rect fill="currentColor" ry="0.0400" height="3.3122" width="0.1300" y="-2.5000" x="-0.0650" transform="translate(30.1219, 21.1829)"/>
<g color="rgb(100%, 100%, 100%)">
<text fill="currentColor" text-anchor="start" font-size="1.9600" font-family="sans-serif" transform="translate(2.2762, 33.1829)">
<tspan>
 </tspan>
</text>
</g>
<a xlink:href="http://lilypond.org/" transform="translate(13.8223, 165.1512)">
<rect stroke-width="0.0" stroke="none" fill="none" height="2.0827" width="56.5755" y="-0.4439" x="0.0000"/>
</a>
<text fill="currentColor" text-anchor="start" font-size="2.2001" font-family="Century Schoolbook L" transform="translate(13.8223, 165.1512)">
<tspan>
Music engraving by LilyPond 2.18.2—www.lilypond.org</tspan>
</text>
</svg>