<svg xmlns="http://www.w3.org/2000/svg" xmlns:xlink="http://www.w3.org/1999/xlink" version="1.2" width="143.9999mm" height="38.145504mm" viewBox="0.05 3.8453 81.94389800950884 21.7069">

<text fill="currentColor" text-anchor="start" font-size="2.2001" font-family="Century Schoolbook L" transform="translate(2.2762, 2.8453)">
<tspan>
 </tspan>
</text>
<text fill="currentColor" text-anchor="start" font-size="2.2001" font-family="Century Schoolbook L" transform="translate(2.2762, 3.8453)">
<tspan>
 </tspan>
</text>
<text fill="currentColor" text-anchor="start" font-size="2.2001" font-family="Century Schoolbook L" transform="translate(79.7588, 3.8453)">
<tspan>
 </tspan>
</text>
<rect fill="currentColor" ry="0.0000" height="4.0000" width="0.1900" y="-2.0000" x="0.0000" transform="translate(41.4701, 11.7256)"/>
<rect fill="currentColor" ry="0.1000" height="0.2000" width="1.9743" y="-0.1000" x="8.1391" transform="translate(2.2762, 14.7256)"/>
<rect fill="currentColor" ry="0.1000" height="0.2000" width="1.9743" y="-0.1000" x="8.1391" transform="translate(2.2762, 14.7256)"/>
<rect fill="currentColor" ry="0.1000" height="0.2000" width="1.9743" y="-0.1000" x="8.1391" transform="translate(2.2762, 15.7256)"/>
<rect fill="currentColor" ry="0.1000" height="0.2000" width="1.9743" y="-0.1000" x="13.7960" transform="translate(2.2762, 14.7256)"/>
<rect fill="currentColor" ry="0.1000" height="0.2000" width="1.9743" y="-0.1000" x="13.7960" transform="translate(2.2762, 14.7256)"/>
<rect fill="currentColor" ry="0.1000" height="0.2000" width="1.9743" y="-0.1000" x="13.7960" transform="translate(2.2762, 15.7256)"/>
<rect fill="currentColor" ry="0.1000" height="0.2000" width="1.9547" y="-0.1000" x="17.7550" transform="translate(2.2762, 14.7256)"/>
<rect fill="currentColor" ry="0.1000" height="0.2000" width="1.9547" y="-0.1000" x="17.7550" transform="translate(2.2762, 14.7256)"/>
<rect fill="currentColor" ry="0.1000" height="0.2000" width="1.9547" y="-0.1000" x="17.7550" transform="translate(2.2762, 15.7256)"/>
<rect fill="currentColor" ry="0.1000" height="0.2000" width="1.9547" y="-0.1000" x="19.8097" transform="translate(2.2762, 14.7256)"/>
<rect fill="currentColor" ry="0.1000" height="0.2000" width="1.9547" y="-0.1000" x="19.8097" transform="translate(2.2762, 15.7256)"/>
<rect fill="currentColor" ry="0.1000" height="0.2000" width="1.9743" y="-0.1000" x="22.3251" transform="translate(2.2762, 14.7256)"/>
<rect fill="currentColor" ry="0.1000" height="0.2000" width="1.9743" y="-0.1000" x="22.3251" transform="translate(2.2762, 14.7256)"/>
<rect fill="currentColor" ry="0.1000" height="0.2000" width="1.9743" y="-0.1000" x="22.3251" transform="translate(2.2762, 15.7256)"/>
<rect fill="currentColor" ry="0.1000" height="0.2000" width="1.9743" y="-0.1000" x="25.8172" transform="translate(2.2762, 14.7256)"/>
<rect fill="currentColor" ry="0.1000" height="0.2000" width="1.9743" y="-0.1000" x="29.0249" transform="translate(2.2762, 14.7256)"/>
<rect fill="currentColor" ry="0.1000" height="0.2000" width="1.9743" y="-0.1000" x="31.6120" transform="translate(2.2762, 14.7256)"/>
<rect fill="currentColor" ry="0.1000" height="0.2000" width="1.9743" y="-0.1000" x="33.6949" transform="translate(2.2762, 14.7256)"/>
<rect fill="currentColor" ry="0.1000" height="0.2000" width="1.9743" y="-0.1000" x="33.6949" transform="translate(2.2762, 14.7256)"/>
<rect fill="currentColor" ry="0.1000" height="0.2000" width="1.9743" y="-0.1000" x="33.6949" transform="translate(2.2762, 15.7256)"/>
<rect fill="currentColor" ry="0.1000" height="0.2000" width="1.9743" y="-0.1000" x="36.2778" transform="translate(2.2762, 14.7256)"/>
<rect fill="currentColor" ry="0.1000" height="0.2000" width="1.9547" y="-0.1000" x="39.7700" transform="translate(2.2762, 14.7256)"/>
<rect fill="currentColor" ry="0.1000" height="0.2000" width="1.9547" y="-0.1000" x="41.8246" transform="translate(2.2762, 14.7256)"/>
<rect fill="currentColor" ry="0.1000" height="0.2000" width="1.9547" y="-0.1000" x="41.8246" transform="translate(2.2762, 14.7256)"/>
<rect fill="currentColor" ry="0.1000" height="0.2000" width="1.9547" y="-0.1000" x="41.8246" transform="translate(2.2762, 15.7256)"/>
<rect fill="currentColor" ry="0.1000" height="0.2000" width="1.9743" y="-0.1000" x="44.3400" transform="translate(2.2762, 14.7256)"/>
<rect fill="currentColor" ry="0.1000" height="0.2000" width="1.9547" y="-0.1000" x="47.0699" transform="translate(2.2762, 14.7256)"/>
<rect fill="currentColor" ry="0.1000" height="0.2000" width="1.9547" y="-0.1000" x="49.1246" transform="translate(2.2762, 14.7256)"/>
<rect fill="currentColor" ry="0.1000" height="0.2000" width="1.9547" y="-0.1000" x="49.1246" transform="translate(2.2762, 14.7256)"/>
<rect fill="currentColor" ry="0.1000" height="0.2000" width="1.9547" y="-0.1000" x="49.1246" transform="translate(2.2762, 15.7256)"/>
<rect fill="currentColor" ry="0.1000" height="0.2000" width="1.9743" y="-0.1000" x="51.6400" transform="translate(2.2762, 14.7256)"/>
<rect fill="currentColor" ry="0.1000" height="0.2000" width="1.9743" y="-0.1000" x="67.1355" transform="translate(2.2762, 14.7256)"/>
<rect fill="currentColor" ry="0.1000" height="0.2000" width="2.0850" y="-0.1000" x="73.1617" transform="translate(2.2762, 14.7256)"/>
<line y2="-0.0000" x2="79.6177" y1="-0.0000" x1="0.0500" stroke="currentColor" stroke-width="0.1000" stroke-linecap="round" stroke-linejoin="round" transform="translate(2.2762, 13.7256)"/>
<line y2="-0.0000" x2="79.6177" y1="-0.0000" x1="0.0500" stroke="currentColor" stroke-width="0.1000" stroke-linecap="round" stroke-linejoin="round" transform="translate(2.2762, 12.7256)"/>
<line y2="-0.0000" x2="79.6177" y1="-0.0000" x1="0.0500" stroke="currentColor" stroke-width="0.1000" stroke-linecap="round" stroke-linejoin="round" transform="translate(2.2762, 11.7256)"/>
<line y2="-0.0000" x2="79.6177" y1="-0.0000" x1="0.0500" stroke="currentColor" stroke-width="0.1000" stroke-linecap="round" stroke-linejoin="round" transform="translate(2.2762, 10.7256)"/>
<line y2="-0.0000" x2="79.6177" y1="-0.0000" x1="0.0500" stroke="currentColor" stroke-width="0.1000" stroke-linecap="round" stroke-linejoin="round" transform="translate(2.2762, 9.7256)"/>
<rect fill="currentColor" ry="0.0000" height="4.0000" width="0.1900" y="-2.0000" x="0.0000" transform="translate(27.5174, 11.7256)"/>
<rect fill="currentColor" ry="0.0000" height="4.0000" width="0.1900" y="-2.0000" x="0.0000" transform="translate(56.8323, 11.7256)"/>
<rect fill="currentColor" ry="0.0000" height="4.0000" width="0.1900" y="-2.0000" x="0.0000" transform="translate(65.3326, 11.7256)"/>
<path fill="currentColor" d="M0 0c0 31 25 56 56 56s56 -25 56 -56s-25 -56 -56 -56s-56 25 -56 56z" transform="translate(80.1039, 11.2256) scale(0.0040, -0.0040)"/>
<path fill="currentColor" d="M0 0c0 31 25 56 56 56s56 -25 56 -56s-25 -56 -56 -56s-56 25 -56 56z" transform="translate(80.1039, 12.2256) scale(0.0040, -0.0040)"/>
<rect fill="currentColor" ry="0.0000" height="4.0000" width="0.6000" y="-2.0000" x="0.0000" transform="translate(81.3439, 11.7256)"/>
<rect fill="currentColor" ry="0.0000" height="4.0000" width="0.1900" y="-2.0000" x="0.0000" transform="translate(80.8539, 11.7256)"/>
<a xlink:href="textedit:///home/kalvis/workspace/ddgatve-songs/songs/lilypond/LigojatiLigojati.ly:33:20:21" style="color:inherit;">
<text fill="currentColor" text-anchor="start" font-size="2.4696" font-family="Century Schoolbook L" transform="translate(57.6102, 21.4669)">
<tspan>
lī</tspan>
</text>
</a>
<a xlink:href="textedit:///home/kalvis/workspace/ddgatve-songs/songs/lilypond/LigojatiLigojati.ly:38:20:21" style="color:inherit;">
<text fill="currentColor" text-anchor="start" font-size="2.4696" font-family="Century Schoolbook L" transform="translate(57.6102, 24.2669)">
<tspan>
lī</tspan>
</text>
</a>
<path fill="currentColor" d="M0 0c0 31 25 56 56 56s56 -25 56 -56s-25 -56 -56 -56s-56 25 -56 56z" transform="translate(59.5036, 12.2256) scale(0.0040, -0.0040)"/>
<rect fill="currentColor" ry="0.0400" height="3.3122" width="0.1300" y="-2.5000" x="-0.0650" transform="translate(58.9886, 11.7256)"/>
<path fill="currentColor" d="M0 0c0 31 25 56 56 56s56 -25 56 -56s-25 -56 -56 -56s-56 25 -56 56z" transform="translate(59.5036, 14.2256) scale(0.0040, -0.0040)"/>
<rect fill="currentColor" ry="0.0400" height="2.4789" width="0.1300" y="2.1878" x="-0.0650" transform="translate(57.8024, 11.7256)"/>
<a xlink:href="textedit:///home/kalvis/workspace/ddgatve-songs/songs/lilypond/LigojatiLigojati.ly:47:31:32" style="color:inherit;">
<path fill="currentColor" d="M220 138c56 0 109 -29 109 -91c0 -72 -56 -121 -103 -149c-36 -21 -76 -36 -117 -36c-56 0 -109 29 -109 91c0 72 56 121 103 149c36 21 76 36 117 36z" transform="translate(57.7374, 13.7256) scale(0.0040, -0.0040)"/>
</a>
<a xlink:href="textedit:///home/kalvis/workspace/ddgatve-songs/songs/lilypond/LigojatiLigojati.ly:24:23:24" style="color:inherit;">
<path fill="currentColor" d="M220 138c56 0 109 -29 109 -91c0 -72 -56 -121 -103 -149c-36 -21 -76 -36 -117 -36c-56 0 -109 29 -109 91c0 72 56 121 103 149c36 21 76 36 117 36z" transform="translate(57.7374, 12.7256) scale(0.0040, -0.0040)"/>
</a>
<a xlink:href="textedit:///home/kalvis/workspace/ddgatve-songs/songs/lilypond/LigojatiLigojati.ly:55:24:25" style="color:inherit;">
<text fill="currentColor" text-anchor="start" font-size="2.6163" font-family="sans-serif" transform="translate(57.7374, 6.5987)">
<tspan>
G</tspan>
</text>
<text fill="currentColor" text-anchor="start" font-size="2.6163" font-family="sans-serif" transform="translate(59.7519, 6.5987)">
<tspan/>
</text>
<text fill="currentColor" text-anchor="start" font-size="2.6163" font-family="sans-serif" transform="translate(59.7519, 6.5987)">
<tspan/>
</text>
<text fill="currentColor" text-anchor="start" font-size="1.8500" font-family="sans-serif" transform="translate(59.7519, 5.0987)">
<tspan/>
</text>
</a>
<path fill="currentColor" d="M0 0h-16v250h16c98 58 227 148 227 259c0 57 -16 112 -41 163c-3 16 10 27 23 27c7 0 15 -3 20 -11c25 -56 40 -117 40 -179c0 -204 -269 -305 -269 -509z" transform="translate(54.3753, 17.6856) scale(0.0040, -0.0040)"/>
<rect fill="currentColor" ry="0.0400" height="2.8122" width="0.1300" y="3.1878" x="-0.0650" transform="translate(54.3103, 11.7256)"/>
<path fill="currentColor" d="M0 0c0 -198 209 -335 209 -533c0 -71 -16 -141 -42 -207c-5 -8 -12 -12 -19 -12c-13 0 -26 11 -23 27c26 61 42 126 42 192c0 104 -95 208 -167 283h-16v250h16z" transform="translate(55.5614, 10.2656) scale(0.0040, -0.0040)"/>
<rect fill="currentColor" ry="0.0400" height="3.3122" width="0.1300" y="-1.5000" x="-0.0650" transform="translate(55.4964, 11.7256)"/>
<rect fill="currentColor" ry="0.0400" height="2.4789" width="0.1300" y="2.1878" x="-0.0650" transform="translate(61.5498, 11.7256)"/>
<path fill="currentColor" d="M0 0c0 31 25 56 56 56s56 -25 56 -56s-25 -56 -56 -56s-56 25 -56 56z" transform="translate(63.2509, 14.2256) scale(0.0040, -0.0040)"/>
<rect fill="currentColor" ry="0.0400" height="3.3122" width="0.1300" y="-2.5000" x="-0.0650" transform="translate(62.7359, 11.7256)"/>
<path fill="currentColor" d="M0 0c0 31 25 56 56 56s56 -25 56 -56s-25 -56 -56 -56s-56 25 -56 56z" transform="translate(63.2509, 12.2256) scale(0.0040, -0.0040)"/>
<a xlink:href="textedit:///home/kalvis/workspace/ddgatve-songs/songs/lilypond/LigojatiLigojati.ly:38:26:27" style="color:inherit;">
<text fill="currentColor" text-anchor="start" font-size="2.4696" font-family="Century Schoolbook L" transform="translate(60.5210, 24.2669)">
<tspan>
go,</tspan>
</text>
</a>
<a xlink:href="textedit:///home/kalvis/workspace/ddgatve-songs/songs/lilypond/LigojatiLigojati.ly:33:26:27" style="color:inherit;">
<text fill="currentColor" text-anchor="start" font-size="2.4696" font-family="Century Schoolbook L" transform="translate(60.5210, 21.4669)">
<tspan>
go,</tspan>
</text>
</a>
<a xlink:href="textedit:///home/kalvis/workspace/ddgatve-songs/songs/lilypond/LigojatiLigojati.ly:47:35:36" style="color:inherit;">
<path fill="currentColor" d="M220 138c56 0 109 -29 109 -91c0 -72 -56 -121 -103 -149c-36 -21 -76 -36 -117 -36c-56 0 -109 29 -109 91c0 72 56 121 103 149c36 21 76 36 117 36z" transform="translate(61.4848, 13.7256) scale(0.0040, -0.0040)"/>
</a>
<a xlink:href="textedit:///home/kalvis/workspace/ddgatve-songs/songs/lilypond/LigojatiLigojati.ly:24:29:30" style="color:inherit;">
<path fill="currentColor" d="M220 138c56 0 109 -29 109 -91c0 -72 -56 -121 -103 -149c-36 -21 -76 -36 -117 -36c-56 0 -109 29 -109 91c0 72 56 121 103 149c36 21 76 36 117 36z" transform="translate(61.4848, 12.7256) scale(0.0040, -0.0040)"/>
</a>
<rect fill="currentColor" ry="0.0400" height="2.6036" width="0.1300" y="-0.7914" x="-0.0650" transform="translate(50.9264, 11.7256)"/>
<a xlink:href="textedit:///home/kalvis/workspace/ddgatve-songs/songs/lilypond/LigojatiLigojati.ly:38:10:11" style="color:inherit;">
<text fill="currentColor" text-anchor="start" font-size="2.4696" font-family="Century Schoolbook L" transform="translate(49.6752, 24.2669)">
<tspan>
lī</tspan>
</text>
</a>
<a xlink:href="textedit:///home/kalvis/workspace/ddgatve-songs/songs/lilypond/LigojatiLigojati.ly:33:10:11" style="color:inherit;">
<text fill="currentColor" text-anchor="start" font-size="2.4696" font-family="Century Schoolbook L" transform="translate(49.6752, 21.4669)">
<tspan>
lī</tspan>
</text>
</a>
<a xlink:href="textedit:///home/kalvis/workspace/ddgatve-songs/songs/lilypond/LigojatiLigojati.ly:47:15:16" style="color:inherit;">
<path fill="currentColor" d="M220 138c56 0 109 -29 109 -91c0 -72 -56 -121 -103 -149c-36 -21 -76 -36 -117 -36c-56 0 -109 29 -109 91c0 72 56 121 103 149c36 21 76 36 117 36z" transform="translate(49.6752, 14.7256) scale(0.0040, -0.0040)"/>
</a>
<a xlink:href="textedit:///home/kalvis/workspace/ddgatve-songs/songs/lilypond/LigojatiLigojati.ly:24:11:12" style="color:inherit;">
<path fill="currentColor" d="M220 138c56 0 109 -29 109 -91c0 -72 -56 -121 -103 -149c-36 -21 -76 -36 -117 -36c-56 0 -109 29 -109 91c0 72 56 121 103 149c36 21 76 36 117 36z" transform="translate(49.6752, 13.7256) scale(0.0040, -0.0040)"/>
</a>
<path fill="currentColor" d="M0 0h-16v250h16c98 58 227 148 227 259c0 57 -16 112 -41 163c-3 16 10 27 23 27c7 0 15 -3 20 -11c25 -56 40 -117 40 -179c0 -204 -269 -305 -269 -509z" transform="translate(47.0753, 17.6856) scale(0.0040, -0.0040)"/>
<rect fill="currentColor" ry="0.0400" height="2.8122" width="0.1300" y="3.1878" x="-0.0650" transform="translate(47.0103, 11.7256)"/>
<path fill="currentColor" d="M0 0c0 -198 209 -335 209 -533c0 -71 -16 -141 -42 -207c-5 -8 -12 -12 -19 -12c-13 0 -26 11 -23 27c26 61 42 126 42 192c0 104 -95 208 -167 283h-16v250h16z" transform="translate(48.2615, 10.2656) scale(0.0040, -0.0040)"/>
<rect fill="currentColor" ry="0.0400" height="3.3122" width="0.1300" y="-1.5000" x="-0.0650" transform="translate(48.1965, 11.7256)"/>
<a xlink:href="textedit:///home/kalvis/workspace/ddgatve-songs/songs/lilypond/LigojatiLigojati.ly:38:6:7" style="color:inherit;">
<text fill="currentColor" text-anchor="start" font-size="2.4696" font-family="Century Schoolbook L" transform="translate(45.9816, 24.2669)">
<tspan>
go,</tspan>
</text>
</a>
<a xlink:href="textedit:///home/kalvis/workspace/ddgatve-songs/songs/lilypond/LigojatiLigojati.ly:33:6:7" style="color:inherit;">
<text fill="currentColor" text-anchor="start" font-size="2.4696" font-family="Century Schoolbook L" transform="translate(45.9816, 21.4669)">
<tspan>
go,</tspan>
</text>
</a>
<a xlink:href="textedit:///home/kalvis/workspace/ddgatve-songs/songs/lilypond/LigojatiLigojati.ly:47:11:12" style="color:inherit;">
<path fill="currentColor" d="M220 138c56 0 109 -29 109 -91c0 -72 -56 -121 -103 -149c-36 -21 -76 -36 -117 -36c-56 0 -109 29 -109 91c0 72 56 121 103 149c36 21 76 36 117 36z" transform="translate(46.9453, 14.7256) scale(0.0040, -0.0040)"/>
</a>
<a xlink:href="textedit:///home/kalvis/workspace/ddgatve-songs/songs/lilypond/LigojatiLigojati.ly:24:9:10" style="color:inherit;">
<path fill="currentColor" d="M220 138c56 0 109 -29 109 -91c0 -72 -56 -121 -103 -149c-36 -21 -76 -36 -117 -36c-56 0 -109 29 -109 91c0 72 56 121 103 149c36 21 76 36 117 36z" transform="translate(46.9453, 13.7256) scale(0.0040, -0.0040)"/>
</a>
<a xlink:href="textedit:///home/kalvis/workspace/ddgatve-songs/songs/lilypond/LigojatiLigojati.ly:38:16:17" style="color:inherit;">
<text fill="currentColor" text-anchor="start" font-size="2.4696" font-family="Century Schoolbook L" transform="translate(53.2815, 24.2669)">
<tspan>
go,</tspan>
</text>
</a>
<a xlink:href="textedit:///home/kalvis/workspace/ddgatve-songs/songs/lilypond/LigojatiLigojati.ly:33:16:17" style="color:inherit;">
<text fill="currentColor" text-anchor="start" font-size="2.4696" font-family="Century Schoolbook L" transform="translate(53.2815, 21.4669)">
<tspan>
go,</tspan>
</text>
</a>
<a xlink:href="textedit:///home/kalvis/workspace/ddgatve-songs/songs/lilypond/LigojatiLigojati.ly:47:25:26" style="color:inherit;">
<path fill="currentColor" d="M220 138c56 0 109 -29 109 -91c0 -72 -56 -121 -103 -149c-36 -21 -76 -36 -117 -36c-56 0 -109 29 -109 91c0 72 56 121 103 149c36 21 76 36 117 36z" transform="translate(54.2453, 14.7256) scale(0.0040, -0.0040)"/>
</a>
<a xlink:href="textedit:///home/kalvis/workspace/ddgatve-songs/songs/lilypond/LigojatiLigojati.ly:24:19:20" style="color:inherit;">
<path fill="currentColor" d="M220 138c56 0 109 -29 109 -91c0 -72 -56 -121 -103 -149c-36 -21 -76 -36 -117 -36c-56 0 -109 29 -109 91c0 72 56 121 103 149c36 21 76 36 117 36z" transform="translate(54.2453, 13.7256) scale(0.0040, -0.0040)"/>
</a>
<rect fill="currentColor" ry="0.0400" height="2.0979" width="0.1300" y="4.6878" x="-0.0650" transform="translate(51.7752, 11.7256)"/>
<rect fill="currentColor" ry="0.0400" height="3.0208" width="0.1300" y="-0.2086" x="-0.0650" transform="translate(52.9614, 11.7256)"/>
<a xlink:href="textedit:///home/kalvis/workspace/ddgatve-songs/songs/lilypond/LigojatiLigojati.ly:47:20:21" style="color:inherit;">
<path fill="currentColor" d="M220 138c56 0 109 -29 109 -91c0 -72 -56 -121 -103 -149c-36 -21 -76 -36 -117 -36c-56 0 -109 29 -109 91c0 72 56 121 103 149c36 21 76 36 117 36z" transform="translate(51.7102, 16.2256) scale(0.0040, -0.0040)"/>
</a>
<a xlink:href="textedit:///home/kalvis/workspace/ddgatve-songs/songs/lilypond/LigojatiLigojati.ly:24:14:15" style="color:inherit;">
<path fill="currentColor" d="M220 138c56 0 109 -29 109 -91c0 -72 -56 -121 -103 -149c-36 -21 -76 -36 -117 -36c-56 0 -109 29 -109 91c0 72 56 121 103 149c36 21 76 36 117 36z" transform="translate(51.7102, 14.7256) scale(0.0040, -0.0040)"/>
</a>
<rect fill="currentColor" ry="0.0400" height="2.8365" width="0.1300" y="3.1878" x="-0.0650" transform="translate(49.7402, 11.7256)"/>
<a xlink:href="textedit:///home/kalvis/workspace/ddgatve-songs/songs/lilypond/LigojatiLigojati.ly:47:18:19" style="color:inherit;">
<polygon points="2.1250 0.6100 2.1250 1.0100 0.0400 0.2000 0.0400 -0.2000" stroke="currentColor" fill="currentColor" stroke-width="0.0800" stroke-linecap="round" stroke-linejoin="round" transform="translate(49.6752, 17.7256)"/>
</a>
<a xlink:href="textedit:///home/kalvis/workspace/ddgatve-songs/songs/lilypond/LigojatiLigojati.ly:33:13:14" style="color:inherit;">
<rect fill="currentColor" ry="0.0400" height="0.1300" width="0.6600" y="-0.5500" x="0.0000" transform="translate(51.9337, 21.4669)"/>
</a>
<a xlink:href="textedit:///home/kalvis/workspace/ddgatve-songs/songs/lilypond/LigojatiLigojati.ly:38:13:14" style="color:inherit;">
<rect fill="currentColor" ry="0.0400" height="0.1300" width="0.6600" y="-0.5500" x="0.0000" transform="translate(51.9337, 24.2669)"/>
</a>
<a xlink:href="textedit:///home/kalvis/workspace/ddgatve-songs/songs/lilypond/LigojatiLigojati.ly:33:23:24" style="color:inherit;">
<rect fill="currentColor" ry="0.0400" height="0.1300" width="0.6600" y="-0.5500" x="0.0000" transform="translate(59.5209, 21.4669)"/>
</a>
<a xlink:href="textedit:///home/kalvis/workspace/ddgatve-songs/songs/lilypond/LigojatiLigojati.ly:38:23:24" style="color:inherit;">
<rect fill="currentColor" ry="0.0400" height="0.1300" width="0.6600" y="-0.5500" x="0.0000" transform="translate(59.5209, 24.2669)"/>
</a>
<a xlink:href="textedit:///home/kalvis/workspace/ddgatve-songs/songs/lilypond/LigojatiLigojati.ly:25:2:3" style="color:inherit;">
<path d="M1.61617799999999 1.449994C2.08120372919664 0.512603595078949 3.38312063023976 0.0353020631175138 4.34383926622928 0.449994C3.4244260009392 0.147969122861619 2.12250909989608 0.625270654823055 1.61617799999999 1.449994z" fill="currentColor" stroke="currentColor" stroke-linecap="round" stroke-linejoin="round" stroke-width="0.0800" transform="translate(69.7407, 11.7256)"/>
</a>
<a xlink:href="textedit:///home/kalvis/workspace/ddgatve-songs/songs/lilypond/LigojatiLigojati.ly:48:2:3" style="color:inherit;">
<path d="M0.429999999999993 4.550006C1.39071863598952 4.96469793688249 2.69263553703263 4.48739640492105 3.15766126622928 3.550006C2.65133016633319 4.37472934517695 1.34941326529008 4.85203087713838 0.429999999999993 4.550006z" fill="currentColor" stroke="currentColor" stroke-linecap="round" stroke-linejoin="round" stroke-width="0.0800" transform="translate(69.7407, 11.7256)"/>
</a>
<a xlink:href="textedit:///home/kalvis/workspace/ddgatve-songs/songs/lilypond/LigojatiLigojati.ly:33:33:34" style="color:inherit;">
<rect fill="currentColor" ry="0.0400" height="0.1300" width="0.6600" y="-0.5500" x="0.0000" transform="translate(73.1562, 21.4669)"/>
</a>
<a xlink:href="textedit:///home/kalvis/workspace/ddgatve-songs/songs/lilypond/LigojatiLigojati.ly:38:33:34" style="color:inherit;">
<rect fill="currentColor" ry="0.0400" height="0.1300" width="0.6600" y="-0.5500" x="0.0000" transform="translate(73.1562, 24.2669)"/>
</a>
<a xlink:href="textedit:///home/kalvis/workspace/ddgatve-songs/songs/lilypond/LigojatiLigojati.ly:32:3:4" style="color:inherit;">
<rect fill="currentColor" ry="0.0400" height="0.1300" width="0.6600" y="-0.5500" x="0.0000" transform="translate(13.8668, 21.4669)"/>
</a>
<a xlink:href="textedit:///home/kalvis/workspace/ddgatve-songs/songs/lilypond/LigojatiLigojati.ly:32:9:10" style="color:inherit;">
<rect fill="currentColor" ry="0.0400" height="0.1300" width="0.6600" y="-0.5500" x="0.0000" transform="translate(19.0200, 21.4669)"/>
</a>
<a xlink:href="textedit:///home/kalvis/workspace/ddgatve-songs/songs/lilypond/LigojatiLigojati.ly:23:29:30" style="color:inherit;">
<polygon points="2.1250 -0.0100 2.1250 0.3900 0.0400 0.2000 0.0400 -0.2000" stroke="currentColor" fill="currentColor" stroke-width="0.0800" stroke-linecap="round" stroke-linejoin="round" transform="translate(21.5465, 11.5356)"/>
</a>
<a xlink:href="textedit:///home/kalvis/workspace/ddgatve-songs/songs/lilypond/LigojatiLigojati.ly:32:15:16" style="color:inherit;">
<rect fill="currentColor" ry="0.0400" height="0.1300" width="0.6600" y="-0.5500" x="0.0000" transform="translate(23.0797, 21.4669)"/>
</a>
<a xlink:href="textedit:///home/kalvis/workspace/ddgatve-songs/songs/lilypond/LigojatiLigojati.ly:37:13:14" style="color:inherit;">
<rect fill="currentColor" ry="0.0400" height="0.1300" width="0.6600" y="-0.5500" x="0.0000" transform="translate(23.2333, 24.2669)"/>
</a>
<a xlink:href="textedit:///home/kalvis/workspace/ddgatve-songs/songs/lilypond/LigojatiLigojati.ly:32:25:26" style="color:inherit;">
<rect fill="currentColor" ry="0.0400" height="0.1300" width="0.6600" y="-0.5500" x="0.0000" transform="translate(30.1069, 21.4669)"/>
</a>
<a xlink:href="textedit:///home/kalvis/workspace/ddgatve-songs/songs/lilypond/LigojatiLigojati.ly:37:22:23" style="color:inherit;">
<rect fill="currentColor" ry="0.0400" height="0.1300" width="0.3000" y="-0.5500" x="0.0000" transform="translate(30.5003, 24.2669)"/>
</a>
<a xlink:href="textedit:///home/kalvis/workspace/ddgatve-songs/songs/lilypond/LigojatiLigojati.ly:32:31:32" style="color:inherit;">
<rect fill="currentColor" ry="0.0400" height="0.1300" width="0.5086" y="-0.5500" x="0.0000" transform="translate(33.6386, 21.4669)"/>
</a>
<a xlink:href="textedit:///home/kalvis/workspace/ddgatve-songs/songs/lilypond/LigojatiLigojati.ly:23:50:51" style="color:inherit;">
<polygon points="2.1729 0.4200 2.1729 0.8200 0.0400 0.2000 0.0400 -0.2000" stroke="currentColor" fill="currentColor" stroke-width="0.0800" stroke-linecap="round" stroke-linejoin="round" transform="translate(35.4034, 10.9156)"/>
</a>
<a xlink:href="textedit:///home/kalvis/workspace/ddgatve-songs/songs/lilypond/LigojatiLigojati.ly:46:35:36" style="color:inherit;">
<polygon points="2.1729 0.6100 2.1729 1.0100 0.0400 0.2000 0.0400 -0.2000" stroke="currentColor" fill="currentColor" stroke-width="0.0800" stroke-linecap="round" stroke-linejoin="round" transform="translate(34.2172, 17.7256)"/>
</a>
<a xlink:href="textedit:///home/kalvis/workspace/ddgatve-songs/songs/lilypond/LigojatiLigojati.ly:32:37:38" style="color:inherit;">
<rect fill="currentColor" ry="0.0400" height="0.1300" width="0.6600" y="-0.5500" x="0.0000" transform="translate(36.9845, 21.4669)"/>
</a>
<a xlink:href="textedit:///home/kalvis/workspace/ddgatve-songs/songs/lilypond/LigojatiLigojati.ly:24:2:3" style="color:inherit;">
<polygon points="2.1250 0.4200 2.1250 0.8200 0.0400 0.2000 0.0400 -0.2000" stroke="currentColor" fill="currentColor" stroke-width="0.0800" stroke-linecap="round" stroke-linejoin="round" transform="translate(43.5614, 10.9156)"/>
</a>
<a xlink:href="textedit:///home/kalvis/workspace/ddgatve-songs/songs/lilypond/LigojatiLigojati.ly:47:4:5" style="color:inherit;">
<polygon points="2.1250 0.6100 2.1250 1.0100 0.0400 0.2000 0.0400 -0.2000" stroke="currentColor" fill="currentColor" stroke-width="0.0800" stroke-linecap="round" stroke-linejoin="round" transform="translate(42.3752, 17.7256)"/>
</a>
<a xlink:href="textedit:///home/kalvis/workspace/ddgatve-songs/songs/lilypond/LigojatiLigojati.ly:33:3:4" style="color:inherit;">
<rect fill="currentColor" ry="0.0400" height="0.1300" width="0.6600" y="-0.5500" x="0.0000" transform="translate(44.6337, 21.4669)"/>
</a>
<a xlink:href="textedit:///home/kalvis/workspace/ddgatve-songs/songs/lilypond/LigojatiLigojati.ly:38:3:4" style="color:inherit;">
<rect fill="currentColor" ry="0.0400" height="0.1300" width="0.6600" y="-0.5500" x="0.0000" transform="translate(44.6337, 24.2669)"/>
</a>
<a xlink:href="textedit:///home/kalvis/workspace/ddgatve-songs/songs/lilypond/LigojatiLigojati.ly:24:12:13" style="color:inherit;">
<polygon points="2.1250 0.4200 2.1250 0.8200 0.0400 0.2000 0.0400 -0.2000" stroke="currentColor" fill="currentColor" stroke-width="0.0800" stroke-linecap="round" stroke-linejoin="round" transform="translate(50.8614, 10.9156)"/>
</a>
<rect fill="currentColor" ry="0.0400" height="2.3122" width="0.1300" y="3.6878" x="-0.0650" transform="translate(69.8057, 11.7256)"/>
<rect fill="currentColor" ry="0.0400" height="3.3122" width="0.1300" y="-1.0000" x="-0.0650" transform="translate(70.9919, 11.7256)"/>
<a xlink:href="textedit:///home/kalvis/workspace/ddgatve-songs/songs/lilypond/LigojatiLigojati.ly:38:30:31" style="color:inherit;">
<text fill="currentColor" text-anchor="start" font-size="2.4696" font-family="Century Schoolbook L" transform="translate(69.7407, 24.2669)">
<tspan>
Jā</tspan>
</text>
</a>
<a xlink:href="textedit:///home/kalvis/workspace/ddgatve-songs/songs/lilypond/LigojatiLigojati.ly:33:30:31" style="color:inherit;">
<text fill="currentColor" text-anchor="start" font-size="2.4696" font-family="Century Schoolbook L" transform="translate(69.7407, 21.4669)">
<tspan>
Jā</tspan>
</text>
</a>
<path fill="currentColor" d="M259 288c27 29 49 62 49 102c0 55 -57 87 -117 87c-47 0 -75 -36 -75 -71c0 -20 10 -40 30 -52zM289 271c55 -31 83 -79 83 -127c0 -73 -66 -144 -189 -144c-94 0 -183 54 -183 140c0 50 39 85 76 120c-41 28 -61 67 -61 106c0 68 61 134 176 134c81 0 161 -38 161 -110 c0 -47 -30 -85 -63 -119zM106 242c-33 -29 -62 -59 -62 -102c0 -69 66 -117 139 -117c54 0 86 42 86 83c0 24 -10 48 -35 62z" transform="translate(66.2726, 13.7401) scale(0.0040, -0.0040)"/>
<path fill="currentColor" d="M170 244c51 0 53 44 53 102v14v15c0 58 -2 102 -53 102c-57 0 -61 -51 -61 -117s4 -116 61 -116zM223 234c-17 -7 -34 -13 -53 -13c-101 0 -170 44 -170 139s69 140 170 140c112 0 170 -124 170 -250c0 -128 -72 -250 -190 -250c-71 0 -138 39 -138 103c0 36 29 66 65 66 s66 -30 66 -66c0 -24 -39 -25 -39 -49c0 -20 23 -31 46 -31c66 0 75 65 75 139c0 24 -2 48 -2 72z" transform="translate(66.3238, 11.7256) scale(0.0040, -0.0040)"/>
<a xlink:href="textedit:///home/kalvis/workspace/ddgatve-songs/songs/lilypond/LigojatiLigojati.ly:48:0:1" style="color:inherit;">
<path fill="currentColor" d="M220 138c56 0 109 -29 109 -91c0 -72 -56 -121 -103 -149c-36 -21 -76 -36 -117 -36c-56 0 -109 29 -109 91c0 72 56 121 103 149c36 21 76 36 117 36z" transform="translate(69.7407, 15.2256) scale(0.0040, -0.0040)"/>
</a>
<a xlink:href="textedit:///home/kalvis/workspace/ddgatve-songs/songs/lilypond/LigojatiLigojati.ly:25:0:1" style="color:inherit;">
<path fill="currentColor" d="M220 138c56 0 109 -29 109 -91c0 -72 -56 -121 -103 -149c-36 -21 -76 -36 -117 -36c-56 0 -109 29 -109 91c0 72 56 121 103 149c36 21 76 36 117 36z" transform="translate(69.7407, 14.2256) scale(0.0040, -0.0040)"/>
</a>
<rect fill="currentColor" ry="0.0400" height="2.2386" width="0.1300" y="3.2614" x="-0.0650" transform="translate(75.8504, 11.7256)"/>
<path fill="currentColor" d="M0 0c0 31 25 56 56 56s56 -25 56 -56s-25 -56 -56 -56s-56 25 -56 56z" transform="translate(77.6254, 15.2256) scale(0.0040, -0.0040)"/>
<rect fill="currentColor" ry="0.0400" height="3.2386" width="0.1300" y="-1.5000" x="-0.0650" transform="translate(77.1104, 11.7256)"/>
<path fill="currentColor" d="M0 0c0 31 25 56 56 56s56 -25 56 -56s-25 -56 -56 -56s-56 25 -56 56z" transform="translate(77.6254, 13.2256) scale(0.0040, -0.0040)"/>
<a xlink:href="textedit:///home/kalvis/workspace/ddgatve-songs/songs/lilypond/LigojatiLigojati.ly:38:36:37" style="color:inherit;">
<text fill="currentColor" text-anchor="start" font-size="2.4696" font-family="Century Schoolbook L" transform="translate(74.5001, 24.2669)">
<tspan>
nīt!</tspan>
</text>
</a>
<a xlink:href="textedit:///home/kalvis/workspace/ddgatve-songs/songs/lilypond/LigojatiLigojati.ly:33:36:37" style="color:inherit;">
<text fill="currentColor" text-anchor="start" font-size="2.4696" font-family="Century Schoolbook L" transform="translate(74.5001, 21.4669)">
<tspan>
nīt!</tspan>
</text>
</a>
<a xlink:href="textedit:///home/kalvis/workspace/ddgatve-songs/songs/lilypond/LigojatiLigojati.ly:48:8:9" style="color:inherit;">
<path fill="currentColor" d="M315 65c0 24 -21 41 -42 41c-4 0 -8 0 -12 -1c-31 -9 -77 -40 -114 -64s-84 -53 -104 -78c-7 -8 -11 -18 -11 -28c0 -24 21 -41 42 -41c4 0 8 0 12 1c31 9 78 40 115 64s84 53 104 78c7 8 10 18 10 28zM264 137c47 0 83 -21 83 -72c0 -19 -4 -37 -10 -56 c-12 -38 -32 -74 -65 -96c-54 -36 -113 -51 -188 -51c-47 0 -84 22 -84 73c0 19 5 37 11 56c12 38 31 74 64 96c54 36 114 50 189 50z" transform="translate(75.7854, 14.7256) scale(0.0040, -0.0040)"/>
</a>
<a xlink:href="textedit:///home/kalvis/workspace/ddgatve-songs/songs/lilypond/LigojatiLigojati.ly:25:10:11" style="color:inherit;">
<path fill="currentColor" d="M315 65c0 24 -21 41 -42 41c-4 0 -8 0 -12 -1c-31 -9 -77 -40 -114 -64s-84 -53 -104 -78c-7 -8 -11 -18 -11 -28c0 -24 21 -41 42 -41c4 0 8 0 12 1c31 9 78 40 115 64s84 53 104 78c7 8 10 18 10 28zM264 137c47 0 83 -21 83 -72c0 -19 -4 -37 -10 -56 c-12 -38 -32 -74 -65 -96c-54 -36 -113 -51 -188 -51c-47 0 -84 22 -84 73c0 19 5 37 11 56c12 38 31 74 64 96c54 36 114 50 189 50z" transform="translate(75.7854, 13.7256) scale(0.0040, -0.0040)"/>
</a>
<a xlink:href="textedit:///home/kalvis/workspace/ddgatve-songs/songs/lilypond/LigojatiLigojati.ly:57:6:7" style="color:inherit;">
<text fill="currentColor" text-anchor="start" font-size="2.6163" font-family="sans-serif" transform="translate(75.7854, 6.5987)">
<tspan>
C</tspan>
</text>
<text fill="currentColor" text-anchor="start" font-size="2.6163" font-family="sans-serif" transform="translate(77.5950, 6.5987)">
<tspan/>
</text>
<text fill="currentColor" text-anchor="start" font-size="2.6163" font-family="sans-serif" transform="translate(77.5950, 6.5987)">
<tspan/>
</text>
<text fill="currentColor" text-anchor="start" font-size="1.8500" font-family="sans-serif" transform="translate(77.5950, 5.0987)">
<tspan/>
</text>
</a>
<path fill="currentColor" d="M0 0h-16v250h16c98 58 227 148 227 259c0 57 -16 112 -41 163c-3 16 10 27 23 27c7 0 15 -3 20 -11c25 -56 40 -117 40 -179c0 -204 -269 -305 -269 -509z" transform="translate(73.3284, 17.1856) scale(0.0040, -0.0040)"/>
<rect fill="currentColor" ry="0.0400" height="2.8122" width="0.1300" y="2.6878" x="-0.0650" transform="translate(73.2634, 11.7256)"/>
<path fill="currentColor" d="M0 0c0 -198 209 -335 209 -533c0 -71 -16 -141 -42 -207c-5 -8 -12 -12 -19 -12c-13 0 -26 11 -23 27c26 61 42 126 42 192c0 104 -95 208 -167 283h-16v250h16z" transform="translate(74.5146, 9.7656) scale(0.0040, -0.0040)"/>
<rect fill="currentColor" ry="0.0400" height="3.3122" width="0.1300" y="-2.0000" x="-0.0650" transform="translate(74.4496, 11.7256)"/>
<a xlink:href="textedit:///home/kalvis/workspace/ddgatve-songs/songs/lilypond/LigojatiLigojati.ly:48:4:5" style="color:inherit;">
<path fill="currentColor" d="M220 138c56 0 109 -29 109 -91c0 -72 -56 -121 -103 -149c-36 -21 -76 -36 -117 -36c-56 0 -109 29 -109 91c0 72 56 121 103 149c36 21 76 36 117 36z" transform="translate(73.1984, 14.2256) scale(0.0040, -0.0040)"/>
</a>
<a xlink:href="textedit:///home/kalvis/workspace/ddgatve-songs/songs/lilypond/LigojatiLigojati.ly:25:4:5" style="color:inherit;">
<path fill="currentColor" d="M220 138c56 0 109 -29 109 -91c0 -72 -56 -121 -103 -149c-36 -21 -76 -36 -117 -36c-56 0 -109 29 -109 91c0 72 56 121 103 149c36 21 76 36 117 36z" transform="translate(73.1984, 13.2256) scale(0.0040, -0.0040)"/>
</a>
<rect fill="currentColor" ry="0.0400" height="2.8122" width="0.1300" y="4.6878" x="-0.0650" transform="translate(24.9954, 11.7256)"/>
<path fill="currentColor" d="M0 0c0 -198 209 -335 209 -533c0 -71 -16 -141 -42 -207c-5 -8 -12 -12 -19 -12c-13 0 -26 11 -23 27c26 61 42 126 42 192c0 104 -95 208 -167 283h-16v250h16z" transform="translate(26.2465, 11.2656) scale(0.0040, -0.0040)"/>
<rect fill="currentColor" ry="0.0400" height="3.3122" width="0.1300" y="-0.5000" x="-0.0650" transform="translate(26.1815, 11.7256)"/>
<a xlink:href="textedit:///home/kalvis/workspace/ddgatve-songs/songs/lilypond/LigojatiLigojati.ly:37:16:17" style="color:inherit;">
<text fill="currentColor" text-anchor="start" font-size="2.4696" font-family="Century Schoolbook L" transform="translate(24.4446, 24.2669)">
<tspan>
lu</tspan>
</text>
</a>
<a xlink:href="textedit:///home/kalvis/workspace/ddgatve-songs/songs/lilypond/LigojatiLigojati.ly:32:18:19" style="color:inherit;">
<text fill="currentColor" text-anchor="start" font-size="2.4696" font-family="Century Schoolbook L" transform="translate(24.3764, 21.4669)">
<tspan>
ti,</tspan>
</text>
</a>
<a xlink:href="textedit:///home/kalvis/workspace/ddgatve-songs/songs/lilypond/LigojatiLigojati.ly:46:15:16" style="color:inherit;">
<path fill="currentColor" d="M220 138c56 0 109 -29 109 -91c0 -72 -56 -121 -103 -149c-36 -21 -76 -36 -117 -36c-56 0 -109 29 -109 91c0 72 56 121 103 149c36 21 76 36 117 36z" transform="translate(24.9304, 16.2256) scale(0.0040, -0.0040)"/>
</a>
<a xlink:href="textedit:///home/kalvis/workspace/ddgatve-songs/songs/lilypond/LigojatiLigojati.ly:23:37:38" style="color:inherit;">
<path fill="currentColor" d="M220 138c56 0 109 -29 109 -91c0 -72 -56 -121 -103 -149c-36 -21 -76 -36 -117 -36c-56 0 -109 29 -109 91c0 72 56 121 103 149c36 21 76 36 117 36z" transform="translate(24.9304, 14.7256) scale(0.0040, -0.0040)"/>
</a>
<rect fill="currentColor" ry="0.0400" height="4.3179" width="0.1300" y="-0.0057" x="-0.0650" transform="translate(23.6465, 11.7256)"/>
<a xlink:href="textedit:///home/kalvis/workspace/ddgatve-songs/songs/lilypond/LigojatiLigojati.ly:23:31:32" style="color:inherit;">
<path fill="currentColor" d="M220 138c56 0 109 -29 109 -91c0 -72 -56 -121 -103 -149c-36 -21 -76 -36 -117 -36c-56 0 -109 29 -109 91c0 72 56 121 103 149c36 21 76 36 117 36z" transform="translate(22.3953, 16.2256) scale(0.0040, -0.0040)"/>
</a>
<rect fill="currentColor" ry="0.0400" height="2.3122" width="0.1300" y="4.6878" x="-0.0650" transform="translate(20.4253, 11.7256)"/>
<rect fill="currentColor" ry="0.0400" height="2.3122" width="0.1300" y="3.1878" x="-0.0650" transform="translate(28.4875, 11.7256)"/>
<rect fill="currentColor" ry="0.0400" height="3.3122" width="0.1300" y="-1.5000" x="-0.0650" transform="translate(29.6737, 11.7256)"/>
<a xlink:href="textedit:///home/kalvis/workspace/ddgatve-songs/songs/lilypond/LigojatiLigojati.ly:37:19:20" style="color:inherit;">
<text fill="currentColor" text-anchor="start" font-size="2.4696" font-family="Century Schoolbook L" transform="translate(27.7149, 24.2669)">
<tspan>
Jā</tspan>
</text>
</a>
<a xlink:href="textedit:///home/kalvis/workspace/ddgatve-songs/songs/lilypond/LigojatiLigojati.ly:32:22:23" style="color:inherit;">
<text fill="currentColor" text-anchor="start" font-size="2.4696" font-family="Century Schoolbook L" transform="translate(28.2953, 21.4669)">
<tspan>
lī</tspan>
</text>
</a>
<a xlink:href="textedit:///home/kalvis/workspace/ddgatve-songs/songs/lilypond/LigojatiLigojati.ly:46:22:23" style="color:inherit;">
<path fill="currentColor" d="M220 138c56 0 109 -29 109 -91c0 -72 -56 -121 -103 -149c-36 -21 -76 -36 -117 -36c-56 0 -109 29 -109 91c0 72 56 121 103 149c36 21 76 36 117 36z" transform="translate(28.4225, 14.7256) scale(0.0040, -0.0040)"/>
</a>
<a xlink:href="textedit:///home/kalvis/workspace/ddgatve-songs/songs/lilypond/LigojatiLigojati.ly:23:43:44" style="color:inherit;">
<path fill="currentColor" d="M220 138c56 0 109 -29 109 -91c0 -72 -56 -121 -103 -149c-36 -21 -76 -36 -117 -36c-56 0 -109 29 -109 91c0 72 56 121 103 149c36 21 76 36 117 36z" transform="translate(28.4225, 13.7256) scale(0.0040, -0.0040)"/>
</a>
<path fill="currentColor" d="M0 0h-16v250h16c98 58 227 148 227 259c0 57 -16 112 -41 163c-3 16 10 27 23 27c7 0 15 -3 20 -11c25 -56 40 -117 40 -179c0 -204 -269 -305 -269 -509z" transform="translate(25.0604, 19.1856) scale(0.0040, -0.0040)"/>
<rect fill="currentColor" ry="0.0400" height="2.3122" width="0.1300" y="4.6878" x="-0.0650" transform="translate(10.8094, 11.7256)"/>
<rect fill="currentColor" ry="0.0400" height="3.3122" width="0.1300" y="-0.5000" x="-0.0650" transform="translate(11.9956, 11.7256)"/>
<a xlink:href="textedit:///home/kalvis/workspace/ddgatve-songs/songs/lilypond/LigojatiLigojati.ly:37:0:1" style="color:inherit;">
<text fill="currentColor" text-anchor="start" font-size="2.4696" font-family="Century Schoolbook L" transform="translate(9.0466, 24.2669)">
<tspan>
Nav</tspan>
</text>
</a>
<a xlink:href="textedit:///home/kalvis/workspace/ddgatve-songs/songs/lilypond/LigojatiLigojati.ly:32:0:1" style="color:inherit;">
<text fill="currentColor" text-anchor="start" font-size="2.4696" font-family="Century Schoolbook L" transform="translate(10.1904, 21.4669)">
<tspan>
Lī</tspan>
</text>
</a>
<path fill="currentColor" d="M259 288c27 29 49 62 49 102c0 55 -57 87 -117 87c-47 0 -75 -36 -75 -71c0 -20 10 -40 30 -52zM289 271c55 -31 83 -79 83 -127c0 -73 -66 -144 -189 -144c-94 0 -183 54 -183 140c0 50 39 85 76 120c-41 28 -61 67 -61 106c0 68 61 134 176 134c81 0 161 -38 161 -110 c0 -47 -30 -85 -63 -119zM106 242c-33 -29 -62 -59 -62 -102c0 -69 66 -117 139 -117c54 0 86 42 86 83c0 24 -10 48 -35 62z" transform="translate(7.2762, 13.7401) scale(0.0040, -0.0040)"/>
<path fill="currentColor" d="M170 256c-51 0 -53 -44 -53 -102v-14v-15c0 -58 2 -102 53 -102c57 0 61 51 61 117s-4 116 -61 116zM117 266c17 7 34 13 53 13c101 0 170 -44 170 -139s-69 -140 -170 -140c-112 0 -170 124 -170 250c0 128 72 250 190 250c71 0 138 -39 138 -103c0 -36 -29 -66 -65 -66 s-66 30 -66 66c0 24 39 25 39 49c0 20 -23 31 -46 31c-66 0 -75 -65 -75 -139c0 -24 2 -48 2 -72z" transform="translate(7.3274, 11.7256) scale(0.0040, -0.0040)"/>
<a xlink:href="textedit:///home/kalvis/workspace/ddgatve-songs/songs/lilypond/LigojatiLigojati.ly:43:0:1" style="color:inherit;">
</a>
<path fill="currentColor" d="M376 262c4 0 9 1 13 1c155 0 256 -128 256 -261c0 -76 -33 -154 -107 -210c-22 -17 -47 -28 -73 -36c3 -35 5 -70 5 -105c0 -19 -1 -39 -2 -58c-7 -120 -90 -228 -208 -228c-108 0 -195 88 -195 197c0 58 53 103 112 103c54 0 95 -47 95 -103c0 -52 -43 -95 -95 -95 c-11 0 -21 2 -31 6c26 -39 68 -65 117 -65c96 0 157 92 163 191c1 18 2 37 2 55c0 31 -1 61 -4 92c-29 -5 -58 -8 -89 -8c-188 0 -333 172 -333 374c0 177 131 306 248 441c-19 62 -37 125 -45 190c-6 52 -7 104 -7 156c0 115 55 224 149 292c3 2 7 3 10 3c4 0 7 0 10 -3 c71 -84 133 -245 133 -358c0 -143 -86 -255 -180 -364c21 -68 39 -138 56 -207zM461 -203c68 24 113 95 113 164c0 90 -66 179 -173 190c24 -116 46 -231 60 -354zM74 28c0 -135 129 -247 264 -247c28 0 55 2 82 6c-14 127 -37 245 -63 364c-79 -8 -124 -61 -124 -119 c0 -44 25 -91 81 -123c5 -5 7 -10 7 -15c0 -11 -10 -22 -22 -22c-3 0 -6 1 -9 2c-80 43 -117 115 -117 185c0 88 58 174 160 197c-14 58 -29 117 -46 175c-107 -121 -213 -243 -213 -403zM408 1045c-99 -48 -162 -149 -162 -259c0 -74 18 -133 36 -194 c80 97 146 198 146 324c0 55 -4 79 -20 129z" transform="translate(3.0762, 12.7256) scale(0.0040, -0.0040)"/>
<a xlink:href="textedit:///home/kalvis/workspace/ddgatve-songs/songs/lilypond/LigojatiLigojati.ly:46:0:1" style="color:inherit;">
<path fill="currentColor" d="M220 138c56 0 109 -29 109 -91c0 -72 -56 -121 -103 -149c-36 -21 -76 -36 -117 -36c-56 0 -109 29 -109 91c0 72 56 121 103 149c36 21 76 36 117 36z" transform="translate(10.7444, 16.2256) scale(0.0040, -0.0040)"/>
</a>
<a xlink:href="textedit:///home/kalvis/workspace/ddgatve-songs/songs/lilypond/LigojatiLigojati.ly:23:4:5" style="color:inherit;">
<text fill="currentColor" text-anchor="start" font-size="2.2001" font-family="Century Schoolbook L" transform="translate(10.7444, 8.7718)">
<tspan>
diezgan ātri</tspan>
</text>
</a>
<a xlink:href="textedit:///home/kalvis/workspace/ddgatve-songs/songs/lilypond/LigojatiLigojati.ly:23:0:1" style="color:inherit;">
<path fill="currentColor" d="M220 138c56 0 109 -29 109 -91c0 -72 -56 -121 -103 -149c-36 -21 -76 -36 -117 -36c-56 0 -109 29 -109 91c0 72 56 121 103 149c36 21 76 36 117 36z" transform="translate(10.7444, 14.7256) scale(0.0040, -0.0040)"/>
</a>
<a xlink:href="textedit:///home/kalvis/workspace/ddgatve-songs/songs/lilypond/LigojatiLigojati.ly:55:0:1" style="color:inherit;">
<text fill="currentColor" text-anchor="start" font-size="2.6163" font-family="sans-serif" transform="translate(10.7444, 6.5987)">
<tspan>
C</tspan>
</text>
<text fill="currentColor" text-anchor="start" font-size="2.6163" font-family="sans-serif" transform="translate(12.5540, 6.5987)">
<tspan/>
</text>
<text fill="currentColor" text-anchor="start" font-size="2.6163" font-family="sans-serif" transform="translate(12.5540, 6.5987)">
<tspan/>
</text>
<text fill="currentColor" text-anchor="start" font-size="1.8500" font-family="sans-serif" transform="translate(12.5540, 5.0987)">
<tspan/>
</text>
</a>
<rect fill="currentColor" ry="0.0400" height="2.9965" width="0.1300" y="-0.1843" x="-0.0650" transform="translate(21.6115, 11.7256)"/>
<a xlink:href="textedit:///home/kalvis/workspace/ddgatve-songs/songs/lilypond/LigojatiLigojati.ly:37:10:11" style="color:inherit;">
<text fill="currentColor" text-anchor="start" font-size="2.4696" font-family="Century Schoolbook L" transform="translate(20.3603, 24.2669)">
<tspan>
tā</tspan>
</text>
</a>
<a xlink:href="textedit:///home/kalvis/workspace/ddgatve-songs/songs/lilypond/LigojatiLigojati.ly:32:12:13" style="color:inherit;">
<text fill="currentColor" text-anchor="start" font-size="2.4696" font-family="Century Schoolbook L" transform="translate(20.3603, 21.4669)">
<tspan>
ja</tspan>
</text>
</a>
<a xlink:href="textedit:///home/kalvis/workspace/ddgatve-songs/songs/lilypond/LigojatiLigojati.ly:46:10:11" style="color:inherit;">
<path fill="currentColor" d="M220 138c56 0 109 -29 109 -91c0 -72 -56 -121 -103 -149c-36 -21 -76 -36 -117 -36c-56 0 -109 29 -109 91c0 72 56 121 103 149c36 21 76 36 117 36z" transform="translate(20.3603, 16.2256) scale(0.0040, -0.0040)"/>
</a>
<a xlink:href="textedit:///home/kalvis/workspace/ddgatve-songs/songs/lilypond/LigojatiLigojati.ly:23:25:26" style="color:inherit;">
<path fill="currentColor" d="M220 138c56 0 109 -29 109 -91c0 -72 -56 -121 -103 -149c-36 -21 -76 -36 -117 -36c-56 0 -109 29 -109 91c0 72 56 121 103 149c36 21 76 36 117 36z" transform="translate(20.3603, 14.7256) scale(0.0040, -0.0040)"/>
</a>
<path fill="currentColor" d="M0 0h-16v250h16c98 58 227 148 227 259c0 57 -16 112 -41 163c-3 16 10 27 23 27c7 0 15 -3 20 -11c25 -56 40 -117 40 -179c0 -204 -269 -305 -269 -509z" transform="translate(16.5312, 19.1856) scale(0.0040, -0.0040)"/>
<rect fill="currentColor" ry="0.0400" height="2.8122" width="0.1300" y="4.6878" x="-0.0650" transform="translate(16.4662, 11.7256)"/>
<path fill="currentColor" d="M0 0c0 -198 209 -335 209 -533c0 -71 -16 -141 -42 -207c-5 -8 -12 -12 -19 -12c-13 0 -26 11 -23 27c26 61 42 126 42 192c0 104 -95 208 -167 283h-16v250h16z" transform="translate(17.7174, 11.2656) scale(0.0040, -0.0040)"/>
<rect fill="currentColor" ry="0.0400" height="3.3122" width="0.1300" y="-0.5000" x="-0.0650" transform="translate(17.6524, 11.7256)"/>
<a xlink:href="textedit:///home/kalvis/workspace/ddgatve-songs/songs/lilypond/LigojatiLigojati.ly:37:4:5" style="color:inherit;">
<text fill="currentColor" text-anchor="start" font-size="2.4696" font-family="Century Schoolbook L" transform="translate(14.2084, 24.2669)">
<tspan>
vairs</tspan>
</text>
</a>
<a xlink:href="textedit:///home/kalvis/workspace/ddgatve-songs/songs/lilypond/LigojatiLigojati.ly:32:6:7" style="color:inherit;">
<text fill="currentColor" text-anchor="start" font-size="2.4696" font-family="Century Schoolbook L" transform="translate(15.7790, 21.4669)">
<tspan>
go</tspan>
</text>
</a>
<a xlink:href="textedit:///home/kalvis/workspace/ddgatve-songs/songs/lilypond/LigojatiLigojati.ly:46:5:6" style="color:inherit;">
<path fill="currentColor" d="M220 138c56 0 109 -29 109 -91c0 -72 -56 -121 -103 -149c-36 -21 -76 -36 -117 -36c-56 0 -109 29 -109 91c0 72 56 121 103 149c36 21 76 36 117 36z" transform="translate(16.4012, 16.2256) scale(0.0040, -0.0040)"/>
</a>
<a xlink:href="textedit:///home/kalvis/workspace/ddgatve-songs/songs/lilypond/LigojatiLigojati.ly:23:20:21" style="color:inherit;">
<path fill="currentColor" d="M220 138c56 0 109 -29 109 -91c0 -72 -56 -121 -103 -149c-36 -21 -76 -36 -117 -36c-56 0 -109 29 -109 91c0 72 56 121 103 149c36 21 76 36 117 36z" transform="translate(16.4012, 14.7256) scale(0.0040, -0.0040)"/>
</a>
<a xlink:href="textedit:///home/kalvis/workspace/ddgatve-songs/songs/lilypond/LigojatiLigojati.ly:38:0:1" style="color:inherit;">
<text fill="currentColor" text-anchor="start" font-size="2.4696" font-family="Century Schoolbook L" transform="translate(42.3752, 24.2669)">
<tspan>
lī</tspan>
</text>
</a>
<a xlink:href="textedit:///home/kalvis/workspace/ddgatve-songs/songs/lilypond/LigojatiLigojati.ly:33:0:1" style="color:inherit;">
<text fill="currentColor" text-anchor="start" font-size="2.4696" font-family="Century Schoolbook L" transform="translate(42.3752, 21.4669)">
<tspan>
lī</tspan>
</text>
</a>
<a xlink:href="textedit:///home/kalvis/workspace/ddgatve-songs/songs/lilypond/LigojatiLigojati.ly:47:0:1" style="color:inherit;">
<path fill="currentColor" d="M220 138c56 0 109 -29 109 -91c0 -72 -56 -121 -103 -149c-36 -21 -76 -36 -117 -36c-56 0 -109 29 -109 91c0 72 56 121 103 149c36 21 76 36 117 36z" transform="translate(42.3752, 14.7256) scale(0.0040, -0.0040)"/>
</a>
<a xlink:href="textedit:///home/kalvis/workspace/ddgatve-songs/songs/lilypond/LigojatiLigojati.ly:24:0:1" style="color:inherit;">
<path fill="currentColor" d="M220 138c56 0 109 -29 109 -91c0 -72 -56 -121 -103 -149c-36 -21 -76 -36 -117 -36c-56 0 -109 29 -109 91c0 72 56 121 103 149c36 21 76 36 117 36z" transform="translate(42.3752, 13.7256) scale(0.0040, -0.0040)"/>
</a>
<path fill="currentColor" d="M0 0h-16v250h16c98 58 227 148 227 259c0 57 -16 112 -41 163c-3 16 10 27 23 27c7 0 15 -3 20 -11c25 -56 40 -117 40 -179c0 -204 -269 -305 -269 -509z" transform="translate(39.0131, 17.6856) scale(0.0040, -0.0040)"/>
<rect fill="currentColor" ry="0.0400" height="2.8122" width="0.1300" y="3.1878" x="-0.0650" transform="translate(38.9481, 11.7256)"/>
<path fill="currentColor" d="M0 0c0 -198 209 -335 209 -533c0 -71 -16 -141 -42 -207c-5 -8 -12 -12 -19 -12c-13 0 -26 11 -23 27c26 61 42 126 42 192c0 104 -95 208 -167 283h-16v250h16z" transform="translate(40.1992, 10.2656) scale(0.0040, -0.0040)"/>
<rect fill="currentColor" ry="0.0400" height="3.3122" width="0.1300" y="-1.5000" x="-0.0650" transform="translate(40.1342, 11.7256)"/>
<a xlink:href="textedit:///home/kalvis/workspace/ddgatve-songs/songs/lilypond/LigojatiLigojati.ly:37:35:36" style="color:inherit;">
<text fill="currentColor" text-anchor="start" font-size="2.4696" font-family="Century Schoolbook L" transform="translate(37.7657, 24.2669)">
<tspan>
na,</tspan>
</text>
</a>
<a xlink:href="textedit:///home/kalvis/workspace/ddgatve-songs/songs/lilypond/LigojatiLigojati.ly:32:40:41" style="color:inherit;">
<text fill="currentColor" text-anchor="start" font-size="2.4696" font-family="Century Schoolbook L" transform="translate(38.3291, 21.4669)">
<tspan>
ti,</tspan>
</text>
</a>
<a xlink:href="textedit:///home/kalvis/workspace/ddgatve-songs/songs/lilypond/LigojatiLigojati.ly:46:42:43" style="color:inherit;">
<path fill="currentColor" d="M220 138c56 0 109 -29 109 -91c0 -72 -56 -121 -103 -149c-36 -21 -76 -36 -117 -36c-56 0 -109 29 -109 91c0 72 56 121 103 149c36 21 76 36 117 36z" transform="translate(38.8831, 14.7256) scale(0.0040, -0.0040)"/>
</a>
<a xlink:href="textedit:///home/kalvis/workspace/ddgatve-songs/songs/lilypond/LigojatiLigojati.ly:23:57:58" style="color:inherit;">
<path fill="currentColor" d="M220 138c56 0 109 -29 109 -91c0 -72 -56 -121 -103 -149c-36 -21 -76 -36 -117 -36c-56 0 -109 29 -109 91c0 72 56 121 103 149c36 21 76 36 117 36z" transform="translate(38.8831, 13.7256) scale(0.0040, -0.0040)"/>
</a>
<rect fill="currentColor" ry="0.0400" height="2.0979" width="0.1300" y="4.6878" x="-0.0650" transform="translate(44.4753, 11.7256)"/>
<rect fill="currentColor" ry="0.0400" height="3.0208" width="0.1300" y="-0.2086" x="-0.0650" transform="translate(45.6614, 11.7256)"/>
<a xlink:href="textedit:///home/kalvis/workspace/ddgatve-songs/songs/lilypond/LigojatiLigojati.ly:47:6:7" style="color:inherit;">
<path fill="currentColor" d="M220 138c56 0 109 -29 109 -91c0 -72 -56 -121 -103 -149c-36 -21 -76 -36 -117 -36c-56 0 -109 29 -109 91c0 72 56 121 103 149c36 21 76 36 117 36z" transform="translate(44.4103, 16.2256) scale(0.0040, -0.0040)"/>
</a>
<a xlink:href="textedit:///home/kalvis/workspace/ddgatve-songs/songs/lilypond/LigojatiLigojati.ly:24:4:5" style="color:inherit;">
<path fill="currentColor" d="M220 138c56 0 109 -29 109 -91c0 -72 -56 -121 -103 -149c-36 -21 -76 -36 -117 -36c-56 0 -109 29 -109 91c0 72 56 121 103 149c36 21 76 36 117 36z" transform="translate(44.4103, 14.7256) scale(0.0040, -0.0040)"/>
</a>
<rect fill="currentColor" ry="0.0400" height="2.8365" width="0.1300" y="3.1878" x="-0.0650" transform="translate(42.4402, 11.7256)"/>
<rect fill="currentColor" ry="0.0400" height="2.6036" width="0.1300" y="-0.7914" x="-0.0650" transform="translate(43.6264, 11.7256)"/>
<rect fill="currentColor" ry="0.0400" height="2.8360" width="0.1300" y="3.1878" x="-0.0650" transform="translate(34.2822, 11.7256)"/>
<rect fill="currentColor" ry="0.0400" height="2.6040" width="0.1300" y="-0.7918" x="-0.0650" transform="translate(35.4684, 11.7256)"/>
<a xlink:href="textedit:///home/kalvis/workspace/ddgatve-songs/songs/lilypond/LigojatiLigojati.ly:37:28:29" style="color:inherit;">
<text fill="currentColor" text-anchor="start" font-size="2.4696" font-family="Century Schoolbook L" transform="translate(34.2172, 24.2669)">
<tspan>
die</tspan>
</text>
</a>
<a xlink:href="textedit:///home/kalvis/workspace/ddgatve-songs/songs/lilypond/LigojatiLigojati.ly:32:34:35" style="color:inherit;">
<text fill="currentColor" text-anchor="start" font-size="2.4696" font-family="Century Schoolbook L" transform="translate(34.2172, 21.4669)">
<tspan>
ja</tspan>
</text>
</a>
<a xlink:href="textedit:///home/kalvis/workspace/ddgatve-songs/songs/lilypond/LigojatiLigojati.ly:46:32:33" style="color:inherit;">
<path fill="currentColor" d="M220 138c56 0 109 -29 109 -91c0 -72 -56 -121 -103 -149c-36 -21 -76 -36 -117 -36c-56 0 -109 29 -109 91c0 72 56 121 103 149c36 21 76 36 117 36z" transform="translate(34.2172, 14.7256) scale(0.0040, -0.0040)"/>
</a>
<a xlink:href="textedit:///home/kalvis/workspace/ddgatve-songs/songs/lilypond/LigojatiLigojati.ly:23:49:50" style="color:inherit;">
<path fill="currentColor" d="M220 138c56 0 109 -29 109 -91c0 -72 -56 -121 -103 -149c-36 -21 -76 -36 -117 -36c-56 0 -109 29 -109 91c0 72 56 121 103 149c36 21 76 36 117 36z" transform="translate(34.2172, 13.7256) scale(0.0040, -0.0040)"/>
</a>
<path fill="currentColor" d="M0 0h-16v250h16c98 58 227 148 227 259c0 57 -16 112 -41 163c-3 16 10 27 23 27c7 0 15 -3 20 -11c25 -56 40 -117 40 -179c0 -204 -269 -305 -269 -509z" transform="translate(31.7602, 17.6856) scale(0.0040, -0.0040)"/>
<rect fill="currentColor" ry="0.0400" height="2.8122" width="0.1300" y="3.1878" x="-0.0650" transform="translate(31.6952, 11.7256)"/>
<path fill="currentColor" d="M0 0c0 -198 209 -335 209 -533c0 -71 -16 -141 -42 -207c-5 -8 -12 -12 -19 -12c-13 0 -26 11 -23 27c26 61 42 126 42 192c0 104 -95 208 -167 283h-16v250h16z" transform="translate(32.9463, 10.2656) scale(0.0040, -0.0040)"/>
<rect fill="currentColor" ry="0.0400" height="3.3122" width="0.1300" y="-1.5000" x="-0.0650" transform="translate(32.8813, 11.7256)"/>
<a xlink:href="textedit:///home/kalvis/workspace/ddgatve-songs/songs/lilypond/LigojatiLigojati.ly:37:25:26" style="color:inherit;">
<text fill="currentColor" text-anchor="start" font-size="2.4696" font-family="Century Schoolbook L" transform="translate(30.8542, 24.2669)">
<tspan>
ņa</tspan>
</text>
</a>
<a xlink:href="textedit:///home/kalvis/workspace/ddgatve-songs/songs/lilypond/LigojatiLigojati.ly:32:28:29" style="color:inherit;">
<text fill="currentColor" text-anchor="start" font-size="2.4696" font-family="Century Schoolbook L" transform="translate(31.0079, 21.4669)">
<tspan>
go</tspan>
</text>
</a>
<a xlink:href="textedit:///home/kalvis/workspace/ddgatve-songs/songs/lilypond/LigojatiLigojati.ly:46:27:28" style="color:inherit;">
<path fill="currentColor" d="M220 138c56 0 109 -29 109 -91c0 -72 -56 -121 -103 -149c-36 -21 -76 -36 -117 -36c-56 0 -109 29 -109 91c0 72 56 121 103 149c36 21 76 36 117 36z" transform="translate(31.6302, 14.7256) scale(0.0040, -0.0040)"/>
</a>
<a xlink:href="textedit:///home/kalvis/workspace/ddgatve-songs/songs/lilypond/LigojatiLigojati.ly:23:46:47" style="color:inherit;">
<path fill="currentColor" d="M220 138c56 0 109 -29 109 -91c0 -72 -56 -121 -103 -149c-36 -21 -76 -36 -117 -36c-56 0 -109 29 -109 91c0 72 56 121 103 149c36 21 76 36 117 36z" transform="translate(31.6302, 13.7256) scale(0.0040, -0.0040)"/>
</a>
<rect fill="currentColor" ry="0.0400" height="2.0984" width="0.1300" y="4.6878" x="-0.0650" transform="translate(36.3652, 11.7256)"/>
<rect fill="currentColor" ry="0.0400" height="3.0204" width="0.1300" y="-0.2082" x="-0.0650" transform="translate(37.5513, 11.7256)"/>
<a xlink:href="textedit:///home/kalvis/workspace/ddgatve-songs/songs/lilypond/LigojatiLigojati.ly:46:37:38" style="color:inherit;">
<path fill="currentColor" d="M220 138c56 0 109 -29 109 -91c0 -72 -56 -121 -103 -149c-36 -21 -76 -36 -117 -36c-56 0 -109 29 -109 91c0 72 56 121 103 149c36 21 76 36 117 36z" transform="translate(36.3002, 16.2256) scale(0.0040, -0.0040)"/>
</a>
<a xlink:href="textedit:///home/kalvis/workspace/ddgatve-songs/songs/lilypond/LigojatiLigojati.ly:23:52:53" style="color:inherit;">
<path fill="currentColor" d="M220 138c56 0 109 -29 109 -91c0 -72 -56 -121 -103 -149c-36 -21 -76 -36 -117 -36c-56 0 -109 29 -109 91c0 72 56 121 103 149c36 21 76 36 117 36z" transform="translate(36.3002, 14.7256) scale(0.0040, -0.0040)"/>
</a>
<g color="rgb(100%, 100%, 100%)">
<text fill="currentColor" text-anchor="start" font-size="1.9600" font-family="sans-serif" transform="translate(2.2762, 25.5522)">
<tspan>
 </tspan>
</text>
</g>
<a xlink:href="http://lilypond.org/" transform="translate(13.8223, 165.1512)">
<rect stroke-width="0.0" stroke="none" fill="none" height="2.0827" width="56.5755" y="-0.4439" x="0.0000"/>
</a>
<text fill="currentColor" text-anchor="start" font-size="2.2001" font-family="Century Schoolbook L" transform="translate(13.8223, 165.1512)">
<tspan>
Music engraving by LilyPond 2.18.2—www.lilypond.org</tspan>
</text>
</svg>