<svg xmlns="http://www.w3.org/2000/svg" xmlns:xlink="http://www.w3.org/1999/xlink" version="1.2" width="143.9999mm" height="58.204014mm" viewBox="0.05 3.8453 81.94389800950884 33.1213">

<text fill="currentColor" text-anchor="start" font-size="2.2001" font-family="Century Schoolbook L" transform="translate(2.2762, 2.8453)">
<tspan>
 </tspan>
</text>
<text fill="currentColor" text-anchor="start" font-size="2.2001" font-family="Century Schoolbook L" transform="translate(2.2762, 3.8453)">
<tspan>
 </tspan>
</text>
<text fill="currentColor" text-anchor="start" font-size="2.2001" font-family="Century Schoolbook L" transform="translate(79.7588, 3.8453)">
<tspan>
 </tspan>
</text>
<rect fill="currentColor" ry="0.1000" height="0.2000" width="1.9743" y="-0.1000" x="8.1391" transform="translate(2.2762, 12.1829)"/>
<rect fill="currentColor" ry="0.1000" height="0.2000" width="1.9743" y="-0.1000" x="11.7237" transform="translate(2.2762, 12.1829)"/>
<rect fill="currentColor" ry="0.1000" height="0.2000" width="1.9743" y="-0.1000" x="15.1717" transform="translate(2.2762, 12.1829)"/>
<rect fill="currentColor" ry="0.1000" height="0.2000" width="1.9743" y="-0.1000" x="40.8991" transform="translate(2.2762, 12.1829)"/>
<rect fill="currentColor" ry="0.1000" height="0.2000" width="1.9743" y="-0.1000" x="45.2709" transform="translate(2.2762, 12.1829)"/>
<rect fill="currentColor" ry="0.1000" height="0.2000" width="1.9743" y="-0.1000" x="45.2709" transform="translate(2.2762, 13.1829)"/>
<rect fill="currentColor" ry="0.1000" height="0.2000" width="1.9743" y="-0.1000" x="52.6411" transform="translate(2.2762, 12.1829)"/>
<rect fill="currentColor" ry="0.1000" height="0.2000" width="1.9743" y="-0.1000" x="70.8599" transform="translate(2.2762, 12.1829)"/>
<line y2="-0.0000" x2="79.6177" y1="-0.0000" x1="0.0500" stroke="currentColor" stroke-width="0.1000" stroke-linecap="round" stroke-linejoin="round" transform="translate(2.2762, 11.1829)"/>
<line y2="-0.0000" x2="79.6177" y1="-0.0000" x1="0.0500" stroke="currentColor" stroke-width="0.1000" stroke-linecap="round" stroke-linejoin="round" transform="translate(2.2762, 10.1829)"/>
<line y2="-0.0000" x2="79.6177" y1="-0.0000" x1="0.0500" stroke="currentColor" stroke-width="0.1000" stroke-linecap="round" stroke-linejoin="round" transform="translate(2.2762, 9.1829)"/>
<line y2="-0.0000" x2="79.6177" y1="-0.0000" x1="0.0500" stroke="currentColor" stroke-width="0.1000" stroke-linecap="round" stroke-linejoin="round" transform="translate(2.2762, 8.1829)"/>
<line y2="-0.0000" x2="79.6177" y1="-0.0000" x1="0.0500" stroke="currentColor" stroke-width="0.1000" stroke-linecap="round" stroke-linejoin="round" transform="translate(2.2762, 7.1829)"/>
<rect fill="currentColor" ry="0.0000" height="4.0000" width="0.1900" y="-2.0000" x="0.0000" transform="translate(20.7390, 9.1829)"/>
<rect fill="currentColor" ry="0.0000" height="4.0000" width="0.1900" y="-2.0000" x="0.0000" transform="translate(66.6375, 9.1829)"/>
<rect fill="currentColor" ry="0.0000" height="4.0000" width="0.1900" y="-2.0000" x="0.0000" transform="translate(50.8382, 9.1829)"/>
<rect fill="currentColor" ry="0.0000" height="4.0000" width="0.1900" y="-2.0000" x="0.0000" transform="translate(42.1768, 9.1829)"/>
<rect fill="currentColor" ry="0.0000" height="4.0000" width="0.1900" y="-2.0000" x="0.0000" transform="translate(31.7525, 9.1829)"/>
<rect fill="currentColor" ry="0.0000" height="4.0000" width="0.1900" y="-2.0000" x="0.0000" transform="translate(79.0358, 9.1829)"/>
<rect fill="currentColor" ry="0.0400" height="2.3122" width="0.1300" y="3.1878" x="-0.0650" transform="translate(55.3113, 9.1829)"/>
<path fill="currentColor" d="M0 0c0 31 25 56 56 56s56 -25 56 -56s-25 -56 -56 -56s-56 25 -56 56z" transform="translate(57.0125, 12.6829) scale(0.0040, -0.0040)"/>
<a xlink:href="textedit:///home/kalvis/workspace/ddgatve-songs/songs/lilypond/NeguluNeguluJanisaNakti.ly:44:0:1" style="color:inherit;">
<text fill="currentColor" text-anchor="start" font-size="2.4696" font-family="Century Schoolbook L" transform="translate(55.1191, 18.9242)">
<tspan>
lī</tspan>
</text>
</a>
<path fill="currentColor" d="M259 288c27 29 49 62 49 102c0 55 -57 87 -117 87c-47 0 -75 -36 -75 -71c0 -20 10 -40 30 -52zM289 271c55 -31 83 -79 83 -127c0 -73 -66 -144 -189 -144c-94 0 -183 54 -183 140c0 50 39 85 76 120c-41 28 -61 67 -61 106c0 68 61 134 176 134c81 0 161 -38 161 -110 c0 -47 -30 -85 -63 -119zM106 242c-33 -29 -62 -59 -62 -102c0 -69 66 -117 139 -117c54 0 86 42 86 83c0 24 -10 48 -35 62z" transform="translate(51.7782, 11.1973) scale(0.0040, -0.0040)"/>
<path fill="currentColor" d="M170 256c-51 0 -53 -44 -53 -102v-14v-15c0 -58 2 -102 53 -102c57 0 61 51 61 117s-4 116 -61 116zM117 266c17 7 34 13 53 13c101 0 170 -44 170 -139s-69 -140 -170 -140c-112 0 -170 124 -170 250c0 128 72 250 190 250c71 0 138 -39 138 -103c0 -36 -29 -66 -65 -66 s-66 30 -66 66c0 24 39 25 39 49c0 20 -23 31 -46 31c-66 0 -75 -65 -75 -139c0 -24 2 -48 2 -72z" transform="translate(51.8294, 9.1829) scale(0.0040, -0.0040)"/>
<a xlink:href="textedit:///home/kalvis/workspace/ddgatve-songs/songs/lilypond/NeguluNeguluJanisaNakti.ly:22:0:1" style="color:inherit;">
<path fill="currentColor" d="M220 138c56 0 109 -29 109 -91c0 -72 -56 -121 -103 -149c-36 -21 -76 -36 -117 -36c-56 0 -109 29 -109 91c0 72 56 121 103 149c36 21 76 36 117 36z" transform="translate(55.2463, 12.1829) scale(0.0040, -0.0040)"/>
</a>
<a xlink:href="textedit:///home/kalvis/workspace/ddgatve-songs/songs/lilypond/NeguluNeguluJanisaNakti.ly:22:6:7" style="color:inherit;">
<path fill="currentColor" d="M220 138c56 0 109 -29 109 -91c0 -72 -56 -121 -103 -149c-36 -21 -76 -36 -117 -36c-56 0 -109 29 -109 91c0 72 56 121 103 149c36 21 76 36 117 36z" transform="translate(61.0669, 11.1829) scale(0.0040, -0.0040)"/>
</a>
<a xlink:href="textedit:///home/kalvis/workspace/ddgatve-songs/songs/lilypond/NeguluNeguluJanisaNakti.ly:44:6:7" style="color:inherit;">
<text fill="currentColor" text-anchor="start" font-size="2.4696" font-family="Century Schoolbook L" transform="translate(60.1032, 18.9242)">
<tspan>
go,</tspan>
</text>
</a>
<path fill="currentColor" d="M0 0c0 31 25 56 56 56s56 -25 56 -56s-25 -56 -56 -56s-56 25 -56 56z" transform="translate(62.8331, 11.6829) scale(0.0040, -0.0040)"/>
<rect fill="currentColor" ry="0.0400" height="2.4789" width="0.1300" y="2.1878" x="-0.0650" transform="translate(61.1319, 9.1829)"/>
<path fill="currentColor" d="M0 0h-16v250h16c98 58 227 148 227 259c0 57 -16 112 -41 163c-3 16 10 27 23 27c7 0 15 -3 20 -11c25 -56 40 -117 40 -179c0 -204 -269 -305 -269 -509z" transform="translate(39.1570, 14.6429) scale(0.0040, -0.0040)"/>
<a xlink:href="textedit:///home/kalvis/workspace/ddgatve-songs/songs/lilypond/NeguluNeguluJanisaNakti.ly:21:35:36" style="color:inherit;">
<path fill="currentColor" d="M220 138c56 0 109 -29 109 -91c0 -72 -56 -121 -103 -149c-36 -21 -76 -36 -117 -36c-56 0 -109 29 -109 91c0 72 56 121 103 149c36 21 76 36 117 36z" transform="translate(43.5044, 12.1829) scale(0.0040, -0.0040)"/>
</a>
<a xlink:href="textedit:///home/kalvis/workspace/ddgatve-songs/songs/lilypond/NeguluNeguluJanisaNakti.ly:43:48:49" style="color:inherit;">
<text fill="currentColor" text-anchor="start" font-size="2.4696" font-family="Century Schoolbook L" transform="translate(41.9943, 18.9242)">
<tspan>
nak</tspan>
</text>
</a>
<rect fill="currentColor" ry="0.0400" height="2.3122" width="0.1300" y="3.1878" x="-0.0650" transform="translate(43.5694, 9.1829)"/>
<a xlink:href="textedit:///home/kalvis/workspace/ddgatve-songs/songs/lilypond/NeguluNeguluJanisaNakti.ly:21:40:41" style="color:inherit;">
<path fill="currentColor" d="M220 138c56 0 109 -29 109 -91c0 -72 -56 -121 -103 -149c-36 -21 -76 -36 -117 -36c-56 0 -109 29 -109 91c0 72 56 121 103 149c36 21 76 36 117 36z" transform="translate(47.8762, 13.6829) scale(0.0040, -0.0040)"/>
</a>
<a xlink:href="textedit:///home/kalvis/workspace/ddgatve-songs/songs/lilypond/NeguluNeguluJanisaNakti.ly:43:55:56" style="color:inherit;">
<text fill="currentColor" text-anchor="start" font-size="2.4696" font-family="Century Schoolbook L" transform="translate(47.3222, 18.9242)">
<tspan>
ti,</tspan>
</text>
</a>
<rect fill="currentColor" ry="0.0400" height="2.8122" width="0.1300" y="4.6878" x="-0.0650" transform="translate(47.9412, 9.1829)"/>
<path fill="currentColor" d="M0 0h-16v250h16c98 58 227 148 227 259c0 57 -16 112 -41 163c-3 16 10 27 23 27c7 0 15 -3 20 -11c25 -56 40 -117 40 -179c0 -204 -269 -305 -269 -509z" transform="translate(48.0062, 16.6429) scale(0.0040, -0.0040)"/>
<path fill="currentColor" d="M259 288c27 29 49 62 49 102c0 55 -57 87 -117 87c-47 0 -75 -36 -75 -71c0 -20 10 -40 30 -52zM289 271c55 -31 83 -79 83 -127c0 -73 -66 -144 -189 -144c-94 0 -183 54 -183 140c0 50 39 85 76 120c-41 28 -61 67 -61 106c0 68 61 134 176 134c81 0 161 -38 161 -110 c0 -47 -30 -85 -63 -119zM106 242c-33 -29 -62 -59 -62 -102c0 -69 66 -117 139 -117c54 0 86 42 86 83c0 24 -10 48 -35 62z" transform="translate(79.9758, 11.1973) scale(0.0040, -0.0040)"/>
<path fill="currentColor" d="M150 477c-29 0 -59 -8 -59 -33c0 -22 36 -25 36 -47c0 -32 -26 -58 -58 -58s-57 26 -57 58c0 65 67 103 138 103c91 0 169 -33 169 -114c0 -43 -4 -82 -42 -100c-9 -4 -14 -12 -14 -21s5 -18 14 -22c41 -19 56 -57 56 -103c0 -92 -79 -140 -179 -140 c-79 0 -154 42 -154 113c0 36 30 66 66 66s65 -30 65 -66c0 -25 -40 -28 -40 -53c0 -27 32 -37 63 -37c49 0 63 61 63 117v16c0 54 -2 94 -50 94h-80c-10 0 -14 8 -14 15s4 14 14 14h80c49 0 50 43 50 99v8c0 54 -18 91 -67 91z" transform="translate(80.0441, 9.1829) scale(0.0040, -0.0040)"/>
<a xlink:href="textedit:///home/kalvis/workspace/ddgatve-songs/songs/lilypond/NeguluNeguluJanisaNakti.ly:44:13:14" style="color:inherit;">
<rect fill="currentColor" ry="0.0400" height="0.1300" width="0.6600" y="-0.5500" x="0.0000" transform="translate(70.5898, 18.9242)"/>
</a>
<a xlink:href="textedit:///home/kalvis/workspace/ddgatve-songs/songs/lilypond/NeguluNeguluJanisaNakti.ly:44:3:4" style="color:inherit;">
<rect fill="currentColor" ry="0.0400" height="0.1300" width="0.6600" y="-0.5500" x="0.0000" transform="translate(58.0665, 18.9242)"/>
</a>
<a xlink:href="textedit:///home/kalvis/workspace/ddgatve-songs/songs/lilypond/NeguluNeguluJanisaNakti.ly:43:52:53" style="color:inherit;">
<rect fill="currentColor" ry="0.0400" height="0.1300" width="0.6600" y="-0.5500" x="0.0000" transform="translate(46.4964, 18.9242)"/>
</a>
<a xlink:href="textedit:///home/kalvis/workspace/ddgatve-songs/songs/lilypond/NeguluNeguluJanisaNakti.ly:43:41:42" style="color:inherit;">
<rect fill="currentColor" ry="0.0400" height="0.1300" width="0.4320" y="-0.5500" x="0.0000" transform="translate(37.9369, 18.9242)"/>
</a>
<a xlink:href="textedit:///home/kalvis/workspace/ddgatve-songs/songs/lilypond/NeguluNeguluJanisaNakti.ly:43:35:36" style="color:inherit;">
<rect fill="currentColor" ry="0.0400" height="0.1300" width="0.4058" y="-0.5500" x="0.0000" transform="translate(35.1035, 18.9242)"/>
</a>
<a xlink:href="textedit:///home/kalvis/workspace/ddgatve-songs/songs/lilypond/NeguluNeguluJanisaNakti.ly:43:25:26" style="color:inherit;">
<rect fill="currentColor" ry="0.0400" height="0.1300" width="0.4058" y="-0.5500" x="0.0000" transform="translate(27.4875, 18.9242)"/>
</a>
<a xlink:href="textedit:///home/kalvis/workspace/ddgatve-songs/songs/lilypond/NeguluNeguluJanisaNakti.ly:43:19:20" style="color:inherit;">
<rect fill="currentColor" ry="0.0400" height="0.1300" width="0.4058" y="-0.5500" x="0.0000" transform="translate(24.1078, 18.9242)"/>
</a>
<a xlink:href="textedit:///home/kalvis/workspace/ddgatve-songs/songs/lilypond/NeguluNeguluJanisaNakti.ly:43:9:10" style="color:inherit;">
<rect fill="currentColor" ry="0.0400" height="0.1300" width="0.4058" y="-0.5500" x="0.0000" transform="translate(16.4740, 18.9242)"/>
</a>
<a xlink:href="textedit:///home/kalvis/workspace/ddgatve-songs/songs/lilypond/NeguluNeguluJanisaNakti.ly:43:3:4" style="color:inherit;">
<rect fill="currentColor" ry="0.0400" height="0.1300" width="0.4058" y="-0.5500" x="0.0000" transform="translate(13.0943, 18.9242)"/>
</a>
<a xlink:href="textedit:///home/kalvis/workspace/ddgatve-songs/songs/lilypond/NeguluNeguluJanisaNakti.ly:52:8:9" style="color:inherit;">
<text fill="currentColor" text-anchor="start" font-size="2.6163" font-family="sans-serif" transform="translate(67.8946, 6.5987)">
<tspan>
G</tspan>
</text>
<text fill="currentColor" text-anchor="start" font-size="2.6163" font-family="sans-serif" transform="translate(69.9091, 6.5987)">
<tspan/>
</text>
<text fill="currentColor" text-anchor="start" font-size="2.6163" font-family="sans-serif" transform="translate(69.9091, 6.5987)">
<tspan/>
</text>
<text fill="currentColor" text-anchor="start" font-size="1.8500" font-family="sans-serif" transform="translate(69.9091, 5.0987)">
<tspan/>
</text>
</a>
<a xlink:href="textedit:///home/kalvis/workspace/ddgatve-songs/songs/lilypond/NeguluNeguluJanisaNakti.ly:22:12:13" style="color:inherit;">
<path fill="currentColor" d="M220 138c56 0 109 -29 109 -91c0 -72 -56 -121 -103 -149c-36 -21 -76 -36 -117 -36c-56 0 -109 29 -109 91c0 72 56 121 103 149c36 21 76 36 117 36z" transform="translate(67.8946, 11.6829) scale(0.0040, -0.0040)"/>
</a>
<a xlink:href="textedit:///home/kalvis/workspace/ddgatve-songs/songs/lilypond/NeguluNeguluJanisaNakti.ly:44:10:11" style="color:inherit;">
<text fill="currentColor" text-anchor="start" font-size="2.4696" font-family="Century Schoolbook L" transform="translate(67.7674, 18.9242)">
<tspan>
lī</tspan>
</text>
</a>
<path fill="currentColor" d="M0 0c0 31 25 56 56 56s56 -25 56 -56s-25 -56 -56 -56s-56 25 -56 56z" transform="translate(69.6608, 11.6829) scale(0.0040, -0.0040)"/>
<rect fill="currentColor" ry="0.0400" height="2.3122" width="0.1300" y="2.6878" x="-0.0650" transform="translate(67.9596, 9.1829)"/>
<a xlink:href="textedit:///home/kalvis/workspace/ddgatve-songs/songs/lilypond/NeguluNeguluJanisaNakti.ly:52:14:15" style="color:inherit;">
<text fill="currentColor" text-anchor="start" font-size="2.6163" font-family="sans-serif" transform="translate(73.4652, 6.5987)">
<tspan>
C</tspan>
</text>
<text fill="currentColor" text-anchor="start" font-size="2.6163" font-family="sans-serif" transform="translate(75.2748, 6.5987)">
<tspan/>
</text>
<text fill="currentColor" text-anchor="start" font-size="2.6163" font-family="sans-serif" transform="translate(75.2748, 6.5987)">
<tspan/>
</text>
<text fill="currentColor" text-anchor="start" font-size="1.8500" font-family="sans-serif" transform="translate(75.2748, 5.0987)">
<tspan/>
</text>
</a>
<a xlink:href="textedit:///home/kalvis/workspace/ddgatve-songs/songs/lilypond/NeguluNeguluJanisaNakti.ly:22:16:17" style="color:inherit;">
<path fill="currentColor" d="M220 138c56 0 109 -29 109 -91c0 -72 -56 -121 -103 -149c-36 -21 -76 -36 -117 -36c-56 0 -109 29 -109 91c0 72 56 121 103 149c36 21 76 36 117 36z" transform="translate(73.4652, 12.1829) scale(0.0040, -0.0040)"/>
</a>
<a xlink:href="textedit:///home/kalvis/workspace/ddgatve-songs/songs/lilypond/NeguluNeguluJanisaNakti.ly:44:16:17" style="color:inherit;">
<text fill="currentColor" text-anchor="start" font-size="2.4696" font-family="Century Schoolbook L" transform="translate(72.5015, 18.9242)">
<tspan>
go,</tspan>
</text>
</a>
<path fill="currentColor" d="M0 0c0 31 25 56 56 56s56 -25 56 -56s-25 -56 -56 -56s-56 25 -56 56z" transform="translate(75.2314, 12.6829) scale(0.0040, -0.0040)"/>
<rect fill="currentColor" ry="0.0400" height="2.3122" width="0.1300" y="3.1878" x="-0.0650" transform="translate(73.5302, 9.1829)"/>
<rect fill="currentColor" ry="0.0400" height="2.8122" width="0.1300" y="3.1878" x="-0.0650" transform="translate(14.3940, 9.1829)"/>
<path fill="currentColor" d="M0 0h-16v250h16c98 58 227 148 227 259c0 57 -16 112 -41 163c-3 16 10 27 23 27c7 0 15 -3 20 -11c25 -56 40 -117 40 -179c0 -204 -269 -305 -269 -509z" transform="translate(14.4590, 15.1429) scale(0.0040, -0.0040)"/>
<a xlink:href="textedit:///home/kalvis/workspace/ddgatve-songs/songs/lilypond/NeguluNeguluJanisaNakti.ly:21:9:10" style="color:inherit;">
<path fill="currentColor" d="M220 138c56 0 109 -29 109 -91c0 -72 -56 -121 -103 -149c-36 -21 -76 -36 -117 -36c-56 0 -109 29 -109 91c0 72 56 121 103 149c36 21 76 36 117 36z" transform="translate(17.7770, 12.1829) scale(0.0040, -0.0040)"/>
</a>
<a xlink:href="textedit:///home/kalvis/workspace/ddgatve-songs/songs/lilypond/NeguluNeguluJanisaNakti.ly:43:12:13" style="color:inherit;">
<text fill="currentColor" text-anchor="start" font-size="2.4696" font-family="Century Schoolbook L" transform="translate(16.9498, 18.9242)">
<tspan>
lu,</tspan>
</text>
</a>
<rect fill="currentColor" ry="0.0400" height="2.8122" width="0.1300" y="3.1878" x="-0.0650" transform="translate(17.8420, 9.1829)"/>
<path fill="currentColor" d="M0 0h-16v250h16c98 58 227 148 227 259c0 57 -16 112 -41 163c-3 16 10 27 23 27c7 0 15 -3 20 -11c25 -56 40 -117 40 -179c0 -204 -269 -305 -269 -509z" transform="translate(17.9070, 15.1429) scale(0.0040, -0.0040)"/>
<a xlink:href="textedit:///home/kalvis/workspace/ddgatve-songs/songs/lilypond/NeguluNeguluJanisaNakti.ly:21:15:16" style="color:inherit;">
<path fill="currentColor" d="M220 138c56 0 109 -29 109 -91c0 -72 -56 -121 -103 -149c-36 -21 -76 -36 -117 -36c-56 0 -109 29 -109 91c0 72 56 121 103 149c36 21 76 36 117 36z" transform="translate(22.0140, 10.6829) scale(0.0040, -0.0040)"/>
</a>
<a xlink:href="textedit:///home/kalvis/workspace/ddgatve-songs/songs/lilypond/NeguluNeguluJanisaNakti.ly:43:16:17" style="color:inherit;">
<text fill="currentColor" text-anchor="start" font-size="2.4696" font-family="Century Schoolbook L" transform="translate(21.3063, 18.9242)">
<tspan>
ne</tspan>
</text>
</a>
<rect fill="currentColor" ry="0.0400" height="2.8122" width="0.1300" y="1.6878" x="-0.0650" transform="translate(22.0790, 9.1829)"/>
<path fill="currentColor" d="M0 0h-16v250h16c98 58 227 148 227 259c0 57 -16 112 -41 163c-3 16 10 27 23 27c7 0 15 -3 20 -11c25 -56 40 -117 40 -179c0 -204 -269 -305 -269 -509z" transform="translate(22.1440, 13.6429) scale(0.0040, -0.0040)"/>
<a xlink:href="textedit:///home/kalvis/workspace/ddgatve-songs/songs/lilypond/NeguluNeguluJanisaNakti.ly:50:0:1" style="color:inherit;">
<text fill="currentColor" text-anchor="start" font-size="2.6163" font-family="sans-serif" transform="translate(10.7444, 6.5987)">
<tspan>
C</tspan>
</text>
<text fill="currentColor" text-anchor="start" font-size="2.6163" font-family="sans-serif" transform="translate(12.5540, 6.5987)">
<tspan/>
</text>
<text fill="currentColor" text-anchor="start" font-size="2.6163" font-family="sans-serif" transform="translate(12.5540, 6.5987)">
<tspan/>
</text>
<text fill="currentColor" text-anchor="start" font-size="1.8500" font-family="sans-serif" transform="translate(12.5540, 5.0987)">
<tspan/>
</text>
</a>
<a xlink:href="textedit:///home/kalvis/workspace/ddgatve-songs/songs/lilypond/NeguluNeguluJanisaNakti.ly:21:0:1" style="color:inherit;">
<path fill="currentColor" d="M220 138c56 0 109 -29 109 -91c0 -72 -56 -121 -103 -149c-36 -21 -76 -36 -117 -36c-56 0 -109 29 -109 91c0 72 56 121 103 149c36 21 76 36 117 36z" transform="translate(10.7444, 12.1829) scale(0.0040, -0.0040)"/>
</a>
<path fill="currentColor" d="M376 262c4 0 9 1 13 1c155 0 256 -128 256 -261c0 -76 -33 -154 -107 -210c-22 -17 -47 -28 -73 -36c3 -35 5 -70 5 -105c0 -19 -1 -39 -2 -58c-7 -120 -90 -228 -208 -228c-108 0 -195 88 -195 197c0 58 53 103 112 103c54 0 95 -47 95 -103c0 -52 -43 -95 -95 -95 c-11 0 -21 2 -31 6c26 -39 68 -65 117 -65c96 0 157 92 163 191c1 18 2 37 2 55c0 31 -1 61 -4 92c-29 -5 -58 -8 -89 -8c-188 0 -333 172 -333 374c0 177 131 306 248 441c-19 62 -37 125 -45 190c-6 52 -7 104 -7 156c0 115 55 224 149 292c3 2 7 3 10 3c4 0 7 0 10 -3 c71 -84 133 -245 133 -358c0 -143 -86 -255 -180 -364c21 -68 39 -138 56 -207zM461 -203c68 24 113 95 113 164c0 90 -66 179 -173 190c24 -116 46 -231 60 -354zM74 28c0 -135 129 -247 264 -247c28 0 55 2 82 6c-14 127 -37 245 -63 364c-79 -8 -124 -61 -124 -119 c0 -44 25 -91 81 -123c5 -5 7 -10 7 -15c0 -11 -10 -22 -22 -22c-3 0 -6 1 -9 2c-80 43 -117 115 -117 185c0 88 58 174 160 197c-14 58 -29 117 -46 175c-107 -121 -213 -243 -213 -403zM408 1045c-99 -48 -162 -149 -162 -259c0 -74 18 -133 36 -194 c80 97 146 198 146 324c0 55 -4 79 -20 129z" transform="translate(3.0762, 10.1829) scale(0.0040, -0.0040)"/>
<a xlink:href="textedit:///home/kalvis/workspace/ddgatve-songs/songs/lilypond/NeguluNeguluJanisaNakti.ly:30:0:1" style="color:inherit;">
</a>
<path fill="currentColor" d="M259 288c27 29 49 62 49 102c0 55 -57 87 -117 87c-47 0 -75 -36 -75 -71c0 -20 10 -40 30 -52zM289 271c55 -31 83 -79 83 -127c0 -73 -66 -144 -189 -144c-94 0 -183 54 -183 140c0 50 39 85 76 120c-41 28 -61 67 -61 106c0 68 61 134 176 134c81 0 161 -38 161 -110 c0 -47 -30 -85 -63 -119zM106 242c-33 -29 -62 -59 -62 -102c0 -69 66 -117 139 -117c54 0 86 42 86 83c0 24 -10 48 -35 62z" transform="translate(7.2762, 11.1973) scale(0.0040, -0.0040)"/>
<path fill="currentColor" d="M150 477c-29 0 -59 -8 -59 -33c0 -22 36 -25 36 -47c0 -32 -26 -58 -58 -58s-57 26 -57 58c0 65 67 103 138 103c91 0 169 -33 169 -114c0 -43 -4 -82 -42 -100c-9 -4 -14 -12 -14 -21s5 -18 14 -22c41 -19 56 -57 56 -103c0 -92 -79 -140 -179 -140 c-79 0 -154 42 -154 113c0 36 30 66 66 66s65 -30 65 -66c0 -25 -40 -28 -40 -53c0 -27 32 -37 63 -37c49 0 63 61 63 117v16c0 54 -2 94 -50 94h-80c-10 0 -14 8 -14 15s4 14 14 14h80c49 0 50 43 50 99v8c0 54 -18 91 -67 91z" transform="translate(7.3445, 9.1829) scale(0.0040, -0.0040)"/>
<a xlink:href="textedit:///home/kalvis/workspace/ddgatve-songs/songs/lilypond/NeguluNeguluJanisaNakti.ly:43:0:1" style="color:inherit;">
<text fill="currentColor" text-anchor="start" font-size="2.4696" font-family="Century Schoolbook L" transform="translate(9.7807, 18.9242)">
<tspan>
Ne</tspan>
</text>
</a>
<rect fill="currentColor" ry="0.0400" height="2.8122" width="0.1300" y="3.1878" x="-0.0650" transform="translate(10.8094, 9.1829)"/>
<path fill="currentColor" d="M0 0h-16v250h16c98 58 227 148 227 259c0 57 -16 112 -41 163c-3 16 10 27 23 27c7 0 15 -3 20 -11c25 -56 40 -117 40 -179c0 -204 -269 -305 -269 -509z" transform="translate(10.8744, 15.1429) scale(0.0040, -0.0040)"/>
<a xlink:href="textedit:///home/kalvis/workspace/ddgatve-songs/songs/lilypond/NeguluNeguluJanisaNakti.ly:21:5:6" style="color:inherit;">
<path fill="currentColor" d="M220 138c56 0 109 -29 109 -91c0 -72 -56 -121 -103 -149c-36 -21 -76 -36 -117 -36c-56 0 -109 29 -109 91c0 72 56 121 103 149c36 21 76 36 117 36z" transform="translate(14.3290, 12.1829) scale(0.0040, -0.0040)"/>
</a>
<a xlink:href="textedit:///home/kalvis/workspace/ddgatve-songs/songs/lilypond/NeguluNeguluJanisaNakti.ly:43:6:7" style="color:inherit;">
<text fill="currentColor" text-anchor="start" font-size="2.4696" font-family="Century Schoolbook L" transform="translate(13.5701, 18.9242)">
<tspan>
gu</tspan>
</text>
</a>
<a xlink:href="textedit:///home/kalvis/workspace/ddgatve-songs/songs/lilypond/NeguluNeguluJanisaNakti.ly:21:26:27" style="color:inherit;">
<path fill="currentColor" d="M220 138c56 0 109 -29 109 -91c0 -72 -56 -121 -103 -149c-36 -21 -76 -36 -117 -36c-56 0 -109 29 -109 91c0 72 56 121 103 149c36 21 76 36 117 36z" transform="translate(33.0097, 11.1829) scale(0.0040, -0.0040)"/>
</a>
<a xlink:href="textedit:///home/kalvis/workspace/ddgatve-songs/songs/lilypond/NeguluNeguluJanisaNakti.ly:43:32:33" style="color:inherit;">
<text fill="currentColor" text-anchor="start" font-size="2.4696" font-family="Century Schoolbook L" transform="translate(32.3020, 18.9242)">
<tspan>
Jā</tspan>
</text>
</a>
<rect fill="currentColor" ry="0.0400" height="2.8122" width="0.1300" y="2.1878" x="-0.0650" transform="translate(33.0747, 9.1829)"/>
<path fill="currentColor" d="M0 0h-16v250h16c98 58 227 148 227 259c0 57 -16 112 -41 163c-3 16 10 27 23 27c7 0 15 -3 20 -11c25 -56 40 -117 40 -179c0 -204 -269 -305 -269 -509z" transform="translate(33.1397, 14.1429) scale(0.0040, -0.0040)"/>
<a xlink:href="textedit:///home/kalvis/workspace/ddgatve-songs/songs/lilypond/NeguluNeguluJanisaNakti.ly:21:29:30" style="color:inherit;">
<path fill="currentColor" d="M220 138c56 0 109 -29 109 -91c0 -72 -56 -121 -103 -149c-36 -21 -76 -36 -117 -36c-56 0 -109 29 -109 91c0 72 56 121 103 149c36 21 76 36 117 36z" transform="translate(36.0650, 11.6829) scale(0.0040, -0.0040)"/>
</a>
<a xlink:href="textedit:///home/kalvis/workspace/ddgatve-songs/songs/lilypond/NeguluNeguluJanisaNakti.ly:43:38:39" style="color:inherit;">
<text fill="currentColor" text-anchor="start" font-size="2.4696" font-family="Century Schoolbook L" transform="translate(35.5793, 18.9242)">
<tspan>
nī</tspan>
</text>
</a>
<rect fill="currentColor" ry="0.0400" height="2.8122" width="0.1300" y="2.6878" x="-0.0650" transform="translate(36.1300, 9.1829)"/>
<path fill="currentColor" d="M0 0h-16v250h16c98 58 227 148 227 259c0 57 -16 112 -41 163c-3 16 10 27 23 27c7 0 15 -3 20 -11c25 -56 40 -117 40 -179c0 -204 -269 -305 -269 -509z" transform="translate(36.1950, 14.6429) scale(0.0040, -0.0040)"/>
<a xlink:href="textedit:///home/kalvis/workspace/ddgatve-songs/songs/lilypond/NeguluNeguluJanisaNakti.ly:21:31:32" style="color:inherit;">
<path fill="currentColor" d="M220 138c56 0 109 -29 109 -91c0 -72 -56 -121 -103 -149c-36 -21 -76 -36 -117 -36c-56 0 -109 29 -109 91c0 72 56 121 103 149c36 21 76 36 117 36z" transform="translate(39.0270, 11.6829) scale(0.0040, -0.0040)"/>
</a>
<a xlink:href="textedit:///home/kalvis/workspace/ddgatve-songs/songs/lilypond/NeguluNeguluJanisaNakti.ly:43:44:45" style="color:inherit;">
<text fill="currentColor" text-anchor="start" font-size="2.4696" font-family="Century Schoolbook L" transform="translate(38.4389, 18.9242)">
<tspan>
ša</tspan>
</text>
</a>
<rect fill="currentColor" ry="0.0400" height="2.8122" width="0.1300" y="2.6878" x="-0.0650" transform="translate(39.0920, 9.1829)"/>
<a xlink:href="textedit:///home/kalvis/workspace/ddgatve-songs/songs/lilypond/NeguluNeguluJanisaNakti.ly:21:20:21" style="color:inherit;">
<path fill="currentColor" d="M220 138c56 0 109 -29 109 -91c0 -72 -56 -121 -103 -149c-36 -21 -76 -36 -117 -36c-56 0 -109 29 -109 91c0 72 56 121 103 149c36 21 76 36 117 36z" transform="translate(25.3425, 11.1829) scale(0.0040, -0.0040)"/>
</a>
<a xlink:href="textedit:///home/kalvis/workspace/ddgatve-songs/songs/lilypond/NeguluNeguluJanisaNakti.ly:43:22:23" style="color:inherit;">
<text fill="currentColor" text-anchor="start" font-size="2.4696" font-family="Century Schoolbook L" transform="translate(24.5836, 18.9242)">
<tspan>
gu</tspan>
</text>
</a>
<rect fill="currentColor" ry="0.0400" height="2.8122" width="0.1300" y="2.1878" x="-0.0650" transform="translate(25.4075, 9.1829)"/>
<path fill="currentColor" d="M0 0h-16v250h16c98 58 227 148 227 259c0 57 -16 112 -41 163c-3 16 10 27 23 27c7 0 15 -3 20 -11c25 -56 40 -117 40 -179c0 -204 -269 -305 -269 -509z" transform="translate(25.4725, 14.1429) scale(0.0040, -0.0040)"/>
<a xlink:href="textedit:///home/kalvis/workspace/ddgatve-songs/songs/lilypond/NeguluNeguluJanisaNakti.ly:21:22:23" style="color:inherit;">
<path fill="currentColor" d="M220 138c56 0 109 -29 109 -91c0 -72 -56 -121 -103 -149c-36 -21 -76 -36 -117 -36c-56 0 -109 29 -109 91c0 72 56 121 103 149c36 21 76 36 117 36z" transform="translate(28.7905, 11.1829) scale(0.0040, -0.0040)"/>
</a>
<a xlink:href="textedit:///home/kalvis/workspace/ddgatve-songs/songs/lilypond/NeguluNeguluJanisaNakti.ly:43:28:29" style="color:inherit;">
<text fill="currentColor" text-anchor="start" font-size="2.4696" font-family="Century Schoolbook L" transform="translate(27.9633, 18.9242)">
<tspan>
lu,</tspan>
</text>
</a>
<rect fill="currentColor" ry="0.0400" height="2.8122" width="0.1300" y="2.1878" x="-0.0650" transform="translate(28.8555, 9.1829)"/>
<path fill="currentColor" d="M0 0h-16v250h16c98 58 227 148 227 259c0 57 -16 112 -41 163c-3 16 10 27 23 27c7 0 15 -3 20 -11c25 -56 40 -117 40 -179c0 -204 -269 -305 -269 -509z" transform="translate(28.9205, 14.1429) scale(0.0040, -0.0040)"/>
<rect fill="currentColor" ry="0.0000" height="4.0000" width="0.1900" y="-2.0000" x="0.0000" transform="translate(65.3880, 24.9666)"/>
<rect fill="currentColor" ry="0.1000" height="0.2000" width="1.9743" y="-0.1000" x="8.1391" transform="translate(2.2762, 27.9666)"/>
<rect fill="currentColor" ry="0.1000" height="0.2000" width="1.9743" y="-0.1000" x="12.1487" transform="translate(2.2762, 27.9666)"/>
<rect fill="currentColor" ry="0.1000" height="0.2000" width="1.9743" y="-0.1000" x="15.4839" transform="translate(2.2762, 27.9666)"/>
<rect fill="currentColor" ry="0.1000" height="0.2000" width="1.9743" y="-0.1000" x="39.9962" transform="translate(2.2762, 27.9666)"/>
<rect fill="currentColor" ry="0.1000" height="0.2000" width="1.9743" y="-0.1000" x="44.5863" transform="translate(2.2762, 27.9666)"/>
<rect fill="currentColor" ry="0.1000" height="0.2000" width="1.9743" y="-0.1000" x="44.5863" transform="translate(2.2762, 28.9666)"/>
<rect fill="currentColor" ry="0.1000" height="0.2000" width="1.9743" y="-0.1000" x="44.5863" transform="translate(2.2762, 27.9666)"/>
<rect fill="currentColor" ry="0.1000" height="0.2000" width="1.9743" y="-0.1000" x="51.9626" transform="translate(2.2762, 27.9666)"/>
<rect fill="currentColor" ry="0.1000" height="0.2000" width="1.9743" y="-0.1000" x="72.8956" transform="translate(2.2762, 27.9666)"/>
<line y2="-0.0000" x2="79.6177" y1="-0.0000" x1="0.0500" stroke="currentColor" stroke-width="0.1000" stroke-linecap="round" stroke-linejoin="round" transform="translate(2.2762, 26.9666)"/>
<line y2="-0.0000" x2="79.6177" y1="-0.0000" x1="0.0500" stroke="currentColor" stroke-width="0.1000" stroke-linecap="round" stroke-linejoin="round" transform="translate(2.2762, 25.9666)"/>
<line y2="-0.0000" x2="79.6177" y1="-0.0000" x1="0.0500" stroke="currentColor" stroke-width="0.1000" stroke-linecap="round" stroke-linejoin="round" transform="translate(2.2762, 24.9666)"/>
<line y2="-0.0000" x2="79.6177" y1="-0.0000" x1="0.0500" stroke="currentColor" stroke-width="0.1000" stroke-linecap="round" stroke-linejoin="round" transform="translate(2.2762, 23.9666)"/>
<line y2="-0.0000" x2="79.6177" y1="-0.0000" x1="0.0500" stroke="currentColor" stroke-width="0.1000" stroke-linecap="round" stroke-linejoin="round" transform="translate(2.2762, 22.9666)"/>
<rect fill="currentColor" ry="0.0000" height="4.0000" width="0.1900" y="-2.0000" x="0.0000" transform="translate(21.0573, 24.9666)"/>
<rect fill="currentColor" ry="0.0000" height="4.0000" width="0.6000" y="-2.0000" x="0.0000" transform="translate(81.3439, 24.9666)"/>
<rect fill="currentColor" ry="0.0000" height="4.0000" width="0.1900" y="-2.0000" x="0.0000" transform="translate(80.8539, 24.9666)"/>
<rect fill="currentColor" ry="0.0000" height="4.0000" width="0.1900" y="-2.0000" x="0.0000" transform="translate(31.7514, 24.9666)"/>
<rect fill="currentColor" ry="0.0000" height="4.0000" width="0.1900" y="-2.0000" x="0.0000" transform="translate(50.1597, 24.9666)"/>
<rect fill="currentColor" ry="0.0000" height="4.0000" width="0.1900" y="-2.0000" x="0.0000" transform="translate(41.3930, 24.9666)"/>
<rect fill="currentColor" ry="0.0400" height="3.3122" width="0.1300" y="-1.5000" x="-0.0650" transform="translate(55.8191, 24.9666)"/>
<path fill="currentColor" d="M0 0c0 31 25 56 56 56s56 -25 56 -56s-25 -56 -56 -56s-56 25 -56 56z" transform="translate(56.3340, 26.4666) scale(0.0040, -0.0040)"/>
<rect fill="currentColor" ry="0.0400" height="2.3122" width="0.1300" y="3.1878" x="-0.0650" transform="translate(54.6329, 24.9666)"/>
<path fill="currentColor" d="M0 0c0 31 25 56 56 56s56 -25 56 -56s-25 -56 -56 -56s-56 25 -56 56z" transform="translate(56.3340, 28.4666) scale(0.0040, -0.0040)"/>
<a xlink:href="textedit:///home/kalvis/workspace/ddgatve-songs/songs/lilypond/NeguluNeguluJanisaNakti.ly:45:52:53" style="color:inherit;">
<text fill="currentColor" text-anchor="start" font-size="2.4696" font-family="Century Schoolbook L" transform="translate(54.4407, 34.7762)">
<tspan>
lī</tspan>
</text>
</a>
<path fill="currentColor" d="M259 288c27 29 49 62 49 102c0 55 -57 87 -117 87c-47 0 -75 -36 -75 -71c0 -20 10 -40 30 -52zM289 271c55 -31 83 -79 83 -127c0 -73 -66 -144 -189 -144c-94 0 -183 54 -183 140c0 50 39 85 76 120c-41 28 -61 67 -61 106c0 68 61 134 176 134c81 0 161 -38 161 -110 c0 -47 -30 -85 -63 -119zM106 242c-33 -29 -62 -59 -62 -102c0 -69 66 -117 139 -117c54 0 86 42 86 83c0 24 -10 48 -35 62z" transform="translate(51.0997, 26.9811) scale(0.0040, -0.0040)"/>
<path fill="currentColor" d="M170 256c-51 0 -53 -44 -53 -102v-14v-15c0 -58 2 -102 53 -102c57 0 61 51 61 117s-4 116 -61 116zM117 266c17 7 34 13 53 13c101 0 170 -44 170 -139s-69 -140 -170 -140c-112 0 -170 124 -170 250c0 128 72 250 190 250c71 0 138 -39 138 -103c0 -36 -29 -66 -65 -66 s-66 30 -66 66c0 24 39 25 39 49c0 20 -23 31 -46 31c-66 0 -75 -65 -75 -139c0 -24 2 -48 2 -72z" transform="translate(51.1509, 24.9666) scale(0.0040, -0.0040)"/>
<a xlink:href="textedit:///home/kalvis/workspace/ddgatve-songs/songs/lilypond/NeguluNeguluJanisaNakti.ly:38:0:1" style="color:inherit;">
<path fill="currentColor" d="M220 138c56 0 109 -29 109 -91c0 -72 -56 -121 -103 -149c-36 -21 -76 -36 -117 -36c-56 0 -109 29 -109 91c0 72 56 121 103 149c36 21 76 36 117 36z" transform="translate(54.5679, 26.9666) scale(0.0040, -0.0040)"/>
</a>
<a xlink:href="textedit:///home/kalvis/workspace/ddgatve-songs/songs/lilypond/NeguluNeguluJanisaNakti.ly:24:0:1" style="color:inherit;">
<path fill="currentColor" d="M220 138c56 0 109 -29 109 -91c0 -72 -56 -121 -103 -149c-36 -21 -76 -36 -117 -36c-56 0 -109 29 -109 91c0 72 56 121 103 149c36 21 76 36 117 36z" transform="translate(54.5679, 27.9666) scale(0.0040, -0.0040)"/>
</a>
<rect fill="currentColor" ry="0.0400" height="3.3122" width="0.1300" y="-2.5000" x="-0.0650" transform="translate(61.3039, 24.9666)"/>
<path fill="currentColor" d="M0 0c0 31 25 56 56 56s56 -25 56 -56s-25 -56 -56 -56s-56 25 -56 56z" transform="translate(61.8189, 25.4666) scale(0.0040, -0.0040)"/>
<rect fill="currentColor" ry="0.0400" height="2.4789" width="0.1300" y="2.1878" x="-0.0650" transform="translate(60.1177, 24.9666)"/>
<path fill="currentColor" d="M0 0c0 31 25 56 56 56s56 -25 56 -56s-25 -56 -56 -56s-56 25 -56 56z" transform="translate(61.8189, 27.4666) scale(0.0040, -0.0040)"/>
<a xlink:href="textedit:///home/kalvis/workspace/ddgatve-songs/songs/lilypond/NeguluNeguluJanisaNakti.ly:45:58:59" style="color:inherit;">
<text fill="currentColor" text-anchor="start" font-size="2.4696" font-family="Century Schoolbook L" transform="translate(59.0890, 34.7762)">
<tspan>
go,</tspan>
</text>
</a>
<a xlink:href="textedit:///home/kalvis/workspace/ddgatve-songs/songs/lilypond/NeguluNeguluJanisaNakti.ly:38:4:5" style="color:inherit;">
<path fill="currentColor" d="M220 138c56 0 109 -29 109 -91c0 -72 -56 -121 -103 -149c-36 -21 -76 -36 -117 -36c-56 0 -109 29 -109 91c0 72 56 121 103 149c36 21 76 36 117 36z" transform="translate(60.0527, 25.9666) scale(0.0040, -0.0040)"/>
</a>
<a xlink:href="textedit:///home/kalvis/workspace/ddgatve-songs/songs/lilypond/NeguluNeguluJanisaNakti.ly:24:6:7" style="color:inherit;">
<path fill="currentColor" d="M220 138c56 0 109 -29 109 -91c0 -72 -56 -121 -103 -149c-36 -21 -76 -36 -117 -36c-56 0 -109 29 -109 91c0 72 56 121 103 149c36 21 76 36 117 36z" transform="translate(60.0527, 26.9666) scale(0.0040, -0.0040)"/>
</a>
<rect fill="currentColor" ry="0.0400" height="3.3122" width="0.1300" y="-1.5000" x="-0.0650" transform="translate(43.8527, 24.9666)"/>
<rect fill="currentColor" ry="0.0400" height="2.3122" width="0.1300" y="3.1878" x="-0.0650" transform="translate(42.6665, 24.9666)"/>
<a xlink:href="textedit:///home/kalvis/workspace/ddgatve-songs/songs/lilypond/NeguluNeguluJanisaNakti.ly:45:40:41" style="color:inherit;">
<text fill="currentColor" text-anchor="start" font-size="2.4696" font-family="Century Schoolbook L" transform="translate(41.8939, 34.7762)">
<tspan>
ne</tspan>
</text>
</a>
<a xlink:href="textedit:///home/kalvis/workspace/ddgatve-songs/songs/lilypond/NeguluNeguluJanisaNakti.ly:36:35:36" style="color:inherit;">
<path fill="currentColor" d="M220 138c56 0 109 -29 109 -91c0 -72 -56 -121 -103 -149c-36 -21 -76 -36 -117 -36c-56 0 -109 29 -109 91c0 72 56 121 103 149c36 21 76 36 117 36z" transform="translate(42.6015, 26.9666) scale(0.0040, -0.0040)"/>
</a>
<a xlink:href="textedit:///home/kalvis/workspace/ddgatve-songs/songs/lilypond/NeguluNeguluJanisaNakti.ly:23:34:35" style="color:inherit;">
<path fill="currentColor" d="M220 138c56 0 109 -29 109 -91c0 -72 -56 -121 -103 -149c-36 -21 -76 -36 -117 -36c-56 0 -109 29 -109 91c0 72 56 121 103 149c36 21 76 36 117 36z" transform="translate(42.6015, 27.9666) scale(0.0040, -0.0040)"/>
</a>
<path fill="currentColor" d="M0 0c0 -198 209 -335 209 -533c0 -71 -16 -141 -42 -207c-5 -8 -12 -12 -19 -12c-13 0 -26 11 -23 27c26 61 42 126 42 192c0 104 -95 208 -167 283h-16v250h16z" transform="translate(48.5078, 24.5066) scale(0.0040, -0.0040)"/>
<rect fill="currentColor" ry="0.0400" height="3.3122" width="0.1300" y="-0.5000" x="-0.0650" transform="translate(48.4428, 24.9666)"/>
<path fill="currentColor" d="M0 0h-16v250h16c98 58 227 148 227 259c0 57 -16 112 -41 163c-3 16 10 27 23 27c7 0 15 -3 20 -11c25 -56 40 -117 40 -179c0 -204 -269 -305 -269 -509z" transform="translate(47.3216, 32.4266) scale(0.0040, -0.0040)"/>
<rect fill="currentColor" ry="0.0400" height="2.8122" width="0.1300" y="4.6878" x="-0.0650" transform="translate(47.2566, 24.9666)"/>
<a xlink:href="textedit:///home/kalvis/workspace/ddgatve-songs/songs/lilypond/NeguluNeguluJanisaNakti.ly:45:46:47" style="color:inherit;">
<text fill="currentColor" text-anchor="start" font-size="2.4696" font-family="Century Schoolbook L" transform="translate(45.3572, 34.7762)">
<tspan>
krīt,</tspan>
</text>
</a>
<a xlink:href="textedit:///home/kalvis/workspace/ddgatve-songs/songs/lilypond/NeguluNeguluJanisaNakti.ly:36:38:39" style="color:inherit;">
<path fill="currentColor" d="M220 138c56 0 109 -29 109 -91c0 -72 -56 -121 -103 -149c-36 -21 -76 -36 -117 -36c-56 0 -109 29 -109 91c0 72 56 121 103 149c36 21 76 36 117 36z" transform="translate(47.1916, 27.9666) scale(0.0040, -0.0040)"/>
</a>
<a xlink:href="textedit:///home/kalvis/workspace/ddgatve-songs/songs/lilypond/NeguluNeguluJanisaNakti.ly:23:39:40" style="color:inherit;">
<path fill="currentColor" d="M220 138c56 0 109 -29 109 -91c0 -72 -56 -121 -103 -149c-36 -21 -76 -36 -117 -36c-56 0 -109 29 -109 91c0 72 56 121 103 149c36 21 76 36 117 36z" transform="translate(47.1916, 29.4666) scale(0.0040, -0.0040)"/>
</a>
<rect fill="currentColor" ry="0.0400" height="3.3122" width="0.1300" y="-1.5000" x="-0.0650" transform="translate(76.7520, 24.9666)"/>
<path fill="currentColor" d="M0 0c0 31 25 56 56 56s56 -25 56 -56s-25 -56 -56 -56s-56 25 -56 56z" transform="translate(77.2670, 26.4666) scale(0.0040, -0.0040)"/>
<rect fill="currentColor" ry="0.0400" height="2.3122" width="0.1300" y="3.1878" x="-0.0650" transform="translate(75.5658, 24.9666)"/>
<path fill="currentColor" d="M0 0c0 31 25 56 56 56s56 -25 56 -56s-25 -56 -56 -56s-56 25 -56 56z" transform="translate(77.2670, 28.4666) scale(0.0040, -0.0040)"/>
<a xlink:href="textedit:///home/kalvis/workspace/ddgatve-songs/songs/lilypond/NeguluNeguluJanisaNakti.ly:45:68:69" style="color:inherit;">
<text fill="currentColor" text-anchor="start" font-size="2.4696" font-family="Century Schoolbook L" transform="translate(74.5200, 34.7762)">
<tspan>
go!</tspan>
</text>
</a>
<a xlink:href="textedit:///home/kalvis/workspace/ddgatve-songs/songs/lilypond/NeguluNeguluJanisaNakti.ly:38:25:26" style="color:inherit;">
<path fill="currentColor" d="M220 138c56 0 109 -29 109 -91c0 -72 -56 -121 -103 -149c-36 -21 -76 -36 -117 -36c-56 0 -109 29 -109 91c0 72 56 121 103 149c36 21 76 36 117 36z" transform="translate(75.5008, 26.9666) scale(0.0040, -0.0040)"/>
</a>
<a xlink:href="textedit:///home/kalvis/workspace/ddgatve-songs/songs/lilypond/NeguluNeguluJanisaNakti.ly:24:16:17" style="color:inherit;">
<path fill="currentColor" d="M220 138c56 0 109 -29 109 -91c0 -72 -56 -121 -103 -149c-36 -21 -76 -36 -117 -36c-56 0 -109 29 -109 91c0 72 56 121 103 149c36 21 76 36 117 36z" transform="translate(75.5008, 27.9666) scale(0.0040, -0.0040)"/>
</a>
<a xlink:href="textedit:///home/kalvis/workspace/ddgatve-songs/songs/lilypond/NeguluNeguluJanisaNakti.ly:56:14:15" style="color:inherit;">
<text fill="currentColor" text-anchor="start" font-size="2.6163" font-family="sans-serif" transform="translate(75.5008, 22.3825)">
<tspan>
C</tspan>
</text>
<text fill="currentColor" text-anchor="start" font-size="2.6163" font-family="sans-serif" transform="translate(77.3104, 22.3825)">
<tspan/>
</text>
<text fill="currentColor" text-anchor="start" font-size="2.6163" font-family="sans-serif" transform="translate(77.3104, 22.3825)">
<tspan/>
</text>
<text fill="currentColor" text-anchor="start" font-size="1.8500" font-family="sans-serif" transform="translate(77.3104, 20.8825)">
<tspan/>
</text>
</a>
<a xlink:href="textedit:///home/kalvis/workspace/ddgatve-songs/songs/lilypond/NeguluNeguluJanisaNakti.ly:45:7:8" style="color:inherit;">
<rect fill="currentColor" ry="0.0400" height="0.1300" width="0.3000" y="-0.5500" x="0.0000" transform="translate(17.2454, 34.7762)"/>
</a>
<a xlink:href="textedit:///home/kalvis/workspace/ddgatve-songs/songs/lilypond/NeguluNeguluJanisaNakti.ly:45:16:17" style="color:inherit;">
<rect fill="currentColor" ry="0.0400" height="0.1300" width="0.3000" y="-0.5500" x="0.0000" transform="translate(24.2971, 34.7762)"/>
</a>
<a xlink:href="textedit:///home/kalvis/workspace/ddgatve-songs/songs/lilypond/NeguluNeguluJanisaNakti.ly:45:23:24" style="color:inherit;">
<rect fill="currentColor" ry="0.0400" height="0.1300" width="0.3000" y="-0.5500" x="0.0000" transform="translate(28.1273, 34.7762)"/>
</a>
<a xlink:href="textedit:///home/kalvis/workspace/ddgatve-songs/songs/lilypond/NeguluNeguluJanisaNakti.ly:45:33:34" style="color:inherit;">
<rect fill="currentColor" ry="0.0400" height="0.1300" width="0.3000" y="-0.5500" x="0.0000" transform="translate(35.3489, 34.7762)"/>
</a>
<a xlink:href="textedit:///home/kalvis/workspace/ddgatve-songs/songs/lilypond/NeguluNeguluJanisaNakti.ly:45:43:44" style="color:inherit;">
<rect fill="currentColor" ry="0.0400" height="0.1300" width="0.5919" y="-0.5500" x="0.0000" transform="translate(44.6953, 34.7762)"/>
</a>
<a xlink:href="textedit:///home/kalvis/workspace/ddgatve-songs/songs/lilypond/NeguluNeguluJanisaNakti.ly:45:55:56" style="color:inherit;">
<rect fill="currentColor" ry="0.0400" height="0.1300" width="0.6600" y="-0.5500" x="0.0000" transform="translate(57.2201, 34.7762)"/>
</a>
<a xlink:href="textedit:///home/kalvis/workspace/ddgatve-songs/songs/lilypond/NeguluNeguluJanisaNakti.ly:45:65:66" style="color:inherit;">
<rect fill="currentColor" ry="0.0400" height="0.1300" width="0.6600" y="-0.5500" x="0.0000" transform="translate(70.9499, 34.7762)"/>
</a>
<path fill="currentColor" d="M0 0c0 -198 209 -335 209 -533c0 -71 -16 -141 -42 -207c-5 -8 -12 -12 -19 -12c-13 0 -26 11 -23 27c26 61 42 126 42 192c0 104 -95 208 -167 283h-16v250h16z" transform="translate(67.9126, 23.0066) scale(0.0040, -0.0040)"/>
<rect fill="currentColor" ry="0.0400" height="3.3122" width="0.1300" y="-2.0000" x="-0.0650" transform="translate(67.8476, 24.9666)"/>
<rect fill="currentColor" ry="0.0400" height="2.3122" width="0.1300" y="2.6878" x="-0.0650" transform="translate(66.6614, 24.9666)"/>
<path fill="currentColor" d="M0 0c0 31 25 56 56 56s56 -25 56 -56s-25 -56 -56 -56s-56 25 -56 56z" transform="translate(68.3626, 27.4666) scale(0.0040, -0.0040)"/>
<a xlink:href="textedit:///home/kalvis/workspace/ddgatve-songs/songs/lilypond/NeguluNeguluJanisaNakti.ly:45:62:63" style="color:inherit;">
<text fill="currentColor" text-anchor="start" font-size="2.4696" font-family="Century Schoolbook L" transform="translate(66.4692, 34.7762)">
<tspan>
lī</tspan>
</text>
</a>
<a xlink:href="textedit:///home/kalvis/workspace/ddgatve-songs/songs/lilypond/NeguluNeguluJanisaNakti.ly:38:12:13" style="color:inherit;">
<path fill="currentColor" d="M220 138c56 0 109 -29 109 -91c0 -72 -56 -121 -103 -149c-36 -21 -76 -36 -117 -36c-56 0 -109 29 -109 91c0 72 56 121 103 149c36 21 76 36 117 36z" transform="translate(66.5964, 26.4666) scale(0.0040, -0.0040)"/>
</a>
<a xlink:href="textedit:///home/kalvis/workspace/ddgatve-songs/songs/lilypond/NeguluNeguluJanisaNakti.ly:24:12:13" style="color:inherit;">
<path fill="currentColor" d="M220 138c56 0 109 -29 109 -91c0 -72 -56 -121 -103 -149c-36 -21 -76 -36 -117 -36c-56 0 -109 29 -109 91c0 72 56 121 103 149c36 21 76 36 117 36z" transform="translate(66.5964, 27.4666) scale(0.0040, -0.0040)"/>
</a>
<a xlink:href="textedit:///home/kalvis/workspace/ddgatve-songs/songs/lilypond/NeguluNeguluJanisaNakti.ly:56:8:9" style="color:inherit;">
<text fill="currentColor" text-anchor="start" font-size="2.6163" font-family="sans-serif" transform="translate(66.5964, 22.3825)">
<tspan>
G</tspan>
</text>
<text fill="currentColor" text-anchor="start" font-size="2.6163" font-family="sans-serif" transform="translate(68.6109, 22.3825)">
<tspan/>
</text>
<text fill="currentColor" text-anchor="start" font-size="2.6163" font-family="sans-serif" transform="translate(68.6109, 22.3825)">
<tspan/>
</text>
<text fill="currentColor" text-anchor="start" font-size="1.8500" font-family="sans-serif" transform="translate(68.6109, 20.8825)">
<tspan/>
</text>
</a>
<path fill="currentColor" d="M0 0c0 -198 209 -335 209 -533c0 -71 -16 -141 -42 -207c-5 -8 -12 -12 -19 -12c-13 0 -26 11 -23 27c26 61 42 126 42 192c0 104 -95 208 -167 283h-16v250h16z" transform="translate(73.8489, 23.0066) scale(0.0040, -0.0040)"/>
<rect fill="currentColor" ry="0.0400" height="3.3122" width="0.1300" y="-2.0000" x="-0.0650" transform="translate(73.7839, 24.9666)"/>
<a xlink:href="textedit:///home/kalvis/workspace/ddgatve-songs/songs/lilypond/NeguluNeguluJanisaNakti.ly:38:21:22" style="color:inherit;">
<path fill="currentColor" d="M220 138c56 0 109 -29 109 -91c0 -72 -56 -121 -103 -149c-36 -21 -76 -36 -117 -36c-56 0 -109 29 -109 91c0 72 56 121 103 149c36 21 76 36 117 36z" transform="translate(72.5327, 26.4666) scale(0.0040, -0.0040)"/>
</a>
<path fill="currentColor" d="M0 0c0 -198 209 -335 209 -533c0 -71 -16 -141 -42 -207c-5 -8 -12 -12 -19 -12c-13 0 -26 11 -23 27c26 61 42 126 42 192c0 104 -95 208 -167 283h-16v250h16z" transform="translate(70.8807, 22.5066) scale(0.0040, -0.0040)"/>
<rect fill="currentColor" ry="0.0400" height="3.3122" width="0.1300" y="-2.5000" x="-0.0650" transform="translate(70.8157, 24.9666)"/>
<a xlink:href="textedit:///home/kalvis/workspace/ddgatve-songs/songs/lilypond/NeguluNeguluJanisaNakti.ly:38:17:18" style="color:inherit;">
<path fill="currentColor" d="M220 138c56 0 109 -29 109 -91c0 -72 -56 -121 -103 -149c-36 -21 -76 -36 -117 -36c-56 0 -109 29 -109 91c0 72 56 121 103 149c36 21 76 36 117 36z" transform="translate(69.5646, 25.9666) scale(0.0040, -0.0040)"/>
</a>
<path fill="currentColor" d="M0 0c0 -198 209 -335 209 -533c0 -71 -16 -141 -42 -207c-5 -8 -12 -12 -19 -12c-13 0 -26 11 -23 27c26 61 42 126 42 192c0 104 -95 208 -167 283h-16v250h16z" transform="translate(19.4053, 23.5066) scale(0.0040, -0.0040)"/>
<rect fill="currentColor" ry="0.0400" height="3.3122" width="0.1300" y="-1.5000" x="-0.0650" transform="translate(19.3403, 24.9666)"/>
<path fill="currentColor" d="M0 0h-16v250h16c98 58 227 148 227 259c0 57 -16 112 -41 163c-3 16 10 27 23 27c7 0 15 -3 20 -11c25 -56 40 -117 40 -179c0 -204 -269 -305 -269 -509z" transform="translate(18.2191, 30.9266) scale(0.0040, -0.0040)"/>
<rect fill="currentColor" ry="0.0400" height="2.8122" width="0.1300" y="3.1878" x="-0.0650" transform="translate(18.1541, 24.9666)"/>
<a xlink:href="textedit:///home/kalvis/workspace/ddgatve-songs/songs/lilypond/NeguluNeguluJanisaNakti.ly:45:10:11" style="color:inherit;">
<text fill="currentColor" text-anchor="start" font-size="2.4696" font-family="Century Schoolbook L" transform="translate(17.6034, 34.7762)">
<tspan>
ni</tspan>
</text>
</a>
<a xlink:href="textedit:///home/kalvis/workspace/ddgatve-songs/songs/lilypond/NeguluNeguluJanisaNakti.ly:36:6:7" style="color:inherit;">
<path fill="currentColor" d="M220 138c56 0 109 -29 109 -91c0 -72 -56 -121 -103 -149c-36 -21 -76 -36 -117 -36c-56 0 -109 29 -109 91c0 72 56 121 103 149c36 21 76 36 117 36z" transform="translate(18.0891, 26.9666) scale(0.0040, -0.0040)"/>
</a>
<a xlink:href="textedit:///home/kalvis/workspace/ddgatve-songs/songs/lilypond/NeguluNeguluJanisaNakti.ly:23:9:10" style="color:inherit;">
<path fill="currentColor" d="M220 138c56 0 109 -29 109 -91c0 -72 -56 -121 -103 -149c-36 -21 -76 -36 -117 -36c-56 0 -109 29 -109 91c0 72 56 121 103 149c36 21 76 36 117 36z" transform="translate(18.0891, 27.9666) scale(0.0040, -0.0040)"/>
</a>
<path fill="currentColor" d="M0 0c0 -198 209 -335 209 -533c0 -71 -16 -141 -42 -207c-5 -8 -12 -12 -19 -12c-13 0 -26 11 -23 27c26 61 42 126 42 192c0 104 -95 208 -167 283h-16v250h16z" transform="translate(16.0701, 23.5066) scale(0.0040, -0.0040)"/>
<rect fill="currentColor" ry="0.0400" height="3.3122" width="0.1300" y="-1.5000" x="-0.0650" transform="translate(16.0051, 24.9666)"/>
<path fill="currentColor" d="M0 0c0 -198 209 -335 209 -533c0 -71 -16 -141 -42 -207c-5 -8 -12 -12 -19 -12c-13 0 -26 11 -23 27c26 61 42 126 42 192c0 104 -95 208 -167 283h-16v250h16z" transform="translate(23.5998, 22.0066) scale(0.0040, -0.0040)"/>
<rect fill="currentColor" ry="0.0400" height="3.3122" width="0.1300" y="-3.0000" x="-0.0650" transform="translate(23.5348, 24.9666)"/>
<path fill="currentColor" d="M0 0h-16v250h16c98 58 227 148 227 259c0 57 -16 112 -41 163c-3 16 10 27 23 27c7 0 15 -3 20 -11c25 -56 40 -117 40 -179c0 -204 -269 -305 -269 -509z" transform="translate(22.4136, 29.4266) scale(0.0040, -0.0040)"/>
<rect fill="currentColor" ry="0.0400" height="2.8122" width="0.1300" y="1.6878" x="-0.0650" transform="translate(22.3486, 24.9666)"/>
<a xlink:href="textedit:///home/kalvis/workspace/ddgatve-songs/songs/lilypond/NeguluNeguluJanisaNakti.ly:45:13:14" style="color:inherit;">
<text fill="currentColor" text-anchor="start" font-size="2.4696" font-family="Century Schoolbook L" transform="translate(21.6442, 34.7762)">
<tspan>
ru</tspan>
</text>
</a>
<a xlink:href="textedit:///home/kalvis/workspace/ddgatve-songs/songs/lilypond/NeguluNeguluJanisaNakti.ly:36:10:11" style="color:inherit;">
<path fill="currentColor" d="M220 138c56 0 109 -29 109 -91c0 -72 -56 -121 -103 -149c-36 -21 -76 -36 -117 -36c-56 0 -109 29 -109 91c0 72 56 121 103 149c36 21 76 36 117 36z" transform="translate(22.2836, 25.4666) scale(0.0040, -0.0040)"/>
</a>
<a xlink:href="textedit:///home/kalvis/workspace/ddgatve-songs/songs/lilypond/NeguluNeguluJanisaNakti.ly:23:15:16" style="color:inherit;">
<path fill="currentColor" d="M220 138c56 0 109 -29 109 -91c0 -72 -56 -121 -103 -149c-36 -21 -76 -36 -117 -36c-56 0 -109 29 -109 91c0 72 56 121 103 149c36 21 76 36 117 36z" transform="translate(22.2836, 26.4666) scale(0.0040, -0.0040)"/>
</a>
<a xlink:href="textedit:///home/kalvis/workspace/ddgatve-songs/songs/lilypond/NeguluNeguluJanisaNakti.ly:54:0:1" style="color:inherit;">
<text fill="currentColor" text-anchor="start" font-size="2.6163" font-family="sans-serif" transform="translate(10.7444, 22.3825)">
<tspan>
C</tspan>
</text>
<text fill="currentColor" text-anchor="start" font-size="2.6163" font-family="sans-serif" transform="translate(12.5540, 22.3825)">
<tspan/>
</text>
<text fill="currentColor" text-anchor="start" font-size="2.6163" font-family="sans-serif" transform="translate(12.5540, 22.3825)">
<tspan/>
</text>
<text fill="currentColor" text-anchor="start" font-size="1.8500" font-family="sans-serif" transform="translate(12.5540, 20.8825)">
<tspan/>
</text>
</a>
<path fill="currentColor" d="M376 262c4 0 9 1 13 1c155 0 256 -128 256 -261c0 -76 -33 -154 -107 -210c-22 -17 -47 -28 -73 -36c3 -35 5 -70 5 -105c0 -19 -1 -39 -2 -58c-7 -120 -90 -228 -208 -228c-108 0 -195 88 -195 197c0 58 53 103 112 103c54 0 95 -47 95 -103c0 -52 -43 -95 -95 -95 c-11 0 -21 2 -31 6c26 -39 68 -65 117 -65c96 0 157 92 163 191c1 18 2 37 2 55c0 31 -1 61 -4 92c-29 -5 -58 -8 -89 -8c-188 0 -333 172 -333 374c0 177 131 306 248 441c-19 62 -37 125 -45 190c-6 52 -7 104 -7 156c0 115 55 224 149 292c3 2 7 3 10 3c4 0 7 0 10 -3 c71 -84 133 -245 133 -358c0 -143 -86 -255 -180 -364c21 -68 39 -138 56 -207zM461 -203c68 24 113 95 113 164c0 90 -66 179 -173 190c24 -116 46 -231 60 -354zM74 28c0 -135 129 -247 264 -247c28 0 55 2 82 6c-14 127 -37 245 -63 364c-79 -8 -124 -61 -124 -119 c0 -44 25 -91 81 -123c5 -5 7 -10 7 -15c0 -11 -10 -22 -22 -22c-3 0 -6 1 -9 2c-80 43 -117 115 -117 185c0 88 58 174 160 197c-14 58 -29 117 -46 175c-107 -121 -213 -243 -213 -403zM408 1045c-99 -48 -162 -149 -162 -259c0 -74 18 -133 36 -194 c80 97 146 198 146 324c0 55 -4 79 -20 129z" transform="translate(3.0762, 25.9666) scale(0.0040, -0.0040)"/>
<text fill="currentColor" text-anchor="start" font-size="1.7461" font-family="Century Schoolbook L" transform="translate(1.3202, 21.8825)">
<tspan>
7</tspan>
</text>
<path fill="currentColor" d="M259 288c27 29 49 62 49 102c0 55 -57 87 -117 87c-47 0 -75 -36 -75 -71c0 -20 10 -40 30 -52zM289 271c55 -31 83 -79 83 -127c0 -73 -66 -144 -189 -144c-94 0 -183 54 -183 140c0 50 39 85 76 120c-41 28 -61 67 -61 106c0 68 61 134 176 134c81 0 161 -38 161 -110 c0 -47 -30 -85 -63 -119zM106 242c-33 -29 -62 -59 -62 -102c0 -69 66 -117 139 -117c54 0 86 42 86 83c0 24 -10 48 -35 62z" transform="translate(7.2762, 26.9811) scale(0.0040, -0.0040)"/>
<path fill="currentColor" d="M150 477c-29 0 -59 -8 -59 -33c0 -22 36 -25 36 -47c0 -32 -26 -58 -58 -58s-57 26 -57 58c0 65 67 103 138 103c91 0 169 -33 169 -114c0 -43 -4 -82 -42 -100c-9 -4 -14 -12 -14 -21s5 -18 14 -22c41 -19 56 -57 56 -103c0 -92 -79 -140 -179 -140 c-79 0 -154 42 -154 113c0 36 30 66 66 66s65 -30 65 -66c0 -25 -40 -28 -40 -53c0 -27 32 -37 63 -37c49 0 63 61 63 117v16c0 54 -2 94 -50 94h-80c-10 0 -14 8 -14 15s4 14 14 14h80c49 0 50 43 50 99v8c0 54 -18 91 -67 91z" transform="translate(7.3445, 24.9666) scale(0.0040, -0.0040)"/>
<path fill="currentColor" d="M0 0h-16v250h16c98 58 227 148 227 259c0 57 -16 112 -41 163c-3 16 10 27 23 27c7 0 15 -3 20 -11c25 -56 40 -117 40 -179c0 -204 -269 -305 -269 -509z" transform="translate(14.8839, 30.9266) scale(0.0040, -0.0040)"/>
<rect fill="currentColor" ry="0.0400" height="2.8122" width="0.1300" y="3.1878" x="-0.0650" transform="translate(14.8189, 24.9666)"/>
<a xlink:href="textedit:///home/kalvis/workspace/ddgatve-songs/songs/lilypond/NeguluNeguluJanisaNakti.ly:45:4:5" style="color:inherit;">
<text fill="currentColor" text-anchor="start" font-size="2.4696" font-family="Century Schoolbook L" transform="translate(13.6366, 34.7762)">
<tspan>
ma</tspan>
</text>
</a>
<a xlink:href="textedit:///home/kalvis/workspace/ddgatve-songs/songs/lilypond/NeguluNeguluJanisaNakti.ly:36:4:5" style="color:inherit;">
<path fill="currentColor" d="M220 138c56 0 109 -29 109 -91c0 -72 -56 -121 -103 -149c-36 -21 -76 -36 -117 -36c-56 0 -109 29 -109 91c0 72 56 121 103 149c36 21 76 36 117 36z" transform="translate(14.7539, 26.9666) scale(0.0040, -0.0040)"/>
</a>
<a xlink:href="textedit:///home/kalvis/workspace/ddgatve-songs/songs/lilypond/NeguluNeguluJanisaNakti.ly:23:5:6" style="color:inherit;">
<path fill="currentColor" d="M220 138c56 0 109 -29 109 -91c0 -72 -56 -121 -103 -149c-36 -21 -76 -36 -117 -36c-56 0 -109 29 -109 91c0 72 56 121 103 149c36 21 76 36 117 36z" transform="translate(14.7539, 27.9666) scale(0.0040, -0.0040)"/>
</a>
<path fill="currentColor" d="M0 0c0 -198 209 -335 209 -533c0 -71 -16 -141 -42 -207c-5 -8 -12 -12 -19 -12c-13 0 -26 11 -23 27c26 61 42 126 42 192c0 104 -95 208 -167 283h-16v250h16z" transform="translate(12.0606, 23.5066) scale(0.0040, -0.0040)"/>
<rect fill="currentColor" ry="0.0400" height="3.3122" width="0.1300" y="-1.5000" x="-0.0650" transform="translate(11.9956, 24.9666)"/>
<path fill="currentColor" d="M0 0h-16v250h16c98 58 227 148 227 259c0 57 -16 112 -41 163c-3 16 10 27 23 27c7 0 15 -3 20 -11c25 -56 40 -117 40 -179c0 -204 -269 -305 -269 -509z" transform="translate(10.8744, 30.9266) scale(0.0040, -0.0040)"/>
<rect fill="currentColor" ry="0.0400" height="2.8122" width="0.1300" y="3.1878" x="-0.0650" transform="translate(10.8094, 24.9666)"/>
<a xlink:href="textedit:///home/kalvis/workspace/ddgatve-songs/songs/lilypond/NeguluNeguluJanisaNakti.ly:45:0:1" style="color:inherit;">
<text fill="currentColor" text-anchor="start" font-size="2.4696" font-family="Century Schoolbook L" transform="translate(9.9343, 34.7762)">
<tspan>
lai</tspan>
</text>
</a>
<a xlink:href="textedit:///home/kalvis/workspace/ddgatve-songs/songs/lilypond/NeguluNeguluJanisaNakti.ly:36:0:1" style="color:inherit;">
<path fill="currentColor" d="M220 138c56 0 109 -29 109 -91c0 -72 -56 -121 -103 -149c-36 -21 -76 -36 -117 -36c-56 0 -109 29 -109 91c0 72 56 121 103 149c36 21 76 36 117 36z" transform="translate(10.7444, 26.9666) scale(0.0040, -0.0040)"/>
</a>
<a xlink:href="textedit:///home/kalvis/workspace/ddgatve-songs/songs/lilypond/NeguluNeguluJanisaNakti.ly:23:0:1" style="color:inherit;">
<path fill="currentColor" d="M220 138c56 0 109 -29 109 -91c0 -72 -56 -121 -103 -149c-36 -21 -76 -36 -117 -36c-56 0 -109 29 -109 91c0 72 56 121 103 149c36 21 76 36 117 36z" transform="translate(10.7444, 27.9666) scale(0.0040, -0.0040)"/>
</a>
<path fill="currentColor" d="M0 0c0 -198 209 -335 209 -533c0 -71 -16 -141 -42 -207c-5 -8 -12 -12 -19 -12c-13 0 -26 11 -23 27c26 61 42 126 42 192c0 104 -95 208 -167 283h-16v250h16z" transform="translate(34.2760, 22.5066) scale(0.0040, -0.0040)"/>
<rect fill="currentColor" ry="0.0400" height="3.3122" width="0.1300" y="-2.5000" x="-0.0650" transform="translate(34.2110, 24.9666)"/>
<path fill="currentColor" d="M0 0h-16v250h16c98 58 227 148 227 259c0 57 -16 112 -41 163c-3 16 10 27 23 27c7 0 15 -3 20 -11c25 -56 40 -117 40 -179c0 -204 -269 -305 -269 -509z" transform="translate(33.0898, 29.9266) scale(0.0040, -0.0040)"/>
<rect fill="currentColor" ry="0.0400" height="2.8122" width="0.1300" y="2.1878" x="-0.0650" transform="translate(33.0248, 24.9666)"/>
<a xlink:href="textedit:///home/kalvis/workspace/ddgatve-songs/songs/lilypond/NeguluNeguluJanisaNakti.ly:45:29:30" style="color:inherit;">
<text fill="currentColor" text-anchor="start" font-size="2.4696" font-family="Century Schoolbook L" transform="translate(31.9449, 34.7762)">
<tspan>
vel</tspan>
</text>
</a>
<a xlink:href="textedit:///home/kalvis/workspace/ddgatve-songs/songs/lilypond/NeguluNeguluJanisaNakti.ly:36:23:24" style="color:inherit;">
<path fill="currentColor" d="M220 138c56 0 109 -29 109 -91c0 -72 -56 -121 -103 -149c-36 -21 -76 -36 -117 -36c-56 0 -109 29 -109 91c0 72 56 121 103 149c36 21 76 36 117 36z" transform="translate(32.9598, 25.9666) scale(0.0040, -0.0040)"/>
</a>
<a xlink:href="textedit:///home/kalvis/workspace/ddgatve-songs/songs/lilypond/NeguluNeguluJanisaNakti.ly:23:26:27" style="color:inherit;">
<path fill="currentColor" d="M220 138c56 0 109 -29 109 -91c0 -72 -56 -121 -103 -149c-36 -21 -76 -36 -117 -36c-56 0 -109 29 -109 91c0 72 56 121 103 149c36 21 76 36 117 36z" transform="translate(32.9598, 26.9666) scale(0.0040, -0.0040)"/>
</a>
<path fill="currentColor" d="M0 0c0 -198 209 -335 209 -533c0 -71 -16 -141 -42 -207c-5 -8 -12 -12 -19 -12c-13 0 -26 11 -23 27c26 61 42 126 42 192c0 104 -95 208 -167 283h-16v250h16z" transform="translate(30.0994, 22.5066) scale(0.0040, -0.0040)"/>
<rect fill="currentColor" ry="0.0400" height="3.3122" width="0.1300" y="-2.0000" x="-0.0650" transform="translate(38.1779, 24.9666)"/>
<rect fill="currentColor" ry="0.0400" height="2.3122" width="0.1300" y="2.6878" x="-0.0650" transform="translate(36.9917, 24.9666)"/>
<a xlink:href="textedit:///home/kalvis/workspace/ddgatve-songs/songs/lilypond/NeguluNeguluJanisaNakti.ly:45:36:37" style="color:inherit;">
<text fill="currentColor" text-anchor="start" font-size="2.4696" font-family="Century Schoolbook L" transform="translate(35.7069, 34.7762)">
<tspan>
drē</tspan>
</text>
</a>
<a xlink:href="textedit:///home/kalvis/workspace/ddgatve-songs/songs/lilypond/NeguluNeguluJanisaNakti.ly:36:28:29" style="color:inherit;">
<path fill="currentColor" d="M220 138c56 0 109 -29 109 -91c0 -72 -56 -121 -103 -149c-36 -21 -76 -36 -117 -36c-56 0 -109 29 -109 91c0 72 56 121 103 149c36 21 76 36 117 36z" transform="translate(36.9267, 26.4666) scale(0.0040, -0.0040)"/>
</a>
<a xlink:href="textedit:///home/kalvis/workspace/ddgatve-songs/songs/lilypond/NeguluNeguluJanisaNakti.ly:23:29:30" style="color:inherit;">
<path fill="currentColor" d="M220 138c56 0 109 -29 109 -91c0 -72 -56 -121 -103 -149c-36 -21 -76 -36 -117 -36c-56 0 -109 29 -109 91c0 72 56 121 103 149c36 21 76 36 117 36z" transform="translate(36.9267, 27.4666) scale(0.0040, -0.0040)"/>
</a>
<path fill="currentColor" d="M0 0c0 -198 209 -335 209 -533c0 -71 -16 -141 -42 -207c-5 -8 -12 -12 -19 -12c-13 0 -26 11 -23 27c26 61 42 126 42 192c0 104 -95 208 -167 283h-16v250h16z" transform="translate(27.0203, 22.5066) scale(0.0040, -0.0040)"/>
<rect fill="currentColor" ry="0.0400" height="3.3122" width="0.1300" y="-2.5000" x="-0.0650" transform="translate(26.9553, 24.9666)"/>
<path fill="currentColor" d="M0 0h-16v250h16c98 58 227 148 227 259c0 57 -16 112 -41 163c-3 16 10 27 23 27c7 0 15 -3 20 -11c25 -56 40 -117 40 -179c0 -204 -269 -305 -269 -509z" transform="translate(25.8341, 29.9266) scale(0.0040, -0.0040)"/>
<rect fill="currentColor" ry="0.0400" height="2.8122" width="0.1300" y="2.1878" x="-0.0650" transform="translate(25.7691, 24.9666)"/>
<a xlink:href="textedit:///home/kalvis/workspace/ddgatve-songs/songs/lilypond/NeguluNeguluJanisaNakti.ly:45:19:20" style="color:inherit;">
<text fill="currentColor" text-anchor="start" font-size="2.4696" font-family="Century Schoolbook L" transform="translate(24.6550, 34.7762)">
<tspan>
dzī</tspan>
</text>
</a>
<a xlink:href="textedit:///home/kalvis/workspace/ddgatve-songs/songs/lilypond/NeguluNeguluJanisaNakti.ly:36:13:14" style="color:inherit;">
<path fill="currentColor" d="M220 138c56 0 109 -29 109 -91c0 -72 -56 -121 -103 -149c-36 -21 -76 -36 -117 -36c-56 0 -109 29 -109 91c0 72 56 121 103 149c36 21 76 36 117 36z" transform="translate(25.7041, 25.9666) scale(0.0040, -0.0040)"/>
</a>
<a xlink:href="textedit:///home/kalvis/workspace/ddgatve-songs/songs/lilypond/NeguluNeguluJanisaNakti.ly:23:20:21" style="color:inherit;">
<path fill="currentColor" d="M220 138c56 0 109 -29 109 -91c0 -72 -56 -121 -103 -149c-36 -21 -76 -36 -117 -36c-56 0 -109 29 -109 91c0 72 56 121 103 149c36 21 76 36 117 36z" transform="translate(25.7041, 26.9666) scale(0.0040, -0.0040)"/>
</a>
<rect fill="currentColor" ry="0.0400" height="3.3122" width="0.1300" y="-2.5000" x="-0.0650" transform="translate(30.0344, 24.9666)"/>
<path fill="currentColor" d="M0 0h-16v250h16c98 58 227 148 227 259c0 57 -16 112 -41 163c-3 16 10 27 23 27c7 0 15 -3 20 -11c25 -56 40 -117 40 -179c0 -204 -269 -305 -269 -509z" transform="translate(28.9132, 29.9266) scale(0.0040, -0.0040)"/>
<rect fill="currentColor" ry="0.0400" height="2.8122" width="0.1300" y="2.1878" x="-0.0650" transform="translate(28.8482, 24.9666)"/>
<a xlink:href="textedit:///home/kalvis/workspace/ddgatve-songs/songs/lilypond/NeguluNeguluJanisaNakti.ly:45:26:27" style="color:inherit;">
<text fill="currentColor" text-anchor="start" font-size="2.4696" font-family="Century Schoolbook L" transform="translate(28.4853, 34.7762)">
<tspan>
ši</tspan>
</text>
</a>
<a xlink:href="textedit:///home/kalvis/workspace/ddgatve-songs/songs/lilypond/NeguluNeguluJanisaNakti.ly:36:17:18" style="color:inherit;">
<path fill="currentColor" d="M220 138c56 0 109 -29 109 -91c0 -72 -56 -121 -103 -149c-36 -21 -76 -36 -117 -36c-56 0 -109 29 -109 91c0 72 56 121 103 149c36 21 76 36 117 36z" transform="translate(28.7832, 25.9666) scale(0.0040, -0.0040)"/>
</a>
<a xlink:href="textedit:///home/kalvis/workspace/ddgatve-songs/songs/lilypond/NeguluNeguluJanisaNakti.ly:23:22:23" style="color:inherit;">
<path fill="currentColor" d="M220 138c56 0 109 -29 109 -91c0 -72 -56 -121 -103 -149c-36 -21 -76 -36 -117 -36c-56 0 -109 29 -109 91c0 72 56 121 103 149c36 21 76 36 117 36z" transform="translate(28.7832, 26.9666) scale(0.0040, -0.0040)"/>
</a>
<g color="rgb(100%, 100%, 100%)">
<text fill="currentColor" text-anchor="start" font-size="1.9600" font-family="sans-serif" transform="translate(2.2762, 36.9666)">
<tspan>
 </tspan>
</text>
</g>
<a xlink:href="http://lilypond.org/" transform="translate(13.8223, 165.1512)">
<rect stroke-width="0.0" stroke="none" fill="none" height="2.0827" width="56.5755" y="-0.4439" x="0.0000"/>
</a>
<text fill="currentColor" text-anchor="start" font-size="2.2001" font-family="Century Schoolbook L" transform="translate(13.8223, 165.1512)">
<tspan>
Music engraving by LilyPond 2.18.2—www.lilypond.org</tspan>
</text>
</svg>