<svg xmlns="http://www.w3.org/2000/svg" xmlns:xlink="http://www.w3.org/1999/xlink" version="1.2" width="143.9999mm" height="72.63213mm" viewBox="0.05 3.8453 81.94389800950884 41.3317">

<text fill="currentColor" text-anchor="start" font-size="2.2001" font-family="Century Schoolbook L" transform="translate(2.2762, 2.8453)">
<tspan>
 </tspan>
</text>
<text fill="currentColor" text-anchor="start" font-size="2.2001" font-family="Century Schoolbook L" transform="translate(2.2762, 3.8453)">
<tspan>
 </tspan>
</text>
<text fill="currentColor" text-anchor="start" font-size="2.2001" font-family="Century Schoolbook L" transform="translate(79.7588, 3.8453)">
<tspan>
 </tspan>
</text>
<rect fill="currentColor" ry="0.0000" height="4.0000" width="0.1900" y="-2.0000" x="0.0000" transform="translate(34.8265, 9.1770)"/>
<rect fill="currentColor" ry="0.0000" height="4.0000" width="0.1900" y="-2.0000" x="0.0000" transform="translate(59.9515, 9.1770)"/>
<rect fill="currentColor" ry="0.0000" height="4.0000" width="0.1900" y="-2.0000" x="0.0000" transform="translate(81.7539, 9.1770)"/>
<line y2="-0.0000" x2="79.6177" y1="-0.0000" x1="0.0500" stroke="currentColor" stroke-width="0.1000" stroke-linecap="round" stroke-linejoin="round" transform="translate(2.2762, 11.1770)"/>
<line y2="-0.0000" x2="79.6177" y1="-0.0000" x1="0.0500" stroke="currentColor" stroke-width="0.1000" stroke-linecap="round" stroke-linejoin="round" transform="translate(2.2762, 10.1770)"/>
<line y2="-0.0000" x2="79.6177" y1="-0.0000" x1="0.0500" stroke="currentColor" stroke-width="0.1000" stroke-linecap="round" stroke-linejoin="round" transform="translate(2.2762, 9.1770)"/>
<line y2="-0.0000" x2="79.6177" y1="-0.0000" x1="0.0500" stroke="currentColor" stroke-width="0.1000" stroke-linecap="round" stroke-linejoin="round" transform="translate(2.2762, 8.1770)"/>
<line y2="-0.0000" x2="79.6177" y1="-0.0000" x1="0.0500" stroke="currentColor" stroke-width="0.1000" stroke-linecap="round" stroke-linejoin="round" transform="translate(2.2762, 7.1770)"/>
<a xlink:href="textedit:///home/kalvis/workspace/ddgatve-songs/songs/lilypond/NelistLietusNelistLietus.ly:23:9:10" style="color:inherit;">
<path fill="currentColor" d="M220 138c56 0 109 -29 109 -91c0 -72 -56 -121 -103 -149c-36 -21 -76 -36 -117 -36c-56 0 -109 29 -109 91c0 72 56 121 103 149c36 21 76 36 117 36z" transform="translate(55.7135, 9.6770) scale(0.0040, -0.0040)"/>
</a>
<a xlink:href="textedit:///home/kalvis/workspace/ddgatve-songs/songs/lilypond/NelistLietusNelistLietus.ly:41:43:44" style="color:inherit;">
<text fill="currentColor" text-anchor="start" font-size="2.4696" font-family="Century Schoolbook L" transform="translate(54.2376, 14.8199)">
<tspan>
tus,</tspan>
</text>
</a>
<rect fill="currentColor" ry="0.0400" height="3.3122" width="0.1300" y="-3.0000" x="-0.0650" transform="translate(56.9647, 9.1770)"/>
<path fill="currentColor" d="M0 0c0 -198 209 -335 209 -533c0 -71 -16 -141 -42 -207c-5 -8 -12 -12 -19 -12c-13 0 -26 11 -23 27c26 61 42 126 42 192c0 104 -95 208 -167 283h-16v250h16z" transform="translate(57.0297, 6.2170) scale(0.0040, -0.0040)"/>
<a xlink:href="textedit:///home/kalvis/workspace/ddgatve-songs/songs/lilypond/NelistLietusNelistLietus.ly:25:0:1" style="color:inherit;">
<path fill="currentColor" d="M220 138c56 0 109 -29 109 -91c0 -72 -56 -121 -103 -149c-36 -21 -76 -36 -117 -36c-56 0 -109 29 -109 91c0 72 56 121 103 149c36 21 76 36 117 36z" transform="translate(64.9662, 9.1770) scale(0.0040, -0.0040)"/>
</a>
<path fill="currentColor" d="M204 307c22 14 44 29 60 50c11 15 19 33 27 50c2 4 5 6 9 6c6 0 13 -5 13 -14v-245h72c10 0 15 -7 15 -14s-5 -15 -15 -15h-72v-8c0 -48 27 -94 72 -94c8 0 12 -5 12 -11s-4 -12 -12 -12c-44 0 -87 13 -131 13s-87 -13 -131 -13c-8 0 -12 6 -12 12s4 11 12 11 c45 0 73 46 73 94v8h-167c-23 0 -31 14 -31 23c0 3 1 5 2 6c80 93 138 207 138 330c0 9 6 16 13 16h3c23 -7 47 -13 71 -13s48 6 71 13c2 1 3 1 5 1c11 0 18 -10 12 -17l-284 -330h167v131c0 8 1 17 8 22z" transform="translate(60.8915, 11.1915) scale(0.0040, -0.0040)"/>
<path fill="currentColor" d="M150 477c-29 0 -59 -8 -59 -33c0 -22 36 -25 36 -47c0 -32 -26 -58 -58 -58s-57 26 -57 58c0 65 67 103 138 103c91 0 169 -33 169 -114c0 -43 -4 -82 -42 -100c-9 -4 -14 -12 -14 -21s5 -18 14 -22c41 -19 56 -57 56 -103c0 -92 -79 -140 -179 -140 c-79 0 -154 42 -154 113c0 36 30 66 66 66s65 -30 65 -66c0 -25 -40 -28 -40 -53c0 -27 32 -37 63 -37c49 0 63 61 63 117v16c0 54 -2 94 -50 94h-80c-10 0 -14 8 -14 15s4 14 14 14h80c49 0 50 43 50 99v8c0 54 -18 91 -67 91z" transform="translate(61.0281, 9.1770) scale(0.0040, -0.0040)"/>
<a xlink:href="textedit:///home/kalvis/workspace/ddgatve-songs/songs/lilypond/NelistLietusNelistLietus.ly:42:0:1" style="color:inherit;">
<text fill="currentColor" text-anchor="start" font-size="2.4696" font-family="Century Schoolbook L" transform="translate(64.8390, 14.8199)">
<tspan>
lī</tspan>
</text>
</a>
<rect fill="currentColor" ry="0.0400" height="3.1455" width="0.1300" y="0.1878" x="-0.0650" transform="translate(65.0312, 9.1770)"/>
<a xlink:href="textedit:///home/kalvis/workspace/ddgatve-songs/songs/lilypond/NelistLietusNelistLietus.ly:23:5:6" style="color:inherit;">
<path fill="currentColor" d="M220 138c56 0 109 -29 109 -91c0 -72 -56 -121 -103 -149c-36 -21 -76 -36 -117 -36c-56 0 -109 29 -109 91c0 72 56 121 103 149c36 21 76 36 117 36z" transform="translate(44.9755, 9.6770) scale(0.0040, -0.0040)"/>
</a>
<a xlink:href="textedit:///home/kalvis/workspace/ddgatve-songs/songs/lilypond/NelistLietusNelistLietus.ly:41:30:31" style="color:inherit;">
<text fill="currentColor" text-anchor="start" font-size="2.4696" font-family="Century Schoolbook L" transform="translate(43.5508, 14.8199)">
<tspan>
līst'</tspan>
</text>
</a>
<rect fill="currentColor" ry="0.0400" height="3.3122" width="0.1300" y="-3.0000" x="-0.0650" transform="translate(46.2267, 9.1770)"/>
<path fill="currentColor" d="M0 0c0 -198 209 -335 209 -533c0 -71 -16 -141 -42 -207c-5 -8 -12 -12 -19 -12c-13 0 -26 11 -23 27c26 61 42 126 42 192c0 104 -95 208 -167 283h-16v250h16z" transform="translate(46.2917, 6.2170) scale(0.0040, -0.0040)"/>
<a xlink:href="textedit:///home/kalvis/workspace/ddgatve-songs/songs/lilypond/NelistLietusNelistLietus.ly:23:7:8" style="color:inherit;">
<path fill="currentColor" d="M220 138c56 0 109 -29 109 -91c0 -72 -56 -121 -103 -149c-36 -21 -76 -36 -117 -36c-56 0 -109 29 -109 91c0 72 56 121 103 149c36 21 76 36 117 36z" transform="translate(50.4939, 10.1770) scale(0.0040, -0.0040)"/>
</a>
<a xlink:href="textedit:///home/kalvis/workspace/ddgatve-songs/songs/lilypond/NelistLietusNelistLietus.ly:41:36:37" style="color:inherit;">
<text fill="currentColor" text-anchor="start" font-size="2.4696" font-family="Century Schoolbook L" transform="translate(49.7521, 14.8199)">
<tspan>
lie</tspan>
</text>
</a>
<rect fill="currentColor" ry="0.0400" height="3.3122" width="0.1300" y="-2.5000" x="-0.0650" transform="translate(51.7451, 9.1770)"/>
<path fill="currentColor" d="M0 0c0 -198 209 -335 209 -533c0 -71 -16 -141 -42 -207c-5 -8 -12 -12 -19 -12c-13 0 -26 11 -23 27c26 61 42 126 42 192c0 104 -95 208 -167 283h-16v250h16z" transform="translate(51.8101, 6.7170) scale(0.0040, -0.0040)"/>
<a xlink:href="textedit:///home/kalvis/workspace/ddgatve-songs/songs/lilypond/NelistLietusNelistLietus.ly:41:3:4" style="color:inherit;">
<rect fill="currentColor" ry="0.0400" height="0.1300" width="0.6600" y="-0.5500" x="0.0000" transform="translate(15.6984, 14.8199)"/>
</a>
<a xlink:href="textedit:///home/kalvis/workspace/ddgatve-songs/songs/lilypond/NelistLietusNelistLietus.ly:42:3:4" style="color:inherit;">
<rect fill="currentColor" ry="0.0400" height="0.1300" width="0.6600" y="-0.5500" x="0.0000" transform="translate(68.3348, 14.8199)"/>
</a>
<a xlink:href="textedit:///home/kalvis/workspace/ddgatve-songs/songs/lilypond/NelistLietusNelistLietus.ly:41:40:41" style="color:inherit;">
<rect fill="currentColor" ry="0.0400" height="0.1300" width="0.6600" y="-0.5500" x="0.0000" transform="translate(53.0648, 14.8199)"/>
</a>
<a xlink:href="textedit:///home/kalvis/workspace/ddgatve-songs/songs/lilypond/NelistLietusNelistLietus.ly:41:27:28" style="color:inherit;">
<rect fill="currentColor" ry="0.0400" height="0.1300" width="0.6600" y="-0.5500" x="0.0000" transform="translate(42.3780, 14.8199)"/>
</a>
<a xlink:href="textedit:///home/kalvis/workspace/ddgatve-songs/songs/lilypond/NelistLietusNelistLietus.ly:41:16:17" style="color:inherit;">
<rect fill="currentColor" ry="0.0400" height="0.1300" width="0.6600" y="-0.5500" x="0.0000" transform="translate(27.9398, 14.8199)"/>
</a>
<path fill="currentColor" d="M27 41l-1 -66v-11c0 -22 1 -44 4 -66c45 38 93 80 93 139c0 33 -14 67 -43 67c-31 0 -52 -30 -53 -63zM-15 -138l-12 595c8 5 18 8 27 8s19 -3 27 -8l-7 -345c25 21 58 34 91 34c52 0 89 -48 89 -102c0 -80 -86 -117 -147 -169c-15 -13 -24 -38 -45 -38 c-13 0 -23 11 -23 25z" transform="translate(63.8162, 9.1770) scale(0.0040, -0.0040)"/>
<a xlink:href="textedit:///home/kalvis/workspace/ddgatve-songs/songs/lilypond/NelistLietusNelistLietus.ly:25:5:6" style="color:inherit;">
<path fill="currentColor" d="M315 65c0 24 -21 41 -42 41c-4 0 -8 0 -12 -1c-31 -9 -77 -40 -114 -64s-84 -53 -104 -78c-7 -8 -11 -18 -11 -28c0 -24 21 -41 42 -41c4 0 8 0 12 1c31 9 78 40 115 64s84 53 104 78c7 8 10 18 10 28zM264 137c47 0 83 -21 83 -72c0 -19 -4 -37 -10 -56 c-12 -38 -32 -74 -65 -96c-54 -36 -113 -51 -188 -51c-47 0 -84 22 -84 73c0 19 5 37 11 56c12 38 31 74 64 96c54 36 114 50 189 50z" transform="translate(71.8467, 9.6770) scale(0.0040, -0.0040)"/>
</a>
<a xlink:href="textedit:///home/kalvis/workspace/ddgatve-songs/songs/lilypond/NelistLietusNelistLietus.ly:42:6:7" style="color:inherit;">
<text fill="currentColor" text-anchor="start" font-size="2.4696" font-family="Century Schoolbook L" transform="translate(70.9199, 14.8199)">
<tspan>
go,</tspan>
</text>
</a>
<rect fill="currentColor" ry="0.0400" height="3.2386" width="0.1300" y="-3.0000" x="-0.0650" transform="translate(73.1717, 9.1770)"/>
<path fill="currentColor" d="M27 41l-1 -66v-11c0 -22 1 -44 4 -66c45 38 93 80 93 139c0 33 -14 67 -43 67c-31 0 -52 -30 -53 -63zM-15 -138l-12 595c8 5 18 8 27 8s19 -3 27 -8l-7 -345c25 21 58 34 91 34c52 0 89 -48 89 -102c0 -80 -86 -117 -147 -169c-15 -13 -24 -38 -45 -38 c-13 0 -23 11 -23 25z" transform="translate(10.2010, 9.1770) scale(0.0040, -0.0040)"/>
<a xlink:href="textedit:///home/kalvis/workspace/ddgatve-songs/songs/lilypond/NelistLietusNelistLietus.ly:21:18:19" style="color:inherit;">
<path fill="currentColor" d="M220 138c56 0 109 -29 109 -91c0 -72 -56 -121 -103 -149c-36 -21 -76 -36 -117 -36c-56 0 -109 29 -109 91c0 72 56 121 103 149c36 21 76 36 117 36z" transform="translate(19.8505, 9.6770) scale(0.0040, -0.0040)"/>
</a>
<a xlink:href="textedit:///home/kalvis/workspace/ddgatve-songs/songs/lilypond/NelistLietusNelistLietus.ly:41:6:7" style="color:inherit;">
<text fill="currentColor" text-anchor="start" font-size="2.4696" font-family="Century Schoolbook L" transform="translate(18.4259, 14.8199)">
<tspan>
līst'</tspan>
</text>
</a>
<rect fill="currentColor" ry="0.0400" height="3.3122" width="0.1300" y="-3.0000" x="-0.0650" transform="translate(21.1017, 9.1770)"/>
<path fill="currentColor" d="M0 0c0 -198 209 -335 209 -533c0 -71 -16 -141 -42 -207c-5 -8 -12 -12 -19 -12c-13 0 -26 11 -23 27c26 61 42 126 42 192c0 104 -95 208 -167 283h-16v250h16z" transform="translate(21.1667, 6.2170) scale(0.0040, -0.0040)"/>
<a xlink:href="textedit:///home/kalvis/workspace/ddgatve-songs/songs/lilypond/NelistLietusNelistLietus.ly:21:0:1" style="color:inherit;">
<path fill="currentColor" d="M220 138c56 0 109 -29 109 -91c0 -72 -56 -121 -103 -149c-36 -21 -76 -36 -117 -36c-56 0 -109 29 -109 91c0 72 56 121 103 149c36 21 76 36 117 36z" transform="translate(11.3510, 9.1770) scale(0.0040, -0.0040)"/>
</a>
<a xlink:href="textedit:///home/kalvis/workspace/ddgatve-songs/songs/lilypond/NelistLietusNelistLietus.ly:21:6:7" style="color:inherit;">
<text fill="currentColor" text-anchor="start" font-size="2.2001" font-family="Century Schoolbook L" transform="translate(11.3510, 6.2232)">
<tspan>
runājoši</tspan>
</text>
</a>
<path fill="currentColor" d="M376 262c4 0 9 1 13 1c155 0 256 -128 256 -261c0 -76 -33 -154 -107 -210c-22 -17 -47 -28 -73 -36c3 -35 5 -70 5 -105c0 -19 -1 -39 -2 -58c-7 -120 -90 -228 -208 -228c-108 0 -195 88 -195 197c0 58 53 103 112 103c54 0 95 -47 95 -103c0 -52 -43 -95 -95 -95 c-11 0 -21 2 -31 6c26 -39 68 -65 117 -65c96 0 157 92 163 191c1 18 2 37 2 55c0 31 -1 61 -4 92c-29 -5 -58 -8 -89 -8c-188 0 -333 172 -333 374c0 177 131 306 248 441c-19 62 -37 125 -45 190c-6 52 -7 104 -7 156c0 115 55 224 149 292c3 2 7 3 10 3c4 0 7 0 10 -3 c71 -84 133 -245 133 -358c0 -143 -86 -255 -180 -364c21 -68 39 -138 56 -207zM461 -203c68 24 113 95 113 164c0 90 -66 179 -173 190c24 -116 46 -231 60 -354zM74 28c0 -135 129 -247 264 -247c28 0 55 2 82 6c-14 127 -37 245 -63 364c-79 -8 -124 -61 -124 -119 c0 -44 25 -91 81 -123c5 -5 7 -10 7 -15c0 -11 -10 -22 -22 -22c-3 0 -6 1 -9 2c-80 43 -117 115 -117 185c0 88 58 174 160 197c-14 58 -29 117 -46 175c-107 -121 -213 -243 -213 -403zM408 1045c-99 -48 -162 -149 -162 -259c0 -74 18 -133 36 -194 c80 97 146 198 146 324c0 55 -4 79 -20 129z" transform="translate(3.0762, 10.1770) scale(0.0040, -0.0040)"/>
<a xlink:href="textedit:///home/kalvis/workspace/ddgatve-songs/songs/lilypond/NelistLietusNelistLietus.ly:19:0:1" style="color:inherit;">
</a>
<path fill="currentColor" d="M204 307c22 14 44 29 60 50c11 15 19 33 27 50c2 4 5 6 9 6c6 0 13 -5 13 -14v-245h72c10 0 15 -7 15 -14s-5 -15 -15 -15h-72v-8c0 -48 27 -94 72 -94c8 0 12 -5 12 -11s-4 -12 -12 -12c-44 0 -87 13 -131 13s-87 -13 -131 -13c-8 0 -12 6 -12 12s4 11 12 11 c45 0 73 46 73 94v8h-167c-23 0 -31 14 -31 23c0 3 1 5 2 6c80 93 138 207 138 330c0 9 6 16 13 16h3c23 -7 47 -13 71 -13s48 6 71 13c2 1 3 1 5 1c11 0 18 -10 12 -17l-284 -330h167v131c0 8 1 17 8 22z" transform="translate(7.2762, 11.1915) scale(0.0040, -0.0040)"/>
<path fill="currentColor" d="M150 477c-29 0 -59 -8 -59 -33c0 -22 36 -25 36 -47c0 -32 -26 -58 -58 -58s-57 26 -57 58c0 65 67 103 138 103c91 0 169 -33 169 -114c0 -43 -4 -82 -42 -100c-9 -4 -14 -12 -14 -21s5 -18 14 -22c41 -19 56 -57 56 -103c0 -92 -79 -140 -179 -140 c-79 0 -154 42 -154 113c0 36 30 66 66 66s65 -30 65 -66c0 -25 -40 -28 -40 -53c0 -27 32 -37 63 -37c49 0 63 61 63 117v16c0 54 -2 94 -50 94h-80c-10 0 -14 8 -14 15s4 14 14 14h80c49 0 50 43 50 99v8c0 54 -18 91 -67 91z" transform="translate(7.4128, 9.1770) scale(0.0040, -0.0040)"/>
<a xlink:href="textedit:///home/kalvis/workspace/ddgatve-songs/songs/lilypond/NelistLietusNelistLietus.ly:41:0:1" style="color:inherit;">
<text fill="currentColor" text-anchor="start" font-size="2.4696" font-family="Century Schoolbook L" transform="translate(10.3872, 14.8199)">
<tspan>
Ne</tspan>
</text>
</a>
<path fill="currentColor" d="M0 0c0 31 25 56 56 56s56 -25 56 -56s-25 -56 -56 -56s-56 25 -56 56z" transform="translate(13.1171, 8.6770) scale(0.0040, -0.0040)"/>
<rect fill="currentColor" ry="0.0400" height="3.1455" width="0.1300" y="0.1878" x="-0.0650" transform="translate(11.4160, 9.1770)"/>
<path fill="currentColor" d="M0 0c0 -198 209 -335 209 -533c0 -71 -16 -141 -42 -207c-5 -8 -12 -12 -19 -12c-13 0 -26 11 -23 27c26 61 42 126 42 192c0 104 -95 208 -167 283h-16v250h16z" transform="translate(31.9047, 6.2170) scale(0.0040, -0.0040)"/>
<a xlink:href="textedit:///home/kalvis/workspace/ddgatve-songs/songs/lilypond/NelistLietusNelistLietus.ly:23:0:1" style="color:inherit;">
<path fill="currentColor" d="M220 138c56 0 109 -29 109 -91c0 -72 -56 -121 -103 -149c-36 -21 -76 -36 -117 -36c-56 0 -109 29 -109 91c0 72 56 121 103 149c36 21 76 36 117 36z" transform="translate(39.8412, 9.1770) scale(0.0040, -0.0040)"/>
</a>
<path fill="currentColor" d="M204 307c22 14 44 29 60 50c11 15 19 33 27 50c2 4 5 6 9 6c6 0 13 -5 13 -14v-245h72c10 0 15 -7 15 -14s-5 -15 -15 -15h-72v-8c0 -48 27 -94 72 -94c8 0 12 -5 12 -11s-4 -12 -12 -12c-44 0 -87 13 -131 13s-87 -13 -131 -13c-8 0 -12 6 -12 12s4 11 12 11 c45 0 73 46 73 94v8h-167c-23 0 -31 14 -31 23c0 3 1 5 2 6c80 93 138 207 138 330c0 9 6 16 13 16h3c23 -7 47 -13 71 -13s48 6 71 13c2 1 3 1 5 1c11 0 18 -10 12 -17l-284 -330h167v131c0 8 1 17 8 22z" transform="translate(35.7665, 11.1915) scale(0.0040, -0.0040)"/>
<path fill="currentColor" d="M23 11c-1 -7 -6 -11 -11 -11c-6 0 -12 4 -12 11c0 175 235 165 235 344c0 60 -18 122 -70 122c-26 0 -51 -14 -51 -37c0 -27 35 -41 35 -68c0 -38 -30 -69 -68 -69s-69 31 -69 69c0 76 72 128 153 128c96 0 187 -56 187 -145c0 -153 -151 -159 -249 -220c9 2 17 3 26 3 c33 0 70 -11 105 -36c21 -15 46 -23 66 -23c21 0 39 9 44 29c2 6 6 9 11 9c6 0 12 -5 12 -12c0 -67 -90 -105 -138 -105c-36 0 -71 14 -96 44c-13 16 -31 22 -48 22c-30 0 -59 -20 -62 -55z" transform="translate(35.8348, 9.1770) scale(0.0040, -0.0040)"/>
<a xlink:href="textedit:///home/kalvis/workspace/ddgatve-songs/songs/lilypond/NelistLietusNelistLietus.ly:41:24:25" style="color:inherit;">
<text fill="currentColor" text-anchor="start" font-size="2.4696" font-family="Century Schoolbook L" transform="translate(39.1336, 14.8199)">
<tspan>
ne</tspan>
</text>
</a>
<rect fill="currentColor" ry="0.0400" height="3.1872" width="0.1300" y="0.1878" x="-0.0650" transform="translate(39.9062, 9.1770)"/>
<path fill="currentColor" d="M0 0h-16v250h16c98 58 227 148 227 259c0 57 -16 112 -41 163c-3 16 10 27 23 27c7 0 15 -3 20 -11c25 -56 40 -117 40 -179c0 -204 -269 -305 -269 -509z" transform="translate(39.9712, 12.5120) scale(0.0040, -0.0040)"/>
<path fill="currentColor" d="M27 41l-1 -66v-11c0 -22 1 -44 4 -66c45 38 93 80 93 139c0 33 -14 67 -43 67c-31 0 -52 -30 -53 -63zM-15 -138l-12 595c8 5 18 8 27 8s19 -3 27 -8l-7 -345c25 21 58 34 91 34c52 0 89 -48 89 -102c0 -80 -86 -117 -147 -169c-15 -13 -24 -38 -45 -38 c-13 0 -23 11 -23 25z" transform="translate(38.6912, 9.1770) scale(0.0040, -0.0040)"/>
<a xlink:href="textedit:///home/kalvis/workspace/ddgatve-songs/songs/lilypond/NelistLietusNelistLietus.ly:21:21:22" style="color:inherit;">
<path fill="currentColor" d="M220 138c56 0 109 -29 109 -91c0 -72 -56 -121 -103 -149c-36 -21 -76 -36 -117 -36c-56 0 -109 29 -109 91c0 72 56 121 103 149c36 21 76 36 117 36z" transform="translate(25.3689, 10.1770) scale(0.0040, -0.0040)"/>
</a>
<a xlink:href="textedit:///home/kalvis/workspace/ddgatve-songs/songs/lilypond/NelistLietusNelistLietus.ly:41:12:13" style="color:inherit;">
<text fill="currentColor" text-anchor="start" font-size="2.4696" font-family="Century Schoolbook L" transform="translate(24.6271, 14.8199)">
<tspan>
lie</tspan>
</text>
</a>
<rect fill="currentColor" ry="0.0400" height="3.3122" width="0.1300" y="-2.5000" x="-0.0650" transform="translate(26.6201, 9.1770)"/>
<path fill="currentColor" d="M0 0c0 -198 209 -335 209 -533c0 -71 -16 -141 -42 -207c-5 -8 -12 -12 -19 -12c-13 0 -26 11 -23 27c26 61 42 126 42 192c0 104 -95 208 -167 283h-16v250h16z" transform="translate(26.6851, 6.7170) scale(0.0040, -0.0040)"/>
<a xlink:href="textedit:///home/kalvis/workspace/ddgatve-songs/songs/lilypond/NelistLietusNelistLietus.ly:21:23:24" style="color:inherit;">
<path fill="currentColor" d="M220 138c56 0 109 -29 109 -91c0 -72 -56 -121 -103 -149c-36 -21 -76 -36 -117 -36c-56 0 -109 29 -109 91c0 72 56 121 103 149c36 21 76 36 117 36z" transform="translate(30.5885, 9.6770) scale(0.0040, -0.0040)"/>
</a>
<a xlink:href="textedit:///home/kalvis/workspace/ddgatve-songs/songs/lilypond/NelistLietusNelistLietus.ly:41:19:20" style="color:inherit;">
<text fill="currentColor" text-anchor="start" font-size="2.4696" font-family="Century Schoolbook L" transform="translate(29.1127, 14.8199)">
<tspan>
tus,</tspan>
</text>
</a>
<rect fill="currentColor" ry="0.0400" height="3.3122" width="0.1300" y="-3.0000" x="-0.0650" transform="translate(31.8397, 9.1770)"/>
<rect fill="currentColor" ry="0.0000" height="4.0000" width="0.1900" y="-2.0000" x="0.0000" transform="translate(78.8992, 21.1770)"/>
<rect fill="currentColor" ry="0.0000" height="4.0000" width="0.1900" y="-2.0000" x="0.0000" transform="translate(56.1412, 21.1770)"/>
<rect fill="currentColor" ry="0.0000" height="4.0000" width="0.1900" y="-2.0000" x="0.0000" transform="translate(27.5430, 21.1770)"/>
<line y2="-0.0000" x2="79.6177" y1="-0.0000" x1="0.0500" stroke="currentColor" stroke-width="0.1000" stroke-linecap="round" stroke-linejoin="round" transform="translate(2.2762, 23.1770)"/>
<line y2="-0.0000" x2="79.6177" y1="-0.0000" x1="0.0500" stroke="currentColor" stroke-width="0.1000" stroke-linecap="round" stroke-linejoin="round" transform="translate(2.2762, 22.1770)"/>
<line y2="-0.0000" x2="79.6177" y1="-0.0000" x1="0.0500" stroke="currentColor" stroke-width="0.1000" stroke-linecap="round" stroke-linejoin="round" transform="translate(2.2762, 21.1770)"/>
<line y2="-0.0000" x2="79.6177" y1="-0.0000" x1="0.0500" stroke="currentColor" stroke-width="0.1000" stroke-linecap="round" stroke-linejoin="round" transform="translate(2.2762, 20.1770)"/>
<line y2="-0.0000" x2="79.6177" y1="-0.0000" x1="0.0500" stroke="currentColor" stroke-width="0.1000" stroke-linecap="round" stroke-linejoin="round" transform="translate(2.2762, 19.1770)"/>
<path fill="currentColor" d="M0 0h-16v250h16c98 58 227 148 227 259c0 57 -16 112 -41 163c-3 16 10 27 23 27c7 0 15 -3 20 -11c25 -56 40 -117 40 -179c0 -204 -269 -305 -269 -509z" transform="translate(60.8159, 24.1370) scale(0.0040, -0.0040)"/>
<a xlink:href="textedit:///home/kalvis/workspace/ddgatve-songs/songs/lilypond/NelistLietusNelistLietus.ly:29:3:4" style="color:inherit;">
<path fill="currentColor" d="M220 138c56 0 109 -29 109 -91c0 -72 -56 -121 -103 -149c-36 -21 -76 -36 -117 -36c-56 0 -109 29 -109 91c0 72 56 121 103 149c36 21 76 36 117 36z" transform="translate(65.3501, 21.1770) scale(0.0040, -0.0040)"/>
</a>
<a xlink:href="textedit:///home/kalvis/workspace/ddgatve-songs/songs/lilypond/NelistLietusNelistLietus.ly:43:28:29" style="color:inherit;">
<text fill="currentColor" text-anchor="start" font-size="2.4696" font-family="Century Schoolbook L" transform="translate(64.6595, 26.7933)">
<tspan>
va</tspan>
</text>
</a>
<rect fill="currentColor" ry="0.0400" height="3.1872" width="0.1300" y="0.1878" x="-0.0650" transform="translate(65.4151, 21.1770)"/>
<a xlink:href="textedit:///home/kalvis/workspace/ddgatve-songs/songs/lilypond/NelistLietusNelistLietus.ly:27:12:13" style="color:inherit;">
<path fill="currentColor" d="M220 138c56 0 109 -29 109 -91c0 -72 -56 -121 -103 -149c-36 -21 -76 -36 -117 -36c-56 0 -109 29 -109 91c0 72 56 121 103 149c36 21 76 36 117 36z" transform="translate(46.6331, 20.6770) scale(0.0040, -0.0040)"/>
</a>
<a xlink:href="textedit:///home/kalvis/workspace/ddgatve-songs/songs/lilypond/NelistLietusNelistLietus.ly:43:11:12" style="color:inherit;">
<text fill="currentColor" text-anchor="start" font-size="2.4696" font-family="Century Schoolbook L" transform="translate(45.8913, 26.7933)">
<tspan>
lie</tspan>
</text>
</a>
<rect fill="currentColor" ry="0.0400" height="3.3122" width="0.1300" y="-0.3122" x="-0.0650" transform="translate(46.6981, 21.1770)"/>
<path fill="currentColor" d="M0 0h-16v250h16c98 58 227 148 227 259c0 57 -16 112 -41 163c-3 16 10 27 23 27c7 0 15 -3 20 -11c25 -56 40 -117 40 -179c0 -204 -269 -305 -269 -509z" transform="translate(46.7631, 24.1370) scale(0.0040, -0.0040)"/>
<a xlink:href="textedit:///home/kalvis/workspace/ddgatve-songs/songs/lilypond/NelistLietusNelistLietus.ly:27:15:16" style="color:inherit;">
<path fill="currentColor" d="M220 138c56 0 109 -29 109 -91c0 -72 -56 -121 -103 -149c-36 -21 -76 -36 -117 -36c-56 0 -109 29 -109 91c0 72 56 121 103 149c36 21 76 36 117 36z" transform="translate(51.7752, 20.6770) scale(0.0040, -0.0040)"/>
</a>
<a xlink:href="textedit:///home/kalvis/workspace/ddgatve-songs/songs/lilypond/NelistLietusNelistLietus.ly:43:18:19" style="color:inherit;">
<text fill="currentColor" text-anchor="start" font-size="2.4696" font-family="Century Schoolbook L" transform="translate(50.6408, 26.7933)">
<tspan>
tus</tspan>
</text>
</a>
<rect fill="currentColor" ry="0.0400" height="3.3122" width="0.1300" y="-0.3122" x="-0.0650" transform="translate(51.8402, 21.1770)"/>
<path fill="currentColor" d="M0 0h-16v250h16c98 58 227 148 227 259c0 57 -16 112 -41 163c-3 16 10 27 23 27c7 0 15 -3 20 -11c25 -56 40 -117 40 -179c0 -204 -269 -305 -269 -509z" transform="translate(51.9052, 24.1370) scale(0.0040, -0.0040)"/>
<a xlink:href="textedit:///home/kalvis/workspace/ddgatve-songs/songs/lilypond/NelistLietusNelistLietus.ly:29:0:1" style="color:inherit;">
<path fill="currentColor" d="M220 138c56 0 109 -29 109 -91c0 -72 -56 -121 -103 -149c-36 -21 -76 -36 -117 -36c-56 0 -109 29 -109 91c0 72 56 121 103 149c36 21 76 36 117 36z" transform="translate(60.6859, 20.6770) scale(0.0040, -0.0040)"/>
</a>
<path fill="currentColor" d="M204 307c22 14 44 29 60 50c11 15 19 33 27 50c2 4 5 6 9 6c6 0 13 -5 13 -14v-245h72c10 0 15 -7 15 -14s-5 -15 -15 -15h-72v-8c0 -48 27 -94 72 -94c8 0 12 -5 12 -11s-4 -12 -12 -12c-44 0 -87 13 -131 13s-87 -13 -131 -13c-8 0 -12 6 -12 12s4 11 12 11 c45 0 73 46 73 94v8h-167c-23 0 -31 14 -31 23c0 3 1 5 2 6c80 93 138 207 138 330c0 9 6 16 13 16h3c23 -7 47 -13 71 -13s48 6 71 13c2 1 3 1 5 1c11 0 18 -10 12 -17l-284 -330h167v131c0 8 1 17 8 22z" transform="translate(57.0812, 23.1915) scale(0.0040, -0.0040)"/>
<path fill="currentColor" d="M23 11c-1 -7 -6 -11 -11 -11c-6 0 -12 4 -12 11c0 175 235 165 235 344c0 60 -18 122 -70 122c-26 0 -51 -14 -51 -37c0 -27 35 -41 35 -68c0 -38 -30 -69 -68 -69s-69 31 -69 69c0 76 72 128 153 128c96 0 187 -56 187 -145c0 -153 -151 -159 -249 -220c9 2 17 3 26 3 c33 0 70 -11 105 -36c21 -15 46 -23 66 -23c21 0 39 9 44 29c2 6 6 9 11 9c6 0 12 -5 12 -12c0 -67 -90 -105 -138 -105c-36 0 -71 14 -96 44c-13 16 -31 22 -48 22c-30 0 -59 -20 -62 -55z" transform="translate(57.1495, 21.1770) scale(0.0040, -0.0040)"/>
<a xlink:href="textedit:///home/kalvis/workspace/ddgatve-songs/songs/lilypond/NelistLietusNelistLietus.ly:43:22:23" style="color:inherit;">
<text fill="currentColor" text-anchor="start" font-size="2.4696" font-family="Century Schoolbook L" transform="translate(59.9783, 26.7933)">
<tspan>
ne</tspan>
</text>
</a>
<rect fill="currentColor" ry="0.0400" height="3.3122" width="0.1300" y="-0.3122" x="-0.0650" transform="translate(60.7509, 21.1770)"/>
<a xlink:href="textedit:///home/kalvis/workspace/ddgatve-songs/songs/lilypond/NelistLietusNelistLietus.ly:43:37:38" style="color:inherit;">
<rect fill="currentColor" ry="0.0400" height="0.1300" width="0.6600" y="-0.5500" x="0.0000" transform="translate(72.0604, 26.7933)"/>
</a>
<a xlink:href="textedit:///home/kalvis/workspace/ddgatve-songs/songs/lilypond/NelistLietusNelistLietus.ly:43:31:32" style="color:inherit;">
<rect fill="currentColor" ry="0.0400" height="0.1300" width="0.6600" y="-0.5500" x="0.0000" transform="translate(68.0148, 26.7933)"/>
</a>
<a xlink:href="textedit:///home/kalvis/workspace/ddgatve-songs/songs/lilypond/NelistLietusNelistLietus.ly:43:25:26" style="color:inherit;">
<rect fill="currentColor" ry="0.0400" height="0.1300" width="0.6600" y="-0.5500" x="0.0000" transform="translate(63.3546, 26.7933)"/>
</a>
<a xlink:href="textedit:///home/kalvis/workspace/ddgatve-songs/songs/lilypond/NelistLietusNelistLietus.ly:43:15:16" style="color:inherit;">
<rect fill="currentColor" ry="0.0400" height="0.1300" width="0.6600" y="-0.5500" x="0.0000" transform="translate(49.3359, 26.7933)"/>
</a>
<a xlink:href="textedit:///home/kalvis/workspace/ddgatve-songs/songs/lilypond/NelistLietusNelistLietus.ly:27:7:8" style="color:inherit;">
<polygon points="4.0416 -0.0100 4.0416 0.3900 0.0400 0.2000 0.0400 -0.2000" stroke="currentColor" fill="currentColor" stroke-width="0.0800" stroke-linecap="round" stroke-linejoin="round" transform="translate(39.8269, 18.1770)"/>
<polygon points="4.0416 -0.0100 4.0416 0.3900 0.0400 0.2000 0.0400 -0.2000" stroke="currentColor" fill="currentColor" stroke-width="0.0800" stroke-linecap="round" stroke-linejoin="round" transform="translate(39.8269, 18.9870)"/>
</a>
<a xlink:href="textedit:///home/kalvis/workspace/ddgatve-songs/songs/lilypond/NelistLietusNelistLietus.ly:43:3:4" style="color:inherit;">
<rect fill="currentColor" ry="0.0400" height="0.1300" width="0.6600" y="-0.5500" x="0.0000" transform="translate(34.6378, 26.7933)"/>
</a>
<a xlink:href="textedit:///home/kalvis/workspace/ddgatve-songs/songs/lilypond/NelistLietusNelistLietus.ly:42:13:14" style="color:inherit;">
<rect fill="currentColor" ry="0.0400" height="0.1300" width="0.6600" y="-0.5500" x="0.0000" transform="translate(12.4341, 26.7933)"/>
</a>
<a xlink:href="textedit:///home/kalvis/workspace/ddgatve-songs/songs/lilypond/NelistLietusNelistLietus.ly:26:4:5" style="color:inherit;">
<polygon points="4.4559 -0.0100 4.4559 0.3900 0.0400 0.2000 0.0400 -0.2000" stroke="currentColor" fill="currentColor" stroke-width="0.0800" stroke-linecap="round" stroke-linejoin="round" transform="translate(9.2624, 18.1770)"/>
</a>
<path fill="currentColor" d="M0 0h-16v250h16c98 58 227 148 227 259c0 57 -16 112 -41 163c-3 16 10 27 23 27c7 0 15 -3 20 -11c25 -56 40 -117 40 -179c0 -204 -269 -305 -269 -509z" transform="translate(65.4801, 24.5120) scale(0.0040, -0.0040)"/>
<a xlink:href="textedit:///home/kalvis/workspace/ddgatve-songs/songs/lilypond/NelistLietusNelistLietus.ly:29:5:6" style="color:inherit;">
<path fill="currentColor" d="M220 138c56 0 109 -29 109 -91c0 -72 -56 -121 -103 -149c-36 -21 -76 -36 -117 -36c-56 0 -109 29 -109 91c0 72 56 121 103 149c36 21 76 36 117 36z" transform="translate(69.7160, 21.1770) scale(0.0040, -0.0040)"/>
</a>
<a xlink:href="textedit:///home/kalvis/workspace/ddgatve-songs/songs/lilypond/NelistLietusNelistLietus.ly:43:34:35" style="color:inherit;">
<text fill="currentColor" text-anchor="start" font-size="2.4696" font-family="Century Schoolbook L" transform="translate(69.3327, 26.7933)">
<tspan>
ja</tspan>
</text>
</a>
<rect fill="currentColor" ry="0.0400" height="3.1872" width="0.1300" y="0.1878" x="-0.0650" transform="translate(69.7810, 21.1770)"/>
<path fill="currentColor" d="M0 0h-16v250h16c98 58 227 148 227 259c0 57 -16 112 -41 163c-3 16 10 27 23 27c7 0 15 -3 20 -11c25 -56 40 -117 40 -179c0 -204 -269 -305 -269 -509z" transform="translate(69.8460, 24.5120) scale(0.0040, -0.0040)"/>
<a xlink:href="textedit:///home/kalvis/workspace/ddgatve-songs/songs/lilypond/NelistLietusNelistLietus.ly:29:7:8" style="color:inherit;">
<path fill="currentColor" d="M220 138c56 0 109 -29 109 -91c0 -72 -56 -121 -103 -149c-36 -21 -76 -36 -117 -36c-56 0 -109 29 -109 91c0 72 56 121 103 149c36 21 76 36 117 36z" transform="translate(74.3972, 21.6770) scale(0.0040, -0.0040)"/>
</a>
<a xlink:href="textedit:///home/kalvis/workspace/ddgatve-songs/songs/lilypond/NelistLietusNelistLietus.ly:43:40:41" style="color:inherit;">
<text fill="currentColor" text-anchor="start" font-size="2.4696" font-family="Century Schoolbook L" transform="translate(73.3652, 26.7933)">
<tspan>
ga,</tspan>
</text>
</a>
<rect fill="currentColor" ry="0.0400" height="3.3122" width="0.1300" y="-3.0000" x="-0.0650" transform="translate(75.6484, 21.1770)"/>
<path fill="currentColor" d="M0 0c0 -198 209 -335 209 -533c0 -71 -16 -141 -42 -207c-5 -8 -12 -12 -19 -12c-13 0 -26 11 -23 27c26 61 42 126 42 192c0 104 -95 208 -167 283h-16v250h16z" transform="translate(75.7134, 18.2170) scale(0.0040, -0.0040)"/>
<path fill="currentColor" d="M204 307c22 14 44 29 60 50c11 15 19 33 27 50c2 4 5 6 9 6c6 0 13 -5 13 -14v-245h72c10 0 15 -7 15 -14s-5 -15 -15 -15h-72v-8c0 -48 27 -94 72 -94c8 0 12 -5 12 -11s-4 -12 -12 -12c-44 0 -87 13 -131 13s-87 -13 -131 -13c-8 0 -12 6 -12 12s4 11 12 11 c45 0 73 46 73 94v8h-167c-23 0 -31 14 -31 23c0 3 1 5 2 6c80 93 138 207 138 330c0 9 6 16 13 16h3c23 -7 47 -13 71 -13s48 6 71 13c2 1 3 1 5 1c11 0 18 -10 12 -17l-284 -330h167v131c0 8 1 17 8 22z" transform="translate(79.8392, 23.1915) scale(0.0040, -0.0040)"/>
<path fill="currentColor" d="M150 477c-29 0 -59 -8 -59 -33c0 -22 36 -25 36 -47c0 -32 -26 -58 -58 -58s-57 26 -57 58c0 65 67 103 138 103c91 0 169 -33 169 -114c0 -43 -4 -82 -42 -100c-9 -4 -14 -12 -14 -21s5 -18 14 -22c41 -19 56 -57 56 -103c0 -92 -79 -140 -179 -140 c-79 0 -154 42 -154 113c0 36 30 66 66 66s65 -30 65 -66c0 -25 -40 -28 -40 -53c0 -27 32 -37 63 -37c49 0 63 61 63 117v16c0 54 -2 94 -50 94h-80c-10 0 -14 8 -14 15s4 14 14 14h80c49 0 50 43 50 99v8c0 54 -18 91 -67 91z" transform="translate(79.9758, 21.1770) scale(0.0040, -0.0040)"/>
<path fill="currentColor" d="M27 41l-1 -66v-11c0 -22 1 -44 4 -66c45 38 93 80 93 139c0 33 -14 67 -43 67c-31 0 -52 -30 -53 -63zM-15 -138l-12 595c8 5 18 8 27 8s19 -3 27 -8l-7 -345c25 21 58 34 91 34c52 0 89 -48 89 -102c0 -80 -86 -117 -147 -169c-15 -13 -24 -38 -45 -38 c-13 0 -23 11 -23 25z" transform="translate(6.9262, 21.1770) scale(0.0040, -0.0040)"/>
<a xlink:href="textedit:///home/kalvis/workspace/ddgatve-songs/songs/lilypond/NelistLietusNelistLietus.ly:26:6:7" style="color:inherit;">
<path fill="currentColor" d="M220 138c56 0 109 -29 109 -91c0 -72 -56 -121 -103 -149c-36 -21 -76 -36 -117 -36c-56 0 -109 29 -109 91c0 72 56 121 103 149c36 21 76 36 117 36z" transform="translate(12.4422, 21.6770) scale(0.0040, -0.0040)"/>
</a>
<rect fill="currentColor" ry="0.0400" height="3.1249" width="0.1300" y="-2.8127" x="-0.0650" transform="translate(13.6933, 21.1770)"/>
<a xlink:href="textedit:///home/kalvis/workspace/ddgatve-songs/songs/lilypond/NelistLietusNelistLietus.ly:26:9:10" style="color:inherit;">
<path fill="currentColor" d="M315 65c0 24 -21 41 -42 41c-4 0 -8 0 -12 -1c-31 -9 -77 -40 -114 -64s-84 -53 -104 -78c-7 -8 -11 -18 -11 -28c0 -24 21 -41 42 -41c4 0 8 0 12 1c31 9 78 40 115 64s84 53 104 78c7 8 10 18 10 28zM264 137c47 0 83 -21 83 -72c0 -19 -4 -37 -10 -56 c-12 -38 -32 -74 -65 -96c-54 -36 -113 -51 -188 -51c-47 0 -84 22 -84 73c0 19 5 37 11 56c12 38 31 74 64 96c54 36 114 50 189 50z" transform="translate(16.8081, 22.1770) scale(0.0040, -0.0040)"/>
</a>
<a xlink:href="textedit:///home/kalvis/workspace/ddgatve-songs/songs/lilypond/NelistLietusNelistLietus.ly:42:16:17" style="color:inherit;">
<text fill="currentColor" text-anchor="start" font-size="2.4696" font-family="Century Schoolbook L" transform="translate(15.8813, 26.7933)">
<tspan>
go,</tspan>
</text>
</a>
<rect fill="currentColor" ry="0.0400" height="3.2386" width="0.1300" y="-2.5000" x="-0.0650" transform="translate(18.1331, 21.1770)"/>
<text fill="currentColor" text-anchor="start" font-size="1.7461" font-family="Century Schoolbook L" transform="translate(1.3202, 18.1270)">
<tspan>
4</tspan>
</text>
<path fill="currentColor" d="M376 262c4 0 9 1 13 1c155 0 256 -128 256 -261c0 -76 -33 -154 -107 -210c-22 -17 -47 -28 -73 -36c3 -35 5 -70 5 -105c0 -19 -1 -39 -2 -58c-7 -120 -90 -228 -208 -228c-108 0 -195 88 -195 197c0 58 53 103 112 103c54 0 95 -47 95 -103c0 -52 -43 -95 -95 -95 c-11 0 -21 2 -31 6c26 -39 68 -65 117 -65c96 0 157 92 163 191c1 18 2 37 2 55c0 31 -1 61 -4 92c-29 -5 -58 -8 -89 -8c-188 0 -333 172 -333 374c0 177 131 306 248 441c-19 62 -37 125 -45 190c-6 52 -7 104 -7 156c0 115 55 224 149 292c3 2 7 3 10 3c4 0 7 0 10 -3 c71 -84 133 -245 133 -358c0 -143 -86 -255 -180 -364c21 -68 39 -138 56 -207zM461 -203c68 24 113 95 113 164c0 90 -66 179 -173 190c24 -116 46 -231 60 -354zM74 28c0 -135 129 -247 264 -247c28 0 55 2 82 6c-14 127 -37 245 -63 364c-79 -8 -124 -61 -124 -119 c0 -44 25 -91 81 -123c5 -5 7 -10 7 -15c0 -11 -10 -22 -22 -22c-3 0 -6 1 -9 2c-80 43 -117 115 -117 185c0 88 58 174 160 197c-14 58 -29 117 -46 175c-107 -121 -213 -243 -213 -403zM408 1045c-99 -48 -162 -149 -162 -259c0 -74 18 -133 36 -194 c80 97 146 198 146 324c0 55 -4 79 -20 129z" transform="translate(3.0762, 22.1770) scale(0.0040, -0.0040)"/>
<a xlink:href="textedit:///home/kalvis/workspace/ddgatve-songs/songs/lilypond/NelistLietusNelistLietus.ly:26:0:1" style="color:inherit;">
<path fill="currentColor" d="M220 138c56 0 109 -29 109 -91c0 -72 -56 -121 -103 -149c-36 -21 -76 -36 -117 -36c-56 0 -109 29 -109 91c0 72 56 121 103 149c36 21 76 36 117 36z" transform="translate(8.0762, 21.1770) scale(0.0040, -0.0040)"/>
</a>
<a xlink:href="textedit:///home/kalvis/workspace/ddgatve-songs/songs/lilypond/NelistLietusNelistLietus.ly:42:10:11" style="color:inherit;">
<text fill="currentColor" text-anchor="start" font-size="2.4696" font-family="Century Schoolbook L" transform="translate(8.0762, 26.7933)">
<tspan>
lī</tspan>
</text>
</a>
<rect fill="currentColor" ry="0.0400" height="2.8094" width="0.1300" y="-2.9973" x="-0.0650" transform="translate(9.3274, 21.1770)"/>
<rect fill="currentColor" ry="0.0400" height="2.8092" width="0.1300" y="-2.9970" x="-0.0650" transform="translate(39.8919, 21.1770)"/>
<a xlink:href="textedit:///home/kalvis/workspace/ddgatve-songs/songs/lilypond/NelistLietusNelistLietus.ly:43:6:7" style="color:inherit;">
<text fill="currentColor" text-anchor="start" font-size="2.4696" font-family="Century Schoolbook L" transform="translate(38.6407, 26.7933)">
<tspan>
dien</tspan>
</text>
</a>
<a xlink:href="textedit:///home/kalvis/workspace/ddgatve-songs/songs/lilypond/NelistLietusNelistLietus.ly:27:4:5" style="color:inherit;">
<path fill="currentColor" d="M220 138c56 0 109 -29 109 -91c0 -72 -56 -121 -103 -149c-36 -21 -76 -36 -117 -36c-56 0 -109 29 -109 91c0 72 56 121 103 149c36 21 76 36 117 36z" transform="translate(38.6407, 21.1770) scale(0.0040, -0.0040)"/>
</a>
<a xlink:href="textedit:///home/kalvis/workspace/ddgatve-songs/songs/lilypond/NelistLietusNelistLietus.ly:27:9:10" style="color:inherit;">
<path fill="currentColor" d="M220 138c56 0 109 -29 109 -91c0 -72 -56 -121 -103 -149c-36 -21 -76 -36 -117 -36c-56 0 -109 29 -109 91c0 72 56 121 103 149c36 21 76 36 117 36z" transform="translate(42.5923, 21.6770) scale(0.0040, -0.0040)"/>
</a>
<rect fill="currentColor" ry="0.0400" height="3.1252" width="0.1300" y="-2.8130" x="-0.0650" transform="translate(43.8435, 21.1770)"/>
<rect fill="currentColor" ry="0.0400" height="3.3122" width="0.1300" y="-0.3122" x="-0.0650" transform="translate(29.5238, 21.1770)"/>
<path fill="currentColor" d="M0 0c0 31 25 56 56 56s56 -25 56 -56s-25 -56 -56 -56s-56 25 -56 56z" transform="translate(31.2250, 20.6770) scale(0.0040, -0.0040)"/>
<a xlink:href="textedit:///home/kalvis/workspace/ddgatve-songs/songs/lilypond/NelistLietusNelistLietus.ly:43:0:1" style="color:inherit;">
<text fill="currentColor" text-anchor="start" font-size="2.4696" font-family="Century Schoolbook L" transform="translate(28.9389, 26.7933)">
<tspan>
šo</tspan>
</text>
</a>
<a xlink:href="textedit:///home/kalvis/workspace/ddgatve-songs/songs/lilypond/NelistLietusNelistLietus.ly:27:0:1" style="color:inherit;">
<path fill="currentColor" d="M220 138c56 0 109 -29 109 -91c0 -72 -56 -121 -103 -149c-36 -21 -76 -36 -117 -36c-56 0 -109 29 -109 91c0 72 56 121 103 149c36 21 76 36 117 36z" transform="translate(29.4588, 20.6770) scale(0.0040, -0.0040)"/>
</a>
<line y2="-0.0000" x2="79.6177" y1="-0.0000" x1="0.0500" stroke="currentColor" stroke-width="0.1000" stroke-linecap="round" stroke-linejoin="round" transform="translate(2.2762, 35.1770)"/>
<line y2="-0.0000" x2="79.6177" y1="-0.0000" x1="0.0500" stroke="currentColor" stroke-width="0.1000" stroke-linecap="round" stroke-linejoin="round" transform="translate(2.2762, 34.1770)"/>
<line y2="-0.0000" x2="79.6177" y1="-0.0000" x1="0.0500" stroke="currentColor" stroke-width="0.1000" stroke-linecap="round" stroke-linejoin="round" transform="translate(2.2762, 33.1770)"/>
<line y2="-0.0000" x2="79.6177" y1="-0.0000" x1="0.0500" stroke="currentColor" stroke-width="0.1000" stroke-linecap="round" stroke-linejoin="round" transform="translate(2.2762, 32.1770)"/>
<line y2="-0.0000" x2="79.6177" y1="-0.0000" x1="0.0500" stroke="currentColor" stroke-width="0.1000" stroke-linecap="round" stroke-linejoin="round" transform="translate(2.2762, 31.1770)"/>
<rect fill="currentColor" ry="0.0000" height="4.0000" width="0.1900" y="-2.0000" x="0.0000" transform="translate(23.9256, 33.1770)"/>
<rect fill="currentColor" ry="0.0000" height="4.0000" width="0.6000" y="-2.0000" x="0.0000" transform="translate(81.3439, 33.1770)"/>
<rect fill="currentColor" ry="0.0000" height="4.0000" width="0.1900" y="-2.0000" x="0.0000" transform="translate(80.8539, 33.1770)"/>
<rect fill="currentColor" ry="0.0000" height="4.0000" width="0.1900" y="-2.0000" x="0.0000" transform="translate(44.5570, 33.1770)"/>
<rect fill="currentColor" ry="0.0000" height="4.0000" width="0.1900" y="-2.0000" x="0.0000" transform="translate(63.2646, 33.1770)"/>
<a xlink:href="textedit:///home/kalvis/workspace/ddgatve-songs/songs/lilypond/NelistLietusNelistLietus.ly:33:5:6" style="color:inherit;">
<path fill="currentColor" d="M220 138c56 0 109 -29 109 -91c0 -72 -56 -121 -103 -149c-36 -21 -76 -36 -117 -36c-56 0 -109 29 -109 91c0 72 56 121 103 149c36 21 76 36 117 36z" transform="translate(56.1066, 33.1770) scale(0.0040, -0.0040)"/>
</a>
<a xlink:href="textedit:///home/kalvis/workspace/ddgatve-songs/songs/lilypond/NelistLietusNelistLietus.ly:45:34:35" style="color:inherit;">
<text fill="currentColor" text-anchor="start" font-size="2.4696" font-family="Century Schoolbook L" transform="translate(55.7233, 38.8199)">
<tspan>
ja</tspan>
</text>
</a>
<rect fill="currentColor" ry="0.0400" height="3.1872" width="0.1300" y="0.1878" x="-0.0650" transform="translate(56.1716, 33.1770)"/>
<path fill="currentColor" d="M0 0h-16v250h16c98 58 227 148 227 259c0 57 -16 112 -41 163c-3 16 10 27 23 27c7 0 15 -3 20 -11c25 -56 40 -117 40 -179c0 -204 -269 -305 -269 -509z" transform="translate(56.2366, 36.5120) scale(0.0040, -0.0040)"/>
<a xlink:href="textedit:///home/kalvis/workspace/ddgatve-songs/songs/lilypond/NelistLietusNelistLietus.ly:33:7:8" style="color:inherit;">
<path fill="currentColor" d="M220 138c56 0 109 -29 109 -91c0 -72 -56 -121 -103 -149c-36 -21 -76 -36 -117 -36c-56 0 -109 29 -109 91c0 72 56 121 103 149c36 21 76 36 117 36z" transform="translate(59.7752, 33.6770) scale(0.0040, -0.0040)"/>
</a>
<a xlink:href="textedit:///home/kalvis/workspace/ddgatve-songs/songs/lilypond/NelistLietusNelistLietus.ly:45:40:41" style="color:inherit;">
<text fill="currentColor" text-anchor="start" font-size="2.4696" font-family="Century Schoolbook L" transform="translate(58.7432, 38.8199)">
<tspan>
ga,</tspan>
</text>
</a>
<rect fill="currentColor" ry="0.0400" height="3.3122" width="0.1300" y="-3.0000" x="-0.0650" transform="translate(61.0264, 33.1770)"/>
<path fill="currentColor" d="M0 0c0 -198 209 -335 209 -533c0 -71 -16 -141 -42 -207c-5 -8 -12 -12 -19 -12c-13 0 -26 11 -23 27c26 61 42 126 42 192c0 104 -95 208 -167 283h-16v250h16z" transform="translate(61.0914, 30.2170) scale(0.0040, -0.0040)"/>
<a xlink:href="textedit:///home/kalvis/workspace/ddgatve-songs/songs/lilypond/NelistLietusNelistLietus.ly:35:0:1" style="color:inherit;">
<path fill="currentColor" d="M220 138c56 0 109 -29 109 -91c0 -72 -56 -121 -103 -149c-36 -21 -76 -36 -117 -36c-56 0 -109 29 -109 91c0 72 56 121 103 149c36 21 76 36 117 36z" transform="translate(67.8093, 33.1770) scale(0.0040, -0.0040)"/>
</a>
<path fill="currentColor" d="M204 307c22 14 44 29 60 50c11 15 19 33 27 50c2 4 5 6 9 6c6 0 13 -5 13 -14v-245h72c10 0 15 -7 15 -14s-5 -15 -15 -15h-72v-8c0 -48 27 -94 72 -94c8 0 12 -5 12 -11s-4 -12 -12 -12c-44 0 -87 13 -131 13s-87 -13 -131 -13c-8 0 -12 6 -12 12s4 11 12 11 c45 0 73 46 73 94v8h-167c-23 0 -31 14 -31 23c0 3 1 5 2 6c80 93 138 207 138 330c0 9 6 16 13 16h3c23 -7 47 -13 71 -13s48 6 71 13c2 1 3 1 5 1c11 0 18 -10 12 -17l-284 -330h167v131c0 8 1 17 8 22z" transform="translate(64.2046, 35.1915) scale(0.0040, -0.0040)"/>
<path fill="currentColor" d="M150 477c-29 0 -59 -8 -59 -33c0 -22 36 -25 36 -47c0 -32 -26 -58 -58 -58s-57 26 -57 58c0 65 67 103 138 103c91 0 169 -33 169 -114c0 -43 -4 -82 -42 -100c-9 -4 -14 -12 -14 -21s5 -18 14 -22c41 -19 56 -57 56 -103c0 -92 -79 -140 -179 -140 c-79 0 -154 42 -154 113c0 36 30 66 66 66s65 -30 65 -66c0 -25 -40 -28 -40 -53c0 -27 32 -37 63 -37c49 0 63 61 63 117v16c0 54 -2 94 -50 94h-80c-10 0 -14 8 -14 15s4 14 14 14h80c49 0 50 43 50 99v8c0 54 -18 91 -67 91z" transform="translate(64.3412, 33.1770) scale(0.0040, -0.0040)"/>
<rect fill="currentColor" ry="0.0400" height="3.3122" width="0.1300" y="-0.3122" x="-0.0650" transform="translate(49.1667, 33.1770)"/>
<path fill="currentColor" d="M0 0h-16v250h16c98 58 227 148 227 259c0 57 -16 112 -41 163c-3 16 10 27 23 27c7 0 15 -3 20 -11c25 -56 40 -117 40 -179c0 -204 -269 -305 -269 -509z" transform="translate(49.2317, 36.1370) scale(0.0040, -0.0040)"/>
<a xlink:href="textedit:///home/kalvis/workspace/ddgatve-songs/songs/lilypond/NelistLietusNelistLietus.ly:33:3:4" style="color:inherit;">
<path fill="currentColor" d="M220 138c56 0 109 -29 109 -91c0 -72 -56 -121 -103 -149c-36 -21 -76 -36 -117 -36c-56 0 -109 29 -109 91c0 72 56 121 103 149c36 21 76 36 117 36z" transform="translate(52.7533, 33.1770) scale(0.0040, -0.0040)"/>
</a>
<a xlink:href="textedit:///home/kalvis/workspace/ddgatve-songs/songs/lilypond/NelistLietusNelistLietus.ly:45:28:29" style="color:inherit;">
<text fill="currentColor" text-anchor="start" font-size="2.4696" font-family="Century Schoolbook L" transform="translate(52.0627, 38.8199)">
<tspan>
va</tspan>
</text>
</a>
<rect fill="currentColor" ry="0.0400" height="3.1872" width="0.1300" y="0.1878" x="-0.0650" transform="translate(52.8183, 33.1770)"/>
<path fill="currentColor" d="M0 0h-16v250h16c98 58 227 148 227 259c0 57 -16 112 -41 163c-3 16 10 27 23 27c7 0 15 -3 20 -11c25 -56 40 -117 40 -179c0 -204 -269 -305 -269 -509z" transform="translate(52.8833, 36.5120) scale(0.0040, -0.0040)"/>
<a xlink:href="textedit:///home/kalvis/workspace/ddgatve-songs/songs/lilypond/NelistLietusNelistLietus.ly:46:3:4" style="color:inherit;">
<rect fill="currentColor" ry="0.0400" height="0.1300" width="0.6600" y="-0.5500" x="0.0000" transform="translate(70.4207, 38.8199)"/>
</a>
<a xlink:href="textedit:///home/kalvis/workspace/ddgatve-songs/songs/lilypond/NelistLietusNelistLietus.ly:45:37:38" style="color:inherit;">
<rect fill="currentColor" ry="0.0400" height="0.1300" width="0.6600" y="-0.5500" x="0.0000" transform="translate(57.9447, 38.8199)"/>
</a>
<a xlink:href="textedit:///home/kalvis/workspace/ddgatve-songs/songs/lilypond/NelistLietusNelistLietus.ly:45:31:32" style="color:inherit;">
<rect fill="currentColor" ry="0.0400" height="0.1300" width="0.6600" y="-0.5500" x="0.0000" transform="translate(54.9117, 38.8199)"/>
</a>
<a xlink:href="textedit:///home/kalvis/workspace/ddgatve-songs/songs/lilypond/NelistLietusNelistLietus.ly:45:25:26" style="color:inherit;">
<rect fill="currentColor" ry="0.0400" height="0.1300" width="0.6600" y="-0.5500" x="0.0000" transform="translate(51.2641, 38.8199)"/>
</a>
<a xlink:href="textedit:///home/kalvis/workspace/ddgatve-songs/songs/lilypond/NelistLietusNelistLietus.ly:45:15:16" style="color:inherit;">
<rect fill="currentColor" ry="0.0400" height="0.1300" width="0.6600" y="-0.5500" x="0.0000" transform="translate(39.2706, 38.8199)"/>
</a>
<a xlink:href="textedit:///home/kalvis/workspace/ddgatve-songs/songs/lilypond/NelistLietusNelistLietus.ly:45:3:4" style="color:inherit;">
<rect fill="currentColor" ry="0.0400" height="0.1300" width="0.6600" y="-0.5500" x="0.0000" transform="translate(28.2999, 38.8199)"/>
</a>
<a xlink:href="textedit:///home/kalvis/workspace/ddgatve-songs/songs/lilypond/NelistLietusNelistLietus.ly:44:3:4" style="color:inherit;">
<rect fill="currentColor" ry="0.0400" height="0.1300" width="0.6600" y="-0.5500" x="0.0000" transform="translate(13.5009, 38.8199)"/>
</a>
<a xlink:href="textedit:///home/kalvis/workspace/ddgatve-songs/songs/lilypond/NelistLietusNelistLietus.ly:46:0:1" style="color:inherit;">
<text fill="currentColor" text-anchor="start" font-size="2.4696" font-family="Century Schoolbook L" transform="translate(67.6821, 38.8199)">
<tspan>
lī</tspan>
</text>
</a>
<rect fill="currentColor" ry="0.0400" height="3.1455" width="0.1300" y="0.1878" x="-0.0650" transform="translate(67.8743, 33.1770)"/>
<a xlink:href="textedit:///home/kalvis/workspace/ddgatve-songs/songs/lilypond/NelistLietusNelistLietus.ly:35:3:4" style="color:inherit;">
<path fill="currentColor" d="M315 65c0 24 -21 41 -42 41c-4 0 -8 0 -12 -1c-31 -9 -77 -40 -114 -64s-84 -53 -104 -78c-7 -8 -11 -18 -11 -28c0 -24 21 -41 42 -41c4 0 8 0 12 1c31 9 78 40 115 64s84 53 104 78c7 8 10 18 10 28zM264 137c47 0 83 -21 83 -72c0 -19 -4 -37 -10 -56 c-12 -38 -32 -74 -65 -96c-54 -36 -113 -51 -188 -51c-47 0 -84 22 -84 73c0 19 5 37 11 56c12 38 31 74 64 96c54 36 114 50 189 50z" transform="translate(73.1926, 33.6770) scale(0.0040, -0.0040)"/>
</a>
<a xlink:href="textedit:///home/kalvis/workspace/ddgatve-songs/songs/lilypond/NelistLietusNelistLietus.ly:46:6:7" style="color:inherit;">
<text fill="currentColor" text-anchor="start" font-size="2.4696" font-family="Century Schoolbook L" transform="translate(72.2487, 38.8199)">
<tspan>
go!</tspan>
</text>
</a>
<rect fill="currentColor" ry="0.0400" height="3.2386" width="0.1300" y="-3.0000" x="-0.0650" transform="translate(74.5176, 33.1770)"/>
<rect fill="currentColor" ry="0.0400" height="3.1455" width="0.1300" y="0.1878" x="-0.0650" transform="translate(10.9460, 33.1770)"/>
<a xlink:href="textedit:///home/kalvis/workspace/ddgatve-songs/songs/lilypond/NelistLietusNelistLietus.ly:31:3:4" style="color:inherit;">
<path fill="currentColor" d="M315 65c0 24 -21 41 -42 41c-4 0 -8 0 -12 -1c-31 -9 -77 -40 -114 -64s-84 -53 -104 -78c-7 -8 -11 -18 -11 -28c0 -24 21 -41 42 -41c4 0 8 0 12 1c31 9 78 40 115 64s84 53 104 78c7 8 10 18 10 28zM264 137c47 0 83 -21 83 -72c0 -19 -4 -37 -10 -56 c-12 -38 -32 -74 -65 -96c-54 -36 -113 -51 -188 -51c-47 0 -84 22 -84 73c0 19 5 37 11 56c12 38 31 74 64 96c54 36 114 50 189 50z" transform="translate(16.2642, 33.6770) scale(0.0040, -0.0040)"/>
</a>
<a xlink:href="textedit:///home/kalvis/workspace/ddgatve-songs/songs/lilypond/NelistLietusNelistLietus.ly:44:6:7" style="color:inherit;">
<text fill="currentColor" text-anchor="start" font-size="2.4696" font-family="Century Schoolbook L" transform="translate(15.3374, 38.8199)">
<tspan>
go,</tspan>
</text>
</a>
<rect fill="currentColor" ry="0.0400" height="3.2386" width="0.1300" y="-3.0000" x="-0.0650" transform="translate(17.5892, 33.1770)"/>
<a xlink:href="textedit:///home/kalvis/workspace/ddgatve-songs/songs/lilypond/NelistLietusNelistLietus.ly:31:8:9" style="color:inherit;">
<path fill="currentColor" d="M220 138c56 0 109 -29 109 -91c0 -72 -56 -121 -103 -149c-36 -21 -76 -36 -117 -36c-56 0 -109 29 -109 91c0 72 56 121 103 149c36 21 76 36 117 36z" transform="translate(25.3295, 33.6770) scale(0.0040, -0.0040)"/>
</a>
<a xlink:href="textedit:///home/kalvis/workspace/ddgatve-songs/songs/lilypond/NelistLietusNelistLietus.ly:45:0:1" style="color:inherit;">
<text fill="currentColor" text-anchor="start" font-size="2.4696" font-family="Century Schoolbook L" transform="translate(24.8096, 38.8199)">
<tspan>
šo</tspan>
</text>
</a>
<path fill="currentColor" d="M0 0c0 31 25 56 56 56s56 -25 56 -56s-25 -56 -56 -56s-56 25 -56 56z" transform="translate(27.0957, 33.6770) scale(0.0040, -0.0040)"/>
<rect fill="currentColor" ry="0.0400" height="3.3122" width="0.1300" y="-3.0000" x="-0.0650" transform="translate(26.5807, 33.1770)"/>
<path fill="currentColor" d="M204 307c22 14 44 29 60 50c11 15 19 33 27 50c2 4 5 6 9 6c6 0 13 -5 13 -14v-245h72c10 0 15 -7 15 -14s-5 -15 -15 -15h-72v-8c0 -48 27 -94 72 -94c8 0 12 -5 12 -11s-4 -12 -12 -12c-44 0 -87 13 -131 13s-87 -13 -131 -13c-8 0 -12 6 -12 12s4 11 12 11 c45 0 73 46 73 94v8h-167c-23 0 -31 14 -31 23c0 3 1 5 2 6c80 93 138 207 138 330c0 9 6 16 13 16h3c23 -7 47 -13 71 -13s48 6 71 13c2 1 3 1 5 1c11 0 18 -10 12 -17l-284 -330h167v131c0 8 1 17 8 22z" transform="translate(7.2762, 35.1915) scale(0.0040, -0.0040)"/>
<path fill="currentColor" d="M150 477c-29 0 -59 -8 -59 -33c0 -22 36 -25 36 -47c0 -32 -26 -58 -58 -58s-57 26 -57 58c0 65 67 103 138 103c91 0 169 -33 169 -114c0 -43 -4 -82 -42 -100c-9 -4 -14 -12 -14 -21s5 -18 14 -22c41 -19 56 -57 56 -103c0 -92 -79 -140 -179 -140 c-79 0 -154 42 -154 113c0 36 30 66 66 66s65 -30 65 -66c0 -25 -40 -28 -40 -53c0 -27 32 -37 63 -37c49 0 63 61 63 117v16c0 54 -2 94 -50 94h-80c-10 0 -14 8 -14 15s4 14 14 14h80c49 0 50 43 50 99v8c0 54 -18 91 -67 91z" transform="translate(7.4128, 33.1770) scale(0.0040, -0.0040)"/>
<text fill="currentColor" text-anchor="start" font-size="1.7461" font-family="Century Schoolbook L" transform="translate(1.3202, 30.0929)">
<tspan>
7</tspan>
</text>
<path fill="currentColor" d="M376 262c4 0 9 1 13 1c155 0 256 -128 256 -261c0 -76 -33 -154 -107 -210c-22 -17 -47 -28 -73 -36c3 -35 5 -70 5 -105c0 -19 -1 -39 -2 -58c-7 -120 -90 -228 -208 -228c-108 0 -195 88 -195 197c0 58 53 103 112 103c54 0 95 -47 95 -103c0 -52 -43 -95 -95 -95 c-11 0 -21 2 -31 6c26 -39 68 -65 117 -65c96 0 157 92 163 191c1 18 2 37 2 55c0 31 -1 61 -4 92c-29 -5 -58 -8 -89 -8c-188 0 -333 172 -333 374c0 177 131 306 248 441c-19 62 -37 125 -45 190c-6 52 -7 104 -7 156c0 115 55 224 149 292c3 2 7 3 10 3c4 0 7 0 10 -3 c71 -84 133 -245 133 -358c0 -143 -86 -255 -180 -364c21 -68 39 -138 56 -207zM461 -203c68 24 113 95 113 164c0 90 -66 179 -173 190c24 -116 46 -231 60 -354zM74 28c0 -135 129 -247 264 -247c28 0 55 2 82 6c-14 127 -37 245 -63 364c-79 -8 -124 -61 -124 -119 c0 -44 25 -91 81 -123c5 -5 7 -10 7 -15c0 -11 -10 -22 -22 -22c-3 0 -6 1 -9 2c-80 43 -117 115 -117 185c0 88 58 174 160 197c-14 58 -29 117 -46 175c-107 -121 -213 -243 -213 -403zM408 1045c-99 -48 -162 -149 -162 -259c0 -74 18 -133 36 -194 c80 97 146 198 146 324c0 55 -4 79 -20 129z" transform="translate(3.0762, 34.1770) scale(0.0040, -0.0040)"/>
<a xlink:href="textedit:///home/kalvis/workspace/ddgatve-songs/songs/lilypond/NelistLietusNelistLietus.ly:31:0:1" style="color:inherit;">
<path fill="currentColor" d="M220 138c56 0 109 -29 109 -91c0 -72 -56 -121 -103 -149c-36 -21 -76 -36 -117 -36c-56 0 -109 29 -109 91c0 72 56 121 103 149c36 21 76 36 117 36z" transform="translate(10.8810, 33.1770) scale(0.0040, -0.0040)"/>
</a>
<a xlink:href="textedit:///home/kalvis/workspace/ddgatve-songs/songs/lilypond/NelistLietusNelistLietus.ly:44:0:1" style="color:inherit;">
<text fill="currentColor" text-anchor="start" font-size="2.4696" font-family="Century Schoolbook L" transform="translate(10.7537, 38.8199)">
<tspan>
lī</tspan>
</text>
</a>
<a xlink:href="textedit:///home/kalvis/workspace/ddgatve-songs/songs/lilypond/NelistLietusNelistLietus.ly:31:15:16" style="color:inherit;">
<path fill="currentColor" d="M220 138c56 0 109 -29 109 -91c0 -72 -56 -121 -103 -149c-36 -21 -76 -36 -117 -36c-56 0 -109 29 -109 91c0 72 56 121 103 149c36 21 76 36 117 36z" transform="translate(37.0741, 32.6770) scale(0.0040, -0.0040)"/>
</a>
<a xlink:href="textedit:///home/kalvis/workspace/ddgatve-songs/songs/lilypond/NelistLietusNelistLietus.ly:45:11:12" style="color:inherit;">
<text fill="currentColor" text-anchor="start" font-size="2.4696" font-family="Century Schoolbook L" transform="translate(36.3323, 38.8199)">
<tspan>
lie</tspan>
</text>
</a>
<rect fill="currentColor" ry="0.0400" height="3.3122" width="0.1300" y="-0.3122" x="-0.0650" transform="translate(37.1391, 33.1770)"/>
<path fill="currentColor" d="M0 0h-16v250h16c98 58 227 148 227 259c0 57 -16 112 -41 163c-3 16 10 27 23 27c7 0 15 -3 20 -11c25 -56 40 -117 40 -179c0 -204 -269 -305 -269 -509z" transform="translate(37.2041, 36.1370) scale(0.0040, -0.0040)"/>
<a xlink:href="textedit:///home/kalvis/workspace/ddgatve-songs/songs/lilypond/NelistLietusNelistLietus.ly:31:17:18" style="color:inherit;">
<path fill="currentColor" d="M220 138c56 0 109 -29 109 -91c0 -72 -56 -121 -103 -149c-36 -21 -76 -36 -117 -36c-56 0 -109 29 -109 91c0 72 56 121 103 149c36 21 76 36 117 36z" transform="translate(41.2036, 32.6770) scale(0.0040, -0.0040)"/>
</a>
<a xlink:href="textedit:///home/kalvis/workspace/ddgatve-songs/songs/lilypond/NelistLietusNelistLietus.ly:45:18:19" style="color:inherit;">
<text fill="currentColor" text-anchor="start" font-size="2.4696" font-family="Century Schoolbook L" transform="translate(40.0692, 38.8199)">
<tspan>
tus</tspan>
</text>
</a>
<rect fill="currentColor" ry="0.0400" height="3.3122" width="0.1300" y="-0.3122" x="-0.0650" transform="translate(41.2686, 33.1770)"/>
<path fill="currentColor" d="M0 0h-16v250h16c98 58 227 148 227 259c0 57 -16 112 -41 163c-3 16 10 27 23 27c7 0 15 -3 20 -11c25 -56 40 -117 40 -179c0 -204 -269 -305 -269 -509z" transform="translate(41.3336, 36.1370) scale(0.0040, -0.0040)"/>
<a xlink:href="textedit:///home/kalvis/workspace/ddgatve-songs/songs/lilypond/NelistLietusNelistLietus.ly:33:0:1" style="color:inherit;">
<path fill="currentColor" d="M220 138c56 0 109 -29 109 -91c0 -72 -56 -121 -103 -149c-36 -21 -76 -36 -117 -36c-56 0 -109 29 -109 91c0 72 56 121 103 149c36 21 76 36 117 36z" transform="translate(49.1017, 32.6770) scale(0.0040, -0.0040)"/>
</a>
<path fill="currentColor" d="M204 307c22 14 44 29 60 50c11 15 19 33 27 50c2 4 5 6 9 6c6 0 13 -5 13 -14v-245h72c10 0 15 -7 15 -14s-5 -15 -15 -15h-72v-8c0 -48 27 -94 72 -94c8 0 12 -5 12 -11s-4 -12 -12 -12c-44 0 -87 13 -131 13s-87 -13 -131 -13c-8 0 -12 6 -12 12s4 11 12 11 c45 0 73 46 73 94v8h-167c-23 0 -31 14 -31 23c0 3 1 5 2 6c80 93 138 207 138 330c0 9 6 16 13 16h3c23 -7 47 -13 71 -13s48 6 71 13c2 1 3 1 5 1c11 0 18 -10 12 -17l-284 -330h167v131c0 8 1 17 8 22z" transform="translate(45.4970, 35.1915) scale(0.0040, -0.0040)"/>
<path fill="currentColor" d="M23 11c-1 -7 -6 -11 -11 -11c-6 0 -12 4 -12 11c0 175 235 165 235 344c0 60 -18 122 -70 122c-26 0 -51 -14 -51 -37c0 -27 35 -41 35 -68c0 -38 -30 -69 -68 -69s-69 31 -69 69c0 76 72 128 153 128c96 0 187 -56 187 -145c0 -153 -151 -159 -249 -220c9 2 17 3 26 3 c33 0 70 -11 105 -36c21 -15 46 -23 66 -23c21 0 39 9 44 29c2 6 6 9 11 9c6 0 12 -5 12 -12c0 -67 -90 -105 -138 -105c-36 0 -71 14 -96 44c-13 16 -31 22 -48 22c-30 0 -59 -20 -62 -55z" transform="translate(45.5653, 33.1770) scale(0.0040, -0.0040)"/>
<a xlink:href="textedit:///home/kalvis/workspace/ddgatve-songs/songs/lilypond/NelistLietusNelistLietus.ly:45:22:23" style="color:inherit;">
<text fill="currentColor" text-anchor="start" font-size="2.4696" font-family="Century Schoolbook L" transform="translate(48.3941, 38.8199)">
<tspan>
ne</tspan>
</text>
</a>
<a xlink:href="textedit:///home/kalvis/workspace/ddgatve-songs/songs/lilypond/NelistLietusNelistLietus.ly:31:12:13" style="color:inherit;">
<path fill="currentColor" d="M220 138c56 0 109 -29 109 -91c0 -72 -56 -121 -103 -149c-36 -21 -76 -36 -117 -36c-56 0 -109 29 -109 91c0 72 56 121 103 149c36 21 76 36 117 36z" transform="translate(31.9117, 34.1770) scale(0.0040, -0.0040)"/>
</a>
<path fill="currentColor" d="M0 0c0 -198 209 -335 209 -533c0 -71 -16 -141 -42 -207c-5 -8 -12 -12 -19 -12c-13 0 -26 11 -23 27c26 61 42 126 42 192c0 104 -95 208 -167 283h-16v250h16z" transform="translate(33.2278, 30.7170) scale(0.0040, -0.0040)"/>
<rect fill="currentColor" ry="0.0400" height="3.3122" width="0.1300" y="-2.5000" x="-0.0650" transform="translate(33.1628, 33.1770)"/>
<a xlink:href="textedit:///home/kalvis/workspace/ddgatve-songs/songs/lilypond/NelistLietusNelistLietus.ly:45:6:7" style="color:inherit;">
<text fill="currentColor" text-anchor="start" font-size="2.4696" font-family="Century Schoolbook L" transform="translate(30.0944, 38.8199)">
<tspan>
dien</tspan>
</text>
</a>
<g color="rgb(100%, 100%, 100%)">
<text fill="currentColor" text-anchor="start" font-size="1.9600" font-family="sans-serif" transform="translate(2.2762, 45.1770)">
<tspan>
 </tspan>
</text>
</g>
<a xlink:href="http://lilypond.org/" transform="translate(13.8223, 165.1512)">
<rect stroke-width="0.0" stroke="none" fill="none" height="2.0827" width="56.5755" y="-0.4439" x="0.0000"/>
</a>
<text fill="currentColor" text-anchor="start" font-size="2.2001" font-family="Century Schoolbook L" transform="translate(13.8223, 165.1512)">
<tspan>
Music engraving by LilyPond 2.18.2—www.lilypond.org</tspan>
</text>
</svg>