<svg xmlns="http://www.w3.org/2000/svg" xmlns:xlink="http://www.w3.org/1999/xlink" version="1.2" width="143.9999mm" height="60.98476mm" viewBox="0.05 3.8453 81.94389800950884 34.7037">

<text fill="currentColor" text-anchor="start" font-size="2.2001" font-family="Century Schoolbook L" transform="translate(2.2762, 2.8453)">
<tspan>
 </tspan>
</text>
<text fill="currentColor" text-anchor="start" font-size="2.2001" font-family="Century Schoolbook L" transform="translate(2.2762, 3.8453)">
<tspan>
 </tspan>
</text>
<text fill="currentColor" text-anchor="start" font-size="2.2001" font-family="Century Schoolbook L" transform="translate(79.7588, 3.8453)">
<tspan>
 </tspan>
</text>
<rect fill="currentColor" ry="0.1000" height="0.2000" width="1.9743" y="-0.1000" x="13.4922" transform="translate(2.2762, 13.9109)"/>
<rect fill="currentColor" ry="0.1000" height="0.2000" width="1.9743" y="-0.1000" x="42.6568" transform="translate(2.2762, 13.9109)"/>
<rect fill="currentColor" ry="0.1000" height="0.2000" width="1.9743" y="-0.1000" x="49.9534" transform="translate(2.2762, 13.9109)"/>
<rect fill="currentColor" ry="0.1000" height="0.2000" width="1.9743" y="-0.1000" x="68.6430" transform="translate(2.2762, 13.9109)"/>
<rect fill="currentColor" ry="0.1000" height="0.2000" width="1.9743" y="-0.1000" x="72.5442" transform="translate(2.2762, 13.9109)"/>
<line y2="-0.0000" x2="79.6177" y1="-0.0000" x1="0.0500" stroke="currentColor" stroke-width="0.1000" stroke-linecap="round" stroke-linejoin="round" transform="translate(2.2762, 12.9109)"/>
<line y2="-0.0000" x2="79.6177" y1="-0.0000" x1="0.0500" stroke="currentColor" stroke-width="0.1000" stroke-linecap="round" stroke-linejoin="round" transform="translate(2.2762, 11.9109)"/>
<line y2="-0.0000" x2="79.6177" y1="-0.0000" x1="0.0500" stroke="currentColor" stroke-width="0.1000" stroke-linecap="round" stroke-linejoin="round" transform="translate(2.2762, 10.9109)"/>
<line y2="-0.0000" x2="79.6177" y1="-0.0000" x1="0.0500" stroke="currentColor" stroke-width="0.1000" stroke-linecap="round" stroke-linejoin="round" transform="translate(2.2762, 9.9109)"/>
<line y2="-0.0000" x2="79.6177" y1="-0.0000" x1="0.0500" stroke="currentColor" stroke-width="0.1000" stroke-linecap="round" stroke-linejoin="round" transform="translate(2.2762, 8.9109)"/>
<rect fill="currentColor" ry="0.0000" height="4.0000" width="0.1900" y="-2.0000" x="0.0000" transform="translate(81.7539, 10.9109)"/>
<path fill="currentColor" d="M0 0c0 31 25 56 56 56s56 -25 56 -56s-25 -56 -56 -56s-56 25 -56 56z" transform="translate(50.6893, 10.4109) scale(0.0040, -0.0040)"/>
<path fill="currentColor" d="M0 0c0 31 25 56 56 56s56 -25 56 -56s-25 -56 -56 -56s-56 25 -56 56z" transform="translate(50.6893, 11.4109) scale(0.0040, -0.0040)"/>
<rect fill="currentColor" ry="0.0000" height="4.0000" width="0.1900" y="-2.0000" x="0.0000" transform="translate(50.1993, 10.9109)"/>
<rect fill="currentColor" ry="0.0000" height="4.0000" width="0.6000" y="-2.0000" x="0.0000" transform="translate(49.2993, 10.9109)"/>
<rect fill="currentColor" ry="0.0400" height="3.3122" width="0.1300" y="-2.5000" x="-0.0650" transform="translate(62.1122, 10.9109)"/>
<a xlink:href="textedit:///home/kalvis/workspace/ddgatve-songs/songs/lilypond/Samaisi-juIemauktin-us.ly:55:12:13" style="color:inherit;">
<text fill="currentColor" text-anchor="start" font-size="2.6163" font-family="sans-serif" transform="translate(67.3471, 6.5987)">
<tspan>
F</tspan>
</text>
<text fill="currentColor" text-anchor="start" font-size="2.6163" font-family="sans-serif" transform="translate(68.8494, 6.5987)">
<tspan/>
</text>
<text fill="currentColor" text-anchor="start" font-size="2.6163" font-family="sans-serif" transform="translate(68.8494, 6.5987)">
<tspan/>
</text>
<text fill="currentColor" text-anchor="start" font-size="1.8500" font-family="sans-serif" transform="translate(68.8494, 5.0987)">
<tspan/>
</text>
</a>
<a xlink:href="textedit:///home/kalvis/workspace/ddgatve-songs/songs/lilypond/Samaisi-juIemauktin-us.ly:24:10:11" style="color:inherit;">
<path fill="currentColor" d="M220 138c56 0 109 -29 109 -91c0 -72 -56 -121 -103 -149c-36 -21 -76 -36 -117 -36c-56 0 -109 29 -109 91c0 72 56 121 103 149c36 21 76 36 117 36z" transform="translate(67.3471, 12.4109) scale(0.0040, -0.0040)"/>
</a>
<a xlink:href="textedit:///home/kalvis/workspace/ddgatve-songs/songs/lilypond/Samaisi-juIemauktin-us.ly:37:3:4" style="color:inherit;">
<path fill="currentColor" d="M220 138c56 0 109 -29 109 -91c0 -72 -56 -121 -103 -149c-36 -21 -76 -36 -117 -36c-56 0 -109 29 -109 91c0 72 56 121 103 149c36 21 76 36 117 36z" transform="translate(67.3471, 13.4109) scale(0.0040, -0.0040)"/>
</a>
<a xlink:href="textedit:///home/kalvis/workspace/ddgatve-songs/songs/lilypond/Samaisi-juIemauktin-us.ly:48:10:11" style="color:inherit;">
<text fill="currentColor" text-anchor="start" font-size="2.4696" font-family="Century Schoolbook L" transform="translate(67.3471, 18.7785)">
<tspan>
lī</tspan>
</text>
</a>
<rect fill="currentColor" ry="0.0400" height="2.4991" width="0.1300" y="-1.1869" x="-0.0650" transform="translate(68.5983, 10.9109)"/>
<rect fill="currentColor" ry="0.0400" height="2.5072" width="0.1300" y="2.6878" x="-0.0650" transform="translate(67.4121, 10.9109)"/>
<a xlink:href="textedit:///home/kalvis/workspace/ddgatve-songs/songs/lilypond/Samaisi-juIemauktin-us.ly:24:14:15" style="color:inherit;">
<path fill="currentColor" d="M220 138c56 0 109 -29 109 -91c0 -72 -56 -121 -103 -149c-36 -21 -76 -36 -117 -36c-56 0 -109 29 -109 91c0 72 56 121 103 149c36 21 76 36 117 36z" transform="translate(71.2483, 12.9109) scale(0.0040, -0.0040)"/>
</a>
<a xlink:href="textedit:///home/kalvis/workspace/ddgatve-songs/songs/lilypond/Samaisi-juIemauktin-us.ly:37:7:8" style="color:inherit;">
<path fill="currentColor" d="M220 138c56 0 109 -29 109 -91c0 -72 -56 -121 -103 -149c-36 -21 -76 -36 -117 -36c-56 0 -109 29 -109 91c0 72 56 121 103 149c36 21 76 36 117 36z" transform="translate(71.2483, 13.9109) scale(0.0040, -0.0040)"/>
</a>
<rect fill="currentColor" ry="0.0400" height="2.8152" width="0.1300" y="-1.0031" x="-0.0650" transform="translate(72.4995, 10.9109)"/>
<a xlink:href="textedit:///home/kalvis/workspace/ddgatve-songs/songs/lilypond/Samaisi-juIemauktin-us.ly:24:0:1" style="color:inherit;">
<path fill="currentColor" d="M220 138c56 0 109 -29 109 -91c0 -72 -56 -121 -103 -149c-36 -21 -76 -36 -117 -36c-56 0 -109 29 -109 91c0 72 56 121 103 149c36 21 76 36 117 36z" transform="translate(52.5586, 13.9109) scale(0.0040, -0.0040)"/>
</a>
<a xlink:href="textedit:///home/kalvis/workspace/ddgatve-songs/songs/lilypond/Samaisi-juIemauktin-us.ly:48:0:1" style="color:inherit;">
<text fill="currentColor" text-anchor="start" font-size="2.4696" font-family="Century Schoolbook L" transform="translate(52.5586, 18.7785)">
<tspan>
lī</tspan>
</text>
</a>
<rect fill="currentColor" ry="0.0400" height="3.0116" width="0.1300" y="-0.1994" x="-0.0650" transform="translate(53.8098, 10.9109)"/>
<a xlink:href="textedit:///home/kalvis/workspace/ddgatve-songs/songs/lilypond/Samaisi-juIemauktin-us.ly:24:4:5" style="color:inherit;">
<path fill="currentColor" d="M220 138c56 0 109 -29 109 -91c0 -72 -56 -121 -103 -149c-36 -21 -76 -36 -117 -36c-56 0 -109 29 -109 91c0 72 56 121 103 149c36 21 76 36 117 36z" transform="translate(56.7098, 12.9109) scale(0.0040, -0.0040)"/>
</a>
<rect fill="currentColor" ry="0.0400" height="2.6128" width="0.1300" y="-0.8006" x="-0.0650" transform="translate(57.9610, 10.9109)"/>
<a xlink:href="textedit:///home/kalvis/workspace/ddgatve-songs/songs/lilypond/Samaisi-juIemauktin-us.ly:24:7:8" style="color:inherit;">
<path fill="currentColor" d="M220 138c56 0 109 -29 109 -91c0 -72 -56 -121 -103 -149c-36 -21 -76 -36 -117 -36c-56 0 -109 29 -109 91c0 72 56 121 103 149c36 21 76 36 117 36z" transform="translate(60.8610, 11.9109) scale(0.0040, -0.0040)"/>
</a>
<a xlink:href="textedit:///home/kalvis/workspace/ddgatve-songs/songs/lilypond/Samaisi-juIemauktin-us.ly:48:6:7" style="color:inherit;">
<text fill="currentColor" text-anchor="start" font-size="2.4696" font-family="Century Schoolbook L" transform="translate(59.8973, 18.7785)">
<tspan>
go,</tspan>
</text>
</a>
<a xlink:href="textedit:///home/kalvis/workspace/ddgatve-songs/songs/lilypond/Samaisi-juIemauktin-us.ly:48:13:14" style="color:inherit;">
<rect fill="currentColor" ry="0.0400" height="0.1300" width="0.6600" y="-0.5500" x="0.0000" transform="translate(71.2217, 18.7785)"/>
</a>
<a xlink:href="textedit:///home/kalvis/workspace/ddgatve-songs/songs/lilypond/Samaisi-juIemauktin-us.ly:37:5:6" style="color:inherit;">
<polygon points="3.9912 0.1100 3.9912 0.5100 0.0400 0.2000 0.0400 -0.2000" stroke="currentColor" fill="currentColor" stroke-width="0.0800" stroke-linecap="round" stroke-linejoin="round" transform="translate(67.3471, 16.1009)"/>
</a>
<a xlink:href="textedit:///home/kalvis/workspace/ddgatve-songs/songs/lilypond/Samaisi-juIemauktin-us.ly:24:12:13" style="color:inherit;">
<polygon points="3.9912 -0.0100 3.9912 0.3900 0.0400 0.2000 0.0400 -0.2000" stroke="currentColor" fill="currentColor" stroke-width="0.0800" stroke-linecap="round" stroke-linejoin="round" transform="translate(68.5333, 9.7209)"/>
</a>
<a xlink:href="textedit:///home/kalvis/workspace/ddgatve-songs/songs/lilypond/Samaisi-juIemauktin-us.ly:48:3:4" style="color:inherit;">
<rect fill="currentColor" ry="0.0400" height="0.1300" width="0.6600" y="-0.5500" x="0.0000" transform="translate(56.6832, 18.7785)"/>
</a>
<a xlink:href="textedit:///home/kalvis/workspace/ddgatve-songs/songs/lilypond/Samaisi-juIemauktin-us.ly:24:2:3" style="color:inherit;">
<polygon points="4.2412 -0.8200 4.2412 -0.4200 0.0400 0.2000 0.0400 -0.2000" stroke="currentColor" fill="currentColor" stroke-width="0.0800" stroke-linecap="round" stroke-linejoin="round" transform="translate(53.7448, 10.7209)"/>
</a>
<a xlink:href="textedit:///home/kalvis/workspace/ddgatve-songs/songs/lilypond/Samaisi-juIemauktin-us.ly:47:39:40" style="color:inherit;">
<rect fill="currentColor" ry="0.0400" height="0.1300" width="0.6600" y="-0.5500" x="0.0000" transform="translate(42.4406, 18.7785)"/>
</a>
<a xlink:href="textedit:///home/kalvis/workspace/ddgatve-songs/songs/lilypond/Samaisi-juIemauktin-us.ly:47:33:34" style="color:inherit;">
<rect fill="currentColor" ry="0.0400" height="0.1300" width="0.6600" y="-0.5500" x="0.0000" transform="translate(39.2143, 18.7785)"/>
</a>
<a xlink:href="textedit:///home/kalvis/workspace/ddgatve-songs/songs/lilypond/Samaisi-juIemauktin-us.ly:47:25:26" style="color:inherit;">
<rect fill="currentColor" ry="0.0400" height="0.1300" width="0.6600" y="-0.5500" x="0.0000" transform="translate(31.2079, 18.7785)"/>
</a>
<a xlink:href="textedit:///home/kalvis/workspace/ddgatve-songs/songs/lilypond/Samaisi-juIemauktin-us.ly:22:20:21" style="color:inherit;">
<polygon points="3.1410 -0.0100 3.1410 0.3900 0.0400 0.2000 0.0400 -0.2000" stroke="currentColor" fill="currentColor" stroke-width="0.0800" stroke-linecap="round" stroke-linejoin="round" transform="translate(29.9671, 8.9109)"/>
<polygon points="3.1410 -0.0100 3.1410 0.3900 0.0400 0.2000 0.0400 -0.2000" stroke="currentColor" fill="currentColor" stroke-width="0.0800" stroke-linecap="round" stroke-linejoin="round" transform="translate(29.9671, 9.7209)"/>
</a>
<a xlink:href="textedit:///home/kalvis/workspace/ddgatve-songs/songs/lilypond/Samaisi-juIemauktin-us.ly:47:16:17" style="color:inherit;">
<rect fill="currentColor" ry="0.0400" height="0.1300" width="0.6600" y="-0.5500" x="0.0000" transform="translate(22.9764, 18.7785)"/>
</a>
<a xlink:href="textedit:///home/kalvis/workspace/ddgatve-songs/songs/lilypond/Samaisi-juIemauktin-us.ly:47:10:11" style="color:inherit;">
<rect fill="currentColor" ry="0.0400" height="0.1300" width="0.6600" y="-0.5500" x="0.0000" transform="translate(19.3362, 18.7785)"/>
</a>
<a xlink:href="textedit:///home/kalvis/workspace/ddgatve-songs/songs/lilypond/Samaisi-juIemauktin-us.ly:47:3:4" style="color:inherit;">
<rect fill="currentColor" ry="0.0400" height="0.1300" width="0.6600" y="-0.5500" x="0.0000" transform="translate(13.5150, 18.7785)"/>
</a>
<rect fill="currentColor" ry="0.0400" height="2.3072" width="0.1300" y="3.1878" x="-0.0650" transform="translate(71.3133, 10.9109)"/>
<a xlink:href="textedit:///home/kalvis/workspace/ddgatve-songs/songs/lilypond/Samaisi-juIemauktin-us.ly:55:17:18" style="color:inherit;">
<text fill="currentColor" text-anchor="start" font-size="2.6163" font-family="sans-serif" transform="translate(75.1495, 6.5987)">
<tspan>
C</tspan>
</text>
<text fill="currentColor" text-anchor="start" font-size="2.6163" font-family="sans-serif" transform="translate(76.9591, 6.5987)">
<tspan/>
</text>
<text fill="currentColor" text-anchor="start" font-size="2.6163" font-family="sans-serif" transform="translate(76.9591, 6.5987)">
<tspan/>
</text>
<text fill="currentColor" text-anchor="start" font-size="1.8500" font-family="sans-serif" transform="translate(76.9591, 5.0987)">
<tspan/>
</text>
</a>
<a xlink:href="textedit:///home/kalvis/workspace/ddgatve-songs/songs/lilypond/Samaisi-juIemauktin-us.ly:24:17:18" style="color:inherit;">
<path fill="currentColor" d="M220 138c56 0 109 -29 109 -91c0 -72 -56 -121 -103 -149c-36 -21 -76 -36 -117 -36c-56 0 -109 29 -109 91c0 72 56 121 103 149c36 21 76 36 117 36z" transform="translate(75.1495, 12.9109) scale(0.0040, -0.0040)"/>
</a>
<a xlink:href="textedit:///home/kalvis/workspace/ddgatve-songs/songs/lilypond/Samaisi-juIemauktin-us.ly:37:10:11" style="color:inherit;">
<path fill="currentColor" d="M220 138c56 0 109 -29 109 -91c0 -72 -56 -121 -103 -149c-36 -21 -76 -36 -117 -36c-56 0 -109 29 -109 91c0 72 56 121 103 149c36 21 76 36 117 36z" transform="translate(75.1495, 13.9109) scale(0.0040, -0.0040)"/>
</a>
<a xlink:href="textedit:///home/kalvis/workspace/ddgatve-songs/songs/lilypond/Samaisi-juIemauktin-us.ly:48:16:17" style="color:inherit;">
<text fill="currentColor" text-anchor="start" font-size="2.4696" font-family="Century Schoolbook L" transform="translate(74.1858, 18.7785)">
<tspan>
go,</tspan>
</text>
</a>
<rect fill="currentColor" ry="0.0400" height="3.3122" width="0.1300" y="-1.5000" x="-0.0650" transform="translate(76.4007, 10.9109)"/>
<rect fill="currentColor" ry="0.0400" height="2.3122" width="0.1300" y="3.1878" x="-0.0650" transform="translate(75.2145, 10.9109)"/>
<a xlink:href="textedit:///home/kalvis/workspace/ddgatve-songs/songs/lilypond/Samaisi-juIemauktin-us.ly:22:11:12" style="color:inherit;">
<path fill="currentColor" d="M220 138c56 0 109 -29 109 -91c0 -72 -56 -121 -103 -149c-36 -21 -76 -36 -117 -36c-56 0 -109 29 -109 91c0 72 56 121 103 149c36 21 76 36 117 36z" transform="translate(16.0975, 13.9109) scale(0.0040, -0.0040)"/>
</a>
<a xlink:href="textedit:///home/kalvis/workspace/ddgatve-songs/songs/lilypond/Samaisi-juIemauktin-us.ly:47:6:7" style="color:inherit;">
<text fill="currentColor" text-anchor="start" font-size="2.4696" font-family="Century Schoolbook L" transform="translate(14.5875, 18.7785)">
<tspan>
mai</tspan>
</text>
</a>
<rect fill="currentColor" ry="0.0400" height="3.3122" width="0.1300" y="-0.5000" x="-0.0650" transform="translate(17.3486, 10.9109)"/>
<path fill="currentColor" d="M0 0c0 -198 209 -335 209 -533c0 -71 -16 -141 -42 -207c-5 -8 -12 -12 -19 -12c-13 0 -26 11 -23 27c26 61 42 126 42 192c0 104 -95 208 -167 283h-16v250h16z" transform="translate(17.4136, 10.4509) scale(0.0040, -0.0040)"/>
<a xlink:href="textedit:///home/kalvis/workspace/ddgatve-songs/songs/lilypond/Samaisi-juIemauktin-us.ly:22:13:14" style="color:inherit;">
<path fill="currentColor" d="M220 138c56 0 109 -29 109 -91c0 -72 -56 -121 -103 -149c-36 -21 -76 -36 -117 -36c-56 0 -109 29 -109 91c0 72 56 121 103 149c36 21 76 36 117 36z" transform="translate(20.7066, 12.9109) scale(0.0040, -0.0040)"/>
</a>
<a xlink:href="textedit:///home/kalvis/workspace/ddgatve-songs/songs/lilypond/Samaisi-juIemauktin-us.ly:47:13:14" style="color:inherit;">
<text fill="currentColor" text-anchor="start" font-size="2.4696" font-family="Century Schoolbook L" transform="translate(20.4087, 18.7785)">
<tspan>
sī</tspan>
</text>
</a>
<rect fill="currentColor" ry="0.0400" height="3.3122" width="0.1300" y="-1.5000" x="-0.0650" transform="translate(21.9578, 10.9109)"/>
<path fill="currentColor" d="M0 0c0 -198 209 -335 209 -533c0 -71 -16 -141 -42 -207c-5 -8 -12 -12 -19 -12c-13 0 -26 11 -23 27c26 61 42 126 42 192c0 104 -95 208 -167 283h-16v250h16z" transform="translate(22.0228, 9.4509) scale(0.0040, -0.0040)"/>
<a xlink:href="textedit:///home/kalvis/workspace/ddgatve-songs/songs/lilypond/Samaisi-juIemauktin-us.ly:22:15:16" style="color:inherit;">
<path fill="currentColor" d="M220 138c56 0 109 -29 109 -91c0 -72 -56 -121 -103 -149c-36 -21 -76 -36 -117 -36c-56 0 -109 29 -109 91c0 72 56 121 103 149c36 21 76 36 117 36z" transform="translate(24.7438, 11.9109) scale(0.0040, -0.0040)"/>
</a>
<a xlink:href="textedit:///home/kalvis/workspace/ddgatve-songs/songs/lilypond/Samaisi-juIemauktin-us.ly:47:19:20" style="color:inherit;">
<text fill="currentColor" text-anchor="start" font-size="2.4696" font-family="Century Schoolbook L" transform="translate(24.2922, 18.7785)">
<tspan>
ju</tspan>
</text>
</a>
<rect fill="currentColor" ry="0.0400" height="3.3122" width="0.1300" y="-2.5000" x="-0.0650" transform="translate(25.9949, 10.9109)"/>
<path fill="currentColor" d="M0 0c0 -198 209 -335 209 -533c0 -71 -16 -141 -42 -207c-5 -8 -12 -12 -19 -12c-13 0 -26 11 -23 27c26 61 42 126 42 192c0 104 -95 208 -167 283h-16v250h16z" transform="translate(26.0599, 8.4509) scale(0.0040, -0.0040)"/>
<a xlink:href="textedit:///home/kalvis/workspace/ddgatve-songs/songs/lilypond/Samaisi-juIemauktin-us.ly:55:0:1" style="color:inherit;">
<text fill="currentColor" text-anchor="start" font-size="2.6163" font-family="sans-serif" transform="translate(10.9762, 6.5987)">
<tspan>
C</tspan>
</text>
<text fill="currentColor" text-anchor="start" font-size="2.6163" font-family="sans-serif" transform="translate(12.7858, 6.5987)">
<tspan/>
</text>
<text fill="currentColor" text-anchor="start" font-size="2.6163" font-family="sans-serif" transform="translate(12.7858, 6.5987)">
<tspan/>
</text>
<text fill="currentColor" text-anchor="start" font-size="1.8500" font-family="sans-serif" transform="translate(12.7858, 5.0987)">
<tspan/>
</text>
</a>
<a xlink:href="textedit:///home/kalvis/workspace/ddgatve-songs/songs/lilypond/Samaisi-juIemauktin-us.ly:22:0:1" style="color:inherit;">
<path fill="currentColor" d="M220 138c56 0 109 -29 109 -91c0 -72 -56 -121 -103 -149c-36 -21 -76 -36 -117 -36c-56 0 -109 29 -109 91c0 72 56 121 103 149c36 21 76 36 117 36z" transform="translate(10.9762, 12.9109) scale(0.0040, -0.0040)"/>
</a>
<a xlink:href="textedit:///home/kalvis/workspace/ddgatve-songs/songs/lilypond/Samaisi-juIemauktin-us.ly:22:2:3" style="color:inherit;">
<path fill="currentColor" d="M-67 48c0 37 30 67 67 67s67 -30 67 -67s-30 -67 -67 -67s-67 30 -67 67zM0 363c157 0 332 -176 332 -366c0 -9 -10 -15 -19 -15s-17 5 -19 18c-26 148 -146 262 -294 262s-268 -114 -294 -262c-2 -13 -10 -18 -19 -18s-19 6 -19 15c0 190 175 366 332 366z" transform="translate(11.6343, 8.5849) scale(0.0040, -0.0040)"/>
</a>
<path fill="currentColor" d="M376 262c4 0 9 1 13 1c155 0 256 -128 256 -261c0 -76 -33 -154 -107 -210c-22 -17 -47 -28 -73 -36c3 -35 5 -70 5 -105c0 -19 -1 -39 -2 -58c-7 -120 -90 -228 -208 -228c-108 0 -195 88 -195 197c0 58 53 103 112 103c54 0 95 -47 95 -103c0 -52 -43 -95 -95 -95 c-11 0 -21 2 -31 6c26 -39 68 -65 117 -65c96 0 157 92 163 191c1 18 2 37 2 55c0 31 -1 61 -4 92c-29 -5 -58 -8 -89 -8c-188 0 -333 172 -333 374c0 177 131 306 248 441c-19 62 -37 125 -45 190c-6 52 -7 104 -7 156c0 115 55 224 149 292c3 2 7 3 10 3c4 0 7 0 10 -3 c71 -84 133 -245 133 -358c0 -143 -86 -255 -180 -364c21 -68 39 -138 56 -207zM461 -203c68 24 113 95 113 164c0 90 -66 179 -173 190c24 -116 46 -231 60 -354zM74 28c0 -135 129 -247 264 -247c28 0 55 2 82 6c-14 127 -37 245 -63 364c-79 -8 -124 -61 -124 -119 c0 -44 25 -91 81 -123c5 -5 7 -10 7 -15c0 -11 -10 -22 -22 -22c-3 0 -6 1 -9 2c-80 43 -117 115 -117 185c0 88 58 174 160 197c-14 58 -29 117 -46 175c-107 -121 -213 -243 -213 -403zM408 1045c-99 -48 -162 -149 -162 -259c0 -74 18 -133 36 -194 c80 97 146 198 146 324c0 55 -4 79 -20 129z" transform="translate(3.0762, 11.9109) scale(0.0040, -0.0040)"/>
<a xlink:href="textedit:///home/kalvis/workspace/ddgatve-songs/songs/lilypond/Samaisi-juIemauktin-us.ly:33:0:1" style="color:inherit;">
</a>
<path fill="currentColor" d="M359 27c-49 0 -75 42 -75 75c0 38 27 77 72 77c4 0 9 0 14 -1c-28 37 -72 59 -120 59c-106 0 -113 -73 -113 -186v-51v-51c0 -113 7 -187 113 -187c80 0 139 70 158 151c2 7 7 10 12 10c6 0 13 -4 13 -12c0 -94 -105 -174 -183 -174c-68 0 -137 21 -184 70 c-49 51 -66 122 -66 193s17 142 66 193c47 49 116 69 184 69c87 0 160 -64 175 -150c1 -5 1 -9 1 -13c0 -40 -30 -72 -67 -72z" transform="translate(7.2762, 10.9109) scale(0.0040, -0.0040)"/>
<a xlink:href="textedit:///home/kalvis/workspace/ddgatve-songs/songs/lilypond/Samaisi-juIemauktin-us.ly:47:0:1" style="color:inherit;">
<text fill="currentColor" text-anchor="start" font-size="2.4696" font-family="Century Schoolbook L" transform="translate(10.1661, 18.7785)">
<tspan>
Sa</tspan>
</text>
</a>
<rect fill="currentColor" ry="0.0400" height="3.3122" width="0.1300" y="-1.5000" x="-0.0650" transform="translate(12.2274, 10.9109)"/>
<path fill="currentColor" d="M0 0c0 -198 209 -335 209 -533c0 -71 -16 -141 -42 -207c-5 -8 -12 -12 -19 -12c-13 0 -26 11 -23 27c26 61 42 126 42 192c0 104 -95 208 -167 283h-16v250h16z" transform="translate(12.2924, 9.4509) scale(0.0040, -0.0040)"/>
<a xlink:href="textedit:///home/kalvis/workspace/ddgatve-songs/songs/lilypond/Samaisi-juIemauktin-us.ly:22:25:26" style="color:inherit;">
<path fill="currentColor" d="M220 138c56 0 109 -29 109 -91c0 -72 -56 -121 -103 -149c-36 -21 -76 -36 -117 -36c-56 0 -109 29 -109 91c0 72 56 121 103 149c36 21 76 36 117 36z" transform="translate(34.8830, 12.9109) scale(0.0040, -0.0040)"/>
</a>
<a xlink:href="textedit:///home/kalvis/workspace/ddgatve-songs/songs/lilypond/Samaisi-juIemauktin-us.ly:47:28:29" style="color:inherit;">
<text fill="currentColor" text-anchor="start" font-size="2.4696" font-family="Century Schoolbook L" transform="translate(32.2804, 18.7785)">
<tspan>
mauk</tspan>
</text>
</a>
<rect fill="currentColor" ry="0.0400" height="3.3122" width="0.1300" y="-1.5000" x="-0.0650" transform="translate(36.1342, 10.9109)"/>
<path fill="currentColor" d="M0 0c0 -198 209 -335 209 -533c0 -71 -16 -141 -42 -207c-5 -8 -12 -12 -19 -12c-13 0 -26 11 -23 27c26 61 42 126 42 192c0 104 -95 208 -167 283h-16v250h16z" transform="translate(36.1992, 9.4509) scale(0.0040, -0.0040)"/>
<a xlink:href="textedit:///home/kalvis/workspace/ddgatve-songs/songs/lilypond/Samaisi-juIemauktin-us.ly:22:28:29" style="color:inherit;">
<path fill="currentColor" d="M220 138c56 0 109 -29 109 -91c0 -72 -56 -121 -103 -149c-36 -21 -76 -36 -117 -36c-56 0 -109 29 -109 91c0 72 56 121 103 149c36 21 76 36 117 36z" transform="translate(40.4993, 13.4109) scale(0.0040, -0.0040)"/>
</a>
<a xlink:href="textedit:///home/kalvis/workspace/ddgatve-songs/songs/lilypond/Samaisi-juIemauktin-us.ly:47:36:37" style="color:inherit;">
<text fill="currentColor" text-anchor="start" font-size="2.4696" font-family="Century Schoolbook L" transform="translate(40.2868, 18.7785)">
<tspan>
ti</tspan>
</text>
</a>
<rect fill="currentColor" ry="0.0400" height="3.3122" width="0.1300" y="-1.0000" x="-0.0650" transform="translate(41.7505, 10.9109)"/>
<path fill="currentColor" d="M0 0c0 -198 209 -335 209 -533c0 -71 -16 -141 -42 -207c-5 -8 -12 -12 -19 -12c-13 0 -26 11 -23 27c26 61 42 126 42 192c0 104 -95 208 -167 283h-16v250h16z" transform="translate(41.8155, 9.9509) scale(0.0040, -0.0040)"/>
<a xlink:href="textedit:///home/kalvis/workspace/ddgatve-songs/songs/lilypond/Samaisi-juIemauktin-us.ly:22:30:31" style="color:inherit;">
<path fill="currentColor" d="M220 138c56 0 109 -29 109 -91c0 -72 -56 -121 -103 -149c-36 -21 -76 -36 -117 -36c-56 0 -109 29 -109 91c0 72 56 121 103 149c36 21 76 36 117 36z" transform="translate(45.2621, 13.9109) scale(0.0040, -0.0040)"/>
</a>
<a xlink:href="textedit:///home/kalvis/workspace/ddgatve-songs/songs/lilypond/Samaisi-juIemauktin-us.ly:47:42:43" style="color:inherit;">
<text fill="currentColor" text-anchor="start" font-size="2.4696" font-family="Century Schoolbook L" transform="translate(43.5131, 18.7785)">
<tspan>
ņus,</tspan>
</text>
</a>
<rect fill="currentColor" ry="0.0400" height="3.3122" width="0.1300" y="-0.5000" x="-0.0650" transform="translate(46.5133, 10.9109)"/>
<path fill="currentColor" d="M0 0c0 -198 209 -335 209 -533c0 -71 -16 -141 -42 -207c-5 -8 -12 -12 -19 -12c-13 0 -26 11 -23 27c26 61 42 126 42 192c0 104 -95 208 -167 283h-16v250h16z" transform="translate(46.5783, 10.4509) scale(0.0040, -0.0040)"/>
<a xlink:href="textedit:///home/kalvis/workspace/ddgatve-songs/songs/lilypond/Samaisi-juIemauktin-us.ly:22:17:18" style="color:inherit;">
<path fill="currentColor" d="M220 138c56 0 109 -29 109 -91c0 -72 -56 -121 -103 -149c-36 -21 -76 -36 -117 -36c-56 0 -109 29 -109 91c0 72 56 121 103 149c36 21 76 36 117 36z" transform="translate(28.7809, 11.9109) scale(0.0040, -0.0040)"/>
</a>
<a xlink:href="textedit:///home/kalvis/workspace/ddgatve-songs/songs/lilypond/Samaisi-juIemauktin-us.ly:47:22:23" style="color:inherit;">
<text fill="currentColor" text-anchor="start" font-size="2.4696" font-family="Century Schoolbook L" transform="translate(28.7809, 18.7785)">
<tspan>
ie</tspan>
</text>
</a>
<rect fill="currentColor" ry="0.0400" height="2.8083" width="0.1300" y="-1.9961" x="-0.0650" transform="translate(30.0321, 10.9109)"/>
<a xlink:href="textedit:///home/kalvis/workspace/ddgatve-songs/songs/lilypond/Samaisi-juIemauktin-us.ly:22:22:23" style="color:inherit;">
<path fill="currentColor" d="M220 138c56 0 109 -29 109 -91c0 -72 -56 -121 -103 -149c-36 -21 -76 -36 -117 -36c-56 0 -109 29 -109 91c0 72 56 121 103 149c36 21 76 36 117 36z" transform="translate(31.8320, 12.4109) scale(0.0040, -0.0040)"/>
</a>
<rect fill="currentColor" ry="0.0400" height="3.1261" width="0.1300" y="-1.8139" x="-0.0650" transform="translate(33.0831, 10.9109)"/>
<rect fill="currentColor" ry="0.1000" height="0.2000" width="1.9743" y="-0.1000" x="22.9694" transform="translate(2.2762, 29.5490)"/>
<rect fill="currentColor" ry="0.1000" height="0.2000" width="1.9743" y="-0.1000" x="35.0017" transform="translate(2.2762, 29.5490)"/>
<rect fill="currentColor" ry="0.1000" height="0.2000" width="1.9743" y="-0.1000" x="40.6892" transform="translate(2.2762, 29.5490)"/>
<rect fill="currentColor" ry="0.1000" height="0.2000" width="1.9743" y="-0.1000" x="46.3767" transform="translate(2.2762, 29.5490)"/>
<rect fill="currentColor" ry="0.1000" height="0.2000" width="1.9743" y="-0.1000" x="46.3767" transform="translate(2.2762, 29.5490)"/>
<rect fill="currentColor" ry="0.1000" height="0.2000" width="1.9743" y="-0.1000" x="56.6089" transform="translate(2.2762, 29.5490)"/>
<rect fill="currentColor" ry="0.1000" height="0.2000" width="1.9743" y="-0.1000" x="62.1604" transform="translate(2.2762, 29.5490)"/>
<rect fill="currentColor" ry="0.1000" height="0.2000" width="1.9743" y="-0.1000" x="67.7119" transform="translate(2.2762, 29.5490)"/>
<rect fill="currentColor" ry="0.1000" height="0.2000" width="1.9743" y="-0.1000" x="67.7119" transform="translate(2.2762, 29.5490)"/>
<line y2="-0.0000" x2="79.6177" y1="-0.0000" x1="0.0500" stroke="currentColor" stroke-width="0.1000" stroke-linecap="round" stroke-linejoin="round" transform="translate(2.2762, 28.5490)"/>
<line y2="-0.0000" x2="79.6177" y1="-0.0000" x1="0.0500" stroke="currentColor" stroke-width="0.1000" stroke-linecap="round" stroke-linejoin="round" transform="translate(2.2762, 27.5490)"/>
<line y2="-0.0000" x2="79.6177" y1="-0.0000" x1="0.0500" stroke="currentColor" stroke-width="0.1000" stroke-linecap="round" stroke-linejoin="round" transform="translate(2.2762, 26.5490)"/>
<line y2="-0.0000" x2="79.6177" y1="-0.0000" x1="0.0500" stroke="currentColor" stroke-width="0.1000" stroke-linecap="round" stroke-linejoin="round" transform="translate(2.2762, 25.5490)"/>
<line y2="-0.0000" x2="79.6177" y1="-0.0000" x1="0.0500" stroke="currentColor" stroke-width="0.1000" stroke-linecap="round" stroke-linejoin="round" transform="translate(2.2762, 24.5490)"/>
<rect fill="currentColor" ry="0.0000" height="4.0000" width="0.1900" y="-2.0000" x="0.0000" transform="translate(54.6695, 26.5490)"/>
<path fill="currentColor" d="M0 0c0 31 25 56 56 56s56 -25 56 -56s-25 -56 -56 -56s-56 25 -56 56z" transform="translate(80.1039, 26.0490) scale(0.0040, -0.0040)"/>
<path fill="currentColor" d="M0 0c0 31 25 56 56 56s56 -25 56 -56s-25 -56 -56 -56s-56 25 -56 56z" transform="translate(80.1039, 27.0490) scale(0.0040, -0.0040)"/>
<rect fill="currentColor" ry="0.0000" height="4.0000" width="0.6000" y="-2.0000" x="0.0000" transform="translate(81.3439, 26.5490)"/>
<rect fill="currentColor" ry="0.0000" height="4.0000" width="0.1900" y="-2.0000" x="0.0000" transform="translate(80.8539, 26.5490)"/>
<path fill="currentColor" d="M0 0h-16v250h16c98 58 227 148 227 259c0 57 -16 112 -41 163c-3 16 10 27 23 27c7 0 15 -3 20 -11c25 -56 40 -117 40 -179c0 -204 -269 -305 -269 -509z" transform="translate(49.1120, 32.5090) scale(0.0040, -0.0040)"/>
<a xlink:href="textedit:///home/kalvis/workspace/ddgatve-songs/songs/lilypond/Samaisi-juIemauktin-us.ly:57:0:1" style="color:inherit;">
<text fill="currentColor" text-anchor="start" font-size="2.6163" font-family="sans-serif" transform="translate(59.2142, 22.2368)">
<tspan>
G</tspan>
</text>
<text fill="currentColor" text-anchor="start" font-size="2.6163" font-family="sans-serif" transform="translate(61.2287, 22.2368)">
<tspan/>
</text>
<text fill="currentColor" text-anchor="start" font-size="2.6163" font-family="sans-serif" transform="translate(61.2287, 22.2368)">
<tspan/>
</text>
<text fill="currentColor" text-anchor="start" font-size="1.8500" font-family="sans-serif" transform="translate(61.2287, 20.7368)">
<tspan/>
</text>
</a>
<a xlink:href="textedit:///home/kalvis/workspace/ddgatve-songs/songs/lilypond/Samaisi-juIemauktin-us.ly:27:0:1" style="color:inherit;">
<path fill="currentColor" d="M220 138c56 0 109 -29 109 -91c0 -72 -56 -121 -103 -149c-36 -21 -76 -36 -117 -36c-56 0 -109 29 -109 91c0 72 56 121 103 149c36 21 76 36 117 36z" transform="translate(59.2142, 28.5490) scale(0.0040, -0.0040)"/>
</a>
<a xlink:href="textedit:///home/kalvis/workspace/ddgatve-songs/songs/lilypond/Samaisi-juIemauktin-us.ly:40:0:1" style="color:inherit;">
<path fill="currentColor" d="M220 138c56 0 109 -29 109 -91c0 -72 -56 -121 -103 -149c-36 -21 -76 -36 -117 -36c-56 0 -109 29 -109 91c0 72 56 121 103 149c36 21 76 36 117 36z" transform="translate(59.2142, 29.5490) scale(0.0040, -0.0040)"/>
</a>
<path fill="currentColor" d="M204 307c22 14 44 29 60 50c11 15 19 33 27 50c2 4 5 6 9 6c6 0 13 -5 13 -14v-245h72c10 0 15 -7 15 -14s-5 -15 -15 -15h-72v-8c0 -48 27 -94 72 -94c8 0 12 -5 12 -11s-4 -12 -12 -12c-44 0 -87 13 -131 13s-87 -13 -131 -13c-8 0 -12 6 -12 12s4 11 12 11 c45 0 73 46 73 94v8h-167c-23 0 -31 14 -31 23c0 3 1 5 2 6c80 93 138 207 138 330c0 9 6 16 13 16h3c23 -7 47 -13 71 -13s48 6 71 13c2 1 3 1 5 1c11 0 18 -10 12 -17l-284 -330h167v131c0 8 1 17 8 22z" transform="translate(55.6095, 28.5634) scale(0.0040, -0.0040)"/>
<path fill="currentColor" d="M23 11c-1 -7 -6 -11 -11 -11c-6 0 -12 4 -12 11c0 175 235 165 235 344c0 60 -18 122 -70 122c-26 0 -51 -14 -51 -37c0 -27 35 -41 35 -68c0 -38 -30 -69 -68 -69s-69 31 -69 69c0 76 72 128 153 128c96 0 187 -56 187 -145c0 -153 -151 -159 -249 -220c9 2 17 3 26 3 c33 0 70 -11 105 -36c21 -15 46 -23 66 -23c21 0 39 9 44 29c2 6 6 9 11 9c6 0 12 -5 12 -12c0 -67 -90 -105 -138 -105c-36 0 -71 14 -96 44c-13 16 -31 22 -48 22c-30 0 -59 -20 -62 -55z" transform="translate(55.6777, 26.5490) scale(0.0040, -0.0040)"/>
<a xlink:href="textedit:///home/kalvis/workspace/ddgatve-songs/songs/lilypond/Samaisi-juIemauktin-us.ly:50:0:1" style="color:inherit;">
<text fill="currentColor" text-anchor="start" font-size="2.4696" font-family="Century Schoolbook L" transform="translate(59.2142, 35.0854)">
<tspan>
lī</tspan>
</text>
</a>
<rect fill="currentColor" ry="0.0400" height="2.8100" width="0.1300" y="-0.9978" x="-0.0650" transform="translate(60.4654, 26.5490)"/>
<rect fill="currentColor" ry="0.0400" height="2.3157" width="0.1300" y="3.1878" x="-0.0650" transform="translate(59.2792, 26.5490)"/>
<a xlink:href="textedit:///home/kalvis/workspace/ddgatve-songs/songs/lilypond/Samaisi-juIemauktin-us.ly:25:13:14" style="color:inherit;">
<path fill="currentColor" d="M220 138c56 0 109 -29 109 -91c0 -72 -56 -121 -103 -149c-36 -21 -76 -36 -117 -36c-56 0 -109 29 -109 91c0 72 56 121 103 149c36 21 76 36 117 36z" transform="translate(43.2945, 29.0490) scale(0.0040, -0.0040)"/>
</a>
<a xlink:href="textedit:///home/kalvis/workspace/ddgatve-songs/songs/lilypond/Samaisi-juIemauktin-us.ly:38:13:14" style="color:inherit;">
<path fill="currentColor" d="M220 138c56 0 109 -29 109 -91c0 -72 -56 -121 -103 -149c-36 -21 -76 -36 -117 -36c-56 0 -109 29 -109 91c0 72 56 121 103 149c36 21 76 36 117 36z" transform="translate(43.2945, 30.0490) scale(0.0040, -0.0040)"/>
</a>
<a xlink:href="textedit:///home/kalvis/workspace/ddgatve-songs/songs/lilypond/Samaisi-juIemauktin-us.ly:49:30:31" style="color:inherit;">
<text fill="currentColor" text-anchor="start" font-size="2.4696" font-family="Century Schoolbook L" transform="translate(42.5185, 35.0854)">
<tspan>
ņā</tspan>
</text>
</a>
<rect fill="currentColor" ry="0.0400" height="3.3122" width="0.1300" y="-1.0000" x="-0.0650" transform="translate(44.5457, 26.5490)"/>
<path fill="currentColor" d="M0 0c0 -198 209 -335 209 -533c0 -71 -16 -141 -42 -207c-5 -8 -12 -12 -19 -12c-13 0 -26 11 -23 27c26 61 42 126 42 192c0 104 -95 208 -167 283h-16v250h16z" transform="translate(44.6107, 25.5890) scale(0.0040, -0.0040)"/>
<rect fill="currentColor" ry="0.0400" height="2.8122" width="0.1300" y="3.6878" x="-0.0650" transform="translate(43.3595, 26.5490)"/>
<path fill="currentColor" d="M0 0h-16v250h16c98 58 227 148 227 259c0 57 -16 112 -41 163c-3 16 10 27 23 27c7 0 15 -3 20 -11c25 -56 40 -117 40 -179c0 -204 -269 -305 -269 -509z" transform="translate(43.4245, 33.0090) scale(0.0040, -0.0040)"/>
<a xlink:href="textedit:///home/kalvis/workspace/ddgatve-songs/songs/lilypond/Samaisi-juIemauktin-us.ly:25:15:16" style="color:inherit;">
<path fill="currentColor" d="M220 138c56 0 109 -29 109 -91c0 -72 -56 -121 -103 -149c-36 -21 -76 -36 -117 -36c-56 0 -109 29 -109 91c0 72 56 121 103 149c36 21 76 36 117 36z" transform="translate(48.9820, 29.5490) scale(0.0040, -0.0040)"/>
</a>
<a xlink:href="textedit:///home/kalvis/workspace/ddgatve-songs/songs/lilypond/Samaisi-juIemauktin-us.ly:38:15:16" style="color:inherit;">
<path fill="currentColor" d="M220 138c56 0 109 -29 109 -91c0 -72 -56 -121 -103 -149c-36 -21 -76 -36 -117 -36c-56 0 -109 29 -109 91c0 72 56 121 103 149c36 21 76 36 117 36z" transform="translate(48.9820, 29.5490) scale(0.0040, -0.0040)"/>
</a>
<a xlink:href="textedit:///home/kalvis/workspace/ddgatve-songs/songs/lilypond/Samaisi-juIemauktin-us.ly:49:36:37" style="color:inherit;">
<text fill="currentColor" text-anchor="start" font-size="2.4696" font-family="Century Schoolbook L" transform="translate(48.9060, 35.0854)">
<tspan>
i,</tspan>
</text>
</a>
<rect fill="currentColor" ry="0.0400" height="3.3122" width="0.1300" y="-0.5000" x="-0.0650" transform="translate(50.2331, 26.5490)"/>
<path fill="currentColor" d="M0 0c0 -198 209 -335 209 -533c0 -71 -16 -141 -42 -207c-5 -8 -12 -12 -19 -12c-13 0 -26 11 -23 27c26 61 42 126 42 192c0 104 -95 208 -167 283h-16v250h16z" transform="translate(50.2981, 26.0890) scale(0.0040, -0.0040)"/>
<rect fill="currentColor" ry="0.0400" height="2.8122" width="0.1300" y="3.1878" x="-0.0650" transform="translate(49.0470, 26.5490)"/>
<rect fill="currentColor" ry="0.0400" height="2.3122" width="0.1300" y="3.1878" x="-0.0650" transform="translate(70.3822, 26.5490)"/>
<a xlink:href="textedit:///home/kalvis/workspace/ddgatve-songs/songs/lilypond/Samaisi-juIemauktin-us.ly:50:3:4" style="color:inherit;">
<rect fill="currentColor" ry="0.0400" height="0.1300" width="0.6600" y="-0.5500" x="0.0000" transform="translate(64.7391, 35.0854)"/>
</a>
<a xlink:href="textedit:///home/kalvis/workspace/ddgatve-songs/songs/lilypond/Samaisi-juIemauktin-us.ly:40:2:3" style="color:inherit;">
<polygon points="5.6415 0.1100 5.6415 0.5100 0.0400 0.2000 0.0400 -0.2000" stroke="currentColor" fill="currentColor" stroke-width="0.0800" stroke-linecap="round" stroke-linejoin="round" transform="translate(59.2142, 32.0490)"/>
</a>
<a xlink:href="textedit:///home/kalvis/workspace/ddgatve-songs/songs/lilypond/Samaisi-juIemauktin-us.ly:27:2:3" style="color:inherit;">
<polygon points="5.6415 -0.0100 5.6415 0.3900 0.0400 0.2000 0.0400 -0.2000" stroke="currentColor" fill="currentColor" stroke-width="0.0800" stroke-linecap="round" stroke-linejoin="round" transform="translate(60.4004, 25.5490)"/>
</a>
<a xlink:href="textedit:///home/kalvis/workspace/ddgatve-songs/songs/lilypond/Samaisi-juIemauktin-us.ly:49:33:34" style="color:inherit;">
<rect fill="currentColor" ry="0.0400" height="0.1300" width="0.6600" y="-0.5500" x="0.0000" transform="translate(46.8163, 35.0854)"/>
</a>
<a xlink:href="textedit:///home/kalvis/workspace/ddgatve-songs/songs/lilypond/Samaisi-juIemauktin-us.ly:49:27:28" style="color:inherit;">
<rect fill="currentColor" ry="0.0400" height="0.1300" width="0.6600" y="-0.5500" x="0.0000" transform="translate(40.4545, 35.0854)"/>
</a>
<a xlink:href="textedit:///home/kalvis/workspace/ddgatve-songs/songs/lilypond/Samaisi-juIemauktin-us.ly:49:21:22" style="color:inherit;">
<rect fill="currentColor" ry="0.0400" height="0.1300" width="0.6600" y="-0.5500" x="0.0000" transform="translate(35.5821, 35.0854)"/>
</a>
<a xlink:href="textedit:///home/kalvis/workspace/ddgatve-songs/songs/lilypond/Samaisi-juIemauktin-us.ly:49:12:13" style="color:inherit;">
<rect fill="currentColor" ry="0.0400" height="0.1300" width="0.6600" y="-0.5500" x="0.0000" transform="translate(23.1697, 35.0854)"/>
</a>
<a xlink:href="textedit:///home/kalvis/workspace/ddgatve-songs/songs/lilypond/Samaisi-juIemauktin-us.ly:49:3:4" style="color:inherit;">
<rect fill="currentColor" ry="0.0400" height="0.1300" width="0.6600" y="-0.5500" x="0.0000" transform="translate(11.6791, 35.0854)"/>
</a>
<a xlink:href="textedit:///home/kalvis/workspace/ddgatve-songs/songs/lilypond/Samaisi-juIemauktin-us.ly:27:4:5" style="color:inherit;">
<path fill="currentColor" d="M220 138c56 0 109 -29 109 -91c0 -72 -56 -121 -103 -149c-36 -21 -76 -36 -117 -36c-56 0 -109 29 -109 91c0 72 56 121 103 149c36 21 76 36 117 36z" transform="translate(64.7657, 29.0490) scale(0.0040, -0.0040)"/>
</a>
<a xlink:href="textedit:///home/kalvis/workspace/ddgatve-songs/songs/lilypond/Samaisi-juIemauktin-us.ly:40:4:5" style="color:inherit;">
<path fill="currentColor" d="M220 138c56 0 109 -29 109 -91c0 -72 -56 -121 -103 -149c-36 -21 -76 -36 -117 -36c-56 0 -109 29 -109 91c0 72 56 121 103 149c36 21 76 36 117 36z" transform="translate(64.7657, 30.0490) scale(0.0040, -0.0040)"/>
</a>
<rect fill="currentColor" ry="0.0400" height="3.1244" width="0.1300" y="-0.8122" x="-0.0650" transform="translate(66.0169, 26.5490)"/>
<rect fill="currentColor" ry="0.0400" height="2.1186" width="0.1300" y="3.6878" x="-0.0650" transform="translate(64.8307, 26.5490)"/>
<a xlink:href="textedit:///home/kalvis/workspace/ddgatve-songs/songs/lilypond/Samaisi-juIemauktin-us.ly:57:5:6" style="color:inherit;">
<text fill="currentColor" text-anchor="start" font-size="2.6163" font-family="sans-serif" transform="translate(70.3172, 22.2368)">
<tspan>
C</tspan>
</text>
<text fill="currentColor" text-anchor="start" font-size="2.6163" font-family="sans-serif" transform="translate(72.1268, 22.2368)">
<tspan/>
</text>
<text fill="currentColor" text-anchor="start" font-size="2.6163" font-family="sans-serif" transform="translate(72.1268, 22.2368)">
<tspan/>
</text>
<text fill="currentColor" text-anchor="start" font-size="1.8500" font-family="sans-serif" transform="translate(72.1268, 20.7368)">
<tspan/>
</text>
</a>
<a xlink:href="textedit:///home/kalvis/workspace/ddgatve-songs/songs/lilypond/Samaisi-juIemauktin-us.ly:27:7:8" style="color:inherit;">
<path fill="currentColor" d="M220 138c56 0 109 -29 109 -91c0 -72 -56 -121 -103 -149c-36 -21 -76 -36 -117 -36c-56 0 -109 29 -109 91c0 72 56 121 103 149c36 21 76 36 117 36z" transform="translate(70.3172, 29.5490) scale(0.0040, -0.0040)"/>
</a>
<a xlink:href="textedit:///home/kalvis/workspace/ddgatve-songs/songs/lilypond/Samaisi-juIemauktin-us.ly:27:9:10" style="color:inherit;">
<path fill="currentColor" d="M-67 48c0 37 30 67 67 67s67 -30 67 -67s-30 -67 -67 -67s-67 30 -67 67zM0 363c157 0 332 -176 332 -366c0 -9 -10 -15 -19 -15s-17 5 -19 18c-26 148 -146 262 -294 262s-268 -114 -294 -262c-2 -13 -10 -18 -19 -18s-19 6 -19 15c0 190 175 366 332 366z" transform="translate(70.9752, 24.2230) scale(0.0040, -0.0040)"/>
</a>
<a xlink:href="textedit:///home/kalvis/workspace/ddgatve-songs/songs/lilypond/Samaisi-juIemauktin-us.ly:40:7:8" style="color:inherit;">
<path fill="currentColor" d="M220 138c56 0 109 -29 109 -91c0 -72 -56 -121 -103 -149c-36 -21 -76 -36 -117 -36c-56 0 -109 29 -109 91c0 72 56 121 103 149c36 21 76 36 117 36z" transform="translate(70.3172, 29.5490) scale(0.0040, -0.0040)"/>
</a>
<a xlink:href="textedit:///home/kalvis/workspace/ddgatve-songs/songs/lilypond/Samaisi-juIemauktin-us.ly:50:6:7" style="color:inherit;">
<text fill="currentColor" text-anchor="start" font-size="2.4696" font-family="Century Schoolbook L" transform="translate(69.3534, 35.0854)">
<tspan>
go.</tspan>
</text>
</a>
<rect fill="currentColor" ry="0.0400" height="3.3122" width="0.1300" y="-0.5000" x="-0.0650" transform="translate(71.5683, 26.5490)"/>
<path fill="currentColor" d="M0 0h-16v250h16c98 58 227 148 227 259c0 57 -16 112 -41 163c-3 16 10 27 23 27c7 0 15 -3 20 -11c25 -56 40 -117 40 -179c0 -204 -269 -305 -269 -509z" transform="translate(8.2062, 31.5090) scale(0.0040, -0.0040)"/>
<a xlink:href="textedit:///home/kalvis/workspace/ddgatve-songs/songs/lilypond/Samaisi-juIemauktin-us.ly:25:3:4" style="color:inherit;">
<path fill="currentColor" d="M220 138c56 0 109 -29 109 -91c0 -72 -56 -121 -103 -149c-36 -21 -76 -36 -117 -36c-56 0 -109 29 -109 91c0 72 56 121 103 149c36 21 76 36 117 36z" transform="translate(14.1478, 27.5490) scale(0.0040, -0.0040)"/>
</a>
<a xlink:href="textedit:///home/kalvis/workspace/ddgatve-songs/songs/lilypond/Samaisi-juIemauktin-us.ly:38:3:4" style="color:inherit;">
<path fill="currentColor" d="M220 138c56 0 109 -29 109 -91c0 -72 -56 -121 -103 -149c-36 -21 -76 -36 -117 -36c-56 0 -109 29 -109 91c0 72 56 121 103 149c36 21 76 36 117 36z" transform="translate(14.1478, 28.5490) scale(0.0040, -0.0040)"/>
</a>
<a xlink:href="textedit:///home/kalvis/workspace/ddgatve-songs/songs/lilypond/Samaisi-juIemauktin-us.ly:49:6:7" style="color:inherit;">
<text fill="currentColor" text-anchor="start" font-size="2.4696" font-family="Century Schoolbook L" transform="translate(13.5768, 35.0854)">
<tspan>
tu</tspan>
</text>
</a>
<rect fill="currentColor" ry="0.0400" height="3.3122" width="0.1300" y="-2.5000" x="-0.0650" transform="translate(15.3990, 26.5490)"/>
<path fill="currentColor" d="M0 0c0 -198 209 -335 209 -533c0 -71 -16 -141 -42 -207c-5 -8 -12 -12 -19 -12c-13 0 -26 11 -23 27c26 61 42 126 42 192c0 104 -95 208 -167 283h-16v250h16z" transform="translate(15.4640, 24.0890) scale(0.0040, -0.0040)"/>
<rect fill="currentColor" ry="0.0400" height="2.8122" width="0.1300" y="2.1878" x="-0.0650" transform="translate(14.2128, 26.5490)"/>
<path fill="currentColor" d="M0 0h-16v250h16c98 58 227 148 227 259c0 57 -16 112 -41 163c-3 16 10 27 23 27c7 0 15 -3 20 -11c25 -56 40 -117 40 -179c0 -204 -269 -305 -269 -509z" transform="translate(14.2778, 31.5090) scale(0.0040, -0.0040)"/>
<a xlink:href="textedit:///home/kalvis/workspace/ddgatve-songs/songs/lilypond/Samaisi-juIemauktin-us.ly:25:5:6" style="color:inherit;">
<path fill="currentColor" d="M220 138c56 0 109 -29 109 -91c0 -72 -56 -121 -103 -149c-36 -21 -76 -36 -117 -36c-56 0 -109 29 -109 91c0 72 56 121 103 149c36 21 76 36 117 36z" transform="translate(20.0232, 27.5490) scale(0.0040, -0.0040)"/>
</a>
<a xlink:href="textedit:///home/kalvis/workspace/ddgatve-songs/songs/lilypond/Samaisi-juIemauktin-us.ly:38:5:6" style="color:inherit;">
<path fill="currentColor" d="M220 138c56 0 109 -29 109 -91c0 -72 -56 -121 -103 -149c-36 -21 -76 -36 -117 -36c-56 0 -109 29 -109 91c0 72 56 121 103 149c36 21 76 36 117 36z" transform="translate(20.0232, 28.5490) scale(0.0040, -0.0040)"/>
</a>
<a xlink:href="textedit:///home/kalvis/workspace/ddgatve-songs/songs/lilypond/Samaisi-juIemauktin-us.ly:49:9:10" style="color:inherit;">
<text fill="currentColor" text-anchor="start" font-size="2.4696" font-family="Century Schoolbook L" transform="translate(19.5204, 35.0854)">
<tspan>
ce</tspan>
</text>
</a>
<rect fill="currentColor" ry="0.0400" height="3.3122" width="0.1300" y="-2.5000" x="-0.0650" transform="translate(21.2744, 26.5490)"/>
<path fill="currentColor" d="M0 0c0 -198 209 -335 209 -533c0 -71 -16 -141 -42 -207c-5 -8 -12 -12 -19 -12c-13 0 -26 11 -23 27c26 61 42 126 42 192c0 104 -95 208 -167 283h-16v250h16z" transform="translate(21.3394, 24.0890) scale(0.0040, -0.0040)"/>
<text fill="currentColor" text-anchor="start" font-size="1.7461" font-family="Century Schoolbook L" transform="translate(1.3202, 23.4648)">
<tspan>
3</tspan>
</text>
<path fill="currentColor" d="M376 262c4 0 9 1 13 1c155 0 256 -128 256 -261c0 -76 -33 -154 -107 -210c-22 -17 -47 -28 -73 -36c3 -35 5 -70 5 -105c0 -19 -1 -39 -2 -58c-7 -120 -90 -228 -208 -228c-108 0 -195 88 -195 197c0 58 53 103 112 103c54 0 95 -47 95 -103c0 -52 -43 -95 -95 -95 c-11 0 -21 2 -31 6c26 -39 68 -65 117 -65c96 0 157 92 163 191c1 18 2 37 2 55c0 31 -1 61 -4 92c-29 -5 -58 -8 -89 -8c-188 0 -333 172 -333 374c0 177 131 306 248 441c-19 62 -37 125 -45 190c-6 52 -7 104 -7 156c0 115 55 224 149 292c3 2 7 3 10 3c4 0 7 0 10 -3 c71 -84 133 -245 133 -358c0 -143 -86 -255 -180 -364c21 -68 39 -138 56 -207zM461 -203c68 24 113 95 113 164c0 90 -66 179 -173 190c24 -116 46 -231 60 -354zM74 28c0 -135 129 -247 264 -247c28 0 55 2 82 6c-14 127 -37 245 -63 364c-79 -8 -124 -61 -124 -119 c0 -44 25 -91 81 -123c5 -5 7 -10 7 -15c0 -11 -10 -22 -22 -22c-3 0 -6 1 -9 2c-80 43 -117 115 -117 185c0 88 58 174 160 197c-14 58 -29 117 -46 175c-107 -121 -213 -243 -213 -403zM408 1045c-99 -48 -162 -149 -162 -259c0 -74 18 -133 36 -194 c80 97 146 198 146 324c0 55 -4 79 -20 129z" transform="translate(3.0762, 27.5490) scale(0.0040, -0.0040)"/>
<a xlink:href="textedit:///home/kalvis/workspace/ddgatve-songs/songs/lilypond/Samaisi-juIemauktin-us.ly:55:24:25" style="color:inherit;">
<text fill="currentColor" text-anchor="start" font-size="2.6163" font-family="sans-serif" transform="translate(8.0762, 22.2368)">
<tspan>
C</tspan>
</text>
<text fill="currentColor" text-anchor="start" font-size="2.6163" font-family="sans-serif" transform="translate(9.8858, 22.2368)">
<tspan/>
</text>
<text fill="currentColor" text-anchor="start" font-size="2.6163" font-family="sans-serif" transform="translate(9.8858, 22.2368)">
<tspan/>
</text>
<text fill="currentColor" text-anchor="start" font-size="1.8500" font-family="sans-serif" transform="translate(9.8858, 20.7368)">
<tspan/>
</text>
</a>
<a xlink:href="textedit:///home/kalvis/workspace/ddgatve-songs/songs/lilypond/Samaisi-juIemauktin-us.ly:25:0:1" style="color:inherit;">
<path fill="currentColor" d="M220 138c56 0 109 -29 109 -91c0 -72 -56 -121 -103 -149c-36 -21 -76 -36 -117 -36c-56 0 -109 29 -109 91c0 72 56 121 103 149c36 21 76 36 117 36z" transform="translate(8.0762, 27.5490) scale(0.0040, -0.0040)"/>
</a>
<a xlink:href="textedit:///home/kalvis/workspace/ddgatve-songs/songs/lilypond/Samaisi-juIemauktin-us.ly:38:0:1" style="color:inherit;">
<path fill="currentColor" d="M220 138c56 0 109 -29 109 -91c0 -72 -56 -121 -103 -149c-36 -21 -76 -36 -117 -36c-56 0 -109 29 -109 91c0 72 56 121 103 149c36 21 76 36 117 36z" transform="translate(8.0762, 28.5490) scale(0.0040, -0.0040)"/>
</a>
<a xlink:href="textedit:///home/kalvis/workspace/ddgatve-songs/songs/lilypond/Samaisi-juIemauktin-us.ly:49:0:1" style="color:inherit;">
<text fill="currentColor" text-anchor="start" font-size="2.4696" font-family="Century Schoolbook L" transform="translate(7.0271, 35.0854)">
<tspan>
me</tspan>
</text>
</a>
<rect fill="currentColor" ry="0.0400" height="3.3122" width="0.1300" y="-2.5000" x="-0.0650" transform="translate(9.3274, 26.5490)"/>
<path fill="currentColor" d="M0 0c0 -198 209 -335 209 -533c0 -71 -16 -141 -42 -207c-5 -8 -12 -12 -19 -12c-13 0 -26 11 -23 27c26 61 42 126 42 192c0 104 -95 208 -167 283h-16v250h16z" transform="translate(9.3924, 24.0890) scale(0.0040, -0.0040)"/>
<rect fill="currentColor" ry="0.0400" height="2.8122" width="0.1300" y="2.1878" x="-0.0650" transform="translate(8.1412, 26.5490)"/>
<a xlink:href="textedit:///home/kalvis/workspace/ddgatve-songs/songs/lilypond/Samaisi-juIemauktin-us.ly:25:9:10" style="color:inherit;">
<path fill="currentColor" d="M220 138c56 0 109 -29 109 -91c0 -72 -56 -121 -103 -149c-36 -21 -76 -36 -117 -36c-56 0 -109 29 -109 91c0 72 56 121 103 149c36 21 76 36 117 36z" transform="translate(31.9109, 28.0490) scale(0.0040, -0.0040)"/>
</a>
<a xlink:href="textedit:///home/kalvis/workspace/ddgatve-songs/songs/lilypond/Samaisi-juIemauktin-us.ly:38:9:10" style="color:inherit;">
<path fill="currentColor" d="M220 138c56 0 109 -29 109 -91c0 -72 -56 -121 -103 -149c-36 -21 -76 -36 -117 -36c-56 0 -109 29 -109 91c0 72 56 121 103 149c36 21 76 36 117 36z" transform="translate(31.9109, 29.0490) scale(0.0040, -0.0040)"/>
</a>
<a xlink:href="textedit:///home/kalvis/workspace/ddgatve-songs/songs/lilypond/Samaisi-juIemauktin-us.ly:49:18:19" style="color:inherit;">
<text fill="currentColor" text-anchor="start" font-size="2.4696" font-family="Century Schoolbook L" transform="translate(30.7936, 35.0854)">
<tspan>
ma</tspan>
</text>
</a>
<rect fill="currentColor" ry="0.0400" height="3.3122" width="0.1300" y="-2.0000" x="-0.0650" transform="translate(33.1621, 26.5490)"/>
<path fill="currentColor" d="M0 0c0 -198 209 -335 209 -533c0 -71 -16 -141 -42 -207c-5 -8 -12 -12 -19 -12c-13 0 -26 11 -23 27c26 61 42 126 42 192c0 104 -95 208 -167 283h-16v250h16z" transform="translate(33.2271, 24.5890) scale(0.0040, -0.0040)"/>
<rect fill="currentColor" ry="0.0400" height="2.8122" width="0.1300" y="2.6878" x="-0.0650" transform="translate(31.9759, 26.5490)"/>
<path fill="currentColor" d="M0 0h-16v250h16c98 58 227 148 227 259c0 57 -16 112 -41 163c-3 16 10 27 23 27c7 0 15 -3 20 -11c25 -56 40 -117 40 -179c0 -204 -269 -305 -269 -509z" transform="translate(32.0409, 32.0090) scale(0.0040, -0.0040)"/>
<a xlink:href="textedit:///home/kalvis/workspace/ddgatve-songs/songs/lilypond/Samaisi-juIemauktin-us.ly:25:11:12" style="color:inherit;">
<path fill="currentColor" d="M220 138c56 0 109 -29 109 -91c0 -72 -56 -121 -103 -149c-36 -21 -76 -36 -117 -36c-56 0 -109 29 -109 91c0 72 56 121 103 149c36 21 76 36 117 36z" transform="translate(37.6070, 28.5490) scale(0.0040, -0.0040)"/>
</a>
<a xlink:href="textedit:///home/kalvis/workspace/ddgatve-songs/songs/lilypond/Samaisi-juIemauktin-us.ly:38:11:12" style="color:inherit;">
<path fill="currentColor" d="M220 138c56 0 109 -29 109 -91c0 -72 -56 -121 -103 -149c-36 -21 -76 -36 -117 -36c-56 0 -109 29 -109 91c0 72 56 121 103 149c36 21 76 36 117 36z" transform="translate(37.6070, 29.5490) scale(0.0040, -0.0040)"/>
</a>
<a xlink:href="textedit:///home/kalvis/workspace/ddgatve-songs/songs/lilypond/Samaisi-juIemauktin-us.ly:49:24:25" style="color:inherit;">
<text fill="currentColor" text-anchor="start" font-size="2.4696" font-family="Century Schoolbook L" transform="translate(37.4798, 35.0854)">
<tspan>
li</tspan>
</text>
</a>
<rect fill="currentColor" ry="0.0400" height="3.3122" width="0.1300" y="-1.5000" x="-0.0650" transform="translate(38.8582, 26.5490)"/>
<path fill="currentColor" d="M0 0c0 -198 209 -335 209 -533c0 -71 -16 -141 -42 -207c-5 -8 -12 -12 -19 -12c-13 0 -26 11 -23 27c26 61 42 126 42 192c0 104 -95 208 -167 283h-16v250h16z" transform="translate(38.9232, 25.0890) scale(0.0040, -0.0040)"/>
<rect fill="currentColor" ry="0.0400" height="2.8122" width="0.1300" y="3.1878" x="-0.0650" transform="translate(37.6720, 26.5490)"/>
<path fill="currentColor" d="M0 0h-16v250h16c98 58 227 148 227 259c0 57 -16 112 -41 163c-3 16 10 27 23 27c7 0 15 -3 20 -11c25 -56 40 -117 40 -179c0 -204 -269 -305 -269 -509z" transform="translate(37.7370, 32.5090) scale(0.0040, -0.0040)"/>
<rect fill="currentColor" ry="0.0400" height="2.8122" width="0.1300" y="2.1878" x="-0.0650" transform="translate(20.0882, 26.5490)"/>
<path fill="currentColor" d="M0 0h-16v250h16c98 58 227 148 227 259c0 57 -16 112 -41 163c-3 16 10 27 23 27c7 0 15 -3 20 -11c25 -56 40 -117 40 -179c0 -204 -269 -305 -269 -509z" transform="translate(20.1532, 31.5090) scale(0.0040, -0.0040)"/>
<a xlink:href="textedit:///home/kalvis/workspace/ddgatve-songs/songs/lilypond/Samaisi-juIemauktin-us.ly:25:7:8" style="color:inherit;">
<path fill="currentColor" d="M220 138c56 0 109 -29 109 -91c0 -72 -56 -121 -103 -149c-36 -21 -76 -36 -117 -36c-56 0 -109 29 -109 91c0 72 56 121 103 149c36 21 76 36 117 36z" transform="translate(25.5747, 28.5490) scale(0.0040, -0.0040)"/>
</a>
<a xlink:href="textedit:///home/kalvis/workspace/ddgatve-songs/songs/lilypond/Samaisi-juIemauktin-us.ly:38:7:8" style="color:inherit;">
<path fill="currentColor" d="M220 138c56 0 109 -29 109 -91c0 -72 -56 -121 -103 -149c-36 -21 -76 -36 -117 -36c-56 0 -109 29 -109 91c0 72 56 121 103 149c36 21 76 36 117 36z" transform="translate(25.5747, 29.5490) scale(0.0040, -0.0040)"/>
</a>
<a xlink:href="textedit:///home/kalvis/workspace/ddgatve-songs/songs/lilypond/Samaisi-juIemauktin-us.ly:49:15:16" style="color:inherit;">
<text fill="currentColor" text-anchor="start" font-size="2.4696" font-family="Century Schoolbook L" transform="translate(25.1572, 35.0854)">
<tspan>
ļa</tspan>
</text>
</a>
<rect fill="currentColor" ry="0.0400" height="3.3122" width="0.1300" y="-1.5000" x="-0.0650" transform="translate(26.8258, 26.5490)"/>
<path fill="currentColor" d="M0 0c0 -198 209 -335 209 -533c0 -71 -16 -141 -42 -207c-5 -8 -12 -12 -19 -12c-13 0 -26 11 -23 27c26 61 42 126 42 192c0 104 -95 208 -167 283h-16v250h16z" transform="translate(26.8908, 25.0890) scale(0.0040, -0.0040)"/>
<rect fill="currentColor" ry="0.0400" height="2.8122" width="0.1300" y="3.1878" x="-0.0650" transform="translate(25.6397, 26.5490)"/>
<path fill="currentColor" d="M0 0h-16v250h16c98 58 227 148 227 259c0 57 -16 112 -41 163c-3 16 10 27 23 27c7 0 15 -3 20 -11c25 -56 40 -117 40 -179c0 -204 -269 -305 -269 -509z" transform="translate(25.7047, 32.5090) scale(0.0040, -0.0040)"/>
<g color="rgb(100%, 100%, 100%)">
<text fill="currentColor" text-anchor="start" font-size="1.9600" font-family="sans-serif" transform="translate(2.2762, 38.5490)">
<tspan>
 </tspan>
</text>
</g>
<a xlink:href="http://lilypond.org/" transform="translate(13.8223, 165.1512)">
<rect stroke-width="0.0" stroke="none" fill="none" height="2.0827" width="56.5755" y="-0.4439" x="0.0000"/>
</a>
<text fill="currentColor" text-anchor="start" font-size="2.2001" font-family="Century Schoolbook L" transform="translate(13.8223, 165.1512)">
<tspan>
Music engraving by LilyPond 2.18.2—www.lilypond.org</tspan>
</text>
</svg>