<svg xmlns="http://www.w3.org/2000/svg" xmlns:xlink="http://www.w3.org/1999/xlink" version="1.2" width="143.9999mm" height="50.961655mm" viewBox="0.05 3.8453 81.94389800950884 28.999998">

<text fill="currentColor" text-anchor="start" font-size="2.2001" font-family="Century Schoolbook L" transform="translate(2.2762, 2.8453)">
<tspan>
 </tspan>
</text>
<text fill="currentColor" text-anchor="start" font-size="2.2001" font-family="Century Schoolbook L" transform="translate(2.2762, 3.8453)">
<tspan>
 </tspan>
</text>
<text fill="currentColor" text-anchor="start" font-size="2.2001" font-family="Century Schoolbook L" transform="translate(79.7588, 3.8453)">
<tspan>
 </tspan>
</text>
<rect fill="currentColor" ry="0.0000" height="4.0000" width="0.1900" y="-2.0000" x="0.0000" transform="translate(81.7539, 8.8453)"/>
<rect fill="currentColor" ry="0.0000" height="4.0000" width="0.1900" y="-2.0000" x="0.0000" transform="translate(29.5761, 8.8453)"/>
<rect fill="currentColor" ry="0.0000" height="4.0000" width="0.1900" y="-2.0000" x="0.0000" transform="translate(50.5060, 8.8453)"/>
<rect fill="currentColor" ry="0.0000" height="4.0000" width="0.1900" y="-2.0000" x="0.0000" transform="translate(65.6277, 8.8453)"/>
<line y2="-0.0000" x2="79.6177" y1="-0.0000" x1="0.0500" stroke="currentColor" stroke-width="0.1000" stroke-linecap="round" stroke-linejoin="round" transform="translate(2.2762, 10.8453)"/>
<line y2="-0.0000" x2="79.6177" y1="-0.0000" x1="0.0500" stroke="currentColor" stroke-width="0.1000" stroke-linecap="round" stroke-linejoin="round" transform="translate(2.2762, 9.8453)"/>
<line y2="-0.0000" x2="79.6177" y1="-0.0000" x1="0.0500" stroke="currentColor" stroke-width="0.1000" stroke-linecap="round" stroke-linejoin="round" transform="translate(2.2762, 8.8453)"/>
<line y2="-0.0000" x2="79.6177" y1="-0.0000" x1="0.0500" stroke="currentColor" stroke-width="0.1000" stroke-linecap="round" stroke-linejoin="round" transform="translate(2.2762, 7.8453)"/>
<line y2="-0.0000" x2="79.6177" y1="-0.0000" x1="0.0500" stroke="currentColor" stroke-width="0.1000" stroke-linecap="round" stroke-linejoin="round" transform="translate(2.2762, 6.8453)"/>
<a xlink:href="textedit:///home/kalvis/workspace/ddgatve-songs/songs/lilypond/Zal-aZal-aSkal-aSkal-a.ly:21:27:28" style="color:inherit;">
<path fill="currentColor" d="M220 138c56 0 109 -29 109 -91c0 -72 -56 -121 -103 -149c-36 -21 -76 -36 -117 -36c-56 0 -109 29 -109 91c0 72 56 121 103 149c36 21 76 36 117 36z" transform="translate(58.9193, 9.3453) scale(0.0040, -0.0040)"/>
</a>
<a xlink:href="textedit:///home/kalvis/workspace/ddgatve-songs/songs/lilypond/Zal-aZal-aSkal-aSkal-a.ly:27:48:49" style="color:inherit;">
<text fill="currentColor" text-anchor="start" font-size="2.4696" font-family="Century Schoolbook L" transform="translate(57.8190, 14.5299)">
<tspan>
gū,</tspan>
</text>
</a>
<rect fill="currentColor" ry="0.0400" height="3.3122" width="0.1300" y="-3.0000" x="-0.0650" transform="translate(60.1705, 8.8453)"/>
<a xlink:href="textedit:///home/kalvis/workspace/ddgatve-songs/songs/lilypond/Zal-aZal-aSkal-aSkal-a.ly:21:32:33" style="color:inherit;">
<path fill="currentColor" d="M220 138c56 0 109 -29 109 -91c0 -72 -56 -121 -103 -149c-36 -21 -76 -36 -117 -36c-56 0 -109 29 -109 91c0 72 56 121 103 149c36 21 76 36 117 36z" transform="translate(67.3513, 8.8453) scale(0.0040, -0.0040)"/>
</a>
<a xlink:href="textedit:///home/kalvis/workspace/ddgatve-songs/songs/lilypond/Zal-aZal-aSkal-aSkal-a.ly:27:52:53" style="color:inherit;">
<text fill="currentColor" text-anchor="start" font-size="2.4696" font-family="Century Schoolbook L" transform="translate(66.6437, 14.5299)">
<tspan>
Jā</tspan>
</text>
</a>
<rect fill="currentColor" ry="0.0400" height="3.1455" width="0.1300" y="0.1878" x="-0.0650" transform="translate(67.4163, 8.8453)"/>
<a xlink:href="textedit:///home/kalvis/workspace/ddgatve-songs/songs/lilypond/Zal-aZal-aSkal-aSkal-a.ly:21:19:20" style="color:inherit;">
<path fill="currentColor" d="M220 138c56 0 109 -29 109 -91c0 -72 -56 -121 -103 -149c-36 -21 -76 -36 -117 -36c-56 0 -109 29 -109 91c0 72 56 121 103 149c36 21 76 36 117 36z" transform="translate(46.4403, 9.3453) scale(0.0040, -0.0040)"/>
</a>
<a xlink:href="textedit:///home/kalvis/workspace/ddgatve-songs/songs/lilypond/Zal-aZal-aSkal-aSkal-a.ly:27:38:39" style="color:inherit;">
<text fill="currentColor" text-anchor="start" font-size="2.4696" font-family="Century Schoolbook L" transform="translate(45.6815, 14.5299)">
<tspan>
ļa,</tspan>
</text>
</a>
<rect fill="currentColor" ry="0.0400" height="3.3122" width="0.1300" y="-3.0000" x="-0.0650" transform="translate(47.6915, 8.8453)"/>
<path fill="currentColor" d="M0 0c0 -198 209 -335 209 -533c0 -71 -16 -141 -42 -207c-5 -8 -12 -12 -19 -12c-13 0 -26 11 -23 27c26 61 42 126 42 192c0 104 -95 208 -167 283h-16v250h16z" transform="translate(47.7565, 5.8853) scale(0.0040, -0.0040)"/>
<a xlink:href="textedit:///home/kalvis/workspace/ddgatve-songs/songs/lilypond/Zal-aZal-aSkal-aSkal-a.ly:21:23:24" style="color:inherit;">
<path fill="currentColor" d="M220 138c56 0 109 -29 109 -91c0 -72 -56 -121 -103 -149c-36 -21 -76 -36 -117 -36c-56 0 -109 29 -109 91c0 72 56 121 103 149c36 21 76 36 117 36z" transform="translate(52.1261, 11.3453) scale(0.0040, -0.0040)"/>
</a>
<a xlink:href="textedit:///home/kalvis/workspace/ddgatve-songs/songs/lilypond/Zal-aZal-aSkal-aSkal-a.ly:27:42:43" style="color:inherit;">
<text fill="currentColor" text-anchor="start" font-size="2.4696" font-family="Century Schoolbook L" transform="translate(51.9989, 14.5299)">
<tspan>
lī</tspan>
</text>
</a>
<rect fill="currentColor" ry="0.0400" height="3.3122" width="0.1300" y="-1.0000" x="-0.0650" transform="translate(53.3773, 8.8453)"/>
<a xlink:href="textedit:///home/kalvis/workspace/ddgatve-songs/songs/lilypond/Zal-aZal-aSkal-aSkal-a.ly:27:61:62" style="color:inherit;">
<rect fill="currentColor" ry="0.0400" height="0.1300" width="0.6600" y="-0.5500" x="0.0000" transform="translate(76.1448, 14.5299)"/>
</a>
<a xlink:href="textedit:///home/kalvis/workspace/ddgatve-songs/songs/lilypond/Zal-aZal-aSkal-aSkal-a.ly:27:55:56" style="color:inherit;">
<rect fill="currentColor" ry="0.0400" height="0.1300" width="0.6600" y="-0.5500" x="0.0000" transform="translate(71.0620, 14.5299)"/>
</a>
<a xlink:href="textedit:///home/kalvis/workspace/ddgatve-songs/songs/lilypond/Zal-aZal-aSkal-aSkal-a.ly:27:45:46" style="color:inherit;">
<rect fill="currentColor" ry="0.0400" height="0.1300" width="0.6600" y="-0.5500" x="0.0000" transform="translate(55.3643, 14.5299)"/>
</a>
<a xlink:href="textedit:///home/kalvis/workspace/ddgatve-songs/songs/lilypond/Zal-aZal-aSkal-aSkal-a.ly:27:35:36" style="color:inherit;">
<rect fill="currentColor" ry="0.0400" height="0.1300" width="0.6600" y="-0.5500" x="0.0000" transform="translate(44.5947, 14.5299)"/>
</a>
<a xlink:href="textedit:///home/kalvis/workspace/ddgatve-songs/songs/lilypond/Zal-aZal-aSkal-aSkal-a.ly:27:24:25" style="color:inherit;">
<rect fill="currentColor" ry="0.0400" height="0.1300" width="0.6600" y="-0.5500" x="0.0000" transform="translate(34.4231, 14.5299)"/>
</a>
<a xlink:href="textedit:///home/kalvis/workspace/ddgatve-songs/songs/lilypond/Zal-aZal-aSkal-aSkal-a.ly:27:13:14" style="color:inherit;">
<rect fill="currentColor" ry="0.0400" height="0.1300" width="0.6600" y="-0.5500" x="0.0000" transform="translate(23.7215, 14.5299)"/>
</a>
<a xlink:href="textedit:///home/kalvis/workspace/ddgatve-songs/songs/lilypond/Zal-aZal-aSkal-aSkal-a.ly:27:3:4" style="color:inherit;">
<rect fill="currentColor" ry="0.0400" height="0.1300" width="0.6600" y="-0.5500" x="0.0000" transform="translate(14.9498, 14.5299)"/>
</a>
<a xlink:href="textedit:///home/kalvis/workspace/ddgatve-songs/songs/lilypond/Zal-aZal-aSkal-aSkal-a.ly:21:35:36" style="color:inherit;">
<path fill="currentColor" d="M220 138c56 0 109 -29 109 -91c0 -72 -56 -121 -103 -149c-36 -21 -76 -36 -117 -36c-56 0 -109 29 -109 91c0 72 56 121 103 149c36 21 76 36 117 36z" transform="translate(73.8945, 8.3453) scale(0.0040, -0.0040)"/>
</a>
<a xlink:href="textedit:///home/kalvis/workspace/ddgatve-songs/songs/lilypond/Zal-aZal-aSkal-aSkal-a.ly:27:58:59" style="color:inherit;">
<text fill="currentColor" text-anchor="start" font-size="2.4696" font-family="Century Schoolbook L" transform="translate(73.4088, 14.5299)">
<tspan>
ni</tspan>
</text>
</a>
<rect fill="currentColor" ry="0.0400" height="3.3122" width="0.1300" y="-0.3122" x="-0.0650" transform="translate(73.9595, 8.8453)"/>
<path fill="currentColor" d="M0 0h-16v250h16c98 58 227 148 227 259c0 57 -16 112 -41 163c-3 16 10 27 23 27c7 0 15 -3 20 -11c25 -56 40 -117 40 -179c0 -204 -269 -305 -269 -509z" transform="translate(74.0245, 11.8053) scale(0.0040, -0.0040)"/>
<a xlink:href="textedit:///home/kalvis/workspace/ddgatve-songs/songs/lilypond/Zal-aZal-aSkal-aSkal-a.ly:21:38:39" style="color:inherit;">
<path fill="currentColor" d="M220 138c56 0 109 -29 109 -91c0 -72 -56 -121 -103 -149c-36 -21 -76 -36 -117 -36c-56 0 -109 29 -109 91c0 72 56 121 103 149c36 21 76 36 117 36z" transform="translate(77.8242, 8.8453) scale(0.0040, -0.0040)"/>
</a>
<a xlink:href="textedit:///home/kalvis/workspace/ddgatve-songs/songs/lilypond/Zal-aZal-aSkal-aSkal-a.ly:27:64:65" style="color:inherit;">
<text fill="currentColor" text-anchor="start" font-size="2.4696" font-family="Century Schoolbook L" transform="translate(77.2532, 14.5299)">
<tspan>
ti!</tspan>
</text>
</a>
<rect fill="currentColor" ry="0.0400" height="3.1872" width="0.1300" y="0.1878" x="-0.0650" transform="translate(77.8892, 8.8453)"/>
<path fill="currentColor" d="M0 0h-16v250h16c98 58 227 148 227 259c0 57 -16 112 -41 163c-3 16 10 27 23 27c7 0 15 -3 20 -11c25 -56 40 -117 40 -179c0 -204 -269 -305 -269 -509z" transform="translate(77.9542, 12.1803) scale(0.0040, -0.0040)"/>
<a xlink:href="textedit:///home/kalvis/workspace/ddgatve-songs/songs/lilypond/Zal-aZal-aSkal-aSkal-a.ly:21:3:4" style="color:inherit;">
<path fill="currentColor" d="M220 138c56 0 109 -29 109 -91c0 -72 -56 -121 -103 -149c-36 -21 -76 -36 -117 -36c-56 0 -109 29 -109 91c0 72 56 121 103 149c36 21 76 36 117 36z" transform="translate(16.7954, 8.8453) scale(0.0040, -0.0040)"/>
</a>
<a xlink:href="textedit:///home/kalvis/workspace/ddgatve-songs/songs/lilypond/Zal-aZal-aSkal-aSkal-a.ly:27:6:7" style="color:inherit;">
<text fill="currentColor" text-anchor="start" font-size="2.4696" font-family="Century Schoolbook L" transform="translate(16.0366, 14.5299)">
<tspan>
ļa,</tspan>
</text>
</a>
<rect fill="currentColor" ry="0.0400" height="3.1872" width="0.1300" y="0.1878" x="-0.0650" transform="translate(16.8604, 8.8453)"/>
<path fill="currentColor" d="M0 0h-16v250h16c98 58 227 148 227 259c0 57 -16 112 -41 163c-3 16 10 27 23 27c7 0 15 -3 20 -11c25 -56 40 -117 40 -179c0 -204 -269 -305 -269 -509z" transform="translate(16.9254, 12.1803) scale(0.0040, -0.0040)"/>
<a xlink:href="textedit:///home/kalvis/workspace/ddgatve-songs/songs/lilypond/Zal-aZal-aSkal-aSkal-a.ly:21:6:7" style="color:inherit;">
<path fill="currentColor" d="M220 138c56 0 109 -29 109 -91c0 -72 -56 -121 -103 -149c-36 -21 -76 -36 -117 -36c-56 0 -109 29 -109 91c0 72 56 121 103 149c36 21 76 36 117 36z" transform="translate(21.3563, 8.8453) scale(0.0040, -0.0040)"/>
</a>
<a xlink:href="textedit:///home/kalvis/workspace/ddgatve-songs/songs/lilypond/Zal-aZal-aSkal-aSkal-a.ly:27:10:11" style="color:inherit;">
<text fill="currentColor" text-anchor="start" font-size="2.4696" font-family="Century Schoolbook L" transform="translate(20.7340, 14.5299)">
<tspan>
za</tspan>
</text>
</a>
<rect fill="currentColor" ry="0.0400" height="3.1872" width="0.1300" y="0.1878" x="-0.0650" transform="translate(21.4213, 8.8453)"/>
<path fill="currentColor" d="M0 0h-16v250h16c98 58 227 148 227 259c0 57 -16 112 -41 163c-3 16 10 27 23 27c7 0 15 -3 20 -11c25 -56 40 -117 40 -179c0 -204 -269 -305 -269 -509z" transform="translate(21.4863, 12.1803) scale(0.0040, -0.0040)"/>
<a xlink:href="textedit:///home/kalvis/workspace/ddgatve-songs/songs/lilypond/Zal-aZal-aSkal-aSkal-a.ly:21:8:9" style="color:inherit;">
<path fill="currentColor" d="M220 138c56 0 109 -29 109 -91c0 -72 -56 -121 -103 -149c-36 -21 -76 -36 -117 -36c-56 0 -109 29 -109 91c0 72 56 121 103 149c36 21 76 36 117 36z" transform="translate(25.5671, 8.8453) scale(0.0040, -0.0040)"/>
</a>
<a xlink:href="textedit:///home/kalvis/workspace/ddgatve-songs/songs/lilypond/Zal-aZal-aSkal-aSkal-a.ly:27:16:17" style="color:inherit;">
<text fill="currentColor" text-anchor="start" font-size="2.4696" font-family="Century Schoolbook L" transform="translate(24.8083, 14.5299)">
<tspan>
ļa,</tspan>
</text>
</a>
<rect fill="currentColor" ry="0.0400" height="3.1872" width="0.1300" y="0.1878" x="-0.0650" transform="translate(25.6321, 8.8453)"/>
<path fill="currentColor" d="M0 0h-16v250h16c98 58 227 148 227 259c0 57 -16 112 -41 163c-3 16 10 27 23 27c7 0 15 -3 20 -11c25 -56 40 -117 40 -179c0 -204 -269 -305 -269 -509z" transform="translate(25.6971, 12.1803) scale(0.0040, -0.0040)"/>
<a xlink:href="textedit:///home/kalvis/workspace/ddgatve-songs/songs/lilypond/Zal-aZal-aSkal-aSkal-a.ly:21:0:1" style="color:inherit;">
<path fill="currentColor" d="M220 138c56 0 109 -29 109 -91c0 -72 -56 -121 -103 -149c-36 -21 -76 -36 -117 -36c-56 0 -109 29 -109 91c0 72 56 121 103 149c36 21 76 36 117 36z" transform="translate(12.4310, 10.8453) scale(0.0040, -0.0040)"/>
</a>
<path fill="currentColor" d="M376 262c4 0 9 1 13 1c155 0 256 -128 256 -261c0 -76 -33 -154 -107 -210c-22 -17 -47 -28 -73 -36c3 -35 5 -70 5 -105c0 -19 -1 -39 -2 -58c-7 -120 -90 -228 -208 -228c-108 0 -195 88 -195 197c0 58 53 103 112 103c54 0 95 -47 95 -103c0 -52 -43 -95 -95 -95 c-11 0 -21 2 -31 6c26 -39 68 -65 117 -65c96 0 157 92 163 191c1 18 2 37 2 55c0 31 -1 61 -4 92c-29 -5 -58 -8 -89 -8c-188 0 -333 172 -333 374c0 177 131 306 248 441c-19 62 -37 125 -45 190c-6 52 -7 104 -7 156c0 115 55 224 149 292c3 2 7 3 10 3c4 0 7 0 10 -3 c71 -84 133 -245 133 -358c0 -143 -86 -255 -180 -364c21 -68 39 -138 56 -207zM461 -203c68 24 113 95 113 164c0 90 -66 179 -173 190c24 -116 46 -231 60 -354zM74 28c0 -135 129 -247 264 -247c28 0 55 2 82 6c-14 127 -37 245 -63 364c-79 -8 -124 -61 -124 -119 c0 -44 25 -91 81 -123c5 -5 7 -10 7 -15c0 -11 -10 -22 -22 -22c-3 0 -6 1 -9 2c-80 43 -117 115 -117 185c0 88 58 174 160 197c-14 58 -29 117 -46 175c-107 -121 -213 -243 -213 -403zM408 1045c-99 -48 -162 -149 -162 -259c0 -74 18 -133 36 -194 c80 97 146 198 146 324c0 55 -4 79 -20 129z" transform="translate(3.0762, 9.8453) scale(0.0040, -0.0040)"/>
<a xlink:href="textedit:///home/kalvis/workspace/ddgatve-songs/songs/lilypond/Zal-aZal-aSkal-aSkal-a.ly:19:0:1" style="color:inherit;">
<path fill="currentColor" d="M216 -312c0 -10 -8 -19 -18 -19s-19 9 -19 19v145l-83 -31v-158c0 -10 -9 -19 -19 -19s-18 9 -18 19v145l-32 -12c-2 -1 -5 -1 -7 -1c-11 0 -20 9 -20 20v60c0 8 5 16 13 19l46 16v160l-32 -11c-2 -1 -5 -1 -7 -1c-11 0 -20 9 -20 20v60c0 8 5 15 13 18l46 17v158 c0 10 8 19 18 19s19 -9 19 -19v-145l83 31v158c0 10 9 19 19 19s18 -9 18 -19v-145l32 12c2 1 5 1 7 1c11 0 20 -9 20 -20v-60c0 -8 -5 -16 -13 -19l-46 -16v-160l32 11c2 1 5 1 7 1c11 0 20 -9 20 -20v-60c0 -8 -5 -15 -13 -18l-46 -17v-158zM96 65v-160l83 30v160z" transform="translate(6.5762, 6.8453) scale(0.0040, -0.0040)"/>
</a>
<path fill="currentColor" d="M204 307c22 14 44 29 60 50c11 15 19 33 27 50c2 4 5 6 9 6c6 0 13 -5 13 -14v-245h72c10 0 15 -7 15 -14s-5 -15 -15 -15h-72v-8c0 -48 27 -94 72 -94c8 0 12 -5 12 -11s-4 -12 -12 -12c-44 0 -87 13 -131 13s-87 -13 -131 -13c-8 0 -12 6 -12 12s4 11 12 11 c45 0 73 46 73 94v8h-167c-23 0 -31 14 -31 23c0 3 1 5 2 6c80 93 138 207 138 330c0 9 6 16 13 16h3c23 -7 47 -13 71 -13s48 6 71 13c2 1 3 1 5 1c11 0 18 -10 12 -17l-284 -330h167v131c0 8 1 17 8 22z" transform="translate(8.8262, 10.8597) scale(0.0040, -0.0040)"/>
<path fill="currentColor" d="M23 11c-1 -7 -6 -11 -11 -11c-6 0 -12 4 -12 11c0 175 235 165 235 344c0 60 -18 122 -70 122c-26 0 -51 -14 -51 -37c0 -27 35 -41 35 -68c0 -38 -30 -69 -68 -69s-69 31 -69 69c0 76 72 128 153 128c96 0 187 -56 187 -145c0 -153 -151 -159 -249 -220c9 2 17 3 26 3 c33 0 70 -11 105 -36c21 -15 46 -23 66 -23c21 0 39 9 44 29c2 6 6 9 11 9c6 0 12 -5 12 -12c0 -67 -90 -105 -138 -105c-36 0 -71 14 -96 44c-13 16 -31 22 -48 22c-30 0 -59 -20 -62 -55z" transform="translate(8.8945, 8.8453) scale(0.0040, -0.0040)"/>
<a xlink:href="textedit:///home/kalvis/workspace/ddgatve-songs/songs/lilypond/Zal-aZal-aSkal-aSkal-a.ly:27:0:1" style="color:inherit;">
<text fill="currentColor" text-anchor="start" font-size="2.4696" font-family="Century Schoolbook L" transform="translate(11.6550, 14.5299)">
<tspan>
Za</tspan>
</text>
</a>
<rect fill="currentColor" ry="0.0400" height="3.3122" width="0.1300" y="-1.5000" x="-0.0650" transform="translate(13.6821, 8.8453)"/>
<path fill="currentColor" d="M0 0c0 -198 209 -335 209 -533c0 -71 -16 -141 -42 -207c-5 -8 -12 -12 -19 -12c-13 0 -26 11 -23 27c26 61 42 126 42 192c0 104 -95 208 -167 283h-16v250h16z" transform="translate(13.7471, 7.3853) scale(0.0040, -0.0040)"/>
<a xlink:href="textedit:///home/kalvis/workspace/ddgatve-songs/songs/lilypond/Zal-aZal-aSkal-aSkal-a.ly:21:15:16" style="color:inherit;">
<path fill="currentColor" d="M220 138c56 0 109 -29 109 -91c0 -72 -56 -121 -103 -149c-36 -21 -76 -36 -117 -36c-56 0 -109 29 -109 91c0 72 56 121 103 149c36 21 76 36 117 36z" transform="translate(36.2688, 8.8453) scale(0.0040, -0.0040)"/>
</a>
<a xlink:href="textedit:///home/kalvis/workspace/ddgatve-songs/songs/lilypond/Zal-aZal-aSkal-aSkal-a.ly:27:27:28" style="color:inherit;">
<text fill="currentColor" text-anchor="start" font-size="2.4696" font-family="Century Schoolbook L" transform="translate(35.5099, 14.5299)">
<tspan>
ļa,</tspan>
</text>
</a>
<rect fill="currentColor" ry="0.0400" height="3.1872" width="0.1300" y="0.1878" x="-0.0650" transform="translate(36.3338, 8.8453)"/>
<path fill="currentColor" d="M0 0h-16v250h16c98 58 227 148 227 259c0 57 -16 112 -41 163c-3 16 10 27 23 27c7 0 15 -3 20 -11c25 -56 40 -117 40 -179c0 -204 -269 -305 -269 -509z" transform="translate(36.3988, 12.1803) scale(0.0040, -0.0040)"/>
<a xlink:href="textedit:///home/kalvis/workspace/ddgatve-songs/songs/lilypond/Zal-aZal-aSkal-aSkal-a.ly:21:17:18" style="color:inherit;">
<path fill="currentColor" d="M220 138c56 0 109 -29 109 -91c0 -72 -56 -121 -103 -149c-36 -21 -76 -36 -117 -36c-56 0 -109 29 -109 91c0 72 56 121 103 149c36 21 76 36 117 36z" transform="translate(41.5295, 8.8453) scale(0.0040, -0.0040)"/>
</a>
<a xlink:href="textedit:///home/kalvis/workspace/ddgatve-songs/songs/lilypond/Zal-aZal-aSkal-aSkal-a.ly:27:31:32" style="color:inherit;">
<text fill="currentColor" text-anchor="start" font-size="2.4696" font-family="Century Schoolbook L" transform="translate(40.2073, 14.5299)">
<tspan>
ska</tspan>
</text>
</a>
<rect fill="currentColor" ry="0.0400" height="3.1872" width="0.1300" y="0.1878" x="-0.0650" transform="translate(41.5945, 8.8453)"/>
<path fill="currentColor" d="M0 0h-16v250h16c98 58 227 148 227 259c0 57 -16 112 -41 163c-3 16 10 27 23 27c7 0 15 -3 20 -11c25 -56 40 -117 40 -179c0 -204 -269 -305 -269 -509z" transform="translate(41.6595, 12.1803) scale(0.0040, -0.0040)"/>
<a xlink:href="textedit:///home/kalvis/workspace/ddgatve-songs/songs/lilypond/Zal-aZal-aSkal-aSkal-a.ly:27:20:21" style="color:inherit;">
<text fill="currentColor" text-anchor="start" font-size="2.4696" font-family="Century Schoolbook L" transform="translate(30.0358, 14.5299)">
<tspan>
ska</tspan>
</text>
</a>
<rect fill="currentColor" ry="0.0400" height="3.3122" width="0.1300" y="-0.3122" x="-0.0650" transform="translate(31.4230, 8.8453)"/>
<path fill="currentColor" d="M0 0h-16v250h16c98 58 227 148 227 259c0 57 -16 112 -41 163c-3 16 10 27 23 27c7 0 15 -3 20 -11c25 -56 40 -117 40 -179c0 -204 -269 -305 -269 -509z" transform="translate(31.4880, 11.8053) scale(0.0040, -0.0040)"/>
<a xlink:href="textedit:///home/kalvis/workspace/ddgatve-songs/songs/lilypond/Zal-aZal-aSkal-aSkal-a.ly:21:12:13" style="color:inherit;">
<path fill="currentColor" d="M220 138c56 0 109 -29 109 -91c0 -72 -56 -121 -103 -149c-36 -21 -76 -36 -117 -36c-56 0 -109 29 -109 91c0 72 56 121 103 149c36 21 76 36 117 36z" transform="translate(31.3580, 8.3453) scale(0.0040, -0.0040)"/>
</a>
<rect fill="currentColor" ry="0.0000" height="4.0000" width="0.6000" y="-2.0000" x="0.0000" transform="translate(81.3439, 20.8453)"/>
<rect fill="currentColor" ry="0.0000" height="4.0000" width="0.1900" y="-2.0000" x="0.0000" transform="translate(80.8539, 20.8453)"/>
<rect fill="currentColor" ry="0.0000" height="4.0000" width="0.1900" y="-2.0000" x="0.0000" transform="translate(29.2891, 20.8453)"/>
<rect fill="currentColor" ry="0.0000" height="4.0000" width="0.1900" y="-2.0000" x="0.0000" transform="translate(48.4543, 20.8453)"/>
<rect fill="currentColor" ry="0.0000" height="4.0000" width="0.1900" y="-2.0000" x="0.0000" transform="translate(63.9493, 20.8453)"/>
<line y2="-0.0000" x2="79.6177" y1="-0.0000" x1="0.0500" stroke="currentColor" stroke-width="0.1000" stroke-linecap="round" stroke-linejoin="round" transform="translate(2.2762, 22.8453)"/>
<line y2="-0.0000" x2="79.6177" y1="-0.0000" x1="0.0500" stroke="currentColor" stroke-width="0.1000" stroke-linecap="round" stroke-linejoin="round" transform="translate(2.2762, 21.8453)"/>
<line y2="-0.0000" x2="79.6177" y1="-0.0000" x1="0.0500" stroke="currentColor" stroke-width="0.1000" stroke-linecap="round" stroke-linejoin="round" transform="translate(2.2762, 20.8453)"/>
<line y2="-0.0000" x2="79.6177" y1="-0.0000" x1="0.0500" stroke="currentColor" stroke-width="0.1000" stroke-linecap="round" stroke-linejoin="round" transform="translate(2.2762, 19.8453)"/>
<line y2="-0.0000" x2="79.6177" y1="-0.0000" x1="0.0500" stroke="currentColor" stroke-width="0.1000" stroke-linecap="round" stroke-linejoin="round" transform="translate(2.2762, 18.8453)"/>
<a xlink:href="textedit:///home/kalvis/workspace/ddgatve-songs/songs/lilypond/Zal-aZal-aSkal-aSkal-a.ly:22:25:26" style="color:inherit;">
<path fill="currentColor" d="M220 138c56 0 109 -29 109 -91c0 -72 -56 -121 -103 -149c-36 -21 -76 -36 -117 -36c-56 0 -109 29 -109 91c0 72 56 121 103 149c36 21 76 36 117 36z" transform="translate(57.0703, 21.3453) scale(0.0040, -0.0040)"/>
</a>
<a xlink:href="textedit:///home/kalvis/workspace/ddgatve-songs/songs/lilypond/Zal-aZal-aSkal-aSkal-a.ly:28:49:50" style="color:inherit;">
<text fill="currentColor" text-anchor="start" font-size="2.4696" font-family="Century Schoolbook L" transform="translate(55.9700, 26.5299)">
<tspan>
gū,</tspan>
</text>
</a>
<rect fill="currentColor" ry="0.0400" height="3.3122" width="0.1300" y="-3.0000" x="-0.0650" transform="translate(58.3214, 20.8453)"/>
<a xlink:href="textedit:///home/kalvis/workspace/ddgatve-songs/songs/lilypond/Zal-aZal-aSkal-aSkal-a.ly:22:29:30" style="color:inherit;">
<path fill="currentColor" d="M220 138c56 0 109 -29 109 -91c0 -72 -56 -121 -103 -149c-36 -21 -76 -36 -117 -36c-56 0 -109 29 -109 91c0 72 56 121 103 149c36 21 76 36 117 36z" transform="translate(65.6014, 21.8453) scale(0.0040, -0.0040)"/>
</a>
<a xlink:href="textedit:///home/kalvis/workspace/ddgatve-songs/songs/lilypond/Zal-aZal-aSkal-aSkal-a.ly:28:53:54" style="color:inherit;">
<text fill="currentColor" text-anchor="start" font-size="2.4696" font-family="Century Schoolbook L" transform="translate(64.8937, 26.5299)">
<tspan>
Jā</tspan>
</text>
</a>
<rect fill="currentColor" ry="0.0400" height="3.3122" width="0.1300" y="-2.5000" x="-0.0650" transform="translate(66.8526, 20.8453)"/>
<path fill="currentColor" d="M0 0c0 -198 209 -335 209 -533c0 -71 -16 -141 -42 -207c-5 -8 -12 -12 -19 -12c-13 0 -26 11 -23 27c26 61 42 126 42 192c0 104 -95 208 -167 283h-16v250h16z" transform="translate(66.9176, 18.3853) scale(0.0040, -0.0040)"/>
<a xlink:href="textedit:///home/kalvis/workspace/ddgatve-songs/songs/lilypond/Zal-aZal-aSkal-aSkal-a.ly:22:18:19" style="color:inherit;">
<path fill="currentColor" d="M220 138c56 0 109 -29 109 -91c0 -72 -56 -121 -103 -149c-36 -21 -76 -36 -117 -36c-56 0 -109 29 -109 91c0 72 56 121 103 149c36 21 76 36 117 36z" transform="translate(44.3033, 21.3453) scale(0.0040, -0.0040)"/>
</a>
<a xlink:href="textedit:///home/kalvis/workspace/ddgatve-songs/songs/lilypond/Zal-aZal-aSkal-aSkal-a.ly:28:39:40" style="color:inherit;">
<text fill="currentColor" text-anchor="start" font-size="2.4696" font-family="Century Schoolbook L" transform="translate(43.1859, 26.5299)">
<tspan>
ņa,</tspan>
</text>
</a>
<rect fill="currentColor" ry="0.0400" height="3.3122" width="0.1300" y="-3.0000" x="-0.0650" transform="translate(45.5544, 20.8453)"/>
<path fill="currentColor" d="M0 0c0 -198 209 -335 209 -533c0 -71 -16 -141 -42 -207c-5 -8 -12 -12 -19 -12c-13 0 -26 11 -23 27c26 61 42 126 42 192c0 104 -95 208 -167 283h-16v250h16z" transform="translate(45.6194, 17.8853) scale(0.0040, -0.0040)"/>
<a xlink:href="textedit:///home/kalvis/workspace/ddgatve-songs/songs/lilypond/Zal-aZal-aSkal-aSkal-a.ly:22:22:23" style="color:inherit;">
<path fill="currentColor" d="M220 138c56 0 109 -29 109 -91c0 -72 -56 -121 -103 -149c-36 -21 -76 -36 -117 -36c-56 0 -109 29 -109 91c0 72 56 121 103 149c36 21 76 36 117 36z" transform="translate(50.1064, 22.8453) scale(0.0040, -0.0040)"/>
</a>
<a xlink:href="textedit:///home/kalvis/workspace/ddgatve-songs/songs/lilypond/Zal-aZal-aSkal-aSkal-a.ly:28:43:44" style="color:inherit;">
<text fill="currentColor" text-anchor="start" font-size="2.4696" font-family="Century Schoolbook L" transform="translate(49.9792, 26.5299)">
<tspan>
lī</tspan>
</text>
</a>
<rect fill="currentColor" ry="0.0400" height="3.3122" width="0.1300" y="-1.5000" x="-0.0650" transform="translate(51.3576, 20.8453)"/>
<a xlink:href="textedit:///home/kalvis/workspace/ddgatve-songs/songs/lilypond/Zal-aZal-aSkal-aSkal-a.ly:28:62:63" style="color:inherit;">
<rect fill="currentColor" ry="0.0400" height="0.1300" width="0.6600" y="-0.5500" x="0.0000" transform="translate(72.1134, 26.5299)"/>
</a>
<a xlink:href="textedit:///home/kalvis/workspace/ddgatve-songs/songs/lilypond/Zal-aZal-aSkal-aSkal-a.ly:28:56:57" style="color:inherit;">
<rect fill="currentColor" ry="0.0400" height="0.1300" width="0.6600" y="-0.5500" x="0.0000" transform="translate(68.1160, 26.5299)"/>
</a>
<a xlink:href="textedit:///home/kalvis/workspace/ddgatve-songs/songs/lilypond/Zal-aZal-aSkal-aSkal-a.ly:28:46:47" style="color:inherit;">
<rect fill="currentColor" ry="0.0400" height="0.1300" width="0.6600" y="-0.5500" x="0.0000" transform="translate(53.4299, 26.5299)"/>
</a>
<a xlink:href="textedit:///home/kalvis/workspace/ddgatve-songs/songs/lilypond/Zal-aZal-aSkal-aSkal-a.ly:28:36:37" style="color:inherit;">
<rect fill="currentColor" ry="0.0400" height="0.1300" width="0.6600" y="-0.5500" x="0.0000" transform="translate(42.0565, 26.5299)"/>
</a>
<a xlink:href="textedit:///home/kalvis/workspace/ddgatve-songs/songs/lilypond/Zal-aZal-aSkal-aSkal-a.ly:28:30:31" style="color:inherit;">
<rect fill="currentColor" ry="0.0400" height="0.1300" width="0.6600" y="-0.5500" x="0.0000" transform="translate(38.6520, 26.5299)"/>
</a>
<a xlink:href="textedit:///home/kalvis/workspace/ddgatve-songs/songs/lilypond/Zal-aZal-aSkal-aSkal-a.ly:28:24:25" style="color:inherit;">
<rect fill="currentColor" ry="0.0400" height="0.1300" width="0.6600" y="-0.5500" x="0.0000" transform="translate(34.4964, 26.5299)"/>
</a>
<a xlink:href="textedit:///home/kalvis/workspace/ddgatve-songs/songs/lilypond/Zal-aZal-aSkal-aSkal-a.ly:28:13:14" style="color:inherit;">
<rect fill="currentColor" ry="0.0400" height="0.1300" width="0.6600" y="-0.5500" x="0.0000" transform="translate(23.2507, 26.5299)"/>
</a>
<a xlink:href="textedit:///home/kalvis/workspace/ddgatve-songs/songs/lilypond/Zal-aZal-aSkal-aSkal-a.ly:28:3:4" style="color:inherit;">
<rect fill="currentColor" ry="0.0400" height="0.1300" width="0.6600" y="-0.5500" x="0.0000" transform="translate(13.1475, 26.5299)"/>
</a>
<a xlink:href="textedit:///home/kalvis/workspace/ddgatve-songs/songs/lilypond/Zal-aZal-aSkal-aSkal-a.ly:22:32:33" style="color:inherit;">
<path fill="currentColor" d="M220 138c56 0 109 -29 109 -91c0 -72 -56 -121 -103 -149c-36 -21 -76 -36 -117 -36c-56 0 -109 29 -109 91c0 72 56 121 103 149c36 21 76 36 117 36z" transform="translate(69.7524, 22.3453) scale(0.0040, -0.0040)"/>
</a>
<a xlink:href="textedit:///home/kalvis/workspace/ddgatve-songs/songs/lilypond/Zal-aZal-aSkal-aSkal-a.ly:28:59:60" style="color:inherit;">
<text fill="currentColor" text-anchor="start" font-size="2.4696" font-family="Century Schoolbook L" transform="translate(69.2667, 26.5299)">
<tspan>
ni</tspan>
</text>
</a>
<rect fill="currentColor" ry="0.0400" height="3.3122" width="0.1300" y="-2.0000" x="-0.0650" transform="translate(71.0036, 20.8453)"/>
<path fill="currentColor" d="M0 0c0 -198 209 -335 209 -533c0 -71 -16 -141 -42 -207c-5 -8 -12 -12 -19 -12c-13 0 -26 11 -23 27c26 61 42 126 42 192c0 104 -95 208 -167 283h-16v250h16z" transform="translate(71.0686, 18.8853) scale(0.0040, -0.0040)"/>
<a xlink:href="textedit:///home/kalvis/workspace/ddgatve-songs/songs/lilypond/Zal-aZal-aSkal-aSkal-a.ly:22:36:37" style="color:inherit;">
<path fill="currentColor" d="M220 138c56 0 109 -29 109 -91c0 -72 -56 -121 -103 -149c-36 -21 -76 -36 -117 -36c-56 0 -109 29 -109 91c0 72 56 121 103 149c36 21 76 36 117 36z" transform="translate(73.9035, 22.8453) scale(0.0040, -0.0040)"/>
</a>
<a xlink:href="textedit:///home/kalvis/workspace/ddgatve-songs/songs/lilypond/Zal-aZal-aSkal-aSkal-a.ly:28:65:66" style="color:inherit;">
<text fill="currentColor" text-anchor="start" font-size="2.4696" font-family="Century Schoolbook L" transform="translate(73.3324, 26.5299)">
<tspan>
ti!</tspan>
</text>
</a>
<rect fill="currentColor" ry="0.0400" height="3.3122" width="0.1300" y="-1.5000" x="-0.0650" transform="translate(75.1546, 20.8453)"/>
<a xlink:href="textedit:///home/kalvis/workspace/ddgatve-songs/songs/lilypond/Zal-aZal-aSkal-aSkal-a.ly:22:3:4" style="color:inherit;">
<path fill="currentColor" d="M220 138c56 0 109 -29 109 -91c0 -72 -56 -121 -103 -149c-36 -21 -76 -36 -117 -36c-56 0 -109 29 -109 91c0 72 56 121 103 149c36 21 76 36 117 36z" transform="translate(15.0528, 20.8453) scale(0.0040, -0.0040)"/>
</a>
<a xlink:href="textedit:///home/kalvis/workspace/ddgatve-songs/songs/lilypond/Zal-aZal-aSkal-aSkal-a.ly:28:6:7" style="color:inherit;">
<text fill="currentColor" text-anchor="start" font-size="2.4696" font-family="Century Schoolbook L" transform="translate(14.2769, 26.5299)">
<tspan>
na</tspan>
</text>
</a>
<rect fill="currentColor" ry="0.0400" height="3.1872" width="0.1300" y="0.1878" x="-0.0650" transform="translate(15.1178, 20.8453)"/>
<path fill="currentColor" d="M0 0h-16v250h16c98 58 227 148 227 259c0 57 -16 112 -41 163c-3 16 10 27 23 27c7 0 15 -3 20 -11c25 -56 40 -117 40 -179c0 -204 -269 -305 -269 -509z" transform="translate(15.1828, 24.1803) scale(0.0040, -0.0040)"/>
<a xlink:href="textedit:///home/kalvis/workspace/ddgatve-songs/songs/lilypond/Zal-aZal-aSkal-aSkal-a.ly:22:5:6" style="color:inherit;">
<path fill="currentColor" d="M220 138c56 0 109 -29 109 -91c0 -72 -56 -121 -103 -149c-36 -21 -76 -36 -117 -36c-56 0 -109 29 -109 91c0 72 56 121 103 149c36 21 76 36 117 36z" transform="translate(20.2794, 20.8453) scale(0.0040, -0.0040)"/>
</a>
<a xlink:href="textedit:///home/kalvis/workspace/ddgatve-songs/songs/lilypond/Zal-aZal-aSkal-aSkal-a.ly:28:9:10" style="color:inherit;">
<text fill="currentColor" text-anchor="start" font-size="2.4696" font-family="Century Schoolbook L" transform="translate(19.0938, 26.5299)">
<tspan>
bēr</tspan>
</text>
</a>
<rect fill="currentColor" ry="0.0400" height="3.1872" width="0.1300" y="0.1878" x="-0.0650" transform="translate(20.3444, 20.8453)"/>
<path fill="currentColor" d="M0 0h-16v250h16c98 58 227 148 227 259c0 57 -16 112 -41 163c-3 16 10 27 23 27c7 0 15 -3 20 -11c25 -56 40 -117 40 -179c0 -204 -269 -305 -269 -509z" transform="translate(20.4094, 24.1803) scale(0.0040, -0.0040)"/>
<a xlink:href="textedit:///home/kalvis/workspace/ddgatve-songs/songs/lilypond/Zal-aZal-aSkal-aSkal-a.ly:22:7:8" style="color:inherit;">
<path fill="currentColor" d="M220 138c56 0 109 -29 109 -91c0 -72 -56 -121 -103 -149c-36 -21 -76 -36 -117 -36c-56 0 -109 29 -109 91c0 72 56 121 103 149c36 21 76 36 117 36z" transform="translate(25.0707, 20.8453) scale(0.0040, -0.0040)"/>
</a>
<a xlink:href="textedit:///home/kalvis/workspace/ddgatve-songs/songs/lilypond/Zal-aZal-aSkal-aSkal-a.ly:28:16:17" style="color:inherit;">
<text fill="currentColor" text-anchor="start" font-size="2.4696" font-family="Century Schoolbook L" transform="translate(24.3801, 26.5299)">
<tspan>
zu</tspan>
</text>
</a>
<rect fill="currentColor" ry="0.0400" height="3.1872" width="0.1300" y="0.1878" x="-0.0650" transform="translate(25.1357, 20.8453)"/>
<path fill="currentColor" d="M0 0h-16v250h16c98 58 227 148 227 259c0 57 -16 112 -41 163c-3 16 10 27 23 27c7 0 15 -3 20 -11c25 -56 40 -117 40 -179c0 -204 -269 -305 -269 -509z" transform="translate(25.2007, 24.1803) scale(0.0040, -0.0040)"/>
<text fill="currentColor" text-anchor="start" font-size="1.7461" font-family="Century Schoolbook L" transform="translate(1.3202, 17.7611)">
<tspan>
5</tspan>
</text>
<path fill="currentColor" d="M376 262c4 0 9 1 13 1c155 0 256 -128 256 -261c0 -76 -33 -154 -107 -210c-22 -17 -47 -28 -73 -36c3 -35 5 -70 5 -105c0 -19 -1 -39 -2 -58c-7 -120 -90 -228 -208 -228c-108 0 -195 88 -195 197c0 58 53 103 112 103c54 0 95 -47 95 -103c0 -52 -43 -95 -95 -95 c-11 0 -21 2 -31 6c26 -39 68 -65 117 -65c96 0 157 92 163 191c1 18 2 37 2 55c0 31 -1 61 -4 92c-29 -5 -58 -8 -89 -8c-188 0 -333 172 -333 374c0 177 131 306 248 441c-19 62 -37 125 -45 190c-6 52 -7 104 -7 156c0 115 55 224 149 292c3 2 7 3 10 3c4 0 7 0 10 -3 c71 -84 133 -245 133 -358c0 -143 -86 -255 -180 -364c21 -68 39 -138 56 -207zM461 -203c68 24 113 95 113 164c0 90 -66 179 -173 190c24 -116 46 -231 60 -354zM74 28c0 -135 129 -247 264 -247c28 0 55 2 82 6c-14 127 -37 245 -63 364c-79 -8 -124 -61 -124 -119 c0 -44 25 -91 81 -123c5 -5 7 -10 7 -15c0 -11 -10 -22 -22 -22c-3 0 -6 1 -9 2c-80 43 -117 115 -117 185c0 88 58 174 160 197c-14 58 -29 117 -46 175c-107 -121 -213 -243 -213 -403zM408 1045c-99 -48 -162 -149 -162 -259c0 -74 18 -133 36 -194 c80 97 146 198 146 324c0 55 -4 79 -20 129z" transform="translate(3.0762, 21.8453) scale(0.0040, -0.0040)"/>
<path fill="currentColor" d="M216 -312c0 -10 -8 -19 -18 -19s-19 9 -19 19v145l-83 -31v-158c0 -10 -9 -19 -19 -19s-18 9 -18 19v145l-32 -12c-2 -1 -5 -1 -7 -1c-11 0 -20 9 -20 20v60c0 8 5 16 13 19l46 16v160l-32 -11c-2 -1 -5 -1 -7 -1c-11 0 -20 9 -20 20v60c0 8 5 15 13 18l46 17v158 c0 10 8 19 18 19s19 -9 19 -19v-145l83 31v158c0 10 9 19 19 19s18 -9 18 -19v-145l32 12c2 1 5 1 7 1c11 0 20 -9 20 -20v-60c0 -8 -5 -16 -13 -19l-46 -16v-160l32 11c2 1 5 1 7 1c11 0 20 -9 20 -20v-60c0 -8 -5 -15 -13 -18l-46 -17v-158zM96 65v-160l83 30v160z" transform="translate(6.5762, 18.8453) scale(0.0040, -0.0040)"/>
<a xlink:href="textedit:///home/kalvis/workspace/ddgatve-songs/songs/lilypond/Zal-aZal-aSkal-aSkal-a.ly:22:0:1" style="color:inherit;">
<path fill="currentColor" d="M220 138c56 0 109 -29 109 -91c0 -72 -56 -121 -103 -149c-36 -21 -76 -36 -117 -36c-56 0 -109 29 -109 91c0 72 56 121 103 149c36 21 76 36 117 36z" transform="translate(10.1762, 21.3453) scale(0.0040, -0.0040)"/>
</a>
<a xlink:href="textedit:///home/kalvis/workspace/ddgatve-songs/songs/lilypond/Zal-aZal-aSkal-aSkal-a.ly:28:0:1" style="color:inherit;">
<text fill="currentColor" text-anchor="start" font-size="2.4696" font-family="Century Schoolbook L" transform="translate(8.9906, 26.5299)">
<tspan>
Ma</tspan>
</text>
</a>
<rect fill="currentColor" ry="0.0400" height="3.3122" width="0.1300" y="-3.0000" x="-0.0650" transform="translate(11.4274, 20.8453)"/>
<path fill="currentColor" d="M0 0c0 -198 209 -335 209 -533c0 -71 -16 -141 -42 -207c-5 -8 -12 -12 -19 -12c-13 0 -26 11 -23 27c26 61 42 126 42 192c0 104 -95 208 -167 283h-16v250h16z" transform="translate(11.4924, 17.8853) scale(0.0040, -0.0040)"/>
<a xlink:href="textedit:///home/kalvis/workspace/ddgatve-songs/songs/lilypond/Zal-aZal-aSkal-aSkal-a.ly:22:14:15" style="color:inherit;">
<path fill="currentColor" d="M220 138c56 0 109 -29 109 -91c0 -72 -56 -121 -103 -149c-36 -21 -76 -36 -117 -36c-56 0 -109 29 -109 91c0 72 56 121 103 149c36 21 76 36 117 36z" transform="translate(36.1286, 20.8453) scale(0.0040, -0.0040)"/>
</a>
<a xlink:href="textedit:///home/kalvis/workspace/ddgatve-songs/songs/lilypond/Zal-aZal-aSkal-aSkal-a.ly:28:27:28" style="color:inherit;">
<text fill="currentColor" text-anchor="start" font-size="2.4696" font-family="Century Schoolbook L" transform="translate(35.6259, 26.5299)">
<tspan>
ta</tspan>
</text>
</a>
<rect fill="currentColor" ry="0.0400" height="3.1872" width="0.1300" y="0.1878" x="-0.0650" transform="translate(36.1936, 20.8453)"/>
<path fill="currentColor" d="M0 0h-16v250h16c98 58 227 148 227 259c0 57 -16 112 -41 163c-3 16 10 27 23 27c7 0 15 -3 20 -11c25 -56 40 -117 40 -179c0 -204 -269 -305 -269 -509z" transform="translate(36.2586, 24.1803) scale(0.0040, -0.0040)"/>
<a xlink:href="textedit:///home/kalvis/workspace/ddgatve-songs/songs/lilypond/Zal-aZal-aSkal-aSkal-a.ly:22:16:17" style="color:inherit;">
<path fill="currentColor" d="M220 138c56 0 109 -29 109 -91c0 -72 -56 -121 -103 -149c-36 -21 -76 -36 -117 -36c-56 0 -109 29 -109 91c0 72 56 121 103 149c36 21 76 36 117 36z" transform="translate(40.1437, 20.8453) scale(0.0040, -0.0040)"/>
</a>
<a xlink:href="textedit:///home/kalvis/workspace/ddgatve-songs/songs/lilypond/Zal-aZal-aSkal-aSkal-a.ly:28:33:34" style="color:inherit;">
<text fill="currentColor" text-anchor="start" font-size="2.4696" font-family="Century Schoolbook L" transform="translate(40.0165, 26.5299)">
<tspan>
li</tspan>
</text>
</a>
<rect fill="currentColor" ry="0.0400" height="3.1872" width="0.1300" y="0.1878" x="-0.0650" transform="translate(40.2087, 20.8453)"/>
<path fill="currentColor" d="M0 0h-16v250h16c98 58 227 148 227 259c0 57 -16 112 -41 163c-3 16 10 27 23 27c7 0 15 -3 20 -11c25 -56 40 -117 40 -179c0 -204 -269 -305 -269 -509z" transform="translate(40.2737, 24.1803) scale(0.0040, -0.0040)"/>
<a xlink:href="textedit:///home/kalvis/workspace/ddgatve-songs/songs/lilypond/Zal-aZal-aSkal-aSkal-a.ly:22:11:12" style="color:inherit;">
<path fill="currentColor" d="M220 138c56 0 109 -29 109 -91c0 -72 -56 -121 -103 -149c-36 -21 -76 -36 -117 -36c-56 0 -109 29 -109 91c0 72 56 121 103 149c36 21 76 36 117 36z" transform="translate(31.1496, 20.3453) scale(0.0040, -0.0040)"/>
</a>
<a xlink:href="textedit:///home/kalvis/workspace/ddgatve-songs/songs/lilypond/Zal-aZal-aSkal-aSkal-a.ly:28:19:20" style="color:inherit;">
<text fill="currentColor" text-anchor="start" font-size="2.4696" font-family="Century Schoolbook L" transform="translate(29.5884, 26.5299)">
<tspan>
birz</tspan>
</text>
</a>
<rect fill="currentColor" ry="0.0400" height="3.3122" width="0.1300" y="-0.3122" x="-0.0650" transform="translate(31.2146, 20.8453)"/>
<path fill="currentColor" d="M0 0h-16v250h16c98 58 227 148 227 259c0 57 -16 112 -41 163c-3 16 10 27 23 27c7 0 15 -3 20 -11c25 -56 40 -117 40 -179c0 -204 -269 -305 -269 -509z" transform="translate(31.2796, 23.8053) scale(0.0040, -0.0040)"/>
<g color="rgb(100%, 100%, 100%)">
<text fill="currentColor" text-anchor="start" font-size="1.9600" font-family="sans-serif" transform="translate(2.2762, 32.8453)">
<tspan>
 </tspan>
</text>
</g>
<a xlink:href="http://lilypond.org/" transform="translate(13.8223, 165.1512)">
<rect stroke-width="0.0" stroke="none" fill="none" height="2.0827" width="56.5755" y="-0.4439" x="0.0000"/>
</a>
<text fill="currentColor" text-anchor="start" font-size="2.2001" font-family="Century Schoolbook L" transform="translate(13.8223, 165.1512)">
<tspan>
Music engraving by LilyPond 2.18.2—www.lilypond.org</tspan>
</text>
</svg>