<svg xmlns="http://www.w3.org/2000/svg" xmlns:xlink="http://www.w3.org/1999/xlink" version="1.2" width="141.56mm" height="58.49mm" viewBox="-0.8877 -0.0000 80.5554 33.2834">
<style type="text/css">
<![CDATA[
tspan { white-space: pre; }
]]>
</style>
<g transform="translate(0.0000, -0.3846)">
<text font-family="serif" font-size="2.2001" text-anchor="start" fill="currentColor">
<tspan>__</tspan>
</text>
</g>
<g transform="translate(77.4825, -0.3846)">
<text font-family="serif" font-size="2.2001" text-anchor="start" fill="currentColor">
<tspan>__</tspan>
</text>
</g>
<g transform="translate(0.0000, 7.1152)">
<line stroke-linejoin="round" stroke-linecap="round" stroke-width="0.1000" stroke="currentColor" x1="0.0500" y1="0" x2="79.6177" y2="0"/>
</g>
<g transform="translate(0.0000, 6.1152)">
<line stroke-linejoin="round" stroke-linecap="round" stroke-width="0.1000" stroke="currentColor" x1="0.0500" y1="0" x2="79.6177" y2="0"/>
</g>
<g transform="translate(0.0000, 5.1152)">
<line stroke-linejoin="round" stroke-linecap="round" stroke-width="0.1000" stroke="currentColor" x1="0.0500" y1="0" x2="79.6177" y2="0"/>
</g>
<g transform="translate(0.0000, 4.1152)">
<line stroke-linejoin="round" stroke-linecap="round" stroke-width="0.1000" stroke="currentColor" x1="0.0500" y1="0" x2="79.6177" y2="0"/>
</g>
<g transform="translate(0.0000, 3.1152)">
<line stroke-linejoin="round" stroke-linecap="round" stroke-width="0.1000" stroke="currentColor" x1="0.0500" y1="0" x2="79.6177" y2="0"/>
</g>
<g transform="translate(79.4777, 5.1152)">
<rect x="0.0000" y="-2.0000" width="0.1900" height="4.0000" ry="0.0000" fill="currentColor"/>
</g>
<g transform="translate(64.1560, 5.1152)">
<rect x="0.0000" y="-2.0000" width="0.1900" height="4.0000" ry="0.0000" fill="currentColor"/>
</g>
<g transform="translate(0.0000, 19.1692)">
<line stroke-linejoin="round" stroke-linecap="round" stroke-width="0.0707" stroke="currentColor" x1="0.0354" y1="0" x2="28.0831" y2="0"/>
</g>
<g transform="translate(0.0000, 18.4621)">
<line stroke-linejoin="round" stroke-linecap="round" stroke-width="0.0707" stroke="currentColor" x1="0.0354" y1="0" x2="28.0831" y2="0"/>
</g>
<g transform="translate(0.0000, 17.7550)">
<line stroke-linejoin="round" stroke-linecap="round" stroke-width="0.0707" stroke="currentColor" x1="0.0354" y1="0" x2="28.0831" y2="0"/>
</g>
<g transform="translate(0.0000, 17.0479)">
<line stroke-linejoin="round" stroke-linecap="round" stroke-width="0.0707" stroke="currentColor" x1="0.0354" y1="0" x2="28.0831" y2="0"/>
</g>
<g transform="translate(0.0000, 16.3408)">
<line stroke-linejoin="round" stroke-linecap="round" stroke-width="0.0707" stroke="currentColor" x1="0.0354" y1="0" x2="28.0831" y2="0"/>
</g>
<g transform="translate(48.7467, 5.1152)">
<rect x="0.0000" y="-2.0000" width="0.1900" height="4.0000" ry="0.0000" fill="currentColor"/>
</g>
<g transform="translate(27.9285, 17.7550)">
<rect x="0.0000" y="-1.4142" width="0.1900" height="2.8284" ry="0.0000" fill="currentColor"/>
</g>
<g transform="translate(27.9285, 5.1152)">
<rect x="0.0000" y="-2.0000" width="0.1900" height="4.0000" ry="0.0000" fill="currentColor"/>
</g>
<a style="color:inherit;" xlink:href="textedit:///Users/kapsitis/workspace-public/ddgatve-songs/songs-lt/lilypond/AisimLaukunApsdairyti.ly:40:75:76">
<g transform="translate(78.5344, 11.4550)">
<rect x="0.0000" y="-0.5500" width="0.6600" height="0.1300" ry="0.0400" fill="currentColor"/>
</g>
</a>
<a style="color:inherit;" xlink:href="textedit:///Users/kapsitis/workspace-public/ddgatve-songs/songs-lt/lilypond/AisimLaukunApsdairyti.ly:40:3:4">
<g transform="translate(10.1560, 11.4550)">
<rect x="0.0000" y="-0.5500" width="0.3047" height="0.1300" ry="0.0400" fill="currentColor"/>
</g>
</a>
<g transform="translate(30.7856, 0.6552)">
<path transform="scale(0.0040, -0.0040)" d="M0 0v-250h-16v250h16zM0 0c0 -197 207 -336 207 -533c0 -71 -15 -141 -41 -207c-5 -8 -13 -12 -20 -12c-13 0 -26 11 -23 27c26 61 42 126 42 192c0 103 -94 208 -165 283v250z" fill="currentColor"/>
</g>
<g transform="translate(29.5464, 5.1152)">
<rect x="-0.0650" y="-0.3139" width="0.1300" height="3.3139" ry="0.0400" fill="currentColor"/>
</g>
<g transform="translate(29.6114, 8.0752)">
<path transform="scale(0.0040, -0.0040)" d="M0 0h-16v250h16v-250zM0 0v250c97 59 224 148 224 259c0 57 -15 112 -40 163c-3 16 10 27 23 27c7 0 15 -3 20 -11c25 -56 40 -117 40 -179c0 -203 -267 -306 -267 -509z" fill="currentColor"/>
</g>
<g transform="translate(-0.0600, 11.1349)">
<rect x="0.0000" y="-8.0697" width="0.1600" height="16.1394" ry="0.0500" fill="currentColor"/>
</g>
<a style="color:inherit;" xlink:href="textedit:///Users/kapsitis/workspace-public/ddgatve-songs/songs-lt/lilypond/AisimLaukunApsdairyti.ly:47:0:1">
<g transform="translate(5.1366, 5.1152)">
<path transform="scale(0.0040, -0.0040)" d="M263 265c0 -33 70 -23 70 -125c0 -92 -79 -140 -179 -140c-79 0 -154 42 -154 113c0 36 30 66 66 66s65 -30 65 -66c0 -25 -40 -28 -40 -53c0 -27 32 -37 63 -37c49 0 63 61 63 117v16c0 54 -2 94 -50 94h-80c-10 0 -14 8 -14 15s4 14 14 14h80c49 0 50 43 50 99v8
c0 54 -18 91 -67 91c-29 0 -59 -8 -59 -33c0 -22 36 -25 36 -47c0 -32 -26 -58 -58 -58s-57 26 -57 58c0 65 67 103 138 103c91 0 169 -33 169 -114c0 -122 -56 -80 -56 -121z" fill="currentColor"/>
</g>
<g transform="translate(5.0000, 7.1313)">
<path transform="scale(0.0040, -0.0040)" d="M196 117h117c0 -48 27 -94 72 -94c8 0 12 -5 12 -11s-4 -12 -12 -12c-44 0 -87 13 -131 13s-87 -13 -131 -13c-8 0 -12 6 -12 12s4 11 12 11c45 0 73 46 73 94zM-2 148c0 12 140 143 140 336c0 10 7 19 16 16c23 -7 47 -13 71 -13s48 6 71 13c14 4 23 -9 17 -16
l-284 -330h167v131c0 34 34 27 68 72c22 30 23 56 36 56c6 0 13 -5 13 -14v-245h72c10 0 15 -7 15 -14s-5 -15 -15 -15h-72v-8h-117v8h-167c-23 0 -31 14 -31 23z" fill="currentColor"/>
</g>
</a>
<a style="color:inherit;" xlink:href="textedit:///Users/kapsitis/workspace-public/ddgatve-songs/songs-lt/lilypond/AisimLaukunApsdairyti.ly:34:3:4">
<g transform="translate(32.9308, 3.6152)">
<path transform="scale(0.0040, -0.0040)" d="M218 136c66 0 108 -36 108 -89c0 -89 -113 -183 -218 -183c-66 0 -108 36 -108 89c0 89 113 183 218 183z" fill="currentColor"/>
</g>
</a>
<a style="color:inherit;" xlink:href="textedit:///Users/kapsitis/workspace-public/ddgatve-songs/songs-lt/lilypond/AisimLaukunApsdairyti.ly:47:38:39">
<g transform="translate(32.9308, 4.6152)">
<path transform="scale(0.0040, -0.0040)" d="M218 136c66 0 108 -36 108 -89c0 -89 -113 -183 -218 -183c-66 0 -108 36 -108 89c0 89 113 183 218 183z" fill="currentColor"/>
</g>
</a>
<a style="color:inherit;" xlink:href="textedit:///Users/kapsitis/workspace-public/ddgatve-songs/songs-lt/lilypond/AisimLaukunApsdairyti.ly:40:28:29">
<g transform="translate(32.0806, 11.4550)">
<text font-family="serif" font-size="2.4696" text-anchor="start" fill="currentColor">
<tspan>dai</tspan>
</text>
</g>
</a>
<g transform="translate(34.1700, 5.1152)">
<rect x="-0.0650" y="-4.5000" width="0.1300" height="2.8139" ry="0.0400" fill="currentColor"/>
</g>
<g transform="translate(34.2350, 0.6552)">
<path transform="scale(0.0040, -0.0040)" d="M0 0v-250h-16v250h16zM0 0c0 -197 207 -336 207 -533c0 -71 -15 -141 -41 -207c-5 -8 -13 -12 -20 -12c-13 0 -26 11 -23 27c26 61 42 126 42 192c0 103 -94 208 -165 283v250z" fill="currentColor"/>
</g>
<g transform="translate(32.9958, 5.1152)">
<rect x="-0.0650" y="-0.3139" width="0.1300" height="3.3139" ry="0.0400" fill="currentColor"/>
</g>
<g transform="translate(33.0608, 8.0752)">
<path transform="scale(0.0040, -0.0040)" d="M0 0h-16v250h16v-250zM0 0v250c97 59 224 148 224 259c0 57 -15 112 -40 163c-3 16 10 27 23 27c7 0 15 -3 20 -11c25 -56 40 -117 40 -179c0 -203 -267 -306 -267 -509z" fill="currentColor"/>
</g>
<a style="color:inherit;" xlink:href="textedit:///Users/kapsitis/workspace-public/ddgatve-songs/songs-lt/lilypond/AisimLaukunApsdairyti.ly:40:0:1">
<g transform="translate(7.6277, 11.4550)">
<text font-family="serif" font-size="2.4696" text-anchor="start" fill="currentColor">
<tspan>Ai</tspan>
</text>
</g>
</a>
<a style="color:inherit;" xlink:href="textedit:///Users/kapsitis/workspace-public/ddgatve-songs/songs-lt/lilypond/AisimLaukunApsdairyti.ly:24:13:14">
<g transform="translate(15.1034, 5.1152)">
<path stroke-width="0.0800" stroke-linejoin="round" stroke-linecap="round" stroke="currentColor" fill="currentColor" d="M1.6042 -2.1950C2.9165 -3.1170 5.7559 -2.7618 6.8007 -1.5450L6.8007 -1.5450C5.7410 -2.6428 2.9016 -2.9979 1.6042 -2.1950z"/>
</g>
</a>
<a style="color:inherit;" xlink:href="textedit:///Users/kapsitis/workspace-public/ddgatve-songs/songs-lt/lilypond/AisimLaukunApsdairyti.ly:34:5:6">
<g transform="translate(36.3801, 3.6152)">
<path transform="scale(0.0040, -0.0040)" d="M218 136c66 0 108 -36 108 -89c0 -89 -113 -183 -218 -183c-66 0 -108 36 -108 89c0 89 113 183 218 183z" fill="currentColor"/>
</g>
</a>
<a style="color:inherit;" xlink:href="textedit:///Users/kapsitis/workspace-public/ddgatve-songs/songs-lt/lilypond/AisimLaukunApsdairyti.ly:47:40:41">
<g transform="translate(36.3801, 4.6152)">
<path transform="scale(0.0040, -0.0040)" d="M218 136c66 0 108 -36 108 -89c0 -89 -113 -183 -218 -183c-66 0 -108 36 -108 89c0 89 113 183 218 183z" fill="currentColor"/>
</g>
</a>
<a style="color:inherit;" xlink:href="textedit:///Users/kapsitis/workspace-public/ddgatve-songs/songs-lt/lilypond/AisimLaukunApsdairyti.ly:40:35:36">
<g transform="translate(36.3801, 11.4550)">
<text font-family="serif" font-size="2.4696" text-anchor="start" fill="currentColor">
<tspan>ry</tspan>
</text>
</g>
</a>
<g transform="translate(37.6193, 5.1152)">
<rect x="-0.0650" y="-4.3333" width="0.1300" height="2.6472" ry="0.0400" fill="currentColor"/>
</g>
<g transform="translate(36.4451, 5.1152)">
<rect x="-0.0650" y="-0.3139" width="0.1300" height="3.3139" ry="0.0400" fill="currentColor"/>
</g>
<a style="color:inherit;" xlink:href="textedit:///Users/kapsitis/workspace-public/ddgatve-songs/songs-lt/lilypond/AisimLaukunApsdairyti.ly:32:25:26">
<g transform="translate(8.2047, 18.4621)">
<path transform="scale(0.0028, -0.0028)" d="M208 139c69 0 117 -40 117 -99c0 -91 -107 -179 -209 -179c-69 0 -116 40 -116 99c0 91 106 179 208 179z" fill="currentColor"/>
</g>
</a>
<a style="color:inherit;" xlink:href="textedit:///Users/kapsitis/workspace-public/ddgatve-songs/songs-lt/lilypond/AisimLaukunApsdairyti.ly:40:14:15">
<g transform="translate(20.3678, 11.4550)">
<rect x="0.0000" y="-0.5500" width="0.6600" height="0.1300" ry="0.0400" fill="currentColor"/>
</g>
</a>
<a style="color:inherit;" xlink:href="textedit:///Users/kapsitis/workspace-public/ddgatve-songs/songs-lt/lilypond/AisimLaukunApsdairyti.ly:34:9:10">
<g transform="translate(41.8481, 3.1152)">
<path transform="scale(0.0040, -0.0040)" d="M218 136c66 0 108 -36 108 -89c0 -89 -113 -183 -218 -183c-66 0 -108 36 -108 89c0 89 113 183 218 183z" fill="currentColor"/>
</g>
</a>
<a style="color:inherit;" xlink:href="textedit:///Users/kapsitis/workspace-public/ddgatve-songs/songs-lt/lilypond/AisimLaukunApsdairyti.ly:47:44:45">
<g transform="translate(41.8481, 4.1152)">
<path transform="scale(0.0040, -0.0040)" d="M218 136c66 0 108 -36 108 -89c0 -89 -113 -183 -218 -183c-66 0 -108 36 -108 89c0 89 113 183 218 183z" fill="currentColor"/>
</g>
</a>
<g transform="translate(43.0873, 5.1152)">
<rect x="-0.0650" y="-5.0000" width="0.1300" height="2.8139" ry="0.0400" fill="currentColor"/>
</g>
<g transform="translate(43.1523, 0.1552)">
<path transform="scale(0.0040, -0.0040)" d="M0 0v-250h-16v250h16zM0 0c0 -197 207 -336 207 -533c0 -71 -15 -141 -41 -207c-5 -8 -13 -12 -20 -12c-13 0 -26 11 -23 27c26 61 42 126 42 192c0 103 -94 208 -165 283v250z" fill="currentColor"/>
</g>
<g transform="translate(41.9131, 5.1152)">
<rect x="-0.0650" y="-0.8139" width="0.1300" height="3.3139" ry="0.0400" fill="currentColor"/>
</g>
<g transform="translate(41.9781, 7.5752)">
<path transform="scale(0.0040, -0.0040)" d="M0 0h-16v250h16v-250zM0 0v250c97 59 224 148 224 259c0 57 -15 112 -40 163c-3 16 10 27 23 27c7 0 15 -3 20 -11c25 -56 40 -117 40 -179c0 -203 -267 -306 -267 -509z" fill="currentColor"/>
</g>
<g transform="translate(0.8000, 18.4621)">
<path transform="scale(0.0028, -0.0028)" d="M648 2c0 -114 -74 -214 -179 -248c2 -32 3 -65 3 -97c0 -21 -1 -43 -2 -64c-7 -123 -92 -230 -211 -230c-108 0 -197 88 -197 197c0 58 54 104 113 104c54 0 95 -48 95 -104c0 -52 -43 -95 -95 -95c-8 0 -16 2 -24 4c25 -35 65 -59 111 -59c93 0 155 90 161 190
c1 20 2 39 2 59c0 28 -1 55 -3 83c-5 -1 -43 -7 -87 -7c-194 0 -333 181 -333 377c0 176 128 307 242 443c-36 105 -58 171 -58 348c0 113 54 219 146 286c8 6 21 7 29 0c69 -78 136 -242 136 -357c0 -141 -83 -253 -174 -362c22 -67 41 -135 58 -204h9
c157 0 258 -130 258 -264zM464 -200c62 24 108 86 108 159c0 87 -62 173 -163 187c28 -132 47 -265 55 -346zM338 -218c1 0 46 0 80 6c-7 68 -26 209 -58 359c-79 -7 -123 -59 -123 -116c0 -43 24 -89 78 -120c5 -5 8 -11 8 -17c0 -13 -11 -24 -24 -24
c-17 0 -129 63 -129 189c0 90 60 178 164 201c-14 56 -30 112 -47 167c-104 -122 -208 -245 -208 -404c0 -143 140 -241 259 -241zM239 782c0 -43 15 -102 41 -183c77 97 140 199 140 323c0 58 -8 83 -19 113c-99 -45 -162 -145 -162 -253z" fill="currentColor"/>
</g>
<a style="color:inherit;" xlink:href="textedit:///Users/kapsitis/workspace-public/ddgatve-songs/songs-lt/lilypond/AisimLaukunApsdairyti.ly:32:43:44">
<g transform="translate(15.9294, 15.0609)">
<polygon stroke-linejoin="round" stroke-linecap="round" stroke-width="0.0800" fill="currentColor" stroke="currentColor" points="5.9784 0.0895 5.9784 0.3489 0.0400 0.1297 0.0400 -0.1297"/>
</g>
<g transform="translate(18.8429, 15.7398)">
<polygon stroke-linejoin="round" stroke-linecap="round" stroke-width="0.0800" fill="currentColor" stroke="currentColor" points="1.1060 -0.0880 1.1060 0.1714 0.0400 0.1297 0.0400 -0.1297"/>
</g>
</a>
<a style="color:inherit;" xlink:href="textedit:///Users/kapsitis/workspace-public/ddgatve-songs/songs-lt/lilypond/AisimLaukunApsdairyti.ly:34:13:14">
<g transform="translate(45.2974, 3.6152)">
<path transform="scale(0.0040, -0.0040)" d="M218 136c66 0 108 -36 108 -89c0 -89 -113 -183 -218 -183c-66 0 -108 36 -108 89c0 89 113 183 218 183z" fill="currentColor"/>
</g>
</a>
<a style="color:inherit;" xlink:href="textedit:///Users/kapsitis/workspace-public/ddgatve-songs/songs-lt/lilypond/AisimLaukunApsdairyti.ly:47:48:49">
<g transform="translate(45.2974, 4.6152)">
<path transform="scale(0.0040, -0.0040)" d="M218 136c66 0 108 -36 108 -89c0 -89 -113 -183 -218 -183c-66 0 -108 36 -108 89c0 89 113 183 218 183z" fill="currentColor"/>
</g>
</a>
<a style="color:inherit;" xlink:href="textedit:///Users/kapsitis/workspace-public/ddgatve-songs/songs-lt/lilypond/AisimLaukunApsdairyti.ly:40:41:42">
<g transform="translate(44.9594, 11.4550)">
<text font-family="serif" font-size="2.4696" text-anchor="start" fill="currentColor">
<tspan>ti,</tspan>
</text>
</g>
</a>
<g transform="translate(46.5366, 5.1152)">
<rect x="-0.0650" y="-4.5000" width="0.1300" height="2.8139" ry="0.0400" fill="currentColor"/>
</g>
<g transform="translate(46.6016, 0.6552)">
<path transform="scale(0.0040, -0.0040)" d="M0 0v-250h-16v250h16zM0 0c0 -197 207 -336 207 -533c0 -71 -15 -141 -41 -207c-5 -8 -13 -12 -20 -12c-13 0 -26 11 -23 27c26 61 42 126 42 192c0 103 -94 208 -165 283v250z" fill="currentColor"/>
</g>
<g transform="translate(45.3624, 5.1152)">
<rect x="-0.0650" y="-0.3139" width="0.1300" height="3.3139" ry="0.0400" fill="currentColor"/>
</g>
<g transform="translate(45.4274, 8.0752)">
<path transform="scale(0.0040, -0.0040)" d="M0 0h-16v250h16v-250zM0 0v250c97 59 224 148 224 259c0 57 -15 112 -40 163c-3 16 10 27 23 27c7 0 15 -3 20 -11c25 -56 40 -117 40 -179c0 -203 -267 -306 -267 -509z" fill="currentColor"/>
</g>
<a style="color:inherit;" xlink:href="textedit:///Users/kapsitis/workspace-public/ddgatve-songs/songs-lt/lilypond/AisimLaukunApsdairyti.ly:32:44:45">
<g transform="translate(15.1034, 17.7550)">
<path stroke-width="0.0566" stroke-linejoin="round" stroke-linecap="round" stroke="currentColor" fill="currentColor" d="M0.8831 -3.2157C2.0586 -4.1388 5.7042 -4.0060 6.8095 -2.9998L6.8095 -2.9998C5.7011 -3.9212 2.0555 -4.0540 0.8831 -3.2157z"/>
</g>
</a>
<a style="color:inherit;" xlink:href="textedit:///Users/kapsitis/workspace-public/ddgatve-songs/songs-lt/lilypond/AisimLaukunApsdairyti.ly:35:10:11">
<g transform="translate(53.2915, 4.1152)">
<path transform="scale(0.0040, -0.0040)" d="M218 136c66 0 108 -36 108 -89c0 -89 -113 -183 -218 -183c-66 0 -108 36 -108 89c0 89 113 183 218 183z" fill="currentColor"/>
</g>
</a>
<a style="color:inherit;" xlink:href="textedit:///Users/kapsitis/workspace-public/ddgatve-songs/songs-lt/lilypond/AisimLaukunApsdairyti.ly:48:12:13">
<g transform="translate(53.2915, 6.1152)">
<path transform="scale(0.0040, -0.0040)" d="M218 136c66 0 108 -36 108 -89c0 -89 -113 -183 -218 -183c-66 0 -108 36 -108 89c0 89 113 183 218 183z" fill="currentColor"/>
</g>
</a>
<a style="color:inherit;" xlink:href="textedit:///Users/kapsitis/workspace-public/ddgatve-songs/songs-lt/lilypond/AisimLaukunApsdairyti.ly:48:15:16">
<g transform="translate(53.2915, 5.1152)">
<path transform="scale(0.0040, -0.0040)" d="M218 136c66 0 108 -36 108 -89c0 -89 -113 -183 -218 -183c-66 0 -108 36 -108 89c0 89 113 183 218 183z" fill="currentColor"/>
</g>
</a>
<g transform="translate(0.8000, 6.1152)">
<path transform="scale(0.0040, -0.0040)" d="M266 -635h-6c-108 0 -195 88 -195 197c0 58 53 103 112 103c54 0 95 -47 95 -103c0 -52 -43 -95 -95 -95c-11 0 -21 2 -31 6c26 -39 68 -65 117 -65h4zM461 -203c68 24 113 90 113 164c0 90 -66 179 -173 190c19 -89 48 -242 60 -354zM74 28c0 -145 141 -247 264 -247
c1 0 47 0 82 6c-7 64 -29 203 -63 364c-79 -8 -124 -61 -124 -119c0 -44 25 -91 81 -123c5 -5 7 -10 7 -15c0 -11 -10 -22 -22 -22c-15 0 -126 62 -126 187c0 88 58 174 160 197c-14 58 -29 117 -46 175c-107 -121 -213 -243 -213 -403zM250 553c-29 96 -52 170 -52 346
c0 115 55 224 149 292c6 5 14 5 20 0c68 -80 133 -245 133 -358c0 -143 -86 -255 -180 -364c21 -68 39 -138 56 -207c2 0 7 1 13 1c155 0 256 -128 256 -261c0 -113 -74 -212 -180 -246c3 -35 5 -70 5 -105c0 -19 -1 -39 -2 -58c-7 -119 -88 -225 -202 -228l1 43
c93 2 153 92 159 191c1 18 2 37 2 55c0 31 -1 61 -4 92c-5 -1 -44 -8 -89 -8c-193 0 -333 180 -333 374c0 177 131 306 248 441zM428 916c0 34 1 66 -20 129c-99 -48 -162 -149 -162 -259c0 -52 12 -115 36 -194c80 97 146 198 146 324z" fill="currentColor"/>
</g>
<a style="color:inherit;" xlink:href="textedit:///Users/kapsitis/workspace-public/ddgatve-songs/songs-lt/lilypond/AisimLaukunApsdairyti.ly:48:0:1">
<g transform="translate(49.7550, 5.1152)">
<path transform="scale(0.0040, -0.0040)" d="M229 0c-88 0 -90 66 -144 66c-30 0 -59 -20 -62 -55c-1 -7 -6 -11 -11 -11c-6 0 -12 4 -12 11c0 156 235 169 235 344c0 60 -18 122 -70 122c-26 0 -51 -14 -51 -37c0 -27 35 -41 35 -68c0 -38 -30 -69 -68 -69s-69 31 -69 69c0 76 72 128 153 128c96 0 187 -56 187 -145
c0 -153 -151 -159 -249 -220c9 2 17 3 26 3c83 0 111 -59 171 -59c48 0 38 38 55 38c6 0 12 -5 12 -12c0 -22 -44 -105 -138 -105z" fill="currentColor"/>
</g>
<g transform="translate(49.6867, 7.1313)">
<path transform="scale(0.0040, -0.0040)" d="M196 117h117c0 -48 27 -94 72 -94c8 0 12 -5 12 -11s-4 -12 -12 -12c-44 0 -87 13 -131 13s-87 -13 -131 -13c-8 0 -12 6 -12 12s4 11 12 11c45 0 73 46 73 94zM-2 148c0 12 140 143 140 336c0 10 7 19 16 16c23 -7 47 -13 71 -13s48 6 71 13c14 4 23 -9 17 -16
l-284 -330h167v131c0 34 34 27 68 72c22 30 23 56 36 56c6 0 13 -5 13 -14v-245h72c10 0 15 -7 15 -14s-5 -15 -15 -15h-72v-8h-117v8h-167c-23 0 -31 14 -31 23z" fill="currentColor"/>
</g>
</a>
<a style="color:inherit;" xlink:href="textedit:///Users/kapsitis/workspace-public/ddgatve-songs/songs-lt/lilypond/AisimLaukunApsdairyti.ly:22:0:1">
</a>
<a style="color:inherit;" xlink:href="textedit:///Users/kapsitis/workspace-public/ddgatve-songs/songs-lt/lilypond/AisimLaukunApsdairyti.ly:40:45:46">
<g transform="translate(52.8510, 11.4550)">
<text font-family="serif" font-size="2.4696" text-anchor="start" fill="currentColor">
<tspan>ža</tspan>
</text>
</g>
</a>
<g transform="translate(54.5307, 5.1152)">
<rect x="-0.0650" y="-4.0000" width="0.1300" height="2.8139" ry="0.0400" fill="currentColor"/>
</g>
<g transform="translate(53.3565, 5.1152)">
<rect x="-0.0650" y="0.1861" width="0.1300" height="3.8139" ry="0.0400" fill="currentColor"/>
</g>
<g transform="translate(9.4439, 5.1152)">
<rect x="-0.0650" y="-2.5000" width="0.1300" height="3.3139" ry="0.0400" fill="currentColor"/>
</g>
<a style="color:inherit;" xlink:href="textedit:///Users/kapsitis/workspace-public/ddgatve-songs/songs-lt/lilypond/AisimLaukunApsdairyti.ly:40:25:26">
<g transform="translate(31.7765, 11.4550)">
<rect x="0.0000" y="-0.5500" width="0.3000" height="0.1300" ry="0.0400" fill="currentColor"/>
</g>
</a>
<a style="color:inherit;" xlink:href="textedit:///Users/kapsitis/workspace-public/ddgatve-songs/songs-lt/lilypond/AisimLaukunApsdairyti.ly:35:13:14">
<g transform="translate(58.7595, 3.6152)">
<path transform="scale(0.0040, -0.0040)" d="M218 136c66 0 108 -36 108 -89c0 -89 -113 -183 -218 -183c-66 0 -108 36 -108 89c0 89 113 183 218 183z" fill="currentColor"/>
</g>
</a>
<a style="color:inherit;" xlink:href="textedit:///Users/kapsitis/workspace-public/ddgatve-songs/songs-lt/lilypond/AisimLaukunApsdairyti.ly:48:20:21">
<g transform="translate(58.7595, 4.6152)">
<path transform="scale(0.0040, -0.0040)" d="M218 136c66 0 108 -36 108 -89c0 -89 -113 -183 -218 -183c-66 0 -108 36 -108 89c0 89 113 183 218 183z" fill="currentColor"/>
</g>
</a>
<a style="color:inherit;" xlink:href="textedit:///Users/kapsitis/workspace-public/ddgatve-songs/songs-lt/lilypond/AisimLaukunApsdairyti.ly:40:51:52">
<g transform="translate(58.1824, 11.4550)">
<text font-family="serif" font-size="2.4696" text-anchor="start" fill="currentColor">
<tspan>lia</tspan>
</text>
</g>
</a>
<g transform="translate(59.9987, 5.1152)">
<rect x="-0.0650" y="-4.3333" width="0.1300" height="2.6472" ry="0.0400" fill="currentColor"/>
</g>
<g transform="translate(58.8245, 5.1152)">
<rect x="-0.0650" y="-0.3139" width="0.1300" height="3.3139" ry="0.0400" fill="currentColor"/>
</g>
<a style="color:inherit;" xlink:href="textedit:///Users/kapsitis/workspace-public/ddgatve-songs/songs-lt/lilypond/AisimLaukunApsdairyti.ly:40:32:33">
<g transform="translate(35.4026, 11.4550)">
<rect x="0.0000" y="-0.5500" width="0.6600" height="0.1300" ry="0.0400" fill="currentColor"/>
</g>
</a>
<a style="color:inherit;" xlink:href="textedit:///Users/kapsitis/workspace-public/ddgatve-songs/songs-lt/lilypond/AisimLaukunApsdairyti.ly:34:7:8">
<g transform="translate(36.3801, 5.1152)">
<path stroke-width="0.0800" stroke-linejoin="round" stroke-linecap="round" stroke="currentColor" fill="currentColor" d="M1.6042 -2.5450C2.6016 -3.6735 5.1313 -3.9404 6.3422 -3.0450L6.3422 -3.0450C5.1439 -3.8211 2.6142 -3.5541 1.6042 -2.5450z"/>
</g>
</a>
<a style="color:inherit;" xlink:href="textedit:///Users/kapsitis/workspace-public/ddgatve-songs/songs-lt/lilypond/AisimLaukunApsdairyti.ly:35:17:18">
<g transform="translate(65.6804, 4.1152)">
<path transform="scale(0.0040, -0.0040)" d="M218 136c66 0 108 -36 108 -89c0 -89 -113 -183 -218 -183c-66 0 -108 36 -108 89c0 89 113 183 218 183z" fill="currentColor"/>
</g>
</a>
<a style="color:inherit;" xlink:href="textedit:///Users/kapsitis/workspace-public/ddgatve-songs/songs-lt/lilypond/AisimLaukunApsdairyti.ly:48:25:26">
<g transform="translate(65.6804, 5.1152)">
<path transform="scale(0.0040, -0.0040)" d="M218 136c66 0 108 -36 108 -89c0 -89 -113 -183 -218 -183c-66 0 -108 36 -108 89c0 89 113 183 218 183z" fill="currentColor"/>
</g>
</a>
<a style="color:inherit;" xlink:href="textedit:///Users/kapsitis/workspace-public/ddgatve-songs/songs-lt/lilypond/AisimLaukunApsdairyti.ly:40:55:56">
<g transform="translate(65.3082, 11.4550)">
<text font-family="serif" font-size="2.4696" text-anchor="start" fill="currentColor">
<tspan>še</tspan>
</text>
</g>
</a>
<g transform="translate(66.9196, 5.1152)">
<rect x="-0.0650" y="-4.1250" width="0.1300" height="2.9389" ry="0.0400" fill="currentColor"/>
</g>
<g transform="translate(66.9846, 1.0302)">
<path transform="scale(0.0040, -0.0040)" d="M0 0v-250h-16v250h16zM0 0c0 -197 207 -336 207 -533c0 -71 -15 -141 -41 -207c-5 -8 -13 -12 -20 -12c-13 0 -26 11 -23 27c26 61 42 126 42 192c0 103 -94 208 -165 283v250z" fill="currentColor"/>
</g>
<g transform="translate(65.7454, 5.1152)">
<rect x="-0.0650" y="0.1861" width="0.1300" height="3.1889" ry="0.0400" fill="currentColor"/>
</g>
<g transform="translate(65.8104, 8.4502)">
<path transform="scale(0.0040, -0.0040)" d="M0 0h-16v250h16v-250zM0 0v250c97 59 224 148 224 259c0 57 -15 112 -40 163c-3 16 10 27 23 27c7 0 15 -3 20 -11c25 -56 40 -117 40 -179c0 -203 -267 -306 -267 -509z" fill="currentColor"/>
</g>
<a style="color:inherit;" xlink:href="textedit:///Users/kapsitis/workspace-public/ddgatve-songs/songs-lt/lilypond/AisimLaukunApsdairyti.ly:47:42:43">
<g transform="translate(36.3801, 5.1152)">
<path stroke-width="0.0800" stroke-linejoin="round" stroke-linecap="round" stroke="currentColor" fill="currentColor" d="M0.4300 0.6099C1.6098 1.7864 4.1378 1.5997 5.1680 0.2599L5.1680 0.2599C4.1290 1.4800 1.6010 1.6667 0.4300 0.6099z"/>
</g>
</a>
<a style="color:inherit;" xlink:href="textedit:///Users/kapsitis/workspace-public/ddgatve-songs/songs-lt/lilypond/AisimLaukunApsdairyti.ly:35:20:21">
<g transform="translate(69.1297, 4.1152)">
<path transform="scale(0.0040, -0.0040)" d="M218 136c66 0 108 -36 108 -89c0 -89 -113 -183 -218 -183c-66 0 -108 36 -108 89c0 89 113 183 218 183z" fill="currentColor"/>
</g>
</a>
<a style="color:inherit;" xlink:href="textedit:///Users/kapsitis/workspace-public/ddgatve-songs/songs-lt/lilypond/AisimLaukunApsdairyti.ly:48:28:29">
<g transform="translate(69.1297, 5.1152)">
<path transform="scale(0.0040, -0.0040)" d="M218 136c66 0 108 -36 108 -89c0 -89 -113 -183 -218 -183c-66 0 -108 36 -108 89c0 89 113 183 218 183z" fill="currentColor"/>
</g>
</a>
<a style="color:inherit;" xlink:href="textedit:///Users/kapsitis/workspace-public/ddgatve-songs/songs-lt/lilypond/AisimLaukunApsdairyti.ly:40:61:62">
<g transform="translate(68.6210, 11.4550)">
<text font-family="serif" font-size="2.4696" text-anchor="start" fill="currentColor">
<tspan>ne</tspan>
</text>
</g>
</a>
<g transform="translate(70.3689, 5.1152)">
<rect x="-0.0650" y="-4.1250" width="0.1300" height="2.9389" ry="0.0400" fill="currentColor"/>
</g>
<g transform="translate(70.4339, 1.0302)">
<path transform="scale(0.0040, -0.0040)" d="M0 0v-250h-16v250h16zM0 0c0 -197 207 -336 207 -533c0 -71 -15 -141 -41 -207c-5 -8 -13 -12 -20 -12c-13 0 -26 11 -23 27c26 61 42 126 42 192c0 103 -94 208 -165 283v250z" fill="currentColor"/>
</g>
<g transform="translate(69.1947, 5.1152)">
<rect x="-0.0650" y="0.1861" width="0.1300" height="3.1889" ry="0.0400" fill="currentColor"/>
</g>
<g transform="translate(69.2597, 8.4502)">
<path transform="scale(0.0040, -0.0040)" d="M0 0h-16v250h16v-250zM0 0v250c97 59 224 148 224 259c0 57 -15 112 -40 163c-3 16 10 27 23 27c7 0 15 -3 20 -11c25 -56 40 -117 40 -179c0 -203 -267 -306 -267 -509z" fill="currentColor"/>
</g>
<g transform="translate(9.5089, 2.6552)">
<path transform="scale(0.0040, -0.0040)" d="M0 0v-250h-16v250h16zM0 0c0 -197 207 -336 207 -533c0 -71 -15 -141 -41 -207c-5 -8 -13 -12 -20 -12c-13 0 -26 11 -23 27c26 61 42 126 42 192c0 103 -94 208 -165 283v250z" fill="currentColor"/>
</g>
<a style="color:inherit;" xlink:href="textedit:///Users/kapsitis/workspace-public/ddgatve-songs/songs-lt/lilypond/AisimLaukunApsdairyti.ly:40:38:39">
<g transform="translate(41.3640, 11.4550)">
<rect x="0.0000" y="-0.5500" width="0.6600" height="0.1300" ry="0.0400" fill="currentColor"/>
</g>
</a>
<a style="color:inherit;" xlink:href="textedit:///Users/kapsitis/workspace-public/ddgatve-songs/songs-lt/lilypond/AisimLaukunApsdairyti.ly:35:22:23">
<g transform="translate(72.5791, 4.6152)">
<path transform="scale(0.0040, -0.0040)" d="M218 136c66 0 108 -36 108 -89c0 -89 -113 -183 -218 -183c-66 0 -108 36 -108 89c0 89 113 183 218 183z" fill="currentColor"/>
</g>
</a>
<a style="color:inherit;" xlink:href="textedit:///Users/kapsitis/workspace-public/ddgatve-songs/songs-lt/lilypond/AisimLaukunApsdairyti.ly:48:30:31">
<g transform="translate(72.5791, 5.6152)">
<path transform="scale(0.0040, -0.0040)" d="M218 136c66 0 108 -36 108 -89c0 -89 -113 -183 -218 -183c-66 0 -108 36 -108 89c0 89 113 183 218 183z" fill="currentColor"/>
</g>
</a>
<a style="color:inherit;" xlink:href="textedit:///Users/kapsitis/workspace-public/ddgatve-songs/songs-lt/lilypond/AisimLaukunApsdairyti.ly:40:67:68">
<g transform="translate(72.0020, 11.4550)">
<text font-family="serif" font-size="2.4696" text-anchor="start" fill="currentColor">
<tspan>lia</tspan>
</text>
</g>
</a>
<g transform="translate(73.8183, 5.1152)">
<rect x="-0.0650" y="-3.7500" width="0.1300" height="3.0639" ry="0.0400" fill="currentColor"/>
</g>
<g transform="translate(73.8833, 1.4052)">
<path transform="scale(0.0040, -0.0040)" d="M0 0v-250h-16v250h16zM0 0c0 -197 207 -336 207 -533c0 -71 -15 -141 -41 -207c-5 -8 -13 -12 -20 -12c-13 0 -26 11 -23 27c26 61 42 126 42 192c0 103 -94 208 -165 283v250z" fill="currentColor"/>
</g>
<g transform="translate(72.6441, 5.1152)">
<rect x="-0.0650" y="0.6861" width="0.1300" height="3.0639" ry="0.0400" fill="currentColor"/>
</g>
<g transform="translate(72.7091, 8.8252)">
<path transform="scale(0.0040, -0.0040)" d="M0 0h-16v250h16v-250zM0 0v250c97 59 224 148 224 259c0 57 -15 112 -40 163c-3 16 10 27 23 27c7 0 15 -3 20 -11c25 -56 40 -117 40 -179c0 -203 -267 -306 -267 -509z" fill="currentColor"/>
</g>
<a style="color:inherit;" xlink:href="textedit:///Users/kapsitis/workspace-public/ddgatve-songs/songs-lt/lilypond/AisimLaukunApsdairyti.ly:35:24:25">
<g transform="translate(76.0284, 4.6152)">
<path transform="scale(0.0040, -0.0040)" d="M218 136c66 0 108 -36 108 -89c0 -89 -113 -183 -218 -183c-66 0 -108 36 -108 89c0 89 113 183 218 183z" fill="currentColor"/>
</g>
</a>
<a style="color:inherit;" xlink:href="textedit:///Users/kapsitis/workspace-public/ddgatve-songs/songs-lt/lilypond/AisimLaukunApsdairyti.ly:48:32:33">
<g transform="translate(76.0284, 5.6152)">
<path transform="scale(0.0040, -0.0040)" d="M218 136c66 0 108 -36 108 -89c0 -89 -113 -183 -218 -183c-66 0 -108 36 -108 89c0 89 113 183 218 183z" fill="currentColor"/>
</g>
</a>
<a style="color:inherit;" xlink:href="textedit:///Users/kapsitis/workspace-public/ddgatve-songs/songs-lt/lilypond/AisimLaukunApsdairyti.ly:40:71:72">
<g transform="translate(75.1099, 11.4550)">
<text font-family="serif" font-size="2.4696" text-anchor="start" fill="currentColor">
<tspan>var</tspan>
</text>
</g>
</a>
<g transform="translate(77.2676, 5.1152)">
<rect x="-0.0650" y="-3.7500" width="0.1300" height="3.0639" ry="0.0400" fill="currentColor"/>
</g>
<g transform="translate(77.3326, 1.4052)">
<path transform="scale(0.0040, -0.0040)" d="M0 0v-250h-16v250h16zM0 0c0 -197 207 -336 207 -533c0 -71 -15 -141 -41 -207c-5 -8 -13 -12 -20 -12c-13 0 -26 11 -23 27c26 61 42 126 42 192c0 103 -94 208 -165 283v250z" fill="currentColor"/>
</g>
<g transform="translate(76.0934, 5.1152)">
<rect x="-0.0650" y="0.6861" width="0.1300" height="3.0639" ry="0.0400" fill="currentColor"/>
</g>
<g transform="translate(76.1584, 8.8252)">
<path transform="scale(0.0040, -0.0040)" d="M0 0h-16v250h16v-250zM0 0v250c97 59 224 148 224 259c0 57 -15 112 -40 163c-3 16 10 27 23 27c7 0 15 -3 20 -11c25 -56 40 -117 40 -179c0 -203 -267 -306 -267 -509z" fill="currentColor"/>
</g>
<a style="color:inherit;" xlink:href="textedit:///Users/kapsitis/workspace-public/ddgatve-songs/songs-lt/lilypond/AisimLaukunApsdairyti.ly:40:48:49">
<g transform="translate(56.2793, 11.4550)">
<rect x="0.0000" y="-0.5500" width="0.6600" height="0.1300" ry="0.0400" fill="currentColor"/>
</g>
</a>
<g transform="translate(8.2697, 5.1152)">
<rect x="-0.0650" y="1.1861" width="0.1300" height="2.9389" ry="0.0400" fill="currentColor"/>
</g>
<g transform="translate(8.3347, 9.2002)">
<path transform="scale(0.0040, -0.0040)" d="M0 0h-16v250h16v-250zM0 0v250c97 59 224 148 224 259c0 57 -15 112 -40 163c-3 16 10 27 23 27c7 0 15 -3 20 -11c25 -56 40 -117 40 -179c0 -203 -267 -306 -267 -509z" fill="currentColor"/>
</g>
<g transform="translate(9.0767, 17.7550)">
<rect x="-0.0460" y="-1.7678" width="0.0919" height="2.3605" ry="0.0400" fill="currentColor"/>
</g>
<g transform="translate(9.1226, 16.0272)">
<path transform="scale(0.0028, -0.0028)" d="M115 -723c0 12 43 85 43 193c0 101 -90 205 -158 280h-21v250h21c0 -196 207 -334 207 -530c0 -71 -15 -140 -41 -206c-5 -10 -14 -13 -23 -13c-14 0 -28 10 -28 26z" fill="currentColor"/>
</g>
<a style="color:inherit;" xlink:href="textedit:///Users/kapsitis/workspace-public/ddgatve-songs/songs-lt/lilypond/AisimLaukunApsdairyti.ly:40:58:59">
<g transform="translate(67.6589, 11.4550)">
<rect x="0.0000" y="-0.5500" width="0.6600" height="0.1300" ry="0.0400" fill="currentColor"/>
</g>
</a>
<a style="color:inherit;" xlink:href="textedit:///Users/kapsitis/workspace-public/ddgatve-songs/songs-lt/lilypond/AisimLaukunApsdairyti.ly:24:9:10">
<g transform="translate(11.6541, 5.1152)">
<path transform="scale(0.0040, -0.0040)" d="M218 136c66 0 108 -36 108 -89c0 -89 -113 -183 -218 -183c-66 0 -108 36 -108 89c0 89 113 183 218 183z" fill="currentColor"/>
</g>
</a>
<a style="color:inherit;" xlink:href="textedit:///Users/kapsitis/workspace-public/ddgatve-songs/songs-lt/lilypond/AisimLaukunApsdairyti.ly:47:14:15">
<g transform="translate(11.6541, 6.1152)">
<path transform="scale(0.0040, -0.0040)" d="M218 136c66 0 108 -36 108 -89c0 -89 -113 -183 -218 -183c-66 0 -108 36 -108 89c0 89 113 183 218 183z" fill="currentColor"/>
</g>
</a>
<a style="color:inherit;" xlink:href="textedit:///Users/kapsitis/workspace-public/ddgatve-songs/songs-lt/lilypond/AisimLaukunApsdairyti.ly:40:6:7">
<g transform="translate(10.5307, 11.4550)">
<text font-family="serif" font-size="2.4696" text-anchor="start" fill="currentColor">
<tspan>sim</tspan>
</text>
</g>
</a>
<a style="color:inherit;" xlink:href="textedit:///Users/kapsitis/workspace-public/ddgatve-songs/songs-lt/lilypond/AisimLaukunApsdairyti.ly:32:29:30">
<g transform="translate(11.6541, 17.7550)">
<path transform="scale(0.0028, -0.0028)" d="M208 139c69 0 117 -40 117 -99c0 -91 -107 -179 -209 -179c-69 0 -116 40 -116 99c0 91 106 179 208 179z" fill="currentColor"/>
</g>
</a>
<g transform="translate(12.8933, 5.1152)">
<rect x="-0.0650" y="-3.3750" width="0.1300" height="3.1889" ry="0.0400" fill="currentColor"/>
</g>
<g transform="translate(12.9583, 1.7802)">
<path transform="scale(0.0040, -0.0040)" d="M0 0v-250h-16v250h16zM0 0c0 -197 207 -336 207 -533c0 -71 -15 -141 -41 -207c-5 -8 -13 -12 -20 -12c-13 0 -26 11 -23 27c26 61 42 126 42 192c0 103 -94 208 -165 283v250z" fill="currentColor"/>
</g>
<g transform="translate(11.7191, 5.1152)">
<rect x="-0.0650" y="1.1861" width="0.1300" height="2.9389" ry="0.0400" fill="currentColor"/>
</g>
<g transform="translate(11.7841, 9.2002)">
<path transform="scale(0.0040, -0.0040)" d="M0 0h-16v250h16v-250zM0 0v250c97 59 224 148 224 259c0 57 -15 112 -40 163c-3 16 10 27 23 27c7 0 15 -3 20 -11c25 -56 40 -117 40 -179c0 -203 -267 -306 -267 -509z" fill="currentColor"/>
</g>
<g transform="translate(12.5260, 17.7550)">
<rect x="-0.0460" y="-2.3865" width="0.0919" height="2.2721" ry="0.0400" fill="currentColor"/>
</g>
<g transform="translate(12.5720, 15.4085)">
<path transform="scale(0.0028, -0.0028)" d="M115 -723c0 12 43 85 43 193c0 101 -90 205 -158 280h-21v250h21c0 -196 207 -334 207 -530c0 -71 -15 -140 -41 -206c-5 -10 -14 -13 -23 -13c-14 0 -28 10 -28 26z" fill="currentColor"/>
</g>
<a style="color:inherit;" xlink:href="textedit:///Users/kapsitis/workspace-public/ddgatve-songs/songs-lt/lilypond/AisimLaukunApsdairyti.ly:24:5:6">
<g transform="translate(8.2047, 6.1152)">
<path transform="scale(0.0040, -0.0040)" d="M218 136c66 0 108 -36 108 -89c0 -89 -113 -183 -218 -183c-66 0 -108 36 -108 89c0 89 113 183 218 183z" fill="currentColor"/>
</g>
</a>
<a style="color:inherit;" xlink:href="textedit:///Users/kapsitis/workspace-public/ddgatve-songs/songs-lt/lilypond/AisimLaukunApsdairyti.ly:40:64:65">
<g transform="translate(71.1424, 11.4550)">
<rect x="0.0000" y="-0.5500" width="0.6600" height="0.1300" ry="0.0400" fill="currentColor"/>
</g>
</a>
<a style="color:inherit;" xlink:href="textedit:///Users/kapsitis/workspace-public/ddgatve-songs/songs-lt/lilypond/AisimLaukunApsdairyti.ly:24:11:12">
<g transform="translate(15.1034, 4.1152)">
<path transform="scale(0.0040, -0.0040)" d="M218 136c66 0 108 -36 108 -89c0 -89 -113 -183 -218 -183c-66 0 -108 36 -108 89c0 89 113 183 218 183z" fill="currentColor"/>
</g>
</a>
<a style="color:inherit;" xlink:href="textedit:///Users/kapsitis/workspace-public/ddgatve-songs/songs-lt/lilypond/AisimLaukunApsdairyti.ly:47:16:17">
<g transform="translate(15.1034, 6.1152)">
<path transform="scale(0.0040, -0.0040)" d="M218 136c66 0 108 -36 108 -89c0 -89 -113 -183 -218 -183c-66 0 -108 36 -108 89c0 89 113 183 218 183z" fill="currentColor"/>
</g>
</a>
<a style="color:inherit;" xlink:href="textedit:///Users/kapsitis/workspace-public/ddgatve-songs/songs-lt/lilypond/AisimLaukunApsdairyti.ly:40:10:11">
<g transform="translate(15.1034, 11.4550)">
<text font-family="serif" font-size="2.4696" text-anchor="start" fill="currentColor">
<tspan>lau</tspan>
</text>
</g>
</a>
<a style="color:inherit;" xlink:href="textedit:///Users/kapsitis/workspace-public/ddgatve-songs/songs-lt/lilypond/AisimLaukunApsdairyti.ly:32:31:32">
<g transform="translate(15.1034, 17.0479)">
<path transform="scale(0.0028, -0.0028)" d="M208 139c69 0 117 -40 117 -99c0 -91 -107 -179 -209 -179c-69 0 -116 40 -116 99c0 91 106 179 208 179z" fill="currentColor"/>
</g>
</a>
<a style="color:inherit;" xlink:href="textedit:///Users/kapsitis/workspace-public/ddgatve-songs/songs-lt/lilypond/AisimLaukunApsdairyti.ly:32:34:35">
<g transform="translate(15.5623, 13.9958)">
<path transform="scale(0.0028, -0.0028)" d="M-73 50c0 41 32 73 73 73s73 -32 73 -73s-32 -74 -73 -74s-73 33 -73 74zM0 368c258 0 337 -334 337 -372c0 -12 -11 -19 -23 -19c-11 0 -22 6 -25 23c-26 145 -144 257 -289 257s-263 -112 -289 -257c-3 -17 -14 -23 -25 -23c-12 0 -23 7 -23 19c0 38 79 372 337 372z
" fill="currentColor"/>
</g>
</a>
<g transform="translate(16.3426, 5.1152)">
<rect x="-0.0650" y="-4.0000" width="0.1300" height="2.8139" ry="0.0400" fill="currentColor"/>
</g>
<g transform="translate(16.8576, 6.6152)">
<path transform="scale(0.0040, -0.0040)" d="M0 0c0 31 25 56 56 56s56 -25 56 -56s-25 -56 -56 -56s-56 25 -56 56z" fill="currentColor"/>
</g>
<g transform="translate(15.1684, 5.1152)">
<rect x="-0.0650" y="1.1861" width="0.1300" height="2.8139" ry="0.0400" fill="currentColor"/>
</g>
<g transform="translate(16.3299, 16.6944)">
<path transform="scale(0.0028, -0.0028)" d="M0 0c0 30 25 55 55 55s54 -25 54 -55s-24 -55 -54 -55s-55 25 -55 55z" fill="currentColor"/>
</g>
<g transform="translate(15.9753, 17.7550)">
<rect x="-0.0460" y="-2.6924" width="0.0919" height="1.8709" ry="0.0400" fill="currentColor"/>
</g>
<a style="color:inherit;" xlink:href="textedit:///Users/kapsitis/workspace-public/ddgatve-songs/songs-lt/lilypond/AisimLaukunApsdairyti.ly:47:10:11">
<g transform="translate(8.2047, 6.1152)">
<path transform="scale(0.0040, -0.0040)" d="M218 136c66 0 108 -36 108 -89c0 -89 -113 -183 -218 -183c-66 0 -108 36 -108 89c0 89 113 183 218 183z" fill="currentColor"/>
</g>
</a>
<a style="color:inherit;" xlink:href="textedit:///Users/kapsitis/workspace-public/ddgatve-songs/songs-lt/lilypond/AisimLaukunApsdairyti.ly:32:46:47">
<g transform="translate(19.0710, 17.7550)">
<path transform="scale(0.0028, -0.0028)" d="M208 139c69 0 117 -40 117 -99c0 -91 -107 -179 -209 -179c-69 0 -116 40 -116 99c0 91 106 179 208 179z" fill="currentColor"/>
</g>
</a>
<g transform="translate(19.9429, 17.7550)">
<rect x="-0.0460" y="-2.5479" width="0.0919" height="2.4335" ry="0.0400" fill="currentColor"/>
</g>
<a style="color:inherit;" xlink:href="textedit:///Users/kapsitis/workspace-public/ddgatve-songs/songs-lt/lilypond/AisimLaukunApsdairyti.ly:24:15:16">
<g transform="translate(21.0298, 4.6152)">
<path transform="scale(0.0040, -0.0040)" d="M218 136c66 0 108 -36 108 -89c0 -89 -113 -183 -218 -183c-66 0 -108 36 -108 89c0 89 113 183 218 183z" fill="currentColor"/>
</g>
</a>
<a style="color:inherit;" xlink:href="textedit:///Users/kapsitis/workspace-public/ddgatve-songs/songs-lt/lilypond/AisimLaukunApsdairyti.ly:32:50:51">
<g transform="translate(21.0298, 17.4015)">
<path transform="scale(0.0028, -0.0028)" d="M208 139c69 0 117 -40 117 -99c0 -91 -107 -179 -209 -179c-69 0 -116 40 -116 99c0 91 106 179 208 179z" fill="currentColor"/>
</g>
</a>
<g transform="translate(22.2690, 5.1152)">
<rect x="-0.0650" y="-3.7500" width="0.1300" height="3.0639" ry="0.0400" fill="currentColor"/>
</g>
<g transform="translate(22.3340, 1.4052)">
<path transform="scale(0.0040, -0.0040)" d="M0 0v-250h-16v250h16zM0 0c0 -197 207 -336 207 -533c0 -71 -15 -141 -41 -207c-5 -8 -13 -12 -20 -12c-13 0 -26 11 -23 27c26 61 42 126 42 192c0 103 -94 208 -165 283v250z" fill="currentColor"/>
</g>
<g transform="translate(21.9018, 17.7550)">
<rect x="-0.0460" y="-2.4765" width="0.0919" height="2.0086" ry="0.0400" fill="currentColor"/>
</g>
<g transform="translate(30.7206, 5.1152)">
<rect x="-0.0650" y="-4.5000" width="0.1300" height="2.8139" ry="0.0400" fill="currentColor"/>
</g>
<a style="color:inherit;" xlink:href="textedit:///Users/kapsitis/workspace-public/ddgatve-songs/songs-lt/lilypond/AisimLaukunApsdairyti.ly:24:19:20">
<g transform="translate(24.4792, 4.1152)">
<path transform="scale(0.0040, -0.0040)" d="M218 136c66 0 108 -36 108 -89c0 -89 -113 -183 -218 -183c-66 0 -108 36 -108 89c0 89 113 183 218 183z" fill="currentColor"/>
</g>
</a>
<a style="color:inherit;" xlink:href="textedit:///Users/kapsitis/workspace-public/ddgatve-songs/songs-lt/lilypond/AisimLaukunApsdairyti.ly:47:20:21">
<g transform="translate(24.4792, 6.1152)">
<path transform="scale(0.0040, -0.0040)" d="M218 136c66 0 108 -36 108 -89c0 -89 -113 -183 -218 -183c-66 0 -108 36 -108 89c0 89 113 183 218 183z" fill="currentColor"/>
</g>
</a>
<a style="color:inherit;" xlink:href="textedit:///Users/kapsitis/workspace-public/ddgatve-songs/songs-lt/lilypond/AisimLaukunApsdairyti.ly:40:17:18">
<g transform="translate(23.2875, 11.4550)">
<text font-family="serif" font-size="2.4696" text-anchor="start" fill="currentColor">
<tspan>kun</tspan>
</text>
</g>
</a>
<a style="color:inherit;" xlink:href="textedit:///Users/kapsitis/workspace-public/ddgatve-songs/songs-lt/lilypond/AisimLaukunApsdairyti.ly:32:55:56">
<g transform="translate(24.4792, 17.0479)">
<path transform="scale(0.0028, -0.0028)" d="M208 139c69 0 117 -40 117 -99c0 -91 -107 -179 -209 -179c-69 0 -116 40 -116 99c0 91 106 179 208 179z" fill="currentColor"/>
</g>
</a>
<g transform="translate(25.7184, 5.1152)">
<rect x="-0.0650" y="-4.1250" width="0.1300" height="2.9389" ry="0.0400" fill="currentColor"/>
</g>
<g transform="translate(25.7834, 1.0302)">
<path transform="scale(0.0040, -0.0040)" d="M0 0v-250h-16v250h16zM0 0c0 -197 207 -336 207 -533c0 -71 -15 -141 -41 -207c-5 -8 -13 -12 -20 -12c-13 0 -26 11 -23 27c26 61 42 126 42 192c0 103 -94 208 -165 283v250z" fill="currentColor"/>
</g>
<g transform="translate(24.5442, 5.1152)">
<rect x="-0.0650" y="1.1861" width="0.1300" height="2.9389" ry="0.0400" fill="currentColor"/>
</g>
<g transform="translate(24.6092, 9.2002)">
<path transform="scale(0.0040, -0.0040)" d="M0 0h-16v250h16v-250zM0 0v250c97 59 224 148 224 259c0 57 -15 112 -40 163c-3 16 10 27 23 27c7 0 15 -3 20 -11c25 -56 40 -117 40 -179c0 -203 -267 -306 -267 -509z" fill="currentColor"/>
</g>
<g transform="translate(25.3511, 17.7550)">
<rect x="-0.0460" y="-2.9168" width="0.0919" height="2.0953" ry="0.0400" fill="currentColor"/>
</g>
<g transform="translate(25.3971, 14.8782)">
<path transform="scale(0.0028, -0.0028)" d="M115 -723c0 12 43 85 43 193c0 101 -90 205 -158 280h-21v250h21c0 -196 207 -334 207 -530c0 -71 -15 -140 -41 -206c-5 -10 -14 -13 -23 -13c-14 0 -28 10 -28 26z" fill="currentColor"/>
</g>
<a style="color:inherit;" xlink:href="textedit:///Users/kapsitis/workspace-public/ddgatve-songs/songs-lt/lilypond/AisimLaukunApsdairyti.ly:40:21:22">
<g transform="translate(28.4947, 11.4550)">
<text font-family="serif" font-size="2.4696" text-anchor="start" fill="currentColor">
<tspan>aps</tspan>
</text>
</g>
</a>
<a style="color:inherit;" xlink:href="textedit:///Users/kapsitis/workspace-public/ddgatve-songs/songs-lt/lilypond/AisimLaukunApsdairyti.ly:34:0:1">
<g transform="translate(29.4814, 3.6152)">
<path transform="scale(0.0040, -0.0040)" d="M218 136c66 0 108 -36 108 -89c0 -89 -113 -183 -218 -183c-66 0 -108 36 -108 89c0 89 113 183 218 183z" fill="currentColor"/>
</g>
</a>
<a style="color:inherit;" xlink:href="textedit:///Users/kapsitis/workspace-public/ddgatve-songs/songs-lt/lilypond/AisimLaukunApsdairyti.ly:47:35:36">
<g transform="translate(29.4814, 4.6152)">
<path transform="scale(0.0040, -0.0040)" d="M218 136c66 0 108 -36 108 -89c0 -89 -113 -183 -218 -183c-66 0 -108 36 -108 89c0 89 113 183 218 183z" fill="currentColor"/>
</g>
</a>
<g transform="translate(0.0000, 28.2932)">
<line stroke-linejoin="round" stroke-linecap="round" stroke-width="0.1000" stroke="currentColor" x1="0.0500" y1="0" x2="79.6177" y2="0"/>
</g>
<g transform="translate(0.0000, 27.2932)">
<line stroke-linejoin="round" stroke-linecap="round" stroke-width="0.1000" stroke="currentColor" x1="0.0500" y1="0" x2="79.6177" y2="0"/>
</g>
<g transform="translate(0.0000, 26.2932)">
<line stroke-linejoin="round" stroke-linecap="round" stroke-width="0.1000" stroke="currentColor" x1="0.0500" y1="0" x2="79.6177" y2="0"/>
</g>
<g transform="translate(0.0000, 25.2932)">
<line stroke-linejoin="round" stroke-linecap="round" stroke-width="0.1000" stroke="currentColor" x1="0.0500" y1="0" x2="79.6177" y2="0"/>
</g>
<g transform="translate(0.0000, 24.2932)">
<line stroke-linejoin="round" stroke-linecap="round" stroke-width="0.1000" stroke="currentColor" x1="0.0500" y1="0" x2="79.6177" y2="0"/>
</g>
<g transform="translate(64.0575, 26.2932)">
<rect x="0.0000" y="-2.0000" width="0.1900" height="4.0000" ry="0.0000" fill="currentColor"/>
</g>
<g transform="translate(42.9879, 26.2932)">
<rect x="0.0000" y="-2.0000" width="0.1900" height="4.0000" ry="0.0000" fill="currentColor"/>
</g>
<g transform="translate(23.5469, 26.2932)">
<rect x="0.0000" y="-2.0000" width="0.1900" height="4.0000" ry="0.0000" fill="currentColor"/>
</g>
<g transform="translate(79.0677, 26.2932)">
<rect x="0.0000" y="-2.0000" width="0.6000" height="4.0000" ry="0.0000" fill="currentColor"/>
</g>
<g transform="translate(78.5777, 26.2932)">
<rect x="0.0000" y="-2.0000" width="0.1900" height="4.0000" ry="0.0000" fill="currentColor"/>
</g>
<a style="color:inherit;" xlink:href="textedit:///Users/kapsitis/workspace-public/ddgatve-songs/songs-lt/lilypond/AisimLaukunApsdairyti.ly:35:30:31">
<g transform="translate(5.8000, 26.2932)">
<path stroke-width="0.0800" stroke-linejoin="round" stroke-linecap="round" stroke="currentColor" fill="currentColor" d="M1.6042 -2.1950C3.0493 -3.5643 7.5284 -3.7736 9.0948 -2.5450L9.0948 -2.5450C7.5340 -3.6537 3.0549 -3.4444 1.6042 -2.1950z"/>
</g>
</a>
<g transform="translate(-0.8877, 23.2228)">
<text font-family="serif" font-size="1.7461" text-anchor="start" fill="currentColor">
<tspan>5</tspan>
</text>
</g>
<g transform="translate(0.8000, 27.2932)">
<path transform="scale(0.0040, -0.0040)" d="M266 -635h-6c-108 0 -195 88 -195 197c0 58 53 103 112 103c54 0 95 -47 95 -103c0 -52 -43 -95 -95 -95c-11 0 -21 2 -31 6c26 -39 68 -65 117 -65h4zM461 -203c68 24 113 90 113 164c0 90 -66 179 -173 190c19 -89 48 -242 60 -354zM74 28c0 -145 141 -247 264 -247
c1 0 47 0 82 6c-7 64 -29 203 -63 364c-79 -8 -124 -61 -124 -119c0 -44 25 -91 81 -123c5 -5 7 -10 7 -15c0 -11 -10 -22 -22 -22c-15 0 -126 62 -126 187c0 88 58 174 160 197c-14 58 -29 117 -46 175c-107 -121 -213 -243 -213 -403zM250 553c-29 96 -52 170 -52 346
c0 115 55 224 149 292c6 5 14 5 20 0c68 -80 133 -245 133 -358c0 -143 -86 -255 -180 -364c21 -68 39 -138 56 -207c2 0 7 1 13 1c155 0 256 -128 256 -261c0 -113 -74 -212 -180 -246c3 -35 5 -70 5 -105c0 -19 -1 -39 -2 -58c-7 -119 -88 -225 -202 -228l1 43
c93 2 153 92 159 191c1 18 2 37 2 55c0 31 -1 61 -4 92c-5 -1 -44 -8 -89 -8c-193 0 -333 180 -333 374c0 177 131 306 248 441zM428 916c0 34 1 66 -20 129c-99 -48 -162 -149 -162 -259c0 -52 12 -115 36 -194c80 97 146 198 146 324z" fill="currentColor"/>
</g>
<a style="color:inherit;" xlink:href="textedit:///Users/kapsitis/workspace-public/ddgatve-songs/songs-lt/lilypond/AisimLaukunApsdairyti.ly:48:38:39">
<g transform="translate(5.8000, 26.2932)">
<path stroke-width="0.0800" stroke-linejoin="round" stroke-linecap="round" stroke="currentColor" fill="currentColor" d="M0.4300 2.1950C2.2055 3.1491 6.7103 2.1568 7.9206 0.5450L7.9206 0.5450C6.6845 2.0396 2.1797 3.0319 0.4300 2.1950z"/>
</g>
</a>
<a style="color:inherit;" xlink:href="textedit:///Users/kapsitis/workspace-public/ddgatve-songs/songs-lt/lilypond/AisimLaukunApsdairyti.ly:40:81:82">
<g transform="translate(12.7489, 32.4633)">
<rect x="0.0000" y="-0.5500" width="0.6600" height="0.1300" ry="0.0400" fill="currentColor"/>
</g>
</a>
<a style="color:inherit;" xlink:href="textedit:///Users/kapsitis/workspace-public/ddgatve-songs/songs-lt/lilypond/AisimLaukunApsdairyti.ly:35:28:29">
<g transform="translate(5.8000, 25.2932)">
<path transform="scale(0.0040, -0.0040)" d="M218 136c66 0 108 -36 108 -89c0 -89 -113 -183 -218 -183c-66 0 -108 36 -108 89c0 89 113 183 218 183z" fill="currentColor"/>
</g>
</a>
<a style="color:inherit;" xlink:href="textedit:///Users/kapsitis/workspace-public/ddgatve-songs/songs-lt/lilypond/AisimLaukunApsdairyti.ly:48:36:37">
<g transform="translate(5.8000, 27.2932)">
<path transform="scale(0.0040, -0.0040)" d="M218 136c66 0 108 -36 108 -89c0 -89 -113 -183 -218 -183c-66 0 -108 36 -108 89c0 89 113 183 218 183z" fill="currentColor"/>
</g>
</a>
<a style="color:inherit;" xlink:href="textedit:///Users/kapsitis/workspace-public/ddgatve-songs/songs-lt/lilypond/AisimLaukunApsdairyti.ly:40:78:79">
<g transform="translate(5.8000, 32.4633)">
<text font-family="serif" font-size="2.4696" text-anchor="start" fill="currentColor">
<tspan>ty</tspan>
</text>
</g>
</a>
<g transform="translate(7.0392, 26.2932)">
<rect x="-0.0650" y="-4.0000" width="0.1300" height="2.8139" ry="0.0400" fill="currentColor"/>
</g>
<g transform="translate(5.8650, 26.2932)">
<rect x="-0.0650" y="1.1861" width="0.1300" height="2.8139" ry="0.0400" fill="currentColor"/>
</g>
<a style="color:inherit;" xlink:href="textedit:///Users/kapsitis/workspace-public/ddgatve-songs/songs-lt/lilypond/AisimLaukunApsdairyti.ly:35:32:33">
<g transform="translate(14.0206, 24.7932)">
<path transform="scale(0.0040, -0.0040)" d="M218 136c66 0 108 -36 108 -89c0 -89 -113 -183 -218 -183c-66 0 -108 36 -108 89c0 89 113 183 218 183z" fill="currentColor"/>
</g>
</a>
<a style="color:inherit;" xlink:href="textedit:///Users/kapsitis/workspace-public/ddgatve-songs/songs-lt/lilypond/AisimLaukunApsdairyti.ly:48:40:41">
<g transform="translate(14.0206, 25.7932)">
<path transform="scale(0.0040, -0.0040)" d="M218 136c66 0 108 -36 108 -89c0 -89 -113 -183 -218 -183c-66 0 -108 36 -108 89c0 89 113 183 218 183z" fill="currentColor"/>
</g>
</a>
<g transform="translate(15.2598, 26.2932)">
<rect x="-0.0650" y="-4.5000" width="0.1300" height="2.8139" ry="0.0400" fill="currentColor"/>
</g>
<g transform="translate(15.3248, 21.8332)">
<path transform="scale(0.0040, -0.0040)" d="M0 0v-250h-16v250h16zM0 0c0 -197 207 -336 207 -533c0 -71 -15 -141 -41 -207c-5 -8 -13 -12 -20 -12c-13 0 -26 11 -23 27c26 61 42 126 42 192c0 103 -94 208 -165 283v250z" fill="currentColor"/>
</g>
<g transform="translate(14.0856, 26.2932)">
<rect x="-0.0650" y="-0.3139" width="0.1300" height="3.3139" ry="0.0400" fill="currentColor"/>
</g>
<g transform="translate(14.1506, 29.2532)">
<path transform="scale(0.0040, -0.0040)" d="M0 0h-16v250h16v-250zM0 0v250c97 59 224 148 224 259c0 57 -15 112 -40 163c-3 16 10 27 23 27c7 0 15 -3 20 -11c25 -56 40 -117 40 -179c0 -203 -267 -306 -267 -509z" fill="currentColor"/>
</g>
<a style="color:inherit;" xlink:href="textedit:///Users/kapsitis/workspace-public/ddgatve-songs/songs-lt/lilypond/AisimLaukunApsdairyti.ly:35:42:43">
<g transform="translate(26.7381, 22.2932)">
<polygon stroke-linejoin="round" stroke-linecap="round" stroke-width="0.0800" fill="currentColor" stroke="currentColor" points="5.0399 -1.0100 5.0399 -0.6100 0.0400 0.2000 0.0400 -0.2000"/>
</g>
</a>
<a style="color:inherit;" xlink:href="textedit:///Users/kapsitis/workspace-public/ddgatve-songs/songs-lt/lilypond/AisimLaukunApsdairyti.ly:35:36:37">
<g transform="translate(18.7838, 24.7932)">
<path transform="scale(0.0040, -0.0040)" d="M218 136c66 0 108 -36 108 -89c0 -89 -113 -183 -218 -183c-66 0 -108 36 -108 89c0 89 113 183 218 183z" fill="currentColor"/>
</g>
</a>
<a style="color:inherit;" xlink:href="textedit:///Users/kapsitis/workspace-public/ddgatve-songs/songs-lt/lilypond/AisimLaukunApsdairyti.ly:48:44:45">
<g transform="translate(18.7838, 25.7932)">
<path transform="scale(0.0040, -0.0040)" d="M218 136c66 0 108 -36 108 -89c0 -89 -113 -183 -218 -183c-66 0 -108 36 -108 89c0 89 113 183 218 183z" fill="currentColor"/>
</g>
</a>
<a style="color:inherit;" xlink:href="textedit:///Users/kapsitis/workspace-public/ddgatve-songs/songs-lt/lilypond/AisimLaukunApsdairyti.ly:40:84:85">
<g transform="translate(18.4457, 32.4633)">
<text font-family="serif" font-size="2.4696" text-anchor="start" fill="currentColor">
<tspan>ti,</tspan>
</text>
</g>
</a>
<g transform="translate(20.0230, 26.2932)">
<rect x="-0.0650" y="-4.5000" width="0.1300" height="2.8139" ry="0.0400" fill="currentColor"/>
</g>
<g transform="translate(20.0880, 21.8332)">
<path transform="scale(0.0040, -0.0040)" d="M0 0v-250h-16v250h16zM0 0c0 -197 207 -336 207 -533c0 -71 -15 -141 -41 -207c-5 -8 -13 -12 -20 -12c-13 0 -26 11 -23 27c26 61 42 126 42 192c0 103 -94 208 -165 283v250z" fill="currentColor"/>
</g>
<g transform="translate(18.8488, 26.2932)">
<rect x="-0.0650" y="-0.3139" width="0.1300" height="3.3139" ry="0.0400" fill="currentColor"/>
</g>
<g transform="translate(18.9138, 29.2532)">
<path transform="scale(0.0040, -0.0040)" d="M0 0h-16v250h16v-250zM0 0v250c97 59 224 148 224 259c0 57 -15 112 -40 163c-3 16 10 27 23 27c7 0 15 -3 20 -11c25 -56 40 -117 40 -179c0 -203 -267 -306 -267 -509z" fill="currentColor"/>
</g>
<a style="color:inherit;" xlink:href="textedit:///Users/kapsitis/workspace-public/ddgatve-songs/songs-lt/lilypond/AisimLaukunApsdairyti.ly:35:43:44">
<g transform="translate(25.5639, 26.2932)">
<path stroke-width="0.0800" stroke-linejoin="round" stroke-linecap="round" stroke="currentColor" fill="currentColor" d="M1.1708 -4.7504C2.1425 -5.9684 4.8183 -6.3951 6.1207 -5.5396L6.1207 -5.5396C4.8372 -6.2766 2.1614 -5.8499 1.1708 -4.7504z"/>
</g>
</a>
<a style="color:inherit;" xlink:href="textedit:///Users/kapsitis/workspace-public/ddgatve-songs/songs-lt/lilypond/AisimLaukunApsdairyti.ly:41:3:4">
<g transform="translate(30.7379, 32.4633)">
<rect x="0.0000" y="-0.5500" width="0.6600" height="0.1300" ry="0.0400" fill="currentColor"/>
</g>
</a>
<a style="color:inherit;" xlink:href="textedit:///Users/kapsitis/workspace-public/ddgatve-songs/songs-lt/lilypond/AisimLaukunApsdairyti.ly:35:40:41">
<g transform="translate(25.5639, 25.2932)">
<path transform="scale(0.0040, -0.0040)" d="M218 136c66 0 108 -36 108 -89c0 -89 -113 -183 -218 -183c-66 0 -108 36 -108 89c0 89 113 183 218 183z" fill="currentColor"/>
</g>
</a>
<a style="color:inherit;" xlink:href="textedit:///Users/kapsitis/workspace-public/ddgatve-songs/songs-lt/lilypond/AisimLaukunApsdairyti.ly:48:50:51">
<g transform="translate(25.5639, 27.2932)">
<path transform="scale(0.0040, -0.0040)" d="M218 136c66 0 108 -36 108 -89c0 -89 -113 -183 -218 -183c-66 0 -108 36 -108 89c0 89 113 183 218 183z" fill="currentColor"/>
</g>
</a>
<a style="color:inherit;" xlink:href="textedit:///Users/kapsitis/workspace-public/ddgatve-songs/songs-lt/lilypond/AisimLaukunApsdairyti.ly:48:53:54">
<g transform="translate(25.5639, 26.2932)">
<path transform="scale(0.0040, -0.0040)" d="M218 136c66 0 108 -36 108 -89c0 -89 -113 -183 -218 -183c-66 0 -108 36 -108 89c0 89 113 183 218 183z" fill="currentColor"/>
</g>
</a>
<a style="color:inherit;" xlink:href="textedit:///Users/kapsitis/workspace-public/ddgatve-songs/songs-lt/lilypond/AisimLaukunApsdairyti.ly:41:0:1">
<g transform="translate(25.5639, 32.4633)">
<text font-family="serif" font-size="2.4696" text-anchor="start" fill="currentColor">
<tspan>ža</tspan>
</text>
</g>
</a>
<g transform="translate(26.8031, 26.2932)">
<rect x="-0.0650" y="-4.0104" width="0.1300" height="2.8243" ry="0.0400" fill="currentColor"/>
</g>
<g transform="translate(25.6289, 26.2932)">
<rect x="-0.0650" y="0.1861" width="0.1300" height="3.8139" ry="0.0400" fill="currentColor"/>
</g>
<a style="color:inherit;" xlink:href="textedit:///Users/kapsitis/workspace-public/ddgatve-songs/songs-lt/lilypond/AisimLaukunApsdairyti.ly:35:45:46">
<g transform="translate(30.5138, 23.7932)">
<path transform="scale(0.0040, -0.0040)" d="M218 136c66 0 108 -36 108 -89c0 -89 -113 -183 -218 -183c-66 0 -108 36 -108 89c0 89 113 183 218 183z" fill="currentColor"/>
</g>
</a>
<g transform="translate(31.7531, 26.2932)">
<rect x="-0.0650" y="-4.7996" width="0.1300" height="2.1135" ry="0.0400" fill="currentColor"/>
</g>
<a style="color:inherit;" xlink:href="textedit:///Users/kapsitis/workspace-public/ddgatve-songs/songs-lt/lilypond/AisimLaukunApsdairyti.ly:41:13:14">
<g transform="translate(47.6404, 32.4633)">
<rect x="0.0000" y="-0.5500" width="0.6600" height="0.1300" ry="0.0400" fill="currentColor"/>
</g>
</a>
<a style="color:inherit;" xlink:href="textedit:///Users/kapsitis/workspace-public/ddgatve-songs/songs-lt/lilypond/AisimLaukunApsdairyti.ly:35:49:50">
<g transform="translate(34.9638, 24.7932)">
<path transform="scale(0.0040, -0.0040)" d="M218 136c66 0 108 -36 108 -89c0 -89 -113 -183 -218 -183c-66 0 -108 36 -108 89c0 89 113 183 218 183z" fill="currentColor"/>
</g>
</a>
<a style="color:inherit;" xlink:href="textedit:///Users/kapsitis/workspace-public/ddgatve-songs/songs-lt/lilypond/AisimLaukunApsdairyti.ly:48:58:59">
<g transform="translate(34.9638, 25.7932)">
<path transform="scale(0.0040, -0.0040)" d="M218 136c66 0 108 -36 108 -89c0 -89 -113 -183 -218 -183c-66 0 -108 36 -108 89c0 89 113 183 218 183z" fill="currentColor"/>
</g>
</a>
<a style="color:inherit;" xlink:href="textedit:///Users/kapsitis/workspace-public/ddgatve-songs/songs-lt/lilypond/AisimLaukunApsdairyti.ly:41:6:7">
<g transform="translate(34.3867, 32.4633)">
<text font-family="serif" font-size="2.4696" text-anchor="start" fill="currentColor">
<tspan>lia</tspan>
</text>
</g>
</a>
<g transform="translate(36.2030, 26.2932)">
<rect x="-0.0650" y="-4.3333" width="0.1300" height="2.6472" ry="0.0400" fill="currentColor"/>
</g>
<g transform="translate(35.0288, 26.2932)">
<rect x="-0.0650" y="-0.3139" width="0.1300" height="3.3139" ry="0.0400" fill="currentColor"/>
</g>
<a style="color:inherit;" xlink:href="textedit:///Users/kapsitis/workspace-public/ddgatve-songs/songs-lt/lilypond/AisimLaukunApsdairyti.ly:41:19:20">
<g transform="translate(52.4377, 32.4633)">
<rect x="0.0000" y="-0.5500" width="0.6600" height="0.1300" ry="0.0400" fill="currentColor"/>
</g>
</a>
<a style="color:inherit;" xlink:href="textedit:///Users/kapsitis/workspace-public/ddgatve-songs/songs-lt/lilypond/AisimLaukunApsdairyti.ly:35:54:55">
<g transform="translate(45.0050, 25.2932)">
<path transform="scale(0.0040, -0.0040)" d="M218 136c66 0 108 -36 108 -89c0 -89 -113 -183 -218 -183c-66 0 -108 36 -108 89c0 89 113 183 218 183z" fill="currentColor"/>
</g>
</a>
<a style="color:inherit;" xlink:href="textedit:///Users/kapsitis/workspace-public/ddgatve-songs/songs-lt/lilypond/AisimLaukunApsdairyti.ly:48:63:64">
<g transform="translate(45.0050, 26.2932)">
<path transform="scale(0.0040, -0.0040)" d="M218 136c66 0 108 -36 108 -89c0 -89 -113 -183 -218 -183c-66 0 -108 36 -108 89c0 89 113 183 218 183z" fill="currentColor"/>
</g>
</a>
<a style="color:inherit;" xlink:href="textedit:///Users/kapsitis/workspace-public/ddgatve-songs/songs-lt/lilypond/AisimLaukunApsdairyti.ly:41:10:11">
<g transform="translate(44.6328, 32.4633)">
<text font-family="serif" font-size="2.4696" text-anchor="start" fill="currentColor">
<tspan>še</tspan>
</text>
</g>
</a>
<g transform="translate(46.2442, 26.2932)">
<rect x="-0.0650" y="-4.1250" width="0.1300" height="2.9389" ry="0.0400" fill="currentColor"/>
</g>
<g transform="translate(46.3092, 22.2082)">
<path transform="scale(0.0040, -0.0040)" d="M0 0v-250h-16v250h16zM0 0c0 -197 207 -336 207 -533c0 -71 -15 -141 -41 -207c-5 -8 -13 -12 -20 -12c-13 0 -26 11 -23 27c26 61 42 126 42 192c0 103 -94 208 -165 283v250z" fill="currentColor"/>
</g>
<g transform="translate(45.0700, 26.2932)">
<rect x="-0.0650" y="0.1861" width="0.1300" height="3.1889" ry="0.0400" fill="currentColor"/>
</g>
<g transform="translate(45.1350, 29.6282)">
<path transform="scale(0.0040, -0.0040)" d="M0 0h-16v250h16v-250zM0 0v250c97 59 224 148 224 259c0 57 -15 112 -40 163c-3 16 10 27 23 27c7 0 15 -3 20 -11c25 -56 40 -117 40 -179c0 -203 -267 -306 -267 -509z" fill="currentColor"/>
</g>
<a style="color:inherit;" xlink:href="textedit:///Users/kapsitis/workspace-public/ddgatve-songs/songs-lt/lilypond/AisimLaukunApsdairyti.ly:41:30:31">
<g transform="translate(62.8967, 32.4633)">
<rect x="0.0000" y="-0.5500" width="0.6600" height="0.1300" ry="0.0400" fill="currentColor"/>
</g>
</a>
<a style="color:inherit;" xlink:href="textedit:///Users/kapsitis/workspace-public/ddgatve-songs/songs-lt/lilypond/AisimLaukunApsdairyti.ly:35:57:58">
<g transform="translate(49.7681, 25.2932)">
<path transform="scale(0.0040, -0.0040)" d="M218 136c66 0 108 -36 108 -89c0 -89 -113 -183 -218 -183c-66 0 -108 36 -108 89c0 89 113 183 218 183z" fill="currentColor"/>
</g>
</a>
<a style="color:inherit;" xlink:href="textedit:///Users/kapsitis/workspace-public/ddgatve-songs/songs-lt/lilypond/AisimLaukunApsdairyti.ly:48:66:67">
<g transform="translate(49.7681, 26.2932)">
<path transform="scale(0.0040, -0.0040)" d="M218 136c66 0 108 -36 108 -89c0 -89 -113 -183 -218 -183c-66 0 -108 36 -108 89c0 89 113 183 218 183z" fill="currentColor"/>
</g>
</a>
<a style="color:inherit;" xlink:href="textedit:///Users/kapsitis/workspace-public/ddgatve-songs/songs-lt/lilypond/AisimLaukunApsdairyti.ly:41:16:17">
<g transform="translate(49.2594, 32.4633)">
<text font-family="serif" font-size="2.4696" text-anchor="start" fill="currentColor">
<tspan>ne</tspan>
</text>
</g>
</a>
<g transform="translate(51.0073, 26.2932)">
<rect x="-0.0650" y="-4.1250" width="0.1300" height="2.9389" ry="0.0400" fill="currentColor"/>
</g>
<g transform="translate(51.0723, 22.2082)">
<path transform="scale(0.0040, -0.0040)" d="M0 0v-250h-16v250h16zM0 0c0 -197 207 -336 207 -533c0 -71 -15 -141 -41 -207c-5 -8 -13 -12 -20 -12c-13 0 -26 11 -23 27c26 61 42 126 42 192c0 103 -94 208 -165 283v250z" fill="currentColor"/>
</g>
<g transform="translate(49.8331, 26.2932)">
<rect x="-0.0650" y="0.1861" width="0.1300" height="3.1889" ry="0.0400" fill="currentColor"/>
</g>
<g transform="translate(49.8981, 29.6282)">
<path transform="scale(0.0040, -0.0040)" d="M0 0h-16v250h16v-250zM0 0v250c97 59 224 148 224 259c0 57 -15 112 -40 163c-3 16 10 27 23 27c7 0 15 -3 20 -11c25 -56 40 -117 40 -179c0 -203 -267 -306 -267 -509z" fill="currentColor"/>
</g>
<a style="color:inherit;" xlink:href="textedit:///Users/kapsitis/workspace-public/ddgatve-songs/songs-lt/lilypond/AisimLaukunApsdairyti.ly:35:59:60">
<g transform="translate(54.5313, 25.7932)">
<path transform="scale(0.0040, -0.0040)" d="M218 136c66 0 108 -36 108 -89c0 -89 -113 -183 -218 -183c-66 0 -108 36 -108 89c0 89 113 183 218 183z" fill="currentColor"/>
</g>
</a>
<a style="color:inherit;" xlink:href="textedit:///Users/kapsitis/workspace-public/ddgatve-songs/songs-lt/lilypond/AisimLaukunApsdairyti.ly:48:68:69">
<g transform="translate(54.5313, 26.7932)">
<path transform="scale(0.0040, -0.0040)" d="M218 136c66 0 108 -36 108 -89c0 -89 -113 -183 -218 -183c-66 0 -108 36 -108 89c0 89 113 183 218 183z" fill="currentColor"/>
</g>
</a>
<a style="color:inherit;" xlink:href="textedit:///Users/kapsitis/workspace-public/ddgatve-songs/songs-lt/lilypond/AisimLaukunApsdairyti.ly:41:22:23">
<g transform="translate(53.9542, 32.4633)">
<text font-family="serif" font-size="2.4696" text-anchor="start" fill="currentColor">
<tspan>lia</tspan>
</text>
</g>
</a>
<g transform="translate(55.7705, 26.2932)">
<rect x="-0.0650" y="-3.7500" width="0.1300" height="3.0639" ry="0.0400" fill="currentColor"/>
</g>
<g transform="translate(55.8355, 22.5832)">
<path transform="scale(0.0040, -0.0040)" d="M0 0v-250h-16v250h16zM0 0c0 -197 207 -336 207 -533c0 -71 -15 -141 -41 -207c-5 -8 -13 -12 -20 -12c-13 0 -26 11 -23 27c26 61 42 126 42 192c0 103 -94 208 -165 283v250z" fill="currentColor"/>
</g>
<g transform="translate(54.5963, 26.2932)">
<rect x="-0.0650" y="0.6861" width="0.1300" height="3.0639" ry="0.0400" fill="currentColor"/>
</g>
<g transform="translate(54.6613, 30.0032)">
<path transform="scale(0.0040, -0.0040)" d="M0 0h-16v250h16v-250zM0 0v250c97 59 224 148 224 259c0 57 -15 112 -40 163c-3 16 10 27 23 27c7 0 15 -3 20 -11c25 -56 40 -117 40 -179c0 -203 -267 -306 -267 -509z" fill="currentColor"/>
</g>
<a style="color:inherit;" xlink:href="textedit:///Users/kapsitis/workspace-public/ddgatve-songs/songs-lt/lilypond/AisimLaukunApsdairyti.ly:35:61:62">
<g transform="translate(59.2944, 25.7932)">
<path transform="scale(0.0040, -0.0040)" d="M218 136c66 0 108 -36 108 -89c0 -89 -113 -183 -218 -183c-66 0 -108 36 -108 89c0 89 113 183 218 183z" fill="currentColor"/>
</g>
</a>
<a style="color:inherit;" xlink:href="textedit:///Users/kapsitis/workspace-public/ddgatve-songs/songs-lt/lilypond/AisimLaukunApsdairyti.ly:48:70:71">
<g transform="translate(59.2944, 26.7932)">
<path transform="scale(0.0040, -0.0040)" d="M218 136c66 0 108 -36 108 -89c0 -89 -113 -183 -218 -183c-66 0 -108 36 -108 89c0 89 113 183 218 183z" fill="currentColor"/>
</g>
</a>
<a style="color:inherit;" xlink:href="textedit:///Users/kapsitis/workspace-public/ddgatve-songs/songs-lt/lilypond/AisimLaukunApsdairyti.ly:41:26:27">
<g transform="translate(58.3759, 32.4633)">
<text font-family="serif" font-size="2.4696" text-anchor="start" fill="currentColor">
<tspan>var</tspan>
</text>
</g>
</a>
<g transform="translate(60.5336, 26.2932)">
<rect x="-0.0650" y="-3.7500" width="0.1300" height="3.0639" ry="0.0400" fill="currentColor"/>
</g>
<g transform="translate(60.5986, 22.5832)">
<path transform="scale(0.0040, -0.0040)" d="M0 0v-250h-16v250h16zM0 0c0 -197 207 -336 207 -533c0 -71 -15 -141 -41 -207c-5 -8 -13 -12 -20 -12c-13 0 -26 11 -23 27c26 61 42 126 42 192c0 103 -94 208 -165 283v250z" fill="currentColor"/>
</g>
<g transform="translate(59.3594, 26.2932)">
<rect x="-0.0650" y="0.6861" width="0.1300" height="3.0639" ry="0.0400" fill="currentColor"/>
</g>
<g transform="translate(59.4244, 30.0032)">
<path transform="scale(0.0040, -0.0040)" d="M0 0h-16v250h16v-250zM0 0v250c97 59 224 148 224 259c0 57 -15 112 -40 163c-3 16 10 27 23 27c7 0 15 -3 20 -11c25 -56 40 -117 40 -179c0 -203 -267 -306 -267 -509z" fill="currentColor"/>
</g>
<a style="color:inherit;" xlink:href="textedit:///Users/kapsitis/workspace-public/ddgatve-songs/songs-lt/lilypond/AisimLaukunApsdairyti.ly:35:65:66">
<g transform="translate(67.0133, 25.2932)">
<path transform="scale(0.0040, -0.0040)" d="M314 65c0 23 -19 41 -42 41c-39 0 -204 -110 -231 -143c-7 -8 -10 -18 -10 -28c0 -23 19 -41 42 -41c39 0 203 110 230 143c7 8 11 18 11 28zM262 136c41 0 82 -14 82 -71c0 -26 -16 -112 -74 -151c-25 -17 -87 -50 -187 -50c-41 0 -83 14 -83 71c0 26 16 112 74 151
c25 17 88 50 188 50z" fill="currentColor"/>
</g>
</a>
<a style="color:inherit;" xlink:href="textedit:///Users/kapsitis/workspace-public/ddgatve-songs/songs-lt/lilypond/AisimLaukunApsdairyti.ly:48:74:75">
<g transform="translate(67.0133, 27.2932)">
<path transform="scale(0.0040, -0.0040)" d="M314 65c0 23 -19 41 -42 41c-39 0 -204 -110 -231 -143c-7 -8 -10 -18 -10 -28c0 -23 19 -41 42 -41c39 0 203 110 230 143c7 8 11 18 11 28zM262 136c41 0 82 -14 82 -71c0 -26 -16 -112 -74 -151c-25 -17 -87 -50 -187 -50c-41 0 -83 14 -83 71c0 26 16 112 74 151
c25 17 88 50 188 50z" fill="currentColor"/>
</g>
</a>
<a style="color:inherit;" xlink:href="textedit:///Users/kapsitis/workspace-public/ddgatve-songs/songs-lt/lilypond/AisimLaukunApsdairyti.ly:41:33:34">
<g transform="translate(64.9363, 32.4633)">
<text font-family="serif" font-size="2.4696" text-anchor="start" fill="currentColor">
<tspan>ty(ti).</tspan>
</text>
</g>
</a>
<g transform="translate(68.3256, 26.2932)">
<rect x="-0.0650" y="-4.0000" width="0.1300" height="2.7410" ry="0.0400" fill="currentColor"/>
</g>
<g transform="translate(67.0783, 26.2932)">
<rect x="-0.0650" y="1.2590" width="0.1300" height="2.7410" ry="0.0400" fill="currentColor"/>
</g>
<g color="rgb(100%, 100%, 100%)">
<g transform="translate(0.0000, 32.9963)">
<text font-family="sans-serif" font-size="1.9600" text-anchor="start" fill="currentColor">
<tspan>__</tspan>
</text>
</g>
</g>
</svg>
