<svg xmlns="http://www.w3.org/2000/svg" xmlns:xlink="http://www.w3.org/1999/xlink" version="1.2" width="141.56mm" height="57.14mm" viewBox="-0.8877 -0.0000 80.5554 32.5178">
<style type="text/css">
<![CDATA[
tspan { white-space: pre; }
]]>
</style>
<g transform="translate(0.0000, -0.3846)">
<text font-family="serif" font-size="2.2001" text-anchor="start" fill="currentColor">
<tspan>__</tspan>
</text>
</g>
<g transform="translate(77.4825, -0.3846)">
<text font-family="serif" font-size="2.2001" text-anchor="start" fill="currentColor">
<tspan>__</tspan>
</text>
</g>
<g transform="translate(0.0000, 8.1900)">
<line stroke-linejoin="round" stroke-linecap="round" stroke-width="0.1000" stroke="currentColor" x1="0.0500" y1="0" x2="79.6177" y2="0"/>
</g>
<g transform="translate(0.0000, 7.1900)">
<line stroke-linejoin="round" stroke-linecap="round" stroke-width="0.1000" stroke="currentColor" x1="0.0500" y1="0" x2="79.6177" y2="0"/>
</g>
<g transform="translate(0.0000, 6.1900)">
<line stroke-linejoin="round" stroke-linecap="round" stroke-width="0.1000" stroke="currentColor" x1="0.0500" y1="0" x2="79.6177" y2="0"/>
</g>
<g transform="translate(0.0000, 5.1900)">
<line stroke-linejoin="round" stroke-linecap="round" stroke-width="0.1000" stroke="currentColor" x1="0.0500" y1="0" x2="79.6177" y2="0"/>
</g>
<g transform="translate(0.0000, 4.1900)">
<line stroke-linejoin="round" stroke-linecap="round" stroke-width="0.1000" stroke="currentColor" x1="0.0500" y1="0" x2="79.6177" y2="0"/>
</g>
<g transform="translate(79.4777, 17.5014)">
<rect x="0.0000" y="-1.4142" width="0.1900" height="2.8284" ry="0.0000" fill="currentColor"/>
</g>
<g transform="translate(79.4777, 6.1900)">
<rect x="0.0000" y="-2.0000" width="0.1900" height="4.0000" ry="0.0000" fill="currentColor"/>
</g>
<g transform="translate(0.0000, 18.9157)">
<line stroke-linejoin="round" stroke-linecap="round" stroke-width="0.0707" stroke="currentColor" x1="0.0354" y1="0" x2="79.6324" y2="0"/>
</g>
<g transform="translate(0.0000, 18.2085)">
<line stroke-linejoin="round" stroke-linecap="round" stroke-width="0.0707" stroke="currentColor" x1="0.0354" y1="0" x2="79.6324" y2="0"/>
</g>
<g transform="translate(0.0000, 17.5014)">
<line stroke-linejoin="round" stroke-linecap="round" stroke-width="0.0707" stroke="currentColor" x1="0.0354" y1="0" x2="79.6324" y2="0"/>
</g>
<g transform="translate(0.0000, 16.7943)">
<line stroke-linejoin="round" stroke-linecap="round" stroke-width="0.0707" stroke="currentColor" x1="0.0354" y1="0" x2="79.6324" y2="0"/>
</g>
<g transform="translate(0.0000, 16.0872)">
<line stroke-linejoin="round" stroke-linecap="round" stroke-width="0.0707" stroke="currentColor" x1="0.0354" y1="0" x2="79.6324" y2="0"/>
</g>
<g transform="translate(-0.0600, 11.5455)">
<rect x="0.0000" y="-7.4055" width="0.1600" height="14.8110" ry="0.0500" fill="currentColor"/>
</g>
<a style="color:inherit;" xlink:href="textedit:///Users/kapsitis/workspace-public/ddgatve-songs/songs-lt/lilypond/AnTeveliausDvaro.ly:45:28:29">
<g transform="translate(46.8664, 17.5014)">
<path transform="scale(0.0028, -0.0028)" d="M208 139c69 0 117 -40 117 -99c0 -91 -107 -179 -209 -179c-69 0 -116 40 -116 99c0 91 106 179 208 179z" fill="currentColor"/>
</g>
</a>
<a style="color:inherit;" xlink:href="textedit:///Users/kapsitis/workspace-public/ddgatve-songs/songs-lt/lilypond/AnTeveliausDvaro.ly:36:5:6">
<g transform="translate(14.0165, 5.1900)">
<path transform="scale(0.0040, -0.0040)" d="M218 136c66 0 108 -36 108 -89c0 -89 -113 -183 -218 -183c-66 0 -108 36 -108 89c0 89 113 183 218 183z" fill="currentColor"/>
</g>
</a>
<a style="color:inherit;" xlink:href="textedit:///Users/kapsitis/workspace-public/ddgatve-songs/songs-lt/lilypond/AnTeveliausDvaro.ly:62:0:1">
<g transform="translate(14.0165, 6.1900)">
<path transform="scale(0.0040, -0.0040)" d="M218 136c66 0 108 -36 108 -89c0 -89 -113 -183 -218 -183c-66 0 -108 36 -108 89c0 89 113 183 218 183z" fill="currentColor"/>
</g>
</a>
<g transform="translate(0.8000, 7.1900)">
<path transform="scale(0.0040, -0.0040)" d="M266 -635h-6c-108 0 -195 88 -195 197c0 58 53 103 112 103c54 0 95 -47 95 -103c0 -52 -43 -95 -95 -95c-11 0 -21 2 -31 6c26 -39 68 -65 117 -65h4zM461 -203c68 24 113 90 113 164c0 90 -66 179 -173 190c19 -89 48 -242 60 -354zM74 28c0 -145 141 -247 264 -247
c1 0 47 0 82 6c-7 64 -29 203 -63 364c-79 -8 -124 -61 -124 -119c0 -44 25 -91 81 -123c5 -5 7 -10 7 -15c0 -11 -10 -22 -22 -22c-15 0 -126 62 -126 187c0 88 58 174 160 197c-14 58 -29 117 -46 175c-107 -121 -213 -243 -213 -403zM250 553c-29 96 -52 170 -52 346
c0 115 55 224 149 292c6 5 14 5 20 0c68 -80 133 -245 133 -358c0 -143 -86 -255 -180 -364c21 -68 39 -138 56 -207c2 0 7 1 13 1c155 0 256 -128 256 -261c0 -113 -74 -212 -180 -246c3 -35 5 -70 5 -105c0 -19 -1 -39 -2 -58c-7 -119 -88 -225 -202 -228l1 43
c93 2 153 92 159 191c1 18 2 37 2 55c0 31 -1 61 -4 92c-5 -1 -44 -8 -89 -8c-193 0 -333 180 -333 374c0 177 131 306 248 441zM428 916c0 34 1 66 -20 129c-99 -48 -162 -149 -162 -259c0 -52 12 -115 36 -194c80 97 146 198 146 324z" fill="currentColor"/>
</g>
<a style="color:inherit;" xlink:href="textedit:///Users/kapsitis/workspace-public/ddgatve-songs/songs-lt/lilypond/AnTeveliausDvaro.ly:33:0:1">
<g transform="translate(4.4200, 6.1900)">
<path transform="scale(0.0040, -0.0040)" d="M27 41l-1 -66v-11c0 -22 1 -44 4 -66c45 38 93 80 93 139c0 33 -14 67 -43 67c-31 0 -52 -30 -53 -63zM-15 -138l-12 595c8 5 18 8 27 8s19 -3 27 -8l-7 -345c25 21 58 34 91 34c52 0 89 -48 89 -102c0 -80 -86 -117 -147 -169c-15 -13 -24 -38 -45 -38
c-13 0 -23 11 -23 25z" fill="currentColor"/>
</g>
<g transform="translate(5.3400, 4.6900)">
<path transform="scale(0.0040, -0.0040)" d="M27 41l-1 -66v-11c0 -22 1 -44 4 -66c45 38 93 80 93 139c0 33 -14 67 -43 67c-31 0 -52 -30 -53 -63zM-15 -138l-12 595c8 5 18 8 27 8s19 -3 27 -8l-7 -345c25 21 58 34 91 34c52 0 89 -48 89 -102c0 -80 -86 -117 -147 -169c-15 -13 -24 -38 -45 -38
c-13 0 -23 11 -23 25z" fill="currentColor"/>
</g>
</a>
<a style="color:inherit;" xlink:href="textedit:///Users/kapsitis/workspace-public/ddgatve-songs/songs-lt/lilypond/AnTeveliausDvaro.ly:61:0:1">
<g transform="translate(7.2900, 6.1900)">
<path transform="scale(0.0040, -0.0040)" d="M360 486c0 -18 -161 -198 -161 -396c0 -25 3 -50 8 -76c2 -10 -7 -19 -17 -16c-24 7 -48 15 -73 15s-50 -8 -74 -15c-11 -3 -20 6 -16 16c54 128 134 242 216 355c-20 -11 -40 -16 -59 -16c-59 0 -72 57 -117 57c-27 0 -38 -33 -38 -70v-75c0 -10 -7 -15 -14 -15
s-15 5 -15 15v220c0 10 8 15 15 15s14 -5 14 -15v-14c0 -9 12 -19 15 -15c21 29 48 44 78 44c67 0 79 -56 127 -56c56 0 81 56 95 56c8 0 16 -6 16 -14z" fill="currentColor"/>
</g>
<g transform="translate(7.2900, 8.2101)">
<path transform="scale(0.0040, -0.0040)" d="M259 288c27 29 49 62 49 102c0 55 -57 87 -117 87c-47 0 -75 -36 -75 -71c0 -20 10 -40 30 -52zM289 271c33 -19 83 -60 83 -127c0 -73 -66 -144 -189 -144c-94 0 -183 54 -183 140c0 50 39 85 76 120c-41 28 -61 67 -61 106c0 68 61 134 176 134c81 0 161 -38 161 -110
c0 -47 -30 -85 -63 -119zM106 242c-33 -29 -62 -59 -62 -102c0 -69 66 -117 139 -117c54 0 86 42 86 83c0 24 -10 48 -35 62z" fill="currentColor"/>
</g>
<g transform="translate(9.3582, 7.1901)">
<path transform="scale(0.0040, -0.0040)" d="M125 125c-14 0 -25 11 -25 25v75h-75c-14 0 -25 11 -25 25s11 25 25 25h75v75c0 14 11 25 25 25s25 -11 25 -25v-75h75c14 0 25 -11 25 -25s-11 -25 -25 -25h-75v-75c0 -14 -11 -25 -25 -25z" fill="currentColor"/>
</g>
<g transform="translate(10.9483, 6.1900)">
<path transform="scale(0.0040, -0.0040)" d="M170 256c-51 0 -53 -44 -53 -102v-14v-15c0 -58 2 -102 53 -102c57 0 61 51 61 117s-4 116 -61 116zM117 266c17 7 34 13 53 13c101 0 170 -44 170 -139s-69 -140 -170 -140c-112 0 -170 124 -170 250c0 128 72 250 190 250c71 0 138 -39 138 -103c0 -36 -29 -66 -65 -66
s-66 30 -66 66c0 24 39 25 39 49c0 20 -23 31 -46 31c-66 0 -75 -65 -75 -139c0 -24 2 -48 2 -72z" fill="currentColor"/>
</g>
<g transform="translate(10.9483, 8.1901)">
<path transform="scale(0.0040, -0.0040)" d="M259 288c27 29 49 62 49 102c0 55 -57 87 -117 87c-47 0 -75 -36 -75 -71c0 -20 10 -40 30 -52zM289 271c33 -19 83 -60 83 -127c0 -73 -66 -144 -189 -144c-94 0 -183 54 -183 140c0 50 39 85 76 120c-41 28 -61 67 -61 106c0 68 61 134 176 134c81 0 161 -38 161 -110
c0 -47 -30 -85 -63 -119zM106 242c-33 -29 -62 -59 -62 -102c0 -69 66 -117 139 -117c54 0 86 42 86 83c0 24 -10 48 -35 62z" fill="currentColor"/>
</g>
</a>
<a style="color:inherit;" xlink:href="textedit:///Users/kapsitis/workspace-public/ddgatve-songs/songs-lt/lilypond/AnTeveliausDvaro.ly:52:0:1">
<g transform="translate(13.1663, 12.7670)">
<text font-family="serif" font-size="2.4696" text-anchor="start" fill="currentColor">
<tspan>An</tspan>
</text>
</g>
</a>
<a style="color:inherit;" xlink:href="textedit:///Users/kapsitis/workspace-public/ddgatve-songs/songs-lt/lilypond/AnTeveliausDvaro.ly:45:0:1">
<g transform="translate(14.0165, 18.2085)">
<path transform="scale(0.0028, -0.0028)" d="M208 139c69 0 117 -40 117 -99c0 -91 -107 -179 -209 -179c-69 0 -116 40 -116 99c0 91 106 179 208 179z" fill="currentColor"/>
</g>
</a>
<g transform="translate(0.8000, 18.2085)">
<path transform="scale(0.0028, -0.0028)" d="M648 2c0 -114 -74 -214 -179 -248c2 -32 3 -65 3 -97c0 -21 -1 -43 -2 -64c-7 -123 -92 -230 -211 -230c-108 0 -197 88 -197 197c0 58 54 104 113 104c54 0 95 -48 95 -104c0 -52 -43 -95 -95 -95c-8 0 -16 2 -24 4c25 -35 65 -59 111 -59c93 0 155 90 161 190
c1 20 2 39 2 59c0 28 -1 55 -3 83c-5 -1 -43 -7 -87 -7c-194 0 -333 181 -333 377c0 176 128 307 242 443c-36 105 -58 171 -58 348c0 113 54 219 146 286c8 6 21 7 29 0c69 -78 136 -242 136 -357c0 -141 -83 -253 -174 -362c22 -67 41 -135 58 -204h9
c157 0 258 -130 258 -264zM464 -200c62 24 108 86 108 159c0 87 -62 173 -163 187c28 -132 47 -265 55 -346zM338 -218c1 0 46 0 80 6c-7 68 -26 209 -58 359c-79 -7 -123 -59 -123 -116c0 -43 24 -89 78 -120c5 -5 8 -11 8 -17c0 -13 -11 -24 -24 -24
c-17 0 -129 63 -129 189c0 90 60 178 164 201c-14 56 -30 112 -47 167c-104 -122 -208 -245 -208 -404c0 -143 140 -241 259 -241zM239 782c0 -43 15 -102 41 -183c77 97 140 199 140 323c0 58 -8 83 -19 113c-99 -45 -162 -145 -162 -253z" fill="currentColor"/>
</g>
<a style="color:inherit;" xlink:href="textedit:///Users/kapsitis/workspace-public/ddgatve-songs/songs-lt/lilypond/AnTeveliausDvaro.ly:31:0:1">
<g transform="translate(8.4507, 0.1528)">
<path transform="scale(0.0036, -0.0036)" d="M0 0c0 -197 207 -335 207 -532c0 -71 -15 -141 -41 -207c-5 -8 -13 -12 -21 -12c-14 0 -27 11 -24 28c26 60 42 125 42 191c0 103 -93 207 -163 282h-18v250h18z" fill="currentColor"/>
</g>
<g transform="translate(7.2900, 2.8255)">
<rect x="1.0449" y="-2.6727" width="0.1158" height="2.5129" ry="0.0193" fill="currentColor"/>
</g>
<g transform="translate(7.2900, 2.8255)">
<path transform="scale(0.0036, -0.0036)" d="M215 137c67 0 111 -37 111 -92c0 -90 -111 -182 -215 -182c-67 0 -111 37 -111 92c0 90 111 182 215 182z" fill="currentColor"/>
</g>
<g transform="translate(9.1888, 3.3143)">
<text font-family="serif" font-size="2.2001" text-anchor="start" fill="currentColor">
<tspan> = 84</tspan>
</text>
</g>
</a>
<g transform="translate(15.2557, 6.1900)">
<rect x="-0.0650" y="-4.1250" width="0.1300" height="2.9389" ry="0.0400" fill="currentColor"/>
</g>
<g transform="translate(15.3207, 2.1050)">
<path transform="scale(0.0040, -0.0040)" d="M0 0v-250h-16v250h16zM0 0c0 -197 207 -336 207 -533c0 -71 -15 -141 -41 -207c-5 -8 -13 -12 -20 -12c-13 0 -26 11 -23 27c26 61 42 126 42 192c0 103 -94 208 -165 283v250z" fill="currentColor"/>
</g>
<g transform="translate(14.0815, 6.1900)">
<rect x="-0.0650" y="0.1861" width="0.1300" height="3.1889" ry="0.0400" fill="currentColor"/>
</g>
<g transform="translate(14.1465, 9.5250)">
<path transform="scale(0.0040, -0.0040)" d="M0 0h-16v250h16v-250zM0 0v250c97 59 224 148 224 259c0 57 -15 112 -40 163c-3 16 10 27 23 27c7 0 15 -3 20 -11c25 -56 40 -117 40 -179c0 -203 -267 -306 -267 -509z" fill="currentColor"/>
</g>
<g transform="translate(14.8884, 17.5014)">
<rect x="-0.0460" y="-1.7678" width="0.0919" height="2.3605" ry="0.0400" fill="currentColor"/>
</g>
<g transform="translate(14.9344, 15.7737)">
<path transform="scale(0.0028, -0.0028)" d="M0 -212v-213v213c0 -114 85 -201 146 -295c4 13 6 26 6 40c0 94 -87 188 -152 255zM115 -848c0 11 43 74 43 169s-90 188 -158 254v-75h-21v500h21c0 -177 201 -290 201 -467c0 -33 -9 -66 -23 -96c18 -36 29 -74 29 -116c0 -63 -15 -125 -41 -182
c-5 -10 -14 -13 -23 -13c-14 0 -28 10 -28 26z" fill="currentColor"/>
</g>
<a style="color:inherit;" xlink:href="textedit:///Users/kapsitis/workspace-public/ddgatve-songs/songs-lt/lilypond/AnTeveliausDvaro.ly:36:12:13">
<g transform="translate(21.4925, 2.6900)">
<polygon stroke-linejoin="round" stroke-linecap="round" stroke-width="0.0800" fill="currentColor" stroke="currentColor" points="3.0875 0.4900 3.0875 0.8900 0.0400 0.2000 0.0400 -0.2000"/>
</g>
<g transform="translate(21.4925, 3.5000)">
<polygon stroke-linejoin="round" stroke-linecap="round" stroke-width="0.0800" fill="currentColor" stroke="currentColor" points="3.0875 0.4900 3.0875 0.8900 0.0400 0.2000 0.0400 -0.2000"/>
</g>
</a>
<a style="color:inherit;" xlink:href="textedit:///Users/kapsitis/workspace-public/ddgatve-songs/songs-lt/lilypond/AnTeveliausDvaro.ly:45:5:6">
<g transform="translate(17.1674, 16.7943)">
<path transform="scale(0.0028, -0.0028)" d="M208 139c69 0 117 -40 117 -99c0 -91 -107 -179 -209 -179c-69 0 -116 40 -116 99c0 91 106 179 208 179z" fill="currentColor"/>
</g>
</a>
<g transform="translate(18.0393, 17.5014)">
<rect x="-0.0460" y="-3.0052" width="0.0919" height="2.1837" ry="0.0400" fill="currentColor"/>
</g>
<g transform="translate(18.0853, 14.5362)">
<path transform="scale(0.0028, -0.0028)" d="M0 -212v-213v213c0 -114 85 -201 146 -295c4 13 6 26 6 40c0 94 -87 188 -152 255zM115 -848c0 11 43 74 43 169s-90 188 -158 254v-75h-21v500h21c0 -177 201 -290 201 -467c0 -33 -9 -66 -23 -96c18 -36 29 -74 29 -116c0 -63 -15 -125 -41 -182
c-5 -10 -14 -13 -23 -13c-14 0 -28 10 -28 26z" fill="currentColor"/>
</g>
<a style="color:inherit;" xlink:href="textedit:///Users/kapsitis/workspace-public/ddgatve-songs/songs-lt/lilypond/AnTeveliausDvaro.ly:36:13:14">
<g transform="translate(20.3183, 6.1900)">
<path stroke-width="0.0800" stroke-linejoin="round" stroke-linecap="round" stroke="currentColor" fill="currentColor" d="M1.3329 -4.2257C2.2697 -4.7876 3.7170 -4.4683 4.3303 -3.5643L4.3303 -3.5643C3.6911 -4.3511 2.2438 -4.6705 1.3329 -4.2257z"/>
</g>
</a>
<a style="color:inherit;" xlink:href="textedit:///Users/kapsitis/workspace-public/ddgatve-songs/songs-lt/lilypond/AnTeveliausDvaro.ly:36:9:10">
<g transform="translate(20.3183, 5.6900)">
<path transform="scale(0.0040, -0.0040)" d="M218 136c66 0 108 -36 108 -89c0 -89 -113 -183 -218 -183c-66 0 -108 36 -108 89c0 89 113 183 218 183z" fill="currentColor"/>
</g>
</a>
<a style="color:inherit;" xlink:href="textedit:///Users/kapsitis/workspace-public/ddgatve-songs/songs-lt/lilypond/AnTeveliausDvaro.ly:62:6:7">
<g transform="translate(20.3183, 6.6900)">
<path transform="scale(0.0040, -0.0040)" d="M218 136c66 0 108 -36 108 -89c0 -89 -113 -183 -218 -183c-66 0 -108 36 -108 89c0 89 113 183 218 183z" fill="currentColor"/>
</g>
</a>
<a style="color:inherit;" xlink:href="textedit:///Users/kapsitis/workspace-public/ddgatve-songs/songs-lt/lilypond/AnTeveliausDvaro.ly:52:3:4">
<g transform="translate(20.3183, 12.7670)">
<text font-family="serif" font-size="2.4696" text-anchor="start" fill="currentColor">
<tspan>tė</tspan>
</text>
</g>
</a>
<a style="color:inherit;" xlink:href="textedit:///Users/kapsitis/workspace-public/ddgatve-songs/songs-lt/lilypond/AnTeveliausDvaro.ly:45:9:10">
<g transform="translate(20.3183, 17.1479)">
<path transform="scale(0.0028, -0.0028)" d="M208 139c69 0 117 -40 117 -99c0 -91 -107 -179 -209 -179c-69 0 -116 40 -116 99c0 91 106 179 208 179z" fill="currentColor"/>
</g>
</a>
<g transform="translate(21.5575, 6.1900)">
<rect x="-0.0650" y="-3.4857" width="0.1300" height="2.7996" ry="0.0400" fill="currentColor"/>
</g>
<g transform="translate(20.3833, 6.1900)">
<rect x="-0.0650" y="0.6861" width="0.1300" height="3.0639" ry="0.0400" fill="currentColor"/>
</g>
<g transform="translate(20.4483, 9.9000)">
<path transform="scale(0.0040, -0.0040)" d="M0 0h-16v250h16v-250zM0 0v250c97 59 224 148 224 259c0 57 -15 112 -40 163c-3 16 10 27 23 27c7 0 15 -3 20 -11c25 -56 40 -117 40 -179c0 -203 -267 -306 -267 -509z" fill="currentColor"/>
</g>
<g transform="translate(21.1902, 17.5014)">
<rect x="-0.0460" y="-2.4676" width="0.0919" height="1.9996" ry="0.0400" fill="currentColor"/>
</g>
<a style="color:inherit;" xlink:href="textedit:///Users/kapsitis/workspace-public/ddgatve-songs/songs-lt/lilypond/AnTeveliausDvaro.ly:52:6:7">
<g transform="translate(23.9878, 12.7670)">
<rect x="0.0000" y="-0.5500" width="0.6600" height="0.1300" ry="0.0400" fill="currentColor"/>
</g>
</a>
<a style="color:inherit;" xlink:href="textedit:///Users/kapsitis/workspace-public/ddgatve-songs/songs-lt/lilypond/AnTeveliausDvaro.ly:36:15:16">
<g transform="translate(23.3158, 6.6900)">
<path transform="scale(0.0040, -0.0040)" d="M218 136c66 0 108 -36 108 -89c0 -89 -113 -183 -218 -183c-66 0 -108 36 -108 89c0 89 113 183 218 183z" fill="currentColor"/>
</g>
</a>
<a style="color:inherit;" xlink:href="textedit:///Users/kapsitis/workspace-public/ddgatve-songs/songs-lt/lilypond/AnTeveliausDvaro.ly:45:13:14">
<g transform="translate(23.3158, 17.8550)">
<path transform="scale(0.0028, -0.0028)" d="M208 139c69 0 117 -40 117 -99c0 -91 -107 -179 -209 -179c-69 0 -116 40 -116 99c0 91 106 179 208 179z" fill="currentColor"/>
</g>
</a>
<g transform="translate(24.5550, 6.1900)">
<rect x="-0.0650" y="-2.8243" width="0.1300" height="3.1382" ry="0.0400" fill="currentColor"/>
</g>
<g transform="translate(24.1877, 17.5014)">
<rect x="-0.0460" y="-1.9942" width="0.0919" height="2.2334" ry="0.0400" fill="currentColor"/>
</g>
<a style="color:inherit;" xlink:href="textedit:///Users/kapsitis/workspace-public/ddgatve-songs/songs-lt/lilypond/AnTeveliausDvaro.ly:45:10:11">
<g transform="translate(21.1443, 15.0266)">
<polygon stroke-linejoin="round" stroke-linecap="round" stroke-width="0.0800" fill="currentColor" stroke="currentColor" points="3.0494 0.3582 3.0494 0.6176 0.0400 0.1297 0.0400 -0.1297"/>
</g>
<g transform="translate(21.1443, 15.5993)">
<polygon stroke-linejoin="round" stroke-linecap="round" stroke-width="0.0800" fill="currentColor" stroke="currentColor" points="3.0494 0.3582 3.0494 0.6176 0.0400 0.1297 0.0400 -0.1297"/>
</g>
</a>
<a style="color:inherit;" xlink:href="textedit:///Users/kapsitis/workspace-public/ddgatve-songs/songs-lt/lilypond/AnTeveliausDvaro.ly:36:19:20">
<g transform="translate(27.0506, 6.1900)">
<path transform="scale(0.0040, -0.0040)" d="M218 136c66 0 108 -36 108 -89c0 -89 -113 -183 -218 -183c-66 0 -108 36 -108 89c0 89 113 183 218 183z" fill="currentColor"/>
</g>
</a>
<a style="color:inherit;" xlink:href="textedit:///Users/kapsitis/workspace-public/ddgatve-songs/songs-lt/lilypond/AnTeveliausDvaro.ly:62:8:9">
<g transform="translate(27.0506, 6.1900)">
<path transform="scale(0.0040, -0.0040)" d="M218 136c66 0 108 -36 108 -89c0 -89 -113 -183 -218 -183c-66 0 -108 36 -108 89c0 89 113 183 218 183z" fill="currentColor"/>
</g>
</a>
<a style="color:inherit;" xlink:href="textedit:///Users/kapsitis/workspace-public/ddgatve-songs/songs-lt/lilypond/AnTeveliausDvaro.ly:52:9:10">
<g transform="translate(26.5418, 12.7670)">
<text font-family="serif" font-size="2.4696" text-anchor="start" fill="currentColor">
<tspan>ve</tspan>
</text>
</g>
</a>
<a style="color:inherit;" xlink:href="textedit:///Users/kapsitis/workspace-public/ddgatve-songs/songs-lt/lilypond/AnTeveliausDvaro.ly:45:17:18">
<g transform="translate(27.0506, 17.5014)">
<path transform="scale(0.0028, -0.0028)" d="M208 139c69 0 117 -40 117 -99c0 -91 -107 -179 -209 -179c-69 0 -116 40 -116 99c0 91 106 179 208 179z" fill="currentColor"/>
</g>
</a>
<g transform="translate(28.2898, 6.1900)">
<rect x="-0.0650" y="-3.3750" width="0.1300" height="3.1889" ry="0.0400" fill="currentColor"/>
</g>
<g transform="translate(28.3548, 2.8550)">
<path transform="scale(0.0040, -0.0040)" d="M0 0v-250h-16v250h16zM0 0c0 -197 207 -336 207 -533c0 -71 -15 -141 -41 -207c-5 -8 -13 -12 -20 -12c-13 0 -26 11 -23 27c26 61 42 126 42 192c0 103 -94 208 -165 283v250z" fill="currentColor"/>
</g>
<g transform="translate(27.1156, 6.1900)">
<rect x="-0.0650" y="0.1861" width="0.1300" height="3.1889" ry="0.0400" fill="currentColor"/>
</g>
<g transform="translate(27.1806, 9.5250)">
<path transform="scale(0.0040, -0.0040)" d="M0 0h-16v250h16v-250zM0 0v250c97 59 224 148 224 259c0 57 -15 112 -40 163c-3 16 10 27 23 27c7 0 15 -3 20 -11c25 -56 40 -117 40 -179c0 -203 -267 -306 -267 -509z" fill="currentColor"/>
</g>
<g transform="translate(27.9225, 17.5014)">
<rect x="-0.0460" y="-2.3865" width="0.0919" height="2.2721" ry="0.0400" fill="currentColor"/>
</g>
<g transform="translate(27.9685, 15.1550)">
<path transform="scale(0.0028, -0.0028)" d="M115 -723c0 12 43 85 43 193c0 101 -90 205 -158 280h-21v250h21c0 -196 207 -334 207 -530c0 -71 -15 -140 -41 -206c-5 -10 -14 -13 -23 -13c-14 0 -28 10 -28 26z" fill="currentColor"/>
</g>
<g transform="translate(26.1349, 17.5014)">
<path transform="scale(0.0028, -0.0028)" d="M33 35l-2 -60v-11c0 -21 2 -43 5 -64c42 38 87 81 87 138c0 32 -13 63 -41 63c-31 0 -48 -32 -49 -66zM32 446l-9 -337c25 26 59 40 95 40c50 0 82 -51 82 -105c0 -77 -80 -117 -137 -169c-18 -17 -26 -48 -52 -48c-16 0 -28 15 -28 32l-15 587c10 6 21 8 32 8
s22 -2 32 -8z" fill="currentColor"/>
</g>
<a style="color:inherit;" xlink:href="textedit:///Users/kapsitis/workspace-public/ddgatve-songs/songs-lt/lilypond/AnTeveliausDvaro.ly:45:11:12">
<g transform="translate(20.3183, 17.5014)">
<path stroke-width="0.0566" stroke-linejoin="round" stroke-linecap="round" stroke="currentColor" fill="currentColor" d="M0.9197 -2.9909C1.7429 -3.5420 3.3038 -3.2955 3.9171 -2.5175L3.9171 -2.5175C3.2905 -3.2117 1.7297 -3.4582 0.9197 -2.9909z"/>
</g>
</a>
<a style="color:inherit;" xlink:href="textedit:///Users/kapsitis/workspace-public/ddgatve-songs/songs-lt/lilypond/AnTeveliausDvaro.ly:36:24:25">
<g transform="translate(32.0045, 6.6900)">
<path transform="scale(0.0040, -0.0040)" d="M218 136c66 0 108 -36 108 -89c0 -89 -113 -183 -218 -183c-66 0 -108 36 -108 89c0 89 113 183 218 183z" fill="currentColor"/>
</g>
</a>
<a style="color:inherit;" xlink:href="textedit:///Users/kapsitis/workspace-public/ddgatve-songs/songs-lt/lilypond/AnTeveliausDvaro.ly:62:12:13">
<g transform="translate(32.0045, 6.6900)">
<path transform="scale(0.0040, -0.0040)" d="M218 136c66 0 108 -36 108 -89c0 -89 -113 -183 -218 -183c-66 0 -108 36 -108 89c0 89 113 183 218 183z" fill="currentColor"/>
</g>
</a>
<a style="color:inherit;" xlink:href="textedit:///Users/kapsitis/workspace-public/ddgatve-songs/songs-lt/lilypond/AnTeveliausDvaro.ly:52:15:16">
<g transform="translate(30.3349, 12.7670)">
<text font-family="serif" font-size="2.4696" text-anchor="start" fill="currentColor">
<tspan>liaus</tspan>
</text>
</g>
</a>
<a style="color:inherit;" xlink:href="textedit:///Users/kapsitis/workspace-public/ddgatve-songs/songs-lt/lilypond/AnTeveliausDvaro.ly:45:22:23">
<g transform="translate(32.0045, 17.8550)">
<path transform="scale(0.0028, -0.0028)" d="M208 139c69 0 117 -40 117 -99c0 -91 -107 -179 -209 -179c-69 0 -116 40 -116 99c0 91 106 179 208 179z" fill="currentColor"/>
</g>
</a>
<g transform="translate(33.2437, 6.1900)">
<rect x="-0.0650" y="-3.0000" width="0.1300" height="3.3139" ry="0.0400" fill="currentColor"/>
</g>
<g transform="translate(33.3087, 3.2300)">
<path transform="scale(0.0040, -0.0040)" d="M0 0v-250h-16v250h16zM0 0c0 -197 207 -336 207 -533c0 -71 -15 -141 -41 -207c-5 -8 -13 -12 -20 -12c-13 0 -26 11 -23 27c26 61 42 126 42 192c0 103 -94 208 -165 283v250z" fill="currentColor"/>
</g>
<g transform="translate(32.0695, 6.1900)">
<rect x="-0.0650" y="0.6861" width="0.1300" height="3.0639" ry="0.0400" fill="currentColor"/>
</g>
<g transform="translate(32.1345, 9.9000)">
<path transform="scale(0.0040, -0.0040)" d="M0 0h-16v250h16v-250zM0 0v250c97 59 224 148 224 259c0 57 -15 112 -40 163c-3 16 10 27 23 27c7 0 15 -3 20 -11c25 -56 40 -117 40 -179c0 -203 -267 -306 -267 -509z" fill="currentColor"/>
</g>
<g transform="translate(32.8765, 17.5014)">
<rect x="-0.0460" y="-2.1213" width="0.0919" height="2.3605" ry="0.0400" fill="currentColor"/>
</g>
<g transform="translate(32.9224, 15.4201)">
<path transform="scale(0.0028, -0.0028)" d="M115 -723c0 12 43 85 43 193c0 101 -90 205 -158 280h-21v250h21c0 -196 207 -334 207 -530c0 -71 -15 -140 -41 -206c-5 -10 -14 -13 -23 -13c-14 0 -28 10 -28 26z" fill="currentColor"/>
</g>
<a style="color:inherit;" xlink:href="textedit:///Users/kapsitis/workspace-public/ddgatve-songs/songs-lt/lilypond/AnTeveliausDvaro.ly:52:12:13">
<g transform="translate(29.2692, 12.7670)">
<rect x="0.0000" y="-0.5500" width="0.6600" height="0.1300" ry="0.0400" fill="currentColor"/>
</g>
</a>
<a style="color:inherit;" xlink:href="textedit:///Users/kapsitis/workspace-public/ddgatve-songs/songs-lt/lilypond/AnTeveliausDvaro.ly:36:26:27">
<g transform="translate(36.9585, 7.1900)">
<path transform="scale(0.0040, -0.0040)" d="M218 136c66 0 108 -36 108 -89c0 -89 -113 -183 -218 -183c-66 0 -108 36 -108 89c0 89 113 183 218 183z" fill="currentColor"/>
</g>
</a>
<a style="color:inherit;" xlink:href="textedit:///Users/kapsitis/workspace-public/ddgatve-songs/songs-lt/lilypond/AnTeveliausDvaro.ly:62:14:15">
<g transform="translate(36.9585, 7.1900)">
<path transform="scale(0.0040, -0.0040)" d="M218 136c66 0 108 -36 108 -89c0 -89 -113 -183 -218 -183c-66 0 -108 36 -108 89c0 89 113 183 218 183z" fill="currentColor"/>
</g>
</a>
<a style="color:inherit;" xlink:href="textedit:///Users/kapsitis/workspace-public/ddgatve-songs/songs-lt/lilypond/AnTeveliausDvaro.ly:52:21:22">
<g transform="translate(35.8351, 12.7670)">
<text font-family="serif" font-size="2.4696" text-anchor="start" fill="currentColor">
<tspan>dva</tspan>
</text>
</g>
</a>
<a style="color:inherit;" xlink:href="textedit:///Users/kapsitis/workspace-public/ddgatve-songs/songs-lt/lilypond/AnTeveliausDvaro.ly:45:24:25">
<g transform="translate(36.9585, 18.2085)">
<path transform="scale(0.0028, -0.0028)" d="M208 139c69 0 117 -40 117 -99c0 -91 -107 -179 -209 -179c-69 0 -116 40 -116 99c0 91 106 179 208 179z" fill="currentColor"/>
</g>
</a>
<g transform="translate(38.1977, 6.1900)">
<rect x="-0.0650" y="-2.5000" width="0.1300" height="3.3139" ry="0.0400" fill="currentColor"/>
</g>
<g transform="translate(38.2627, 3.7300)">
<path transform="scale(0.0040, -0.0040)" d="M0 0v-250h-16v250h16zM0 0c0 -197 207 -336 207 -533c0 -71 -15 -141 -41 -207c-5 -8 -13 -12 -20 -12c-13 0 -26 11 -23 27c26 61 42 126 42 192c0 103 -94 208 -165 283v250z" fill="currentColor"/>
</g>
<g transform="translate(37.0235, 6.1900)">
<rect x="-0.0650" y="1.1861" width="0.1300" height="2.9389" ry="0.0400" fill="currentColor"/>
</g>
<g transform="translate(37.0885, 10.2750)">
<path transform="scale(0.0040, -0.0040)" d="M0 0h-16v250h16v-250zM0 0v250c97 59 224 148 224 259c0 57 -15 112 -40 163c-3 16 10 27 23 27c7 0 15 -3 20 -11c25 -56 40 -117 40 -179c0 -203 -267 -306 -267 -509z" fill="currentColor"/>
</g>
<g transform="translate(37.8304, 17.5014)">
<rect x="-0.0460" y="-1.7678" width="0.0919" height="2.3605" ry="0.0400" fill="currentColor"/>
</g>
<g transform="translate(37.8764, 15.7737)">
<path transform="scale(0.0028, -0.0028)" d="M115 -723c0 12 43 85 43 193c0 101 -90 205 -158 280h-21v250h21c0 -196 207 -334 207 -530c0 -71 -15 -140 -41 -206c-5 -10 -14 -13 -23 -13c-14 0 -28 10 -28 26z" fill="currentColor"/>
</g>
<a style="color:inherit;" xlink:href="textedit:///Users/kapsitis/workspace-public/ddgatve-songs/songs-lt/lilypond/AnTeveliausDvaro.ly:36:28:29">
<g transform="translate(41.9124, 7.1900)">
<path transform="scale(0.0040, -0.0040)" d="M218 136c66 0 108 -36 108 -89c0 -89 -113 -183 -218 -183c-66 0 -108 36 -108 89c0 89 113 183 218 183z" fill="currentColor"/>
</g>
</a>
<a style="color:inherit;" xlink:href="textedit:///Users/kapsitis/workspace-public/ddgatve-songs/songs-lt/lilypond/AnTeveliausDvaro.ly:62:16:17">
<g transform="translate(41.9124, 7.1900)">
<path transform="scale(0.0040, -0.0040)" d="M218 136c66 0 108 -36 108 -89c0 -89 -113 -183 -218 -183c-66 0 -108 36 -108 89c0 89 113 183 218 183z" fill="currentColor"/>
</g>
</a>
<a style="color:inherit;" xlink:href="textedit:///Users/kapsitis/workspace-public/ddgatve-songs/songs-lt/lilypond/AnTeveliausDvaro.ly:52:28:29">
<g transform="translate(41.5402, 12.7670)">
<text font-family="serif" font-size="2.4696" text-anchor="start" fill="currentColor">
<tspan>ro</tspan>
</text>
</g>
</a>
<a style="color:inherit;" xlink:href="textedit:///Users/kapsitis/workspace-public/ddgatve-songs/songs-lt/lilypond/AnTeveliausDvaro.ly:45:26:27">
<g transform="translate(41.9124, 18.2085)">
<path transform="scale(0.0028, -0.0028)" d="M208 139c69 0 117 -40 117 -99c0 -91 -107 -179 -209 -179c-69 0 -116 40 -116 99c0 91 106 179 208 179z" fill="currentColor"/>
</g>
</a>
<g transform="translate(43.1516, 6.1900)">
<rect x="-0.0650" y="-2.5000" width="0.1300" height="3.3139" ry="0.0400" fill="currentColor"/>
</g>
<g transform="translate(43.2166, 3.7300)">
<path transform="scale(0.0040, -0.0040)" d="M0 0v-250h-16v250h16zM0 0c0 -197 207 -336 207 -533c0 -71 -15 -141 -41 -207c-5 -8 -13 -12 -20 -12c-13 0 -26 11 -23 27c26 61 42 126 42 192c0 103 -94 208 -165 283v250z" fill="currentColor"/>
</g>
<g transform="translate(41.9774, 6.1900)">
<rect x="-0.0650" y="1.1861" width="0.1300" height="2.9389" ry="0.0400" fill="currentColor"/>
</g>
<g transform="translate(42.0424, 10.2750)">
<path transform="scale(0.0040, -0.0040)" d="M0 0h-16v250h16v-250zM0 0v250c97 59 224 148 224 259c0 57 -15 112 -40 163c-3 16 10 27 23 27c7 0 15 -3 20 -11c25 -56 40 -117 40 -179c0 -203 -267 -306 -267 -509z" fill="currentColor"/>
</g>
<g transform="translate(42.7844, 17.5014)">
<rect x="-0.0460" y="-1.7678" width="0.0919" height="2.3605" ry="0.0400" fill="currentColor"/>
</g>
<g transform="translate(42.8303, 15.7737)">
<path transform="scale(0.0028, -0.0028)" d="M115 -723c0 12 43 85 43 193c0 101 -90 205 -158 280h-21v250h21c0 -196 207 -334 207 -530c0 -71 -15 -140 -41 -206c-5 -10 -14 -13 -23 -13c-14 0 -28 10 -28 26z" fill="currentColor"/>
</g>
<a style="color:inherit;" xlink:href="textedit:///Users/kapsitis/workspace-public/ddgatve-songs/songs-lt/lilypond/AnTeveliausDvaro.ly:52:25:26">
<g transform="translate(40.1331, 12.7670)">
<rect x="0.0000" y="-0.5500" width="0.6600" height="0.1300" ry="0.0400" fill="currentColor"/>
</g>
</a>
<a style="color:inherit;" xlink:href="textedit:///Users/kapsitis/workspace-public/ddgatve-songs/songs-lt/lilypond/AnTeveliausDvaro.ly:36:30:31">
<g transform="translate(46.8664, 6.1900)">
<path transform="scale(0.0040, -0.0040)" d="M218 136c66 0 108 -36 108 -89c0 -89 -113 -183 -218 -183c-66 0 -108 36 -108 89c0 89 113 183 218 183z" fill="currentColor"/>
</g>
</a>
<a style="color:inherit;" xlink:href="textedit:///Users/kapsitis/workspace-public/ddgatve-songs/songs-lt/lilypond/AnTeveliausDvaro.ly:62:18:19">
<g transform="translate(46.8664, 6.1900)">
<path transform="scale(0.0040, -0.0040)" d="M218 136c66 0 108 -36 108 -89c0 -89 -113 -183 -218 -183c-66 0 -108 36 -108 89c0 89 113 183 218 183z" fill="currentColor"/>
</g>
</a>
<a style="color:inherit;" xlink:href="textedit:///Users/kapsitis/workspace-public/ddgatve-songs/songs-lt/lilypond/AnTeveliausDvaro.ly:52:31:32">
<g transform="translate(45.9479, 12.7670)">
<text font-family="serif" font-size="2.4696" text-anchor="start" fill="currentColor">
<tspan>ber</tspan>
</text>
</g>
</a>
<a style="color:inherit;" xlink:href="textedit:///Users/kapsitis/workspace-public/ddgatve-songs/songs-lt/lilypond/AnTeveliausDvaro.ly:45:3:4">
<g transform="translate(14.0165, 17.5014)">
<path stroke-width="0.0566" stroke-linejoin="round" stroke-linecap="round" stroke="currentColor" fill="currentColor" d="M1.7576 -0.2837C1.9069 -1.2571 2.8526 -1.9539 3.6769 -1.6979L3.6769 -1.6979C2.9030 -1.8856 1.9573 -1.1887 1.7576 -0.2837z"/>
</g>
</a>
<g transform="translate(48.1056, 6.1900)">
<rect x="-0.0650" y="-3.3750" width="0.1300" height="3.1889" ry="0.0400" fill="currentColor"/>
</g>
<g transform="translate(48.1706, 2.8550)">
<path transform="scale(0.0040, -0.0040)" d="M0 0v-250h-16v250h16zM0 0c0 -197 207 -336 207 -533c0 -71 -15 -141 -41 -207c-5 -8 -13 -12 -20 -12c-13 0 -26 11 -23 27c26 61 42 126 42 192c0 103 -94 208 -165 283v250z" fill="currentColor"/>
</g>
<g transform="translate(46.9314, 6.1900)">
<rect x="-0.0650" y="0.1861" width="0.1300" height="3.1889" ry="0.0400" fill="currentColor"/>
</g>
<g transform="translate(46.9964, 9.5250)">
<path transform="scale(0.0040, -0.0040)" d="M0 0h-16v250h16v-250zM0 0v250c97 59 224 148 224 259c0 57 -15 112 -40 163c-3 16 10 27 23 27c7 0 15 -3 20 -11c25 -56 40 -117 40 -179c0 -203 -267 -306 -267 -509z" fill="currentColor"/>
</g>
<g transform="translate(47.7383, 17.5014)">
<rect x="-0.0460" y="-2.3865" width="0.0919" height="2.2721" ry="0.0400" fill="currentColor"/>
</g>
<g transform="translate(47.7843, 15.1550)">
<path transform="scale(0.0028, -0.0028)" d="M115 -723c0 12 43 85 43 193c0 101 -90 205 -158 280h-21v250h21c0 -196 207 -334 207 -530c0 -71 -15 -140 -41 -206c-5 -10 -14 -13 -23 -13c-14 0 -28 10 -28 26z" fill="currentColor"/>
</g>
<a style="color:inherit;" xlink:href="textedit:///Users/kapsitis/workspace-public/ddgatve-songs/songs-lt/lilypond/AnTeveliausDvaro.ly:52:35:36">
<g transform="translate(50.1247, 12.7670)">
<rect x="0.0000" y="-0.5500" width="0.6600" height="0.1300" ry="0.0400" fill="currentColor"/>
</g>
</a>
<a style="color:inherit;" xlink:href="textedit:///Users/kapsitis/workspace-public/ddgatve-songs/songs-lt/lilypond/AnTeveliausDvaro.ly:36:48:49">
<g transform="translate(51.8203, 5.1900)">
<path transform="scale(0.0040, -0.0040)" d="M218 136c66 0 108 -36 108 -89c0 -89 -113 -183 -218 -183c-66 0 -108 36 -108 89c0 89 113 183 218 183z" fill="currentColor"/>
</g>
</a>
<a style="color:inherit;" xlink:href="textedit:///Users/kapsitis/workspace-public/ddgatve-songs/songs-lt/lilypond/AnTeveliausDvaro.ly:62:36:37">
<g transform="translate(51.8203, 6.1900)">
<path transform="scale(0.0040, -0.0040)" d="M218 136c66 0 108 -36 108 -89c0 -89 -113 -183 -218 -183c-66 0 -108 36 -108 89c0 89 113 183 218 183z" fill="currentColor"/>
</g>
</a>
<a style="color:inherit;" xlink:href="textedit:///Users/kapsitis/workspace-public/ddgatve-songs/songs-lt/lilypond/AnTeveliausDvaro.ly:52:38:39">
<g transform="translate(51.8203, 12.7670)">
<text font-family="serif" font-size="2.4696" text-anchor="start" fill="currentColor">
<tspan>žai</tspan>
</text>
</g>
</a>
<a style="color:inherit;" xlink:href="textedit:///Users/kapsitis/workspace-public/ddgatve-songs/songs-lt/lilypond/AnTeveliausDvaro.ly:45:46:47">
<g transform="translate(51.8203, 16.7943)">
<path transform="scale(0.0028, -0.0028)" d="M208 139c69 0 117 -40 117 -99c0 -91 -107 -179 -209 -179c-69 0 -116 40 -116 99c0 91 106 179 208 179z" fill="currentColor"/>
</g>
</a>
<g transform="translate(53.0596, 6.1900)">
<rect x="-0.0650" y="-4.0000" width="0.1300" height="2.8139" ry="0.0400" fill="currentColor"/>
</g>
<g transform="translate(51.8853, 6.1900)">
<rect x="-0.0650" y="0.1861" width="0.1300" height="3.1472" ry="0.0400" fill="currentColor"/>
</g>
<g transform="translate(52.6923, 17.5014)">
<rect x="-0.0460" y="-2.8284" width="0.0919" height="2.0069" ry="0.0400" fill="currentColor"/>
</g>
<a style="color:inherit;" xlink:href="textedit:///Users/kapsitis/workspace-public/ddgatve-songs/songs-lt/lilypond/AnTeveliausDvaro.ly:36:50:51">
<g transform="translate(51.8203, 6.1900)">
<path stroke-width="0.0800" stroke-linejoin="round" stroke-linecap="round" stroke="currentColor" fill="currentColor" d="M1.6042 -2.1950C3.2738 -3.2846 7.7327 -2.6862 9.0560 -1.1950L9.0560 -1.1950C7.7168 -2.5673 3.2579 -3.1656 1.6042 -2.1950z"/>
</g>
</a>
<a style="color:inherit;" xlink:href="textedit:///Users/kapsitis/workspace-public/ddgatve-songs/songs-lt/lilypond/AnTeveliausDvaro.ly:36:52:53">
<g transform="translate(60.0021, 6.1900)">
<path transform="scale(0.0040, -0.0040)" d="M218 136c66 0 108 -36 108 -89c0 -89 -113 -183 -218 -183c-66 0 -108 36 -108 89c0 89 113 183 218 183z" fill="currentColor"/>
</g>
</a>
<a style="color:inherit;" xlink:href="textedit:///Users/kapsitis/workspace-public/ddgatve-songs/songs-lt/lilypond/AnTeveliausDvaro.ly:62:42:43">
<g transform="translate(60.0021, 6.1900)">
<path transform="scale(0.0040, -0.0040)" d="M218 136c66 0 108 -36 108 -89c0 -89 -113 -183 -218 -183c-66 0 -108 36 -108 89c0 89 113 183 218 183z" fill="currentColor"/>
</g>
</a>
<a style="color:inherit;" xlink:href="textedit:///Users/kapsitis/workspace-public/ddgatve-songs/songs-lt/lilypond/AnTeveliausDvaro.ly:45:50:51">
<g transform="translate(60.0021, 18.2085)">
<path transform="scale(0.0028, -0.0028)" d="M208 139c69 0 117 -40 117 -99c0 -91 -107 -179 -209 -179c-69 0 -116 40 -116 99c0 91 106 179 208 179z" fill="currentColor"/>
</g>
</a>
<g transform="translate(61.2414, 6.1900)">
<rect x="-0.0650" y="-3.3750" width="0.1300" height="3.1889" ry="0.0400" fill="currentColor"/>
</g>
<g transform="translate(61.3064, 2.8550)">
<path transform="scale(0.0040, -0.0040)" d="M0 0v-250h-16v250h16zM0 0c0 -197 207 -336 207 -533c0 -71 -15 -141 -41 -207c-5 -8 -13 -12 -20 -12c-13 0 -26 11 -23 27c26 61 42 126 42 192c0 103 -94 208 -165 283v250z" fill="currentColor"/>
</g>
<g transform="translate(60.0671, 6.1900)">
<rect x="-0.0650" y="0.1861" width="0.1300" height="3.1889" ry="0.0400" fill="currentColor"/>
</g>
<g transform="translate(60.1321, 9.5250)">
<path transform="scale(0.0040, -0.0040)" d="M0 0h-16v250h16v-250zM0 0v250c97 59 224 148 224 259c0 57 -15 112 -40 163c-3 16 10 27 23 27c7 0 15 -3 20 -11c25 -56 40 -117 40 -179c0 -203 -267 -306 -267 -509z" fill="currentColor"/>
</g>
<g transform="translate(60.8741, 17.5014)">
<rect x="-0.0460" y="-1.7678" width="0.0919" height="2.3605" ry="0.0400" fill="currentColor"/>
</g>
<g transform="translate(60.9200, 15.7737)">
<path transform="scale(0.0028, -0.0028)" d="M115 -723c0 12 43 85 43 193c0 101 -90 205 -158 280h-21v250h21c0 -196 207 -334 207 -530c0 -71 -15 -140 -41 -206c-5 -10 -14 -13 -23 -13c-14 0 -28 10 -28 26z" fill="currentColor"/>
</g>
<a style="color:inherit;" xlink:href="textedit:///Users/kapsitis/workspace-public/ddgatve-songs/songs-lt/lilypond/AnTeveliausDvaro.ly:62:40:41">
<g transform="translate(51.8203, 6.1900)">
<path stroke-width="0.0800" stroke-linejoin="round" stroke-linecap="round" stroke="currentColor" fill="currentColor" d="M0.4300 1.2506C1.9315 2.7698 6.3803 2.7698 7.8818 1.2506L7.8818 1.2506C6.3803 2.6498 1.9315 2.6498 0.4300 1.2506z"/>
</g>
</a>
<a style="color:inherit;" xlink:href="textedit:///Users/kapsitis/workspace-public/ddgatve-songs/songs-lt/lilypond/AnTeveliausDvaro.ly:36:58:59">
<g transform="translate(64.9561, 5.1900)">
<path transform="scale(0.0040, -0.0040)" d="M218 136c66 0 108 -36 108 -89c0 -89 -113 -183 -218 -183c-66 0 -108 36 -108 89c0 89 113 183 218 183z" fill="currentColor"/>
</g>
</a>
<a style="color:inherit;" xlink:href="textedit:///Users/kapsitis/workspace-public/ddgatve-songs/songs-lt/lilypond/AnTeveliausDvaro.ly:62:48:49">
<g transform="translate(64.9561, 6.1900)">
<path transform="scale(0.0040, -0.0040)" d="M218 136c66 0 108 -36 108 -89c0 -89 -113 -183 -218 -183c-66 0 -108 36 -108 89c0 89 113 183 218 183z" fill="currentColor"/>
</g>
</a>
<a style="color:inherit;" xlink:href="textedit:///Users/kapsitis/workspace-public/ddgatve-songs/songs-lt/lilypond/AnTeveliausDvaro.ly:52:42:43">
<g transform="translate(64.0376, 12.7670)">
<text font-family="serif" font-size="2.4696" text-anchor="start" fill="currentColor">
<tspan>ber</tspan>
</text>
</g>
</a>
<a style="color:inherit;" xlink:href="textedit:///Users/kapsitis/workspace-public/ddgatve-songs/songs-lt/lilypond/AnTeveliausDvaro.ly:45:55:56">
<g transform="translate(64.9561, 16.7943)">
<path transform="scale(0.0028, -0.0028)" d="M208 139c69 0 117 -40 117 -99c0 -91 -107 -179 -209 -179c-69 0 -116 40 -116 99c0 91 106 179 208 179z" fill="currentColor"/>
</g>
</a>
<g transform="translate(66.1953, 6.1900)">
<rect x="-0.0650" y="-4.1250" width="0.1300" height="2.9389" ry="0.0400" fill="currentColor"/>
</g>
<g transform="translate(66.2603, 2.1050)">
<path transform="scale(0.0040, -0.0040)" d="M0 0v-250h-16v250h16zM0 0c0 -197 207 -336 207 -533c0 -71 -15 -141 -41 -207c-5 -8 -13 -12 -20 -12c-13 0 -26 11 -23 27c26 61 42 126 42 192c0 103 -94 208 -165 283v250z" fill="currentColor"/>
</g>
<g transform="translate(65.0211, 6.1900)">
<rect x="-0.0650" y="0.1861" width="0.1300" height="3.1889" ry="0.0400" fill="currentColor"/>
</g>
<g transform="translate(65.0861, 9.5250)">
<path transform="scale(0.0040, -0.0040)" d="M0 0h-16v250h16v-250zM0 0v250c97 59 224 148 224 259c0 57 -15 112 -40 163c-3 16 10 27 23 27c7 0 15 -3 20 -11c25 -56 40 -117 40 -179c0 -203 -267 -306 -267 -509z" fill="currentColor"/>
</g>
<g transform="translate(65.8280, 17.5014)">
<rect x="-0.0460" y="-2.9168" width="0.0919" height="2.0953" ry="0.0400" fill="currentColor"/>
</g>
<g transform="translate(65.8740, 14.6246)">
<path transform="scale(0.0028, -0.0028)" d="M115 -723c0 12 43 85 43 193c0 101 -90 205 -158 280h-21v250h21c0 -196 207 -334 207 -530c0 -71 -15 -140 -41 -206c-5 -10 -14 -13 -23 -13c-14 0 -28 10 -28 26z" fill="currentColor"/>
</g>
<a style="color:inherit;" xlink:href="textedit:///Users/kapsitis/workspace-public/ddgatve-songs/songs-lt/lilypond/AnTeveliausDvaro.ly:45:48:49">
<g transform="translate(51.8203, 17.5014)">
<path stroke-width="0.0566" stroke-linejoin="round" stroke-linecap="round" stroke="currentColor" fill="currentColor" d="M1.2179 -1.5608C2.7069 -2.3576 7.6118 -1.4315 8.7078 -0.1466L8.7078 -0.1466C7.5960 -1.3481 2.6912 -2.2742 1.2179 -1.5608z"/>
</g>
</a>
<a style="color:inherit;" xlink:href="textedit:///Users/kapsitis/workspace-public/ddgatve-songs/songs-lt/lilypond/AnTeveliausDvaro.ly:36:61:62">
<g transform="translate(69.9100, 5.6900)">
<path transform="scale(0.0040, -0.0040)" d="M218 136c66 0 108 -36 108 -89c0 -89 -113 -183 -218 -183c-66 0 -108 36 -108 89c0 89 113 183 218 183z" fill="currentColor"/>
</g>
</a>
<a style="color:inherit;" xlink:href="textedit:///Users/kapsitis/workspace-public/ddgatve-songs/songs-lt/lilypond/AnTeveliausDvaro.ly:62:53:54">
<g transform="translate(69.9100, 5.6900)">
<path transform="scale(0.0040, -0.0040)" d="M218 136c66 0 108 -36 108 -89c0 -89 -113 -183 -218 -183c-66 0 -108 36 -108 89c0 89 113 183 218 183z" fill="currentColor"/>
</g>
</a>
<a style="color:inherit;" xlink:href="textedit:///Users/kapsitis/workspace-public/ddgatve-songs/songs-lt/lilypond/AnTeveliausDvaro.ly:52:49:50">
<g transform="translate(69.9100, 12.7670)">
<text font-family="serif" font-size="2.4696" text-anchor="start" fill="currentColor">
<tspan>žai.</tspan>
</text>
</g>
</a>
<a style="color:inherit;" xlink:href="textedit:///Users/kapsitis/workspace-public/ddgatve-songs/songs-lt/lilypond/AnTeveliausDvaro.ly:45:59:60">
<g transform="translate(69.9100, 17.1479)">
<path transform="scale(0.0028, -0.0028)" d="M208 139c69 0 117 -40 117 -99c0 -91 -107 -179 -209 -179c-69 0 -116 40 -116 99c0 91 106 179 208 179z" fill="currentColor"/>
</g>
</a>
<g transform="translate(71.1493, 6.1900)">
<rect x="-0.0650" y="-2.9975" width="0.1300" height="2.3114" ry="0.0400" fill="currentColor"/>
</g>
<g transform="translate(69.9750, 6.1900)">
<rect x="-0.0650" y="-0.3139" width="0.1300" height="3.1264" ry="0.0400" fill="currentColor"/>
</g>
<g transform="translate(70.7820, 17.5014)">
<rect x="-0.0460" y="-2.1200" width="0.0919" height="1.6521" ry="0.0400" fill="currentColor"/>
</g>
<a style="color:inherit;" xlink:href="textedit:///Users/kapsitis/workspace-public/ddgatve-songs/songs-lt/lilypond/AnTeveliausDvaro.ly:36:65:66">
<g transform="translate(74.6720, 6.1900)">
<path transform="scale(0.0040, -0.0040)" d="M218 136c66 0 108 -36 108 -89c0 -89 -113 -183 -218 -183c-66 0 -108 36 -108 89c0 89 113 183 218 183z" fill="currentColor"/>
</g>
</a>
<a style="color:inherit;" xlink:href="textedit:///Users/kapsitis/workspace-public/ddgatve-songs/songs-lt/lilypond/AnTeveliausDvaro.ly:62:57:58">
<g transform="translate(74.6720, 6.1900)">
<path transform="scale(0.0040, -0.0040)" d="M218 136c66 0 108 -36 108 -89c0 -89 -113 -183 -218 -183c-66 0 -108 36 -108 89c0 89 113 183 218 183z" fill="currentColor"/>
</g>
</a>
<a style="color:inherit;" xlink:href="textedit:///Users/kapsitis/workspace-public/ddgatve-songs/songs-lt/lilypond/AnTeveliausDvaro.ly:45:63:64">
<g transform="translate(74.6720, 17.5014)">
<path transform="scale(0.0028, -0.0028)" d="M208 139c69 0 117 -40 117 -99c0 -91 -107 -179 -209 -179c-69 0 -116 40 -116 99c0 91 106 179 208 179z" fill="currentColor"/>
</g>
</a>
<g transform="translate(75.9112, 6.1900)">
<rect x="-0.0650" y="-2.8125" width="0.1300" height="2.6264" ry="0.0400" fill="currentColor"/>
</g>
<g transform="translate(74.7370, 6.1900)">
<rect x="-0.0650" y="0.1861" width="0.1300" height="2.8114" ry="0.0400" fill="currentColor"/>
</g>
<g transform="translate(75.5439, 17.5014)">
<rect x="-0.0460" y="-1.9882" width="0.0919" height="1.8738" ry="0.0400" fill="currentColor"/>
</g>
<a style="color:inherit;" xlink:href="textedit:///Users/kapsitis/workspace-public/ddgatve-songs/songs-lt/lilypond/AnTeveliausDvaro.ly:52:46:47">
<g transform="translate(68.2144, 12.7670)">
<rect x="0.0000" y="-0.5500" width="0.6600" height="0.1300" ry="0.0400" fill="currentColor"/>
</g>
</a>
<a style="color:inherit;" xlink:href="textedit:///Users/kapsitis/workspace-public/ddgatve-songs/songs-lt/lilypond/AnTeveliausDvaro.ly:45:61:62">
<g transform="translate(69.9100, 17.5014)">
<path stroke-width="0.0566" stroke-linejoin="round" stroke-linecap="round" stroke="currentColor" fill="currentColor" d="M0.8804 -2.6433C1.8999 -3.4893 4.6712 -3.4126 5.6423 -2.5115L5.6423 -2.5115C4.6688 -3.3278 1.8976 -3.4045 0.8804 -2.6433z"/>
</g>
</a>
<a style="color:inherit;" xlink:href="textedit:///Users/kapsitis/workspace-public/ddgatve-songs/songs-lt/lilypond/AnTeveliausDvaro.ly:45:60:61">
<g transform="translate(70.7360, 15.3801)">
<polygon stroke-linejoin="round" stroke-linecap="round" stroke-width="0.0800" fill="currentColor" stroke="currentColor" points="4.8139 0.0046 4.8139 0.2641 0.0400 0.1297 0.0400 -0.1297"/>
</g>
</a>
<a style="color:inherit;" xlink:href="textedit:///Users/kapsitis/workspace-public/ddgatve-songs/songs-lt/lilypond/AnTeveliausDvaro.ly:62:55:56">
<g transform="translate(69.9100, 6.1900)">
<path stroke-width="0.0800" stroke-linejoin="round" stroke-linecap="round" stroke="currentColor" fill="currentColor" d="M0.0481 3.5525C1.1183 4.6126 3.6609 4.7113 4.8101 3.7375L4.8101 3.7375C3.6656 4.5914 1.1229 4.4927 0.0481 3.5525z"/>
</g>
</a>
<a style="color:inherit;" xlink:href="textedit:///Users/kapsitis/workspace-public/ddgatve-songs/songs-lt/lilypond/AnTeveliausDvaro.ly:62:54:55">
<g transform="translate(69.9100, 9.0000)">
<polygon stroke-linejoin="round" stroke-linecap="round" stroke-width="0.0800" fill="currentColor" stroke="currentColor" points="4.8520 -0.0100 4.8520 0.3900 0.0400 0.2000 0.0400 -0.2000"/>
</g>
</a>
<a style="color:inherit;" xlink:href="textedit:///Users/kapsitis/workspace-public/ddgatve-songs/songs-lt/lilypond/AnTeveliausDvaro.ly:36:63:64">
<g transform="translate(69.9100, 6.1900)">
<path stroke-width="0.0800" stroke-linejoin="round" stroke-linecap="round" stroke="currentColor" fill="currentColor" d="M1.2561 -3.7375C2.4052 -4.7113 4.9479 -4.6126 6.0180 -3.5525L6.0180 -3.5525C4.9432 -4.4927 2.4006 -4.5914 1.2561 -3.7375z"/>
</g>
</a>
<a style="color:inherit;" xlink:href="textedit:///Users/kapsitis/workspace-public/ddgatve-songs/songs-lt/lilypond/AnTeveliausDvaro.ly:36:62:63">
<g transform="translate(71.0843, 3.1900)">
<polygon stroke-linejoin="round" stroke-linecap="round" stroke-width="0.0800" fill="currentColor" stroke="currentColor" points="4.8520 -0.0100 4.8520 0.3900 0.0400 0.2000 0.0400 -0.2000"/>
</g>
</a>
<g transform="translate(0.0000, 27.3064)">
<line stroke-linejoin="round" stroke-linecap="round" stroke-width="0.1000" stroke="currentColor" x1="0.0500" y1="0" x2="79.6177" y2="0"/>
</g>
<g transform="translate(0.0000, 26.3064)">
<line stroke-linejoin="round" stroke-linecap="round" stroke-width="0.1000" stroke="currentColor" x1="0.0500" y1="0" x2="79.6177" y2="0"/>
</g>
<g transform="translate(0.0000, 25.3064)">
<line stroke-linejoin="round" stroke-linecap="round" stroke-width="0.1000" stroke="currentColor" x1="0.0500" y1="0" x2="79.6177" y2="0"/>
</g>
<g transform="translate(0.0000, 24.3064)">
<line stroke-linejoin="round" stroke-linecap="round" stroke-width="0.1000" stroke="currentColor" x1="0.0500" y1="0" x2="79.6177" y2="0"/>
</g>
<g transform="translate(0.0000, 23.3064)">
<line stroke-linejoin="round" stroke-linecap="round" stroke-width="0.1000" stroke="currentColor" x1="0.0500" y1="0" x2="79.6177" y2="0"/>
</g>
<g transform="translate(79.0677, 25.3064)">
<rect x="0.0000" y="-2.0000" width="0.6000" height="4.0000" ry="0.0000" fill="currentColor"/>
</g>
<g transform="translate(78.5777, 25.3064)">
<rect x="0.0000" y="-2.0000" width="0.1900" height="4.0000" ry="0.0000" fill="currentColor"/>
</g>
<g transform="translate(-0.8877, 22.2564)">
<text font-family="serif" font-size="1.7461" text-anchor="start" fill="currentColor">
<tspan>2</tspan>
</text>
</g>
<g transform="translate(0.8000, 26.3064)">
<path transform="scale(0.0040, -0.0040)" d="M266 -635h-6c-108 0 -195 88 -195 197c0 58 53 103 112 103c54 0 95 -47 95 -103c0 -52 -43 -95 -95 -95c-11 0 -21 2 -31 6c26 -39 68 -65 117 -65h4zM461 -203c68 24 113 90 113 164c0 90 -66 179 -173 190c19 -89 48 -242 60 -354zM74 28c0 -145 141 -247 264 -247
c1 0 47 0 82 6c-7 64 -29 203 -63 364c-79 -8 -124 -61 -124 -119c0 -44 25 -91 81 -123c5 -5 7 -10 7 -15c0 -11 -10 -22 -22 -22c-15 0 -126 62 -126 187c0 88 58 174 160 197c-14 58 -29 117 -46 175c-107 -121 -213 -243 -213 -403zM250 553c-29 96 -52 170 -52 346
c0 115 55 224 149 292c6 5 14 5 20 0c68 -80 133 -245 133 -358c0 -143 -86 -255 -180 -364c21 -68 39 -138 56 -207c2 0 7 1 13 1c155 0 256 -128 256 -261c0 -113 -74 -212 -180 -246c3 -35 5 -70 5 -105c0 -19 -1 -39 -2 -58c-7 -119 -88 -225 -202 -228l1 43
c93 2 153 92 159 191c1 18 2 37 2 55c0 31 -1 61 -4 92c-5 -1 -44 -8 -89 -8c-193 0 -333 180 -333 374c0 177 131 306 248 441zM428 916c0 34 1 66 -20 129c-99 -48 -162 -149 -162 -259c0 -52 12 -115 36 -194c80 97 146 198 146 324z" fill="currentColor"/>
</g>
<g transform="translate(4.4200, 25.3064)">
<path transform="scale(0.0040, -0.0040)" d="M27 41l-1 -66v-11c0 -22 1 -44 4 -66c45 38 93 80 93 139c0 33 -14 67 -43 67c-31 0 -52 -30 -53 -63zM-15 -138l-12 595c8 5 18 8 27 8s19 -3 27 -8l-7 -345c25 21 58 34 91 34c52 0 89 -48 89 -102c0 -80 -86 -117 -147 -169c-15 -13 -24 -38 -45 -38
c-13 0 -23 11 -23 25z" fill="currentColor"/>
</g>
<g transform="translate(5.3400, 23.8064)">
<path transform="scale(0.0040, -0.0040)" d="M27 41l-1 -66v-11c0 -22 1 -44 4 -66c45 38 93 80 93 139c0 33 -14 67 -43 67c-31 0 -52 -30 -53 -63zM-15 -138l-12 595c8 5 18 8 27 8s19 -3 27 -8l-7 -345c25 21 58 34 91 34c52 0 89 -48 89 -102c0 -80 -86 -117 -147 -169c-15 -13 -24 -38 -45 -38
c-13 0 -23 11 -23 25z" fill="currentColor"/>
</g>
<a style="color:inherit;" xlink:href="textedit:///Users/kapsitis/workspace-public/ddgatve-songs/songs-lt/lilypond/AnTeveliausDvaro.ly:47:3:4">
<g transform="translate(13.8826, 23.8064)">
<path transform="scale(0.0040, -0.0040)" d="M218 136c66 0 108 -36 108 -89c0 -89 -113 -183 -218 -183c-66 0 -108 36 -108 89c0 89 113 183 218 183z" fill="currentColor"/>
</g>
</a>
<a style="color:inherit;" xlink:href="textedit:///Users/kapsitis/workspace-public/ddgatve-songs/songs-lt/lilypond/AnTeveliausDvaro.ly:53:2:3">
<g transform="translate(12.8959, 31.8195)">
<text font-family="serif" font-size="2.4696" text-anchor="start" fill="currentColor">
<tspan>kas</tspan>
</text>
</g>
</a>
<g transform="translate(15.1218, 25.3064)">
<rect x="-0.0650" y="-4.5000" width="0.1300" height="2.8139" ry="0.0400" fill="currentColor"/>
</g>
<g transform="translate(15.1868, 20.8464)">
<path transform="scale(0.0040, -0.0040)" d="M0 0v-250h-16v250h16zM0 0c0 -197 207 -336 207 -533c0 -71 -15 -141 -41 -207c-5 -8 -13 -12 -20 -12c-13 0 -26 11 -23 27c26 61 42 126 42 192c0 103 -94 208 -165 283v250z" fill="currentColor"/>
</g>
<g transform="translate(13.9476, 25.3064)">
<rect x="-0.0650" y="-0.3139" width="0.1300" height="3.3139" ry="0.0400" fill="currentColor"/>
</g>
<g transform="translate(14.0126, 28.2664)">
<path transform="scale(0.0040, -0.0040)" d="M0 0h-16v250h16v-250zM0 0v250c97 59 224 148 224 259c0 57 -15 112 -40 163c-3 16 10 27 23 27c7 0 15 -3 20 -11c25 -56 40 -117 40 -179c0 -203 -267 -306 -267 -509z" fill="currentColor"/>
</g>
<a style="color:inherit;" xlink:href="textedit:///Users/kapsitis/workspace-public/ddgatve-songs/songs-lt/lilypond/AnTeveliausDvaro.ly:47:7:8">
<g transform="translate(19.6752, 24.3064)">
<path transform="scale(0.0040, -0.0040)" d="M218 136c66 0 108 -36 108 -89c0 -89 -113 -183 -218 -183c-66 0 -108 36 -108 89c0 89 113 183 218 183z" fill="currentColor"/>
</g>
</a>
<a style="color:inherit;" xlink:href="textedit:///Users/kapsitis/workspace-public/ddgatve-songs/songs-lt/lilypond/AnTeveliausDvaro.ly:63:7:8">
<g transform="translate(19.6752, 25.3064)">
<path transform="scale(0.0040, -0.0040)" d="M218 136c66 0 108 -36 108 -89c0 -89 -113 -183 -218 -183c-66 0 -108 36 -108 89c0 89 113 183 218 183z" fill="currentColor"/>
</g>
</a>
<a style="color:inherit;" xlink:href="textedit:///Users/kapsitis/workspace-public/ddgatve-songs/songs-lt/lilypond/AnTeveliausDvaro.ly:53:6:7">
<g transform="translate(18.2787, 31.8195)">
<text font-family="serif" font-size="2.4696" text-anchor="start" fill="currentColor">
<tspan>tuos</tspan>
</text>
</g>
</a>
<g transform="translate(20.9145, 25.3064)">
<rect x="-0.0650" y="-4.1250" width="0.1300" height="2.9389" ry="0.0400" fill="currentColor"/>
</g>
<g transform="translate(20.9795, 21.2214)">
<path transform="scale(0.0040, -0.0040)" d="M0 0v-250h-16v250h16zM0 0c0 -197 207 -336 207 -533c0 -71 -15 -141 -41 -207c-5 -8 -13 -12 -20 -12c-13 0 -26 11 -23 27c26 61 42 126 42 192c0 103 -94 208 -165 283v250z" fill="currentColor"/>
</g>
<g transform="translate(19.7402, 25.3064)">
<rect x="-0.0650" y="0.1861" width="0.1300" height="3.1889" ry="0.0400" fill="currentColor"/>
</g>
<g transform="translate(19.8052, 28.6414)">
<path transform="scale(0.0040, -0.0040)" d="M0 0h-16v250h16v-250zM0 0v250c97 59 224 148 224 259c0 57 -15 112 -40 163c-3 16 10 27 23 27c7 0 15 -3 20 -11c25 -56 40 -117 40 -179c0 -203 -267 -306 -267 -509z" fill="currentColor"/>
</g>
<a style="color:inherit;" xlink:href="textedit:///Users/kapsitis/workspace-public/ddgatve-songs/songs-lt/lilypond/AnTeveliausDvaro.ly:47:9:10">
<g transform="translate(25.4678, 24.8064)">
<path transform="scale(0.0040, -0.0040)" d="M218 136c66 0 108 -36 108 -89c0 -89 -113 -183 -218 -183c-66 0 -108 36 -108 89c0 89 113 183 218 183z" fill="currentColor"/>
</g>
</a>
<a style="color:inherit;" xlink:href="textedit:///Users/kapsitis/workspace-public/ddgatve-songs/songs-lt/lilypond/AnTeveliausDvaro.ly:63:11:12">
<g transform="translate(25.4678, 25.8064)">
<path transform="scale(0.0040, -0.0040)" d="M218 136c66 0 108 -36 108 -89c0 -89 -113 -183 -218 -183c-66 0 -108 36 -108 89c0 89 113 183 218 183z" fill="currentColor"/>
</g>
</a>
<a style="color:inherit;" xlink:href="textedit:///Users/kapsitis/workspace-public/ddgatve-songs/songs-lt/lilypond/AnTeveliausDvaro.ly:53:11:12">
<g transform="translate(24.5494, 31.8195)">
<text font-family="serif" font-size="2.4696" text-anchor="start" fill="currentColor">
<tspan>ber</tspan>
</text>
</g>
</a>
<g transform="translate(26.7071, 25.3064)">
<rect x="-0.0650" y="-3.7500" width="0.1300" height="3.0639" ry="0.0400" fill="currentColor"/>
</g>
<g transform="translate(26.7721, 21.5964)">
<path transform="scale(0.0040, -0.0040)" d="M0 0v-250h-16v250h16zM0 0c0 -197 207 -336 207 -533c0 -71 -15 -141 -41 -207c-5 -8 -13 -12 -20 -12c-13 0 -26 11 -23 27c26 61 42 126 42 192c0 103 -94 208 -165 283v250z" fill="currentColor"/>
</g>
<g transform="translate(25.5328, 25.3064)">
<rect x="-0.0650" y="0.6861" width="0.1300" height="3.0639" ry="0.0400" fill="currentColor"/>
</g>
<g transform="translate(25.5978, 29.0164)">
<path transform="scale(0.0040, -0.0040)" d="M0 0h-16v250h16v-250zM0 0v250c97 59 224 148 224 259c0 57 -15 112 -40 163c-3 16 10 27 23 27c7 0 15 -3 20 -11c25 -56 40 -117 40 -179c0 -203 -267 -306 -267 -509z" fill="currentColor"/>
</g>
<a style="color:inherit;" xlink:href="textedit:///Users/kapsitis/workspace-public/ddgatve-songs/songs-lt/lilypond/AnTeveliausDvaro.ly:53:15:16">
<g transform="translate(28.8936, 31.8195)">
<rect x="0.0000" y="-0.5500" width="0.6600" height="0.1300" ry="0.0400" fill="currentColor"/>
</g>
</a>
<a style="color:inherit;" xlink:href="textedit:///Users/kapsitis/workspace-public/ddgatve-songs/songs-lt/lilypond/AnTeveliausDvaro.ly:47:11:12">
<g transform="translate(31.1972, 26.3064)">
<path transform="scale(0.0040, -0.0040)" d="M218 136c66 0 108 -36 108 -89c0 -89 -113 -183 -218 -183c-66 0 -108 36 -108 89c0 89 113 183 218 183z" fill="currentColor"/>
</g>
</a>
<a style="color:inherit;" xlink:href="textedit:///Users/kapsitis/workspace-public/ddgatve-songs/songs-lt/lilypond/AnTeveliausDvaro.ly:63:13:14">
<g transform="translate(31.1972, 26.3064)">
<path transform="scale(0.0040, -0.0040)" d="M218 136c66 0 108 -36 108 -89c0 -89 -113 -183 -218 -183c-66 0 -108 36 -108 89c0 89 113 183 218 183z" fill="currentColor"/>
</g>
</a>
<a style="color:inherit;" xlink:href="textedit:///Users/kapsitis/workspace-public/ddgatve-songs/songs-lt/lilypond/AnTeveliausDvaro.ly:53:18:19">
<g transform="translate(30.7567, 31.8195)">
<text font-family="serif" font-size="2.4696" text-anchor="start" fill="currentColor">
<tspan>ža</tspan>
</text>
</g>
</a>
<g transform="translate(32.4364, 25.3064)">
<rect x="-0.0650" y="-2.5000" width="0.1300" height="3.3139" ry="0.0400" fill="currentColor"/>
</g>
<g transform="translate(32.5014, 22.8464)">
<path transform="scale(0.0040, -0.0040)" d="M0 0v-250h-16v250h16zM0 0c0 -197 207 -336 207 -533c0 -71 -15 -141 -41 -207c-5 -8 -13 -12 -20 -12c-13 0 -26 11 -23 27c26 61 42 126 42 192c0 103 -94 208 -165 283v250z" fill="currentColor"/>
</g>
<g transform="translate(31.2622, 25.3064)">
<rect x="-0.0650" y="1.1861" width="0.1300" height="2.9389" ry="0.0400" fill="currentColor"/>
</g>
<g transform="translate(31.3272, 29.3914)">
<path transform="scale(0.0040, -0.0040)" d="M0 0h-16v250h16v-250zM0 0v250c97 59 224 148 224 259c0 57 -15 112 -40 163c-3 16 10 27 23 27c7 0 15 -3 20 -11c25 -56 40 -117 40 -179c0 -203 -267 -306 -267 -509z" fill="currentColor"/>
</g>
<a style="color:inherit;" xlink:href="textedit:///Users/kapsitis/workspace-public/ddgatve-songs/songs-lt/lilypond/AnTeveliausDvaro.ly:53:21:22">
<g transform="translate(34.0742, 31.8195)">
<rect x="0.0000" y="-0.5500" width="0.6600" height="0.1300" ry="0.0400" fill="currentColor"/>
</g>
</a>
<a style="color:inherit;" xlink:href="textedit:///Users/kapsitis/workspace-public/ddgatve-songs/songs-lt/lilypond/AnTeveliausDvaro.ly:47:13:14">
<g transform="translate(36.9898, 26.3064)">
<path transform="scale(0.0040, -0.0040)" d="M218 136c66 0 108 -36 108 -89c0 -89 -113 -183 -218 -183c-66 0 -108 36 -108 89c0 89 113 183 218 183z" fill="currentColor"/>
</g>
</a>
<a style="color:inherit;" xlink:href="textedit:///Users/kapsitis/workspace-public/ddgatve-songs/songs-lt/lilypond/AnTeveliausDvaro.ly:63:15:16">
<g transform="translate(36.9898, 26.3064)">
<path transform="scale(0.0040, -0.0040)" d="M218 136c66 0 108 -36 108 -89c0 -89 -113 -183 -218 -183c-66 0 -108 36 -108 89c0 89 113 183 218 183z" fill="currentColor"/>
</g>
</a>
<a style="color:inherit;" xlink:href="textedit:///Users/kapsitis/workspace-public/ddgatve-songs/songs-lt/lilypond/AnTeveliausDvaro.ly:53:24:25">
<g transform="translate(35.8665, 31.8195)">
<text font-family="serif" font-size="2.4696" text-anchor="start" fill="currentColor">
<tspan>lius</tspan>
</text>
</g>
</a>
<g transform="translate(38.2290, 25.3064)">
<rect x="-0.0650" y="-2.5000" width="0.1300" height="3.3139" ry="0.0400" fill="currentColor"/>
</g>
<g transform="translate(38.2940, 22.8464)">
<path transform="scale(0.0040, -0.0040)" d="M0 0v-250h-16v250h16zM0 0c0 -197 207 -336 207 -533c0 -71 -15 -141 -41 -207c-5 -8 -13 -12 -20 -12c-13 0 -26 11 -23 27c26 61 42 126 42 192c0 103 -94 208 -165 283v250z" fill="currentColor"/>
</g>
<g transform="translate(37.0548, 25.3064)">
<rect x="-0.0650" y="1.1861" width="0.1300" height="2.9389" ry="0.0400" fill="currentColor"/>
</g>
<g transform="translate(37.1198, 29.3914)">
<path transform="scale(0.0040, -0.0040)" d="M0 0h-16v250h16v-250zM0 0v250c97 59 224 148 224 259c0 57 -15 112 -40 163c-3 16 10 27 23 27c7 0 15 -3 20 -11c25 -56 40 -117 40 -179c0 -203 -267 -306 -267 -509z" fill="currentColor"/>
</g>
<a style="color:inherit;" xlink:href="textedit:///Users/kapsitis/workspace-public/ddgatve-songs/songs-lt/lilypond/AnTeveliausDvaro.ly:47:15:16">
<g transform="translate(42.7824, 24.3064)">
<path transform="scale(0.0040, -0.0040)" d="M218 136c66 0 108 -36 108 -89c0 -89 -113 -183 -218 -183c-66 0 -108 36 -108 89c0 89 113 183 218 183z" fill="currentColor"/>
</g>
</a>
<a style="color:inherit;" xlink:href="textedit:///Users/kapsitis/workspace-public/ddgatve-songs/songs-lt/lilypond/AnTeveliausDvaro.ly:63:17:18">
<g transform="translate(42.7824, 25.3064)">
<path transform="scale(0.0040, -0.0040)" d="M218 136c66 0 108 -36 108 -89c0 -89 -113 -183 -218 -183c-66 0 -108 36 -108 89c0 89 113 183 218 183z" fill="currentColor"/>
</g>
</a>
<a style="color:inherit;" xlink:href="textedit:///Users/kapsitis/workspace-public/ddgatve-songs/songs-lt/lilypond/AnTeveliausDvaro.ly:53:29:30">
<g transform="translate(42.2737, 31.8195)">
<text font-family="serif" font-size="2.4696" text-anchor="start" fill="currentColor">
<tspan>už</tspan>
</text>
</g>
</a>
<g transform="translate(44.0217, 25.3064)">
<rect x="-0.0650" y="-4.1250" width="0.1300" height="2.9389" ry="0.0400" fill="currentColor"/>
</g>
<g transform="translate(44.0867, 21.2214)">
<path transform="scale(0.0040, -0.0040)" d="M0 0v-250h-16v250h16zM0 0c0 -197 207 -336 207 -533c0 -71 -15 -141 -41 -207c-5 -8 -13 -12 -20 -12c-13 0 -26 11 -23 27c26 61 42 126 42 192c0 103 -94 208 -165 283v250z" fill="currentColor"/>
</g>
<g transform="translate(42.8474, 25.3064)">
<rect x="-0.0650" y="0.1861" width="0.1300" height="3.1889" ry="0.0400" fill="currentColor"/>
</g>
<g transform="translate(42.9124, 28.6414)">
<path transform="scale(0.0040, -0.0040)" d="M0 0h-16v250h16v-250zM0 0v250c97 59 224 148 224 259c0 57 -15 112 -40 163c-3 16 10 27 23 27c7 0 15 -3 20 -11c25 -56 40 -117 40 -179c0 -203 -267 -306 -267 -509z" fill="currentColor"/>
</g>
<a style="color:inherit;" xlink:href="textedit:///Users/kapsitis/workspace-public/ddgatve-songs/songs-lt/lilypond/AnTeveliausDvaro.ly:53:32:33">
<g transform="translate(46.2552, 31.8195)">
<rect x="0.0000" y="-0.5500" width="0.6600" height="0.1300" ry="0.0400" fill="currentColor"/>
</g>
</a>
<a style="color:inherit;" xlink:href="textedit:///Users/kapsitis/workspace-public/ddgatve-songs/songs-lt/lilypond/AnTeveliausDvaro.ly:47:35:36">
<g transform="translate(49.7493, 21.4964)">
<polygon stroke-linejoin="round" stroke-linecap="round" stroke-width="0.0800" fill="currentColor" stroke="currentColor" points="5.8194 0.1100 5.8194 0.5100 0.0400 0.2000 0.0400 -0.2000"/>
</g>
</a>
<a style="color:inherit;" xlink:href="textedit:///Users/kapsitis/workspace-public/ddgatve-songs/songs-lt/lilypond/AnTeveliausDvaro.ly:47:32:33">
<g transform="translate(48.5750, 23.8064)">
<path transform="scale(0.0040, -0.0040)" d="M218 136c66 0 108 -36 108 -89c0 -89 -113 -183 -218 -183c-66 0 -108 36 -108 89c0 89 113 183 218 183z" fill="currentColor"/>
</g>
</a>
<a style="color:inherit;" xlink:href="textedit:///Users/kapsitis/workspace-public/ddgatve-songs/songs-lt/lilypond/AnTeveliausDvaro.ly:63:35:36">
<g transform="translate(48.5750, 24.8064)">
<path transform="scale(0.0040, -0.0040)" d="M218 136c66 0 108 -36 108 -89c0 -89 -113 -183 -218 -183c-66 0 -108 36 -108 89c0 89 113 183 218 183z" fill="currentColor"/>
</g>
</a>
<a style="color:inherit;" xlink:href="textedit:///Users/kapsitis/workspace-public/ddgatve-songs/songs-lt/lilypond/AnTeveliausDvaro.ly:53:35:36">
<g transform="translate(48.5750, 31.8195)">
<text font-family="serif" font-size="2.4696" text-anchor="start" fill="currentColor">
<tspan>kirs,</tspan>
</text>
</g>
</a>
<g transform="translate(49.8143, 25.3064)">
<rect x="-0.0650" y="-3.8066" width="0.1300" height="2.1205" ry="0.0400" fill="currentColor"/>
</g>
<g transform="translate(48.6400, 25.3064)">
<rect x="-0.0650" y="-0.3139" width="0.1300" height="3.1260" ry="0.0400" fill="currentColor"/>
</g>
<a style="color:inherit;" xlink:href="textedit:///Users/kapsitis/workspace-public/ddgatve-songs/songs-lt/lilypond/AnTeveliausDvaro.ly:47:36:37">
<g transform="translate(48.5750, 25.3064)">
<path stroke-width="0.0800" stroke-linejoin="round" stroke-linecap="round" stroke="currentColor" fill="currentColor" d="M1.2622 -4.5466C2.5857 -5.6138 5.7880 -5.4444 6.9916 -4.2434L6.9916 -4.2434C5.7817 -5.3245 2.5794 -5.4940 1.2622 -4.5466z"/>
</g>
</a>
<a style="color:inherit;" xlink:href="textedit:///Users/kapsitis/workspace-public/ddgatve-songs/songs-lt/lilypond/AnTeveliausDvaro.ly:47:38:39">
<g transform="translate(54.3044, 24.3064)">
<path transform="scale(0.0040, -0.0040)" d="M218 136c66 0 108 -36 108 -89c0 -89 -113 -183 -218 -183c-66 0 -108 36 -108 89c0 89 113 183 218 183z" fill="currentColor"/>
</g>
</a>
<a style="color:inherit;" xlink:href="textedit:///Users/kapsitis/workspace-public/ddgatve-songs/songs-lt/lilypond/AnTeveliausDvaro.ly:63:40:41">
<g transform="translate(54.3044, 25.3064)">
<path transform="scale(0.0040, -0.0040)" d="M218 136c66 0 108 -36 108 -89c0 -89 -113 -183 -218 -183c-66 0 -108 36 -108 89c0 89 113 183 218 183z" fill="currentColor"/>
</g>
</a>
<g transform="translate(55.5436, 25.3064)">
<rect x="-0.0650" y="-3.5034" width="0.1300" height="2.3173" ry="0.0400" fill="currentColor"/>
</g>
<g transform="translate(54.3694, 25.3064)">
<rect x="-0.0650" y="0.1861" width="0.1300" height="2.8118" ry="0.0400" fill="currentColor"/>
</g>
<a style="color:inherit;" xlink:href="textedit:///Users/kapsitis/workspace-public/ddgatve-songs/songs-lt/lilypond/AnTeveliausDvaro.ly:63:37:38">
<g transform="translate(48.5750, 28.1164)">
<polygon stroke-linejoin="round" stroke-linecap="round" stroke-width="0.0800" fill="currentColor" stroke="currentColor" points="5.8194 -0.0100 5.8194 0.3900 0.0400 0.2000 0.0400 -0.2000"/>
</g>
</a>
<a style="color:inherit;" xlink:href="textedit:///Users/kapsitis/workspace-public/ddgatve-songs/songs-lt/lilypond/AnTeveliausDvaro.ly:47:42:43">
<g transform="translate(60.0338, 24.8064)">
<path transform="scale(0.0040, -0.0040)" d="M218 136c66 0 108 -36 108 -89c0 -89 -113 -183 -218 -183c-66 0 -108 36 -108 89c0 89 113 183 218 183z" fill="currentColor"/>
</g>
</a>
<a style="color:inherit;" xlink:href="textedit:///Users/kapsitis/workspace-public/ddgatve-songs/songs-lt/lilypond/AnTeveliausDvaro.ly:63:46:47">
<g transform="translate(60.0338, 25.8064)">
<path transform="scale(0.0040, -0.0040)" d="M218 136c66 0 108 -36 108 -89c0 -89 -113 -183 -218 -183c-66 0 -108 36 -108 89c0 89 113 183 218 183z" fill="currentColor"/>
</g>
</a>
<a style="color:inherit;" xlink:href="textedit:///Users/kapsitis/workspace-public/ddgatve-songs/songs-lt/lilypond/AnTeveliausDvaro.ly:53:41:42">
<g transform="translate(59.5250, 31.8195)">
<text font-family="serif" font-size="2.4696" text-anchor="start" fill="currentColor">
<tspan>už</tspan>
</text>
</g>
</a>
<g transform="translate(61.2730, 25.3064)">
<rect x="-0.0650" y="-3.7500" width="0.1300" height="3.0639" ry="0.0400" fill="currentColor"/>
</g>
<g transform="translate(61.3380, 21.5964)">
<path transform="scale(0.0040, -0.0040)" d="M0 0v-250h-16v250h16zM0 0c0 -197 207 -336 207 -533c0 -71 -15 -141 -41 -207c-5 -8 -13 -12 -20 -12c-13 0 -26 11 -23 27c26 61 42 126 42 192c0 103 -94 208 -165 283v250z" fill="currentColor"/>
</g>
<g transform="translate(60.0988, 25.3064)">
<rect x="-0.0650" y="0.6861" width="0.1300" height="3.0639" ry="0.0400" fill="currentColor"/>
</g>
<g transform="translate(60.1638, 29.0164)">
<path transform="scale(0.0040, -0.0040)" d="M0 0h-16v250h16v-250zM0 0v250c97 59 224 148 224 259c0 57 -15 112 -40 163c-3 16 10 27 23 27c7 0 15 -3 20 -11c25 -56 40 -117 40 -179c0 -203 -267 -306 -267 -509z" fill="currentColor"/>
</g>
<a style="color:inherit;" xlink:href="textedit:///Users/kapsitis/workspace-public/ddgatve-songs/songs-lt/lilypond/AnTeveliausDvaro.ly:63:38:39">
<g transform="translate(48.5750, 25.3064)">
<path stroke-width="0.0800" stroke-linejoin="round" stroke-linecap="round" stroke="currentColor" fill="currentColor" d="M0.0509 3.5521C1.2780 4.7276 4.4796 4.8314 5.7803 3.7379L5.7803 3.7379C4.4835 4.7115 1.2819 4.6077 0.0509 3.5521z"/>
</g>
</a>
<a style="color:inherit;" xlink:href="textedit:///Users/kapsitis/workspace-public/ddgatve-songs/songs-lt/lilypond/AnTeveliausDvaro.ly:47:44:45">
<g transform="translate(65.7632, 26.3064)">
<path transform="scale(0.0040, -0.0040)" d="M218 136c66 0 108 -36 108 -89c0 -89 -113 -183 -218 -183c-66 0 -108 36 -108 89c0 89 113 183 218 183z" fill="currentColor"/>
</g>
</a>
<a style="color:inherit;" xlink:href="textedit:///Users/kapsitis/workspace-public/ddgatve-songs/songs-lt/lilypond/AnTeveliausDvaro.ly:63:48:49">
<g transform="translate(65.7632, 26.3064)">
<path transform="scale(0.0040, -0.0040)" d="M218 136c66 0 108 -36 108 -89c0 -89 -113 -183 -218 -183c-66 0 -108 36 -108 89c0 89 113 183 218 183z" fill="currentColor"/>
</g>
</a>
<a style="color:inherit;" xlink:href="textedit:///Users/kapsitis/workspace-public/ddgatve-songs/songs-lt/lilypond/AnTeveliausDvaro.ly:53:47:48">
<g transform="translate(64.0253, 31.8195)">
<text font-family="serif" font-size="2.4696" text-anchor="start" fill="currentColor">
<tspan>kirs?</tspan>
</text>
</g>
</a>
<g transform="translate(67.5174, 25.8064)">
<path transform="scale(0.0040, -0.0040)" d="M0 0c0 31 25 56 56 56s56 -25 56 -56s-25 -56 -56 -56s-56 25 -56 56z" fill="currentColor"/>
</g>
<g transform="translate(67.0024, 25.3064)">
<rect x="-0.0650" y="-2.5000" width="0.1300" height="3.3139" ry="0.0400" fill="currentColor"/>
</g>
<g transform="translate(65.8282, 25.3064)">
<rect x="-0.0650" y="1.1861" width="0.1300" height="2.8139" ry="0.0400" fill="currentColor"/>
</g>
<a style="color:inherit;" xlink:href="textedit:///Users/kapsitis/workspace-public/ddgatve-songs/songs-lt/lilypond/AnTeveliausDvaro.ly:53:44:45">
<g transform="translate(62.6060, 31.8195)">
<rect x="0.0000" y="-0.5500" width="0.6600" height="0.1300" ry="0.0400" fill="currentColor"/>
</g>
</a>
<a style="color:inherit;" xlink:href="textedit:///Users/kapsitis/workspace-public/ddgatve-songs/songs-lt/lilypond/AnTeveliausDvaro.ly:47:0:1">
<g transform="translate(8.0900, 24.3064)">
<path transform="scale(0.0040, -0.0040)" d="M218 136c66 0 108 -36 108 -89c0 -89 -113 -183 -218 -183c-66 0 -108 36 -108 89c0 89 113 183 218 183z" fill="currentColor"/>
</g>
</a>
<a style="color:inherit;" xlink:href="textedit:///Users/kapsitis/workspace-public/ddgatve-songs/songs-lt/lilypond/AnTeveliausDvaro.ly:63:0:1">
<g transform="translate(8.0900, 25.3064)">
<path transform="scale(0.0040, -0.0040)" d="M218 136c66 0 108 -36 108 -89c0 -89 -113 -183 -218 -183c-66 0 -108 36 -108 89c0 89 113 183 218 183z" fill="currentColor"/>
</g>
</a>
<a style="color:inherit;" xlink:href="textedit:///Users/kapsitis/workspace-public/ddgatve-songs/songs-lt/lilypond/AnTeveliausDvaro.ly:53:0:1">
<g transform="translate(7.8544, 31.8195)">
<text font-family="serif" font-size="2.4696" text-anchor="start" fill="currentColor">
<tspan>O</tspan>
</text>
</g>
</a>
<g transform="translate(9.3292, 25.3064)">
<rect x="-0.0650" y="-4.1250" width="0.1300" height="2.9389" ry="0.0400" fill="currentColor"/>
</g>
<g transform="translate(9.3942, 21.2214)">
<path transform="scale(0.0040, -0.0040)" d="M0 0v-250h-16v250h16zM0 0c0 -197 207 -336 207 -533c0 -71 -15 -141 -41 -207c-5 -8 -13 -12 -20 -12c-13 0 -26 11 -23 27c26 61 42 126 42 192c0 103 -94 208 -165 283v250z" fill="currentColor"/>
</g>
<g transform="translate(8.1550, 25.3064)">
<rect x="-0.0650" y="0.1861" width="0.1300" height="3.1889" ry="0.0400" fill="currentColor"/>
</g>
<g transform="translate(8.2200, 28.6414)">
<path transform="scale(0.0040, -0.0040)" d="M0 0h-16v250h16v-250zM0 0v250c97 59 224 148 224 259c0 57 -15 112 -40 163c-3 16 10 27 23 27c7 0 15 -3 20 -11c25 -56 40 -117 40 -179c0 -203 -267 -306 -267 -509z" fill="currentColor"/>
</g>
<a style="color:inherit;" xlink:href="textedit:///Users/kapsitis/workspace-public/ddgatve-songs/songs-lt/lilypond/AnTeveliausDvaro.ly:63:5:6">
<g transform="translate(13.8826, 24.8064)">
<path transform="scale(0.0040, -0.0040)" d="M218 136c66 0 108 -36 108 -89c0 -89 -113 -183 -218 -183c-66 0 -108 36 -108 89c0 89 113 183 218 183z" fill="currentColor"/>
</g>
</a>
<g color="rgb(100%, 100%, 100%)">
<g transform="translate(0.0000, 32.2307)">
<text font-family="sans-serif" font-size="1.9600" text-anchor="start" fill="currentColor">
<tspan>__</tspan>
</text>
</g>
</g>
</svg>
