<svg xmlns="http://www.w3.org/2000/svg" xmlns:xlink="http://www.w3.org/1999/xlink" version="1.2" width="141.56mm" height="66.67mm" viewBox="-0.8877 -0.0000 80.5554 37.9387">
<style type="text/css">
<![CDATA[
tspan { white-space: pre; }
]]>
</style>
<g transform="translate(0.0000, -0.3846)">
<text font-family="serif" font-size="2.2001" text-anchor="start" fill="currentColor">
<tspan>__</tspan>
</text>
</g>
<g transform="translate(77.4825, -0.3846)">
<text font-family="serif" font-size="2.2001" text-anchor="start" fill="currentColor">
<tspan>__</tspan>
</text>
</g>
<g transform="translate(0.0000, 6.8902)">
<rect x="60.6130" y="-0.1000" width="1.9563" height="0.2000" ry="0.1000" fill="currentColor"/>
</g>
<g transform="translate(0.0000, 6.8902)">
<rect x="54.9341" y="-0.1000" width="1.9563" height="0.2000" ry="0.1000" fill="currentColor"/>
</g>
<g transform="translate(0.0000, 6.8902)">
<rect x="45.4269" y="-0.1000" width="2.0660" height="0.2000" ry="0.1000" fill="currentColor"/>
</g>
<g transform="translate(0.0000, 6.8902)">
<rect x="14.0528" y="-0.1000" width="1.9563" height="0.2000" ry="0.1000" fill="currentColor"/>
</g>
<g transform="translate(0.0000, 6.8902)">
<rect x="8.3739" y="-0.1000" width="1.9563" height="0.2000" ry="0.1000" fill="currentColor"/>
</g>
<g transform="translate(0.0000, 5.8902)">
<line stroke-linejoin="round" stroke-linecap="round" stroke-width="0.1000" stroke="currentColor" x1="0.0500" y1="0" x2="79.6177" y2="0"/>
</g>
<g transform="translate(0.0000, 4.8902)">
<line stroke-linejoin="round" stroke-linecap="round" stroke-width="0.1000" stroke="currentColor" x1="0.0500" y1="0" x2="79.6177" y2="0"/>
</g>
<g transform="translate(0.0000, 3.8902)">
<line stroke-linejoin="round" stroke-linecap="round" stroke-width="0.1000" stroke="currentColor" x1="0.0500" y1="0" x2="79.6177" y2="0"/>
</g>
<g transform="translate(0.0000, 2.8902)">
<line stroke-linejoin="round" stroke-linecap="round" stroke-width="0.1000" stroke="currentColor" x1="0.0500" y1="0" x2="79.6177" y2="0"/>
</g>
<g transform="translate(0.0000, 1.8902)">
<line stroke-linejoin="round" stroke-linecap="round" stroke-width="0.1000" stroke="currentColor" x1="0.0500" y1="0" x2="79.6177" y2="0"/>
</g>
<g transform="translate(79.4777, 3.8902)">
<rect x="0.0000" y="-2.0000" width="0.1900" height="4.0000" ry="0.0000" fill="currentColor"/>
</g>
<g transform="translate(53.7999, 3.8902)">
<rect x="0.0000" y="-2.0000" width="0.1900" height="4.0000" ry="0.0000" fill="currentColor"/>
</g>
<g transform="translate(32.9533, 3.8902)">
<rect x="0.0000" y="-2.0000" width="0.1900" height="4.0000" ry="0.0000" fill="currentColor"/>
</g>
<a style="color:inherit;" xlink:href="textedit:///Users/kapsitis/workspace-public/ddgatve-songs/songs-lt/lilypond/AntKalnoKarklaiSiubavo.ly:39:8:9">
<g transform="translate(16.6149, 11.4948)">
<rect x="0.0000" y="-0.5500" width="0.6600" height="0.1300" ry="0.0400" fill="currentColor"/>
</g>
</a>
<a style="color:inherit;" xlink:href="textedit:///Users/kapsitis/workspace-public/ddgatve-songs/songs-lt/lilypond/AntKalnoKarklaiSiubavo.ly:22:3:4">
<g transform="translate(14.3789, 6.8902)">
<path transform="scale(0.0040, -0.0040)" d="M218 136c66 0 108 -36 108 -89c0 -89 -113 -183 -218 -183c-66 0 -108 36 -108 89c0 89 113 183 218 183z" fill="currentColor"/>
</g>
</a>
<a style="color:inherit;" xlink:href="textedit:///Users/kapsitis/workspace-public/ddgatve-songs/songs-lt/lilypond/AntKalnoKarklaiSiubavo.ly:32:3:4">
<g transform="translate(14.3789, 6.8902)">
<path transform="scale(0.0040, -0.0040)" d="M218 136c66 0 108 -36 108 -89c0 -89 -113 -183 -218 -183c-66 0 -108 36 -108 89c0 89 113 183 218 183z" fill="currentColor"/>
</g>
</a>
<a style="color:inherit;" xlink:href="textedit:///Users/kapsitis/workspace-public/ddgatve-songs/songs-lt/lilypond/AntKalnoKarklaiSiubavo.ly:39:4:5">
<g transform="translate(13.5287, 11.4948)">
<text font-family="serif" font-size="2.4696" text-anchor="start" fill="currentColor">
<tspan>kal</tspan>
</text>
</g>
</a>
<g transform="translate(15.6181, 3.8902)">
<rect x="-0.0650" y="-0.5000" width="0.1300" height="3.3139" ry="0.0400" fill="currentColor"/>
</g>
<g transform="translate(15.6831, 3.4302)">
<path transform="scale(0.0040, -0.0040)" d="M0 0v-250h-16v250h16zM0 0c0 -197 207 -336 207 -533c0 -71 -15 -141 -41 -207c-5 -8 -13 -12 -20 -12c-13 0 -26 11 -23 27c26 61 42 126 42 192c0 103 -94 208 -165 283v250z" fill="currentColor"/>
</g>
<g transform="translate(14.4439, 3.8902)">
<rect x="-0.0650" y="3.1861" width="0.1300" height="2.8139" ry="0.0400" fill="currentColor"/>
</g>
<g transform="translate(14.5089, 9.8502)">
<path transform="scale(0.0040, -0.0040)" d="M0 0h-16v250h16v-250zM0 0v250c97 59 224 148 224 259c0 57 -15 112 -40 163c-3 16 10 27 23 27c7 0 15 -3 20 -11c25 -56 40 -117 40 -179c0 -203 -267 -306 -267 -509z" fill="currentColor"/>
</g>
<a style="color:inherit;" xlink:href="textedit:///Users/kapsitis/workspace-public/ddgatve-songs/songs-lt/lilypond/AntKalnoKarklaiSiubavo.ly:22:0:1">
<g transform="translate(8.7000, 6.8902)">
<path transform="scale(0.0040, -0.0040)" d="M218 136c66 0 108 -36 108 -89c0 -89 -113 -183 -218 -183c-66 0 -108 36 -108 89c0 89 113 183 218 183z" fill="currentColor"/>
</g>
</a>
<a style="color:inherit;" xlink:href="textedit:///Users/kapsitis/workspace-public/ddgatve-songs/songs-lt/lilypond/AntKalnoKarklaiSiubavo.ly:22:6:7">
<g transform="translate(17.9336, 6.3902)">
<path transform="scale(0.0040, -0.0040)" d="M218 136c66 0 108 -36 108 -89c0 -89 -113 -183 -218 -183c-66 0 -108 36 -108 89c0 89 113 183 218 183z" fill="currentColor"/>
</g>
</a>
<a style="color:inherit;" xlink:href="textedit:///Users/kapsitis/workspace-public/ddgatve-songs/songs-lt/lilypond/AntKalnoKarklaiSiubavo.ly:32:6:7">
<g transform="translate(17.9336, 6.3902)">
<path transform="scale(0.0040, -0.0040)" d="M218 136c66 0 108 -36 108 -89c0 -89 -113 -183 -218 -183c-66 0 -108 36 -108 89c0 89 113 183 218 183z" fill="currentColor"/>
</g>
</a>
<a style="color:inherit;" xlink:href="textedit:///Users/kapsitis/workspace-public/ddgatve-songs/songs-lt/lilypond/AntKalnoKarklaiSiubavo.ly:39:11:12">
<g transform="translate(17.3566, 11.4948)">
<text font-family="serif" font-size="2.4696" text-anchor="start" fill="currentColor">
<tspan>no</tspan>
</text>
</g>
</a>
<g transform="translate(19.1728, 3.8902)">
<rect x="-0.0650" y="-1.0000" width="0.1300" height="3.3139" ry="0.0400" fill="currentColor"/>
</g>
<g transform="translate(19.2378, 2.9302)">
<path transform="scale(0.0040, -0.0040)" d="M0 0v-250h-16v250h16zM0 0c0 -197 207 -336 207 -533c0 -71 -15 -141 -41 -207c-5 -8 -13 -12 -20 -12c-13 0 -26 11 -23 27c26 61 42 126 42 192c0 103 -94 208 -165 283v250z" fill="currentColor"/>
</g>
<g transform="translate(17.9986, 3.8902)">
<rect x="-0.0650" y="2.6861" width="0.1300" height="2.8139" ry="0.0400" fill="currentColor"/>
</g>
<g transform="translate(18.0636, 9.3502)">
<path transform="scale(0.0040, -0.0040)" d="M0 0h-16v250h16v-250zM0 0v250c97 59 224 148 224 259c0 57 -15 112 -40 163c-3 16 10 27 23 27c7 0 15 -3 20 -11c25 -56 40 -117 40 -179c0 -203 -267 -306 -267 -509z" fill="currentColor"/>
</g>
<a style="color:inherit;" xlink:href="textedit:///Users/kapsitis/workspace-public/ddgatve-songs/songs-lt/lilypond/AntKalnoKarklaiSiubavo.ly:32:0:1">
<g transform="translate(8.7000, 6.8902)">
<path transform="scale(0.0040, -0.0040)" d="M218 136c66 0 108 -36 108 -89c0 -89 -113 -183 -218 -183c-66 0 -108 36 -108 89c0 89 113 183 218 183z" fill="currentColor"/>
</g>
</a>
<a style="color:inherit;" xlink:href="textedit:///Users/kapsitis/workspace-public/ddgatve-songs/songs-lt/lilypond/AntKalnoKarklaiSiubavo.ly:39:18:19">
<g transform="translate(24.5134, 11.4948)">
<rect x="0.0000" y="-0.5500" width="0.6600" height="0.1300" ry="0.0400" fill="currentColor"/>
</g>
</a>
<a style="color:inherit;" xlink:href="textedit:///Users/kapsitis/workspace-public/ddgatve-songs/songs-lt/lilypond/AntKalnoKarklaiSiubavo.ly:22:8:9">
<g transform="translate(21.4884, 5.8902)">
<path transform="scale(0.0040, -0.0040)" d="M218 136c66 0 108 -36 108 -89c0 -89 -113 -183 -218 -183c-66 0 -108 36 -108 89c0 89 113 183 218 183z" fill="currentColor"/>
</g>
</a>
<a style="color:inherit;" xlink:href="textedit:///Users/kapsitis/workspace-public/ddgatve-songs/songs-lt/lilypond/AntKalnoKarklaiSiubavo.ly:32:8:9">
<g transform="translate(21.4884, 5.8902)">
<path transform="scale(0.0040, -0.0040)" d="M218 136c66 0 108 -36 108 -89c0 -89 -113 -183 -218 -183c-66 0 -108 36 -108 89c0 89 113 183 218 183z" fill="currentColor"/>
</g>
</a>
<a style="color:inherit;" xlink:href="textedit:///Users/kapsitis/workspace-public/ddgatve-songs/songs-lt/lilypond/AntKalnoKarklaiSiubavo.ly:39:14:15">
<g transform="translate(20.5699, 11.4948)">
<text font-family="serif" font-size="2.4696" text-anchor="start" fill="currentColor">
<tspan>kar</tspan>
</text>
</g>
</a>
<g transform="translate(22.7276, 3.8902)">
<rect x="-0.0650" y="-1.5000" width="0.1300" height="3.3139" ry="0.0400" fill="currentColor"/>
</g>
<g transform="translate(21.5534, 3.8902)">
<rect x="-0.0650" y="2.1861" width="0.1300" height="2.4806" ry="0.0400" fill="currentColor"/>
</g>
<g transform="translate(0.8000, 4.8902)">
<path transform="scale(0.0040, -0.0040)" d="M266 -635h-6c-108 0 -195 88 -195 197c0 58 53 103 112 103c54 0 95 -47 95 -103c0 -52 -43 -95 -95 -95c-11 0 -21 2 -31 6c26 -39 68 -65 117 -65h4zM461 -203c68 24 113 90 113 164c0 90 -66 179 -173 190c19 -89 48 -242 60 -354zM74 28c0 -145 141 -247 264 -247
c1 0 47 0 82 6c-7 64 -29 203 -63 364c-79 -8 -124 -61 -124 -119c0 -44 25 -91 81 -123c5 -5 7 -10 7 -15c0 -11 -10 -22 -22 -22c-15 0 -126 62 -126 187c0 88 58 174 160 197c-14 58 -29 117 -46 175c-107 -121 -213 -243 -213 -403zM250 553c-29 96 -52 170 -52 346
c0 115 55 224 149 292c6 5 14 5 20 0c68 -80 133 -245 133 -358c0 -143 -86 -255 -180 -364c21 -68 39 -138 56 -207c2 0 7 1 13 1c155 0 256 -128 256 -261c0 -113 -74 -212 -180 -246c3 -35 5 -70 5 -105c0 -19 -1 -39 -2 -58c-7 -119 -88 -225 -202 -228l1 43
c93 2 153 92 159 191c1 18 2 37 2 55c0 31 -1 61 -4 92c-5 -1 -44 -8 -89 -8c-193 0 -333 180 -333 374c0 177 131 306 248 441zM428 916c0 34 1 66 -20 129c-99 -48 -162 -149 -162 -259c0 -52 12 -115 36 -194c80 97 146 198 146 324z" fill="currentColor"/>
</g>
<a style="color:inherit;" xlink:href="textedit:///Users/kapsitis/workspace-public/ddgatve-songs/songs-lt/lilypond/AntKalnoKarklaiSiubavo.ly:22:11:12">
<g transform="translate(27.1673, 5.3902)">
<path transform="scale(0.0040, -0.0040)" d="M218 136c66 0 108 -36 108 -89c0 -89 -113 -183 -218 -183c-66 0 -108 36 -108 89c0 89 113 183 218 183z" fill="currentColor"/>
</g>
</a>
<a style="color:inherit;" xlink:href="textedit:///Users/kapsitis/workspace-public/ddgatve-songs/songs-lt/lilypond/AntKalnoKarklaiSiubavo.ly:32:11:12">
<g transform="translate(27.1673, 5.3902)">
<path transform="scale(0.0040, -0.0040)" d="M218 136c66 0 108 -36 108 -89c0 -89 -113 -183 -218 -183c-66 0 -108 36 -108 89c0 89 113 183 218 183z" fill="currentColor"/>
</g>
</a>
<a style="color:inherit;" xlink:href="textedit:///Users/kapsitis/workspace-public/ddgatve-songs/songs-lt/lilypond/AntKalnoKarklaiSiubavo.ly:39:21:22">
<g transform="translate(25.9756, 11.4948)">
<text font-family="serif" font-size="2.4696" text-anchor="start" fill="currentColor">
<tspan>klai</tspan>
</text>
</g>
</a>
<g transform="translate(28.4065, 3.8902)">
<rect x="-0.0650" y="-2.0000" width="0.1300" height="3.3139" ry="0.0400" fill="currentColor"/>
</g>
<g transform="translate(27.2323, 3.8902)">
<rect x="-0.0650" y="1.6861" width="0.1300" height="2.6472" ry="0.0400" fill="currentColor"/>
</g>
<a style="color:inherit;" xlink:href="textedit:///Users/kapsitis/workspace-public/ddgatve-songs/songs-lt/lilypond/AntKalnoKarklaiSiubavo.ly:39:30:31">
<g transform="translate(37.7116, 11.4948)">
<rect x="0.0000" y="-0.5500" width="0.6600" height="0.1300" ry="0.0400" fill="currentColor"/>
</g>
</a>
<a style="color:inherit;" xlink:href="textedit:///Users/kapsitis/workspace-public/ddgatve-songs/songs-lt/lilypond/AntKalnoKarklaiSiubavo.ly:39:36:37">
<g transform="translate(43.0844, 11.4948)">
<rect x="0.0000" y="-0.5500" width="0.6600" height="0.1300" ry="0.0400" fill="currentColor"/>
</g>
</a>
<a style="color:inherit;" xlink:href="textedit:///Users/kapsitis/workspace-public/ddgatve-songs/songs-lt/lilypond/AntKalnoKarklaiSiubavo.ly:22:15:16">
<g transform="translate(34.4135, 5.8902)">
<path transform="scale(0.0040, -0.0040)" d="M218 136c66 0 108 -36 108 -89c0 -89 -113 -183 -218 -183c-66 0 -108 36 -108 89c0 89 113 183 218 183z" fill="currentColor"/>
</g>
</a>
<a style="color:inherit;" xlink:href="textedit:///Users/kapsitis/workspace-public/ddgatve-songs/songs-lt/lilypond/AntKalnoKarklaiSiubavo.ly:32:15:16">
<g transform="translate(34.4135, 5.8902)">
<path transform="scale(0.0040, -0.0040)" d="M218 136c66 0 108 -36 108 -89c0 -89 -113 -183 -218 -183c-66 0 -108 36 -108 89c0 89 113 183 218 183z" fill="currentColor"/>
</g>
</a>
<a style="color:inherit;" xlink:href="textedit:///Users/kapsitis/workspace-public/ddgatve-songs/songs-lt/lilypond/AntKalnoKarklaiSiubavo.ly:39:26:27">
<g transform="translate(33.6316, 11.4948)">
<text font-family="serif" font-size="2.4696" text-anchor="start" fill="currentColor">
<tspan>siū</tspan>
</text>
</g>
</a>
<g transform="translate(35.6527, 3.8902)">
<rect x="-0.0650" y="-1.5000" width="0.1300" height="3.3139" ry="0.0400" fill="currentColor"/>
</g>
<g transform="translate(34.4785, 3.8902)">
<rect x="-0.0650" y="2.1861" width="0.1300" height="2.4806" ry="0.0400" fill="currentColor"/>
</g>
<a style="color:inherit;" xlink:href="textedit:///Users/kapsitis/workspace-public/ddgatve-songs/songs-lt/lilypond/AntKalnoKarklaiSiubavo.ly:20:0:1">
</a>
<a style="color:inherit;" xlink:href="textedit:///Users/kapsitis/workspace-public/ddgatve-songs/songs-lt/lilypond/AntKalnoKarklaiSiubavo.ly:22:18:19">
<g transform="translate(40.0924, 6.3902)">
<path transform="scale(0.0040, -0.0040)" d="M218 136c66 0 108 -36 108 -89c0 -89 -113 -183 -218 -183c-66 0 -108 36 -108 89c0 89 113 183 218 183z" fill="currentColor"/>
</g>
</a>
<a style="color:inherit;" xlink:href="textedit:///Users/kapsitis/workspace-public/ddgatve-songs/songs-lt/lilypond/AntKalnoKarklaiSiubavo.ly:32:18:19">
<g transform="translate(40.0924, 6.3902)">
<path transform="scale(0.0040, -0.0040)" d="M218 136c66 0 108 -36 108 -89c0 -89 -113 -183 -218 -183c-66 0 -108 36 -108 89c0 89 113 183 218 183z" fill="currentColor"/>
</g>
</a>
<a style="color:inherit;" xlink:href="textedit:///Users/kapsitis/workspace-public/ddgatve-songs/songs-lt/lilypond/AntKalnoKarklaiSiubavo.ly:39:33:34">
<g transform="translate(39.5836, 11.4948)">
<text font-family="serif" font-size="2.4696" text-anchor="start" fill="currentColor">
<tspan>ba</tspan>
</text>
</g>
</a>
<g transform="translate(41.3316, 3.8902)">
<rect x="-0.0650" y="-1.0000" width="0.1300" height="3.3139" ry="0.0400" fill="currentColor"/>
</g>
<g transform="translate(40.1574, 3.8902)">
<rect x="-0.0650" y="2.6861" width="0.1300" height="2.3139" ry="0.0400" fill="currentColor"/>
</g>
<a style="color:inherit;" xlink:href="textedit:///Users/kapsitis/workspace-public/ddgatve-songs/songs-lt/lilypond/AntKalnoKarklaiSiubavo.ly:31:0:1">
<g transform="translate(5.0000, 3.8902)">
<path transform="scale(0.0040, -0.0040)" d="M250 262c116 0 176 -106 176 -163c0 -40 -30 -72 -67 -72c-31 0 -75 25 -75 75c0 38 27 77 72 77c4 0 9 0 14 -1c-28 37 -72 59 -120 59c-106 0 -113 -73 -113 -186v-51v-51c0 -113 7 -187 113 -187c80 0 139 70 158 151c2 7 7 10 12 10c6 0 13 -4 13 -12
c0 -22 -50 -174 -183 -174c-59 0 -250 19 -250 263c0 62 18 262 250 262z" fill="currentColor"/>
</g>
</a>
<a style="color:inherit;" xlink:href="textedit:///Users/kapsitis/workspace-public/ddgatve-songs/songs-lt/lilypond/AntKalnoKarklaiSiubavo.ly:22:20:21">
<g transform="translate(45.7713, 6.8902)">
<path transform="scale(0.0040, -0.0040)" d="M314 65c0 23 -19 41 -42 41c-39 0 -204 -110 -231 -143c-7 -8 -10 -18 -10 -28c0 -23 19 -41 42 -41c39 0 203 110 230 143c7 8 11 18 11 28zM262 136c41 0 82 -14 82 -71c0 -26 -16 -112 -74 -151c-25 -17 -87 -50 -187 -50c-41 0 -83 14 -83 71c0 26 16 112 74 151
c25 17 88 50 188 50z" fill="currentColor"/>
</g>
</a>
<a style="color:inherit;" xlink:href="textedit:///Users/kapsitis/workspace-public/ddgatve-songs/songs-lt/lilypond/AntKalnoKarklaiSiubavo.ly:32:20:21">
<g transform="translate(45.7713, 6.8902)">
<path transform="scale(0.0040, -0.0040)" d="M314 65c0 23 -19 41 -42 41c-39 0 -204 -110 -231 -143c-7 -8 -10 -18 -10 -28c0 -23 19 -41 42 -41c39 0 203 110 230 143c7 8 11 18 11 28zM262 136c41 0 82 -14 82 -71c0 -26 -16 -112 -74 -151c-25 -17 -87 -50 -187 -50c-41 0 -83 14 -83 71c0 26 16 112 74 151
c25 17 88 50 188 50z" fill="currentColor"/>
</g>
</a>
<a style="color:inherit;" xlink:href="textedit:///Users/kapsitis/workspace-public/ddgatve-songs/songs-lt/lilypond/AntKalnoKarklaiSiubavo.ly:39:39:40">
<g transform="translate(44.9235, 11.4948)">
<text font-family="serif" font-size="2.4696" text-anchor="start" fill="currentColor">
<tspan>vo,</tspan>
</text>
</g>
</a>
<g transform="translate(47.0836, 3.8902)">
<rect x="-0.0650" y="-0.5000" width="0.1300" height="3.2410" ry="0.0400" fill="currentColor"/>
</g>
<g transform="translate(45.8363, 3.8902)">
<rect x="-0.0650" y="3.2590" width="0.1300" height="2.2410" ry="0.0400" fill="currentColor"/>
</g>
<a style="color:inherit;" xlink:href="textedit:///Users/kapsitis/workspace-public/ddgatve-songs/songs-lt/lilypond/AntKalnoKarklaiSiubavo.ly:40:8:9">
<g transform="translate(63.1751, 11.4948)">
<rect x="0.0000" y="-0.5500" width="0.6600" height="0.1300" ry="0.0400" fill="currentColor"/>
</g>
</a>
<a style="color:inherit;" xlink:href="textedit:///Users/kapsitis/workspace-public/ddgatve-songs/songs-lt/lilypond/AntKalnoKarklaiSiubavo.ly:22:25:26">
<g transform="translate(55.2601, 5.8902)">
<path transform="scale(0.0040, -0.0040)" d="M218 136c66 0 108 -36 108 -89c0 -89 -113 -183 -218 -183c-66 0 -108 36 -108 89c0 89 113 183 218 183z" fill="currentColor"/>
</g>
</a>
<a style="color:inherit;" xlink:href="textedit:///Users/kapsitis/workspace-public/ddgatve-songs/songs-lt/lilypond/AntKalnoKarklaiSiubavo.ly:32:25:26">
<g transform="translate(55.2601, 6.8902)">
<path transform="scale(0.0040, -0.0040)" d="M218 136c66 0 108 -36 108 -89c0 -89 -113 -183 -218 -183c-66 0 -108 36 -108 89c0 89 113 183 218 183z" fill="currentColor"/>
</g>
</a>
<a style="color:inherit;" xlink:href="textedit:///Users/kapsitis/workspace-public/ddgatve-songs/songs-lt/lilypond/AntKalnoKarklaiSiubavo.ly:40:0:1">
<g transform="translate(54.0685, 11.4948)">
<text font-family="serif" font-size="2.4696" text-anchor="start" fill="currentColor">
<tspan>Ant</tspan>
</text>
</g>
</a>
<g transform="translate(56.4994, 3.8902)">
<rect x="-0.0650" y="-1.5000" width="0.1300" height="3.3139" ry="0.0400" fill="currentColor"/>
</g>
<g transform="translate(55.3251, 3.8902)">
<rect x="-0.0650" y="3.1861" width="0.1300" height="2.3139" ry="0.0400" fill="currentColor"/>
</g>
<a style="color:inherit;" xlink:href="textedit:///Users/kapsitis/workspace-public/ddgatve-songs/songs-lt/lilypond/AntKalnoKarklaiSiubavo.ly:39:0:1">
<g transform="translate(7.5084, 11.4948)">
<text font-family="serif" font-size="2.4696" text-anchor="start" fill="currentColor">
<tspan>Ant</tspan>
</text>
</g>
</a>
<a style="color:inherit;" xlink:href="textedit:///Users/kapsitis/workspace-public/ddgatve-songs/songs-lt/lilypond/AntKalnoKarklaiSiubavo.ly:22:28:29">
<g transform="translate(60.9390, 5.8902)">
<path transform="scale(0.0040, -0.0040)" d="M218 136c66 0 108 -36 108 -89c0 -89 -113 -183 -218 -183c-66 0 -108 36 -108 89c0 89 113 183 218 183z" fill="currentColor"/>
</g>
</a>
<a style="color:inherit;" xlink:href="textedit:///Users/kapsitis/workspace-public/ddgatve-songs/songs-lt/lilypond/AntKalnoKarklaiSiubavo.ly:32:28:29">
<g transform="translate(60.9390, 6.8902)">
<path transform="scale(0.0040, -0.0040)" d="M218 136c66 0 108 -36 108 -89c0 -89 -113 -183 -218 -183c-66 0 -108 36 -108 89c0 89 113 183 218 183z" fill="currentColor"/>
</g>
</a>
<a style="color:inherit;" xlink:href="textedit:///Users/kapsitis/workspace-public/ddgatve-songs/songs-lt/lilypond/AntKalnoKarklaiSiubavo.ly:40:4:5">
<g transform="translate(60.0888, 11.4948)">
<text font-family="serif" font-size="2.4696" text-anchor="start" fill="currentColor">
<tspan>kal</tspan>
</text>
</g>
</a>
<g transform="translate(62.1782, 3.8902)">
<rect x="-0.0650" y="-1.5000" width="0.1300" height="3.3139" ry="0.0400" fill="currentColor"/>
</g>
<g transform="translate(62.2432, 2.4302)">
<path transform="scale(0.0040, -0.0040)" d="M0 0v-250h-16v250h16zM0 0c0 -197 207 -336 207 -533c0 -71 -15 -141 -41 -207c-5 -8 -13 -12 -20 -12c-13 0 -26 11 -23 27c26 61 42 126 42 192c0 103 -94 208 -165 283v250z" fill="currentColor"/>
</g>
<g transform="translate(61.0040, 3.8902)">
<rect x="-0.0650" y="3.1861" width="0.1300" height="2.8139" ry="0.0400" fill="currentColor"/>
</g>
<g transform="translate(61.0690, 9.8502)">
<path transform="scale(0.0040, -0.0040)" d="M0 0h-16v250h16v-250zM0 0v250c97 59 224 148 224 259c0 57 -15 112 -40 163c-3 16 10 27 23 27c7 0 15 -3 20 -11c25 -56 40 -117 40 -179c0 -203 -267 -306 -267 -509z" fill="currentColor"/>
</g>
<g transform="translate(9.9392, 3.8902)">
<rect x="-0.0650" y="-0.5000" width="0.1300" height="3.3139" ry="0.0400" fill="currentColor"/>
</g>
<a style="color:inherit;" xlink:href="textedit:///Users/kapsitis/workspace-public/ddgatve-songs/songs-lt/lilypond/AntKalnoKarklaiSiubavo.ly:40:18:19">
<g transform="translate(71.0735, 11.4948)">
<rect x="0.0000" y="-0.5500" width="0.6600" height="0.1300" ry="0.0400" fill="currentColor"/>
</g>
</a>
<a style="color:inherit;" xlink:href="textedit:///Users/kapsitis/workspace-public/ddgatve-songs/songs-lt/lilypond/AntKalnoKarklaiSiubavo.ly:22:31:32">
<g transform="translate(64.4938, 5.3902)">
<path transform="scale(0.0040, -0.0040)" d="M218 136c66 0 108 -36 108 -89c0 -89 -113 -183 -218 -183c-66 0 -108 36 -108 89c0 89 113 183 218 183z" fill="currentColor"/>
</g>
</a>
<a style="color:inherit;" xlink:href="textedit:///Users/kapsitis/workspace-public/ddgatve-songs/songs-lt/lilypond/AntKalnoKarklaiSiubavo.ly:32:31:32">
<g transform="translate(64.4938, 6.3902)">
<path transform="scale(0.0040, -0.0040)" d="M218 136c66 0 108 -36 108 -89c0 -89 -113 -183 -218 -183c-66 0 -108 36 -108 89c0 89 113 183 218 183z" fill="currentColor"/>
</g>
</a>
<a style="color:inherit;" xlink:href="textedit:///Users/kapsitis/workspace-public/ddgatve-songs/songs-lt/lilypond/AntKalnoKarklaiSiubavo.ly:40:11:12">
<g transform="translate(63.9167, 11.4948)">
<text font-family="serif" font-size="2.4696" text-anchor="start" fill="currentColor">
<tspan>no</tspan>
</text>
</g>
</a>
<g transform="translate(65.7330, 3.8902)">
<rect x="-0.0650" y="-2.0000" width="0.1300" height="3.3139" ry="0.0400" fill="currentColor"/>
</g>
<g transform="translate(65.7980, 1.9302)">
<path transform="scale(0.0040, -0.0040)" d="M0 0v-250h-16v250h16zM0 0c0 -197 207 -336 207 -533c0 -71 -15 -141 -41 -207c-5 -8 -13 -12 -20 -12c-13 0 -26 11 -23 27c26 61 42 126 42 192c0 103 -94 208 -165 283v250z" fill="currentColor"/>
</g>
<g transform="translate(64.5588, 3.8902)">
<rect x="-0.0650" y="2.6861" width="0.1300" height="2.8139" ry="0.0400" fill="currentColor"/>
</g>
<g transform="translate(64.6238, 9.3502)">
<path transform="scale(0.0040, -0.0040)" d="M0 0h-16v250h16v-250zM0 0v250c97 59 224 148 224 259c0 57 -15 112 -40 163c-3 16 10 27 23 27c7 0 15 -3 20 -11c25 -56 40 -117 40 -179c0 -203 -267 -306 -267 -509z" fill="currentColor"/>
</g>
<a style="color:inherit;" xlink:href="textedit:///Users/kapsitis/workspace-public/ddgatve-songs/songs-lt/lilypond/AntKalnoKarklaiSiubavo.ly:22:33:34">
<g transform="translate(68.0485, 4.8902)">
<path transform="scale(0.0040, -0.0040)" d="M218 136c66 0 108 -36 108 -89c0 -89 -113 -183 -218 -183c-66 0 -108 36 -108 89c0 89 113 183 218 183z" fill="currentColor"/>
</g>
</a>
<a style="color:inherit;" xlink:href="textedit:///Users/kapsitis/workspace-public/ddgatve-songs/songs-lt/lilypond/AntKalnoKarklaiSiubavo.ly:32:33:34">
<g transform="translate(68.0485, 5.8902)">
<path transform="scale(0.0040, -0.0040)" d="M218 136c66 0 108 -36 108 -89c0 -89 -113 -183 -218 -183c-66 0 -108 36 -108 89c0 89 113 183 218 183z" fill="currentColor"/>
</g>
</a>
<a style="color:inherit;" xlink:href="textedit:///Users/kapsitis/workspace-public/ddgatve-songs/songs-lt/lilypond/AntKalnoKarklaiSiubavo.ly:40:14:15">
<g transform="translate(67.1301, 11.4948)">
<text font-family="serif" font-size="2.4696" text-anchor="start" fill="currentColor">
<tspan>kar</tspan>
</text>
</g>
</a>
<g transform="translate(69.2878, 3.8902)">
<rect x="-0.0650" y="-2.5000" width="0.1300" height="3.3139" ry="0.0400" fill="currentColor"/>
</g>
<g transform="translate(68.1135, 3.8902)">
<rect x="-0.0650" y="2.1861" width="0.1300" height="2.4806" ry="0.0400" fill="currentColor"/>
</g>
<a style="color:inherit;" xlink:href="textedit:///Users/kapsitis/workspace-public/ddgatve-songs/songs-lt/lilypond/AntKalnoKarklaiSiubavo.ly:22:36:37">
<g transform="translate(73.7274, 4.3902)">
<path transform="scale(0.0040, -0.0040)" d="M218 136c66 0 108 -36 108 -89c0 -89 -113 -183 -218 -183c-66 0 -108 36 -108 89c0 89 113 183 218 183z" fill="currentColor"/>
</g>
</a>
<a style="color:inherit;" xlink:href="textedit:///Users/kapsitis/workspace-public/ddgatve-songs/songs-lt/lilypond/AntKalnoKarklaiSiubavo.ly:32:36:37">
<g transform="translate(73.7274, 5.3902)">
<path transform="scale(0.0040, -0.0040)" d="M218 136c66 0 108 -36 108 -89c0 -89 -113 -183 -218 -183c-66 0 -108 36 -108 89c0 89 113 183 218 183z" fill="currentColor"/>
</g>
</a>
<a style="color:inherit;" xlink:href="textedit:///Users/kapsitis/workspace-public/ddgatve-songs/songs-lt/lilypond/AntKalnoKarklaiSiubavo.ly:40:21:22">
<g transform="translate(72.5358, 11.4948)">
<text font-family="serif" font-size="2.4696" text-anchor="start" fill="currentColor">
<tspan>klai</tspan>
</text>
</g>
</a>
<g transform="translate(74.9666, 3.8902)">
<rect x="-0.0650" y="-3.0000" width="0.1300" height="3.3139" ry="0.0400" fill="currentColor"/>
</g>
<g transform="translate(73.7924, 3.8902)">
<rect x="-0.0650" y="1.6861" width="0.1300" height="2.6472" ry="0.0400" fill="currentColor"/>
</g>
<g transform="translate(8.7650, 3.8902)">
<rect x="-0.0650" y="3.1861" width="0.1300" height="2.3139" ry="0.0400" fill="currentColor"/>
</g>
<g transform="translate(0.0000, 19.1360)">
<rect x="74.1194" y="-0.1000" width="1.9563" height="0.2000" ry="0.1000" fill="currentColor"/>
</g>
<g transform="translate(0.0000, 19.1360)">
<rect x="48.9581" y="-0.1000" width="1.9563" height="0.2000" ry="0.1000" fill="currentColor"/>
</g>
<g transform="translate(0.0000, 19.1360)">
<rect x="43.9258" y="-0.1000" width="1.9563" height="0.2000" ry="0.1000" fill="currentColor"/>
</g>
<g transform="translate(0.0000, 19.1360)">
<rect x="38.8935" y="-0.1000" width="1.9563" height="0.2000" ry="0.1000" fill="currentColor"/>
</g>
<g transform="translate(0.0000, 19.1360)">
<rect x="22.7234" y="-0.1000" width="2.0660" height="0.2000" ry="0.1000" fill="currentColor"/>
</g>
<g transform="translate(0.0000, 18.1360)">
<line stroke-linejoin="round" stroke-linecap="round" stroke-width="0.1000" stroke="currentColor" x1="0.0500" y1="0" x2="79.6177" y2="0"/>
</g>
<g transform="translate(0.0000, 17.1360)">
<line stroke-linejoin="round" stroke-linecap="round" stroke-width="0.1000" stroke="currentColor" x1="0.0500" y1="0" x2="79.6177" y2="0"/>
</g>
<g transform="translate(0.0000, 16.1360)">
<line stroke-linejoin="round" stroke-linecap="round" stroke-width="0.1000" stroke="currentColor" x1="0.0500" y1="0" x2="79.6177" y2="0"/>
</g>
<g transform="translate(0.0000, 15.1360)">
<line stroke-linejoin="round" stroke-linecap="round" stroke-width="0.1000" stroke="currentColor" x1="0.0500" y1="0" x2="79.6177" y2="0"/>
</g>
<g transform="translate(0.0000, 14.1360)">
<line stroke-linejoin="round" stroke-linecap="round" stroke-width="0.1000" stroke="currentColor" x1="0.0500" y1="0" x2="79.6177" y2="0"/>
</g>
<g transform="translate(79.4777, 16.1360)">
<rect x="0.0000" y="-2.0000" width="0.1900" height="4.0000" ry="0.0000" fill="currentColor"/>
</g>
<g transform="translate(36.9453, 15.6360)">
<path transform="scale(0.0040, -0.0040)" d="M0 0c0 31 25 56 56 56s56 -25 56 -56s-25 -56 -56 -56s-56 25 -56 56z" fill="currentColor"/>
</g>
<g transform="translate(36.9453, 16.6360)">
<path transform="scale(0.0040, -0.0040)" d="M0 0c0 31 25 56 56 56s56 -25 56 -56s-25 -56 -56 -56s-56 25 -56 56z" fill="currentColor"/>
</g>
<g transform="translate(36.4553, 16.1360)">
<rect x="0.0000" y="-2.0000" width="0.1900" height="4.0000" ry="0.0000" fill="currentColor"/>
</g>
<g transform="translate(35.5553, 16.1360)">
<rect x="0.0000" y="-2.0000" width="0.6000" height="4.0000" ry="0.0000" fill="currentColor"/>
</g>
<a style="color:inherit;" xlink:href="textedit:///Users/kapsitis/workspace-public/ddgatve-songs/songs-lt/lilypond/AntKalnoKarklaiSiubavo.ly:40:30:31">
<g transform="translate(10.5756, 23.8219)">
<rect x="0.0000" y="-0.5500" width="0.6600" height="0.1300" ry="0.0400" fill="currentColor"/>
</g>
</a>
<g transform="translate(-0.8877, 13.0860)">
<text font-family="serif" font-size="1.7461" text-anchor="start" fill="currentColor">
<tspan>4</tspan>
</text>
</g>
<g transform="translate(0.8000, 17.1360)">
<path transform="scale(0.0040, -0.0040)" d="M266 -635h-6c-108 0 -195 88 -195 197c0 58 53 103 112 103c54 0 95 -47 95 -103c0 -52 -43 -95 -95 -95c-11 0 -21 2 -31 6c26 -39 68 -65 117 -65h4zM461 -203c68 24 113 90 113 164c0 90 -66 179 -173 190c19 -89 48 -242 60 -354zM74 28c0 -145 141 -247 264 -247
c1 0 47 0 82 6c-7 64 -29 203 -63 364c-79 -8 -124 -61 -124 -119c0 -44 25 -91 81 -123c5 -5 7 -10 7 -15c0 -11 -10 -22 -22 -22c-15 0 -126 62 -126 187c0 88 58 174 160 197c-14 58 -29 117 -46 175c-107 -121 -213 -243 -213 -403zM250 553c-29 96 -52 170 -52 346
c0 115 55 224 149 292c6 5 14 5 20 0c68 -80 133 -245 133 -358c0 -143 -86 -255 -180 -364c21 -68 39 -138 56 -207c2 0 7 1 13 1c155 0 256 -128 256 -261c0 -113 -74 -212 -180 -246c3 -35 5 -70 5 -105c0 -19 -1 -39 -2 -58c-7 -119 -88 -225 -202 -228l1 43
c93 2 153 92 159 191c1 18 2 37 2 55c0 31 -1 61 -4 92c-5 -1 -44 -8 -89 -8c-193 0 -333 180 -333 374c0 177 131 306 248 441zM428 916c0 34 1 66 -20 129c-99 -48 -162 -149 -162 -259c0 -52 12 -115 36 -194c80 97 146 198 146 324z" fill="currentColor"/>
</g>
<a style="color:inherit;" xlink:href="textedit:///Users/kapsitis/workspace-public/ddgatve-songs/songs-lt/lilypond/AntKalnoKarklaiSiubavo.ly:40:36:37">
<g transform="translate(18.9034, 23.8219)">
<rect x="0.0000" y="-0.5500" width="0.6600" height="0.1300" ry="0.0400" fill="currentColor"/>
</g>
</a>
<a style="color:inherit;" xlink:href="textedit:///Users/kapsitis/workspace-public/ddgatve-songs/songs-lt/lilypond/AntKalnoKarklaiSiubavo.ly:22:40:41">
<g transform="translate(5.8000, 17.1360)">
<path transform="scale(0.0040, -0.0040)" d="M218 136c66 0 108 -36 108 -89c0 -89 -113 -183 -218 -183c-66 0 -108 36 -108 89c0 89 113 183 218 183z" fill="currentColor"/>
</g>
</a>
<a style="color:inherit;" xlink:href="textedit:///Users/kapsitis/workspace-public/ddgatve-songs/songs-lt/lilypond/AntKalnoKarklaiSiubavo.ly:32:40:41">
<g transform="translate(5.8000, 18.1360)">
<path transform="scale(0.0040, -0.0040)" d="M218 136c66 0 108 -36 108 -89c0 -89 -113 -183 -218 -183c-66 0 -108 36 -108 89c0 89 113 183 218 183z" fill="currentColor"/>
</g>
</a>
<a style="color:inherit;" xlink:href="textedit:///Users/kapsitis/workspace-public/ddgatve-songs/songs-lt/lilypond/AntKalnoKarklaiSiubavo.ly:40:26:27">
<g transform="translate(5.0181, 23.8219)">
<text font-family="serif" font-size="2.4696" text-anchor="start" fill="currentColor">
<tspan>siū</tspan>
</text>
</g>
</a>
<g transform="translate(7.0392, 16.1360)">
<rect x="-0.0650" y="-2.5000" width="0.1300" height="3.3139" ry="0.0400" fill="currentColor"/>
</g>
<g transform="translate(5.8650, 16.1360)">
<rect x="-0.0650" y="2.1861" width="0.1300" height="2.4806" ry="0.0400" fill="currentColor"/>
</g>
<a style="color:inherit;" xlink:href="textedit:///Users/kapsitis/workspace-public/ddgatve-songs/songs-lt/lilypond/AntKalnoKarklaiSiubavo.ly:22:43:44">
<g transform="translate(14.4339, 17.6360)">
<path transform="scale(0.0040, -0.0040)" d="M218 136c66 0 108 -36 108 -89c0 -89 -113 -183 -218 -183c-66 0 -108 36 -108 89c0 89 113 183 218 183z" fill="currentColor"/>
</g>
</a>
<a style="color:inherit;" xlink:href="textedit:///Users/kapsitis/workspace-public/ddgatve-songs/songs-lt/lilypond/AntKalnoKarklaiSiubavo.ly:32:43:44">
<g transform="translate(14.4339, 18.6360)">
<path transform="scale(0.0040, -0.0040)" d="M218 136c66 0 108 -36 108 -89c0 -89 -113 -183 -218 -183c-66 0 -108 36 -108 89c0 89 113 183 218 183z" fill="currentColor"/>
</g>
</a>
<a style="color:inherit;" xlink:href="textedit:///Users/kapsitis/workspace-public/ddgatve-songs/songs-lt/lilypond/AntKalnoKarklaiSiubavo.ly:40:33:34">
<g transform="translate(13.9251, 23.8219)">
<text font-family="serif" font-size="2.4696" text-anchor="start" fill="currentColor">
<tspan>ba</tspan>
</text>
</g>
</a>
<g transform="translate(15.6731, 16.1360)">
<rect x="-0.0650" y="-2.0000" width="0.1300" height="3.3139" ry="0.0400" fill="currentColor"/>
</g>
<g transform="translate(14.4989, 16.1360)">
<rect x="-0.0650" y="2.6861" width="0.1300" height="2.3139" ry="0.0400" fill="currentColor"/>
</g>
<a style="color:inherit;" xlink:href="textedit:///Users/kapsitis/workspace-public/ddgatve-songs/songs-lt/lilypond/AntKalnoKarklaiSiubavo.ly:22:45:46">
<g transform="translate(23.0677, 18.1360)">
<path transform="scale(0.0040, -0.0040)" d="M314 65c0 23 -19 41 -42 41c-39 0 -204 -110 -231 -143c-7 -8 -10 -18 -10 -28c0 -23 19 -41 42 -41c39 0 203 110 230 143c7 8 11 18 11 28zM262 136c41 0 82 -14 82 -71c0 -26 -16 -112 -74 -151c-25 -17 -87 -50 -187 -50c-41 0 -83 14 -83 71c0 26 16 112 74 151
c25 17 88 50 188 50z" fill="currentColor"/>
</g>
</a>
<a style="color:inherit;" xlink:href="textedit:///Users/kapsitis/workspace-public/ddgatve-songs/songs-lt/lilypond/AntKalnoKarklaiSiubavo.ly:32:45:46">
<g transform="translate(23.0677, 19.1360)">
<path transform="scale(0.0040, -0.0040)" d="M314 65c0 23 -19 41 -42 41c-39 0 -204 -110 -231 -143c-7 -8 -10 -18 -10 -28c0 -23 19 -41 42 -41c39 0 203 110 230 143c7 8 11 18 11 28zM262 136c41 0 82 -14 82 -71c0 -26 -16 -112 -74 -151c-25 -17 -87 -50 -187 -50c-41 0 -83 14 -83 71c0 26 16 112 74 151
c25 17 88 50 188 50z" fill="currentColor"/>
</g>
</a>
<a style="color:inherit;" xlink:href="textedit:///Users/kapsitis/workspace-public/ddgatve-songs/songs-lt/lilypond/AntKalnoKarklaiSiubavo.ly:40:39:40">
<g transform="translate(22.2199, 23.8219)">
<text font-family="serif" font-size="2.4696" text-anchor="start" fill="currentColor">
<tspan>vo,</tspan>
</text>
</g>
</a>
<g transform="translate(24.3801, 16.1360)">
<rect x="-0.0650" y="-1.5000" width="0.1300" height="3.2410" ry="0.0400" fill="currentColor"/>
</g>
<g transform="translate(23.1327, 16.1360)">
<rect x="-0.0650" y="3.2590" width="0.1300" height="2.2410" ry="0.0400" fill="currentColor"/>
</g>
<a style="color:inherit;" xlink:href="textedit:///Users/kapsitis/workspace-public/ddgatve-songs/songs-lt/lilypond/AntKalnoKarklaiSiubavo.ly:41:8:9">
<g transform="translate(47.2267, 23.8219)">
<rect x="0.0000" y="-0.5500" width="0.6600" height="0.1300" ry="0.0400" fill="currentColor"/>
</g>
</a>
<a style="color:inherit;" xlink:href="textedit:///Users/kapsitis/workspace-public/ddgatve-songs/songs-lt/lilypond/AntKalnoKarklaiSiubavo.ly:24:0:1">
<g transform="translate(39.2196, 18.1360)">
<path transform="scale(0.0040, -0.0040)" d="M218 136c66 0 108 -36 108 -89c0 -89 -113 -183 -218 -183c-66 0 -108 36 -108 89c0 89 113 183 218 183z" fill="currentColor"/>
</g>
</a>
<a style="color:inherit;" xlink:href="textedit:///Users/kapsitis/workspace-public/ddgatve-songs/songs-lt/lilypond/AntKalnoKarklaiSiubavo.ly:34:0:1">
<g transform="translate(39.2196, 19.1360)">
<path transform="scale(0.0040, -0.0040)" d="M218 136c66 0 108 -36 108 -89c0 -89 -113 -183 -218 -183c-66 0 -108 36 -108 89c0 89 113 183 218 183z" fill="currentColor"/>
</g>
</a>
<a style="color:inherit;" xlink:href="textedit:///Users/kapsitis/workspace-public/ddgatve-songs/songs-lt/lilypond/AntKalnoKarklaiSiubavo.ly:41:0:1">
<g transform="translate(38.0280, 23.8219)">
<text font-family="serif" font-size="2.4696" text-anchor="start" fill="currentColor">
<tspan>Ant</tspan>
</text>
</g>
</a>
<g transform="translate(40.4588, 16.1360)">
<rect x="-0.0650" y="-1.5000" width="0.1300" height="3.3139" ry="0.0400" fill="currentColor"/>
</g>
<g transform="translate(40.5238, 14.6760)">
<path transform="scale(0.0040, -0.0040)" d="M0 0v-250h-16v250h16zM0 0c0 -197 207 -336 207 -533c0 -71 -15 -141 -41 -207c-5 -8 -13 -12 -20 -12c-13 0 -26 11 -23 27c26 61 42 126 42 192c0 103 -94 208 -165 283v250z" fill="currentColor"/>
</g>
<g transform="translate(39.2846, 16.1360)">
<rect x="-0.0650" y="3.1861" width="0.1300" height="2.8139" ry="0.0400" fill="currentColor"/>
</g>
<g transform="translate(39.3496, 22.0960)">
<path transform="scale(0.0040, -0.0040)" d="M0 0h-16v250h16v-250zM0 0v250c97 59 224 148 224 259c0 57 -15 112 -40 163c-3 16 10 27 23 27c7 0 15 -3 20 -11c25 -56 40 -117 40 -179c0 -203 -267 -306 -267 -509z" fill="currentColor"/>
</g>
<a style="color:inherit;" xlink:href="textedit:///Users/kapsitis/workspace-public/ddgatve-songs/songs-lt/lilypond/AntKalnoKarklaiSiubavo.ly:41:18:19">
<g transform="translate(57.0181, 23.8219)">
<rect x="0.0000" y="-0.5500" width="0.6600" height="0.1300" ry="0.0400" fill="currentColor"/>
</g>
</a>
<a style="color:inherit;" xlink:href="textedit:///Users/kapsitis/workspace-public/ddgatve-songs/songs-lt/lilypond/AntKalnoKarklaiSiubavo.ly:24:3:4">
<g transform="translate(44.2519, 18.1360)">
<path transform="scale(0.0040, -0.0040)" d="M218 136c66 0 108 -36 108 -89c0 -89 -113 -183 -218 -183c-66 0 -108 36 -108 89c0 89 113 183 218 183z" fill="currentColor"/>
</g>
</a>
<a style="color:inherit;" xlink:href="textedit:///Users/kapsitis/workspace-public/ddgatve-songs/songs-lt/lilypond/AntKalnoKarklaiSiubavo.ly:34:3:4">
<g transform="translate(44.2519, 19.1360)">
<path transform="scale(0.0040, -0.0040)" d="M218 136c66 0 108 -36 108 -89c0 -89 -113 -183 -218 -183c-66 0 -108 36 -108 89c0 89 113 183 218 183z" fill="currentColor"/>
</g>
</a>
<a style="color:inherit;" xlink:href="textedit:///Users/kapsitis/workspace-public/ddgatve-songs/songs-lt/lilypond/AntKalnoKarklaiSiubavo.ly:41:4:5">
<g transform="translate(43.4017, 23.8219)">
<text font-family="serif" font-size="2.4696" text-anchor="start" fill="currentColor">
<tspan>kal</tspan>
</text>
</g>
</a>
<g transform="translate(45.4911, 16.1360)">
<rect x="-0.0650" y="-1.5000" width="0.1300" height="3.3139" ry="0.0400" fill="currentColor"/>
</g>
<g transform="translate(45.5561, 14.6760)">
<path transform="scale(0.0040, -0.0040)" d="M0 0v-250h-16v250h16zM0 0c0 -197 207 -336 207 -533c0 -71 -15 -141 -41 -207c-5 -8 -13 -12 -20 -12c-13 0 -26 11 -23 27c26 61 42 126 42 192c0 103 -94 208 -165 283v250z" fill="currentColor"/>
</g>
<g transform="translate(44.3169, 16.1360)">
<rect x="-0.0650" y="3.1861" width="0.1300" height="2.8139" ry="0.0400" fill="currentColor"/>
</g>
<g transform="translate(44.3819, 22.0960)">
<path transform="scale(0.0040, -0.0040)" d="M0 0h-16v250h16v-250zM0 0v250c97 59 224 148 224 259c0 57 -15 112 -40 163c-3 16 10 27 23 27c7 0 15 -3 20 -11c25 -56 40 -117 40 -179c0 -203 -267 -306 -267 -509z" fill="currentColor"/>
</g>
<a style="color:inherit;" xlink:href="textedit:///Users/kapsitis/workspace-public/ddgatve-songs/songs-lt/lilypond/AntKalnoKarklaiSiubavo.ly:24:5:6">
<g transform="translate(49.2841, 18.1360)">
<path transform="scale(0.0040, -0.0040)" d="M218 136c66 0 108 -36 108 -89c0 -89 -113 -183 -218 -183c-66 0 -108 36 -108 89c0 89 113 183 218 183z" fill="currentColor"/>
</g>
</a>
<a style="color:inherit;" xlink:href="textedit:///Users/kapsitis/workspace-public/ddgatve-songs/songs-lt/lilypond/AntKalnoKarklaiSiubavo.ly:34:5:6">
<g transform="translate(49.2841, 19.1360)">
<path transform="scale(0.0040, -0.0040)" d="M218 136c66 0 108 -36 108 -89c0 -89 -113 -183 -218 -183c-66 0 -108 36 -108 89c0 89 113 183 218 183z" fill="currentColor"/>
</g>
</a>
<a style="color:inherit;" xlink:href="textedit:///Users/kapsitis/workspace-public/ddgatve-songs/songs-lt/lilypond/AntKalnoKarklaiSiubavo.ly:41:11:12">
<g transform="translate(48.7071, 23.8219)">
<text font-family="serif" font-size="2.4696" text-anchor="start" fill="currentColor">
<tspan>no</tspan>
</text>
</g>
</a>
<g transform="translate(50.5233, 16.1360)">
<rect x="-0.0650" y="-1.5000" width="0.1300" height="3.3139" ry="0.0400" fill="currentColor"/>
</g>
<g transform="translate(50.5883, 14.6760)">
<path transform="scale(0.0040, -0.0040)" d="M0 0v-250h-16v250h16zM0 0c0 -197 207 -336 207 -533c0 -71 -15 -141 -41 -207c-5 -8 -13 -12 -20 -12c-13 0 -26 11 -23 27c26 61 42 126 42 192c0 103 -94 208 -165 283v250z" fill="currentColor"/>
</g>
<g transform="translate(49.3491, 16.1360)">
<rect x="-0.0650" y="3.1861" width="0.1300" height="2.8139" ry="0.0400" fill="currentColor"/>
</g>
<g transform="translate(49.4141, 22.0960)">
<path transform="scale(0.0040, -0.0040)" d="M0 0h-16v250h16v-250zM0 0v250c97 59 224 148 224 259c0 57 -15 112 -40 163c-3 16 10 27 23 27c7 0 15 -3 20 -11c25 -56 40 -117 40 -179c0 -203 -267 -306 -267 -509z" fill="currentColor"/>
</g>
<a style="color:inherit;" xlink:href="textedit:///Users/kapsitis/workspace-public/ddgatve-songs/songs-lt/lilypond/AntKalnoKarklaiSiubavo.ly:41:30:31">
<g transform="translate(67.3557, 23.8219)">
<rect x="0.0000" y="-0.5500" width="0.6600" height="0.1300" ry="0.0400" fill="currentColor"/>
</g>
</a>
<a style="color:inherit;" xlink:href="textedit:///Users/kapsitis/workspace-public/ddgatve-songs/songs-lt/lilypond/AntKalnoKarklaiSiubavo.ly:24:7:8">
<g transform="translate(54.3164, 17.6360)">
<path transform="scale(0.0040, -0.0040)" d="M218 136c66 0 108 -36 108 -89c0 -89 -113 -183 -218 -183c-66 0 -108 36 -108 89c0 89 113 183 218 183z" fill="currentColor"/>
</g>
</a>
<a style="color:inherit;" xlink:href="textedit:///Users/kapsitis/workspace-public/ddgatve-songs/songs-lt/lilypond/AntKalnoKarklaiSiubavo.ly:34:7:8">
<g transform="translate(54.3164, 18.6360)">
<path transform="scale(0.0040, -0.0040)" d="M218 136c66 0 108 -36 108 -89c0 -89 -113 -183 -218 -183c-66 0 -108 36 -108 89c0 89 113 183 218 183z" fill="currentColor"/>
</g>
</a>
<a style="color:inherit;" xlink:href="textedit:///Users/kapsitis/workspace-public/ddgatve-songs/songs-lt/lilypond/AntKalnoKarklaiSiubavo.ly:41:14:15">
<g transform="translate(53.3979, 23.8219)">
<text font-family="serif" font-size="2.4696" text-anchor="start" fill="currentColor">
<tspan>kar</tspan>
</text>
</g>
</a>
<g transform="translate(55.5556, 16.1360)">
<rect x="-0.0650" y="-2.0000" width="0.1300" height="3.3139" ry="0.0400" fill="currentColor"/>
</g>
<g transform="translate(55.6206, 14.1760)">
<path transform="scale(0.0040, -0.0040)" d="M0 0v-250h-16v250h16zM0 0c0 -197 207 -336 207 -533c0 -71 -15 -141 -41 -207c-5 -8 -13 -12 -20 -12c-13 0 -26 11 -23 27c26 61 42 126 42 192c0 103 -94 208 -165 283v250z" fill="currentColor"/>
</g>
<g transform="translate(54.3814, 16.1360)">
<rect x="-0.0650" y="2.6861" width="0.1300" height="2.8139" ry="0.0400" fill="currentColor"/>
</g>
<g transform="translate(54.4464, 21.5960)">
<path transform="scale(0.0040, -0.0040)" d="M0 0h-16v250h16v-250zM0 0v250c97 59 224 148 224 259c0 57 -15 112 -40 163c-3 16 10 27 23 27c7 0 15 -3 20 -11c25 -56 40 -117 40 -179c0 -203 -267 -306 -267 -509z" fill="currentColor"/>
</g>
<a style="color:inherit;" xlink:href="textedit:///Users/kapsitis/workspace-public/ddgatve-songs/songs-lt/lilypond/AntKalnoKarklaiSiubavo.ly:41:36:37">
<g transform="translate(72.0636, 23.8219)">
<rect x="0.0000" y="-0.5500" width="0.6600" height="0.1300" ry="0.0400" fill="currentColor"/>
</g>
</a>
<a style="color:inherit;" xlink:href="textedit:///Users/kapsitis/workspace-public/ddgatve-songs/songs-lt/lilypond/AntKalnoKarklaiSiubavo.ly:24:9:10">
<g transform="translate(59.3487, 17.1360)">
<path transform="scale(0.0040, -0.0040)" d="M218 136c66 0 108 -36 108 -89c0 -89 -113 -183 -218 -183c-66 0 -108 36 -108 89c0 89 113 183 218 183z" fill="currentColor"/>
</g>
</a>
<a style="color:inherit;" xlink:href="textedit:///Users/kapsitis/workspace-public/ddgatve-songs/songs-lt/lilypond/AntKalnoKarklaiSiubavo.ly:34:9:10">
<g transform="translate(59.3487, 18.1360)">
<path transform="scale(0.0040, -0.0040)" d="M218 136c66 0 108 -36 108 -89c0 -89 -113 -183 -218 -183c-66 0 -108 36 -108 89c0 89 113 183 218 183z" fill="currentColor"/>
</g>
</a>
<a style="color:inherit;" xlink:href="textedit:///Users/kapsitis/workspace-public/ddgatve-songs/songs-lt/lilypond/AntKalnoKarklaiSiubavo.ly:41:21:22">
<g transform="translate(58.1570, 23.8219)">
<text font-family="serif" font-size="2.4696" text-anchor="start" fill="currentColor">
<tspan>klai</tspan>
</text>
</g>
</a>
<g transform="translate(60.5879, 16.1360)">
<rect x="-0.0650" y="-2.5000" width="0.1300" height="3.3139" ry="0.0400" fill="currentColor"/>
</g>
<g transform="translate(60.6529, 13.6760)">
<path transform="scale(0.0040, -0.0040)" d="M0 0v-250h-16v250h16zM0 0c0 -197 207 -336 207 -533c0 -71 -15 -141 -41 -207c-5 -8 -13 -12 -20 -12c-13 0 -26 11 -23 27c26 61 42 126 42 192c0 103 -94 208 -165 283v250z" fill="currentColor"/>
</g>
<g transform="translate(59.4137, 16.1360)">
<rect x="-0.0650" y="2.1861" width="0.1300" height="2.8139" ry="0.0400" fill="currentColor"/>
</g>
<g transform="translate(59.4787, 21.0960)">
<path transform="scale(0.0040, -0.0040)" d="M0 0h-16v250h16v-250zM0 0v250c97 59 224 148 224 259c0 57 -15 112 -40 163c-3 16 10 27 23 27c7 0 15 -3 20 -11c25 -56 40 -117 40 -179c0 -203 -267 -306 -267 -509z" fill="currentColor"/>
</g>
<a style="color:inherit;" xlink:href="textedit:///Users/kapsitis/workspace-public/ddgatve-songs/songs-lt/lilypond/AntKalnoKarklaiSiubavo.ly:24:11:12">
<g transform="translate(64.3809, 17.1360)">
<path transform="scale(0.0040, -0.0040)" d="M218 136c66 0 108 -36 108 -89c0 -89 -113 -183 -218 -183c-66 0 -108 36 -108 89c0 89 113 183 218 183z" fill="currentColor"/>
</g>
</a>
<a style="color:inherit;" xlink:href="textedit:///Users/kapsitis/workspace-public/ddgatve-songs/songs-lt/lilypond/AntKalnoKarklaiSiubavo.ly:34:11:12">
<g transform="translate(64.3809, 18.1360)">
<path transform="scale(0.0040, -0.0040)" d="M218 136c66 0 108 -36 108 -89c0 -89 -113 -183 -218 -183c-66 0 -108 36 -108 89c0 89 113 183 218 183z" fill="currentColor"/>
</g>
</a>
<a style="color:inherit;" xlink:href="textedit:///Users/kapsitis/workspace-public/ddgatve-songs/songs-lt/lilypond/AntKalnoKarklaiSiubavo.ly:41:26:27">
<g transform="translate(63.5990, 23.8219)">
<text font-family="serif" font-size="2.4696" text-anchor="start" fill="currentColor">
<tspan>siū</tspan>
</text>
</g>
</a>
<g transform="translate(65.6201, 16.1360)">
<rect x="-0.0650" y="-2.5000" width="0.1300" height="3.3139" ry="0.0400" fill="currentColor"/>
</g>
<g transform="translate(65.6851, 13.6760)">
<path transform="scale(0.0040, -0.0040)" d="M0 0v-250h-16v250h16zM0 0c0 -197 207 -336 207 -533c0 -71 -15 -141 -41 -207c-5 -8 -13 -12 -20 -12c-13 0 -26 11 -23 27c26 61 42 126 42 192c0 103 -94 208 -165 283v250z" fill="currentColor"/>
</g>
<g transform="translate(64.4459, 16.1360)">
<rect x="-0.0650" y="2.1861" width="0.1300" height="2.8139" ry="0.0400" fill="currentColor"/>
</g>
<g transform="translate(64.5109, 21.0960)">
<path transform="scale(0.0040, -0.0040)" d="M0 0h-16v250h16v-250zM0 0v250c97 59 224 148 224 259c0 57 -15 112 -40 163c-3 16 10 27 23 27c7 0 15 -3 20 -11c25 -56 40 -117 40 -179c0 -203 -267 -306 -267 -509z" fill="currentColor"/>
</g>
<a style="color:inherit;" xlink:href="textedit:///Users/kapsitis/workspace-public/ddgatve-songs/songs-lt/lilypond/AntKalnoKarklaiSiubavo.ly:24:13:14">
<g transform="translate(69.4132, 17.6360)">
<path transform="scale(0.0040, -0.0040)" d="M218 136c66 0 108 -36 108 -89c0 -89 -113 -183 -218 -183c-66 0 -108 36 -108 89c0 89 113 183 218 183z" fill="currentColor"/>
</g>
</a>
<a style="color:inherit;" xlink:href="textedit:///Users/kapsitis/workspace-public/ddgatve-songs/songs-lt/lilypond/AntKalnoKarklaiSiubavo.ly:34:13:14">
<g transform="translate(69.4132, 18.6360)">
<path transform="scale(0.0040, -0.0040)" d="M218 136c66 0 108 -36 108 -89c0 -89 -113 -183 -218 -183c-66 0 -108 36 -108 89c0 89 113 183 218 183z" fill="currentColor"/>
</g>
</a>
<a style="color:inherit;" xlink:href="textedit:///Users/kapsitis/workspace-public/ddgatve-songs/songs-lt/lilypond/AntKalnoKarklaiSiubavo.ly:41:33:34">
<g transform="translate(68.9044, 23.8219)">
<text font-family="serif" font-size="2.4696" text-anchor="start" fill="currentColor">
<tspan>ba</tspan>
</text>
</g>
</a>
<g transform="translate(70.6524, 16.1360)">
<rect x="-0.0650" y="-2.0000" width="0.1300" height="3.3139" ry="0.0400" fill="currentColor"/>
</g>
<g transform="translate(70.7174, 14.1760)">
<path transform="scale(0.0040, -0.0040)" d="M0 0v-250h-16v250h16zM0 0c0 -197 207 -336 207 -533c0 -71 -15 -141 -41 -207c-5 -8 -13 -12 -20 -12c-13 0 -26 11 -23 27c26 61 42 126 42 192c0 103 -94 208 -165 283v250z" fill="currentColor"/>
</g>
<g transform="translate(69.4782, 16.1360)">
<rect x="-0.0650" y="2.6861" width="0.1300" height="2.8139" ry="0.0400" fill="currentColor"/>
</g>
<g transform="translate(69.5432, 21.5960)">
<path transform="scale(0.0040, -0.0040)" d="M0 0h-16v250h16v-250zM0 0v250c97 59 224 148 224 259c0 57 -15 112 -40 163c-3 16 10 27 23 27c7 0 15 -3 20 -11c25 -56 40 -117 40 -179c0 -203 -267 -306 -267 -509z" fill="currentColor"/>
</g>
<a style="color:inherit;" xlink:href="textedit:///Users/kapsitis/workspace-public/ddgatve-songs/songs-lt/lilypond/AntKalnoKarklaiSiubavo.ly:24:15:16">
<g transform="translate(74.4455, 18.1360)">
<path transform="scale(0.0040, -0.0040)" d="M218 136c66 0 108 -36 108 -89c0 -89 -113 -183 -218 -183c-66 0 -108 36 -108 89c0 89 113 183 218 183z" fill="currentColor"/>
</g>
</a>
<a style="color:inherit;" xlink:href="textedit:///Users/kapsitis/workspace-public/ddgatve-songs/songs-lt/lilypond/AntKalnoKarklaiSiubavo.ly:34:15:16">
<g transform="translate(74.4455, 19.1360)">
<path transform="scale(0.0040, -0.0040)" d="M218 136c66 0 108 -36 108 -89c0 -89 -113 -183 -218 -183c-66 0 -108 36 -108 89c0 89 113 183 218 183z" fill="currentColor"/>
</g>
</a>
<a style="color:inherit;" xlink:href="textedit:///Users/kapsitis/workspace-public/ddgatve-songs/songs-lt/lilypond/AntKalnoKarklaiSiubavo.ly:41:39:40">
<g transform="translate(73.5611, 23.8219)">
<text font-family="serif" font-size="2.4696" text-anchor="start" fill="currentColor">
<tspan>vo,</tspan>
</text>
</g>
</a>
<g transform="translate(75.6847, 16.1360)">
<rect x="-0.0650" y="-1.5000" width="0.1300" height="3.3139" ry="0.0400" fill="currentColor"/>
</g>
<g transform="translate(75.7497, 14.6760)">
<path transform="scale(0.0040, -0.0040)" d="M0 0v-250h-16v250h16zM0 0c0 -197 207 -336 207 -533c0 -71 -15 -141 -41 -207c-5 -8 -13 -12 -20 -12c-13 0 -26 11 -23 27c26 61 42 126 42 192c0 103 -94 208 -165 283v250z" fill="currentColor"/>
</g>
<g transform="translate(74.5105, 16.1360)">
<rect x="-0.0650" y="3.1861" width="0.1300" height="2.8139" ry="0.0400" fill="currentColor"/>
</g>
<g transform="translate(74.5755, 22.0960)">
<path transform="scale(0.0040, -0.0040)" d="M0 0h-16v250h16v-250zM0 0v250c97 59 224 148 224 259c0 57 -15 112 -40 163c-3 16 10 27 23 27c7 0 15 -3 20 -11c25 -56 40 -117 40 -179c0 -203 -267 -306 -267 -509z" fill="currentColor"/>
</g>
<g transform="translate(0.0000, 31.4835)">
<rect x="69.9755" y="-0.1000" width="2.0660" height="0.2000" ry="0.1000" fill="currentColor"/>
</g>
<g transform="translate(0.0000, 31.4835)">
<rect x="52.3424" y="-0.1000" width="1.9563" height="0.2000" ry="0.1000" fill="currentColor"/>
</g>
<g transform="translate(0.0000, 31.4835)">
<rect x="34.9732" y="-0.1000" width="1.9563" height="0.2000" ry="0.1000" fill="currentColor"/>
</g>
<g transform="translate(0.0000, 31.4835)">
<rect x="30.1560" y="-0.1000" width="1.9563" height="0.2000" ry="0.1000" fill="currentColor"/>
</g>
<g transform="translate(0.0000, 31.4835)">
<rect x="26.7450" y="-0.1000" width="1.9563" height="0.2000" ry="0.1000" fill="currentColor"/>
</g>
<g transform="translate(0.0000, 31.4835)">
<rect x="16.0236" y="-0.1000" width="1.9563" height="0.2000" ry="0.1000" fill="currentColor"/>
</g>
<g transform="translate(0.0000, 31.4835)">
<rect x="12.2959" y="-0.1000" width="1.9563" height="0.2000" ry="0.1000" fill="currentColor"/>
</g>
<g transform="translate(0.0000, 31.4835)">
<rect x="8.8849" y="-0.1000" width="1.9563" height="0.2000" ry="0.1000" fill="currentColor"/>
</g>
<g transform="translate(0.0000, 31.4835)">
<rect x="5.4739" y="-0.1000" width="1.9563" height="0.2000" ry="0.1000" fill="currentColor"/>
</g>
<g transform="translate(0.0000, 30.4835)">
<line stroke-linejoin="round" stroke-linecap="round" stroke-width="0.1000" stroke="currentColor" x1="0.0500" y1="0" x2="79.6177" y2="0"/>
</g>
<g transform="translate(0.0000, 29.4835)">
<line stroke-linejoin="round" stroke-linecap="round" stroke-width="0.1000" stroke="currentColor" x1="0.0500" y1="0" x2="79.6177" y2="0"/>
</g>
<g transform="translate(0.0000, 28.4835)">
<line stroke-linejoin="round" stroke-linecap="round" stroke-width="0.1000" stroke="currentColor" x1="0.0500" y1="0" x2="79.6177" y2="0"/>
</g>
<g transform="translate(0.0000, 27.4835)">
<line stroke-linejoin="round" stroke-linecap="round" stroke-width="0.1000" stroke="currentColor" x1="0.0500" y1="0" x2="79.6177" y2="0"/>
</g>
<g transform="translate(0.0000, 26.4835)">
<line stroke-linejoin="round" stroke-linecap="round" stroke-width="0.1000" stroke="currentColor" x1="0.0500" y1="0" x2="79.6177" y2="0"/>
</g>
<g transform="translate(56.0162, 28.4835)">
<rect x="0.0000" y="-2.0000" width="0.1900" height="4.0000" ry="0.0000" fill="currentColor"/>
</g>
<g transform="translate(33.8930, 28.4835)">
<rect x="0.0000" y="-2.0000" width="0.1900" height="4.0000" ry="0.0000" fill="currentColor"/>
</g>
<g transform="translate(77.8277, 27.9835)">
<path transform="scale(0.0040, -0.0040)" d="M0 0c0 31 25 56 56 56s56 -25 56 -56s-25 -56 -56 -56s-56 25 -56 56z" fill="currentColor"/>
</g>
<g transform="translate(77.8277, 28.9835)">
<path transform="scale(0.0040, -0.0040)" d="M0 0c0 31 25 56 56 56s56 -25 56 -56s-25 -56 -56 -56s-56 25 -56 56z" fill="currentColor"/>
</g>
<g transform="translate(79.0677, 28.4835)">
<rect x="0.0000" y="-2.0000" width="0.6000" height="4.0000" ry="0.0000" fill="currentColor"/>
</g>
<g transform="translate(78.5777, 28.4835)">
<rect x="0.0000" y="-2.0000" width="0.1900" height="4.0000" ry="0.0000" fill="currentColor"/>
</g>
<a style="color:inherit;" xlink:href="textedit:///Users/kapsitis/workspace-public/ddgatve-songs/songs-lt/lilypond/AntKalnoKarklaiSiubavo.ly:42:3:4">
<g transform="translate(7.7513, 37.1187)">
<rect x="0.0000" y="-0.5500" width="0.5395" height="0.1300" ry="0.0400" fill="currentColor"/>
</g>
</a>
<g transform="translate(-0.8877, 25.4131)">
<text font-family="serif" font-size="1.7461" text-anchor="start" fill="currentColor">
<tspan>6</tspan>
</text>
</g>
<g transform="translate(0.8000, 29.4835)">
<path transform="scale(0.0040, -0.0040)" d="M266 -635h-6c-108 0 -195 88 -195 197c0 58 53 103 112 103c54 0 95 -47 95 -103c0 -52 -43 -95 -95 -95c-11 0 -21 2 -31 6c26 -39 68 -65 117 -65h4zM461 -203c68 24 113 90 113 164c0 90 -66 179 -173 190c19 -89 48 -242 60 -354zM74 28c0 -145 141 -247 264 -247
c1 0 47 0 82 6c-7 64 -29 203 -63 364c-79 -8 -124 -61 -124 -119c0 -44 25 -91 81 -123c5 -5 7 -10 7 -15c0 -11 -10 -22 -22 -22c-15 0 -126 62 -126 187c0 88 58 174 160 197c-14 58 -29 117 -46 175c-107 -121 -213 -243 -213 -403zM250 553c-29 96 -52 170 -52 346
c0 115 55 224 149 292c6 5 14 5 20 0c68 -80 133 -245 133 -358c0 -143 -86 -255 -180 -364c21 -68 39 -138 56 -207c2 0 7 1 13 1c155 0 256 -128 256 -261c0 -113 -74 -212 -180 -246c3 -35 5 -70 5 -105c0 -19 -1 -39 -2 -58c-7 -119 -88 -225 -202 -228l1 43
c93 2 153 92 159 191c1 18 2 37 2 55c0 31 -1 61 -4 92c-5 -1 -44 -8 -89 -8c-193 0 -333 180 -333 374c0 177 131 306 248 441zM428 916c0 34 1 66 -20 129c-99 -48 -162 -149 -162 -259c0 -52 12 -115 36 -194c80 97 146 198 146 324z" fill="currentColor"/>
</g>
<a style="color:inherit;" xlink:href="textedit:///Users/kapsitis/workspace-public/ddgatve-songs/songs-lt/lilypond/AntKalnoKarklaiSiubavo.ly:42:10:11">
<g transform="translate(11.4186, 37.1187)">
<rect x="0.0000" y="-0.5500" width="0.3000" height="0.1300" ry="0.0400" fill="currentColor"/>
</g>
</a>
<g transform="translate(10.5152, 27.5235)">
<path transform="scale(0.0040, -0.0040)" d="M0 0v-250h-16v250h16zM0 0c0 -197 207 -336 207 -533c0 -71 -15 -141 -41 -207c-5 -8 -13 -12 -20 -12c-13 0 -26 11 -23 27c26 61 42 126 42 192c0 103 -94 208 -165 283v250z" fill="currentColor"/>
</g>
<g transform="translate(10.4502, 28.4835)">
<rect x="-0.0650" y="-1.0000" width="0.1300" height="3.3139" ry="0.0400" fill="currentColor"/>
</g>
<a style="color:inherit;" xlink:href="textedit:///Users/kapsitis/workspace-public/ddgatve-songs/songs-lt/lilypond/AntKalnoKarklaiSiubavo.ly:42:6:7">
<g transform="translate(8.3608, 37.1187)">
<text font-family="serif" font-size="2.4696" text-anchor="start" fill="currentColor">
<tspan>kal</tspan>
</text>
</g>
</a>
<a style="color:inherit;" xlink:href="textedit:///Users/kapsitis/workspace-public/ddgatve-songs/songs-lt/lilypond/AntKalnoKarklaiSiubavo.ly:34:22:23">
<g transform="translate(9.2110, 31.9835)">
<path transform="scale(0.0040, -0.0040)" d="M218 136c66 0 108 -36 108 -89c0 -89 -113 -183 -218 -183c-66 0 -108 36 -108 89c0 89 113 183 218 183z" fill="currentColor"/>
</g>
</a>
<g transform="translate(5.9300, 34.9435)">
<path transform="scale(0.0040, -0.0040)" d="M0 0h-16v250h16v-250zM0 0v250c97 59 224 148 224 259c0 57 -15 112 -40 163c-3 16 10 27 23 27c7 0 15 -3 20 -11c25 -56 40 -117 40 -179c0 -203 -267 -306 -267 -509z" fill="currentColor"/>
</g>
<a style="color:inherit;" xlink:href="textedit:///Users/kapsitis/workspace-public/ddgatve-songs/songs-lt/lilypond/AntKalnoKarklaiSiubavo.ly:24:22:23">
<g transform="translate(9.2110, 30.9835)">
<path transform="scale(0.0040, -0.0040)" d="M218 136c66 0 108 -36 108 -89c0 -89 -113 -183 -218 -183c-66 0 -108 36 -108 89c0 89 113 183 218 183z" fill="currentColor"/>
</g>
</a>
<g transform="translate(5.8650, 28.4835)">
<rect x="-0.0650" y="3.6861" width="0.1300" height="2.8139" ry="0.0400" fill="currentColor"/>
</g>
<g transform="translate(7.1042, 27.5235)">
<path transform="scale(0.0040, -0.0040)" d="M0 0v-250h-16v250h16zM0 0c0 -197 207 -336 207 -533c0 -71 -15 -141 -41 -207c-5 -8 -13 -12 -20 -12c-13 0 -26 11 -23 27c26 61 42 126 42 192c0 103 -94 208 -165 283v250z" fill="currentColor"/>
</g>
<g transform="translate(7.0392, 28.4835)">
<rect x="-0.0650" y="-1.0000" width="0.1300" height="3.3139" ry="0.0400" fill="currentColor"/>
</g>
<a style="color:inherit;" xlink:href="textedit:///Users/kapsitis/workspace-public/ddgatve-songs/songs-lt/lilypond/AntKalnoKarklaiSiubavo.ly:42:0:1">
<g transform="translate(5.2229, 37.1187)">
<text font-family="serif" font-size="2.4696" text-anchor="start" fill="currentColor">
<tspan>Pa</tspan>
</text>
</g>
</a>
<g transform="translate(9.2760, 28.4835)">
<rect x="-0.0650" y="3.6861" width="0.1300" height="2.8139" ry="0.0400" fill="currentColor"/>
</g>
<g transform="translate(9.3410, 34.9435)">
<path transform="scale(0.0040, -0.0040)" d="M0 0h-16v250h16v-250zM0 0v250c97 59 224 148 224 259c0 57 -15 112 -40 163c-3 16 10 27 23 27c7 0 15 -3 20 -11c25 -56 40 -117 40 -179c0 -203 -267 -306 -267 -509z" fill="currentColor"/>
</g>
<a style="color:inherit;" xlink:href="textedit:///Users/kapsitis/workspace-public/ddgatve-songs/songs-lt/lilypond/AntKalnoKarklaiSiubavo.ly:34:19:20">
<g transform="translate(5.8000, 31.9835)">
<path transform="scale(0.0040, -0.0040)" d="M218 136c66 0 108 -36 108 -89c0 -89 -113 -183 -218 -183c-66 0 -108 36 -108 89c0 89 113 183 218 183z" fill="currentColor"/>
</g>
</a>
<a style="color:inherit;" xlink:href="textedit:///Users/kapsitis/workspace-public/ddgatve-songs/songs-lt/lilypond/AntKalnoKarklaiSiubavo.ly:24:24:25">
<g transform="translate(12.6219, 30.9835)">
<path transform="scale(0.0040, -0.0040)" d="M218 136c66 0 108 -36 108 -89c0 -89 -113 -183 -218 -183c-66 0 -108 36 -108 89c0 89 113 183 218 183z" fill="currentColor"/>
</g>
</a>
<a style="color:inherit;" xlink:href="textedit:///Users/kapsitis/workspace-public/ddgatve-songs/songs-lt/lilypond/AntKalnoKarklaiSiubavo.ly:34:24:25">
<g transform="translate(12.6219, 31.9835)">
<path transform="scale(0.0040, -0.0040)" d="M218 136c66 0 108 -36 108 -89c0 -89 -113 -183 -218 -183c-66 0 -108 36 -108 89c0 89 113 183 218 183z" fill="currentColor"/>
</g>
</a>
<a style="color:inherit;" xlink:href="textedit:///Users/kapsitis/workspace-public/ddgatve-songs/songs-lt/lilypond/AntKalnoKarklaiSiubavo.ly:42:13:14">
<g transform="translate(11.7717, 37.1187)">
<text font-family="serif" font-size="2.4696" text-anchor="start" fill="currentColor">
<tspan>nėj</tspan>
</text>
</g>
</a>
<g transform="translate(13.8611, 28.4835)">
<rect x="-0.0650" y="-1.0000" width="0.1300" height="3.3139" ry="0.0400" fill="currentColor"/>
</g>
<g transform="translate(13.9261, 27.5235)">
<path transform="scale(0.0040, -0.0040)" d="M0 0v-250h-16v250h16zM0 0c0 -197 207 -336 207 -533c0 -71 -15 -141 -41 -207c-5 -8 -13 -12 -20 -12c-13 0 -26 11 -23 27c26 61 42 126 42 192c0 103 -94 208 -165 283v250z" fill="currentColor"/>
</g>
<g transform="translate(12.6869, 28.4835)">
<rect x="-0.0650" y="3.6861" width="0.1300" height="2.8139" ry="0.0400" fill="currentColor"/>
</g>
<g transform="translate(12.7519, 34.9435)">
<path transform="scale(0.0040, -0.0040)" d="M0 0h-16v250h16v-250zM0 0v250c97 59 224 148 224 259c0 57 -15 112 -40 163c-3 16 10 27 23 27c7 0 15 -3 20 -11c25 -56 40 -117 40 -179c0 -203 -267 -306 -267 -509z" fill="currentColor"/>
</g>
<a style="color:inherit;" xlink:href="textedit:///Users/kapsitis/workspace-public/ddgatve-songs/songs-lt/lilypond/AntKalnoKarklaiSiubavo.ly:24:26:27">
<g transform="translate(16.3497, 30.4835)">
<path transform="scale(0.0040, -0.0040)" d="M218 136c66 0 108 -36 108 -89c0 -89 -113 -183 -218 -183c-66 0 -108 36 -108 89c0 89 113 183 218 183z" fill="currentColor"/>
</g>
</a>
<a style="color:inherit;" xlink:href="textedit:///Users/kapsitis/workspace-public/ddgatve-songs/songs-lt/lilypond/AntKalnoKarklaiSiubavo.ly:34:26:27">
<g transform="translate(16.3497, 31.4835)">
<path transform="scale(0.0040, -0.0040)" d="M218 136c66 0 108 -36 108 -89c0 -89 -113 -183 -218 -183c-66 0 -108 36 -108 89c0 89 113 183 218 183z" fill="currentColor"/>
</g>
</a>
<a style="color:inherit;" xlink:href="textedit:///Users/kapsitis/workspace-public/ddgatve-songs/songs-lt/lilypond/AntKalnoKarklaiSiubavo.ly:42:17:18">
<g transform="translate(15.2263, 37.1187)">
<text font-family="serif" font-size="2.4696" text-anchor="start" fill="currentColor">
<tspan>van</tspan>
</text>
</g>
</a>
<g transform="translate(17.5889, 28.4835)">
<rect x="-0.0650" y="-1.5000" width="0.1300" height="3.3139" ry="0.0400" fill="currentColor"/>
</g>
<g transform="translate(17.6539, 27.0235)">
<path transform="scale(0.0040, -0.0040)" d="M0 0v-250h-16v250h16zM0 0c0 -197 207 -336 207 -533c0 -71 -15 -141 -41 -207c-5 -8 -13 -12 -20 -12c-13 0 -26 11 -23 27c26 61 42 126 42 192c0 103 -94 208 -165 283v250z" fill="currentColor"/>
</g>
<g transform="translate(16.4147, 28.4835)">
<rect x="-0.0650" y="3.1861" width="0.1300" height="2.8139" ry="0.0400" fill="currentColor"/>
</g>
<g transform="translate(16.4797, 34.4435)">
<path transform="scale(0.0040, -0.0040)" d="M0 0h-16v250h16v-250zM0 0v250c97 59 224 148 224 259c0 57 -15 112 -40 163c-3 16 10 27 23 27c7 0 15 -3 20 -11c25 -56 40 -117 40 -179c0 -203 -267 -306 -267 -509z" fill="currentColor"/>
</g>
<a style="color:inherit;" xlink:href="textedit:///Users/kapsitis/workspace-public/ddgatve-songs/songs-lt/lilypond/AntKalnoKarklaiSiubavo.ly:24:19:20">
<g transform="translate(5.8000, 30.9835)">
<path transform="scale(0.0040, -0.0040)" d="M218 136c66 0 108 -36 108 -89c0 -89 -113 -183 -218 -183c-66 0 -108 36 -108 89c0 89 113 183 218 183z" fill="currentColor"/>
</g>
</a>
<a style="color:inherit;" xlink:href="textedit:///Users/kapsitis/workspace-public/ddgatve-songs/songs-lt/lilypond/AntKalnoKarklaiSiubavo.ly:42:32:33">
<g transform="translate(25.7218, 37.1187)">
<rect x="0.0000" y="-0.5500" width="0.6600" height="0.1300" ry="0.0400" fill="currentColor"/>
</g>
</a>
<a style="color:inherit;" xlink:href="textedit:///Users/kapsitis/workspace-public/ddgatve-songs/songs-lt/lilypond/AntKalnoKarklaiSiubavo.ly:24:28:29">
<g transform="translate(20.0689, 29.9835)">
<path transform="scale(0.0040, -0.0040)" d="M218 136c66 0 108 -36 108 -89c0 -89 -113 -183 -218 -183c-66 0 -108 36 -108 89c0 89 113 183 218 183z" fill="currentColor"/>
</g>
</a>
<a style="color:inherit;" xlink:href="textedit:///Users/kapsitis/workspace-public/ddgatve-songs/songs-lt/lilypond/AntKalnoKarklaiSiubavo.ly:34:28:29">
<g transform="translate(20.0689, 30.9835)">
<path transform="scale(0.0040, -0.0040)" d="M218 136c66 0 108 -36 108 -89c0 -89 -113 -183 -218 -183c-66 0 -108 36 -108 89c0 89 113 183 218 183z" fill="currentColor"/>
</g>
</a>
<a style="color:inherit;" xlink:href="textedit:///Users/kapsitis/workspace-public/ddgatve-songs/songs-lt/lilypond/AntKalnoKarklaiSiubavo.ly:42:24:25">
<g transform="translate(18.8773, 37.1187)">
<text font-family="serif" font-size="2.4696" text-anchor="start" fill="currentColor">
<tspan>duo</tspan>
</text>
</g>
</a>
<g transform="translate(21.3081, 28.4835)">
<rect x="-0.0650" y="-2.0000" width="0.1300" height="3.3139" ry="0.0400" fill="currentColor"/>
</g>
<g transform="translate(21.3731, 26.5235)">
<path transform="scale(0.0040, -0.0040)" d="M0 0v-250h-16v250h16zM0 0c0 -197 207 -336 207 -533c0 -71 -15 -141 -41 -207c-5 -8 -13 -12 -20 -12c-13 0 -26 11 -23 27c26 61 42 126 42 192c0 103 -94 208 -165 283v250z" fill="currentColor"/>
</g>
<g transform="translate(20.1339, 28.4835)">
<rect x="-0.0650" y="2.6861" width="0.1300" height="2.8139" ry="0.0400" fill="currentColor"/>
</g>
<g transform="translate(20.1989, 33.9435)">
<path transform="scale(0.0040, -0.0040)" d="M0 0h-16v250h16v-250zM0 0v250c97 59 224 148 224 259c0 57 -15 112 -40 163c-3 16 10 27 23 27c7 0 15 -3 20 -11c25 -56 40 -117 40 -179c0 -203 -267 -306 -267 -509z" fill="currentColor"/>
</g>
<a style="color:inherit;" xlink:href="textedit:///Users/kapsitis/workspace-public/ddgatve-songs/songs-lt/lilypond/AntKalnoKarklaiSiubavo.ly:42:39:40">
<g transform="translate(29.0223, 37.1187)">
<rect x="0.0000" y="-0.5500" width="0.5054" height="0.1300" ry="0.0400" fill="currentColor"/>
</g>
</a>
<a style="color:inherit;" xlink:href="textedit:///Users/kapsitis/workspace-public/ddgatve-songs/songs-lt/lilypond/AntKalnoKarklaiSiubavo.ly:24:30:31">
<g transform="translate(23.6601, 29.9835)">
<path transform="scale(0.0040, -0.0040)" d="M218 136c66 0 108 -36 108 -89c0 -89 -113 -183 -218 -183c-66 0 -108 36 -108 89c0 89 113 183 218 183z" fill="currentColor"/>
</g>
</a>
<a style="color:inherit;" xlink:href="textedit:///Users/kapsitis/workspace-public/ddgatve-songs/songs-lt/lilypond/AntKalnoKarklaiSiubavo.ly:34:30:31">
<g transform="translate(23.6601, 30.9835)">
<path transform="scale(0.0040, -0.0040)" d="M218 136c66 0 108 -36 108 -89c0 -89 -113 -183 -218 -183c-66 0 -108 36 -108 89c0 89 113 183 218 183z" fill="currentColor"/>
</g>
</a>
<a style="color:inherit;" xlink:href="textedit:///Users/kapsitis/workspace-public/ddgatve-songs/songs-lt/lilypond/AntKalnoKarklaiSiubavo.ly:42:28:29">
<g transform="translate(23.0147, 37.1187)">
<text font-family="serif" font-size="2.4696" text-anchor="start" fill="currentColor">
<tspan>liū</tspan>
</text>
</g>
</a>
<g transform="translate(24.8993, 28.4835)">
<rect x="-0.0650" y="-2.0000" width="0.1300" height="3.3139" ry="0.0400" fill="currentColor"/>
</g>
<g transform="translate(24.9643, 26.5235)">
<path transform="scale(0.0040, -0.0040)" d="M0 0v-250h-16v250h16zM0 0c0 -197 207 -336 207 -533c0 -71 -15 -141 -41 -207c-5 -8 -13 -12 -20 -12c-13 0 -26 11 -23 27c26 61 42 126 42 192c0 103 -94 208 -165 283v250z" fill="currentColor"/>
</g>
<g transform="translate(23.7251, 28.4835)">
<rect x="-0.0650" y="2.6861" width="0.1300" height="2.8139" ry="0.0400" fill="currentColor"/>
</g>
<g transform="translate(23.7901, 33.9435)">
<path transform="scale(0.0040, -0.0040)" d="M0 0h-16v250h16v-250zM0 0v250c97 59 224 148 224 259c0 57 -15 112 -40 163c-3 16 10 27 23 27c7 0 15 -3 20 -11c25 -56 40 -117 40 -179c0 -203 -267 -306 -267 -509z" fill="currentColor"/>
</g>
<a style="color:inherit;" xlink:href="textedit:///Users/kapsitis/workspace-public/ddgatve-songs/songs-lt/lilypond/AntKalnoKarklaiSiubavo.ly:43:4:5">
<g transform="translate(38.6810, 37.1187)">
<rect x="0.0000" y="-0.5500" width="0.6600" height="0.1300" ry="0.0400" fill="currentColor"/>
</g>
</a>
<a style="color:inherit;" xlink:href="textedit:///Users/kapsitis/workspace-public/ddgatve-songs/songs-lt/lilypond/AntKalnoKarklaiSiubavo.ly:24:32:33">
<g transform="translate(27.0710, 30.4835)">
<path transform="scale(0.0040, -0.0040)" d="M218 136c66 0 108 -36 108 -89c0 -89 -113 -183 -218 -183c-66 0 -108 36 -108 89c0 89 113 183 218 183z" fill="currentColor"/>
</g>
</a>
<a style="color:inherit;" xlink:href="textedit:///Users/kapsitis/workspace-public/ddgatve-songs/songs-lt/lilypond/AntKalnoKarklaiSiubavo.ly:34:32:33">
<g transform="translate(27.0710, 31.4835)">
<path transform="scale(0.0040, -0.0040)" d="M218 136c66 0 108 -36 108 -89c0 -89 -113 -183 -218 -183c-66 0 -108 36 -108 89c0 89 113 183 218 183z" fill="currentColor"/>
</g>
</a>
<a style="color:inherit;" xlink:href="textedit:///Users/kapsitis/workspace-public/ddgatve-songs/songs-lt/lilypond/AntKalnoKarklaiSiubavo.ly:42:35:36">
<g transform="translate(26.4940, 37.1187)">
<text font-family="serif" font-size="2.4696" text-anchor="start" fill="currentColor">
<tspan>lia</tspan>
</text>
</g>
</a>
<g transform="translate(28.3102, 28.4835)">
<rect x="-0.0650" y="-1.5000" width="0.1300" height="3.3139" ry="0.0400" fill="currentColor"/>
</g>
<g transform="translate(28.3752, 27.0235)">
<path transform="scale(0.0040, -0.0040)" d="M0 0v-250h-16v250h16zM0 0c0 -197 207 -336 207 -533c0 -71 -15 -141 -41 -207c-5 -8 -13 -12 -20 -12c-13 0 -26 11 -23 27c26 61 42 126 42 192c0 103 -94 208 -165 283v250z" fill="currentColor"/>
</g>
<g transform="translate(27.1360, 28.4835)">
<rect x="-0.0650" y="3.1861" width="0.1300" height="2.8139" ry="0.0400" fill="currentColor"/>
</g>
<g transform="translate(27.2010, 34.4435)">
<path transform="scale(0.0040, -0.0040)" d="M0 0h-16v250h16v-250zM0 0v250c97 59 224 148 224 259c0 57 -15 112 -40 163c-3 16 10 27 23 27c7 0 15 -3 20 -11c25 -56 40 -117 40 -179c0 -203 -267 -306 -267 -509z" fill="currentColor"/>
</g>
<a style="color:inherit;" xlink:href="textedit:///Users/kapsitis/workspace-public/ddgatve-songs/songs-lt/lilypond/AntKalnoKarklaiSiubavo.ly:43:11:12">
<g transform="translate(43.9766, 37.1187)">
<rect x="0.0000" y="-0.5500" width="0.6600" height="0.1300" ry="0.0400" fill="currentColor"/>
</g>
</a>
<a style="color:inherit;" xlink:href="textedit:///Users/kapsitis/workspace-public/ddgatve-songs/songs-lt/lilypond/AntKalnoKarklaiSiubavo.ly:24:34:35">
<g transform="translate(30.4820, 30.9835)">
<path transform="scale(0.0040, -0.0040)" d="M218 136c66 0 108 -36 108 -89c0 -89 -113 -183 -218 -183c-66 0 -108 36 -108 89c0 89 113 183 218 183z" fill="currentColor"/>
</g>
</a>
<a style="color:inherit;" xlink:href="textedit:///Users/kapsitis/workspace-public/ddgatve-songs/songs-lt/lilypond/AntKalnoKarklaiSiubavo.ly:34:34:35">
<g transform="translate(30.4820, 31.9835)">
<path transform="scale(0.0040, -0.0040)" d="M218 136c66 0 108 -36 108 -89c0 -89 -113 -183 -218 -183c-66 0 -108 36 -108 89c0 89 113 183 218 183z" fill="currentColor"/>
</g>
</a>
<a style="color:inherit;" xlink:href="textedit:///Users/kapsitis/workspace-public/ddgatve-songs/songs-lt/lilypond/AntKalnoKarklaiSiubavo.ly:42:42:43">
<g transform="translate(29.5977, 37.1187)">
<text font-family="serif" font-size="2.4696" text-anchor="start" fill="currentColor">
<tspan>vo,</tspan>
</text>
</g>
</a>
<g transform="translate(31.7212, 28.4835)">
<rect x="-0.0650" y="-1.0000" width="0.1300" height="3.3139" ry="0.0400" fill="currentColor"/>
</g>
<g transform="translate(31.7862, 27.5235)">
<path transform="scale(0.0040, -0.0040)" d="M0 0v-250h-16v250h16zM0 0c0 -197 207 -336 207 -533c0 -71 -15 -141 -41 -207c-5 -8 -13 -12 -20 -12c-13 0 -26 11 -23 27c26 61 42 126 42 192c0 103 -94 208 -165 283v250z" fill="currentColor"/>
</g>
<g transform="translate(30.5470, 28.4835)">
<rect x="-0.0650" y="3.6861" width="0.1300" height="2.8139" ry="0.0400" fill="currentColor"/>
</g>
<g transform="translate(30.6120, 34.9435)">
<path transform="scale(0.0040, -0.0040)" d="M0 0h-16v250h16v-250zM0 0v250c97 59 224 148 224 259c0 57 -15 112 -40 163c-3 16 10 27 23 27c7 0 15 -3 20 -11c25 -56 40 -117 40 -179c0 -203 -267 -306 -267 -509z" fill="currentColor"/>
</g>
<a style="color:inherit;" xlink:href="textedit:///Users/kapsitis/workspace-public/ddgatve-songs/songs-lt/lilypond/AntKalnoKarklaiSiubavo.ly:34:46:47">
<g transform="translate(46.3318, 28.4835)">
<path stroke-width="0.0800" stroke-linejoin="round" stroke-linecap="round" stroke="currentColor" fill="currentColor" d="M0.4300 3.5450C1.5741 4.7751 4.6929 5.0532 6.0367 4.0450L6.0367 4.0450C4.7036 4.9337 1.5848 4.6556 0.4300 3.5450z"/>
</g>
</a>
<a style="color:inherit;" xlink:href="textedit:///Users/kapsitis/workspace-public/ddgatve-songs/songs-lt/lilypond/AntKalnoKarklaiSiubavo.ly:24:38:39">
<g transform="translate(35.2993, 30.4835)">
<path transform="scale(0.0040, -0.0040)" d="M218 136c66 0 108 -36 108 -89c0 -89 -113 -183 -218 -183c-66 0 -108 36 -108 89c0 89 113 183 218 183z" fill="currentColor"/>
</g>
</a>
<a style="color:inherit;" xlink:href="textedit:///Users/kapsitis/workspace-public/ddgatve-songs/songs-lt/lilypond/AntKalnoKarklaiSiubavo.ly:34:38:39">
<g transform="translate(35.2993, 31.4835)">
<path transform="scale(0.0040, -0.0040)" d="M218 136c66 0 108 -36 108 -89c0 -89 -113 -183 -218 -183c-66 0 -108 36 -108 89c0 89 113 183 218 183z" fill="currentColor"/>
</g>
</a>
<a style="color:inherit;" xlink:href="textedit:///Users/kapsitis/workspace-public/ddgatve-songs/songs-lt/lilypond/AntKalnoKarklaiSiubavo.ly:43:0:1">
<g transform="translate(34.2442, 37.1187)">
<text font-family="serif" font-size="2.4696" text-anchor="start" fill="currentColor">
<tspan>Liū</tspan>
</text>
</g>
</a>
<g transform="translate(36.5385, 28.4835)">
<rect x="-0.0650" y="-1.5000" width="0.1300" height="3.3139" ry="0.0400" fill="currentColor"/>
</g>
<g transform="translate(35.3643, 28.4835)">
<rect x="-0.0650" y="3.1861" width="0.1300" height="2.3139" ry="0.0400" fill="currentColor"/>
</g>
<a style="color:inherit;" xlink:href="textedit:///Users/kapsitis/workspace-public/ddgatve-songs/songs-lt/lilypond/AntKalnoKarklaiSiubavo.ly:43:21:22">
<g transform="translate(60.4744, 37.1187)">
<rect x="0.0000" y="-0.5500" width="0.6600" height="0.1300" ry="0.0400" fill="currentColor"/>
</g>
</a>
<a style="color:inherit;" xlink:href="textedit:///Users/kapsitis/workspace-public/ddgatve-songs/songs-lt/lilypond/AntKalnoKarklaiSiubavo.ly:24:41:42">
<g transform="translate(40.9406, 28.9835)">
<path transform="scale(0.0040, -0.0040)" d="M218 136c66 0 108 -36 108 -89c0 -89 -113 -183 -218 -183c-66 0 -108 36 -108 89c0 89 113 183 218 183z" fill="currentColor"/>
</g>
</a>
<a style="color:inherit;" xlink:href="textedit:///Users/kapsitis/workspace-public/ddgatve-songs/songs-lt/lilypond/AntKalnoKarklaiSiubavo.ly:34:41:42">
<g transform="translate(40.9406, 29.9835)">
<path transform="scale(0.0040, -0.0040)" d="M218 136c66 0 108 -36 108 -89c0 -89 -113 -183 -218 -183c-66 0 -108 36 -108 89c0 89 113 183 218 183z" fill="currentColor"/>
</g>
</a>
<a style="color:inherit;" xlink:href="textedit:///Users/kapsitis/workspace-public/ddgatve-songs/songs-lt/lilypond/AntKalnoKarklaiSiubavo.ly:43:7:8">
<g transform="translate(40.3635, 37.1187)">
<text font-family="serif" font-size="2.4696" text-anchor="start" fill="currentColor">
<tspan>lia</tspan>
</text>
</g>
</a>
<g transform="translate(42.1798, 28.4835)">
<rect x="-0.0650" y="-3.0000" width="0.1300" height="3.3139" ry="0.0400" fill="currentColor"/>
</g>
<g transform="translate(41.0056, 28.4835)">
<rect x="-0.0650" y="1.6861" width="0.1300" height="2.6472" ry="0.0400" fill="currentColor"/>
</g>
<a style="color:inherit;" xlink:href="textedit:///Users/kapsitis/workspace-public/ddgatve-songs/songs-lt/lilypond/AntKalnoKarklaiSiubavo.ly:43:28:29">
<g transform="translate(64.7651, 37.1187)">
<rect x="0.0000" y="-0.5500" width="0.5054" height="0.1300" ry="0.0400" fill="currentColor"/>
</g>
</a>
<a style="color:inherit;" xlink:href="textedit:///Users/kapsitis/workspace-public/ddgatve-songs/songs-lt/lilypond/AntKalnoKarklaiSiubavo.ly:24:43:44">
<g transform="translate(46.3318, 29.4835)">
<path transform="scale(0.0040, -0.0040)" d="M314 65c0 23 -19 41 -42 41c-39 0 -204 -110 -231 -143c-7 -8 -10 -18 -10 -28c0 -23 19 -41 42 -41c39 0 203 110 230 143c7 8 11 18 11 28zM262 136c41 0 82 -14 82 -71c0 -26 -16 -112 -74 -151c-25 -17 -87 -50 -187 -50c-41 0 -83 14 -83 71c0 26 16 112 74 151
c25 17 88 50 188 50z" fill="currentColor"/>
</g>
</a>
<a style="color:inherit;" xlink:href="textedit:///Users/kapsitis/workspace-public/ddgatve-songs/songs-lt/lilypond/AntKalnoKarklaiSiubavo.ly:34:43:44">
<g transform="translate(46.3318, 30.4835)">
<path transform="scale(0.0040, -0.0040)" d="M218 136c66 0 108 -36 108 -89c0 -89 -113 -183 -218 -183c-66 0 -108 36 -108 89c0 89 113 183 218 183z" fill="currentColor"/>
</g>
</a>
<a style="color:inherit;" xlink:href="textedit:///Users/kapsitis/workspace-public/ddgatve-songs/songs-lt/lilypond/AntKalnoKarklaiSiubavo.ly:43:14:15">
<g transform="translate(45.7913, 37.1187)">
<text font-family="serif" font-size="2.4696" text-anchor="start" fill="currentColor">
<tspan>vo</tspan>
</text>
</g>
</a>
<g transform="translate(47.6442, 28.4835)">
<rect x="-0.0650" y="-2.5000" width="0.1300" height="3.2410" ry="0.0400" fill="currentColor"/>
</g>
<g transform="translate(48.0860, 30.9835)">
<path transform="scale(0.0040, -0.0040)" d="M0 0c0 31 25 56 56 56s56 -25 56 -56s-25 -56 -56 -56s-56 25 -56 56z" fill="currentColor"/>
</g>
<g transform="translate(46.3968, 28.4835)">
<rect x="-0.0650" y="2.1861" width="0.1300" height="2.4806" ry="0.0400" fill="currentColor"/>
</g>
<a style="color:inherit;" xlink:href="textedit:///Users/kapsitis/workspace-public/ddgatve-songs/songs-lt/lilypond/AntKalnoKarklaiSiubavo.ly:34:48:49">
<g transform="translate(52.6685, 31.4835)">
<path transform="scale(0.0040, -0.0040)" d="M218 136c66 0 108 -36 108 -89c0 -89 -113 -183 -218 -183c-66 0 -108 36 -108 89c0 89 113 183 218 183z" fill="currentColor"/>
</g>
</a>
<g transform="translate(52.7335, 28.4835)">
<rect x="-0.0650" y="3.1861" width="0.1300" height="2.8139" ry="0.0400" fill="currentColor"/>
</g>
<g transform="translate(52.7985, 34.4435)">
<path transform="scale(0.0040, -0.0040)" d="M0 0h-16v250h16v-250zM0 0v250c97 59 224 148 224 259c0 57 -15 112 -40 163c-3 16 10 27 23 27c7 0 15 -3 20 -11c25 -56 40 -117 40 -179c0 -203 -267 -306 -267 -509z" fill="currentColor"/>
</g>
<a style="color:inherit;" xlink:href="textedit:///Users/kapsitis/workspace-public/ddgatve-songs/songs-lt/lilypond/AntKalnoKarklaiSiubavo.ly:24:48:49">
<g transform="translate(57.4226, 29.9835)">
<path transform="scale(0.0040, -0.0040)" d="M218 136c66 0 108 -36 108 -89c0 -89 -113 -183 -218 -183c-66 0 -108 36 -108 89c0 89 113 183 218 183z" fill="currentColor"/>
</g>
</a>
<a style="color:inherit;" xlink:href="textedit:///Users/kapsitis/workspace-public/ddgatve-songs/songs-lt/lilypond/AntKalnoKarklaiSiubavo.ly:34:54:55">
<g transform="translate(57.4226, 30.9835)">
<path transform="scale(0.0040, -0.0040)" d="M218 136c66 0 108 -36 108 -89c0 -89 -113 -183 -218 -183c-66 0 -108 36 -108 89c0 89 113 183 218 183z" fill="currentColor"/>
</g>
</a>
<a style="color:inherit;" xlink:href="textedit:///Users/kapsitis/workspace-public/ddgatve-songs/songs-lt/lilypond/AntKalnoKarklaiSiubavo.ly:43:17:18">
<g transform="translate(56.7772, 37.1187)">
<text font-family="serif" font-size="2.4696" text-anchor="start" fill="currentColor">
<tspan>liū</tspan>
</text>
</g>
</a>
<g transform="translate(58.6618, 28.4835)">
<rect x="-0.0650" y="-2.0000" width="0.1300" height="3.3139" ry="0.0400" fill="currentColor"/>
</g>
<g transform="translate(57.4876, 28.4835)">
<rect x="-0.0650" y="2.6861" width="0.1300" height="2.3139" ry="0.0400" fill="currentColor"/>
</g>
<a style="color:inherit;" xlink:href="textedit:///Users/kapsitis/workspace-public/ddgatve-songs/songs-lt/lilypond/AntKalnoKarklaiSiubavo.ly:24:51:52">
<g transform="translate(62.8138, 29.4835)">
<path transform="scale(0.0040, -0.0040)" d="M218 136c66 0 108 -36 108 -89c0 -89 -113 -183 -218 -183c-66 0 -108 36 -108 89c0 89 113 183 218 183z" fill="currentColor"/>
</g>
</a>
<a style="color:inherit;" xlink:href="textedit:///Users/kapsitis/workspace-public/ddgatve-songs/songs-lt/lilypond/AntKalnoKarklaiSiubavo.ly:34:57:58">
<g transform="translate(62.8138, 30.4835)">
<path transform="scale(0.0040, -0.0040)" d="M218 136c66 0 108 -36 108 -89c0 -89 -113 -183 -218 -183c-66 0 -108 36 -108 89c0 89 113 183 218 183z" fill="currentColor"/>
</g>
</a>
<a style="color:inherit;" xlink:href="textedit:///Users/kapsitis/workspace-public/ddgatve-songs/songs-lt/lilypond/AntKalnoKarklaiSiubavo.ly:43:24:25">
<g transform="translate(62.2368, 37.1187)">
<text font-family="serif" font-size="2.4696" text-anchor="start" fill="currentColor">
<tspan>lia</tspan>
</text>
</g>
</a>
<g transform="translate(64.0530, 28.4835)">
<rect x="-0.0650" y="-2.5000" width="0.1300" height="3.3139" ry="0.0400" fill="currentColor"/>
</g>
<g transform="translate(64.1180, 26.0235)">
<path transform="scale(0.0040, -0.0040)" d="M0 0v-250h-16v250h16zM0 0c0 -197 207 -336 207 -533c0 -71 -15 -141 -41 -207c-5 -8 -13 -12 -20 -12c-13 0 -26 11 -23 27c26 61 42 126 42 192c0 103 -94 208 -165 283v250z" fill="currentColor"/>
</g>
<g transform="translate(62.8788, 28.4835)">
<rect x="-0.0650" y="2.1861" width="0.1300" height="2.8139" ry="0.0400" fill="currentColor"/>
</g>
<g transform="translate(62.9438, 33.4435)">
<path transform="scale(0.0040, -0.0040)" d="M0 0h-16v250h16v-250zM0 0v250c97 59 224 148 224 259c0 57 -15 112 -40 163c-3 16 10 27 23 27c7 0 15 -3 20 -11c25 -56 40 -117 40 -179c0 -203 -267 -306 -267 -509z" fill="currentColor"/>
</g>
<g transform="translate(70.3848, 28.4835)">
<rect x="-0.0650" y="3.2590" width="0.1300" height="2.2410" ry="0.0400" fill="currentColor"/>
</g>
<a style="color:inherit;" xlink:href="textedit:///Users/kapsitis/workspace-public/ddgatve-songs/songs-lt/lilypond/AntKalnoKarklaiSiubavo.ly:24:54:55">
<g transform="translate(66.2248, 29.9835)">
<path transform="scale(0.0040, -0.0040)" d="M218 136c66 0 108 -36 108 -89c0 -89 -113 -183 -218 -183c-66 0 -108 36 -108 89c0 89 113 183 218 183z" fill="currentColor"/>
</g>
</a>
<a style="color:inherit;" xlink:href="textedit:///Users/kapsitis/workspace-public/ddgatve-songs/songs-lt/lilypond/AntKalnoKarklaiSiubavo.ly:34:60:61">
<g transform="translate(66.2248, 30.9835)">
<path transform="scale(0.0040, -0.0040)" d="M218 136c66 0 108 -36 108 -89c0 -89 -113 -183 -218 -183c-66 0 -108 36 -108 89c0 89 113 183 218 183z" fill="currentColor"/>
</g>
</a>
<a style="color:inherit;" xlink:href="textedit:///Users/kapsitis/workspace-public/ddgatve-songs/songs-lt/lilypond/AntKalnoKarklaiSiubavo.ly:43:31:32">
<g transform="translate(65.3404, 37.1187)">
<text font-family="serif" font-size="2.4696" text-anchor="start" fill="currentColor">
<tspan>vo.</tspan>
</text>
</g>
</a>
<g transform="translate(67.4640, 28.4835)">
<rect x="-0.0650" y="-2.0000" width="0.1300" height="3.3139" ry="0.0400" fill="currentColor"/>
</g>
<g transform="translate(67.5290, 26.5235)">
<path transform="scale(0.0040, -0.0040)" d="M0 0v-250h-16v250h16zM0 0c0 -197 207 -336 207 -533c0 -71 -15 -141 -41 -207c-5 -8 -13 -12 -20 -12c-13 0 -26 11 -23 27c26 61 42 126 42 192c0 103 -94 208 -165 283v250z" fill="currentColor"/>
</g>
<g transform="translate(66.2898, 28.4835)">
<rect x="-0.0650" y="2.6861" width="0.1300" height="2.8139" ry="0.0400" fill="currentColor"/>
</g>
<g transform="translate(66.3548, 33.9435)">
<path transform="scale(0.0040, -0.0040)" d="M0 0h-16v250h16v-250zM0 0v250c97 59 224 148 224 259c0 57 -15 112 -40 163c-3 16 10 27 23 27c7 0 15 -3 20 -11c25 -56 40 -117 40 -179c0 -203 -267 -306 -267 -509z" fill="currentColor"/>
</g>
<a style="color:inherit;" xlink:href="textedit:///Users/kapsitis/workspace-public/ddgatve-songs/songs-lt/lilypond/AntKalnoKarklaiSiubavo.ly:24:56:57">
<g transform="translate(70.3198, 30.4835)">
<path transform="scale(0.0040, -0.0040)" d="M314 65c0 23 -19 41 -42 41c-39 0 -204 -110 -231 -143c-7 -8 -10 -18 -10 -28c0 -23 19 -41 42 -41c39 0 203 110 230 143c7 8 11 18 11 28zM262 136c41 0 82 -14 82 -71c0 -26 -16 -112 -74 -151c-25 -17 -87 -50 -187 -50c-41 0 -83 14 -83 71c0 26 16 112 74 151
c25 17 88 50 188 50z" fill="currentColor"/>
</g>
</a>
<a style="color:inherit;" xlink:href="textedit:///Users/kapsitis/workspace-public/ddgatve-songs/songs-lt/lilypond/AntKalnoKarklaiSiubavo.ly:34:62:63">
<g transform="translate(70.3198, 31.4835)">
<path transform="scale(0.0040, -0.0040)" d="M314 65c0 23 -19 41 -42 41c-39 0 -204 -110 -231 -143c-7 -8 -10 -18 -10 -28c0 -23 19 -41 42 -41c39 0 203 110 230 143c7 8 11 18 11 28zM262 136c41 0 82 -14 82 -71c0 -26 -16 -112 -74 -151c-25 -17 -87 -50 -187 -50c-41 0 -83 14 -83 71c0 26 16 112 74 151
c25 17 88 50 188 50z" fill="currentColor"/>
</g>
</a>
<g transform="translate(71.6321, 28.4835)">
<rect x="-0.0650" y="-1.5000" width="0.1300" height="3.2410" ry="0.0400" fill="currentColor"/>
</g>
<g color="rgb(100%, 100%, 100%)">
<g transform="translate(0.0000, 37.6516)">
<text font-family="sans-serif" font-size="1.9600" text-anchor="start" fill="currentColor">
<tspan>__</tspan>
</text>
</g>
</g>
</svg>
