<svg xmlns="http://www.w3.org/2000/svg" xmlns:xlink="http://www.w3.org/1999/xlink" version="1.2" width="141.56mm" height="62.16mm" viewBox="-0.8877 -0.0000 80.5554 35.3704">
<style type="text/css">
<![CDATA[
tspan { white-space: pre; }
]]>
</style>
<g transform="translate(0.0000, -0.3846)">
<text font-family="serif" font-size="2.2001" text-anchor="start" fill="currentColor">
<tspan>__</tspan>
</text>
</g>
<g transform="translate(77.4825, -0.3846)">
<text font-family="serif" font-size="2.2001" text-anchor="start" fill="currentColor">
<tspan>__</tspan>
</text>
</g>
<g transform="translate(0.0000, 9.7743)">
<line stroke-linejoin="round" stroke-linecap="round" stroke-width="0.1000" stroke="currentColor" x1="0.0500" y1="0" x2="79.6177" y2="0"/>
</g>
<g transform="translate(0.0000, 8.7743)">
<line stroke-linejoin="round" stroke-linecap="round" stroke-width="0.1000" stroke="currentColor" x1="0.0500" y1="0" x2="79.6177" y2="0"/>
</g>
<g transform="translate(0.0000, 7.7743)">
<line stroke-linejoin="round" stroke-linecap="round" stroke-width="0.1000" stroke="currentColor" x1="0.0500" y1="0" x2="79.6177" y2="0"/>
</g>
<g transform="translate(0.0000, 6.7743)">
<line stroke-linejoin="round" stroke-linecap="round" stroke-width="0.1000" stroke="currentColor" x1="0.0500" y1="0" x2="79.6177" y2="0"/>
</g>
<g transform="translate(0.0000, 5.7743)">
<line stroke-linejoin="round" stroke-linecap="round" stroke-width="0.1000" stroke="currentColor" x1="0.0500" y1="0" x2="79.6177" y2="0"/>
</g>
<g transform="translate(25.5504, 19.1424)">
<rect x="0.0000" y="-1.4142" width="0.1900" height="2.8284" ry="0.0000" fill="currentColor"/>
</g>
<g transform="translate(25.5504, 7.7743)">
<rect x="0.0000" y="-2.0000" width="0.1900" height="4.0000" ry="0.0000" fill="currentColor"/>
</g>
<g transform="translate(0.0000, 20.5566)">
<line stroke-linejoin="round" stroke-linecap="round" stroke-width="0.0707" stroke="currentColor" x1="0.0354" y1="0" x2="63.4438" y2="0"/>
</g>
<g transform="translate(0.0000, 19.8495)">
<line stroke-linejoin="round" stroke-linecap="round" stroke-width="0.0707" stroke="currentColor" x1="0.0354" y1="0" x2="63.4438" y2="0"/>
</g>
<g transform="translate(0.0000, 19.1424)">
<line stroke-linejoin="round" stroke-linecap="round" stroke-width="0.0707" stroke="currentColor" x1="0.0354" y1="0" x2="63.4438" y2="0"/>
</g>
<g transform="translate(0.0000, 18.4353)">
<line stroke-linejoin="round" stroke-linecap="round" stroke-width="0.0707" stroke="currentColor" x1="0.0354" y1="0" x2="63.4438" y2="0"/>
</g>
<g transform="translate(0.0000, 17.7282)">
<line stroke-linejoin="round" stroke-linecap="round" stroke-width="0.0707" stroke="currentColor" x1="0.0354" y1="0" x2="63.4438" y2="0"/>
</g>
<g transform="translate(79.4777, 7.7743)">
<rect x="0.0000" y="-2.0000" width="0.1900" height="4.0000" ry="0.0000" fill="currentColor"/>
</g>
<g transform="translate(63.2892, 19.1424)">
<rect x="0.0000" y="-1.4142" width="0.1900" height="2.8284" ry="0.0000" fill="currentColor"/>
</g>
<g transform="translate(63.2892, 7.7743)">
<rect x="0.0000" y="-2.0000" width="0.1900" height="4.0000" ry="0.0000" fill="currentColor"/>
</g>
<g transform="translate(45.1824, 19.1424)">
<rect x="0.0000" y="-1.4142" width="0.1900" height="2.8284" ry="0.0000" fill="currentColor"/>
</g>
<g transform="translate(45.1824, 7.7743)">
<rect x="0.0000" y="-2.0000" width="0.1900" height="4.0000" ry="0.0000" fill="currentColor"/>
</g>
<g transform="translate(47.4878, 19.1424)">
<rect x="-0.0460" y="-2.3570" width="0.0919" height="2.2426" ry="0.0400" fill="currentColor"/>
</g>
<g transform="translate(46.6618, 19.1424)">
<rect x="-0.0460" y="0.8215" width="0.0919" height="2.0069" ry="0.0400" fill="currentColor"/>
</g>
<a style="color:inherit;" xlink:href="textedit:///Users/kapsitis/workspace-public/ddgatve-songs/songs-lt/lilypond/EiSkaudeGraude.ly:34:48:49">
<g transform="translate(9.6182, 18.4353)">
<path transform="scale(0.0028, -0.0028)" d="M208 139c69 0 117 -40 117 -99c0 -91 -107 -179 -209 -179c-69 0 -116 40 -116 99c0 91 106 179 208 179z" fill="currentColor"/>
</g>
</a>
<a style="color:inherit;" xlink:href="textedit:///Users/kapsitis/workspace-public/ddgatve-songs/songs-lt/lilypond/EiSkaudeGraude.ly:34:50:51">
<g transform="translate(9.6182, 19.1424)">
<path stroke-width="0.0566" stroke-linejoin="round" stroke-linecap="round" stroke="currentColor" fill="currentColor" d="M1.2179 -1.5608C2.0696 -2.4221 4.3673 -2.5608 5.3165 -1.8083L5.3165 -1.8083C4.3724 -2.4761 2.0747 -2.3374 1.2179 -1.5608z"/>
</g>
</a>
<a style="color:inherit;" xlink:href="textedit:///Users/kapsitis/workspace-public/ddgatve-songs/songs-lt/lilypond/EiSkaudeGraude.ly:34:73:74">
<g transform="translate(51.4064, 19.1424)">
<path transform="scale(0.0028, -0.0028)" d="M208 139c69 0 117 -40 117 -99c0 -91 -107 -179 -209 -179c-69 0 -116 40 -116 99c0 91 106 179 208 179z" fill="currentColor"/>
</g>
</a>
<a style="color:inherit;" xlink:href="textedit:///Users/kapsitis/workspace-public/ddgatve-songs/songs-lt/lilypond/EiSkaudeGraude.ly:35:73:74">
<g transform="translate(51.4064, 19.8495)">
<path transform="scale(0.0028, -0.0028)" d="M208 139c69 0 117 -40 117 -99c0 -91 -107 -179 -209 -179c-69 0 -116 40 -116 99c0 91 106 179 208 179z" fill="currentColor"/>
</g>
</a>
<g transform="translate(52.2783, 19.1424)">
<rect x="-0.0460" y="-2.3865" width="0.0919" height="2.2721" ry="0.0400" fill="currentColor"/>
</g>
<g transform="translate(52.3243, 16.7959)">
<path transform="scale(0.0028, -0.0028)" d="M115 -723c0 12 43 85 43 193c0 101 -90 205 -158 280h-21v250h21c0 -196 207 -334 207 -530c0 -71 -15 -140 -41 -206c-5 -10 -14 -13 -23 -13c-14 0 -28 10 -28 26z" fill="currentColor"/>
</g>
<g transform="translate(51.4523, 19.1424)">
<rect x="-0.0460" y="0.8215" width="0.0919" height="2.0953" ry="0.0400" fill="currentColor"/>
</g>
<g transform="translate(51.4983, 22.0192)">
<path transform="scale(0.0028, -0.0028)" d="M176 675c0 16 14 26 28 26c9 0 17 -4 22 -14c25 -56 40 -116 40 -178c0 -203 -266 -306 -266 -509h-21v250h21c94 60 217 150 217 259c0 93 -41 155 -41 166z" fill="currentColor"/>
</g>
<a style="color:inherit;" xlink:href="textedit:///Users/kapsitis/workspace-public/ddgatve-songs/songs-lt/lilypond/EiSkaudeGraude.ly:35:48:49">
<g transform="translate(9.6182, 19.1424)">
<path transform="scale(0.0028, -0.0028)" d="M208 139c69 0 117 -40 117 -99c0 -91 -107 -179 -209 -179c-69 0 -116 40 -116 99c0 91 106 179 208 179z" fill="currentColor"/>
</g>
</a>
<a style="color:inherit;" xlink:href="textedit:///Users/kapsitis/workspace-public/ddgatve-songs/songs-lt/lilypond/EiSkaudeGraude.ly:35:50:51">
<g transform="translate(9.6182, 19.1424)">
<path stroke-width="0.0566" stroke-linejoin="round" stroke-linecap="round" stroke="currentColor" fill="currentColor" d="M0.3919 0.8375C1.3814 1.4862 3.6817 1.2283 4.4906 0.3779L4.4906 0.3779C3.6722 1.1440 1.3720 1.4019 0.3919 0.8375z"/>
</g>
</a>
<a style="color:inherit;" xlink:href="textedit:///Users/kapsitis/workspace-public/ddgatve-songs/songs-lt/lilypond/EiSkaudeGraude.ly:25:54:55">
<g transform="translate(54.5427, 7.2743)">
<path transform="scale(0.0040, -0.0040)" d="M218 136c66 0 108 -36 108 -89c0 -89 -113 -183 -218 -183c-66 0 -108 36 -108 89c0 89 113 183 218 183z" fill="currentColor"/>
</g>
</a>
<a style="color:inherit;" xlink:href="textedit:///Users/kapsitis/workspace-public/ddgatve-songs/songs-lt/lilypond/EiSkaudeGraude.ly:25:56:57">
<g transform="translate(55.1948, 3.3796)">
<path transform="scale(0.0040, -0.0040)" d="M139 132c74 0 134 -58 134 -132c0 -70 -47 -132 -114 -132c-35 0 -68 21 -68 53c0 31 25 53 54 53c20 0 39 -10 48 -31c27 4 50 26 50 57s-28 54 -61 54c-117 0 -187 -186 -321 -186c-74 0 -134 58 -134 132c0 70 47 132 114 132c35 0 68 -21 68 -53
c0 -31 -25 -53 -54 -53c-20 0 -39 10 -48 31c-27 -4 -50 -26 -50 -57s28 -54 61 -54c117 0 187 186 321 186z" fill="currentColor"/>
</g>
</a>
<a style="color:inherit;" xlink:href="textedit:///Users/kapsitis/workspace-public/ddgatve-songs/songs-lt/lilypond/EiSkaudeGraude.ly:53:44:45">
<g transform="translate(54.5427, 8.2743)">
<path transform="scale(0.0040, -0.0040)" d="M218 136c66 0 108 -36 108 -89c0 -89 -113 -183 -218 -183c-66 0 -108 36 -108 89c0 89 113 183 218 183z" fill="currentColor"/>
</g>
</a>
<a style="color:inherit;" xlink:href="textedit:///Users/kapsitis/workspace-public/ddgatve-songs/songs-lt/lilypond/EiSkaudeGraude.ly:45:31:32">
<g transform="translate(54.0339, 14.7910)">
<text font-family="serif" font-size="2.4696" text-anchor="start" fill="currentColor">
<tspan>na</tspan>
</text>
</g>
</a>
<g transform="translate(55.7819, 7.7743)">
<rect x="-0.0650" y="-3.6667" width="0.1300" height="2.9806" ry="0.0400" fill="currentColor"/>
</g>
<g transform="translate(54.6077, 7.7743)">
<rect x="-0.0650" y="0.6861" width="0.1300" height="2.9806" ry="0.0400" fill="currentColor"/>
</g>
<g transform="translate(0.8000, 19.8495)">
<path transform="scale(0.0028, -0.0028)" d="M648 2c0 -114 -74 -214 -179 -248c2 -32 3 -65 3 -97c0 -21 -1 -43 -2 -64c-7 -123 -92 -230 -211 -230c-108 0 -197 88 -197 197c0 58 54 104 113 104c54 0 95 -48 95 -104c0 -52 -43 -95 -95 -95c-8 0 -16 2 -24 4c25 -35 65 -59 111 -59c93 0 155 90 161 190
c1 20 2 39 2 59c0 28 -1 55 -3 83c-5 -1 -43 -7 -87 -7c-194 0 -333 181 -333 377c0 176 128 307 242 443c-36 105 -58 171 -58 348c0 113 54 219 146 286c8 6 21 7 29 0c69 -78 136 -242 136 -357c0 -141 -83 -253 -174 -362c22 -67 41 -135 58 -204h9
c157 0 258 -130 258 -264zM464 -200c62 24 108 86 108 159c0 87 -62 173 -163 187c28 -132 47 -265 55 -346zM338 -218c1 0 46 0 80 6c-7 68 -26 209 -58 359c-79 -7 -123 -59 -123 -116c0 -43 24 -89 78 -120c5 -5 8 -11 8 -17c0 -13 -11 -24 -24 -24
c-17 0 -129 63 -129 189c0 90 60 178 164 201c-14 56 -30 112 -47 167c-104 -122 -208 -245 -208 -404c0 -143 140 -241 259 -241zM239 782c0 -43 15 -102 41 -183c77 97 140 199 140 323c0 58 -8 83 -19 113c-99 -45 -162 -145 -162 -253z" fill="currentColor"/>
</g>
<a style="color:inherit;" xlink:href="textedit:///Users/kapsitis/workspace-public/ddgatve-songs/songs-lt/lilypond/EiSkaudeGraude.ly:25:69:70">
<g transform="translate(58.9159, 7.2743)">
<path transform="scale(0.0040, -0.0040)" d="M218 136c66 0 108 -36 108 -89c0 -89 -113 -183 -218 -183c-66 0 -108 36 -108 89c0 89 113 183 218 183z" fill="currentColor"/>
</g>
</a>
<a style="color:inherit;" xlink:href="textedit:///Users/kapsitis/workspace-public/ddgatve-songs/songs-lt/lilypond/EiSkaudeGraude.ly:25:70:71">
<g transform="translate(59.5680, 3.3796)">
<path transform="scale(0.0040, -0.0040)" d="M139 132c74 0 134 -58 134 -132c0 -70 -47 -132 -114 -132c-35 0 -68 21 -68 53c0 31 25 53 54 53c20 0 39 -10 48 -31c27 4 50 26 50 57s-28 54 -61 54c-117 0 -187 -186 -321 -186c-74 0 -134 58 -134 132c0 70 47 132 114 132c35 0 68 -21 68 -53
c0 -31 -25 -53 -54 -53c-20 0 -39 10 -48 31c-27 -4 -50 -26 -50 -57s28 -54 61 -54c117 0 187 186 321 186z" fill="currentColor"/>
</g>
</a>
<a style="color:inherit;" xlink:href="textedit:///Users/kapsitis/workspace-public/ddgatve-songs/songs-lt/lilypond/EiSkaudeGraude.ly:53:47:48">
<g transform="translate(58.9159, 8.2743)">
<path transform="scale(0.0040, -0.0040)" d="M218 136c66 0 108 -36 108 -89c0 -89 -113 -183 -218 -183c-66 0 -108 36 -108 89c0 89 113 183 218 183z" fill="currentColor"/>
</g>
</a>
<a style="color:inherit;" xlink:href="textedit:///Users/kapsitis/workspace-public/ddgatve-songs/songs-lt/lilypond/EiSkaudeGraude.ly:45:34:35">
<g transform="translate(58.1340, 14.7910)">
<text font-family="serif" font-size="2.4696" text-anchor="start" fill="currentColor">
<tspan>šėr</tspan>
</text>
</g>
</a>
<g transform="translate(60.1552, 7.7743)">
<rect x="-0.0650" y="-3.6667" width="0.1300" height="2.9806" ry="0.0400" fill="currentColor"/>
</g>
<g transform="translate(58.9809, 7.7743)">
<rect x="-0.0650" y="0.6861" width="0.1300" height="2.9806" ry="0.0400" fill="currentColor"/>
</g>
<a style="color:inherit;" xlink:href="textedit:///Users/kapsitis/workspace-public/ddgatve-songs/songs-lt/lilypond/EiSkaudeGraude.ly:45:8:9">
<g transform="translate(20.6232, 14.7910)">
<rect x="0.0000" y="-0.5500" width="0.6600" height="0.1300" ry="0.0400" fill="currentColor"/>
</g>
</a>
<a style="color:inherit;" xlink:href="textedit:///Users/kapsitis/workspace-public/ddgatve-songs/songs-lt/lilypond/EiSkaudeGraude.ly:38:0:1">
<g transform="translate(64.7589, 6.7743)">
<path transform="scale(0.0040, -0.0040)" d="M218 136c66 0 108 -36 108 -89c0 -89 -113 -183 -218 -183c-66 0 -108 36 -108 89c0 89 113 183 218 183z" fill="currentColor"/>
</g>
</a>
<a style="color:inherit;" xlink:href="textedit:///Users/kapsitis/workspace-public/ddgatve-songs/songs-lt/lilypond/EiSkaudeGraude.ly:53:55:56">
<g transform="translate(64.7589, 8.7743)">
<path transform="scale(0.0040, -0.0040)" d="M218 136c66 0 108 -36 108 -89c0 -89 -113 -183 -218 -183c-66 0 -108 36 -108 89c0 89 113 183 218 183z" fill="currentColor"/>
</g>
</a>
<a style="color:inherit;" xlink:href="textedit:///Users/kapsitis/workspace-public/ddgatve-songs/songs-lt/lilypond/EiSkaudeGraude.ly:53:58:59">
<g transform="translate(64.7589, 7.7743)">
<path transform="scale(0.0040, -0.0040)" d="M218 136c66 0 108 -36 108 -89c0 -89 -113 -183 -218 -183c-66 0 -108 36 -108 89c0 89 113 183 218 183z" fill="currentColor"/>
</g>
</a>
<g transform="translate(0.8000, 8.7743)">
<path transform="scale(0.0040, -0.0040)" d="M266 -635h-6c-108 0 -195 88 -195 197c0 58 53 103 112 103c54 0 95 -47 95 -103c0 -52 -43 -95 -95 -95c-11 0 -21 2 -31 6c26 -39 68 -65 117 -65h4zM461 -203c68 24 113 90 113 164c0 90 -66 179 -173 190c19 -89 48 -242 60 -354zM74 28c0 -145 141 -247 264 -247
c1 0 47 0 82 6c-7 64 -29 203 -63 364c-79 -8 -124 -61 -124 -119c0 -44 25 -91 81 -123c5 -5 7 -10 7 -15c0 -11 -10 -22 -22 -22c-15 0 -126 62 -126 187c0 88 58 174 160 197c-14 58 -29 117 -46 175c-107 -121 -213 -243 -213 -403zM250 553c-29 96 -52 170 -52 346
c0 115 55 224 149 292c6 5 14 5 20 0c68 -80 133 -245 133 -358c0 -143 -86 -255 -180 -364c21 -68 39 -138 56 -207c2 0 7 1 13 1c155 0 256 -128 256 -261c0 -113 -74 -212 -180 -246c3 -35 5 -70 5 -105c0 -19 -1 -39 -2 -58c-7 -119 -88 -225 -202 -228l1 43
c93 2 153 92 159 191c1 18 2 37 2 55c0 31 -1 61 -4 92c-5 -1 -44 -8 -89 -8c-193 0 -333 180 -333 374c0 177 131 306 248 441zM428 916c0 34 1 66 -20 129c-99 -48 -162 -149 -162 -259c0 -52 12 -115 36 -194c80 97 146 198 146 324z" fill="currentColor"/>
</g>
<a style="color:inherit;" xlink:href="textedit:///Users/kapsitis/workspace-public/ddgatve-songs/songs-lt/lilypond/EiSkaudeGraude.ly:45:41:42">
<g transform="translate(64.7589, 14.7910)">
<text font-family="serif" font-size="2.4696" text-anchor="start" fill="currentColor">
<tspan>de</tspan>
</text>
</g>
</a>
<a style="color:inherit;" xlink:href="textedit:///Users/kapsitis/workspace-public/ddgatve-songs/songs-lt/lilypond/EiSkaudeGraude.ly:23:0:1">
<g transform="translate(4.3000, 5.7743)">
<path transform="scale(0.0040, -0.0040)" d="M216 -312c0 -10 -8 -19 -18 -19s-19 9 -19 19v145l-83 -31v-158c0 -10 -9 -19 -19 -19s-18 9 -18 19v145l-32 -12c-2 -1 -5 -1 -7 -1c-11 0 -20 9 -20 20v60c0 8 5 16 13 19l46 16v160l-32 -11c-2 -1 -5 -1 -7 -1c-11 0 -20 9 -20 20v60c0 8 5 15 13 18l46 17v158
c0 10 8 19 18 19s19 -9 19 -19v-145l83 31v158c0 10 9 19 19 19s18 -9 18 -19v-145l32 12c2 1 5 1 7 1c11 0 20 -9 20 -20v-60c0 -8 -5 -16 -13 -19l-46 -16v-160l32 11c2 1 5 1 7 1c11 0 20 -9 20 -20v-60c0 -8 -5 -15 -13 -18l-46 -17v-158zM96 65v-160l83 30v160z" fill="currentColor"/>
</g>
</a>
<a style="color:inherit;" xlink:href="textedit:///Users/kapsitis/workspace-public/ddgatve-songs/songs-lt/lilypond/EiSkaudeGraude.ly:52:0:1">
<g transform="translate(6.6012, 7.7743)">
<path transform="scale(0.0040, -0.0040)" d="M170 256c-51 0 -53 -44 -53 -102v-14v-15c0 -58 2 -102 53 -102c57 0 61 51 61 117s-4 116 -61 116zM117 266c17 7 34 13 53 13c101 0 170 -44 170 -139s-69 -140 -170 -140c-112 0 -170 124 -170 250c0 128 72 250 190 250c71 0 138 -39 138 -103c0 -36 -29 -66 -65 -66
s-66 30 -66 66c0 24 39 25 39 49c0 20 -23 31 -46 31c-66 0 -75 -65 -75 -139c0 -24 2 -48 2 -72z" fill="currentColor"/>
</g>
<g transform="translate(6.5500, 9.7743)">
<path transform="scale(0.0040, -0.0040)" d="M259 288c27 29 49 62 49 102c0 55 -57 87 -117 87c-47 0 -75 -36 -75 -71c0 -20 10 -40 30 -52zM289 271c33 -19 83 -60 83 -127c0 -73 -66 -144 -189 -144c-94 0 -183 54 -183 140c0 50 39 85 76 120c-41 28 -61 67 -61 106c0 68 61 134 176 134c81 0 161 -38 161 -110
c0 -47 -30 -85 -63 -119zM106 242c-33 -29 -62 -59 -62 -102c0 -69 66 -117 139 -117c54 0 86 42 86 83c0 24 -10 48 -35 62z" fill="currentColor"/>
</g>
</a>
<g transform="translate(65.9982, 7.7743)">
<rect x="-0.0650" y="-4.0000" width="0.1300" height="2.8139" ry="0.0400" fill="currentColor"/>
</g>
<a style="color:inherit;" xlink:href="textedit:///Users/kapsitis/workspace-public/ddgatve-songs/songs-lt/lilypond/EiSkaudeGraude.ly:21:0:1">
<g transform="translate(7.7107, 0.1528)">
<path transform="scale(0.0036, -0.0036)" d="M0 0c0 -197 207 -335 207 -532c0 -71 -15 -141 -41 -207c-5 -8 -13 -12 -21 -12c-14 0 -27 11 -24 28c26 60 42 125 42 191c0 103 -93 207 -163 282h-18v250h18z" fill="currentColor"/>
</g>
<g transform="translate(6.5500, 2.8255)">
<rect x="1.0449" y="-2.6727" width="0.1158" height="2.5129" ry="0.0193" fill="currentColor"/>
</g>
<g transform="translate(6.5500, 2.8255)">
<path transform="scale(0.0036, -0.0036)" d="M215 137c67 0 111 -37 111 -92c0 -90 -111 -182 -215 -182c-67 0 -111 37 -111 92c0 90 111 182 215 182z" fill="currentColor"/>
</g>
<g transform="translate(8.4488, 3.3143)">
<text font-family="serif" font-size="2.2001" text-anchor="start" fill="currentColor">
<tspan> = 132</tspan>
</text>
</g>
</a>
<g transform="translate(64.8239, 7.7743)">
<rect x="-0.0650" y="0.1861" width="0.1300" height="3.8139" ry="0.0400" fill="currentColor"/>
</g>
<g transform="translate(-0.0600, 13.1581)">
<rect x="0.0000" y="-7.4338" width="0.1600" height="14.8677" ry="0.0500" fill="currentColor"/>
</g>
<a style="color:inherit;" xlink:href="textedit:///Users/kapsitis/workspace-public/ddgatve-songs/songs-lt/lilypond/EiSkaudeGraude.ly:25:20:21">
<g transform="translate(26.9398, 7.7743)">
<path stroke-width="0.0800" stroke-linejoin="round" stroke-linecap="round" stroke="currentColor" fill="currentColor" d="M1.6042 -1.1950C2.7783 -1.9922 5.0385 -1.6523 5.9261 -0.5450L5.9261 -0.5450C5.0206 -1.5336 2.7604 -1.8736 1.6042 -1.1950z"/>
</g>
</a>
<a style="color:inherit;" xlink:href="textedit:///Users/kapsitis/workspace-public/ddgatve-songs/songs-lt/lilypond/EiSkaudeGraude.ly:38:5:6">
<g transform="translate(69.9358, 6.2743)">
<path transform="scale(0.0040, -0.0040)" d="M218 136c66 0 108 -36 108 -89c0 -89 -113 -183 -218 -183c-66 0 -108 36 -108 89c0 89 113 183 218 183z" fill="currentColor"/>
</g>
</a>
<a style="color:inherit;" xlink:href="textedit:///Users/kapsitis/workspace-public/ddgatve-songs/songs-lt/lilypond/EiSkaudeGraude.ly:53:63:64">
<g transform="translate(69.9358, 7.2743)">
<path transform="scale(0.0040, -0.0040)" d="M218 136c66 0 108 -36 108 -89c0 -89 -113 -183 -218 -183c-66 0 -108 36 -108 89c0 89 113 183 218 183z" fill="currentColor"/>
</g>
</a>
<g transform="translate(71.1750, 7.7743)">
<rect x="-0.0650" y="-4.5000" width="0.1300" height="2.8139" ry="0.0400" fill="currentColor"/>
</g>
<g transform="translate(71.2400, 3.3143)">
<path transform="scale(0.0040, -0.0040)" d="M0 0v-250h-16v250h16zM0 0c0 -197 207 -336 207 -533c0 -71 -15 -141 -41 -207c-5 -8 -13 -12 -20 -12c-13 0 -26 11 -23 27c26 61 42 126 42 192c0 103 -94 208 -165 283v250z" fill="currentColor"/>
</g>
<g transform="translate(70.0008, 7.7743)">
<rect x="-0.0650" y="-0.3139" width="0.1300" height="3.3139" ry="0.0400" fill="currentColor"/>
</g>
<g transform="translate(70.0658, 10.7343)">
<path transform="scale(0.0040, -0.0040)" d="M0 0h-16v250h16v-250zM0 0v250c97 59 224 148 224 259c0 57 -15 112 -40 163c-3 16 10 27 23 27c7 0 15 -3 20 -11c25 -56 40 -117 40 -179c0 -203 -267 -306 -267 -509z" fill="currentColor"/>
</g>
<g transform="translate(11.3724, 6.2743)">
<path transform="scale(0.0040, -0.0040)" d="M0 0c0 31 25 56 56 56s56 -25 56 -56s-25 -56 -56 -56s-56 25 -56 56z" fill="currentColor"/>
</g>
<a style="color:inherit;" xlink:href="textedit:///Users/kapsitis/workspace-public/ddgatve-songs/songs-lt/lilypond/EiSkaudeGraude.ly:53:15:16">
<g transform="translate(26.9398, 7.7743)">
<path stroke-width="0.0800" stroke-linejoin="round" stroke-linecap="round" stroke="currentColor" fill="currentColor" d="M0.4300 2.1950C1.1575 3.4545 3.4369 4.1665 4.7519 3.5450L4.7519 3.5450C3.4726 4.0519 1.1933 3.3399 0.4300 2.1950z"/>
</g>
</a>
<a style="color:inherit;" xlink:href="textedit:///Users/kapsitis/workspace-public/ddgatve-songs/songs-lt/lilypond/EiSkaudeGraude.ly:38:9:10">
<g transform="translate(73.2396, 6.2743)">
<path transform="scale(0.0040, -0.0040)" d="M218 136c66 0 108 -36 108 -89c0 -89 -113 -183 -218 -183c-66 0 -108 36 -108 89c0 89 113 183 218 183z" fill="currentColor"/>
</g>
</a>
<a style="color:inherit;" xlink:href="textedit:///Users/kapsitis/workspace-public/ddgatve-songs/songs-lt/lilypond/EiSkaudeGraude.ly:53:67:68">
<g transform="translate(73.2396, 7.2743)">
<path transform="scale(0.0040, -0.0040)" d="M218 136c66 0 108 -36 108 -89c0 -89 -113 -183 -218 -183c-66 0 -108 36 -108 89c0 89 113 183 218 183z" fill="currentColor"/>
</g>
</a>
<a style="color:inherit;" xlink:href="textedit:///Users/kapsitis/workspace-public/ddgatve-songs/songs-lt/lilypond/EiSkaudeGraude.ly:45:47:48">
<g transform="translate(72.6967, 14.7910)">
<text font-family="serif" font-size="2.4696" text-anchor="start" fill="currentColor">
<tspan>lė,</tspan>
</text>
</g>
</a>
<g transform="translate(74.9938, 6.2743)">
<path transform="scale(0.0040, -0.0040)" d="M0 0c0 31 25 56 56 56s56 -25 56 -56s-25 -56 -56 -56s-56 25 -56 56z" fill="currentColor"/>
</g>
<g transform="translate(74.4788, 7.7743)">
<rect x="-0.0650" y="-4.3333" width="0.1300" height="2.6472" ry="0.0400" fill="currentColor"/>
</g>
<g transform="translate(74.9938, 7.2743)">
<path transform="scale(0.0040, -0.0040)" d="M0 0c0 31 25 56 56 56s56 -25 56 -56s-25 -56 -56 -56s-56 25 -56 56z" fill="currentColor"/>
</g>
<g transform="translate(73.3046, 7.7743)">
<rect x="-0.0650" y="-0.3139" width="0.1300" height="3.3139" ry="0.0400" fill="currentColor"/>
</g>
<a style="color:inherit;" xlink:href="textedit:///Users/kapsitis/workspace-public/ddgatve-songs/songs-lt/lilypond/EiSkaudeGraude.ly:45:19:20">
<g transform="translate(32.9728, 14.7910)">
<rect x="0.0000" y="-0.5500" width="0.6600" height="0.1300" ry="0.0400" fill="currentColor"/>
</g>
</a>
<g transform="translate(10.8574, 7.7743)">
<rect x="-0.0650" y="-4.0000" width="0.1300" height="2.8139" ry="0.0400" fill="currentColor"/>
</g>
<g transform="translate(11.3724, 8.2743)">
<path transform="scale(0.0040, -0.0040)" d="M0 0c0 31 25 56 56 56s56 -25 56 -56s-25 -56 -56 -56s-56 25 -56 56z" fill="currentColor"/>
</g>
<g transform="translate(9.6832, 7.7743)">
<rect x="-0.0650" y="0.1861" width="0.1300" height="3.1472" ry="0.0400" fill="currentColor"/>
</g>
<g transform="translate(10.4901, 19.1424)">
<rect x="-0.0460" y="-2.8284" width="0.0919" height="2.0069" ry="0.0400" fill="currentColor"/>
</g>
<g transform="translate(9.6641, 19.1424)">
<rect x="-0.0460" y="0.1144" width="0.0919" height="2.2426" ry="0.0400" fill="currentColor"/>
</g>
<a style="color:inherit;" xlink:href="textedit:///Users/kapsitis/workspace-public/ddgatve-songs/songs-lt/lilypond/EiSkaudeGraude.ly:25:28:29">
<g transform="translate(36.4697, 5.5843)">
<polygon stroke-linejoin="round" stroke-linecap="round" stroke-width="0.0800" fill="currentColor" stroke="currentColor" points="6.5711 -0.2000 6.5711 0.2000 0.0400 0.2000 0.0400 -0.2000"/>
</g>
</a>
<a style="color:inherit;" xlink:href="textedit:///Users/kapsitis/workspace-public/ddgatve-songs/songs-lt/lilypond/EiSkaudeGraude.ly:45:28:29">
<g transform="translate(51.1062, 14.7910)">
<rect x="0.0000" y="-0.5500" width="0.6600" height="0.1300" ry="0.0400" fill="currentColor"/>
</g>
</a>
<a style="color:inherit;" xlink:href="textedit:///Users/kapsitis/workspace-public/ddgatve-songs/songs-lt/lilypond/EiSkaudeGraude.ly:34:52:53">
<g transform="translate(14.4087, 18.0817)">
<path transform="scale(0.0028, -0.0028)" d="M208 139c69 0 117 -40 117 -99c0 -91 -107 -179 -209 -179c-69 0 -116 40 -116 99c0 91 106 179 208 179z" fill="currentColor"/>
</g>
</a>
<a style="color:inherit;" xlink:href="textedit:///Users/kapsitis/workspace-public/ddgatve-songs/songs-lt/lilypond/EiSkaudeGraude.ly:35:52:53">
<g transform="translate(14.4087, 18.7888)">
<path transform="scale(0.0028, -0.0028)" d="M208 139c69 0 117 -40 117 -99c0 -91 -107 -179 -209 -179c-69 0 -116 40 -116 99c0 91 106 179 208 179z" fill="currentColor"/>
</g>
</a>
<g transform="translate(15.2806, 19.1424)">
<rect x="-0.0460" y="-3.1820" width="0.0919" height="2.0069" ry="0.0400" fill="currentColor"/>
</g>
<g transform="translate(15.3266, 16.0004)">
<path transform="scale(0.0028, -0.0028)" d="M115 -723c0 12 43 85 43 193c0 101 -90 205 -158 280h-21v250h21c0 -196 207 -334 207 -530c0 -71 -15 -140 -41 -206c-5 -10 -14 -13 -23 -13c-14 0 -28 10 -28 26z" fill="currentColor"/>
</g>
<g transform="translate(14.4547, 19.1424)">
<rect x="-0.0460" y="-0.2391" width="0.0919" height="2.3605" ry="0.0400" fill="currentColor"/>
</g>
<g transform="translate(14.5006, 21.2237)">
<path transform="scale(0.0028, -0.0028)" d="M176 675c0 16 14 26 28 26c9 0 17 -4 22 -14c25 -56 40 -116 40 -178c0 -203 -266 -306 -266 -509h-21v250h21c94 60 217 150 217 259c0 93 -41 155 -41 166z" fill="currentColor"/>
</g>
<a style="color:inherit;" xlink:href="textedit:///Users/kapsitis/workspace-public/ddgatve-songs/songs-lt/lilypond/EiSkaudeGraude.ly:25:5:6">
<g transform="translate(9.6182, 6.7743)">
<path transform="scale(0.0040, -0.0040)" d="M218 136c66 0 108 -36 108 -89c0 -89 -113 -183 -218 -183c-66 0 -108 36 -108 89c0 89 113 183 218 183z" fill="currentColor"/>
</g>
</a>
<a style="color:inherit;" xlink:href="textedit:///Users/kapsitis/workspace-public/ddgatve-songs/songs-lt/lilypond/EiSkaudeGraude.ly:25:41:42">
<g transform="translate(55.7169, 1.7502)">
<line stroke-linejoin="round" stroke-linecap="round" stroke-width="0.1600" stroke="currentColor" x1="4.7032" y1="-0.0000" x2="4.7032" y2="0.7000"/>
</g>
<g transform="translate(55.7169, 1.7502)">
<line stroke-linejoin="round" stroke-linecap="round" stroke-width="0.1600" stroke="currentColor" x1="-0.2000" y1="-0.0000" x2="-0.2000" y2="0.7000"/>
</g>
<g transform="translate(55.7169, 1.7502)">
<line stroke-linejoin="round" stroke-linecap="round" stroke-width="0.1600" stroke="currentColor" x1="4.7032" y1="-0.0000" x2="3.2955" y2="-0.0000"/>
</g>
<g transform="translate(55.7169, 1.7502)">
<line stroke-linejoin="round" stroke-linecap="round" stroke-width="0.1600" stroke="currentColor" x1="-0.2000" y1="-0.0000" x2="1.4077" y2="-0.0000"/>
</g>
</a>
<a style="color:inherit;" xlink:href="textedit:///Users/kapsitis/workspace-public/ddgatve-songs/songs-lt/lilypond/EiSkaudeGraude.ly:25:10:11">
<g transform="translate(17.2629, 6.7743)">
<path transform="scale(0.0040, -0.0040)" d="M218 136c66 0 108 -36 108 -89c0 -89 -113 -183 -218 -183c-66 0 -108 36 -108 89c0 89 113 183 218 183z" fill="currentColor"/>
</g>
</a>
<a style="color:inherit;" xlink:href="textedit:///Users/kapsitis/workspace-public/ddgatve-songs/songs-lt/lilypond/EiSkaudeGraude.ly:53:5:6">
<g transform="translate(17.2629, 7.7743)">
<path transform="scale(0.0040, -0.0040)" d="M218 136c66 0 108 -36 108 -89c0 -89 -113 -183 -218 -183c-66 0 -108 36 -108 89c0 89 113 183 218 183z" fill="currentColor"/>
</g>
</a>
<a style="color:inherit;" xlink:href="textedit:///Users/kapsitis/workspace-public/ddgatve-songs/songs-lt/lilypond/EiSkaudeGraude.ly:45:3:4">
<g transform="translate(15.6616, 14.7910)">
<text font-family="serif" font-size="2.4696" text-anchor="start" fill="currentColor">
<tspan>skau</tspan>
</text>
</g>
</a>
<a style="color:inherit;" xlink:href="textedit:///Users/kapsitis/workspace-public/ddgatve-songs/songs-lt/lilypond/EiSkaudeGraude.ly:34:56:57">
<g transform="translate(17.2629, 18.4353)">
<path transform="scale(0.0028, -0.0028)" d="M208 139c69 0 117 -40 117 -99c0 -91 -107 -179 -209 -179c-69 0 -116 40 -116 99c0 91 106 179 208 179z" fill="currentColor"/>
</g>
</a>
<a style="color:inherit;" xlink:href="textedit:///Users/kapsitis/workspace-public/ddgatve-songs/songs-lt/lilypond/EiSkaudeGraude.ly:35:56:57">
<g transform="translate(17.2629, 19.1424)">
<path transform="scale(0.0028, -0.0028)" d="M208 139c69 0 117 -40 117 -99c0 -91 -107 -179 -209 -179c-69 0 -116 40 -116 99c0 91 106 179 208 179z" fill="currentColor"/>
</g>
</a>
<g transform="translate(18.5022, 7.7743)">
<rect x="-0.0650" y="-4.0000" width="0.1300" height="2.8139" ry="0.0400" fill="currentColor"/>
</g>
<g transform="translate(17.3279, 7.7743)">
<rect x="-0.0650" y="0.1861" width="0.1300" height="3.1472" ry="0.0400" fill="currentColor"/>
</g>
<g transform="translate(18.1349, 19.1424)">
<rect x="-0.0460" y="-2.8284" width="0.0919" height="2.0069" ry="0.0400" fill="currentColor"/>
</g>
<g transform="translate(17.3089, 19.1424)">
<rect x="-0.0460" y="0.1144" width="0.0919" height="2.2426" ry="0.0400" fill="currentColor"/>
</g>
<a style="color:inherit;" xlink:href="textedit:///Users/kapsitis/workspace-public/ddgatve-songs/songs-lt/lilypond/EiSkaudeGraude.ly:53:0:1">
<g transform="translate(9.6182, 7.7743)">
<path transform="scale(0.0040, -0.0040)" d="M218 136c66 0 108 -36 108 -89c0 -89 -113 -183 -218 -183c-66 0 -108 36 -108 89c0 89 113 183 218 183z" fill="currentColor"/>
</g>
</a>
<a style="color:inherit;" xlink:href="textedit:///Users/kapsitis/workspace-public/ddgatve-songs/songs-lt/lilypond/EiSkaudeGraude.ly:25:41:42">
<g transform="translate(57.5247, 2.3180)">
<text font-family="serif" font-style="italic" font-size="1.7461" text-anchor="start" fill="currentColor">
<tspan>4</tspan>
</text>
</g>
</a>
<a style="color:inherit;" xlink:href="textedit:///Users/kapsitis/workspace-public/ddgatve-songs/songs-lt/lilypond/EiSkaudeGraude.ly:25:13:14">
<g transform="translate(22.2467, 7.2743)">
<path transform="scale(0.0040, -0.0040)" d="M218 136c66 0 108 -36 108 -89c0 -89 -113 -183 -218 -183c-66 0 -108 36 -108 89c0 89 113 183 218 183z" fill="currentColor"/>
</g>
</a>
<a style="color:inherit;" xlink:href="textedit:///Users/kapsitis/workspace-public/ddgatve-songs/songs-lt/lilypond/EiSkaudeGraude.ly:53:8:9">
<g transform="translate(22.2467, 8.2743)">
<path transform="scale(0.0040, -0.0040)" d="M218 136c66 0 108 -36 108 -89c0 -89 -113 -183 -218 -183c-66 0 -108 36 -108 89c0 89 113 183 218 183z" fill="currentColor"/>
</g>
</a>
<a style="color:inherit;" xlink:href="textedit:///Users/kapsitis/workspace-public/ddgatve-songs/songs-lt/lilypond/EiSkaudeGraude.ly:45:11:12">
<g transform="translate(21.7379, 14.7910)">
<text font-family="serif" font-size="2.4696" text-anchor="start" fill="currentColor">
<tspan>dė</tspan>
</text>
</g>
</a>
<a style="color:inherit;" xlink:href="textedit:///Users/kapsitis/workspace-public/ddgatve-songs/songs-lt/lilypond/EiSkaudeGraude.ly:34:59:60">
<g transform="translate(22.2467, 18.7888)">
<path transform="scale(0.0028, -0.0028)" d="M208 139c69 0 117 -40 117 -99c0 -91 -107 -179 -209 -179c-69 0 -116 40 -116 99c0 91 106 179 208 179z" fill="currentColor"/>
</g>
</a>
<a style="color:inherit;" xlink:href="textedit:///Users/kapsitis/workspace-public/ddgatve-songs/songs-lt/lilypond/EiSkaudeGraude.ly:35:59:60">
<g transform="translate(22.2467, 19.4959)">
<path transform="scale(0.0028, -0.0028)" d="M208 139c69 0 117 -40 117 -99c0 -91 -107 -179 -209 -179c-69 0 -116 40 -116 99c0 91 106 179 208 179z" fill="currentColor"/>
</g>
</a>
<g transform="translate(23.4859, 7.7743)">
<rect x="-0.0650" y="-3.7500" width="0.1300" height="3.0639" ry="0.0400" fill="currentColor"/>
</g>
<g transform="translate(23.5509, 4.0643)">
<path transform="scale(0.0040, -0.0040)" d="M0 0v-250h-16v250h16zM0 0c0 -197 207 -336 207 -533c0 -71 -15 -141 -41 -207c-5 -8 -13 -12 -20 -12c-13 0 -26 11 -23 27c26 61 42 126 42 192c0 103 -94 208 -165 283v250z" fill="currentColor"/>
</g>
<g transform="translate(22.3117, 7.7743)">
<rect x="-0.0650" y="0.6861" width="0.1300" height="3.0639" ry="0.0400" fill="currentColor"/>
</g>
<g transform="translate(22.3767, 11.4843)">
<path transform="scale(0.0040, -0.0040)" d="M0 0h-16v250h16v-250zM0 0v250c97 59 224 148 224 259c0 57 -15 112 -40 163c-3 16 10 27 23 27c7 0 15 -3 20 -11c25 -56 40 -117 40 -179c0 -203 -267 -306 -267 -509z" fill="currentColor"/>
</g>
<g transform="translate(23.1186, 19.1424)">
<rect x="-0.0460" y="-2.6517" width="0.0919" height="2.1837" ry="0.0400" fill="currentColor"/>
</g>
<g transform="translate(23.1645, 16.5307)">
<path transform="scale(0.0028, -0.0028)" d="M115 -723c0 12 43 85 43 193c0 101 -90 205 -158 280h-21v250h21c0 -196 207 -334 207 -530c0 -71 -15 -140 -41 -206c-5 -10 -14 -13 -23 -13c-14 0 -28 10 -28 26z" fill="currentColor"/>
</g>
<g transform="translate(22.2926, 19.1424)">
<rect x="-0.0460" y="0.4680" width="0.0919" height="2.1837" ry="0.0400" fill="currentColor"/>
</g>
<g transform="translate(22.3386, 21.7540)">
<path transform="scale(0.0028, -0.0028)" d="M176 675c0 16 14 26 28 26c9 0 17 -4 22 -14c25 -56 40 -116 40 -178c0 -203 -266 -306 -266 -509h-21v250h21c94 60 217 150 217 259c0 93 -41 155 -41 166z" fill="currentColor"/>
</g>
<a style="color:inherit;" xlink:href="textedit:///Users/kapsitis/workspace-public/ddgatve-songs/songs-lt/lilypond/EiSkaudeGraude.ly:53:31:32">
<g transform="translate(54.5427, 12.5409)">
<line stroke-linejoin="round" stroke-linecap="round" stroke-width="0.1600" stroke="currentColor" x1="4.7032" y1="-0.0000" x2="4.7032" y2="-0.7000"/>
</g>
<g transform="translate(54.5427, 12.5409)">
<line stroke-linejoin="round" stroke-linecap="round" stroke-width="0.1600" stroke="currentColor" x1="-0.2000" y1="-0.0000" x2="-0.2000" y2="-0.7000"/>
</g>
<g transform="translate(54.5427, 12.5409)">
<line stroke-linejoin="round" stroke-linecap="round" stroke-width="0.1600" stroke="currentColor" x1="4.7032" y1="-0.0000" x2="3.2955" y2="-0.0000"/>
</g>
<g transform="translate(54.5427, 12.5409)">
<line stroke-linejoin="round" stroke-linecap="round" stroke-width="0.1600" stroke="currentColor" x1="-0.2000" y1="-0.0000" x2="1.4077" y2="-0.0000"/>
</g>
</a>
<a style="color:inherit;" xlink:href="textedit:///Users/kapsitis/workspace-public/ddgatve-songs/songs-lt/lilypond/EiSkaudeGraude.ly:53:31:32">
<g transform="translate(56.3505, 13.1088)">
<text font-family="serif" font-style="italic" font-size="1.7461" text-anchor="start" fill="currentColor">
<tspan>4</tspan>
</text>
</g>
</a>
<a style="color:inherit;" xlink:href="textedit:///Users/kapsitis/workspace-public/ddgatve-songs/songs-lt/lilypond/EiSkaudeGraude.ly:25:18:19">
<g transform="translate(26.9398, 7.7743)">
<path transform="scale(0.0040, -0.0040)" d="M218 136c66 0 108 -36 108 -89c0 -89 -113 -183 -218 -183c-66 0 -108 36 -108 89c0 89 113 183 218 183z" fill="currentColor"/>
</g>
</a>
<a style="color:inherit;" xlink:href="textedit:///Users/kapsitis/workspace-public/ddgatve-songs/songs-lt/lilypond/EiSkaudeGraude.ly:53:13:14">
<g transform="translate(26.9398, 8.7743)">
<path transform="scale(0.0040, -0.0040)" d="M218 136c66 0 108 -36 108 -89c0 -89 -113 -183 -218 -183c-66 0 -108 36 -108 89c0 89 113 183 218 183z" fill="currentColor"/>
</g>
</a>
<a style="color:inherit;" xlink:href="textedit:///Users/kapsitis/workspace-public/ddgatve-songs/songs-lt/lilypond/EiSkaudeGraude.ly:45:14:15">
<g transform="translate(26.9398, 14.7910)">
<text font-family="serif" font-size="2.4696" text-anchor="start" fill="currentColor">
<tspan>grau</tspan>
</text>
</g>
</a>
<g transform="translate(28.1790, 7.7743)">
<rect x="-0.0650" y="-3.3333" width="0.1300" height="3.1472" ry="0.0400" fill="currentColor"/>
</g>
<g transform="translate(27.0048, 7.7743)">
<rect x="-0.0650" y="1.1861" width="0.1300" height="2.8139" ry="0.0400" fill="currentColor"/>
</g>
<a style="color:inherit;" xlink:href="textedit:///Users/kapsitis/workspace-public/ddgatve-songs/songs-lt/lilypond/EiSkaudeGraude.ly:25:22:23">
<g transform="translate(31.9917, 8.2743)">
<path transform="scale(0.0040, -0.0040)" d="M218 136c66 0 108 -36 108 -89c0 -89 -113 -183 -218 -183c-66 0 -108 36 -108 89c0 89 113 183 218 183z" fill="currentColor"/>
</g>
</a>
<a style="color:inherit;" xlink:href="textedit:///Users/kapsitis/workspace-public/ddgatve-songs/songs-lt/lilypond/EiSkaudeGraude.ly:53:17:18">
<g transform="translate(31.9917, 10.2743)">
<path transform="scale(0.0040, -0.0040)" d="M218 136c66 0 108 -36 108 -89c0 -89 -113 -183 -218 -183c-66 0 -108 36 -108 89c0 89 113 183 218 183z" fill="currentColor"/>
</g>
</a>
<g transform="translate(33.2309, 7.7743)">
<rect x="-0.0650" y="-3.0000" width="0.1300" height="3.3139" ry="0.0400" fill="currentColor"/>
</g>
<g transform="translate(33.2959, 4.8143)">
<path transform="scale(0.0040, -0.0040)" d="M0 0v-250h-16v250h16zM0 0c0 -197 207 -336 207 -533c0 -71 -15 -141 -41 -207c-5 -8 -13 -12 -20 -12c-13 0 -26 11 -23 27c26 61 42 126 42 192c0 103 -94 208 -165 283v250z" fill="currentColor"/>
</g>
<g transform="translate(32.0567, 7.7743)">
<rect x="-0.0650" y="2.6861" width="0.1300" height="2.8139" ry="0.0400" fill="currentColor"/>
</g>
<g transform="translate(32.1217, 13.2343)">
<path transform="scale(0.0040, -0.0040)" d="M0 0h-16v250h16v-250zM0 0v250c97 59 224 148 224 259c0 57 -15 112 -40 163c-3 16 10 27 23 27c7 0 15 -3 20 -11c25 -56 40 -117 40 -179c0 -203 -267 -306 -267 -509z" fill="currentColor"/>
</g>
<a style="color:inherit;" xlink:href="textedit:///Users/kapsitis/workspace-public/ddgatve-songs/songs-lt/lilypond/EiSkaudeGraude.ly:45:38:39">
<g transform="translate(62.5505, 14.7910)">
<rect x="0.0000" y="-0.5500" width="0.6600" height="0.1300" ry="0.0400" fill="currentColor"/>
</g>
</a>
<a style="color:inherit;" xlink:href="textedit:///Users/kapsitis/workspace-public/ddgatve-songs/songs-lt/lilypond/EiSkaudeGraude.ly:25:26:27">
<g transform="translate(35.2955, 8.2743)">
<path transform="scale(0.0040, -0.0040)" d="M218 136c66 0 108 -36 108 -89c0 -89 -113 -183 -218 -183c-66 0 -108 36 -108 89c0 89 113 183 218 183z" fill="currentColor"/>
</g>
</a>
<a style="color:inherit;" xlink:href="textedit:///Users/kapsitis/workspace-public/ddgatve-songs/songs-lt/lilypond/EiSkaudeGraude.ly:53:21:22">
<g transform="translate(35.2955, 10.2743)">
<path transform="scale(0.0040, -0.0040)" d="M218 136c66 0 108 -36 108 -89c0 -89 -113 -183 -218 -183c-66 0 -108 36 -108 89c0 89 113 183 218 183z" fill="currentColor"/>
</g>
</a>
<a style="color:inherit;" xlink:href="textedit:///Users/kapsitis/workspace-public/ddgatve-songs/songs-lt/lilypond/EiSkaudeGraude.ly:45:22:23">
<g transform="translate(35.2955, 14.7910)">
<text font-family="serif" font-size="2.4696" text-anchor="start" fill="currentColor">
<tspan>dė</tspan>
</text>
</g>
</a>
<g transform="translate(36.5347, 7.7743)">
<rect x="-0.0650" y="-2.1900" width="0.1300" height="2.5039" ry="0.0400" fill="currentColor"/>
</g>
<g transform="translate(37.0497, 10.2743)">
<path transform="scale(0.0040, -0.0040)" d="M0 0c0 31 25 56 56 56s56 -25 56 -56s-25 -56 -56 -56s-56 25 -56 56z" fill="currentColor"/>
</g>
<g transform="translate(35.3605, 7.7743)">
<rect x="-0.0650" y="2.6861" width="0.1300" height="2.3139" ry="0.0400" fill="currentColor"/>
</g>
<a style="color:inherit;" xlink:href="textedit:///Users/kapsitis/workspace-public/ddgatve-songs/songs-lt/lilypond/EiSkaudeGraude.ly:38:3:4">
<g transform="translate(64.7589, 7.7743)">
<path stroke-width="0.0800" stroke-linejoin="round" stroke-linecap="round" stroke="currentColor" fill="currentColor" d="M1.6042 -2.1950C2.5826 -3.2509 4.9195 -3.4348 6.0511 -2.5450L6.0511 -2.5450C4.9290 -3.3152 2.5920 -3.1312 1.6042 -2.1950z"/>
</g>
</a>
<a style="color:inherit;" xlink:href="textedit:///Users/kapsitis/workspace-public/ddgatve-songs/songs-lt/lilypond/EiSkaudeGraude.ly:25:30:31">
<g transform="translate(38.5360, 8.7743)">
<path transform="scale(0.0040, -0.0040)" d="M218 136c66 0 108 -36 108 -89c0 -89 -113 -183 -218 -183c-66 0 -108 36 -108 89c0 89 113 183 218 183z" fill="currentColor"/>
</g>
</a>
<g transform="translate(39.7752, 7.7743)">
<rect x="-0.0650" y="-2.1900" width="0.1300" height="3.0039" ry="0.0400" fill="currentColor"/>
</g>
<a style="color:inherit;" xlink:href="textedit:///Users/kapsitis/workspace-public/ddgatve-songs/songs-lt/lilypond/EiSkaudeGraude.ly:45:0:1">
<g transform="translate(9.1777, 14.7910)">
<text font-family="serif" font-size="2.4696" text-anchor="start" fill="currentColor">
<tspan>Ei</tspan>
</text>
</g>
</a>
<a style="color:inherit;" xlink:href="textedit:///Users/kapsitis/workspace-public/ddgatve-songs/songs-lt/lilypond/EiSkaudeGraude.ly:53:59:60">
<g transform="translate(64.7589, 7.7743)">
<path stroke-width="0.0800" stroke-linejoin="round" stroke-linecap="round" stroke="currentColor" fill="currentColor" d="M0.4300 2.1950C1.8206 2.7614 4.1923 1.8814 4.8769 0.5450L4.8769 0.5450C4.1505 1.7688 1.7788 2.6489 0.4300 2.1950z"/>
</g>
</a>
<a style="color:inherit;" xlink:href="textedit:///Users/kapsitis/workspace-public/ddgatve-songs/songs-lt/lilypond/EiSkaudeGraude.ly:25:32:33">
<g transform="translate(41.7765, 8.2743)">
<path transform="scale(0.0040, -0.0040)" d="M218 136c66 0 108 -36 108 -89c0 -89 -113 -183 -218 -183c-66 0 -108 36 -108 89c0 89 113 183 218 183z" fill="currentColor"/>
</g>
</a>
<g transform="translate(43.0158, 7.7743)">
<rect x="-0.0650" y="-2.1900" width="0.1300" height="2.5039" ry="0.0400" fill="currentColor"/>
</g>
<a style="color:inherit;" xlink:href="textedit:///Users/kapsitis/workspace-public/ddgatve-songs/songs-lt/lilypond/EiSkaudeGraude.ly:45:44:45">
<g transform="translate(69.5587, 14.7910)">
<rect x="0.0000" y="-0.5500" width="0.6600" height="0.1300" ry="0.0400" fill="currentColor"/>
</g>
</a>
<a style="color:inherit;" xlink:href="textedit:///Users/kapsitis/workspace-public/ddgatve-songs/songs-lt/lilypond/EiSkaudeGraude.ly:25:37:38">
<g transform="translate(46.6158, 7.7743)">
<path transform="scale(0.0040, -0.0040)" d="M218 136c66 0 108 -36 108 -89c0 -89 -113 -183 -218 -183c-66 0 -108 36 -108 89c0 89 113 183 218 183z" fill="currentColor"/>
</g>
</a>
<a style="color:inherit;" xlink:href="textedit:///Users/kapsitis/workspace-public/ddgatve-songs/songs-lt/lilypond/EiSkaudeGraude.ly:53:27:28">
<g transform="translate(46.6158, 8.7743)">
<path transform="scale(0.0040, -0.0040)" d="M218 136c66 0 108 -36 108 -89c0 -89 -113 -183 -218 -183c-66 0 -108 36 -108 89c0 89 113 183 218 183z" fill="currentColor"/>
</g>
</a>
<a style="color:inherit;" xlink:href="textedit:///Users/kapsitis/workspace-public/ddgatve-songs/songs-lt/lilypond/EiSkaudeGraude.ly:45:25:26">
<g transform="translate(45.6973, 14.7910)">
<text font-family="serif" font-size="2.4696" text-anchor="start" fill="currentColor">
<tspan>mo</tspan>
</text>
</g>
</a>
<a style="color:inherit;" xlink:href="textedit:///Users/kapsitis/workspace-public/ddgatve-songs/songs-lt/lilypond/EiSkaudeGraude.ly:34:70:71">
<g transform="translate(46.6158, 19.1424)">
<path transform="scale(0.0028, -0.0028)" d="M208 139c69 0 117 -40 117 -99c0 -91 -107 -179 -209 -179c-69 0 -116 40 -116 99c0 91 106 179 208 179z" fill="currentColor"/>
</g>
</a>
<a style="color:inherit;" xlink:href="textedit:///Users/kapsitis/workspace-public/ddgatve-songs/songs-lt/lilypond/EiSkaudeGraude.ly:35:70:71">
<g transform="translate(46.6158, 19.8495)">
<path transform="scale(0.0028, -0.0028)" d="M208 139c69 0 117 -40 117 -99c0 -91 -107 -179 -209 -179c-69 0 -116 40 -116 99c0 91 106 179 208 179z" fill="currentColor"/>
</g>
</a>
<g transform="translate(48.3700, 7.2743)">
<path transform="scale(0.0040, -0.0040)" d="M0 0c0 31 25 56 56 56s56 -25 56 -56s-25 -56 -56 -56s-56 25 -56 56z" fill="currentColor"/>
</g>
<g transform="translate(47.8550, 7.7743)">
<rect x="-0.0650" y="-3.3333" width="0.1300" height="3.1472" ry="0.0400" fill="currentColor"/>
</g>
<g transform="translate(48.3700, 9.2743)">
<path transform="scale(0.0040, -0.0040)" d="M0 0c0 31 25 56 56 56s56 -25 56 -56s-25 -56 -56 -56s-56 25 -56 56z" fill="currentColor"/>
</g>
<g transform="translate(46.6808, 7.7743)">
<rect x="-0.0650" y="1.1861" width="0.1300" height="2.8139" ry="0.0400" fill="currentColor"/>
</g>
<g transform="translate(0.0000, 29.4457)">
<line stroke-linejoin="round" stroke-linecap="round" stroke-width="0.1000" stroke="currentColor" x1="0.0500" y1="0" x2="79.6177" y2="0"/>
</g>
<g transform="translate(0.0000, 28.4457)">
<line stroke-linejoin="round" stroke-linecap="round" stroke-width="0.1000" stroke="currentColor" x1="0.0500" y1="0" x2="79.6177" y2="0"/>
</g>
<g transform="translate(0.0000, 27.4457)">
<line stroke-linejoin="round" stroke-linecap="round" stroke-width="0.1000" stroke="currentColor" x1="0.0500" y1="0" x2="79.6177" y2="0"/>
</g>
<g transform="translate(0.0000, 26.4457)">
<line stroke-linejoin="round" stroke-linecap="round" stroke-width="0.1000" stroke="currentColor" x1="0.0500" y1="0" x2="79.6177" y2="0"/>
</g>
<g transform="translate(0.0000, 25.4457)">
<line stroke-linejoin="round" stroke-linecap="round" stroke-width="0.1000" stroke="currentColor" x1="0.0500" y1="0" x2="79.6177" y2="0"/>
</g>
<g transform="translate(63.4314, 27.4457)">
<rect x="0.0000" y="-2.0000" width="0.1900" height="4.0000" ry="0.0000" fill="currentColor"/>
</g>
<g transform="translate(43.6519, 27.4457)">
<rect x="0.0000" y="-2.0000" width="0.1900" height="4.0000" ry="0.0000" fill="currentColor"/>
</g>
<g transform="translate(27.0995, 27.4457)">
<rect x="0.0000" y="-2.0000" width="0.1900" height="4.0000" ry="0.0000" fill="currentColor"/>
</g>
<g transform="translate(77.8277, 26.9457)">
<path transform="scale(0.0040, -0.0040)" d="M0 0c0 31 25 56 56 56s56 -25 56 -56s-25 -56 -56 -56s-56 25 -56 56z" fill="currentColor"/>
</g>
<g transform="translate(77.8277, 27.9457)">
<path transform="scale(0.0040, -0.0040)" d="M0 0c0 31 25 56 56 56s56 -25 56 -56s-25 -56 -56 -56s-56 25 -56 56z" fill="currentColor"/>
</g>
<g transform="translate(79.0677, 27.4457)">
<rect x="0.0000" y="-2.0000" width="0.6000" height="4.0000" ry="0.0000" fill="currentColor"/>
</g>
<g transform="translate(78.5777, 27.4457)">
<rect x="0.0000" y="-2.0000" width="0.1900" height="4.0000" ry="0.0000" fill="currentColor"/>
</g>
<g transform="translate(7.8900, 26.9457)">
<path transform="scale(0.0040, -0.0040)" d="M0 0c0 31 25 56 56 56s56 -25 56 -56s-25 -56 -56 -56s-56 25 -56 56z" fill="currentColor"/>
</g>
<g transform="translate(7.8900, 27.9457)">
<path transform="scale(0.0040, -0.0040)" d="M0 0c0 31 25 56 56 56s56 -25 56 -56s-25 -56 -56 -56s-56 25 -56 56z" fill="currentColor"/>
</g>
<g transform="translate(7.4000, 27.4457)">
<rect x="0.0000" y="-2.0000" width="0.1900" height="4.0000" ry="0.0000" fill="currentColor"/>
</g>
<g transform="translate(6.5000, 27.4457)">
<rect x="0.0000" y="-2.0000" width="0.6000" height="4.0000" ry="0.0000" fill="currentColor"/>
</g>
<a style="color:inherit;" xlink:href="textedit:///Users/kapsitis/workspace-public/ddgatve-songs/songs-lt/lilypond/EiSkaudeGraude.ly:55:65:66">
<g transform="translate(45.1463, 27.4457)">
<path transform="scale(0.0040, -0.0040)" d="M218 136c66 0 108 -36 108 -89c0 -89 -113 -183 -218 -183c-66 0 -108 36 -108 89c0 89 113 183 218 183z" fill="currentColor"/>
</g>
</a>
<g transform="translate(-0.8877, 24.3752)">
<text font-family="serif" font-size="1.7461" text-anchor="start" fill="currentColor">
<tspan>5</tspan>
</text>
</g>
<g transform="translate(0.8000, 28.4457)">
<path transform="scale(0.0040, -0.0040)" d="M266 -635h-6c-108 0 -195 88 -195 197c0 58 53 103 112 103c54 0 95 -47 95 -103c0 -52 -43 -95 -95 -95c-11 0 -21 2 -31 6c26 -39 68 -65 117 -65h4zM461 -203c68 24 113 90 113 164c0 90 -66 179 -173 190c19 -89 48 -242 60 -354zM74 28c0 -145 141 -247 264 -247
c1 0 47 0 82 6c-7 64 -29 203 -63 364c-79 -8 -124 -61 -124 -119c0 -44 25 -91 81 -123c5 -5 7 -10 7 -15c0 -11 -10 -22 -22 -22c-15 0 -126 62 -126 187c0 88 58 174 160 197c-14 58 -29 117 -46 175c-107 -121 -213 -243 -213 -403zM250 553c-29 96 -52 170 -52 346
c0 115 55 224 149 292c6 5 14 5 20 0c68 -80 133 -245 133 -358c0 -143 -86 -255 -180 -364c21 -68 39 -138 56 -207c2 0 7 1 13 1c155 0 256 -128 256 -261c0 -113 -74 -212 -180 -246c3 -35 5 -70 5 -105c0 -19 -1 -39 -2 -58c-7 -119 -88 -225 -202 -228l1 43
c93 2 153 92 159 191c1 18 2 37 2 55c0 31 -1 61 -4 92c-5 -1 -44 -8 -89 -8c-193 0 -333 180 -333 374c0 177 131 306 248 441zM428 916c0 34 1 66 -20 129c-99 -48 -162 -149 -162 -259c0 -52 12 -115 36 -194c80 97 146 198 146 324z" fill="currentColor"/>
</g>
<g transform="translate(4.3000, 25.4457)">
<path transform="scale(0.0040, -0.0040)" d="M216 -312c0 -10 -8 -19 -18 -19s-19 9 -19 19v145l-83 -31v-158c0 -10 -9 -19 -19 -19s-18 9 -18 19v145l-32 -12c-2 -1 -5 -1 -7 -1c-11 0 -20 9 -20 20v60c0 8 5 16 13 19l46 16v160l-32 -11c-2 -1 -5 -1 -7 -1c-11 0 -20 9 -20 20v60c0 8 5 15 13 18l46 17v158
c0 10 8 19 18 19s19 -9 19 -19v-145l83 31v158c0 10 9 19 19 19s18 -9 18 -19v-145l32 12c2 1 5 1 7 1c11 0 20 -9 20 -20v-60c0 -8 -5 -16 -13 -19l-46 -16v-160l32 11c2 1 5 1 7 1c11 0 20 -9 20 -20v-60c0 -8 -5 -15 -13 -18l-46 -17v-158zM96 65v-160l83 30v160z" fill="currentColor"/>
</g>
<a style="color:inherit;" xlink:href="textedit:///Users/kapsitis/workspace-public/ddgatve-songs/songs-lt/lilypond/EiSkaudeGraude.ly:55:14:15">
<g transform="translate(9.7437, 27.4457)">
<path stroke-width="0.0800" stroke-linejoin="round" stroke-linecap="round" stroke="currentColor" fill="currentColor" d="M4.8162 0.7496C4.8856 0.6846 4.9499 0.6163 5.0084 0.5450L5.0084 0.5450C4.9489 0.6089 4.8836 0.6702 4.8132 0.7287z"/>
</g>
<g transform="translate(9.7437, 27.4457)">
<path stroke-width="0.0800" stroke-linejoin="round" stroke-linecap="round" stroke="currentColor" fill="currentColor" d="M4.2087 1.1757C4.2999 1.1273 4.3875 1.0754 4.4710 1.0202L4.4643 0.9732C4.3801 1.0233 4.2918 1.0705 4.2001 1.1148z"/>
</g>
<g transform="translate(9.7437, 27.4457)">
<path stroke-width="0.0800" stroke-linejoin="round" stroke-linecap="round" stroke="currentColor" fill="currentColor" d="M3.4694 1.4727C3.5740 1.4421 3.6767 1.4078 3.7770 1.3699L3.7661 1.2934C3.6655 1.3284 3.5624 1.3604 3.4575 1.3892z"/>
</g>
<g transform="translate(9.7437, 27.4457)">
<path stroke-width="0.0800" stroke-linejoin="round" stroke-linecap="round" stroke="currentColor" fill="currentColor" d="M2.6600 1.6319C2.7698 1.6203 2.8794 1.6047 2.9882 1.5854L2.9756 1.4966C2.8668 1.5155 2.7571 1.5311 2.6474 1.5432z"/>
</g>
<g transform="translate(9.7437, 27.4457)">
<path stroke-width="0.0800" stroke-linejoin="round" stroke-linecap="round" stroke="currentColor" fill="currentColor" d="M1.8424 1.6446C1.9492 1.6531 2.0574 1.6574 2.1664 1.6577L2.1546 1.5742C2.0458 1.5757 1.9379 1.5737 1.8315 1.5680z"/>
</g>
<g transform="translate(9.7437, 27.4457)">
<path stroke-width="0.0800" stroke-linejoin="round" stroke-linecap="round" stroke="currentColor" fill="currentColor" d="M1.0784 1.5019C1.1740 1.5317 1.2726 1.5571 1.3736 1.5782L1.3650 1.5173C1.2645 1.5003 1.1666 1.4796 1.0718 1.4549z"/>
</g>
<g transform="translate(9.7437, 27.4457)">
<path stroke-width="0.0800" stroke-linejoin="round" stroke-linecap="round" stroke="currentColor" fill="currentColor" d="M0.4300 1.1950C0.5060 1.2473 0.5867 1.2949 0.6715 1.3380L0.6686 1.3171C0.5847 1.2805 0.5050 1.2398 0.4300 1.1950z"/>
</g>
</a>
<a style="color:inherit;" xlink:href="textedit:///Users/kapsitis/workspace-public/ddgatve-songs/songs-lt/lilypond/EiSkaudeGraude.ly:46:6:7">
<g transform="translate(16.1614, 34.5503)">
<rect x="0.0000" y="-0.5500" width="0.6600" height="0.1300" ry="0.0400" fill="currentColor"/>
</g>
</a>
<a style="color:inherit;" xlink:href="textedit:///Users/kapsitis/workspace-public/ddgatve-songs/songs-lt/lilypond/EiSkaudeGraude.ly:40:12:13">
<g transform="translate(9.7437, 26.4457)">
<path transform="scale(0.0040, -0.0040)" d="M218 136c66 0 108 -36 108 -89c0 -89 -113 -183 -218 -183c-66 0 -108 36 -108 89c0 89 113 183 218 183z" fill="currentColor"/>
</g>
</a>
<a style="color:inherit;" xlink:href="textedit:///Users/kapsitis/workspace-public/ddgatve-songs/songs-lt/lilypond/EiSkaudeGraude.ly:55:12:13">
<g transform="translate(9.7437, 27.4457)">
<path transform="scale(0.0040, -0.0040)" d="M218 136c66 0 108 -36 108 -89c0 -89 -113 -183 -218 -183c-66 0 -108 36 -108 89c0 89 113 183 218 183z" fill="currentColor"/>
</g>
</a>
<a style="color:inherit;" xlink:href="textedit:///Users/kapsitis/workspace-public/ddgatve-songs/songs-lt/lilypond/EiSkaudeGraude.ly:46:0:1">
<g transform="translate(9.7437, 34.5503)">
<text font-family="serif" font-size="2.4696" text-anchor="start" fill="currentColor">
<tspan>ne-ga</tspan>
</text>
</g>
</a>
<g transform="translate(10.9829, 27.4457)">
<rect x="-0.0650" y="-4.0000" width="0.1300" height="2.8139" ry="0.0400" fill="currentColor"/>
</g>
<g transform="translate(9.8087, 27.4457)">
<rect x="-0.0650" y="0.1861" width="0.1300" height="3.1472" ry="0.0400" fill="currentColor"/>
</g>
<a style="color:inherit;" xlink:href="textedit:///Users/kapsitis/workspace-public/ddgatve-songs/songs-lt/lilypond/EiSkaudeGraude.ly:40:16:17">
<g transform="translate(15.0520, 25.9457)">
<path transform="scale(0.0040, -0.0040)" d="M218 136c66 0 108 -36 108 -89c0 -89 -113 -183 -218 -183c-66 0 -108 36 -108 89c0 89 113 183 218 183z" fill="currentColor"/>
</g>
</a>
<a style="color:inherit;" xlink:href="textedit:///Users/kapsitis/workspace-public/ddgatve-songs/songs-lt/lilypond/EiSkaudeGraude.ly:55:16:17">
<g transform="translate(15.0520, 26.9457)">
<path transform="scale(0.0040, -0.0040)" d="M218 136c66 0 108 -36 108 -89c0 -89 -113 -183 -218 -183c-66 0 -108 36 -108 89c0 89 113 183 218 183z" fill="currentColor"/>
</g>
</a>
<g transform="translate(16.2913, 27.4457)">
<rect x="-0.0650" y="-4.5000" width="0.1300" height="2.8139" ry="0.0400" fill="currentColor"/>
</g>
<g transform="translate(16.3563, 22.9857)">
<path transform="scale(0.0040, -0.0040)" d="M0 0v-250h-16v250h16zM0 0c0 -197 207 -336 207 -533c0 -71 -15 -141 -41 -207c-5 -8 -13 -12 -20 -12c-13 0 -26 11 -23 27c26 61 42 126 42 192c0 103 -94 208 -165 283v250z" fill="currentColor"/>
</g>
<g transform="translate(15.1170, 27.4457)">
<rect x="-0.0650" y="-0.3139" width="0.1300" height="3.3139" ry="0.0400" fill="currentColor"/>
</g>
<g transform="translate(15.1820, 30.4057)">
<path transform="scale(0.0040, -0.0040)" d="M0 0h-16v250h16v-250zM0 0v250c97 59 224 148 224 259c0 57 -15 112 -40 163c-3 16 10 27 23 27c7 0 15 -3 20 -11c25 -56 40 -117 40 -179c0 -203 -267 -306 -267 -509z" fill="currentColor"/>
</g>
<a style="color:inherit;" xlink:href="textedit:///Users/kapsitis/workspace-public/ddgatve-songs/songs-lt/lilypond/EiSkaudeGraude.ly:46:16:17">
<g transform="translate(26.6757, 34.5503)">
<rect x="0.0000" y="-0.5500" width="0.6600" height="0.1300" ry="0.0400" fill="currentColor"/>
</g>
</a>
<a style="color:inherit;" xlink:href="textedit:///Users/kapsitis/workspace-public/ddgatve-songs/songs-lt/lilypond/EiSkaudeGraude.ly:40:20:21">
<g transform="translate(18.4216, 26.4457)">
<path transform="scale(0.0040, -0.0040)" d="M218 136c66 0 108 -36 108 -89c0 -89 -113 -183 -218 -183c-66 0 -108 36 -108 89c0 89 113 183 218 183z" fill="currentColor"/>
</g>
</a>
<a style="color:inherit;" xlink:href="textedit:///Users/kapsitis/workspace-public/ddgatve-songs/songs-lt/lilypond/EiSkaudeGraude.ly:40:22:23">
<g transform="translate(19.0737, 22.5777)">
<path transform="scale(0.0040, -0.0040)" d="M0 87c-48 0 -87 -39 -87 -87v-148c0 -10 -9 -19 -19 -19s-19 9 -19 19v148c0 69 56 125 125 125s125 -56 125 -125v-148c0 -10 -9 -19 -19 -19s-19 9 -19 19v148c0 48 -39 87 -87 87z" fill="currentColor"/>
</g>
</a>
<a style="color:inherit;" xlink:href="textedit:///Users/kapsitis/workspace-public/ddgatve-songs/songs-lt/lilypond/EiSkaudeGraude.ly:55:20:21">
<g transform="translate(18.4216, 27.4457)">
<path transform="scale(0.0040, -0.0040)" d="M218 136c66 0 108 -36 108 -89c0 -89 -113 -183 -218 -183c-66 0 -108 36 -108 89c0 89 113 183 218 183z" fill="currentColor"/>
</g>
</a>
<a style="color:inherit;" xlink:href="textedit:///Users/kapsitis/workspace-public/ddgatve-songs/songs-lt/lilypond/EiSkaudeGraude.ly:46:9:10">
<g transform="translate(17.7762, 34.5503)">
<text font-family="serif" font-size="2.4696" text-anchor="start" fill="currentColor">
<tspan>lio</tspan>
</text>
</g>
</a>
<g transform="translate(19.6608, 27.4457)">
<rect x="-0.0650" y="-4.0000" width="0.1300" height="2.8139" ry="0.0400" fill="currentColor"/>
</g>
<g transform="translate(18.4866, 27.4457)">
<rect x="-0.0650" y="0.1861" width="0.1300" height="3.1472" ry="0.0400" fill="currentColor"/>
</g>
<g transform="translate(18.3737, 22.6610)">
<path transform="scale(0.0020, -0.0020)" d="M-31 -250c0 -10 -9 -19 -19 -19c-5 0 -12 2 -16 8c-54 77 -90 167 -90 261s36 184 90 261c4 6 11 8 16 8c10 0 19 -9 19 -19c0 -21 -63 -57 -63 -250s63 -229 63 -250z" fill="currentColor"/>
</g>
<g transform="translate(19.7737, 22.6610)">
<path transform="scale(0.0020, -0.0020)" d="M31 -250c0 21 63 57 63 250s-63 229 -63 250c0 10 9 19 19 19c5 0 12 -2 16 -8c54 -77 90 -167 90 -261s-36 -184 -90 -261c-4 -6 -11 -8 -16 -8c-10 0 -19 9 -19 19z" fill="currentColor"/>
</g>
<a style="color:inherit;" xlink:href="textedit:///Users/kapsitis/workspace-public/ddgatve-songs/songs-lt/lilypond/EiSkaudeGraude.ly:40:81:82">
<g transform="translate(28.5368, 27.4457)">
<path stroke-width="0.0800" stroke-linejoin="round" stroke-linecap="round" stroke="currentColor" fill="currentColor" d="M1.6042 -1.1950C2.8000 -2.0124 5.1453 -1.6700 6.0576 -0.5450L6.0576 -0.5450C5.1280 -1.5513 2.7827 -1.8936 1.6042 -1.1950z"/>
</g>
</a>
<a style="color:inherit;" xlink:href="textedit:///Users/kapsitis/workspace-public/ddgatve-songs/songs-lt/lilypond/EiSkaudeGraude.ly:40:43:44">
<g transform="translate(23.7300, 26.9457)">
<path transform="scale(0.0040, -0.0040)" d="M218 136c66 0 108 -36 108 -89c0 -89 -113 -183 -218 -183c-66 0 -108 36 -108 89c0 89 113 183 218 183z" fill="currentColor"/>
</g>
</a>
<a style="color:inherit;" xlink:href="textedit:///Users/kapsitis/workspace-public/ddgatve-songs/songs-lt/lilypond/EiSkaudeGraude.ly:40:45:46">
<g transform="translate(24.3821, 22.9957)">
<path transform="scale(0.0040, -0.0040)" d="M0 -87c48 0 87 39 87 87v148c0 10 9 19 19 19s19 -9 19 -19v-148c0 -69 -56 -125 -125 -125s-125 56 -125 125v148c0 10 9 19 19 19s19 -9 19 -19v-148c0 -48 39 -87 87 -87z" fill="currentColor"/>
</g>
</a>
<a style="color:inherit;" xlink:href="textedit:///Users/kapsitis/workspace-public/ddgatve-songs/songs-lt/lilypond/EiSkaudeGraude.ly:55:23:24">
<g transform="translate(23.7300, 27.9457)">
<path transform="scale(0.0040, -0.0040)" d="M218 136c66 0 108 -36 108 -89c0 -89 -113 -183 -218 -183c-66 0 -108 36 -108 89c0 89 113 183 218 183z" fill="currentColor"/>
</g>
</a>
<a style="color:inherit;" xlink:href="textedit:///Users/kapsitis/workspace-public/ddgatve-songs/songs-lt/lilypond/EiSkaudeGraude.ly:46:13:14">
<g transform="translate(23.2895, 34.5503)">
<text font-family="serif" font-size="2.4696" text-anchor="start" fill="currentColor">
<tspan>so</tspan>
</text>
</g>
</a>
<g transform="translate(24.9692, 27.4457)">
<rect x="-0.0650" y="-3.7500" width="0.1300" height="3.0639" ry="0.0400" fill="currentColor"/>
</g>
<g transform="translate(25.0342, 23.7357)">
<path transform="scale(0.0040, -0.0040)" d="M0 0v-250h-16v250h16zM0 0c0 -197 207 -336 207 -533c0 -71 -15 -141 -41 -207c-5 -8 -13 -12 -20 -12c-13 0 -26 11 -23 27c26 61 42 126 42 192c0 103 -94 208 -165 283v250z" fill="currentColor"/>
</g>
<g transform="translate(23.7950, 27.4457)">
<rect x="-0.0650" y="0.6861" width="0.1300" height="3.0639" ry="0.0400" fill="currentColor"/>
</g>
<g transform="translate(23.8600, 31.1557)">
<path transform="scale(0.0040, -0.0040)" d="M0 0h-16v250h16v-250zM0 0v250c97 59 224 148 224 259c0 57 -15 112 -40 163c-3 16 10 27 23 27c7 0 15 -3 20 -11c25 -56 40 -117 40 -179c0 -203 -267 -306 -267 -509z" fill="currentColor"/>
</g>
<g transform="translate(23.6821, 22.9123)">
<path transform="scale(0.0020, -0.0020)" d="M-31 -250c0 -10 -9 -19 -19 -19c-5 0 -12 2 -16 8c-54 77 -90 167 -90 261s36 184 90 261c4 6 11 8 16 8c10 0 19 -9 19 -19c0 -21 -63 -57 -63 -250s63 -229 63 -250z" fill="currentColor"/>
</g>
<g transform="translate(25.0821, 22.9123)">
<path transform="scale(0.0020, -0.0020)" d="M31 -250c0 21 63 57 63 250s-63 229 -63 250c0 10 9 19 19 19c5 0 12 -2 16 -8c54 -77 90 -167 90 -261s-36 -184 -90 -261c-4 -6 -11 -8 -16 -8c-10 0 -19 9 -19 19z" fill="currentColor"/>
</g>
<a style="color:inherit;" xlink:href="textedit:///Users/kapsitis/workspace-public/ddgatve-songs/songs-lt/lilypond/EiSkaudeGraude.ly:55:41:42">
<g transform="translate(28.5368, 27.4457)">
<path stroke-width="0.0800" stroke-linejoin="round" stroke-linecap="round" stroke="currentColor" fill="currentColor" d="M0.4300 2.1950C1.1837 3.4712 3.5480 4.1879 4.8834 3.5450L4.8834 3.5450C3.5828 4.0730 1.2185 3.3563 0.4300 2.1950z"/>
</g>
</a>
<a style="color:inherit;" xlink:href="textedit:///Users/kapsitis/workspace-public/ddgatve-songs/songs-lt/lilypond/EiSkaudeGraude.ly:46:25:26">
<g transform="translate(34.8920, 34.5503)">
<rect x="0.0000" y="-0.5500" width="0.6600" height="0.1300" ry="0.0400" fill="currentColor"/>
</g>
</a>
<a style="color:inherit;" xlink:href="textedit:///Users/kapsitis/workspace-public/ddgatve-songs/songs-lt/lilypond/EiSkaudeGraude.ly:40:79:80">
<g transform="translate(28.5368, 27.4457)">
<path transform="scale(0.0040, -0.0040)" d="M218 136c66 0 108 -36 108 -89c0 -89 -113 -183 -218 -183c-66 0 -108 36 -108 89c0 89 113 183 218 183z" fill="currentColor"/>
</g>
</a>
<a style="color:inherit;" xlink:href="textedit:///Users/kapsitis/workspace-public/ddgatve-songs/songs-lt/lilypond/EiSkaudeGraude.ly:55:39:40">
<g transform="translate(28.5368, 28.4457)">
<path transform="scale(0.0040, -0.0040)" d="M218 136c66 0 108 -36 108 -89c0 -89 -113 -183 -218 -183c-66 0 -108 36 -108 89c0 89 113 183 218 183z" fill="currentColor"/>
</g>
</a>
<a style="color:inherit;" xlink:href="textedit:///Users/kapsitis/workspace-public/ddgatve-songs/songs-lt/lilypond/EiSkaudeGraude.ly:46:19:20">
<g transform="translate(28.5368, 34.5503)">
<text font-family="serif" font-size="2.4696" text-anchor="start" fill="currentColor">
<tspan>grinž</tspan>
</text>
</g>
</a>
<g transform="translate(29.7760, 27.4457)">
<rect x="-0.0650" y="-3.3333" width="0.1300" height="3.1472" ry="0.0400" fill="currentColor"/>
</g>
<g transform="translate(28.6018, 27.4457)">
<rect x="-0.0650" y="1.1861" width="0.1300" height="2.8139" ry="0.0400" fill="currentColor"/>
</g>
<a style="color:inherit;" xlink:href="textedit:///Users/kapsitis/workspace-public/ddgatve-songs/songs-lt/lilypond/EiSkaudeGraude.ly:40:83:84">
<g transform="translate(33.7202, 27.9457)">
<path transform="scale(0.0040, -0.0040)" d="M218 136c66 0 108 -36 108 -89c0 -89 -113 -183 -218 -183c-66 0 -108 36 -108 89c0 89 113 183 218 183z" fill="currentColor"/>
</g>
</a>
<a style="color:inherit;" xlink:href="textedit:///Users/kapsitis/workspace-public/ddgatve-songs/songs-lt/lilypond/EiSkaudeGraude.ly:55:43:44">
<g transform="translate(33.7202, 29.9457)">
<path transform="scale(0.0040, -0.0040)" d="M218 136c66 0 108 -36 108 -89c0 -89 -113 -183 -218 -183c-66 0 -108 36 -108 89c0 89 113 183 218 183z" fill="currentColor"/>
</g>
</a>
<g transform="translate(34.9594, 27.4457)">
<rect x="-0.0650" y="-3.0000" width="0.1300" height="3.3139" ry="0.0400" fill="currentColor"/>
</g>
<g transform="translate(35.0244, 24.4857)">
<path transform="scale(0.0040, -0.0040)" d="M0 0v-250h-16v250h16zM0 0c0 -197 207 -336 207 -533c0 -71 -15 -141 -41 -207c-5 -8 -13 -12 -20 -12c-13 0 -26 11 -23 27c26 61 42 126 42 192c0 103 -94 208 -165 283v250z" fill="currentColor"/>
</g>
<g transform="translate(33.7852, 27.4457)">
<rect x="-0.0650" y="2.6861" width="0.1300" height="2.8139" ry="0.0400" fill="currentColor"/>
</g>
<g transform="translate(33.8502, 32.9057)">
<path transform="scale(0.0040, -0.0040)" d="M0 0h-16v250h16v-250zM0 0v250c97 59 224 148 224 259c0 57 -15 112 -40 163c-3 16 10 27 23 27c7 0 15 -3 20 -11c25 -56 40 -117 40 -179c0 -203 -267 -306 -267 -509z" fill="currentColor"/>
</g>
<a style="color:inherit;" xlink:href="textedit:///Users/kapsitis/workspace-public/ddgatve-songs/songs-lt/lilypond/EiSkaudeGraude.ly:40:127:128">
<g transform="translate(45.1463, 27.4457)">
<path stroke-width="0.0800" stroke-linejoin="round" stroke-linecap="round" stroke="currentColor" fill="currentColor" d="M5.7298 -1.4474C5.8047 -1.3671 5.8727 -1.2828 5.9326 -1.1950L5.9326 -1.1950C5.8707 -1.2742 5.8009 -1.3504 5.7242 -1.4233z"/>
</g>
<g transform="translate(45.1463, 27.4457)">
<path stroke-width="0.0800" stroke-linejoin="round" stroke-linecap="round" stroke="currentColor" fill="currentColor" d="M5.0517 -1.9740C5.1555 -1.9144 5.2547 -1.8504 5.3485 -1.7821L5.3362 -1.7292C5.2412 -1.7920 5.1409 -1.8512 5.0362 -1.9067z"/>
</g>
<g transform="translate(45.1463, 27.4457)">
<path stroke-width="0.0800" stroke-linejoin="round" stroke-linecap="round" stroke="currentColor" fill="currentColor" d="M4.2053 -2.3340C4.3252 -2.2981 4.4431 -2.2571 4.5580 -2.2114L4.5391 -2.1296C4.4237 -2.1731 4.3054 -2.2124 4.1853 -2.2474z"/>
</g>
<g transform="translate(45.1463, 27.4457)">
<path stroke-width="0.0800" stroke-linejoin="round" stroke-linecap="round" stroke="currentColor" fill="currentColor" d="M3.2854 -2.5054C3.4087 -2.4961 3.5326 -2.4812 3.6561 -2.4609L3.6361 -2.3743C3.5128 -2.3955 3.3893 -2.4121 3.2665 -2.4236z"/>
</g>
<g transform="translate(45.1463, 27.4457)">
<path stroke-width="0.0800" stroke-linejoin="round" stroke-linecap="round" stroke="currentColor" fill="currentColor" d="M2.3867 -2.4664C2.5009 -2.4866 2.6182 -2.5006 2.7375 -2.5087L2.7220 -2.4413C2.6036 -2.4374 2.4874 -2.4282 2.3745 -2.4135z"/>
</g>
<g transform="translate(45.1463, 27.4457)">
<path stroke-width="0.0800" stroke-linejoin="round" stroke-linecap="round" stroke="currentColor" fill="currentColor" d="M1.6042 -2.1950C1.6966 -2.2477 1.7946 -2.2935 1.8972 -2.3328L1.8916 -2.3088C1.7907 -2.2768 1.6946 -2.2390 1.6042 -2.1950z"/>
</g>
</a>
<a style="color:inherit;" xlink:href="textedit:///Users/kapsitis/workspace-public/ddgatve-songs/songs-lt/lilypond/EiSkaudeGraude.ly:40:87:88">
<g transform="translate(37.0897, 27.9457)">
<path transform="scale(0.0040, -0.0040)" d="M218 136c66 0 108 -36 108 -89c0 -89 -113 -183 -218 -183c-66 0 -108 36 -108 89c0 89 113 183 218 183z" fill="currentColor"/>
</g>
</a>
<a style="color:inherit;" xlink:href="textedit:///Users/kapsitis/workspace-public/ddgatve-songs/songs-lt/lilypond/EiSkaudeGraude.ly:40:90:91">
<g transform="translate(37.7418, 23.7457)">
<path transform="scale(0.0040, -0.0040)" d="M0 -87c48 0 87 39 87 87v148c0 10 9 19 19 19s19 -9 19 -19v-148c0 -69 -56 -125 -125 -125s-125 56 -125 125v148c0 10 9 19 19 19s19 -9 19 -19v-148c0 -48 39 -87 87 -87z" fill="currentColor"/>
</g>
</a>
<a style="color:inherit;" xlink:href="textedit:///Users/kapsitis/workspace-public/ddgatve-songs/songs-lt/lilypond/EiSkaudeGraude.ly:55:47:48">
<g transform="translate(37.0897, 29.9457)">
<path transform="scale(0.0040, -0.0040)" d="M218 136c66 0 108 -36 108 -89c0 -89 -113 -183 -218 -183c-66 0 -108 36 -108 89c0 89 113 183 218 183z" fill="currentColor"/>
</g>
</a>
<a style="color:inherit;" xlink:href="textedit:///Users/kapsitis/workspace-public/ddgatve-songs/songs-lt/lilypond/EiSkaudeGraude.ly:46:28:29">
<g transform="translate(36.8541, 34.5503)">
<text font-family="serif" font-size="2.4696" text-anchor="start" fill="currentColor">
<tspan>tė</tspan>
</text>
</g>
</a>
<g transform="translate(38.8439, 27.9457)">
<path transform="scale(0.0040, -0.0040)" d="M0 0c0 31 25 56 56 56s56 -25 56 -56s-25 -56 -56 -56s-56 25 -56 56z" fill="currentColor"/>
</g>
<g transform="translate(38.3289, 27.4457)">
<rect x="-0.0650" y="-3.0000" width="0.1300" height="3.3139" ry="0.0400" fill="currentColor"/>
</g>
<g transform="translate(38.8439, 29.9457)">
<path transform="scale(0.0040, -0.0040)" d="M0 0c0 31 25 56 56 56s56 -25 56 -56s-25 -56 -56 -56s-56 25 -56 56z" fill="currentColor"/>
</g>
<g transform="translate(37.1547, 27.4457)">
<rect x="-0.0650" y="2.6861" width="0.1300" height="2.3139" ry="0.0400" fill="currentColor"/>
</g>
<g transform="translate(37.0418, 23.6623)">
<path transform="scale(0.0020, -0.0020)" d="M-31 -250c0 -10 -9 -19 -19 -19c-5 0 -12 2 -16 8c-54 77 -90 167 -90 261s36 184 90 261c4 6 11 8 16 8c10 0 19 -9 19 -19c0 -21 -63 -57 -63 -250s63 -229 63 -250z" fill="currentColor"/>
</g>
<g transform="translate(38.4418, 23.6623)">
<path transform="scale(0.0020, -0.0020)" d="M31 -250c0 21 63 57 63 250s-63 229 -63 250c0 10 9 19 19 19c5 0 12 -2 16 -8c54 -77 90 -167 90 -261s-36 -184 -90 -261c-4 -6 -11 -8 -16 -8c-10 0 -19 9 -19 19z" fill="currentColor"/>
</g>
<a style="color:inherit;" xlink:href="textedit:///Users/kapsitis/workspace-public/ddgatve-songs/songs-lt/lilypond/EiSkaudeGraude.ly:55:68:69">
<g transform="translate(45.1463, 27.4457)">
<path stroke-width="0.0800" stroke-linejoin="round" stroke-linecap="round" stroke="currentColor" fill="currentColor" d="M4.4654 2.3328C4.5680 2.2935 4.6660 2.2477 4.7584 2.1950L4.7584 2.1950C4.6680 2.2390 4.5719 2.2768 4.4710 2.3088z"/>
</g>
<g transform="translate(45.1463, 27.4457)">
<path stroke-width="0.0800" stroke-linejoin="round" stroke-linecap="round" stroke="currentColor" fill="currentColor" d="M3.6251 2.5087C3.7444 2.5006 3.8617 2.4866 3.9759 2.4664L3.9881 2.4135C3.8752 2.4282 3.7590 2.4374 3.6406 2.4413z"/>
</g>
<g transform="translate(45.1463, 27.4457)">
<path stroke-width="0.0800" stroke-linejoin="round" stroke-linecap="round" stroke="currentColor" fill="currentColor" d="M2.7065 2.4609C2.8300 2.4812 2.9539 2.4961 3.0773 2.5054L3.0961 2.4236C2.9733 2.4121 2.8498 2.3955 2.7265 2.3743z"/>
</g>
<g transform="translate(45.1463, 27.4457)">
<path stroke-width="0.0800" stroke-linejoin="round" stroke-linecap="round" stroke="currentColor" fill="currentColor" d="M1.8046 2.2114C1.9195 2.2571 2.0374 2.2981 2.1573 2.3340L2.1773 2.2474C2.0572 2.2124 1.9389 2.1731 1.8235 2.1296z"/>
</g>
<g transform="translate(45.1463, 27.4457)">
<path stroke-width="0.0800" stroke-linejoin="round" stroke-linecap="round" stroke="currentColor" fill="currentColor" d="M1.0141 1.7821C1.1079 1.8504 1.2071 1.9144 1.3109 1.9740L1.3264 1.9067C1.2217 1.8512 1.1214 1.7920 1.0264 1.7292z"/>
</g>
<g transform="translate(45.1463, 27.4457)">
<path stroke-width="0.0800" stroke-linejoin="round" stroke-linecap="round" stroke="currentColor" fill="currentColor" d="M0.4300 1.1950C0.4899 1.2828 0.5579 1.3671 0.6328 1.4474L0.6384 1.4233C0.5617 1.3504 0.4919 1.2742 0.4300 1.1950z"/>
</g>
</a>
<a style="color:inherit;" xlink:href="textedit:///Users/kapsitis/workspace-public/ddgatve-songs/songs-lt/lilypond/EiSkaudeGraude.ly:40:125:126">
<g transform="translate(45.1463, 26.4457)">
<path transform="scale(0.0040, -0.0040)" d="M218 136c66 0 108 -36 108 -89c0 -89 -113 -183 -218 -183c-66 0 -108 36 -108 89c0 89 113 183 218 183z" fill="currentColor"/>
</g>
</a>
<a style="color:inherit;" xlink:href="textedit:///Users/kapsitis/workspace-public/ddgatve-songs/songs-lt/lilypond/EiSkaudeGraude.ly:40:14:15">
<g transform="translate(9.7437, 27.4457)">
<path stroke-width="0.0800" stroke-linejoin="round" stroke-linecap="round" stroke="currentColor" fill="currentColor" d="M5.9521 -2.7026C6.0334 -2.6543 6.1105 -2.6018 6.1826 -2.5450L6.1826 -2.5450C6.1111 -2.5943 6.0346 -2.6399 5.9537 -2.6816z"/>
</g>
<g transform="translate(9.7437, 27.4457)">
<path stroke-width="0.0800" stroke-linejoin="round" stroke-linecap="round" stroke="currentColor" fill="currentColor" d="M5.2715 -2.9865C5.3703 -2.9590 5.4664 -2.9274 5.5592 -2.8917L5.5628 -2.8444C5.4704 -2.8750 5.3747 -2.9019 5.2762 -2.9252z"/>
</g>
<g transform="translate(9.7437, 27.4457)">
<path stroke-width="0.0800" stroke-linejoin="round" stroke-linecap="round" stroke="currentColor" fill="currentColor" d="M4.4912 -3.1168C4.5992 -3.1094 4.7061 -3.0981 4.8114 -3.0828L4.8173 -3.0057C4.7122 -3.0182 4.6055 -3.0272 4.4977 -3.0326z"/>
</g>
<g transform="translate(9.7437, 27.4457)">
<path stroke-width="0.0800" stroke-linejoin="round" stroke-linecap="round" stroke="currentColor" fill="currentColor" d="M3.6728 -3.0980C3.7817 -3.1102 3.8913 -3.1186 4.0008 -3.1231L4.0076 -3.0337C3.8981 -3.0288 3.7886 -3.0204 3.6796 -3.0086z"/>
</g>
<g transform="translate(9.7437, 27.4457)">
<path stroke-width="0.0800" stroke-linejoin="round" stroke-linecap="round" stroke="currentColor" fill="currentColor" d="M2.8778 -2.9350C2.9795 -2.9661 3.0834 -2.9936 3.1890 -3.0172L3.1954 -2.9331C3.0897 -2.9113 2.9856 -2.8862 2.8836 -2.8579z"/>
</g>
<g transform="translate(9.7437, 27.4457)">
<path stroke-width="0.0800" stroke-linejoin="round" stroke-linecap="round" stroke="currentColor" fill="currentColor" d="M2.1677 -2.6324C2.2540 -2.6819 2.3442 -2.7277 2.4376 -2.7699L2.4423 -2.7086C2.3485 -2.6706 2.2580 -2.6294 2.1713 -2.5851z"/>
</g>
<g transform="translate(9.7437, 27.4457)">
<path stroke-width="0.0800" stroke-linejoin="round" stroke-linecap="round" stroke="currentColor" fill="currentColor" d="M1.6042 -2.1950C1.6668 -2.2621 1.7350 -2.3257 1.8081 -2.3859L1.8097 -2.3648C1.7361 -2.3113 1.6674 -2.2546 1.6042 -2.1950z"/>
</g>
</a>
<a style="color:inherit;" xlink:href="textedit:///Users/kapsitis/workspace-public/ddgatve-songs/songs-lt/lilypond/EiSkaudeGraude.ly:46:31:32">
<g transform="translate(45.1463, 34.5503)">
<text font-family="serif" font-size="2.4696" text-anchor="start" fill="currentColor">
<tspan>aš i</tspan>
</text>
</g>
</a>
<g transform="translate(46.3855, 27.4457)">
<rect x="-0.0650" y="-4.0000" width="0.1300" height="2.8139" ry="0.0400" fill="currentColor"/>
</g>
<g transform="translate(45.2113, 27.4457)">
<rect x="-0.0650" y="0.1861" width="0.1300" height="3.1472" ry="0.0400" fill="currentColor"/>
</g>
<a style="color:inherit;" xlink:href="textedit:///Users/kapsitis/workspace-public/ddgatve-songs/songs-lt/lilypond/EiSkaudeGraude.ly:40:145:146">
<g transform="translate(54.7484, 24.4457)">
<polygon stroke-linejoin="round" stroke-linecap="round" stroke-width="0.0800" fill="currentColor" stroke="currentColor" points="3.3963 -0.0100 3.3963 0.3900 0.0400 0.2000 0.0400 -0.2000"/>
</g>
</a>
<a style="color:inherit;" xlink:href="textedit:///Users/kapsitis/workspace-public/ddgatve-songs/songs-lt/lilypond/EiSkaudeGraude.ly:40:129:130">
<g transform="translate(50.2047, 27.4457)">
<path transform="scale(0.0040, -0.0040)" d="M218 136c66 0 108 -36 108 -89c0 -89 -113 -183 -218 -183c-66 0 -108 36 -108 89c0 89 113 183 218 183z" fill="currentColor"/>
</g>
</a>
<a style="color:inherit;" xlink:href="textedit:///Users/kapsitis/workspace-public/ddgatve-songs/songs-lt/lilypond/EiSkaudeGraude.ly:55:70:71">
<g transform="translate(50.2047, 28.4457)">
<path transform="scale(0.0040, -0.0040)" d="M218 136c66 0 108 -36 108 -89c0 -89 -113 -183 -218 -183c-66 0 -108 36 -108 89c0 89 113 183 218 183z" fill="currentColor"/>
</g>
</a>
<g transform="translate(51.4439, 27.4457)">
<rect x="-0.0650" y="-3.3750" width="0.1300" height="3.1889" ry="0.0400" fill="currentColor"/>
</g>
<g transform="translate(51.5089, 24.1107)">
<path transform="scale(0.0040, -0.0040)" d="M0 0v-250h-16v250h16zM0 0c0 -197 207 -336 207 -533c0 -71 -15 -141 -41 -207c-5 -8 -13 -12 -20 -12c-13 0 -26 11 -23 27c26 61 42 126 42 192c0 103 -94 208 -165 283v250z" fill="currentColor"/>
</g>
<g transform="translate(50.2697, 27.4457)">
<rect x="-0.0650" y="1.1861" width="0.1300" height="2.9389" ry="0.0400" fill="currentColor"/>
</g>
<g transform="translate(50.3347, 31.5307)">
<path transform="scale(0.0040, -0.0040)" d="M0 0h-16v250h16v-250zM0 0v250c97 59 224 148 224 259c0 57 -15 112 -40 163c-3 16 10 27 23 27c7 0 15 -3 20 -11c25 -56 40 -117 40 -179c0 -203 -267 -306 -267 -509z" fill="currentColor"/>
</g>
<a style="color:inherit;" xlink:href="textedit:///Users/kapsitis/workspace-public/ddgatve-songs/songs-lt/lilypond/EiSkaudeGraude.ly:40:146:147">
<g transform="translate(53.5742, 27.4457)">
<path stroke-width="0.0800" stroke-linejoin="round" stroke-linecap="round" stroke="currentColor" fill="currentColor" d="M1.2632 -3.7364C2.1488 -4.4827 3.7716 -4.3930 4.5695 -3.5536L4.5695 -3.5536C3.7650 -4.2731 2.1422 -4.3629 1.2632 -3.7364z"/>
</g>
</a>
<a style="color:inherit;" xlink:href="textedit:///Users/kapsitis/workspace-public/ddgatve-songs/songs-lt/lilypond/EiSkaudeGraude.ly:40:144:145">
<g transform="translate(53.5742, 26.9457)">
<path transform="scale(0.0040, -0.0040)" d="M218 136c66 0 108 -36 108 -89c0 -89 -113 -183 -218 -183c-66 0 -108 36 -108 89c0 89 113 183 218 183z" fill="currentColor"/>
</g>
</a>
<a style="color:inherit;" xlink:href="textedit:///Users/kapsitis/workspace-public/ddgatve-songs/songs-lt/lilypond/EiSkaudeGraude.ly:55:85:86">
<g transform="translate(53.5742, 27.9457)">
<path transform="scale(0.0040, -0.0040)" d="M218 136c66 0 108 -36 108 -89c0 -89 -113 -183 -218 -183c-66 0 -108 36 -108 89c0 89 113 183 218 183z" fill="currentColor"/>
</g>
</a>
<a style="color:inherit;" xlink:href="textedit:///Users/kapsitis/workspace-public/ddgatve-songs/songs-lt/lilypond/EiSkaudeGraude.ly:46:36:37">
<g transform="translate(53.5742, 34.5503)">
<text font-family="serif" font-size="2.4696" text-anchor="start" fill="currentColor">
<tspan>tie</tspan>
</text>
</g>
</a>
<g transform="translate(54.8134, 27.4457)">
<rect x="-0.0650" y="-2.9964" width="0.1300" height="2.3103" ry="0.0400" fill="currentColor"/>
</g>
<g transform="translate(53.6392, 27.4457)">
<rect x="-0.0650" y="0.6861" width="0.1300" height="2.5098" ry="0.0400" fill="currentColor"/>
</g>
<a style="color:inherit;" xlink:href="textedit:///Users/kapsitis/workspace-public/ddgatve-songs/songs-lt/lilypond/EiSkaudeGraude.ly:55:86:87">
<g transform="translate(53.5742, 30.6357)">
<polygon stroke-linejoin="round" stroke-linecap="round" stroke-width="0.0800" fill="currentColor" stroke="currentColor" points="3.3963 0.1100 3.3963 0.5100 0.0400 0.2000 0.0400 -0.2000"/>
</g>
</a>
<a style="color:inherit;" xlink:href="textedit:///Users/kapsitis/workspace-public/ddgatve-songs/songs-lt/lilypond/EiSkaudeGraude.ly:40:148:149">
<g transform="translate(56.8805, 27.4457)">
<path transform="scale(0.0040, -0.0040)" d="M218 136c66 0 108 -36 108 -89c0 -89 -113 -183 -218 -183c-66 0 -108 36 -108 89c0 89 113 183 218 183z" fill="currentColor"/>
</g>
</a>
<a style="color:inherit;" xlink:href="textedit:///Users/kapsitis/workspace-public/ddgatve-songs/songs-lt/lilypond/EiSkaudeGraude.ly:55:89:90">
<g transform="translate(56.8805, 28.4457)">
<path transform="scale(0.0040, -0.0040)" d="M218 136c66 0 108 -36 108 -89c0 -89 -113 -183 -218 -183c-66 0 -108 36 -108 89c0 89 113 183 218 183z" fill="currentColor"/>
</g>
</a>
<g transform="translate(58.1197, 27.4457)">
<rect x="-0.0650" y="-2.8136" width="0.1300" height="2.6275" ry="0.0400" fill="currentColor"/>
</g>
<g transform="translate(56.9455, 27.4457)">
<rect x="-0.0650" y="1.1861" width="0.1300" height="2.3080" ry="0.0400" fill="currentColor"/>
</g>
<a style="color:inherit;" xlink:href="textedit:///Users/kapsitis/workspace-public/ddgatve-songs/songs-lt/lilypond/EiSkaudeGraude.ly:55:87:88">
<g transform="translate(53.5742, 27.4457)">
<path stroke-width="0.0800" stroke-linejoin="round" stroke-linecap="round" stroke="currentColor" fill="currentColor" d="M0.0259 3.9359C0.7958 4.8040 2.4195 4.9505 3.3322 4.2341L3.3322 4.2341C2.4302 4.8310 0.8066 4.6845 0.0259 3.9359z"/>
</g>
</a>
<a style="color:inherit;" xlink:href="textedit:///Users/kapsitis/workspace-public/ddgatve-songs/songs-lt/lilypond/EiSkaudeGraude.ly:40:152:153">
<g transform="translate(60.0618, 27.9457)">
<path transform="scale(0.0040, -0.0040)" d="M218 136c66 0 108 -36 108 -89c0 -89 -113 -183 -218 -183c-66 0 -108 36 -108 89c0 89 113 183 218 183z" fill="currentColor"/>
</g>
</a>
<a style="color:inherit;" xlink:href="textedit:///Users/kapsitis/workspace-public/ddgatve-songs/songs-lt/lilypond/EiSkaudeGraude.ly:55:93:94">
<g transform="translate(60.0618, 29.9457)">
<path transform="scale(0.0040, -0.0040)" d="M218 136c66 0 108 -36 108 -89c0 -89 -113 -183 -218 -183c-66 0 -108 36 -108 89c0 89 113 183 218 183z" fill="currentColor"/>
</g>
</a>
<a style="color:inherit;" xlink:href="textedit:///Users/kapsitis/workspace-public/ddgatve-songs/songs-lt/lilypond/EiSkaudeGraude.ly:46:43:44">
<g transform="translate(59.0751, 34.5503)">
<text font-family="serif" font-size="2.4696" text-anchor="start" fill="currentColor">
<tspan>vėš</tspan>
</text>
</g>
</a>
<g transform="translate(61.3010, 27.4457)">
<rect x="-0.0650" y="-3.0000" width="0.1300" height="3.3139" ry="0.0400" fill="currentColor"/>
</g>
<g transform="translate(61.3660, 24.4857)">
<path transform="scale(0.0040, -0.0040)" d="M0 0v-250h-16v250h16zM0 0c0 -197 207 -336 207 -533c0 -71 -15 -141 -41 -207c-5 -8 -13 -12 -20 -12c-13 0 -26 11 -23 27c26 61 42 126 42 192c0 103 -94 208 -165 283v250z" fill="currentColor"/>
</g>
<g transform="translate(60.1268, 27.4457)">
<rect x="-0.0650" y="2.6861" width="0.1300" height="2.8139" ry="0.0400" fill="currentColor"/>
</g>
<g transform="translate(60.1918, 32.9057)">
<path transform="scale(0.0040, -0.0040)" d="M0 0h-16v250h16v-250zM0 0v250c97 59 224 148 224 259c0 57 -15 112 -40 163c-3 16 10 27 23 27c7 0 15 -3 20 -11c25 -56 40 -117 40 -179c0 -203 -267 -306 -267 -509z" fill="currentColor"/>
</g>
<a style="color:inherit;" xlink:href="textedit:///Users/kapsitis/workspace-public/ddgatve-songs/songs-lt/lilypond/EiSkaudeGraude.ly:46:40:41">
<g transform="translate(57.2238, 34.5503)">
<rect x="0.0000" y="-0.5500" width="0.6600" height="0.1300" ry="0.0400" fill="currentColor"/>
</g>
</a>
<a style="color:inherit;" xlink:href="textedit:///Users/kapsitis/workspace-public/ddgatve-songs/songs-lt/lilypond/EiSkaudeGraude.ly:46:47:48">
<g transform="translate(63.2807, 34.5503)">
<rect x="0.0000" y="-0.5500" width="0.6600" height="0.1300" ry="0.0400" fill="currentColor"/>
</g>
</a>
<a style="color:inherit;" xlink:href="textedit:///Users/kapsitis/workspace-public/ddgatve-songs/songs-lt/lilypond/EiSkaudeGraude.ly:40:156:157">
<g transform="translate(64.8686, 27.4457)">
<path transform="scale(0.0040, -0.0040)" d="M218 136c66 0 108 -36 108 -89c0 -89 -113 -183 -218 -183c-66 0 -108 36 -108 89c0 89 113 183 218 183z" fill="currentColor"/>
</g>
</a>
<a style="color:inherit;" xlink:href="textedit:///Users/kapsitis/workspace-public/ddgatve-songs/songs-lt/lilypond/EiSkaudeGraude.ly:55:97:98">
<g transform="translate(64.8686, 28.4457)">
<path transform="scale(0.0040, -0.0040)" d="M218 136c66 0 108 -36 108 -89c0 -89 -113 -183 -218 -183c-66 0 -108 36 -108 89c0 89 113 183 218 183z" fill="currentColor"/>
</g>
</a>
<a style="color:inherit;" xlink:href="textedit:///Users/kapsitis/workspace-public/ddgatve-songs/songs-lt/lilypond/EiSkaudeGraude.ly:46:50:51">
<g transform="translate(64.8686, 34.5503)">
<text font-family="serif" font-size="2.4696" text-anchor="start" fill="currentColor">
<tspan>kel(ė)</tspan>
</text>
</g>
</a>
<g transform="translate(66.6229, 26.9457)">
<path transform="scale(0.0040, -0.0040)" d="M0 0c0 31 25 56 56 56s56 -25 56 -56s-25 -56 -56 -56s-56 25 -56 56z" fill="currentColor"/>
</g>
<g transform="translate(66.1079, 27.4457)">
<rect x="-0.0650" y="-3.3333" width="0.1300" height="3.1472" ry="0.0400" fill="currentColor"/>
</g>
<g transform="translate(66.6229, 28.9457)">
<path transform="scale(0.0040, -0.0040)" d="M0 0c0 31 25 56 56 56s56 -25 56 -56s-25 -56 -56 -56s-56 25 -56 56z" fill="currentColor"/>
</g>
<g transform="translate(64.9336, 27.4457)">
<rect x="-0.0650" y="1.1861" width="0.1300" height="2.8139" ry="0.0400" fill="currentColor"/>
</g>
<a style="color:inherit;" xlink:href="textedit:///Users/kapsitis/workspace-public/ddgatve-songs/songs-lt/lilypond/EiSkaudeGraude.ly:40:159:160">
<g transform="translate(64.8686, 27.4457)">
<path stroke-width="0.0800" stroke-linejoin="round" stroke-linecap="round" stroke="currentColor" fill="currentColor" d="M1.6042 -1.6950C2.8714 -2.8320 6.0866 -2.8320 7.3537 -1.6950L7.3537 -1.6950C6.0866 -2.7120 2.8714 -2.7120 1.6042 -1.6950z"/>
</g>
</a>
<a style="color:inherit;" xlink:href="textedit:///Users/kapsitis/workspace-public/ddgatve-songs/songs-lt/lilypond/EiSkaudeGraude.ly:40:161:162">
<g transform="translate(71.3482, 27.4457)">
<path transform="scale(0.0040, -0.0040)" d="M218 136c66 0 108 -36 108 -89c0 -89 -113 -183 -218 -183c-66 0 -108 36 -108 89c0 89 113 183 218 183z" fill="currentColor"/>
</g>
</a>
<a style="color:inherit;" xlink:href="textedit:///Users/kapsitis/workspace-public/ddgatve-songs/songs-lt/lilypond/EiSkaudeGraude.ly:55:102:103">
<g transform="translate(71.3482, 28.4457)">
<path transform="scale(0.0040, -0.0040)" d="M218 136c66 0 108 -36 108 -89c0 -89 -113 -183 -218 -183c-66 0 -108 36 -108 89c0 89 113 183 218 183z" fill="currentColor"/>
</g>
</a>
<g transform="translate(73.1024, 26.9457)">
<path transform="scale(0.0040, -0.0040)" d="M0 0c0 31 25 56 56 56s56 -25 56 -56s-25 -56 -56 -56s-56 25 -56 56z" fill="currentColor"/>
</g>
<g transform="translate(72.5874, 27.4457)">
<rect x="-0.0650" y="-3.3333" width="0.1300" height="3.1472" ry="0.0400" fill="currentColor"/>
</g>
<g transform="translate(73.1024, 28.9457)">
<path transform="scale(0.0040, -0.0040)" d="M0 0c0 31 25 56 56 56s56 -25 56 -56s-25 -56 -56 -56s-56 25 -56 56z" fill="currentColor"/>
</g>
<g transform="translate(71.4132, 27.4457)">
<rect x="-0.0650" y="1.1861" width="0.1300" height="2.8139" ry="0.0400" fill="currentColor"/>
</g>
<a style="color:inherit;" xlink:href="textedit:///Users/kapsitis/workspace-public/ddgatve-songs/songs-lt/lilypond/EiSkaudeGraude.ly:55:100:101">
<g transform="translate(64.8686, 27.4457)">
<path stroke-width="0.0800" stroke-linejoin="round" stroke-linecap="round" stroke="currentColor" fill="currentColor" d="M0.4300 2.6950C1.6971 3.8320 4.9124 3.8320 6.1795 2.6950L6.1795 2.6950C4.9124 3.7120 1.6971 3.7120 0.4300 2.6950z"/>
</g>
</a>
<g color="rgb(100%, 100%, 100%)">
<g transform="translate(0.0000, 35.0833)">
<text font-family="sans-serif" font-size="1.9600" text-anchor="start" fill="currentColor">
<tspan>__</tspan>
</text>
</g>
</g>
</svg>
