<svg xmlns="http://www.w3.org/2000/svg" xmlns:xlink="http://www.w3.org/1999/xlink" version="1.2" width="140.00mm" height="22.45mm" viewBox="0.0000 -0.0000 79.6677 12.7751">
<style type="text/css">
<![CDATA[
tspan { white-space: pre; }
]]>
</style>
<g transform="translate(0.0000, -0.3846)">
<text font-family="serif" font-size="2.2001" text-anchor="start" fill="currentColor">
<tspan>__</tspan>
</text>
</g>
<g transform="translate(77.4825, -0.3846)">
<text font-family="serif" font-size="2.2001" text-anchor="start" fill="currentColor">
<tspan>__</tspan>
</text>
</g>
<g transform="translate(0.0000, 6.2402)">
<line stroke-linejoin="round" stroke-linecap="round" stroke-width="0.1000" stroke="currentColor" x1="0.0500" y1="0" x2="79.6177" y2="0"/>
</g>
<g transform="translate(0.0000, 5.2402)">
<line stroke-linejoin="round" stroke-linecap="round" stroke-width="0.1000" stroke="currentColor" x1="0.0500" y1="0" x2="79.6177" y2="0"/>
</g>
<g transform="translate(0.0000, 4.2402)">
<line stroke-linejoin="round" stroke-linecap="round" stroke-width="0.1000" stroke="currentColor" x1="0.0500" y1="0" x2="79.6177" y2="0"/>
</g>
<g transform="translate(0.0000, 3.2402)">
<line stroke-linejoin="round" stroke-linecap="round" stroke-width="0.1000" stroke="currentColor" x1="0.0500" y1="0" x2="79.6177" y2="0"/>
</g>
<g transform="translate(0.0000, 2.2402)">
<line stroke-linejoin="round" stroke-linecap="round" stroke-width="0.1000" stroke="currentColor" x1="0.0500" y1="0" x2="79.6177" y2="0"/>
</g>
<g transform="translate(44.8353, 4.2402)">
<rect x="0.0000" y="-2.0000" width="0.1900" height="4.0000" ry="0.0000" fill="currentColor"/>
</g>
<g transform="translate(25.7873, 4.2402)">
<rect x="0.0000" y="-2.0000" width="0.1900" height="4.0000" ry="0.0000" fill="currentColor"/>
</g>
<g transform="translate(79.0677, 4.2402)">
<rect x="0.0000" y="-2.0000" width="0.6000" height="4.0000" ry="0.0000" fill="currentColor"/>
</g>
<g transform="translate(78.5777, 4.2402)">
<rect x="0.0000" y="-2.0000" width="0.1900" height="4.0000" ry="0.0000" fill="currentColor"/>
</g>
<a style="color:inherit;" xlink:href="textedit:///Users/kapsitis/workspace-public/ddgatve-songs/songs-lt/lilypond/MaciauEsjuojont.ly:35:0:1">
<g transform="translate(8.7000, 3.2402)">
<path transform="scale(0.0040, -0.0040)" d="M218 136c66 0 108 -36 108 -89c0 -89 -113 -183 -218 -183c-66 0 -108 36 -108 89c0 89 113 183 218 183z" fill="currentColor"/>
</g>
</a>
<a style="color:inherit;" xlink:href="textedit:///Users/kapsitis/workspace-public/ddgatve-songs/songs-lt/lilypond/MaciauEsjuojont.ly:51:0:1">
<g transform="translate(8.7000, 6.2402)">
<path transform="scale(0.0040, -0.0040)" d="M365 0h-355c-6 0 -10 4 -10 10v136c0 6 4 10 10 10h355c6 0 10 -4 10 -10v-136c0 -6 -4 -10 -10 -10z" fill="currentColor"/>
</g>
</a>
<g transform="translate(0.8000, 5.2402)">
<path transform="scale(0.0040, -0.0040)" d="M266 -635h-6c-108 0 -195 88 -195 197c0 58 53 103 112 103c54 0 95 -47 95 -103c0 -52 -43 -95 -95 -95c-11 0 -21 2 -31 6c26 -39 68 -65 117 -65h4zM461 -203c68 24 113 90 113 164c0 90 -66 179 -173 190c19 -89 48 -242 60 -354zM74 28c0 -145 141 -247 264 -247
c1 0 47 0 82 6c-7 64 -29 203 -63 364c-79 -8 -124 -61 -124 -119c0 -44 25 -91 81 -123c5 -5 7 -10 7 -15c0 -11 -10 -22 -22 -22c-15 0 -126 62 -126 187c0 88 58 174 160 197c-14 58 -29 117 -46 175c-107 -121 -213 -243 -213 -403zM250 553c-29 96 -52 170 -52 346
c0 115 55 224 149 292c6 5 14 5 20 0c68 -80 133 -245 133 -358c0 -143 -86 -255 -180 -364c21 -68 39 -138 56 -207c2 0 7 1 13 1c155 0 256 -128 256 -261c0 -113 -74 -212 -180 -246c3 -35 5 -70 5 -105c0 -19 -1 -39 -2 -58c-7 -119 -88 -225 -202 -228l1 43
c93 2 153 92 159 191c1 18 2 37 2 55c0 31 -1 61 -4 92c-5 -1 -44 -8 -89 -8c-193 0 -333 180 -333 374c0 177 131 306 248 441zM428 916c0 34 1 66 -20 129c-99 -48 -162 -149 -162 -259c0 -52 12 -115 36 -194c80 97 146 198 146 324z" fill="currentColor"/>
</g>
<a style="color:inherit;" xlink:href="textedit:///Users/kapsitis/workspace-public/ddgatve-songs/songs-lt/lilypond/MaciauEsjuojont.ly:33:0:1">
</a>
<a style="color:inherit;" xlink:href="textedit:///Users/kapsitis/workspace-public/ddgatve-songs/songs-lt/lilypond/MaciauEsjuojont.ly:49:0:1">
<g transform="translate(5.0000, 4.2402)">
<path transform="scale(0.0040, -0.0040)" d="M250 262c116 0 176 -106 176 -163c0 -40 -30 -72 -67 -72c-31 0 -75 25 -75 75c0 38 27 77 72 77c4 0 9 0 14 -1c-28 37 -72 59 -120 59c-106 0 -113 -73 -113 -186v-51v-51c0 -113 7 -187 113 -187c80 0 139 70 158 151c2 7 7 10 12 10c6 0 13 -4 13 -12
c0 -22 -50 -174 -183 -174c-59 0 -250 19 -250 263c0 62 18 262 250 262z" fill="currentColor"/>
</g>
</a>
<a style="color:inherit;" xlink:href="textedit:///Users/kapsitis/workspace-public/ddgatve-songs/songs-lt/lilypond/MaciauEsjuojont.ly:43:0:1">
<g transform="translate(7.7132, 11.9550)">
<text font-family="serif" font-size="2.4696" text-anchor="start" fill="currentColor">
<tspan>Ma</tspan>
</text>
</g>
</a>
<g transform="translate(11.2174, 2.7402)">
<path transform="scale(0.0040, -0.0040)" d="M0 0c0 31 25 56 56 56s56 -25 56 -56s-25 -56 -56 -56s-56 25 -56 56z" fill="currentColor"/>
</g>
<g transform="translate(9.9392, 4.2402)">
<rect x="-0.0650" y="-4.1250" width="0.1300" height="2.9389" ry="0.0400" fill="currentColor"/>
</g>
<g transform="translate(10.0042, 0.1552)">
<path transform="scale(0.0040, -0.0040)" d="M0 0v-250h-16v250h16zM0 0c0 -197 207 -336 207 -533c0 -71 -15 -141 -41 -207c-5 -8 -13 -12 -20 -12c-13 0 -26 11 -23 27c26 61 42 126 42 192c0 103 -94 208 -165 283v250z" fill="currentColor"/>
</g>
<a style="color:inherit;" xlink:href="textedit:///Users/kapsitis/workspace-public/ddgatve-songs/songs-lt/lilypond/MaciauEsjuojont.ly:38:3:4">
<g transform="translate(56.8258, 4.7402)">
<path transform="scale(0.0040, -0.0040)" d="M218 136c66 0 108 -36 108 -89c0 -89 -113 -183 -218 -183c-66 0 -108 36 -108 89c0 89 113 183 218 183z" fill="currentColor"/>
</g>
</a>
<a style="color:inherit;" xlink:href="textedit:///Users/kapsitis/workspace-public/ddgatve-songs/songs-lt/lilypond/MaciauEsjuojont.ly:53:3:4">
<g transform="translate(56.8258, 6.7402)">
<path transform="scale(0.0040, -0.0040)" d="M218 136c66 0 108 -36 108 -89c0 -89 -113 -183 -218 -183c-66 0 -108 36 -108 89c0 89 113 183 218 183z" fill="currentColor"/>
</g>
</a>
<a style="color:inherit;" xlink:href="textedit:///Users/kapsitis/workspace-public/ddgatve-songs/songs-lt/lilypond/MaciauEsjuojont.ly:44:6:7">
<g transform="translate(55.4293, 11.9550)">
<text font-family="serif" font-size="2.4696" text-anchor="start" fill="currentColor">
<tspan>čiau</tspan>
</text>
</g>
</a>
<g transform="translate(58.0650, 4.2402)">
<rect x="-0.0650" y="-3.0000" width="0.1300" height="3.3139" ry="0.0400" fill="currentColor"/>
</g>
<g transform="translate(58.1300, 1.2802)">
<path transform="scale(0.0040, -0.0040)" d="M0 0v-250h-16v250h16zM0 0c0 -197 207 -336 207 -533c0 -71 -15 -141 -41 -207c-5 -8 -13 -12 -20 -12c-13 0 -26 11 -23 27c26 61 42 126 42 192c0 103 -94 208 -165 283v250z" fill="currentColor"/>
</g>
<g transform="translate(56.8908, 4.2402)">
<rect x="-0.0650" y="2.6861" width="0.1300" height="2.8139" ry="0.0400" fill="currentColor"/>
</g>
<g transform="translate(56.9558, 9.7002)">
<path transform="scale(0.0040, -0.0040)" d="M0 0h-16v250h16v-250zM0 0v250c97 59 224 148 224 259c0 57 -15 112 -40 163c-3 16 10 27 23 27c7 0 15 -3 20 -11c25 -56 40 -117 40 -179c0 -203 -267 -306 -267 -509z" fill="currentColor"/>
</g>
<a style="color:inherit;" xlink:href="textedit:///Users/kapsitis/workspace-public/ddgatve-songs/songs-lt/lilypond/MaciauEsjuojont.ly:38:5:6">
<g transform="translate(60.8267, 4.2402)">
<path transform="scale(0.0040, -0.0040)" d="M218 136c66 0 108 -36 108 -89c0 -89 -113 -183 -218 -183c-66 0 -108 36 -108 89c0 89 113 183 218 183z" fill="currentColor"/>
</g>
</a>
<a style="color:inherit;" xlink:href="textedit:///Users/kapsitis/workspace-public/ddgatve-songs/songs-lt/lilypond/MaciauEsjuojont.ly:53:5:6">
<g transform="translate(60.8267, 5.2402)">
<path transform="scale(0.0040, -0.0040)" d="M218 136c66 0 108 -36 108 -89c0 -89 -113 -183 -218 -183c-66 0 -108 36 -108 89c0 89 113 183 218 183z" fill="currentColor"/>
</g>
</a>
<a style="color:inherit;" xlink:href="textedit:///Users/kapsitis/workspace-public/ddgatve-songs/songs-lt/lilypond/MaciauEsjuojont.ly:44:11:12">
<g transform="translate(59.9765, 11.9550)">
<text font-family="serif" font-size="2.4696" text-anchor="start" fill="currentColor">
<tspan>žėr</tspan>
</text>
</g>
</a>
<g transform="translate(62.0659, 4.2402)">
<rect x="-0.0650" y="-3.3750" width="0.1300" height="3.1889" ry="0.0400" fill="currentColor"/>
</g>
<g transform="translate(62.1309, 0.9052)">
<path transform="scale(0.0040, -0.0040)" d="M0 0v-250h-16v250h16zM0 0c0 -197 207 -336 207 -533c0 -71 -15 -141 -41 -207c-5 -8 -13 -12 -20 -12c-13 0 -26 11 -23 27c26 61 42 126 42 192c0 103 -94 208 -165 283v250z" fill="currentColor"/>
</g>
<g transform="translate(60.8917, 4.2402)">
<rect x="-0.0650" y="1.1861" width="0.1300" height="2.9389" ry="0.0400" fill="currentColor"/>
</g>
<g transform="translate(60.9567, 8.3252)">
<path transform="scale(0.0040, -0.0040)" d="M0 0h-16v250h16v-250zM0 0v250c97 59 224 148 224 259c0 57 -15 112 -40 163c-3 16 10 27 23 27c7 0 15 -3 20 -11c25 -56 40 -117 40 -179c0 -203 -267 -306 -267 -509z" fill="currentColor"/>
</g>
<a style="color:inherit;" xlink:href="textedit:///Users/kapsitis/workspace-public/ddgatve-songs/songs-lt/lilypond/MaciauEsjuojont.ly:38:7:8">
<g transform="translate(64.1362, 4.7402)">
<path transform="scale(0.0040, -0.0040)" d="M218 136c66 0 108 -36 108 -89c0 -89 -113 -183 -218 -183c-66 0 -108 36 -108 89c0 89 113 183 218 183z" fill="currentColor"/>
</g>
</a>
<a style="color:inherit;" xlink:href="textedit:///Users/kapsitis/workspace-public/ddgatve-songs/songs-lt/lilypond/MaciauEsjuojont.ly:53:7:8">
<g transform="translate(64.1362, 6.7402)">
<path transform="scale(0.0040, -0.0040)" d="M218 136c66 0 108 -36 108 -89c0 -89 -113 -183 -218 -183c-66 0 -108 36 -108 89c0 89 113 183 218 183z" fill="currentColor"/>
</g>
</a>
<a style="color:inherit;" xlink:href="textedit:///Users/kapsitis/workspace-public/ddgatve-songs/songs-lt/lilypond/MaciauEsjuojont.ly:44:18:19">
<g transform="translate(63.0811, 11.9550)">
<text font-family="serif" font-size="2.4696" text-anchor="start" fill="currentColor">
<tspan>gos</tspan>
</text>
</g>
</a>
<g transform="translate(65.3754, 4.2402)">
<rect x="-0.0650" y="-3.0000" width="0.1300" height="3.3139" ry="0.0400" fill="currentColor"/>
</g>
<g transform="translate(65.4404, 1.2802)">
<path transform="scale(0.0040, -0.0040)" d="M0 0v-250h-16v250h16zM0 0c0 -197 207 -336 207 -533c0 -71 -15 -141 -41 -207c-5 -8 -13 -12 -20 -12c-13 0 -26 11 -23 27c26 61 42 126 42 192c0 103 -94 208 -165 283v250z" fill="currentColor"/>
</g>
<g transform="translate(64.2012, 4.2402)">
<rect x="-0.0650" y="2.6861" width="0.1300" height="2.8139" ry="0.0400" fill="currentColor"/>
</g>
<g transform="translate(64.2662, 9.7002)">
<path transform="scale(0.0040, -0.0040)" d="M0 0h-16v250h16v-250zM0 0v250c97 59 224 148 224 259c0 57 -15 112 -40 163c-3 16 10 27 23 27c7 0 15 -3 20 -11c25 -56 40 -117 40 -179c0 -203 -267 -306 -267 -509z" fill="currentColor"/>
</g>
<a style="color:inherit;" xlink:href="textedit:///Users/kapsitis/workspace-public/ddgatve-songs/songs-lt/lilypond/MaciauEsjuojont.ly:38:9:10">
<g transform="translate(67.7591, 3.2402)">
<path transform="scale(0.0040, -0.0040)" d="M314 65c0 23 -19 41 -42 41c-39 0 -204 -110 -231 -143c-7 -8 -10 -18 -10 -28c0 -23 19 -41 42 -41c39 0 203 110 230 143c7 8 11 18 11 28zM262 136c41 0 82 -14 82 -71c0 -26 -16 -112 -74 -151c-25 -17 -87 -50 -187 -50c-41 0 -83 14 -83 71c0 26 16 112 74 151
c25 17 88 50 188 50z" fill="currentColor"/>
</g>
</a>
<a style="color:inherit;" xlink:href="textedit:///Users/kapsitis/workspace-public/ddgatve-songs/songs-lt/lilypond/MaciauEsjuojont.ly:53:11:12">
<g transform="translate(67.7591, 5.2402)">
<path transform="scale(0.0040, -0.0040)" d="M314 65c0 23 -19 41 -42 41c-39 0 -204 -110 -231 -143c-7 -8 -10 -18 -10 -28c0 -23 19 -41 42 -41c39 0 203 110 230 143c7 8 11 18 11 28zM262 136c41 0 82 -14 82 -71c0 -26 -16 -112 -74 -151c-25 -17 -87 -50 -187 -50c-41 0 -83 14 -83 71c0 26 16 112 74 151
c25 17 88 50 188 50z" fill="currentColor"/>
</g>
</a>
<a style="color:inherit;" xlink:href="textedit:///Users/kapsitis/workspace-public/ddgatve-songs/songs-lt/lilypond/MaciauEsjuojont.ly:53:14:15">
<g transform="translate(67.7591, 4.2402)">
<path transform="scale(0.0040, -0.0040)" d="M314 65c0 23 -19 41 -42 41c-39 0 -204 -110 -231 -143c-7 -8 -10 -18 -10 -28c0 -23 19 -41 42 -41c39 0 203 110 230 143c7 8 11 18 11 28zM262 136c41 0 82 -14 82 -71c0 -26 -16 -112 -74 -151c-25 -17 -87 -50 -187 -50c-41 0 -83 14 -83 71c0 26 16 112 74 151
c25 17 88 50 188 50z" fill="currentColor"/>
</g>
</a>
<a style="color:inherit;" xlink:href="textedit:///Users/kapsitis/workspace-public/ddgatve-songs/songs-lt/lilypond/MaciauEsjuojont.ly:44:22:23">
<g transform="translate(66.9454, 11.9550)">
<text font-family="serif" font-size="2.4696" text-anchor="start" fill="currentColor">
<tspan>bal</tspan>
</text>
</g>
</a>
<g transform="translate(69.0714, 4.2402)">
<rect x="-0.0650" y="-4.0000" width="0.1300" height="2.7410" ry="0.0400" fill="currentColor"/>
</g>
<g transform="translate(67.8241, 4.2402)">
<rect x="-0.0650" y="0.2590" width="0.1300" height="3.7410" ry="0.0400" fill="currentColor"/>
</g>
<a style="color:inherit;" xlink:href="textedit:///Users/kapsitis/workspace-public/ddgatve-songs/songs-lt/lilypond/MaciauEsjuojont.ly:38:26:27">
<g transform="translate(71.2417, 3.2402)">
<path transform="scale(0.0040, -0.0040)" d="M218 136c66 0 108 -36 108 -89c0 -89 -113 -183 -218 -183c-66 0 -108 36 -108 89c0 89 113 183 218 183z" fill="currentColor"/>
</g>
</a>
<a style="color:inherit;" xlink:href="textedit:///Users/kapsitis/workspace-public/ddgatve-songs/songs-lt/lilypond/MaciauEsjuojont.ly:53:18:19">
<g transform="translate(71.2417, 4.7402)">
<path transform="scale(0.0040, -0.0040)" d="M218 136c66 0 108 -36 108 -89c0 -89 -113 -183 -218 -183c-66 0 -108 36 -108 89c0 89 113 183 218 183z" fill="currentColor"/>
</g>
</a>
<a style="color:inherit;" xlink:href="textedit:///Users/kapsitis/workspace-public/ddgatve-songs/songs-lt/lilypond/MaciauEsjuojont.ly:44:29:30">
<g transform="translate(70.0501, 11.9550)">
<text font-family="serif" font-size="2.4696" text-anchor="start" fill="currentColor">
<tspan>nuo</tspan>
</text>
</g>
</a>
<g transform="translate(72.4809, 4.2402)">
<rect x="-0.0650" y="-4.0000" width="0.1300" height="2.8139" ry="0.0400" fill="currentColor"/>
</g>
<g transform="translate(71.3067, 4.2402)">
<rect x="-0.0650" y="0.6861" width="0.1300" height="2.9806" ry="0.0400" fill="currentColor"/>
</g>
<a style="color:inherit;" xlink:href="textedit:///Users/kapsitis/workspace-public/ddgatve-songs/songs-lt/lilypond/MaciauEsjuojont.ly:38:29:30">
<g transform="translate(75.3682, 4.2402)">
<path transform="scale(0.0040, -0.0040)" d="M314 65c0 23 -19 41 -42 41c-39 0 -204 -110 -231 -143c-7 -8 -10 -18 -10 -28c0 -23 19 -41 42 -41c39 0 203 110 230 143c7 8 11 18 11 28zM262 136c41 0 82 -14 82 -71c0 -26 -16 -112 -74 -151c-25 -17 -87 -50 -187 -50c-41 0 -83 14 -83 71c0 26 16 112 74 151
c25 17 88 50 188 50z" fill="currentColor"/>
</g>
</a>
<a style="color:inherit;" xlink:href="textedit:///Users/kapsitis/workspace-public/ddgatve-songs/songs-lt/lilypond/MaciauEsjuojont.ly:53:21:22">
<g transform="translate(75.3682, 5.2402)">
<path transform="scale(0.0040, -0.0040)" d="M314 65c0 23 -19 41 -42 41c-39 0 -204 -110 -231 -143c-7 -8 -10 -18 -10 -28c0 -23 19 -41 42 -41c39 0 203 110 230 143c7 8 11 18 11 28zM262 136c41 0 82 -14 82 -71c0 -26 -16 -112 -74 -151c-25 -17 -87 -50 -187 -50c-41 0 -83 14 -83 71c0 26 16 112 74 151
c25 17 88 50 188 50z" fill="currentColor"/>
</g>
</a>
<a style="color:inherit;" xlink:href="textedit:///Users/kapsitis/workspace-public/ddgatve-songs/songs-lt/lilypond/MaciauEsjuojont.ly:44:36:37">
<g transform="translate(73.8375, 11.9550)">
<text font-family="serif" font-size="2.4696" text-anchor="start" fill="currentColor">
<tspan>jont.</tspan>
</text>
</g>
</a>
<g transform="translate(76.6805, 4.2402)">
<rect x="-0.0650" y="-3.3333" width="0.1300" height="3.0743" ry="0.0400" fill="currentColor"/>
</g>
<g transform="translate(75.4332, 4.2402)">
<rect x="-0.0650" y="1.2590" width="0.1300" height="2.7410" ry="0.0400" fill="currentColor"/>
</g>
<a style="color:inherit;" xlink:href="textedit:///Users/kapsitis/workspace-public/ddgatve-songs/songs-lt/lilypond/MaciauEsjuojont.ly:35:5:6">
<g transform="translate(12.4875, 3.7402)">
<path transform="scale(0.0040, -0.0040)" d="M218 136c66 0 108 -36 108 -89c0 -89 -113 -183 -218 -183c-66 0 -108 36 -108 89c0 89 113 183 218 183z" fill="currentColor"/>
</g>
</a>
<a style="color:inherit;" xlink:href="textedit:///Users/kapsitis/workspace-public/ddgatve-songs/songs-lt/lilypond/MaciauEsjuojont.ly:43:6:7">
<g transform="translate(11.0910, 11.9550)">
<text font-family="serif" font-size="2.4696" text-anchor="start" fill="currentColor">
<tspan>čiau</tspan>
</text>
</g>
</a>
<g transform="translate(13.7267, 4.2402)">
<rect x="-0.0650" y="-3.7500" width="0.1300" height="3.0639" ry="0.0400" fill="currentColor"/>
</g>
<g transform="translate(13.7917, 0.5302)">
<path transform="scale(0.0040, -0.0040)" d="M0 0c0 -177 201 -293 201 -470c0 -33 -9 -65 -23 -95c18 -37 29 -75 29 -117c0 -63 -15 -125 -41 -183c-5 -8 -13 -12 -20 -12c-13 0 -26 11 -23 27c26 52 42 110 42 168c0 97 -94 190 -165 257v-75h-16v500h16zM151 -517c5 15 8 31 8 47c0 96 -91 190 -159 257
c0 -118 90 -206 151 -304z" fill="currentColor"/>
</g>
<a style="color:inherit;" xlink:href="textedit:///Users/kapsitis/workspace-public/ddgatve-songs/songs-lt/lilypond/MaciauEsjuojont.ly:35:9:10">
<g transform="translate(16.0104, 4.2402)">
<path transform="scale(0.0040, -0.0040)" d="M218 136c66 0 108 -36 108 -89c0 -89 -113 -183 -218 -183c-66 0 -108 36 -108 89c0 89 113 183 218 183z" fill="currentColor"/>
</g>
</a>
<a style="color:inherit;" xlink:href="textedit:///Users/kapsitis/workspace-public/ddgatve-songs/songs-lt/lilypond/MaciauEsjuojont.ly:43:11:12">
<g transform="translate(15.6382, 11.9550)">
<text font-family="serif" font-size="2.4696" text-anchor="start" fill="currentColor">
<tspan>eš</tspan>
</text>
</g>
</a>
<g transform="translate(17.2496, 4.2402)">
<rect x="-0.0650" y="-3.3750" width="0.1300" height="3.1889" ry="0.0400" fill="currentColor"/>
</g>
<g transform="translate(17.3146, 0.9052)">
<path transform="scale(0.0040, -0.0040)" d="M0 0v-250h-16v250h16zM0 0c0 -197 207 -336 207 -533c0 -71 -15 -141 -41 -207c-5 -8 -13 -12 -20 -12c-13 0 -26 11 -23 27c26 61 42 126 42 192c0 103 -94 208 -165 283v250z" fill="currentColor"/>
</g>
<a style="color:inherit;" xlink:href="textedit:///Users/kapsitis/workspace-public/ddgatve-songs/songs-lt/lilypond/MaciauEsjuojont.ly:35:12:13">
<g transform="translate(18.7053, 4.7402)">
<path transform="scale(0.0040, -0.0040)" d="M218 136c66 0 108 -36 108 -89c0 -89 -113 -183 -218 -183c-66 0 -108 36 -108 89c0 89 113 183 218 183z" fill="currentColor"/>
</g>
</a>
<a style="color:inherit;" xlink:href="textedit:///Users/kapsitis/workspace-public/ddgatve-songs/songs-lt/lilypond/MaciauEsjuojont.ly:43:17:18">
<g transform="translate(17.7868, 11.9550)">
<text font-family="serif" font-size="2.4696" text-anchor="start" fill="currentColor">
<tspan>juo</tspan>
</text>
</g>
</a>
<g transform="translate(19.9445, 4.2402)">
<rect x="-0.0650" y="-3.0000" width="0.1300" height="3.3139" ry="0.0400" fill="currentColor"/>
</g>
<g transform="translate(20.0095, 1.2802)">
<path transform="scale(0.0040, -0.0040)" d="M0 0v-250h-16v250h16zM0 0c0 -197 207 -336 207 -533c0 -71 -15 -141 -41 -207c-5 -8 -13 -12 -20 -12c-13 0 -26 11 -23 27c26 61 42 126 42 192c0 103 -94 208 -165 283v250z" fill="currentColor"/>
</g>
<a style="color:inherit;" xlink:href="textedit:///Users/kapsitis/workspace-public/ddgatve-songs/songs-lt/lilypond/MaciauEsjuojont.ly:35:14:15">
<g transform="translate(22.5586, 3.2402)">
<path transform="scale(0.0040, -0.0040)" d="M314 65c0 23 -19 41 -42 41c-39 0 -204 -110 -231 -143c-7 -8 -10 -18 -10 -28c0 -23 19 -41 42 -41c39 0 203 110 230 143c7 8 11 18 11 28zM262 136c41 0 82 -14 82 -71c0 -26 -16 -112 -74 -151c-25 -17 -87 -50 -187 -50c-41 0 -83 14 -83 71c0 26 16 112 74 151
c25 17 88 50 188 50z" fill="currentColor"/>
</g>
</a>
<a style="color:inherit;" xlink:href="textedit:///Users/kapsitis/workspace-public/ddgatve-songs/songs-lt/lilypond/MaciauEsjuojont.ly:51:5:6">
<g transform="translate(22.5586, 5.2402)">
<path transform="scale(0.0040, -0.0040)" d="M314 65c0 23 -19 41 -42 41c-39 0 -204 -110 -231 -143c-7 -8 -10 -18 -10 -28c0 -23 19 -41 42 -41c39 0 203 110 230 143c7 8 11 18 11 28zM262 136c41 0 82 -14 82 -71c0 -26 -16 -112 -74 -151c-25 -17 -87 -50 -187 -50c-41 0 -83 14 -83 71c0 26 16 112 74 151
c25 17 88 50 188 50z" fill="currentColor"/>
</g>
</a>
<a style="color:inherit;" xlink:href="textedit:///Users/kapsitis/workspace-public/ddgatve-songs/songs-lt/lilypond/MaciauEsjuojont.ly:51:9:10">
<g transform="translate(22.5586, 4.2402)">
<path transform="scale(0.0040, -0.0040)" d="M314 65c0 23 -19 41 -42 41c-39 0 -204 -110 -231 -143c-7 -8 -10 -18 -10 -28c0 -23 19 -41 42 -41c39 0 203 110 230 143c7 8 11 18 11 28zM262 136c41 0 82 -14 82 -71c0 -26 -16 -112 -74 -151c-25 -17 -87 -50 -187 -50c-41 0 -83 14 -83 71c0 26 16 112 74 151
c25 17 88 50 188 50z" fill="currentColor"/>
</g>
</a>
<a style="color:inherit;" xlink:href="textedit:///Users/kapsitis/workspace-public/ddgatve-songs/songs-lt/lilypond/MaciauEsjuojont.ly:43:24:25">
<g transform="translate(21.0280, 11.9550)">
<text font-family="serif" font-size="2.4696" text-anchor="start" fill="currentColor">
<tspan>jont,</tspan>
</text>
</g>
</a>
<g transform="translate(23.8709, 4.2402)">
<rect x="-0.0650" y="-4.0000" width="0.1300" height="2.7410" ry="0.0400" fill="currentColor"/>
</g>
<g transform="translate(22.6236, 4.2402)">
<rect x="-0.0650" y="0.2590" width="0.1300" height="3.7410" ry="0.0400" fill="currentColor"/>
</g>
<a style="color:inherit;" xlink:href="textedit:///Users/kapsitis/workspace-public/ddgatve-songs/songs-lt/lilypond/MaciauEsjuojont.ly:35:19:20">
<g transform="translate(26.7668, 3.2402)">
<path transform="scale(0.0040, -0.0040)" d="M218 136c66 0 108 -36 108 -89c0 -89 -113 -183 -218 -183c-66 0 -108 36 -108 89c0 89 113 183 218 183z" fill="currentColor"/>
</g>
</a>
<a style="color:inherit;" xlink:href="textedit:///Users/kapsitis/workspace-public/ddgatve-songs/songs-lt/lilypond/MaciauEsjuojont.ly:51:17:18">
<g transform="translate(26.7668, 5.2402)">
<path transform="scale(0.0040, -0.0040)" d="M218 136c66 0 108 -36 108 -89c0 -89 -113 -183 -218 -183c-66 0 -108 36 -108 89c0 89 113 183 218 183z" fill="currentColor"/>
</g>
</a>
<a style="color:inherit;" xlink:href="textedit:///Users/kapsitis/workspace-public/ddgatve-songs/songs-lt/lilypond/MaciauEsjuojont.ly:51:20:21">
<g transform="translate(26.7668, 4.2402)">
<path transform="scale(0.0040, -0.0040)" d="M218 136c66 0 108 -36 108 -89c0 -89 -113 -183 -218 -183c-66 0 -108 36 -108 89c0 89 113 183 218 183z" fill="currentColor"/>
</g>
</a>
<a style="color:inherit;" xlink:href="textedit:///Users/kapsitis/workspace-public/ddgatve-songs/songs-lt/lilypond/MaciauEsjuojont.ly:43:30:31">
<g transform="translate(25.9166, 11.9550)">
<text font-family="serif" font-size="2.4696" text-anchor="start" fill="currentColor">
<tspan>ma</tspan>
</text>
</g>
</a>
<g transform="translate(28.0060, 4.2402)">
<rect x="-0.0650" y="-4.1250" width="0.1300" height="2.9389" ry="0.0400" fill="currentColor"/>
</g>
<g transform="translate(28.0710, 0.1552)">
<path transform="scale(0.0040, -0.0040)" d="M0 0v-250h-16v250h16zM0 0c0 -197 207 -336 207 -533c0 -71 -15 -141 -41 -207c-5 -8 -13 -12 -20 -12c-13 0 -26 11 -23 27c26 61 42 126 42 192c0 103 -94 208 -165 283v250z" fill="currentColor"/>
</g>
<g transform="translate(26.8318, 4.2402)">
<rect x="-0.0650" y="0.1861" width="0.1300" height="3.9389" ry="0.0400" fill="currentColor"/>
</g>
<g transform="translate(26.8968, 8.3252)">
<path transform="scale(0.0040, -0.0040)" d="M0 0h-16v250h16v-250zM0 0v250c97 59 224 148 224 259c0 57 -15 112 -40 163c-3 16 10 27 23 27c7 0 15 -3 20 -11c25 -56 40 -117 40 -179c0 -203 -267 -306 -267 -509z" fill="currentColor"/>
</g>
<a style="color:inherit;" xlink:href="textedit:///Users/kapsitis/workspace-public/ddgatve-songs/songs-lt/lilypond/MaciauEsjuojont.ly:35:22:23">
<g transform="translate(30.4177, 3.2402)">
<path transform="scale(0.0040, -0.0040)" d="M218 136c66 0 108 -36 108 -89c0 -89 -113 -183 -218 -183c-66 0 -108 36 -108 89c0 89 113 183 218 183z" fill="currentColor"/>
</g>
</a>
<a style="color:inherit;" xlink:href="textedit:///Users/kapsitis/workspace-public/ddgatve-songs/songs-lt/lilypond/MaciauEsjuojont.ly:51:26:27">
<g transform="translate(30.4177, 5.2402)">
<path transform="scale(0.0040, -0.0040)" d="M218 136c66 0 108 -36 108 -89c0 -89 -113 -183 -218 -183c-66 0 -108 36 -108 89c0 89 113 183 218 183z" fill="currentColor"/>
</g>
</a>
<a style="color:inherit;" xlink:href="textedit:///Users/kapsitis/workspace-public/ddgatve-songs/songs-lt/lilypond/MaciauEsjuojont.ly:51:28:29">
<g transform="translate(30.4177, 4.2402)">
<path transform="scale(0.0040, -0.0040)" d="M218 136c66 0 108 -36 108 -89c0 -89 -113 -183 -218 -183c-66 0 -108 36 -108 89c0 89 113 183 218 183z" fill="currentColor"/>
</g>
</a>
<a style="color:inherit;" xlink:href="textedit:///Users/kapsitis/workspace-public/ddgatve-songs/songs-lt/lilypond/MaciauEsjuojont.ly:43:36:37">
<g transform="translate(29.0212, 11.9550)">
<text font-family="serif" font-size="2.4696" text-anchor="start" fill="currentColor">
<tspan>čiau</tspan>
</text>
</g>
</a>
<g transform="translate(31.6569, 4.2402)">
<rect x="-0.0650" y="-4.1250" width="0.1300" height="2.9389" ry="0.0400" fill="currentColor"/>
</g>
<g transform="translate(31.7219, 0.1552)">
<path transform="scale(0.0040, -0.0040)" d="M0 0v-250h-16v250h16zM0 0c0 -197 207 -336 207 -533c0 -71 -15 -141 -41 -207c-5 -8 -13 -12 -20 -12c-13 0 -26 11 -23 27c26 61 42 126 42 192c0 103 -94 208 -165 283v250z" fill="currentColor"/>
</g>
<g transform="translate(30.4827, 4.2402)">
<rect x="-0.0650" y="0.1861" width="0.1300" height="3.9389" ry="0.0400" fill="currentColor"/>
</g>
<g transform="translate(30.5477, 8.3252)">
<path transform="scale(0.0040, -0.0040)" d="M0 0h-16v250h16v-250zM0 0v250c97 59 224 148 224 259c0 57 -15 112 -40 163c-3 16 10 27 23 27c7 0 15 -3 20 -11c25 -56 40 -117 40 -179c0 -203 -267 -306 -267 -509z" fill="currentColor"/>
</g>
<a style="color:inherit;" xlink:href="textedit:///Users/kapsitis/workspace-public/ddgatve-songs/songs-lt/lilypond/MaciauEsjuojont.ly:35:24:25">
<g transform="translate(34.4869, 3.2402)">
<path transform="scale(0.0040, -0.0040)" d="M218 136c66 0 108 -36 108 -89c0 -89 -113 -183 -218 -183c-66 0 -108 36 -108 89c0 89 113 183 218 183z" fill="currentColor"/>
</g>
</a>
<a style="color:inherit;" xlink:href="textedit:///Users/kapsitis/workspace-public/ddgatve-songs/songs-lt/lilypond/MaciauEsjuojont.ly:51:32:33">
<g transform="translate(34.4869, 4.7402)">
<path transform="scale(0.0040, -0.0040)" d="M218 136c66 0 108 -36 108 -89c0 -89 -113 -183 -218 -183c-66 0 -108 36 -108 89c0 89 113 183 218 183z" fill="currentColor"/>
</g>
</a>
<a style="color:inherit;" xlink:href="textedit:///Users/kapsitis/workspace-public/ddgatve-songs/songs-lt/lilypond/MaciauEsjuojont.ly:43:41:42">
<g transform="translate(33.5684, 11.9550)">
<text font-family="serif" font-size="2.4696" text-anchor="start" fill="currentColor">
<tspan>par</tspan>
</text>
</g>
</a>
<g transform="translate(35.7261, 4.2402)">
<rect x="-0.0650" y="-4.1250" width="0.1300" height="2.9389" ry="0.0400" fill="currentColor"/>
</g>
<g transform="translate(35.7911, 0.1552)">
<path transform="scale(0.0040, -0.0040)" d="M0 0v-250h-16v250h16zM0 0c0 -197 207 -336 207 -533c0 -71 -15 -141 -41 -207c-5 -8 -13 -12 -20 -12c-13 0 -26 11 -23 27c26 61 42 126 42 192c0 103 -94 208 -165 283v250z" fill="currentColor"/>
</g>
<g transform="translate(34.5519, 4.2402)">
<rect x="-0.0650" y="0.6861" width="0.1300" height="3.0639" ry="0.0400" fill="currentColor"/>
</g>
<g transform="translate(34.6169, 7.9502)">
<path transform="scale(0.0040, -0.0040)" d="M0 0h-16v250h16v-250zM0 0v250c97 59 224 148 224 259c0 57 -15 112 -40 163c-3 16 10 27 23 27c7 0 15 -3 20 -11c25 -56 40 -117 40 -179c0 -203 -267 -306 -267 -509z" fill="currentColor"/>
</g>
<a style="color:inherit;" xlink:href="textedit:///Users/kapsitis/workspace-public/ddgatve-songs/songs-lt/lilypond/MaciauEsjuojont.ly:35:26:27">
<g transform="translate(37.7281, 4.2402)">
<path transform="scale(0.0040, -0.0040)" d="M218 136c66 0 108 -36 108 -89c0 -89 -113 -183 -218 -183c-66 0 -108 36 -108 89c0 89 113 183 218 183z" fill="currentColor"/>
</g>
</a>
<a style="color:inherit;" xlink:href="textedit:///Users/kapsitis/workspace-public/ddgatve-songs/songs-lt/lilypond/MaciauEsjuojont.ly:51:35:36">
<g transform="translate(37.7281, 5.2402)">
<path transform="scale(0.0040, -0.0040)" d="M218 136c66 0 108 -36 108 -89c0 -89 -113 -183 -218 -183c-66 0 -108 36 -108 89c0 89 113 183 218 183z" fill="currentColor"/>
</g>
</a>
<a style="color:inherit;" xlink:href="textedit:///Users/kapsitis/workspace-public/ddgatve-songs/songs-lt/lilypond/MaciauEsjuojont.ly:43:48:49">
<g transform="translate(36.8096, 11.9550)">
<text font-family="serif" font-size="2.4696" text-anchor="start" fill="currentColor">
<tspan>juo</tspan>
</text>
</g>
</a>
<g transform="translate(38.9673, 4.2402)">
<rect x="-0.0650" y="-3.3750" width="0.1300" height="3.1889" ry="0.0400" fill="currentColor"/>
</g>
<g transform="translate(39.0323, 0.9052)">
<path transform="scale(0.0040, -0.0040)" d="M0 0v-250h-16v250h16zM0 0c0 -197 207 -336 207 -533c0 -71 -15 -141 -41 -207c-5 -8 -13 -12 -20 -12c-13 0 -26 11 -23 27c26 61 42 126 42 192c0 103 -94 208 -165 283v250z" fill="currentColor"/>
</g>
<g transform="translate(37.7931, 4.2402)">
<rect x="-0.0650" y="1.1861" width="0.1300" height="2.9389" ry="0.0400" fill="currentColor"/>
</g>
<g transform="translate(37.8581, 8.3252)">
<path transform="scale(0.0040, -0.0040)" d="M0 0h-16v250h16v-250zM0 0v250c97 59 224 148 224 259c0 57 -15 112 -40 163c-3 16 10 27 23 27c7 0 15 -3 20 -11c25 -56 40 -117 40 -179c0 -203 -267 -306 -267 -509z" fill="currentColor"/>
</g>
<a style="color:inherit;" xlink:href="textedit:///Users/kapsitis/workspace-public/ddgatve-songs/songs-lt/lilypond/MaciauEsjuojont.ly:35:28:29">
<g transform="translate(41.5814, 4.7402)">
<path transform="scale(0.0040, -0.0040)" d="M314 65c0 23 -19 41 -42 41c-39 0 -204 -110 -231 -143c-7 -8 -10 -18 -10 -28c0 -23 19 -41 42 -41c39 0 203 110 230 143c7 8 11 18 11 28zM262 136c41 0 82 -14 82 -71c0 -26 -16 -112 -74 -151c-25 -17 -87 -50 -187 -50c-41 0 -83 14 -83 71c0 26 16 112 74 151
c25 17 88 50 188 50z" fill="currentColor"/>
</g>
</a>
<a style="color:inherit;" xlink:href="textedit:///Users/kapsitis/workspace-public/ddgatve-songs/songs-lt/lilypond/MaciauEsjuojont.ly:51:37:38">
<g transform="translate(41.5814, 6.7402)">
<path transform="scale(0.0040, -0.0040)" d="M314 65c0 23 -19 41 -42 41c-39 0 -204 -110 -231 -143c-7 -8 -10 -18 -10 -28c0 -23 19 -41 42 -41c39 0 203 110 230 143c7 8 11 18 11 28zM262 136c41 0 82 -14 82 -71c0 -26 -16 -112 -74 -151c-25 -17 -87 -50 -187 -50c-41 0 -83 14 -83 71c0 26 16 112 74 151
c25 17 88 50 188 50z" fill="currentColor"/>
</g>
</a>
<a style="color:inherit;" xlink:href="textedit:///Users/kapsitis/workspace-public/ddgatve-songs/songs-lt/lilypond/MaciauEsjuojont.ly:43:55:56">
<g transform="translate(40.0508, 11.9550)">
<text font-family="serif" font-size="2.4696" text-anchor="start" fill="currentColor">
<tspan>jont,</tspan>
</text>
</g>
</a>
<g transform="translate(42.8938, 4.2402)">
<rect x="-0.0650" y="-3.0000" width="0.1300" height="3.2410" ry="0.0400" fill="currentColor"/>
</g>
<g transform="translate(41.6464, 4.2402)">
<rect x="-0.0650" y="2.7590" width="0.1300" height="2.2410" ry="0.0400" fill="currentColor"/>
</g>
<a style="color:inherit;" xlink:href="textedit:///Users/kapsitis/workspace-public/ddgatve-songs/songs-lt/lilypond/MaciauEsjuojont.ly:38:0:1">
<g transform="translate(53.1749, 5.2402)">
<path transform="scale(0.0040, -0.0040)" d="M218 136c66 0 108 -36 108 -89c0 -89 -113 -183 -218 -183c-66 0 -108 36 -108 89c0 89 113 183 218 183z" fill="currentColor"/>
</g>
</a>
<a style="color:inherit;" xlink:href="textedit:///Users/kapsitis/workspace-public/ddgatve-songs/songs-lt/lilypond/MaciauEsjuojont.ly:53:0:1">
<g transform="translate(53.1749, 5.2402)">
<path transform="scale(0.0040, -0.0040)" d="M218 136c66 0 108 -36 108 -89c0 -89 -113 -183 -218 -183c-66 0 -108 36 -108 89c0 89 113 183 218 183z" fill="currentColor"/>
</g>
</a>
<a style="color:inherit;" xlink:href="textedit:///Users/kapsitis/workspace-public/ddgatve-songs/songs-lt/lilypond/MaciauEsjuojont.ly:52:0:1">
<g transform="translate(45.7753, 4.2402)">
<path transform="scale(0.0040, -0.0040)" d="M196 117h117c0 -48 27 -94 72 -94c8 0 12 -5 12 -11s-4 -12 -12 -12c-44 0 -87 13 -131 13s-87 -13 -131 -13c-8 0 -12 6 -12 12s4 11 12 11c45 0 73 46 73 94zM-2 148c0 12 140 143 140 336c0 10 7 19 16 16c23 -7 47 -13 71 -13s48 6 71 13c14 4 23 -9 17 -16
l-284 -330h167v131c0 34 34 27 68 72c22 30 23 56 36 56c6 0 13 -5 13 -14v-245h72c10 0 15 -7 15 -14s-5 -15 -15 -15h-72v-8h-117v8h-167c-23 0 -31 14 -31 23z" fill="currentColor"/>
</g>
<g transform="translate(45.7753, 6.2563)">
<path transform="scale(0.0040, -0.0040)" d="M196 117h117c0 -48 27 -94 72 -94c8 0 12 -5 12 -11s-4 -12 -12 -12c-44 0 -87 13 -131 13s-87 -13 -131 -13c-8 0 -12 6 -12 12s4 11 12 11c45 0 73 46 73 94zM-2 148c0 12 140 143 140 336c0 10 7 19 16 16c23 -7 47 -13 71 -13s48 6 71 13c14 4 23 -9 17 -16
l-284 -330h167v131c0 34 34 27 68 72c22 30 23 56 36 56c6 0 13 -5 13 -14v-245h72c10 0 15 -7 15 -14s-5 -15 -15 -15h-72v-8h-117v8h-167c-23 0 -31 14 -31 23z" fill="currentColor"/>
</g>
<g transform="translate(47.9800, 5.2403)">
<path transform="scale(0.0040, -0.0040)" d="M125 125c-14 0 -25 11 -25 25v75h-75c-14 0 -25 11 -25 25s11 25 25 25h75v75c0 14 11 25 25 25s25 -11 25 -25v-75h75c14 0 25 -11 25 -25s-11 -25 -25 -25h-75v-75c0 -14 -11 -25 -25 -25z" fill="currentColor"/>
</g>
<g transform="translate(49.5702, 4.2402)">
<path transform="scale(0.0040, -0.0040)" d="M263 265c0 -33 70 -23 70 -125c0 -92 -79 -140 -179 -140c-79 0 -154 42 -154 113c0 36 30 66 66 66s65 -30 65 -66c0 -25 -40 -28 -40 -53c0 -27 32 -37 63 -37c49 0 63 61 63 117v16c0 54 -2 94 -50 94h-80c-10 0 -14 8 -14 15s4 14 14 14h80c49 0 50 43 50 99v8
c0 54 -18 91 -67 91c-29 0 -59 -8 -59 -33c0 -22 36 -25 36 -47c0 -32 -26 -58 -58 -58s-57 26 -57 58c0 65 67 103 138 103c91 0 169 -33 169 -114c0 -122 -56 -80 -56 -121z" fill="currentColor"/>
</g>
<g transform="translate(49.5702, 6.2563)">
<path transform="scale(0.0040, -0.0040)" d="M196 117h117c0 -48 27 -94 72 -94c8 0 12 -5 12 -11s-4 -12 -12 -12c-44 0 -87 13 -131 13s-87 -13 -131 -13c-8 0 -12 6 -12 12s4 11 12 11c45 0 73 46 73 94zM-2 148c0 12 140 143 140 336c0 10 7 19 16 16c23 -7 47 -13 71 -13s48 6 71 13c14 4 23 -9 17 -16
l-284 -330h167v131c0 34 34 27 68 72c22 30 23 56 36 56c6 0 13 -5 13 -14v-245h72c10 0 15 -7 15 -14s-5 -15 -15 -15h-72v-8h-117v8h-167c-23 0 -31 14 -31 23z" fill="currentColor"/>
</g>
</a>
<a style="color:inherit;" xlink:href="textedit:///Users/kapsitis/workspace-public/ddgatve-songs/songs-lt/lilypond/MaciauEsjuojont.ly:44:0:1">
<g transform="translate(52.3247, 11.9550)">
<text font-family="serif" font-size="2.4696" text-anchor="start" fill="currentColor">
<tspan>ma</tspan>
</text>
</g>
</a>
<g transform="translate(54.4141, 4.2402)">
<rect x="-0.0650" y="-2.5000" width="0.1300" height="3.3139" ry="0.0400" fill="currentColor"/>
</g>
<g transform="translate(54.4791, 1.7802)">
<path transform="scale(0.0040, -0.0040)" d="M0 0v-250h-16v250h16zM0 0c0 -197 207 -336 207 -533c0 -71 -15 -141 -41 -207c-5 -8 -13 -12 -20 -12c-13 0 -26 11 -23 27c26 61 42 126 42 192c0 103 -94 208 -165 283v250z" fill="currentColor"/>
</g>
<g transform="translate(53.2399, 4.2402)">
<rect x="-0.0650" y="1.1861" width="0.1300" height="2.9389" ry="0.0400" fill="currentColor"/>
</g>
<g transform="translate(53.3049, 8.3252)">
<path transform="scale(0.0040, -0.0040)" d="M0 0h-16v250h16v-250zM0 0v250c97 59 224 148 224 259c0 57 -15 112 -40 163c-3 16 10 27 23 27c7 0 15 -3 20 -11c25 -56 40 -117 40 -179c0 -203 -267 -306 -267 -509z" fill="currentColor"/>
</g>
<g color="rgb(100%, 100%, 100%)">
<g transform="translate(0.0000, 12.4880)">
<text font-family="sans-serif" font-size="1.9600" text-anchor="start" fill="currentColor">
<tspan>__</tspan>
</text>
</g>
</g>
</svg>
