<svg xmlns="http://www.w3.org/2000/svg" xmlns:xlink="http://www.w3.org/1999/xlink" version="1.2" width="141.98mm" height="36.53mm" viewBox="-1.1267 -0.0000 80.7944 20.7863">
<style type="text/css">
<![CDATA[
tspan { white-space: pre; }
]]>
</style>
<g transform="translate(0.0000, -0.4097)">
<text font-family="serif" font-size="2.2001" text-anchor="start" fill="currentColor">
<tspan>__</tspan>
</text>
</g>
<g transform="translate(77.4825, -0.4097)">
<text font-family="serif" font-size="2.2001" text-anchor="start" fill="currentColor">
<tspan>__</tspan>
</text>
</g>
<g transform="translate(0.0000, 5.9024)">
<line stroke-linejoin="round" stroke-linecap="round" stroke-width="0.1000" stroke="currentColor" x1="0.0500" y1="0" x2="79.6177" y2="0"/>
</g>
<g transform="translate(0.0000, 4.9024)">
<line stroke-linejoin="round" stroke-linecap="round" stroke-width="0.1000" stroke="currentColor" x1="0.0500" y1="0" x2="79.6177" y2="0"/>
</g>
<g transform="translate(0.0000, 3.9024)">
<line stroke-linejoin="round" stroke-linecap="round" stroke-width="0.1000" stroke="currentColor" x1="0.0500" y1="0" x2="79.6177" y2="0"/>
</g>
<g transform="translate(0.0000, 2.9024)">
<line stroke-linejoin="round" stroke-linecap="round" stroke-width="0.1000" stroke="currentColor" x1="0.0500" y1="0" x2="79.6177" y2="0"/>
</g>
<g transform="translate(0.0000, 1.9024)">
<line stroke-linejoin="round" stroke-linecap="round" stroke-width="0.1000" stroke="currentColor" x1="0.0500" y1="0" x2="79.6177" y2="0"/>
</g>
<g transform="translate(60.8897, 3.9024)">
<rect x="0.0000" y="-2.0000" width="0.1900" height="4.0000" ry="0.0000" fill="currentColor"/>
</g>
<g transform="translate(42.4980, 3.9024)">
<rect x="0.0000" y="-2.0000" width="0.1900" height="4.0000" ry="0.0000" fill="currentColor"/>
</g>
<g transform="translate(79.4777, 3.9024)">
<rect x="0.0000" y="-2.0000" width="0.1900" height="4.0000" ry="0.0000" fill="currentColor"/>
</g>
<g transform="translate(24.8715, 3.9024)">
<rect x="0.0000" y="-2.0000" width="0.1900" height="4.0000" ry="0.0000" fill="currentColor"/>
</g>
<g transform="translate(63.7930, 3.9024)">
<rect x="-0.0650" y="-2.5000" width="0.1300" height="3.3139" ry="0.0400" fill="currentColor"/>
</g>
<a style="color:inherit;" xlink:href="textedit://C:/Users/kalvis.apsitis/workspace/ddgatve-songs/songs/lilypond/A-ApapaVelcPeli-teSalduMiegu.ly:22:30:31">
<g transform="translate(52.7564, 4.9024)">
<path transform="scale(0.0040, -0.0040)" d="M218 136c55 0 108 -28 108 -89c0 -71 -55 -121 -102 -149c-35 -21 -75 -34 -116 -34c-55 0 -108 28 -108 89c0 71 55 121 102 149c35 21 75 34 116 34z" fill="currentColor"/>
</g>
</a>
<a style="color:inherit;" xlink:href="textedit://C:/Users/kalvis.apsitis/workspace/ddgatve-songs/songs/lilypond/A-ApapaVelcPeli-teSalduMiegu.ly:28:28:29">
<g transform="translate(52.6232, 9.4024)">
<text font-family="serif" font-size="2.4696" text-anchor="start" fill="currentColor">
<tspan>lī</tspan>
</text>
</g>
</a>
<g transform="translate(53.9956, 3.9024)">
<rect x="-0.0650" y="-2.5000" width="0.1300" height="3.3139" ry="0.0400" fill="currentColor"/>
</g>
<g transform="translate(54.0606, 1.4424)">
<path transform="scale(0.0040, -0.0040)" d="M0 0v-250h-16v250h16zM0 0c0 -197 207 -336 207 -533c0 -71 -15 -141 -41 -207c-5 -8 -13 -12 -20 -12c-13 0 -26 11 -23 27c26 61 42 126 42 192c0 103 -94 208 -165 283v250z" fill="currentColor"/>
</g>
<a style="color:inherit;" xlink:href="textedit://C:/Users/kalvis.apsitis/workspace/ddgatve-songs/songs/lilypond/A-ApapaVelcPeli-teSalduMiegu.ly:22:32:33">
<g transform="translate(56.7914, 5.9024)">
<path transform="scale(0.0040, -0.0040)" d="M218 136c55 0 108 -28 108 -89c0 -71 -55 -121 -102 -149c-35 -21 -75 -34 -116 -34c-55 0 -108 28 -108 89c0 71 55 121 102 149c35 21 75 34 116 34z" fill="currentColor"/>
</g>
</a>
<a style="color:inherit;" xlink:href="textedit://C:/Users/kalvis.apsitis/workspace/ddgatve-songs/songs/lilypond/A-ApapaVelcPeli-teSalduMiegu.ly:28:34:35">
<g transform="translate(56.2144, 9.4024)">
<text font-family="serif" font-size="2.4696" text-anchor="start" fill="currentColor">
<tspan>te</tspan>
</text>
</g>
</a>
<g transform="translate(58.0307, 3.9024)">
<rect x="-0.0650" y="-1.5000" width="0.1300" height="3.3139" ry="0.0400" fill="currentColor"/>
</g>
<g transform="translate(58.0957, 2.4424)">
<path transform="scale(0.0040, -0.0040)" d="M0 0v-250h-16v250h16zM0 0c0 -197 207 -336 207 -533c0 -71 -15 -141 -41 -207c-5 -8 -13 -12 -20 -12c-13 0 -26 11 -23 27c26 61 42 126 42 192c0 103 -94 208 -165 283v250z" fill="currentColor"/>
</g>
<a style="color:inherit;" xlink:href="textedit://C:/Users/kalvis.apsitis/workspace/ddgatve-songs/songs/lilypond/A-ApapaVelcPeli-teSalduMiegu.ly:22:36:37">
<g transform="translate(62.5538, 4.9024)">
<path transform="scale(0.0040, -0.0040)" d="M218 136c55 0 108 -28 108 -89c0 -71 -55 -121 -102 -149c-35 -21 -75 -34 -116 -34c-55 0 -108 28 -108 89c0 71 55 121 102 149c35 21 75 34 116 34z" fill="currentColor"/>
</g>
</a>
<a style="color:inherit;" xlink:href="textedit://C:/Users/kalvis.apsitis/workspace/ddgatve-songs/songs/lilypond/A-ApapaVelcPeli-teSalduMiegu.ly:28:37:38">
<g transform="translate(61.4475, 9.4024)">
<text font-family="serif" font-size="2.4696" text-anchor="start" fill="currentColor">
<tspan>sal</tspan>
</text>
</g>
</a>
<a style="color:inherit;" xlink:href="textedit://C:/Users/kalvis.apsitis/workspace/ddgatve-songs/songs/lilypond/A-ApapaVelcPeli-teSalduMiegu.ly:22:25:26">
<g transform="translate(44.1621, 4.9024)">
<path transform="scale(0.0040, -0.0040)" d="M218 136c55 0 108 -28 108 -89c0 -71 -55 -121 -102 -149c-35 -21 -75 -34 -116 -34c-55 0 -108 28 -108 89c0 71 55 121 102 149c35 21 75 34 116 34z" fill="currentColor"/>
</g>
</a>
<a style="color:inherit;" xlink:href="textedit://C:/Users/kalvis.apsitis/workspace/ddgatve-songs/songs/lilypond/A-ApapaVelcPeli-teSalduMiegu.ly:22:3:4">
<g transform="translate(8.6047, 3.9024)">
<path stroke-width="0.0800" stroke-linejoin="round" stroke-linecap="round" stroke="currentColor" fill="currentColor" d="M0.6218 2.1950C2.4921 3.8859 10.7030 4.4594 12.7902 3.0450L12.7902 3.0450C10.7114 4.3397 2.5005 3.7661 0.6218 2.1950z"/>
</g>
</a>
<a style="color:inherit;" xlink:href="textedit://C:/Users/kalvis.apsitis/workspace/ddgatve-songs/songs/lilypond/A-ApapaVelcPeli-teSalduMiegu.ly:28:17:18">
<g transform="translate(42.2876, 9.4024)">
<text font-family="serif" font-size="2.4696" text-anchor="start" fill="currentColor">
<tspan>velc</tspan>
</text>
</g>
</a>
<g transform="translate(45.4013, 3.9024)">
<rect x="-0.0650" y="-2.5000" width="0.1300" height="3.3139" ry="0.0400" fill="currentColor"/>
</g>
<g transform="translate(45.4663, 1.4424)">
<path transform="scale(0.0040, -0.0040)" d="M0 0v-250h-16v250h16zM0 0c0 -197 207 -336 207 -533c0 -71 -15 -141 -41 -207c-5 -8 -13 -12 -20 -12c-13 0 -26 11 -23 27c26 61 42 126 42 192c0 103 -94 208 -165 283v250z" fill="currentColor"/>
</g>
<a style="color:inherit;" xlink:href="textedit://C:/Users/kalvis.apsitis/workspace/ddgatve-songs/songs/lilypond/A-ApapaVelcPeli-teSalduMiegu.ly:22:28:29">
<g transform="translate(48.6581, 5.9024)">
<path transform="scale(0.0040, -0.0040)" d="M218 136c55 0 108 -28 108 -89c0 -71 -55 -121 -102 -149c-35 -21 -75 -34 -116 -34c-55 0 -108 28 -108 89c0 71 55 121 102 149c35 21 75 34 116 34z" fill="currentColor"/>
</g>
</a>
<a style="color:inherit;" xlink:href="textedit://C:/Users/kalvis.apsitis/workspace/ddgatve-songs/songs/lilypond/A-ApapaVelcPeli-teSalduMiegu.ly:28:22:23">
<g transform="translate(47.7908, 9.4024)">
<text font-family="serif" font-size="2.4696" text-anchor="start" fill="currentColor">
<tspan>pe</tspan>
</text>
</g>
</a>
<g transform="translate(49.8973, 3.9024)">
<rect x="-0.0650" y="-1.5000" width="0.1300" height="3.3139" ry="0.0400" fill="currentColor"/>
</g>
<g transform="translate(49.9623, 2.4424)">
<path transform="scale(0.0040, -0.0040)" d="M0 0v-250h-16v250h16zM0 0c0 -197 207 -336 207 -533c0 -71 -15 -141 -41 -207c-5 -8 -13 -12 -20 -12c-13 0 -26 11 -23 27c26 61 42 126 42 192c0 103 -94 208 -165 283v250z" fill="currentColor"/>
</g>
<g transform="translate(72.2986, 1.9424)">
<path transform="scale(0.0040, -0.0040)" d="M0 0v-250h-16v250h16zM0 0c0 -197 207 -336 207 -533c0 -71 -15 -141 -41 -207c-5 -8 -13 -12 -20 -12c-13 0 -26 11 -23 27c26 61 42 126 42 192c0 103 -94 208 -165 283v250z" fill="currentColor"/>
</g>
<a style="color:inherit;" xlink:href="textedit://C:/Users/kalvis.apsitis/workspace/ddgatve-songs/songs/lilypond/A-ApapaVelcPeli-teSalduMiegu.ly:22:43:44">
<g transform="translate(75.3794, 5.9024)">
<path transform="scale(0.0040, -0.0040)" d="M218 136c55 0 108 -28 108 -89c0 -71 -55 -121 -102 -149c-35 -21 -75 -34 -116 -34c-55 0 -108 28 -108 89c0 71 55 121 102 149c35 21 75 34 116 34z" fill="currentColor"/>
</g>
</a>
<a style="color:inherit;" xlink:href="textedit://C:/Users/kalvis.apsitis/workspace/ddgatve-songs/songs/lilypond/A-ApapaVelcPeli-teSalduMiegu.ly:28:54:55">
<g transform="translate(74.0512, 9.4024)">
<text font-family="serif" font-size="2.4696" text-anchor="start" fill="currentColor">
<tspan>gu,</tspan>
</text>
</g>
</a>
<g transform="translate(76.6186, 3.9024)">
<rect x="-0.0650" y="-1.5000" width="0.1300" height="3.3139" ry="0.0400" fill="currentColor"/>
</g>
<g transform="translate(76.6836, 2.4424)">
<path transform="scale(0.0040, -0.0040)" d="M0 0v-250h-16v250h16zM0 0c0 -197 207 -336 207 -533c0 -71 -15 -141 -41 -207c-5 -8 -13 -12 -20 -12c-13 0 -26 11 -23 27c26 61 42 126 42 192c0 103 -94 208 -165 283v250z" fill="currentColor"/>
</g>
<g transform="translate(72.2336, 3.9024)">
<rect x="-0.0650" y="-2.0000" width="0.1300" height="3.3139" ry="0.0400" fill="currentColor"/>
</g>
<a style="color:inherit;" xlink:href="textedit://C:/Users/kalvis.apsitis/workspace/ddgatve-songs/songs/lilypond/A-ApapaVelcPeli-teSalduMiegu.ly:28:41:42">
<g transform="translate(65.0343, 9.4024)">
<rect x="0.0000" y="-0.5500" width="0.6122" height="0.1300" ry="0.0400" fill="currentColor"/>
</g>
</a>
<a style="color:inherit;" xlink:href="textedit://C:/Users/kalvis.apsitis/workspace/ddgatve-songs/songs/lilypond/A-ApapaVelcPeli-teSalduMiegu.ly:28:31:32">
<g transform="translate(54.8741, 9.4024)">
<rect x="0.0000" y="-0.5500" width="0.6600" height="0.1300" ry="0.0400" fill="currentColor"/>
</g>
</a>
<a style="color:inherit;" xlink:href="textedit://C:/Users/kalvis.apsitis/workspace/ddgatve-songs/songs/lilypond/A-ApapaVelcPeli-teSalduMiegu.ly:28:25:26">
<g transform="translate(51.3964, 9.4024)">
<rect x="0.0000" y="-0.5500" width="0.6600" height="0.1300" ry="0.0400" fill="currentColor"/>
</g>
</a>
<a style="color:inherit;" xlink:href="textedit://C:/Users/kalvis.apsitis/workspace/ddgatve-songs/songs/lilypond/A-ApapaVelcPeli-teSalduMiegu.ly:28:10:11">
<g transform="translate(32.8121, 9.4024)">
<rect x="0.0000" y="-0.5500" width="0.5269" height="0.1300" ry="0.0400" fill="currentColor"/>
</g>
</a>
<a style="color:inherit;" xlink:href="textedit://C:/Users/kalvis.apsitis/workspace/ddgatve-songs/songs/lilypond/A-ApapaVelcPeli-teSalduMiegu.ly:28:4:5">
<g transform="translate(28.4825, 9.4024)">
<rect x="0.0000" y="-0.5500" width="0.6600" height="0.1300" ry="0.0400" fill="currentColor"/>
</g>
</a>
<g transform="translate(63.8580, 1.4424)">
<path transform="scale(0.0040, -0.0040)" d="M0 0v-250h-16v250h16zM0 0c0 -197 207 -336 207 -533c0 -71 -15 -141 -41 -207c-5 -8 -13 -12 -20 -12c-13 0 -26 11 -23 27c26 61 42 126 42 192c0 103 -94 208 -165 283v250z" fill="currentColor"/>
</g>
<a style="color:inherit;" xlink:href="textedit://C:/Users/kalvis.apsitis/workspace/ddgatve-songs/songs/lilypond/A-ApapaVelcPeli-teSalduMiegu.ly:22:39:40">
<g transform="translate(66.6521, 5.4024)">
<path transform="scale(0.0040, -0.0040)" d="M218 136c55 0 108 -28 108 -89c0 -71 -55 -121 -102 -149c-35 -21 -75 -34 -116 -34c-55 0 -108 28 -108 89c0 71 55 121 102 149c35 21 75 34 116 34z" fill="currentColor"/>
</g>
</a>
<a style="color:inherit;" xlink:href="textedit://C:/Users/kalvis.apsitis/workspace/ddgatve-songs/songs/lilypond/A-ApapaVelcPeli-teSalduMiegu.ly:28:44:45">
<g transform="translate(65.7165, 9.4024)">
<text font-family="serif" font-size="2.4696" text-anchor="start" fill="currentColor">
<tspan>du</tspan>
</text>
</g>
</a>
<g transform="translate(67.8913, 3.9024)">
<rect x="-0.0650" y="-2.0000" width="0.1300" height="3.3139" ry="0.0400" fill="currentColor"/>
</g>
<g transform="translate(67.9563, 1.9424)">
<path transform="scale(0.0040, -0.0040)" d="M0 0v-250h-16v250h16zM0 0c0 -197 207 -336 207 -533c0 -71 -15 -141 -41 -207c-5 -8 -13 -12 -20 -12c-13 0 -26 11 -23 27c26 61 42 126 42 192c0 103 -94 208 -165 283v250z" fill="currentColor"/>
</g>
<a style="color:inherit;" xlink:href="textedit://C:/Users/kalvis.apsitis/workspace/ddgatve-songs/songs/lilypond/A-ApapaVelcPeli-teSalduMiegu.ly:22:41:42">
<g transform="translate(70.9944, 5.4024)">
<path transform="scale(0.0040, -0.0040)" d="M218 136c55 0 108 -28 108 -89c0 -71 -55 -121 -102 -149c-35 -21 -75 -34 -116 -34c-55 0 -108 28 -108 89c0 71 55 121 102 149c35 21 75 34 116 34z" fill="currentColor"/>
</g>
</a>
<a style="color:inherit;" xlink:href="textedit://C:/Users/kalvis.apsitis/workspace/ddgatve-songs/songs/lilypond/A-ApapaVelcPeli-teSalduMiegu.ly:28:47:48">
<g transform="translate(69.3419, 9.4024)">
<text font-family="serif" font-size="2.4696" text-anchor="start" fill="currentColor">
<tspan>mie</tspan>
</text>
</g>
</a>
<g transform="translate(18.0423, 1.4424)">
<path transform="scale(0.0040, -0.0040)" d="M0 0v-250h-16v250h16zM0 0c0 -197 207 -336 207 -533c0 -71 -15 -141 -41 -207c-5 -8 -13 -12 -20 -12c-13 0 -26 11 -23 27c26 61 42 126 42 192c0 103 -94 208 -165 283v250z" fill="currentColor"/>
</g>
<a style="color:inherit;" xlink:href="textedit://C:/Users/kalvis.apsitis/workspace/ddgatve-songs/songs/lilypond/A-ApapaVelcPeli-teSalduMiegu.ly:22:5:6">
<g transform="translate(12.6398, 5.9024)">
<path transform="scale(0.0040, -0.0040)" d="M218 136c55 0 108 -28 108 -89c0 -71 -55 -121 -102 -149c-35 -21 -75 -34 -116 -34c-55 0 -108 28 -108 89c0 71 55 121 102 149c35 21 75 34 116 34z" fill="currentColor"/>
</g>
</a>
<g transform="translate(13.8790, 3.9024)">
<rect x="-0.0650" y="-1.5000" width="0.1300" height="3.3139" ry="0.0400" fill="currentColor"/>
</g>
<g transform="translate(13.9440, 2.4424)">
<path transform="scale(0.0040, -0.0040)" d="M0 0v-250h-16v250h16zM0 0c0 -197 207 -336 207 -533c0 -71 -15 -141 -41 -207c-5 -8 -13 -12 -20 -12c-13 0 -26 11 -23 27c26 61 42 126 42 192c0 103 -94 208 -165 283v250z" fill="currentColor"/>
</g>
<a style="color:inherit;" xlink:href="textedit://C:/Users/kalvis.apsitis/workspace/ddgatve-songs/songs/lilypond/A-ApapaVelcPeli-teSalduMiegu.ly:22:7:8">
<g transform="translate(16.7381, 4.9024)">
<path transform="scale(0.0040, -0.0040)" d="M218 136c55 0 108 -28 108 -89c0 -71 -55 -121 -102 -149c-35 -21 -75 -34 -116 -34c-55 0 -108 28 -108 89c0 71 55 121 102 149c35 21 75 34 116 34z" fill="currentColor"/>
</g>
</a>
<g transform="translate(17.9773, 3.9024)">
<rect x="-0.0650" y="-2.5000" width="0.1300" height="3.3139" ry="0.0400" fill="currentColor"/>
</g>
<a style="color:inherit;" xlink:href="textedit://C:/Users/kalvis.apsitis/workspace/ddgatve-songs/songs/lilypond/A-ApapaVelcPeli-teSalduMiegu.ly:22:9:10">
<g transform="translate(20.7732, 5.9024)">
<path transform="scale(0.0040, -0.0040)" d="M218 136c55 0 108 -28 108 -89c0 -71 -55 -121 -102 -149c-35 -21 -75 -34 -116 -34c-55 0 -108 28 -108 89c0 71 55 121 102 149c35 21 75 34 116 34z" fill="currentColor"/>
</g>
</a>
<g transform="translate(22.0124, 3.9024)">
<rect x="-0.0650" y="-1.5000" width="0.1300" height="3.3139" ry="0.0400" fill="currentColor"/>
</g>
<g transform="translate(22.0774, 2.4424)">
<path transform="scale(0.0040, -0.0040)" d="M0 0v-250h-16v250h16zM0 0c0 -197 207 -336 207 -533c0 -71 -15 -141 -41 -207c-5 -8 -13 -12 -20 -12c-13 0 -26 11 -23 27c26 61 42 126 42 192c0 103 -94 208 -165 283v250z" fill="currentColor"/>
</g>
<a style="color:inherit;" xlink:href="textedit://C:/Users/kalvis.apsitis/workspace/ddgatve-songs/songs/lilypond/A-ApapaVelcPeli-teSalduMiegu.ly:22:14:15">
<g transform="translate(26.5355, 4.9024)">
<path transform="scale(0.0040, -0.0040)" d="M218 136c55 0 108 -28 108 -89c0 -71 -55 -121 -102 -149c-35 -21 -75 -34 -116 -34c-55 0 -108 28 -108 89c0 71 55 121 102 149c35 21 75 34 116 34z" fill="currentColor"/>
</g>
</a>
<a style="color:inherit;" xlink:href="textedit://C:/Users/kalvis.apsitis/workspace/ddgatve-songs/songs/lilypond/A-ApapaVelcPeli-teSalduMiegu.ly:28:2:3">
<g transform="translate(26.4535, 9.4024)">
<text font-family="serif" font-size="2.4696" text-anchor="start" fill="currentColor">
<tspan>a</tspan>
</text>
</g>
</a>
<g transform="translate(9.8439, 3.9024)">
<rect x="-0.0650" y="-2.5000" width="0.1300" height="3.3139" ry="0.0400" fill="currentColor"/>
</g>
<a style="color:inherit;" xlink:href="textedit://C:/Users/kalvis.apsitis/workspace/ddgatve-songs/songs/lilypond/A-ApapaVelcPeli-teSalduMiegu.ly:22:0:1">
<g transform="translate(8.6047, 4.9024)">
<path transform="scale(0.0040, -0.0040)" d="M218 136c55 0 108 -28 108 -89c0 -71 -55 -121 -102 -149c-35 -21 -75 -34 -116 -34c-55 0 -108 28 -108 89c0 71 55 121 102 149c35 21 75 34 116 34z" fill="currentColor"/>
</g>
</a>
<g transform="translate(0.8000, 4.9024)">
<path transform="scale(0.0040, -0.0040)" d="M266 -635h-6c-108 0 -195 88 -195 197c0 58 53 103 112 103c54 0 95 -47 95 -103c0 -52 -43 -95 -95 -95c-11 0 -21 2 -31 6c26 -39 68 -65 117 -65h4zM461 -203c68 24 113 95 113 164c0 90 -66 179 -173 190c24 -116 46 -231 60 -354zM74 28c0 -135 129 -247 264 -247
c28 0 55 2 82 6c-14 127 -37 245 -63 364c-79 -8 -124 -61 -124 -119c0 -44 25 -91 81 -123c5 -5 7 -10 7 -15c0 -11 -10 -22 -22 -22c-3 0 -6 1 -9 2c-80 43 -117 115 -117 185c0 88 58 174 160 197c-14 58 -29 117 -46 175c-107 -121 -213 -243 -213 -403zM335 -262
c-188 0 -333 172 -333 374c0 177 131 306 248 441c-19 62 -37 125 -45 190c-6 52 -7 104 -7 156c0 115 55 224 149 292c6 5 14 5 20 0c71 -84 133 -245 133 -358c0 -143 -86 -255 -180 -364c21 -68 39 -138 56 -207c4 0 9 1 13 1c155 0 256 -128 256 -261
c0 -76 -33 -154 -107 -210c-22 -17 -47 -28 -73 -36c3 -35 5 -70 5 -105c0 -19 -1 -39 -2 -58c-7 -119 -88 -225 -202 -228l1 43c93 2 153 92 159 191c1 18 2 37 2 55c0 31 -1 61 -4 92c-29 -5 -58 -8 -89 -8zM428 916c0 55 -4 79 -20 129c-99 -48 -162 -149 -162 -259
c0 -74 18 -133 36 -194c80 97 146 198 146 324z" fill="currentColor"/>
</g>
<a style="color:inherit;" xlink:href="textedit://C:/Users/kalvis.apsitis/workspace/ddgatve-songs/songs/lilypond/A-ApapaVelcPeli-teSalduMiegu.ly:20:0:1">
</a>
<a style="color:inherit;" xlink:href="textedit://C:/Users/kalvis.apsitis/workspace/ddgatve-songs/songs/lilypond/A-ApapaVelcPeli-teSalduMiegu.ly:21:0:1">
<g transform="translate(5.0683, 3.9024)">
<path transform="scale(0.0040, -0.0040)" d="M103 135c9 2 17 3 26 3c33 0 70 -11 105 -36c21 -15 46 -23 66 -23c21 0 39 9 44 29c2 6 6 9 11 9c6 0 12 -5 12 -12c0 -67 -90 -105 -138 -105c-36 0 -71 14 -96 44c-13 16 -31 22 -48 22c-30 0 -59 -20 -62 -55c-1 -7 -6 -11 -11 -11c-6 0 -12 4 -12 11
c0 175 235 165 235 344c0 60 -18 122 -70 122c-26 0 -51 -14 -51 -37c0 -27 35 -41 35 -68c0 -38 -30 -69 -68 -69s-69 31 -69 69c0 76 72 128 153 128c96 0 187 -56 187 -145c0 -153 -151 -159 -249 -220z" fill="currentColor"/>
</g>
<g transform="translate(5.0000, 5.9510)">
<path transform="scale(0.0040, -0.0040)" d="M196 117h117c0 -48 27 -94 72 -94c8 0 12 -5 12 -11s-4 -12 -12 -12c-44 0 -87 13 -131 13s-87 -13 -131 -13c-8 0 -12 6 -12 12s4 11 12 11c45 0 73 46 73 94zM204 307c22 14 44 29 60 50c11 15 19 33 27 50c2 4 5 6 9 6c6 0 13 -5 13 -14v-245h72c10 0 15 -7 15 -14
s-5 -15 -15 -15h-72v-8h-117v8h-167c-23 0 -31 14 -31 23c0 3 1 5 2 6c80 93 138 207 138 330c0 10 7 19 16 16c23 -7 47 -13 71 -13s48 6 71 13c14 4 23 -9 17 -16l-284 -330h167v131c0 8 1 17 8 22z" fill="currentColor"/>
</g>
</a>
<a style="color:inherit;" xlink:href="textedit://C:/Users/kalvis.apsitis/workspace/ddgatve-songs/songs/lilypond/A-ApapaVelcPeli-teSalduMiegu.ly:28:0:1">
<g transform="translate(8.6047, 9.4024)">
<text font-family="serif" font-size="2.4696" text-anchor="start" fill="currentColor">
<tspan>Ā</tspan>
</text>
</g>
</a>
<g transform="translate(9.9089, 1.4424)">
<path transform="scale(0.0040, -0.0040)" d="M0 0v-250h-16v250h16zM0 0c0 -197 207 -336 207 -533c0 -71 -15 -141 -41 -207c-5 -8 -13 -12 -20 -12c-13 0 -26 11 -23 27c26 61 42 126 42 192c0 103 -94 208 -165 283v250z" fill="currentColor"/>
</g>
<g transform="translate(31.8098, 3.9024)">
<rect x="-0.0650" y="-1.5000" width="0.1300" height="3.3139" ry="0.0400" fill="currentColor"/>
</g>
<a style="color:inherit;" xlink:href="textedit://C:/Users/kalvis.apsitis/workspace/ddgatve-songs/songs/lilypond/A-ApapaVelcPeli-teSalduMiegu.ly:22:17:18">
<g transform="translate(30.5706, 5.9024)">
<path transform="scale(0.0040, -0.0040)" d="M218 136c55 0 108 -28 108 -89c0 -71 -55 -121 -102 -149c-35 -21 -75 -34 -116 -34c-55 0 -108 28 -108 89c0 71 55 121 102 149c35 21 75 34 116 34z" fill="currentColor"/>
</g>
</a>
<g transform="translate(35.9731, 1.4424)">
<path transform="scale(0.0040, -0.0040)" d="M0 0v-250h-16v250h16zM0 0c0 -197 207 -336 207 -533c0 -71 -15 -141 -41 -207c-5 -8 -13 -12 -20 -12c-13 0 -26 11 -23 27c26 61 42 126 42 192c0 103 -94 208 -165 283v250z" fill="currentColor"/>
</g>
<a style="color:inherit;" xlink:href="textedit://C:/Users/kalvis.apsitis/workspace/ddgatve-songs/songs/lilypond/A-ApapaVelcPeli-teSalduMiegu.ly:28:7:8">
<g transform="translate(29.7033, 9.4024)">
<text font-family="serif" font-size="2.4696" text-anchor="start" fill="currentColor">
<tspan>pa</tspan>
</text>
</g>
</a>
<g transform="translate(31.8748, 2.4424)">
<path transform="scale(0.0040, -0.0040)" d="M0 0v-250h-16v250h16zM0 0c0 -197 207 -336 207 -533c0 -71 -15 -141 -41 -207c-5 -8 -13 -12 -20 -12c-13 0 -26 11 -23 27c26 61 42 126 42 192c0 103 -94 208 -165 283v250z" fill="currentColor"/>
</g>
<g transform="translate(35.9081, 3.9024)">
<rect x="-0.0650" y="-2.5000" width="0.1300" height="3.3139" ry="0.0400" fill="currentColor"/>
</g>
<a style="color:inherit;" xlink:href="textedit://C:/Users/kalvis.apsitis/workspace/ddgatve-songs/songs/lilypond/A-ApapaVelcPeli-teSalduMiegu.ly:28:13:14">
<g transform="translate(33.4090, 9.4024)">
<text font-family="serif" font-size="2.4696" text-anchor="start" fill="currentColor">
<tspan>pa,</tspan>
</text>
</g>
</a>
<a style="color:inherit;" xlink:href="textedit://C:/Users/kalvis.apsitis/workspace/ddgatve-songs/songs/lilypond/A-ApapaVelcPeli-teSalduMiegu.ly:22:19:20">
<g transform="translate(34.6689, 4.9024)">
<path transform="scale(0.0040, -0.0040)" d="M218 136c55 0 108 -28 108 -89c0 -71 -55 -121 -102 -149c-35 -21 -75 -34 -116 -34c-55 0 -108 28 -108 89c0 71 55 121 102 149c35 21 75 34 116 34z" fill="currentColor"/>
</g>
</a>
<a style="color:inherit;" xlink:href="textedit://C:/Users/kalvis.apsitis/workspace/ddgatve-songs/songs/lilypond/A-ApapaVelcPeli-teSalduMiegu.ly:22:21:22">
<g transform="translate(38.7672, 3.9024)">
<path transform="scale(0.0040, -0.0040)" d="M72 -250l117 326c-34 -12 -69 -22 -105 -22c-46 0 -87 33 -87 79c0 40 33 72 73 72c25 0 48 -15 56 -39c10 -28 6 -59 35 -59c16 0 54 48 61 63c6 12 23 12 28 0l-123 -420c-8 -7 -17 -10 -27 -10s-20 3 -28 10z" fill="currentColor"/>
</g>
</a>
<g transform="translate(27.7747, 3.9024)">
<rect x="-0.0650" y="-2.5000" width="0.1300" height="3.3139" ry="0.0400" fill="currentColor"/>
</g>
<g transform="translate(27.8397, 1.4424)">
<path transform="scale(0.0040, -0.0040)" d="M0 0v-250h-16v250h16zM0 0c0 -197 207 -336 207 -533c0 -71 -15 -141 -41 -207c-5 -8 -13 -12 -20 -12c-13 0 -26 11 -23 27c26 61 42 126 42 192c0 103 -94 208 -165 283v250z" fill="currentColor"/>
</g>
<g transform="translate(0.0000, 16.2962)">
<line stroke-linejoin="round" stroke-linecap="round" stroke-width="0.1000" stroke="currentColor" x1="0.0500" y1="0" x2="79.6177" y2="0"/>
</g>
<g transform="translate(0.0000, 15.2962)">
<line stroke-linejoin="round" stroke-linecap="round" stroke-width="0.1000" stroke="currentColor" x1="0.0500" y1="0" x2="79.6177" y2="0"/>
</g>
<g transform="translate(0.0000, 14.2962)">
<line stroke-linejoin="round" stroke-linecap="round" stroke-width="0.1000" stroke="currentColor" x1="0.0500" y1="0" x2="79.6177" y2="0"/>
</g>
<g transform="translate(0.0000, 13.2962)">
<line stroke-linejoin="round" stroke-linecap="round" stroke-width="0.1000" stroke="currentColor" x1="0.0500" y1="0" x2="79.6177" y2="0"/>
</g>
<g transform="translate(0.0000, 12.2962)">
<line stroke-linejoin="round" stroke-linecap="round" stroke-width="0.1000" stroke="currentColor" x1="0.0500" y1="0" x2="79.6177" y2="0"/>
</g>
<g transform="translate(22.9747, 14.2962)">
<rect x="0.0000" y="-2.0000" width="0.1900" height="4.0000" ry="0.0000" fill="currentColor"/>
</g>
<g transform="translate(60.6446, 14.2962)">
<rect x="0.0000" y="-2.0000" width="0.1900" height="4.0000" ry="0.0000" fill="currentColor"/>
</g>
<g transform="translate(79.0677, 14.2962)">
<rect x="0.0000" y="-2.0000" width="0.6000" height="4.0000" ry="0.0000" fill="currentColor"/>
</g>
<g transform="translate(78.5777, 14.2962)">
<rect x="0.0000" y="-2.0000" width="0.1900" height="4.0000" ry="0.0000" fill="currentColor"/>
</g>
<g transform="translate(41.5943, 14.2962)">
<rect x="0.0000" y="-2.0000" width="0.1900" height="4.0000" ry="0.0000" fill="currentColor"/>
</g>
<g transform="translate(57.5585, 14.2962)">
<rect x="-0.0650" y="-1.5000" width="0.1300" height="3.3139" ry="0.0400" fill="currentColor"/>
</g>
<g transform="translate(57.6235, 12.8362)">
<path transform="scale(0.0040, -0.0040)" d="M0 0v-250h-16v250h16zM0 0c0 -197 207 -336 207 -533c0 -71 -15 -141 -41 -207c-5 -8 -13 -12 -20 -12c-13 0 -26 11 -23 27c26 61 42 126 42 192c0 103 -94 208 -165 283v250z" fill="currentColor"/>
</g>
<a style="color:inherit;" xlink:href="textedit://C:/Users/kalvis.apsitis/workspace/ddgatve-songs/songs/lilypond/A-ApapaVelcPeli-teSalduMiegu.ly:23:2:3">
<g transform="translate(5.8000, 14.2962)">
<path stroke-width="0.0800" stroke-linejoin="round" stroke-linecap="round" stroke="currentColor" fill="currentColor" d="M0.6234 2.1950C2.5524 3.9065 11.3351 4.4875 13.4728 3.0450L13.4728 3.0450C11.3431 4.3678 2.5603 3.7868 0.6234 2.1950z"/>
</g>
</a>
<a style="color:inherit;" xlink:href="textedit://C:/Users/kalvis.apsitis/workspace/ddgatve-songs/songs/lilypond/A-ApapaVelcPeli-teSalduMiegu.ly:23:35:36">
<g transform="translate(62.3938, 15.7962)">
<path transform="scale(0.0040, -0.0040)" d="M218 136c55 0 108 -28 108 -89c0 -71 -55 -121 -102 -149c-35 -21 -75 -34 -116 -34c-55 0 -108 28 -108 89c0 71 55 121 102 149c35 21 75 34 116 34z" fill="currentColor"/>
</g>
</a>
<a style="color:inherit;" xlink:href="textedit://C:/Users/kalvis.apsitis/workspace/ddgatve-songs/songs/lilypond/A-ApapaVelcPeli-teSalduMiegu.ly:29:38:39">
<g transform="translate(60.9290, 19.7962)">
<text font-family="serif" font-size="2.4696" text-anchor="start" fill="currentColor">
<tspan>bēr</tspan>
</text>
</g>
</a>
<g transform="translate(63.6330, 14.2962)">
<rect x="-0.0650" y="-2.0000" width="0.1300" height="3.3139" ry="0.0400" fill="currentColor"/>
</g>
<a style="color:inherit;" xlink:href="textedit://C:/Users/kalvis.apsitis/workspace/ddgatve-songs/songs/lilypond/A-ApapaVelcPeli-teSalduMiegu.ly:29:35:36">
<g transform="translate(55.0594, 19.7962)">
<text font-family="serif" font-size="2.4696" text-anchor="start" fill="currentColor">
<tspan>me</tspan>
</text>
</g>
</a>
<g transform="translate(63.6980, 12.3362)">
<path transform="scale(0.0040, -0.0040)" d="M0 0v-250h-16v250h16zM0 0c0 -197 207 -336 207 -533c0 -71 -15 -141 -41 -207c-5 -8 -13 -12 -20 -12c-13 0 -26 11 -23 27c26 61 42 126 42 192c0 103 -94 208 -165 283v250z" fill="currentColor"/>
</g>
<g transform="translate(48.9730, 12.3362)">
<path transform="scale(0.0040, -0.0040)" d="M0 0v-250h-16v250h16zM0 0c0 -197 207 -336 207 -533c0 -71 -15 -141 -41 -207c-5 -8 -13 -12 -20 -12c-13 0 -26 11 -23 27c26 61 42 126 42 192c0 103 -94 208 -165 283v250z" fill="currentColor"/>
</g>
<a style="color:inherit;" xlink:href="textedit://C:/Users/kalvis.apsitis/workspace/ddgatve-songs/songs/lilypond/A-ApapaVelcPeli-teSalduMiegu.ly:23:27:28">
<g transform="translate(47.6688, 15.7962)">
<path transform="scale(0.0040, -0.0040)" d="M218 136c55 0 108 -28 108 -89c0 -71 -55 -121 -102 -149c-35 -21 -75 -34 -116 -34c-55 0 -108 28 -108 89c0 71 55 121 102 149c35 21 75 34 116 34z" fill="currentColor"/>
</g>
</a>
<a style="color:inherit;" xlink:href="textedit://C:/Users/kalvis.apsitis/workspace/ddgatve-songs/songs/lilypond/A-ApapaVelcPeli-teSalduMiegu.ly:29:23:24">
<g transform="translate(46.8015, 19.7962)">
<text font-family="serif" font-size="2.4696" text-anchor="start" fill="currentColor">
<tspan>ģa</tspan>
</text>
</g>
</a>
<g transform="translate(48.9080, 14.2962)">
<rect x="-0.0650" y="-2.0000" width="0.1300" height="3.3139" ry="0.0400" fill="currentColor"/>
</g>
<a style="color:inherit;" xlink:href="textedit://C:/Users/kalvis.apsitis/workspace/ddgatve-songs/songs/lilypond/A-ApapaVelcPeli-teSalduMiegu.ly:23:31:32">
<g transform="translate(56.3193, 16.2962)">
<path transform="scale(0.0040, -0.0040)" d="M218 136c55 0 108 -28 108 -89c0 -71 -55 -121 -102 -149c-35 -21 -75 -34 -116 -34c-55 0 -108 28 -108 89c0 71 55 121 102 149c35 21 75 34 116 34z" fill="currentColor"/>
</g>
</a>
<a style="color:inherit;" xlink:href="textedit://C:/Users/kalvis.apsitis/workspace/ddgatve-songs/songs/lilypond/A-ApapaVelcPeli-teSalduMiegu.ly:23:29:30">
<g transform="translate(51.9940, 15.7962)">
<path transform="scale(0.0040, -0.0040)" d="M218 136c55 0 108 -28 108 -89c0 -71 -55 -121 -102 -149c-35 -21 -75 -34 -116 -34c-55 0 -108 28 -108 89c0 71 55 121 102 149c35 21 75 34 116 34z" fill="currentColor"/>
</g>
</a>
<a style="color:inherit;" xlink:href="textedit://C:/Users/kalvis.apsitis/workspace/ddgatve-songs/songs/lilypond/A-ApapaVelcPeli-teSalduMiegu.ly:29:29:30">
<g transform="translate(51.5365, 19.7962)">
<text font-family="serif" font-size="2.4696" text-anchor="start" fill="currentColor">
<tspan>ja</tspan>
</text>
</g>
</a>
<g transform="translate(53.2333, 14.2962)">
<rect x="-0.0650" y="-2.0000" width="0.1300" height="3.3139" ry="0.0400" fill="currentColor"/>
</g>
<g transform="translate(53.2983, 12.3362)">
<path transform="scale(0.0040, -0.0040)" d="M0 0v-250h-16v250h16zM0 0c0 -197 207 -336 207 -533c0 -71 -15 -141 -41 -207c-5 -8 -13 -12 -20 -12c-13 0 -26 11 -23 27c26 61 42 126 42 192c0 103 -94 208 -165 283v250z" fill="currentColor"/>
</g>
<g transform="translate(7.1042, 11.8362)">
<path transform="scale(0.0040, -0.0040)" d="M0 0v-250h-16v250h16zM0 0c0 -197 207 -336 207 -533c0 -71 -15 -141 -41 -207c-5 -8 -13 -12 -20 -12c-13 0 -26 11 -23 27c26 61 42 126 42 192c0 103 -94 208 -165 283v250z" fill="currentColor"/>
</g>
<g transform="translate(7.0392, 14.2962)">
<rect x="-0.0650" y="-2.5000" width="0.1300" height="3.3139" ry="0.0400" fill="currentColor"/>
</g>
<a style="color:inherit;" xlink:href="textedit://C:/Users/kalvis.apsitis/workspace/ddgatve-songs/songs/lilypond/A-ApapaVelcPeli-teSalduMiegu.ly:29:0:1">
<g transform="translate(5.8000, 19.7962)">
<text font-family="serif" font-size="2.4696" text-anchor="start" fill="currentColor">
<tspan>Ā</tspan>
</text>
</g>
</a>
<a style="color:inherit;" xlink:href="textedit://C:/Users/kalvis.apsitis/workspace/ddgatve-songs/songs/lilypond/A-ApapaVelcPeli-teSalduMiegu.ly:23:0:1">
<g transform="translate(5.8000, 15.2962)">
<path transform="scale(0.0040, -0.0040)" d="M218 136c55 0 108 -28 108 -89c0 -71 -55 -121 -102 -149c-35 -21 -75 -34 -116 -34c-55 0 -108 28 -108 89c0 71 55 121 102 149c35 21 75 34 116 34z" fill="currentColor"/>
</g>
</a>
<a style="color:inherit;" xlink:href="textedit://C:/Users/kalvis.apsitis/workspace/ddgatve-songs/songs/lilypond/A-ApapaVelcPeli-teSalduMiegu.ly:29:42:43">
<g transform="translate(65.3395, 19.7962)">
<rect x="0.0000" y="-0.5500" width="0.6600" height="0.1300" ry="0.0400" fill="currentColor"/>
</g>
</a>
<a style="color:inherit;" xlink:href="textedit://C:/Users/kalvis.apsitis/workspace/ddgatve-songs/songs/lilypond/A-ApapaVelcPeli-teSalduMiegu.ly:29:32:33">
<g transform="translate(54.0776, 19.7962)">
<rect x="0.0000" y="-0.5500" width="0.6600" height="0.1300" ry="0.0400" fill="currentColor"/>
</g>
</a>
<a style="color:inherit;" xlink:href="textedit://C:/Users/kalvis.apsitis/workspace/ddgatve-songs/songs/lilypond/A-ApapaVelcPeli-teSalduMiegu.ly:29:26:27">
<g transform="translate(50.3584, 19.7962)">
<rect x="0.0000" y="-0.5500" width="0.6600" height="0.1300" ry="0.0400" fill="currentColor"/>
</g>
</a>
<a style="color:inherit;" xlink:href="textedit://C:/Users/kalvis.apsitis/workspace/ddgatve-songs/songs/lilypond/A-ApapaVelcPeli-teSalduMiegu.ly:29:20:21">
<g transform="translate(46.0246, 19.7962)">
<rect x="0.0000" y="-0.5500" width="0.6600" height="0.1300" ry="0.0400" fill="currentColor"/>
</g>
</a>
<a style="color:inherit;" xlink:href="textedit://C:/Users/kalvis.apsitis/workspace/ddgatve-songs/songs/lilypond/A-ApapaVelcPeli-teSalduMiegu.ly:29:10:11">
<g transform="translate(31.2743, 19.7962)">
<rect x="0.0000" y="-0.5500" width="0.6600" height="0.1300" ry="0.0400" fill="currentColor"/>
</g>
</a>
<a style="color:inherit;" xlink:href="textedit://C:/Users/kalvis.apsitis/workspace/ddgatve-songs/songs/lilypond/A-ApapaVelcPeli-teSalduMiegu.ly:29:4:5">
<g transform="translate(26.7843, 19.7962)">
<rect x="0.0000" y="-0.5500" width="0.6600" height="0.1300" ry="0.0400" fill="currentColor"/>
</g>
</a>
<a style="color:inherit;" xlink:href="textedit://C:/Users/kalvis.apsitis/workspace/ddgatve-songs/songs/lilypond/A-ApapaVelcPeli-teSalduMiegu.ly:23:40:41">
<g transform="translate(71.1211, 16.2962)">
<path transform="scale(0.0040, -0.0040)" d="M218 136c55 0 108 -28 108 -89c0 -71 -55 -121 -102 -149c-35 -21 -75 -34 -116 -34c-55 0 -108 28 -108 89c0 71 55 121 102 149c35 21 75 34 116 34z" fill="currentColor"/>
</g>
</a>
<a style="color:inherit;" xlink:href="textedit://C:/Users/kalvis.apsitis/workspace/ddgatve-songs/songs/lilypond/A-ApapaVelcPeli-teSalduMiegu.ly:23:38:39">
<g transform="translate(66.7191, 15.7962)">
<path transform="scale(0.0040, -0.0040)" d="M218 136c55 0 108 -28 108 -89c0 -71 -55 -121 -102 -149c-35 -21 -75 -34 -116 -34c-55 0 -108 28 -108 89c0 71 55 121 102 149c35 21 75 34 116 34z" fill="currentColor"/>
</g>
</a>
<a style="color:inherit;" xlink:href="textedit://C:/Users/kalvis.apsitis/workspace/ddgatve-songs/songs/lilypond/A-ApapaVelcPeli-teSalduMiegu.ly:29:45:46">
<g transform="translate(66.1762, 19.7962)">
<text font-family="serif" font-size="2.4696" text-anchor="start" fill="currentColor">
<tspan>ni</tspan>
</text>
</g>
</a>
<g transform="translate(67.9583, 14.2962)">
<rect x="-0.0650" y="-2.0000" width="0.1300" height="3.3139" ry="0.0400" fill="currentColor"/>
</g>
<g transform="translate(68.0233, 12.3362)">
<path transform="scale(0.0040, -0.0040)" d="M0 0v-250h-16v250h16zM0 0c0 -197 207 -336 207 -533c0 -71 -15 -141 -41 -207c-5 -8 -13 -12 -20 -12c-13 0 -26 11 -23 27c26 61 42 126 42 192c0 103 -94 208 -165 283v250z" fill="currentColor"/>
</g>
<a style="color:inherit;" xlink:href="textedit://C:/Users/kalvis.apsitis/workspace/ddgatve-songs/songs/lilypond/A-ApapaVelcPeli-teSalduMiegu.ly:29:51:52">
<g transform="translate(68.6662, 19.7962)">
<text font-family="serif" font-size="2.4696" text-anchor="start" fill="currentColor">
<tspan>ņam.</tspan>
</text>
</g>
</a>
<g transform="translate(72.3603, 14.2962)">
<rect x="-0.0650" y="-1.5000" width="0.1300" height="3.3139" ry="0.0400" fill="currentColor"/>
</g>
<a style="color:inherit;" xlink:href="textedit://C:/Users/kalvis.apsitis/workspace/ddgatve-songs/songs/lilypond/A-ApapaVelcPeli-teSalduMiegu.ly:23:6:7">
<g transform="translate(14.3873, 15.2962)">
<path transform="scale(0.0040, -0.0040)" d="M218 136c55 0 108 -28 108 -89c0 -71 -55 -121 -102 -149c-35 -21 -75 -34 -116 -34c-55 0 -108 28 -108 89c0 71 55 121 102 149c35 21 75 34 116 34z" fill="currentColor"/>
</g>
</a>
<g transform="translate(15.6265, 14.2962)">
<rect x="-0.0650" y="-2.5000" width="0.1300" height="3.3139" ry="0.0400" fill="currentColor"/>
</g>
<g transform="translate(15.6915, 11.8362)">
<path transform="scale(0.0040, -0.0040)" d="M0 0v-250h-16v250h16zM0 0c0 -197 207 -336 207 -533c0 -71 -15 -141 -41 -207c-5 -8 -13 -12 -20 -12c-13 0 -26 11 -23 27c26 61 42 126 42 192c0 103 -94 208 -165 283v250z" fill="currentColor"/>
</g>
<a style="color:inherit;" xlink:href="textedit://C:/Users/kalvis.apsitis/workspace/ddgatve-songs/songs/lilypond/A-ApapaVelcPeli-teSalduMiegu.ly:23:8:9">
<g transform="translate(18.6494, 16.2962)">
<path transform="scale(0.0040, -0.0040)" d="M218 136c55 0 108 -28 108 -89c0 -71 -55 -121 -102 -149c-35 -21 -75 -34 -116 -34c-55 0 -108 28 -108 89c0 71 55 121 102 149c35 21 75 34 116 34z" fill="currentColor"/>
</g>
</a>
<g transform="translate(19.8886, 14.2962)">
<rect x="-0.0650" y="-1.5000" width="0.1300" height="3.3139" ry="0.0400" fill="currentColor"/>
</g>
<g transform="translate(19.9536, 12.8362)">
<path transform="scale(0.0040, -0.0040)" d="M0 0v-250h-16v250h16zM0 0c0 -197 207 -336 207 -533c0 -71 -15 -141 -41 -207c-5 -8 -13 -12 -20 -12c-13 0 -26 11 -23 27c26 61 42 126 42 192c0 103 -94 208 -165 283v250z" fill="currentColor"/>
</g>
<a style="color:inherit;" xlink:href="textedit://C:/Users/kalvis.apsitis/workspace/ddgatve-songs/songs/lilypond/A-ApapaVelcPeli-teSalduMiegu.ly:23:13:14">
<g transform="translate(24.7238, 15.2962)">
<path transform="scale(0.0040, -0.0040)" d="M218 136c55 0 108 -28 108 -89c0 -71 -55 -121 -102 -149c-35 -21 -75 -34 -116 -34c-55 0 -108 28 -108 89c0 71 55 121 102 149c35 21 75 34 116 34z" fill="currentColor"/>
</g>
</a>
<a style="color:inherit;" xlink:href="textedit://C:/Users/kalvis.apsitis/workspace/ddgatve-songs/songs/lilypond/A-ApapaVelcPeli-teSalduMiegu.ly:29:2:3">
<g transform="translate(24.6419, 19.7962)">
<text font-family="serif" font-size="2.4696" text-anchor="start" fill="currentColor">
<tspan>a</tspan>
</text>
</g>
</a>
<g transform="translate(25.9631, 14.2962)">
<rect x="-0.0650" y="-2.5000" width="0.1300" height="3.3139" ry="0.0400" fill="currentColor"/>
</g>
<g transform="translate(-1.1267, 11.2120)">
<text font-family="serif" font-size="1.7461" text-anchor="start" fill="currentColor">
<tspan>5</tspan>
</text>
</g>
<g transform="translate(0.8000, 15.2962)">
<path transform="scale(0.0040, -0.0040)" d="M266 -635h-6c-108 0 -195 88 -195 197c0 58 53 103 112 103c54 0 95 -47 95 -103c0 -52 -43 -95 -95 -95c-11 0 -21 2 -31 6c26 -39 68 -65 117 -65h4zM461 -203c68 24 113 95 113 164c0 90 -66 179 -173 190c24 -116 46 -231 60 -354zM74 28c0 -135 129 -247 264 -247
c28 0 55 2 82 6c-14 127 -37 245 -63 364c-79 -8 -124 -61 -124 -119c0 -44 25 -91 81 -123c5 -5 7 -10 7 -15c0 -11 -10 -22 -22 -22c-3 0 -6 1 -9 2c-80 43 -117 115 -117 185c0 88 58 174 160 197c-14 58 -29 117 -46 175c-107 -121 -213 -243 -213 -403zM335 -262
c-188 0 -333 172 -333 374c0 177 131 306 248 441c-19 62 -37 125 -45 190c-6 52 -7 104 -7 156c0 115 55 224 149 292c6 5 14 5 20 0c71 -84 133 -245 133 -358c0 -143 -86 -255 -180 -364c21 -68 39 -138 56 -207c4 0 9 1 13 1c155 0 256 -128 256 -261
c0 -76 -33 -154 -107 -210c-22 -17 -47 -28 -73 -36c3 -35 5 -70 5 -105c0 -19 -1 -39 -2 -58c-7 -119 -88 -225 -202 -228l1 43c93 2 153 92 159 191c1 18 2 37 2 55c0 31 -1 61 -4 92c-29 -5 -58 -8 -89 -8zM428 916c0 55 -4 79 -20 129c-99 -48 -162 -149 -162 -259
c0 -74 18 -133 36 -194c80 97 146 198 146 324z" fill="currentColor"/>
</g>
<g transform="translate(26.0281, 11.8362)">
<path transform="scale(0.0040, -0.0040)" d="M0 0v-250h-16v250h16zM0 0c0 -197 207 -336 207 -533c0 -71 -15 -141 -41 -207c-5 -8 -13 -12 -20 -12c-13 0 -26 11 -23 27c26 61 42 126 42 192c0 103 -94 208 -165 283v250z" fill="currentColor"/>
</g>
<g transform="translate(11.3013, 14.2962)">
<rect x="-0.0650" y="-1.5000" width="0.1300" height="3.3139" ry="0.0400" fill="currentColor"/>
</g>
<g transform="translate(11.3663, 12.8362)">
<path transform="scale(0.0040, -0.0040)" d="M0 0v-250h-16v250h16zM0 0c0 -197 207 -336 207 -533c0 -71 -15 -141 -41 -207c-5 -8 -13 -12 -20 -12c-13 0 -26 11 -23 27c26 61 42 126 42 192c0 103 -94 208 -165 283v250z" fill="currentColor"/>
</g>
<a style="color:inherit;" xlink:href="textedit://C:/Users/kalvis.apsitis/workspace/ddgatve-songs/songs/lilypond/A-ApapaVelcPeli-teSalduMiegu.ly:23:18:19">
<g transform="translate(33.3112, 15.2962)">
<path transform="scale(0.0040, -0.0040)" d="M218 136c55 0 108 -28 108 -89c0 -71 -55 -121 -102 -149c-35 -21 -75 -34 -116 -34c-55 0 -108 28 -108 89c0 71 55 121 102 149c35 21 75 34 116 34z" fill="currentColor"/>
</g>
</a>
<a style="color:inherit;" xlink:href="textedit://C:/Users/kalvis.apsitis/workspace/ddgatve-songs/songs/lilypond/A-ApapaVelcPeli-teSalduMiegu.ly:29:13:14">
<g transform="translate(32.0513, 19.7962)">
<text font-family="serif" font-size="2.4696" text-anchor="start" fill="currentColor">
<tspan>pa,</tspan>
</text>
</g>
</a>
<g transform="translate(34.5504, 14.2962)">
<rect x="-0.0650" y="-2.5000" width="0.1300" height="3.3139" ry="0.0400" fill="currentColor"/>
</g>
<g transform="translate(34.6154, 11.8362)">
<path transform="scale(0.0040, -0.0040)" d="M0 0v-250h-16v250h16zM0 0c0 -197 207 -336 207 -533c0 -71 -15 -141 -41 -207c-5 -8 -13 -12 -20 -12c-13 0 -26 11 -23 27c26 61 42 126 42 192c0 103 -94 208 -165 283v250z" fill="currentColor"/>
</g>
<a style="color:inherit;" xlink:href="textedit://C:/Users/kalvis.apsitis/workspace/ddgatve-songs/songs/lilypond/A-ApapaVelcPeli-teSalduMiegu.ly:23:20:21">
<g transform="translate(37.6365, 14.2962)">
<path transform="scale(0.0040, -0.0040)" d="M72 -250l117 326c-34 -12 -69 -22 -105 -22c-46 0 -87 33 -87 79c0 40 33 72 73 72c25 0 48 -15 56 -39c10 -28 6 -59 35 -59c16 0 54 48 61 63c6 12 23 12 28 0l-123 -420c-8 -7 -17 -10 -27 -10s-20 3 -28 10z" fill="currentColor"/>
</g>
</a>
<a style="color:inherit;" xlink:href="textedit://C:/Users/kalvis.apsitis/workspace/ddgatve-songs/songs/lilypond/A-ApapaVelcPeli-teSalduMiegu.ly:23:24:25">
<g transform="translate(43.3435, 15.2962)">
<path transform="scale(0.0040, -0.0040)" d="M218 136c55 0 108 -28 108 -89c0 -71 -55 -121 -102 -149c-35 -21 -75 -34 -116 -34c-55 0 -108 28 -108 89c0 71 55 121 102 149c35 21 75 34 116 34z" fill="currentColor"/>
</g>
</a>
<a style="color:inherit;" xlink:href="textedit://C:/Users/kalvis.apsitis/workspace/ddgatve-songs/songs/lilypond/A-ApapaVelcPeli-teSalduMiegu.ly:29:17:18">
<g transform="translate(42.0836, 19.7962)">
<text font-family="serif" font-size="2.4696" text-anchor="start" fill="currentColor">
<tspan>ma</tspan>
</text>
</g>
</a>
<g transform="translate(44.5827, 14.2962)">
<rect x="-0.0650" y="-2.5000" width="0.1300" height="3.3139" ry="0.0400" fill="currentColor"/>
</g>
<g transform="translate(44.6477, 11.8362)">
<path transform="scale(0.0040, -0.0040)" d="M0 0v-250h-16v250h16zM0 0c0 -197 207 -336 207 -533c0 -71 -15 -141 -41 -207c-5 -8 -13 -12 -20 -12c-13 0 -26 11 -23 27c26 61 42 126 42 192c0 103 -94 208 -165 283v250z" fill="currentColor"/>
</g>
<a style="color:inherit;" xlink:href="textedit://C:/Users/kalvis.apsitis/workspace/ddgatve-songs/songs/lilypond/A-ApapaVelcPeli-teSalduMiegu.ly:23:4:5">
<g transform="translate(10.0621, 16.2962)">
<path transform="scale(0.0040, -0.0040)" d="M218 136c55 0 108 -28 108 -89c0 -71 -55 -121 -102 -149c-35 -21 -75 -34 -116 -34c-55 0 -108 28 -108 89c0 71 55 121 102 149c35 21 75 34 116 34z" fill="currentColor"/>
</g>
</a>
<g transform="translate(30.2901, 12.8362)">
<path transform="scale(0.0040, -0.0040)" d="M0 0v-250h-16v250h16zM0 0c0 -197 207 -336 207 -533c0 -71 -15 -141 -41 -207c-5 -8 -13 -12 -20 -12c-13 0 -26 11 -23 27c26 61 42 126 42 192c0 103 -94 208 -165 283v250z" fill="currentColor"/>
</g>
<a style="color:inherit;" xlink:href="textedit://C:/Users/kalvis.apsitis/workspace/ddgatve-songs/songs/lilypond/A-ApapaVelcPeli-teSalduMiegu.ly:29:7:8">
<g transform="translate(28.1186, 19.7962)">
<text font-family="serif" font-size="2.4696" text-anchor="start" fill="currentColor">
<tspan>pa</tspan>
</text>
</g>
</a>
<g transform="translate(30.2251, 14.2962)">
<rect x="-0.0650" y="-1.5000" width="0.1300" height="3.3139" ry="0.0400" fill="currentColor"/>
</g>
<a style="color:inherit;" xlink:href="textedit://C:/Users/kalvis.apsitis/workspace/ddgatve-songs/songs/lilypond/A-ApapaVelcPeli-teSalduMiegu.ly:23:16:17">
<g transform="translate(28.9859, 16.2962)">
<path transform="scale(0.0040, -0.0040)" d="M218 136c55 0 108 -28 108 -89c0 -71 -55 -121 -102 -149c-35 -21 -75 -34 -116 -34c-55 0 -108 28 -108 89c0 71 55 121 102 149c35 21 75 34 116 34z" fill="currentColor"/>
</g>
</a>
<g color="rgb(100%, 100%, 100%)">
<g transform="translate(0.0000, 20.3425)">
<text font-family="sans-serif" font-size="1.9600" text-anchor="start" fill="currentColor">
<tspan>__</tspan>
</text>
</g>
</g>
</svg>
